<svg width="29" height="28" viewBox="0 0 29 28" fill="none" xmlns="http://www.w3.org/2000/svg">
<path fill-rule="evenodd" clip-rule="evenodd" d="M21.875 14C21.875 17.866 18.741 21 14.875 21C11.009 21 7.875 17.866 7.875 14C7.875 10.134 11.009 7 14.875 7C18.741 7 21.875 10.134 21.875 14ZM23.875 14C23.875 18.9706 19.8456 23 14.875 23C9.90444 23 5.875 18.9706 5.875 14C5.875 9.02944 9.90444 5 14.875 5C19.8456 5 23.875 9.02944 23.875 14ZM12.875 12C13.4273 12 13.875 11.5523 13.875 11C13.875 10.4477 13.4273 10 12.875 10C12.3227 10 11.875 10.4477 11.875 11C11.875 11.5523 12.3227 12 12.875 12ZM17.875 11C17.875 11.5523 17.4273 12 16.875 12C16.3227 12 15.875 11.5523 15.875 11C15.875 10.4477 16.3227 10 16.875 10C17.4273 10 17.875 10.4477 17.875 11ZM11.625 14C11.625 13.5858 11.2892 13.25 10.875 13.25C10.4608 13.25 10.125 13.5858 10.125 14C10.125 16.6234 12.2516 18.75 14.875 18.75C17.4984 18.75 19.625 16.6234 19.625 14C19.625 13.5858 19.2892 13.25 18.875 13.25C18.4608 13.25 18.125 13.5858 18.125 14C18.125 15.7949 16.6699 17.25 14.875 17.25C13.0801 17.25 11.625 15.7949 11.625 14Z" fill="#999999"/>
</svg>
