<svg width="28" height="28" viewBox="0 0 28 28" fill="none" xmlns="http://www.w3.org/2000/svg">
<path fill-rule="evenodd" clip-rule="evenodd" d="M21.375 14C21.375 17.866 18.241 21 14.375 21C10.509 21 7.375 17.866 7.375 14C7.375 10.134 10.509 7 14.375 7C18.241 7 21.375 10.134 21.375 14ZM23.375 14C23.375 18.9706 19.3456 23 14.375 23C9.40444 23 5.375 18.9706 5.375 14C5.375 9.02944 9.40444 5 14.375 5C19.3456 5 23.375 9.02944 23.375 14ZM15.375 11C15.375 10.4477 14.9273 10 14.375 10C13.8227 10 13.375 10.4477 13.375 11V13H11.375C10.8227 13 10.375 13.4477 10.375 14C10.375 14.5523 10.8227 15 11.375 15H13.375V17C13.375 17.5523 13.8227 18 14.375 18C14.9273 18 15.375 17.5523 15.375 17V15H17.375C17.9273 15 18.375 14.5523 18.375 14C18.375 13.4477 17.9273 13 17.375 13H15.375V11Z" fill="#999999"/>
</svg>
