<svg width="28" height="28" viewBox="0 0 28 28" fill="none" xmlns="http://www.w3.org/2000/svg">
<path fill-rule="evenodd" clip-rule="evenodd" d="M14.606 5.20457C14.248 4.93181 13.752 4.93181 13.394 5.20457L5.91291 10.9044C5.41642 11.2827 5.125 11.8711 5.125 12.4953V22C5.125 23.212 6.19038 24 7.25 24H11.125H17.125H20.75C21.8096 24 22.875 23.212 22.875 22V12.4953C22.875 11.8711 22.5836 11.2827 22.0871 10.9044L14.606 5.20457ZM18.125 22H20.75C20.8136 22 20.8551 21.9795 20.875 21.9647V12.4953L14 7.25718L7.125 12.4953L6.51896 11.6998L7.125 12.4953V21.9647C7.14492 21.9795 7.18642 22 7.25 22H10.125V16C10.125 15.4477 10.5727 15 11.125 15H17.125C17.6773 15 18.125 15.4477 18.125 16V22ZM12.125 22H16.125V17H12.125V22Z" fill="#999999"/>
</svg>
