<svg width="28" height="28" viewBox="0 0 28 28" fill="none" xmlns="http://www.w3.org/2000/svg">
<path fill-rule="evenodd" clip-rule="evenodd" d="M16.8694 11C16.8694 12.6569 15.5262 14 13.8694 14C12.2125 14 10.8694 12.6569 10.8694 11C10.8694 9.34315 12.2125 8 13.8694 8C15.5262 8 16.8694 9.34315 16.8694 11ZM18.8694 11C18.8694 13.7614 16.6308 16 13.8694 16C11.108 16 8.86938 13.7614 8.86938 11C8.86938 8.23858 11.108 6 13.8694 6C16.6308 6 18.8694 8.23858 18.8694 11ZM8.89386 16.2903C9.03215 16.1835 9.19972 16.1177 9.37434 16.1118C9.88543 16.0945 10.1449 16.2136 10.3446 16.4393C10.7297 16.8748 10.4766 17.5818 10.0236 17.9462C9.19071 18.616 8.54673 19.4973 8.17543 20.4998H19.5624C19.1912 19.4975 18.5474 18.6164 17.7148 17.9466C17.2617 17.5822 17.0088 16.875 17.394 16.4395C17.5937 16.2137 17.8531 16.0947 18.3642 16.1121C18.5387 16.1181 18.7062 16.1839 18.8444 16.2906C20.4657 17.5427 21.5846 19.3928 21.8556 21.502C21.926 22.0498 21.4715 22.4998 20.9192 22.4998H6.81858C6.26629 22.4998 5.81182 22.0498 5.88222 21.502C6.15328 19.3927 7.27236 17.5424 8.89386 16.2903Z" fill="#999999"/>
</svg>
