<svg width="32" height="32" viewBox="0 0 32 32" fill="none" xmlns="http://www.w3.org/2000/svg">
<path d="M15.8435 8.09384C15.8802 7.98093 16.04 7.98093 16.0767 8.09384L17.0507 11.0916C17.0671 11.1421 17.1141 11.1763 17.1672 11.1763L20.3193 11.1763C20.438 11.1763 20.4874 11.3282 20.3913 11.398L17.8413 13.2507C17.7983 13.2819 17.7803 13.3372 17.7967 13.3877L18.7708 16.3855C18.8075 16.4984 18.6782 16.5923 18.5822 16.5225L16.0321 14.6698C15.9892 14.6386 15.931 14.6386 15.8881 14.6698L13.338 16.5225C13.242 16.5923 13.1127 16.4984 13.1494 16.3855L14.1234 13.3877C14.1399 13.3372 14.1219 13.2819 14.0789 13.2507L11.5289 11.398C11.4328 11.3282 11.4822 11.1763 11.6009 11.1763L14.7529 11.1763C14.806 11.1763 14.8531 11.1421 14.8695 11.0916L15.8435 8.09384Z" stroke="#515151" stroke-width="1.22557"/>
<ellipse cx="15.9603" cy="12.7152" rx="8.71519" ry="8.7152" stroke="#515151" stroke-width="2.3"/>
<path d="M9.8304 18.6672L8.04314 21.7465L6.16271 25.1876C6.10145 25.2997 6.07081 25.3558 6.08626 25.3956C6.09105 25.408 6.09839 25.4191 6.10769 25.4281C6.13766 25.4569 6.19726 25.4447 6.31645 25.4203L9.79291 24.7074C9.84263 24.6972 9.86748 24.6921 9.889 24.7014C9.89599 24.7044 9.90259 24.7084 9.90861 24.7134C9.92714 24.7287 9.9366 24.7549 9.95553 24.8072L11.2028 28.2551C11.2444 28.3702 11.2653 28.4277 11.3014 28.4412C11.3127 28.4454 11.3246 28.4468 11.3362 28.4454C11.3735 28.4407 11.4011 28.3889 11.4563 28.2854L13.1174 25.1695L14.1389 23.3002L14.6496 22.3655L15.2648 21.0735" stroke="#515151" stroke-width="1.6341" stroke-linejoin="round"/>
<path d="M15.9551 21.4199L17.9252 25.0264L19.5897 28.1996C19.6461 28.3072 19.6743 28.3609 19.715 28.3706C19.7277 28.3737 19.7408 28.374 19.7532 28.3716C19.7933 28.3638 19.8176 28.3113 19.8661 28.2062L21.304 25.0964C21.3237 25.0539 21.3335 25.0326 21.352 25.0208C21.358 25.017 21.3646 25.0139 21.3716 25.0118C21.3931 25.0051 21.4183 25.0103 21.4685 25.0205L24.9578 25.7352C25.0723 25.7586 25.1296 25.7703 25.1595 25.7474C25.1689 25.7403 25.1763 25.7312 25.1812 25.7208C25.197 25.6876 25.1704 25.6382 25.1172 25.5395L23.5869 22.7007L22.6804 20.9725L22.2271 20.1084L21.5482 18.9858" stroke="#515151" stroke-width="1.6341" stroke-linejoin="round"/>
</svg>
