<svg width="32" height="32" viewBox="0 0 32 32" fill="none" xmlns="http://www.w3.org/2000/svg">
<path fill-rule="evenodd" clip-rule="evenodd" d="M24.1271 15.9047C24.1271 20.4457 20.4459 24.1269 15.9049 24.1269C11.3639 24.1269 7.6827 20.4457 7.6827 15.9047C7.6827 11.3637 11.3639 7.68246 15.9049 7.68246C20.4459 7.68246 24.1271 11.3637 24.1271 15.9047ZM26.4764 15.9047C26.4764 21.7431 21.7434 26.4761 15.9049 26.4761C10.0665 26.4761 5.3335 21.7431 5.3335 15.9047C5.3335 10.0662 10.0665 5.33325 15.9049 5.33325C21.7434 5.33325 26.4764 10.0662 26.4764 15.9047ZM17.0795 12.3809C17.0795 11.7322 16.5536 11.2063 15.9049 11.2063C15.2562 11.2063 14.7303 11.7322 14.7303 12.3809V14.7301H12.3811C11.7324 14.7301 11.2065 15.256 11.2065 15.9047C11.2065 16.5534 11.7324 17.0793 12.3811 17.0793H14.7303V19.4285C14.7303 20.0772 15.2562 20.6031 15.9049 20.6031C16.5536 20.6031 17.0795 20.0772 17.0795 19.4285V17.0793H19.4287C20.0774 17.0793 20.6033 16.5534 20.6033 15.9047C20.6033 15.256 20.0774 14.7301 19.4287 14.7301H17.0795V12.3809Z" fill="#515151"/>
</svg>
