<svg width="32" height="32" viewBox="0 0 32 32" fill="none" xmlns="http://www.w3.org/2000/svg">
<path fill-rule="evenodd" clip-rule="evenodd" d="M16.6924 5.94815C16.2833 5.63642 15.7163 5.63642 15.3072 5.94815L6.75741 12.4623C6.18998 12.8946 5.85693 13.567 5.85693 14.2804V25.1429C5.85693 26.5281 7.07451 27.4286 8.28551 27.4286H23.7141C24.9251 27.4286 26.1426 26.5281 26.1426 25.1429V14.2804C26.1426 13.567 25.8096 12.8946 25.2422 12.4623L16.6924 5.94815ZM8.14265 14.2804L15.9998 8.29399L23.8569 14.2804V25.1025C23.8342 25.1196 23.7867 25.1429 23.7141 25.1429H20.7141V18.2858C20.7141 17.6546 20.2024 17.1429 19.5712 17.1429H12.7141C12.0829 17.1429 11.5712 17.6546 11.5712 18.2858V25.1429H8.28551C8.21284 25.1429 8.16542 25.1196 8.14265 25.1025L8.14265 14.2804ZM13.8569 25.1429V19.4286H18.4284V25.1429H13.8569Z" fill="#515151"/>
</svg>
