<svg width="32" height="32" viewBox="0 0 32 32" fill="current" xmlns="http://www.w3.org/2000/svg">
<path d="M7.88635 17.0504C7.88635 15.4767 7.88635 14.6898 8.20447 13.9981C8.52259 13.3065 9.12002 12.7944 10.3149 11.7702L11.4739 10.7768C13.6336 8.92558 14.7135 8 15.9998 8C17.2861 8 18.3659 8.92558 20.5256 10.7768L21.6847 11.7702C22.8795 12.7944 23.477 13.3065 23.7951 13.9981C24.1132 14.6898 24.1132 15.4767 24.1132 17.0504V21.9652C24.1132 24.1508 24.1132 25.2436 23.4342 25.9225C22.7553 26.6015 21.6625 26.6015 19.477 26.6015H12.5226C10.337 26.6015 9.24428 26.6015 8.56531 25.9225C7.88635 25.2436 7.88635 24.1508 7.88635 21.9652V17.0504Z" stroke="#898989" stroke-width="2"/>
<path d="M18.8975 26.6016V20.5165C18.8975 20.0364 18.5083 19.6472 18.0282 19.6472H13.9715C13.4914 19.6472 13.1022 20.0364 13.1022 20.5165V26.6016" stroke="#898989" stroke-width="2" stroke-linecap="round" stroke-linejoin="round"/>
</svg>
