<svg width="32" height="32" viewBox="0 0 32 32" fill="none" xmlns="http://www.w3.org/2000/svg">
<path fill-rule="evenodd" clip-rule="evenodd" d="M19.2794 12.5714C19.2794 14.465 17.7444 16 15.8508 16C13.9573 16 12.4223 14.465 12.4223 12.5714C12.4223 10.6779 13.9573 9.14286 15.8508 9.14286C17.7444 9.14286 19.2794 10.6779 19.2794 12.5714ZM21.5651 12.5714C21.5651 15.7273 19.0067 18.2857 15.8508 18.2857C12.6949 18.2857 10.1365 15.7273 10.1365 12.5714C10.1365 9.41552 12.6949 6.85715 15.8508 6.85715C19.0067 6.85715 21.5651 9.41552 21.5651 12.5714ZM10.1645 18.6175C10.3225 18.4955 10.5141 18.4203 10.7136 18.4135C11.2977 18.3938 11.5943 18.5299 11.8224 18.7878C12.2626 19.2855 11.9734 20.0935 11.4556 20.5099C10.5037 21.2754 9.76777 22.2826 9.34342 23.4284H22.3571C21.9329 22.2829 21.1971 21.2759 20.2456 20.5104C19.7278 20.0939 19.4387 19.2857 19.8789 18.788C20.1071 18.53 20.4037 18.3939 20.9877 18.4139C21.1872 18.4207 21.3786 18.4959 21.5365 18.6179C23.3894 20.0488 24.6682 22.1632 24.9779 24.5737C25.0584 25.1998 24.539 25.7141 23.9078 25.7141H7.79274C7.16155 25.7141 6.64216 25.1998 6.72261 24.5737C7.0324 22.163 8.31135 20.0485 10.1645 18.6175Z" fill="#515151"/>
</svg>
