<svg width="64" height="64" viewBox="0 0 64 64" fill="none" xmlns="http://www.w3.org/2000/svg">
<g opacity="0.4">
<path fill-rule="evenodd" clip-rule="evenodd" d="M20.001 23.5702C20.001 16.7755 26.2457 12.093 32.8488 12.093H33.2968C34.7018 12.093 36.1021 12.341 37.4139 12.8315C40.7884 14.0933 43.1372 16.7467 43.808 19.9186C44.4864 23.1262 43.3594 26.4911 40.5596 28.8175L37.6942 31.1983C36.4038 32.2704 35.8048 33.6221 35.8048 34.8973V37.1825C35.8048 38.9899 34.3397 40.4551 32.5323 40.4551C30.7249 40.4551 29.2597 38.9899 29.2597 37.1825V34.8973C29.2597 31.4872 30.8763 28.3536 33.5114 26.1641L36.3768 23.7833C37.3699 22.9581 37.564 22.0265 37.4046 21.2729C37.2376 20.4835 36.5897 19.511 35.1217 18.9621C34.5593 18.7518 33.9366 18.6381 33.2968 18.6381H32.8488C28.8754 18.6381 26.5461 21.3023 26.5461 23.5702V24.0202C26.5461 25.8276 25.0809 27.2928 23.2735 27.2928C21.4661 27.2928 20.001 25.8276 20.001 24.0202V23.5702Z" fill="#F8F8F8"/>
<path d="M28.2283 48.11C28.2283 45.7431 30.147 43.8245 32.5138 43.8245C34.8806 43.8245 36.7993 45.7431 36.7993 48.11C36.7993 50.4768 34.8806 52.3955 32.5138 52.3955C30.147 52.3955 28.2283 50.4768 28.2283 48.11Z" fill="#F8F8F8"/>
</g>
</svg>
