<svg width="88" height="93" viewBox="0 0 88 93" fill="none" xmlns="http://www.w3.org/2000/svg">
<g filter="url(#filter0_d_2208_18577)">
<circle opacity="0.2" cx="44" cy="40" r="40" fill="#F8F8F8"/>
<circle cx="44" cy="40" r="38" fill="#131313"/>
<g clip-path="url(#clip0_2208_18577)">
<path d="M52.0235 25.0748C55.3182 21.6755 58.3109 15.9792 57.2928 12.7274C57.0759 12.0337 56.5339 10.3007 54.8995 9.47058C53.7496 8.88638 52.5932 9.02099 52.1284 9.07918C48.5509 9.53828 46.378 13.4428 45.9959 14.1277C44.3908 17.0104 43.9564 20.7152 44.3883 23.5489C44.2587 23.5465 44.1289 23.5449 43.9987 23.5449C43.8752 23.5449 43.7516 23.5465 43.6289 23.5486C44.0665 20.712 43.6341 16.9956 42.0249 14.1055C41.6427 13.4179 39.4696 9.5158 35.8921 9.05696C35.4289 8.99746 34.2722 8.8639 33.121 9.4481C31.4868 10.2782 30.9446 12.0113 30.7277 12.7049C29.7093 15.961 32.7081 21.6636 36.0055 25.0619C28.3728 28.0905 22.998 35.327 22.998 43.7728C22.998 54.9442 32.4003 64.0004 43.9982 64.0004C55.5961 64.0004 64.9988 54.9442 64.9988 43.7728C64.9988 35.3391 59.64 28.1111 52.0235 25.0748Z" fill="#F8287E"/>
<path d="M44 56.7995C50.3224 56.7995 55.4477 51.8627 55.4477 45.7728C55.4477 39.6829 50.3224 34.7461 44 34.7461C37.6776 34.7461 32.5522 39.6829 32.5522 45.7728C32.5522 51.8627 37.6776 56.7995 44 56.7995Z" fill="#FF94C0"/>
<path d="M41.0766 49.6452C41.438 49.6452 41.7309 49.363 41.7309 49.015C41.7309 48.6669 41.438 48.3848 41.0766 48.3848C40.7153 48.3848 40.4224 48.6669 40.4224 49.015C40.4224 49.363 40.7153 49.6452 41.0766 49.6452Z" fill="#070707"/>
<path d="M47.063 49.6452C47.4243 49.6452 47.7173 49.363 47.7173 49.015C47.7173 48.6669 47.4243 48.3848 47.063 48.3848C46.7016 48.3848 46.4087 48.6669 46.4087 49.015C46.4087 49.363 46.7016 49.6452 47.063 49.6452Z" fill="#070707"/>
<path d="M44.0004 48.6743C43.5238 48.6743 43.058 48.8103 42.6617 49.0653C42.2655 49.3203 41.9567 49.6827 41.7743 50.1068C41.5919 50.5308 41.5441 50.9974 41.6371 51.4476C41.7301 51.8978 41.9595 52.3113 42.2965 52.6359C42.6334 52.9605 43.0627 53.1815 43.5301 53.271C43.9975 53.3606 44.4819 53.3146 44.9222 53.1389C45.3624 52.9632 45.7387 52.6657 46.0034 52.2841C46.2681 51.9024 46.4094 51.4537 46.4093 50.9947C46.4093 50.3793 46.1554 49.7892 45.7037 49.354C45.2519 48.9189 44.6392 48.6744 44.0004 48.6743ZM44.0004 51.9944C43.7951 51.9944 43.5944 51.9358 43.4237 51.826C43.253 51.7162 43.1199 51.5601 43.0413 51.3774C42.9627 51.1948 42.9421 50.9938 42.9821 50.7998C43.0222 50.6059 43.121 50.4278 43.2661 50.2879C43.4113 50.1481 43.5962 50.0529 43.7975 50.0143C43.9988 49.9757 44.2075 49.9954 44.3972 50.0711C44.5868 50.1468 44.7489 50.2749 44.863 50.4393C44.977 50.6037 45.0379 50.797 45.0379 50.9947C45.0377 51.2596 44.9283 51.5137 44.7337 51.701C44.5392 51.8883 44.2754 51.9935 44.0004 51.9936V51.9944Z" fill="#F11470"/>
<path d="M39.426 47.8016C39.4378 47.7915 39.4496 47.7822 39.4617 47.7725C39.4738 47.7627 39.4666 47.7614 39.4557 47.777C39.4613 47.7717 39.4677 47.7672 39.4746 47.7637C39.4986 47.7472 39.5233 47.7316 39.5487 47.7169C39.574 47.7021 39.6001 47.6886 39.6267 47.6762C39.6393 47.6701 39.652 47.6646 39.6649 47.659C39.6877 47.649 39.6588 47.659 39.6572 47.6619C39.6667 47.6566 39.6769 47.6527 39.6877 47.6503C39.7431 47.6302 39.8001 47.6143 39.8582 47.6029L39.8996 47.5955L39.918 47.5929C39.918 47.5929 39.8837 47.5969 39.9133 47.5929C39.943 47.5889 39.9754 47.5873 40.0064 47.5865C40.0374 47.5857 40.0657 47.5865 40.0951 47.5865C40.1077 47.5865 40.1201 47.5881 40.1324 47.5892L40.1558 47.5916C40.1695 47.5916 40.1226 47.5868 40.1558 47.5916C40.2129 47.6001 40.2692 47.6132 40.3241 47.631C40.3353 47.6344 40.3466 47.6384 40.3576 47.6423L40.3784 47.65C40.396 47.6566 40.3878 47.6622 40.3738 47.6479C40.3851 47.6548 40.3974 47.6601 40.4103 47.6635C40.4251 47.6704 40.4397 47.6773 40.4542 47.6847C40.5038 47.7104 40.5515 47.7394 40.597 47.7714C40.6036 47.7762 40.6157 47.7875 40.5899 47.7661L40.6107 47.7822C40.6233 47.7923 40.6357 47.8023 40.6478 47.8129C40.6708 47.833 40.6931 47.8542 40.7145 47.8761C40.7255 47.8875 40.7362 47.8991 40.7469 47.9113L40.7612 47.9277L40.7667 47.9343C40.776 47.9457 40.7741 47.9433 40.7612 47.9274C40.7612 47.9274 40.8122 47.9983 40.8161 48.0052C40.8253 48.0204 40.8376 48.0337 40.8522 48.0444C40.8668 48.0551 40.8834 48.0629 40.9011 48.0673C40.9189 48.0718 40.9373 48.0729 40.9555 48.0705C40.9736 48.0681 40.9911 48.0622 41.0069 48.0533C41.0227 48.0444 41.0365 48.0326 41.0476 48.0185C41.0587 48.0045 41.0668 47.9885 41.0714 47.9714C41.076 47.9543 41.0772 47.9365 41.0747 47.9191C41.0722 47.9016 41.0661 47.8847 41.0569 47.8695C40.9116 47.6476 40.6947 47.4778 40.4394 47.3863C40.1829 47.2952 39.9016 47.2924 39.6432 47.3784C39.4905 47.4289 39.3493 47.5073 39.2275 47.6093C39.2016 47.6346 39.187 47.6688 39.187 47.7044C39.187 47.7399 39.2016 47.7741 39.2275 47.7994C39.2541 47.8238 39.2895 47.8374 39.3262 47.8374C39.3629 47.8374 39.3983 47.8238 39.4249 47.7994L39.426 47.8016Z" fill="#070707"/>
<path d="M48.8227 47.6124C48.6076 47.4322 48.3346 47.3288 48.0496 47.3197C47.7824 47.3132 47.5208 47.3936 47.3069 47.5479C47.1827 47.6366 47.0767 47.7467 46.9942 47.8727C46.9755 47.9034 46.9703 47.9401 46.9796 47.9745C46.989 48.009 47.0122 48.0385 47.0442 48.0564C47.0761 48.0744 47.1141 48.0795 47.1499 48.0705C47.1857 48.0614 47.2163 48.0391 47.235 48.0083C47.2501 47.9853 47.2657 47.9626 47.2825 47.9409C47.2992 47.9192 47.2825 47.9451 47.2794 47.9441C47.2764 47.943 47.2915 47.9298 47.2907 47.9308C47.3 47.9197 47.3096 47.9089 47.3182 47.898C47.3567 47.8565 47.3985 47.8179 47.4434 47.7827C47.445 47.7812 47.4609 47.7698 47.4607 47.7693C47.4604 47.7687 47.4332 47.7894 47.4538 47.7745C47.4645 47.7671 47.4752 47.7595 47.4862 47.7523C47.5106 47.7359 47.5359 47.7206 47.5614 47.7066C47.5869 47.6926 47.6081 47.6817 47.6322 47.6704L47.6685 47.6542C47.6959 47.6423 47.6452 47.6632 47.6641 47.6563L47.6888 47.6468C47.7416 47.6278 47.7959 47.6129 47.8511 47.6021C47.8643 47.5997 47.8785 47.5974 47.8906 47.5955H47.8994C47.9118 47.5937 47.9118 47.5937 47.8994 47.5955H47.8901L47.9087 47.5934C47.9395 47.5905 47.9708 47.5886 48.0018 47.5884C48.0328 47.5881 48.0567 47.5884 48.0858 47.5905C48.0998 47.5905 48.1133 47.5926 48.1278 47.5939L48.1509 47.5966C48.1509 47.5966 48.1152 47.5913 48.1509 47.5966C48.2093 47.6058 48.2669 47.6195 48.323 47.6376L48.367 47.6529L48.3887 47.6611L48.3771 47.6563L48.3898 47.6619C48.4197 47.6746 48.4488 47.6883 48.4773 47.7042C48.5059 47.7201 48.5364 47.7381 48.5644 47.7571L48.5795 47.7677L48.5946 47.7782L48.5811 47.7682C48.5968 47.7782 48.6114 47.7898 48.6245 47.8028C48.6794 47.8489 48.7681 47.8589 48.8216 47.8028C48.8697 47.7523 48.8804 47.6619 48.8216 47.6127L48.8227 47.6124Z" fill="#070707"/>
</g>
<rect x="29" y="67" width="31" height="18" rx="4" fill="#02DB26"/>
<path d="M33.972 79.508H38.928V78.344H35.448V71.276H33.972V79.508ZM41.8241 79.508H43.2281L45.4601 73.328H44.1281L42.6161 77.84H42.5561L41.0561 73.328H39.5801L41.8241 79.508ZM46.4948 79.7H47.9588V78.296H46.4948V79.7ZM51.5586 79.628C53.4306 79.628 54.5946 78.68 54.5946 77.168C54.5946 75.944 53.8746 75.356 52.8426 75.152C53.7426 74.84 54.3186 74.216 54.3186 73.232C54.3186 71.912 53.2866 71.192 51.7626 71.192C50.9586 71.192 49.9626 71.42 49.4586 71.708L49.6266 72.8C50.1186 72.572 50.7666 72.368 51.3786 72.368C52.2786 72.368 52.8426 72.668 52.8426 73.496C52.8426 74.264 52.2066 74.696 51.2586 74.72L50.5026 74.732V75.8L51.3546 75.824C52.3986 75.836 53.0586 76.196 53.0586 77.072C53.0586 77.996 52.4106 78.452 51.3066 78.452C50.6946 78.452 49.8066 78.248 49.3866 77.984L49.1466 79.052C49.6146 79.352 50.5746 79.628 51.5586 79.628Z" fill="white"/>
</g>
<defs>
<filter id="filter0_d_2208_18577" x="0" y="0" width="88" height="93" filterUnits="userSpaceOnUse" color-interpolation-filters="sRGB">
<feFlood flood-opacity="0" result="BackgroundImageFix"/>
<feColorMatrix in="SourceAlpha" type="matrix" values="0 0 0 0 0 0 0 0 0 0 0 0 0 0 0 0 0 0 127 0" result="hardAlpha"/>
<feOffset dy="4"/>
<feGaussianBlur stdDeviation="2"/>
<feComposite in2="hardAlpha" operator="out"/>
<feColorMatrix type="matrix" values="0 0 0 0 0 0 0 0 0 0 0 0 0 0 0 0 0 0 0.25 0"/>
<feBlend mode="normal" in2="BackgroundImageFix" result="effect1_dropShadow_2208_18577"/>
<feBlend mode="normal" in="SourceGraphic" in2="effect1_dropShadow_2208_18577" result="shape"/>
</filter>
<clipPath id="clip0_2208_18577">
<rect width="42" height="55" fill="white" transform="translate(23 9)"/>
</clipPath>
</defs>
</svg>
