<svg width="92" height="92" viewBox="0 0 92 92" fill="none" xmlns="http://www.w3.org/2000/svg">
<path d="M43.641 5.9493C69.0456 5.9493 89.6405 26.5433 89.6405 51.9479C89.6448 56.6779 88.9189 61.3802 87.4884 65.8887C90.4678 59.6819 92.0099 52.8834 92 45.9986C92 20.594 71.406 0 46.0014 0C25.4566 0 8.05802 13.4684 2.15308 32.0577C9.57186 16.6127 25.3611 5.9493 43.641 5.9493Z" fill="#2C2C2C"/>
<path d="M46.0003 91.9983C64.2801 91.9983 80.0694 81.3349 87.4872 65.8889C88.9177 61.3804 89.6436 56.6781 89.6393 51.9481C89.6393 26.5435 69.0444 5.95435 43.6398 5.95435C25.36 5.95435 9.57072 16.6178 2.15195 32.0628C0.722812 36.5699 -0.00278424 41.2705 0.000745236 45.9988C0.000745236 71.4033 20.5957 91.9983 46.0003 91.9983Z" fill="#333333"/>
<path d="M33.2819 60.43C34.5509 60.43 35.5796 59.4012 35.5796 58.1322C35.5796 56.8632 34.5509 55.8345 33.2819 55.8345C32.0129 55.8345 30.9841 56.8632 30.9841 58.1322C30.9841 59.4012 32.0129 60.43 33.2819 60.43Z" fill="#868686"/>
<path d="M54.3083 60.43C55.5773 60.43 56.606 59.4012 56.606 58.1322C56.606 56.8632 55.5773 55.8345 54.3083 55.8345C53.0392 55.8345 52.0105 56.8632 52.0105 58.1322C52.0105 59.4012 53.0392 60.43 54.3083 60.43Z" fill="#868686"/>
<path d="M27.4819 53.7097C27.5234 53.674 27.5658 53.6393 27.6082 53.6046C27.6507 53.5698 27.6256 53.5641 27.587 53.621C27.6066 53.602 27.6287 53.5858 27.6526 53.5727C27.7374 53.512 27.8242 53.4551 27.9129 53.4011C28.0016 53.3471 28.0942 53.2989 28.1868 53.2526L28.3208 53.1909C28.4018 53.1533 28.3005 53.1957 28.2948 53.2015C28.3277 53.1819 28.3635 53.1676 28.4008 53.1591C28.5954 53.0853 28.7957 53.0276 28.9996 52.9865C29.0478 52.9768 29.096 52.9672 29.1452 52.9595L29.2098 52.9498C29.2098 52.9498 29.0903 52.9643 29.1934 52.9498C29.2966 52.9354 29.4113 52.9296 29.5213 52.9267C29.6312 52.9238 29.7286 52.9267 29.8327 52.9267C29.8761 52.9267 29.9195 52.9325 29.9629 52.9363C29.9908 52.9363 30.0178 52.9421 30.0448 52.945C30.0931 52.945 29.9291 52.9267 30.0448 52.945C30.2456 52.9759 30.4434 53.0239 30.6359 53.0887C30.6754 53.1012 30.715 53.1157 30.7545 53.1301L30.8268 53.1581C30.8885 53.1822 30.8596 53.2025 30.8114 53.1494C30.851 53.175 30.8942 53.1946 30.9397 53.2073C30.9908 53.2324 31.0428 53.2574 31.093 53.2844C31.2672 53.3782 31.4347 53.4839 31.5943 53.6007C31.6185 53.6181 31.6609 53.6595 31.5702 53.5814C31.5934 53.6017 31.6194 53.62 31.6435 53.6402C31.6869 53.6759 31.7303 53.7135 31.7737 53.7521C31.8547 53.8254 31.9328 53.9015 32.007 53.9816C32.0466 54.024 32.0842 54.0664 32.1208 54.1098L32.171 54.1706L32.1912 54.1947L32.1719 54.1696C32.1719 54.1696 32.3503 54.428 32.3648 54.4531C32.3972 54.5087 32.4404 54.5573 32.4916 54.5963C32.5429 54.6352 32.6014 54.6636 32.6636 54.68C32.7259 54.6963 32.7908 54.7002 32.8546 54.6915C32.9184 54.6828 32.9798 54.6616 33.0354 54.6291C33.091 54.5966 33.1396 54.5535 33.1786 54.5022C33.2175 54.4509 33.2459 54.3925 33.2623 54.3302C33.2786 54.2679 33.2825 54.203 33.2738 54.1393C33.2651 54.0755 33.2438 54.014 33.2114 53.9584C32.7015 53.1533 31.9423 52.537 31.0496 52.2035C30.1485 51.8724 29.1608 51.8625 28.2533 52.1755C27.7173 52.3594 27.2219 52.6452 26.7944 53.0173C26.7034 53.1095 26.6523 53.2339 26.6523 53.3635C26.6523 53.4931 26.7034 53.6174 26.7944 53.7097C26.8877 53.7987 27.0117 53.8483 27.1406 53.8483C27.2695 53.8483 27.3935 53.7987 27.4867 53.7097H27.4819Z" fill="#868686"/>
<path d="M60.4886 53.0165C59.7334 52.3593 58.7748 51.9823 57.7743 51.9491C56.8357 51.925 55.9164 52.2182 55.1651 52.7813C54.7292 53.1046 54.3571 53.5061 54.0678 53.9653C54.0033 54.0777 53.9855 54.211 54.0183 54.3363C54.0511 54.4617 54.132 54.5691 54.2433 54.6354C54.3561 54.698 54.4888 54.7147 54.6136 54.682C54.7384 54.6494 54.8458 54.5698 54.9135 54.46C54.9655 54.3751 55.0205 54.2932 55.0793 54.2141C55.1381 54.135 55.0793 54.2295 55.0697 54.2257L55.1082 54.1774C55.141 54.1369 55.1748 54.0974 55.2046 54.0579C55.3398 53.9063 55.4865 53.7655 55.6434 53.6365C55.6501 53.6365 55.7051 53.5902 55.7051 53.5883C55.7051 53.5864 55.6087 53.6616 55.68 53.6076L55.7947 53.5256C55.8806 53.4668 55.9683 53.4109 56.059 53.3588C56.1496 53.3068 56.2229 53.2682 56.3067 53.2277L56.435 53.1689C56.5314 53.1245 56.353 53.2007 56.4186 53.1766L56.5063 53.1419C56.6941 53.0724 56.8873 53.0185 57.0839 52.9808L57.2218 52.9558L57.2527 52.951L57.2199 52.9558L57.2854 52.9481C57.3944 52.9365 57.5033 52.9307 57.6133 52.9297C57.7232 52.9288 57.8061 52.9297 57.9083 52.9375C57.9565 52.9375 58.0047 52.9452 58.0549 52.95L58.1368 52.9596C58.1368 52.9596 58.0105 52.9404 58.1368 52.9596C58.3423 52.9935 58.5448 53.0435 58.7424 53.1091C58.7935 53.1264 58.8455 53.1457 58.8967 53.165L58.9728 53.1949L58.9313 53.1775L58.9767 53.1978C59.0808 53.2441 59.184 53.2942 59.2843 53.3521C59.3845 53.4099 59.4906 53.4755 59.5899 53.5449L59.643 53.5835L59.696 53.6221L59.6487 53.5854C59.7034 53.6218 59.7542 53.6638 59.8001 53.7108C59.993 53.8785 60.3054 53.9152 60.4924 53.7108C60.6621 53.5276 60.6997 53.1978 60.4924 53.0185L60.4886 53.0165Z" fill="#868686"/>
<path d="M69.4873 73.7918C71.331 79.9697 67.0311 82.6463 65.1585 83.2051C63.2858 83.764 58.2223 83.8816 56.3786 77.7037C54.535 71.5259 58.8993 62.2313 58.8993 62.2313C58.8993 62.2313 67.6437 67.6139 69.4873 73.7918Z" fill="#7D3CFF"/>
<path d="M50.2492 68.9993C50.9688 68.9993 51.563 68.4121 51.4453 67.7022C51.1764 66.0798 50.4072 64.5693 49.2292 63.3913C47.7418 61.9039 45.7245 61.0684 43.6211 61.0684C41.5177 61.0684 39.5004 61.9039 38.0131 63.3913C36.8351 64.5693 36.0659 66.0798 35.7969 67.7022C35.6793 68.4121 36.2735 68.9993 36.993 68.9993C37.7126 68.9993 38.2802 68.4075 38.4545 67.7094C38.6865 66.7801 39.167 65.9224 39.8556 65.2338C40.8543 64.2351 42.2088 63.6741 43.6211 63.6741C45.0335 63.6741 46.388 64.2351 47.3866 65.2338C48.0752 65.9224 48.5558 66.7801 48.7878 67.7094C48.9621 68.4075 49.5297 68.9993 50.2492 68.9993Z" fill="#868686"/>
</svg>
