<svg width="44" height="44" viewBox="0 0 44 44" fill="none" xmlns="http://www.w3.org/2000/svg">
<circle opacity="0.2" cx="22" cy="22" r="22" fill="white"/>
<path d="M32.2234 16.9135C32.4622 16.3236 32.6038 15.7025 32.6264 15.0573C32.7809 10.6164 27.2572 6.73275 22.3529 6.8294C17.6839 6.92145 12.3707 10.6449 12.5228 15.0573C12.5327 15.3397 12.5649 15.6208 12.619 15.8977C10.4102 18.7804 9.23596 23.1435 9.29931 26.7372C9.332 28.5893 9.56747 33.2392 12.8839 36.1057C15.3469 38.2345 18.2091 38.2345 22.0714 38.2345C25.9404 38.2345 28.7981 38.2345 31.259 36.1057C34.5594 33.2509 34.8103 28.6323 34.8437 26.7372C34.9 23.5439 33.979 19.7435 32.2234 16.9135Z" fill="#57FA6A"/>
<path d="M23.3623 20.5718C27.2712 20.5718 30.44 17.8766 30.44 14.552C30.44 11.2274 27.2712 8.53223 23.3623 8.53223C19.4535 8.53223 16.2847 11.2274 16.2847 14.552C16.2847 17.8766 19.4535 20.5718 23.3623 20.5718Z" fill="#03B46C"/>
<path d="M23.9029 14.8507C24.0362 14.8507 24.1442 14.7269 24.1442 14.5743C24.1442 14.4216 24.0362 14.2979 23.9029 14.2979C23.7697 14.2979 23.6616 14.4216 23.6616 14.5743C23.6616 14.7269 23.7697 14.8507 23.9029 14.8507Z" fill="#070707"/>
<path d="M25.5523 14.8287C25.6856 14.8287 25.7936 14.7049 25.7936 14.5523C25.7936 14.3996 25.6856 14.2759 25.5523 14.2759C25.4191 14.2759 25.311 14.3996 25.311 14.5523C25.311 14.7049 25.4191 14.8287 25.5523 14.8287Z" fill="#070707"/>
<path d="M21.1369 14.4582C21.1506 14.4937 21.16 14.5308 21.1649 14.5687L21.1561 14.5003C21.161 14.5421 21.1608 14.5843 21.1555 14.626L21.1642 14.5576C21.1577 14.6056 21.1453 14.6526 21.1274 14.6973L21.1521 14.6359C21.1318 14.6854 21.1058 14.7321 21.0745 14.7748L21.113 14.7227C21.0814 14.7654 21.0449 14.8039 21.0043 14.8373L21.0541 14.7971C21.0162 14.8279 20.9747 14.8535 20.9306 14.8733L20.9894 14.8475C20.951 14.8643 20.9107 14.876 20.8694 14.8822L20.9348 14.873C20.8974 14.878 20.8595 14.878 20.8221 14.873L20.8875 14.882C20.8787 14.8808 20.8699 14.8793 20.8611 14.8776C20.8294 14.8669 20.7956 14.8654 20.7632 14.873C20.7306 14.8744 20.6991 14.885 20.6718 14.9036C20.6181 14.9395 20.5781 14.9939 20.5587 15.0573C20.5445 15.1231 20.5475 15.197 20.5836 15.2555C20.6166 15.3093 20.6682 15.3612 20.7305 15.3738C20.7863 15.3865 20.8434 15.3921 20.9005 15.3906C20.9567 15.3879 21.0126 15.3787 21.0669 15.363C21.1204 15.3461 21.1722 15.3236 21.2214 15.2958C21.27 15.2667 21.3159 15.233 21.3586 15.195C21.3872 15.1709 21.4138 15.1441 21.4378 15.1149C21.4757 15.0702 21.5098 15.022 21.5396 14.971C21.5676 14.9197 21.5912 14.8659 21.61 14.8103C21.6225 14.7748 21.6316 14.7381 21.6371 14.7007C21.6463 14.6377 21.6551 14.5749 21.6489 14.5111C21.6428 14.4473 21.6344 14.382 21.6109 14.3212C21.5987 14.2725 21.5726 14.2288 21.5362 14.196C21.4997 14.1632 21.4545 14.1428 21.4067 14.1375C21.3742 14.1299 21.3404 14.1315 21.3086 14.1422C21.2492 14.1623 21.1918 14.2009 21.1617 14.2605L21.1369 14.3219C21.1252 14.3667 21.1252 14.4139 21.1369 14.4587V14.4582Z" fill="#070707"/>
<path d="M27.3249 13.969C27.3698 14.0437 27.4243 14.1116 27.4869 14.1707C27.5494 14.2302 27.6194 14.2804 27.6948 14.32C27.7722 14.3584 27.8526 14.3915 27.9377 14.4051C28.0468 14.4278 28.159 14.4281 28.2682 14.4059C28.3678 14.3888 28.4639 14.3539 28.5523 14.3028C28.6054 14.2731 28.6495 14.209 28.6652 14.1491C28.6755 14.1159 28.677 14.0805 28.6696 14.0465C28.6682 14.0124 28.6582 13.9794 28.6405 13.9508C28.6066 13.8959 28.5562 13.8475 28.4936 13.8326C28.4296 13.8163 28.362 13.8255 28.3041 13.8585C28.2853 13.869 28.2661 13.8786 28.2465 13.8874L28.3052 13.8615C28.2496 13.8857 28.1914 13.9024 28.1318 13.9112L28.197 13.902C28.1374 13.91 28.0771 13.91 28.0174 13.902L28.0827 13.9111C28.0244 13.9029 27.9674 13.8868 27.9131 13.8633L27.9718 13.8892C27.9167 13.8649 27.8647 13.8333 27.8173 13.7952L27.8669 13.8354C27.8211 13.7981 27.7799 13.7551 27.7442 13.7072L27.7827 13.7594C27.7709 13.7433 27.7598 13.7268 27.7493 13.7096C27.7159 13.6526 27.6636 13.6105 27.6024 13.5914C27.5706 13.5807 27.5368 13.5791 27.5043 13.5868C27.4718 13.5883 27.4402 13.5988 27.4129 13.6173C27.3605 13.6527 27.3142 13.7055 27.3 13.771C27.2857 13.8366 27.2887 13.911 27.3247 13.9693L27.3249 13.969Z" fill="#070707"/>
<path d="M26.8658 15.6458C26.8507 15.6582 26.5533 15.3667 26.3904 14.9161C26.3234 14.7309 26.3335 14.6636 26.3606 14.6176C26.432 14.4975 26.603 14.5223 26.7327 14.562C26.8579 14.6004 26.9855 14.64 27.0923 14.7186C27.199 14.7972 27.2824 14.923 27.2792 15.0594C27.2761 15.1793 27.2055 15.2928 27.1165 15.3527C26.9779 15.4462 26.835 15.3816 26.8 15.4575C26.7664 15.5305 26.8748 15.6381 26.8658 15.6458Z" fill="white"/>
<path d="M21.2024 15.0805C21.5883 15.4782 22.0353 15.8054 22.5246 16.0484C23.0296 16.3032 23.5722 16.4668 24.1293 16.5324C24.6523 16.5988 25.1912 16.5747 25.7051 16.4504C26.1869 16.3341 26.6603 16.1235 27.0601 15.8173C27.2635 15.6617 27.453 15.4873 27.6124 15.2824C27.6971 15.1753 27.7743 15.0619 27.8433 14.9432C27.9109 14.8224 27.9694 14.6964 28.0182 14.5661C28.0401 14.5094 28.0596 14.4516 28.0776 14.3932C28.1159 14.2647 28.0323 14.1071 27.9059 14.0766C27.7724 14.0449 27.6444 14.1188 27.6035 14.2564C27.5824 14.327 27.5582 14.3965 27.5307 14.4649L27.5555 14.4034C27.4802 14.5872 27.383 14.7603 27.2663 14.9185L27.3048 14.8664C27.1657 15.0527 27.0047 15.2199 26.8256 15.364L26.8754 15.3238C26.6494 15.5043 26.4023 15.654 26.1401 15.7691L26.1989 15.7433C25.8856 15.8812 25.5563 15.975 25.2195 16.0222L25.2849 16.0129C24.8812 16.068 24.4723 16.067 24.0688 16.01L24.1341 16.0192C23.71 15.9588 23.2955 15.8401 22.9012 15.6661L22.9599 15.692C22.5849 15.5262 22.2317 15.3107 21.909 15.0509L21.9588 15.0911C21.8156 14.975 21.6791 14.85 21.5501 14.7169C21.4584 14.6223 21.2926 14.614 21.2024 14.7169C21.1122 14.8198 21.1046 14.9796 21.2024 15.0805Z" fill="#070707"/>
</svg>
