<svg id="blue_2" data-name="blue_2" xmlns="http://www.w3.org/2000/svg" viewBox="0 0 1177.9 879.6"><defs><style>.cls-3-blue-level-two{fill:#fff}.cls-4-blue-level-two{fill:#070707}</style></defs><path d="M845 80c-97 0-184 34-245 88a47 47 0 0 1-58 4c-57-38-130-61-209-61C149 111 0 234 0 385c0 71 33 136 87 185a48 48 0 0 1 16 35v1c0 151 149 274 333 274 160 0 294-94 326-219a47 47 0 0 1 49-35l34 2c184 0 333-123 333-274S1029 80 845 80Z" style="fill:#1600cb"/><circle cx="522" cy="286.7" r="286.7" style="fill:#2501fd"/><circle class="cls-3-blue-level-two" cx="427.7" cy="314.6" r="16.9"/><circle class="cls-3-blue-level-two" cx="612.7" cy="314.6" r="16.9"/><path class="cls-4-blue-level-two" d="m505 315 2 22 3 12c2 3 7 6 11 6a7 7 0 0 0 5-2 7 7 0 0 0 2-5c0-3-3-7-7-6a5 5 0 0 1-1 0c1 0 1 0 0 0h1s-1-1 0 0l-1-1v-8l-2-18c0-4-3-7-7-7-3 0-6 3-6 7Zm20 49c-12 3-22 16-21 29s13 24 25 25c17 1 33-16 30-32s-23-27-38-20"/><circle class="cls-4-blue-level-two" cx="432.4" cy="322.8" r="4.7"/><circle class="cls-4-blue-level-two" cx="612.7" cy="322.8" r="4.7"/></svg>