<svg width="33" height="33" viewBox="0 0 33 33" fill="none" xmlns="http://www.w3.org/2000/svg">
<path d="M26.8313 4.04532C28.5926 6.6794 29.5302 9.77479 29.5254 12.9399C29.5254 21.8166 22.3031 29.0108 13.3937 29.0108C9.44868 29.0164 5.63933 27.5762 2.69116 24.9644C5.58204 29.2907 10.5211 32.1407 16.1287 32.1407C25.0381 32.1407 32.2607 24.9449 32.2607 16.0681C32.2617 11.2866 30.1628 6.98861 26.8313 4.04532Z" fill="#0E07C4"/>
<path d="M29.5266 12.9409C29.5314 9.77585 28.5938 6.68046 26.8325 4.04638C23.8844 1.43456 20.075 -0.0056551 16.13 1.66886e-05C7.22062 1.66886e-05 1.91561e-05 7.1962 1.91561e-05 16.0729C-0.00488693 19.238 0.932687 22.3335 2.69409 24.9675C5.64226 27.5793 9.45161 29.0195 13.3967 29.0138C22.3043 29.0135 29.5266 21.8177 29.5266 12.9409Z" fill="#1D17FA"/>
<path d="M7.05398 12.2152C7.66449 12.2152 8.1594 11.7221 8.1594 11.1139C8.1594 10.5056 7.66449 10.0125 7.05398 10.0125C6.44346 10.0125 5.94855 10.5056 5.94855 11.1139C5.94855 11.7221 6.44346 12.2152 7.05398 12.2152Z" fill="white"/>
<path d="M19.1767 12.2152C19.7873 12.2152 20.2822 11.7221 20.2822 11.1139C20.2822 10.5056 19.7873 10.0125 19.1767 10.0125C18.5662 10.0125 18.0713 10.5056 18.0713 11.1139C18.0713 11.7221 18.5662 12.2152 19.1767 12.2152Z" fill="white"/>
<path d="M12.2261 11.1108L12.3275 12.2061C12.3438 12.382 12.3563 12.5585 12.3772 12.7341C12.4009 12.9318 12.4361 13.1384 12.5605 13.3035C12.6302 13.4026 12.7223 13.4841 12.8294 13.5413C12.8843 13.5702 12.9432 13.5909 13.0042 13.6026C13.0888 13.6173 13.1754 13.6166 13.2598 13.6006C13.3305 13.5888 13.4073 13.5201 13.4418 13.4611C13.4825 13.3917 13.4938 13.309 13.4733 13.2312C13.4529 13.1535 13.4022 13.087 13.3325 13.0464C13.2604 13.0093 13.1775 12.9984 13.0982 13.0157L13.0853 13.0178L13.1665 13.007C13.1414 13.0097 13.1161 13.0097 13.0911 13.007L13.1719 13.0178C13.1388 13.0131 13.1064 13.0041 13.0755 12.9911L13.1482 13.0218C13.1171 13.0076 13.0876 12.9901 13.0603 12.9696L13.1219 13.0171C13.0913 12.9927 13.0634 12.9652 13.0387 12.9349L13.0864 12.9962C13.0558 12.9561 13.0305 12.9123 13.0113 12.8658L13.0417 12.9382C13.0104 12.8556 12.9892 12.7695 12.9788 12.6818L12.9896 12.7624C12.9558 12.4928 12.9372 12.2179 12.9122 11.946L12.8348 11.1098C12.8325 11.0299 12.8009 10.9536 12.7458 10.8955C12.7176 10.8673 12.684 10.845 12.6471 10.8298C12.6102 10.8145 12.5706 10.8067 12.5306 10.8067C12.4906 10.8067 12.451 10.8145 12.4141 10.8298C12.3772 10.845 12.3436 10.8673 12.3154 10.8955C12.2636 10.9514 12.219 11.0303 12.2261 11.1098V11.1108Z" fill="#070707"/>
<path d="M7.359 11.9554C7.52746 11.9554 7.66402 11.8193 7.66402 11.6515C7.66402 11.4836 7.52746 11.3476 7.359 11.3476C7.19055 11.3476 7.05399 11.4836 7.05399 11.6515C7.05399 11.8193 7.19055 11.9554 7.359 11.9554Z" fill="#070707"/>
<path d="M19.1767 11.9554C19.3452 11.9554 19.4817 11.8193 19.4817 11.6515C19.4817 11.4836 19.3452 11.3476 19.1767 11.3476C19.0083 11.3476 18.8717 11.4836 18.8717 11.6515C18.8717 11.8193 19.0083 11.9554 19.1767 11.9554Z" fill="#070707"/>
<path d="M25.9751 15.0911C25.9886 15.0911 26.0015 15.0858 26.011 15.0764C26.0205 15.0669 26.0258 15.054 26.0258 15.0406C26.0258 15.0272 26.0205 15.0144 26.011 15.0049C26.0015 14.9954 25.9886 14.9901 25.9751 14.9901C25.9617 14.9901 25.9488 14.9954 25.9393 15.0049C25.9298 15.0144 25.9244 15.0272 25.9244 15.0406C25.9244 15.054 25.9298 15.0669 25.9393 15.0764C25.9488 15.0858 25.9617 15.0911 25.9751 15.0911Z" fill="#0E07C4"/>
</svg>
