<svg id="blue_1" data-name="blue_1" xmlns="http://www.w3.org/2000/svg" viewBox="0 0 669 669"><defs><style>.cls-1-blue-level-one{fill:#1600cb}.cls-3-blue-level-one{fill:#fff}.cls-4-blue-level-one{fill:#070707}</style></defs><path class="cls-1-blue-level-one" d="M556.4 84.2a332.9 332.9 0 0 1 55.9 185.1 334.5 334.5 0 0 1-334.5 334.5 333.3 333.3 0 0 1-222-84.2A334.5 334.5 0 0 0 669 334.5 333.7 333.7 0 0 0 556.5 84.2Z"/><path d="M612.3 269.3a332.9 332.9 0 0 0-55.9-185A333.2 333.2 0 0 0 334.5 0 334.5 334.5 0 0 0 0 334.5a333 333 0 0 0 55.9 185.1 333.3 333.3 0 0 0 221.9 84.2 334.5 334.5 0 0 0 334.5-334.5Z" style="fill:#2500ff"/><circle class="cls-3-blue-level-one" cx="146.3" cy="231.3" r="22.9"/><circle class="cls-3-blue-level-one" cx="397.7" cy="231.3" r="22.9"/><path class="cls-4-blue-level-one" d="m250.9 231.3 2.7 30c.5 5.5 1 11.3 4 16a19 19 0 0 0 6.7 6.7 16.6 16.6 0 0 0 4.4 1.7 17.4 17.4 0 0 0 7 0c2.1-.4 4.4-2.4 5.4-4.2a9 9 0 0 0-3.2-12.3l-2.2-.9a9 9 0 0 0-4.8 0h-.3l2.4-.3a8.9 8.9 0 0 1-1.5 0l2.4.4a9 9 0 0 1-1.8-.5l2.2 1a9.8 9.8 0 0 1-2-1.2l1.8 1.4a11.5 11.5 0 0 1-1.8-1.8l1.4 1.8a12.1 12.1 0 0 1-1.4-2.4l.9 2.1a22.4 22.4 0 0 1-1.4-5.7l.3 2.4c-.7-5.6-1.1-11.2-1.6-16.8l-1.6-17.4a9.7 9.7 0 0 0-2.6-6.4 9 9 0 0 0-12.8 0c-1.5 1.7-2.8 4-2.6 6.4Z"/><circle class="cls-4-blue-level-one" cx="152.6" cy="242.5" r="6.3"/><circle class="cls-4-blue-level-one" cx="397.7" cy="242.5" r="6.3"/><path class="cls-1-blue-level-one" d="M538.6 314.5a1.5 1.5 0 0 0 0-3 1.5 1.5 0 0 0 0 3Z"/></svg>