<svg id="green_5" data-name="green_5" xmlns="http://www.w3.org/2000/svg" xmlns:xlink="http://www.w3.org/1999/xlink" viewBox="0 0 1630.9 2315.7"><defs><linearGradient id="gradient-default-789-green-level-five" x1="1572.6" y1="1259.9" x2="1712.3" y2="1259.9" gradientTransform="matrix(-1 0 0 1 1920 0)" gradientUnits="userSpaceOnUse"><stop offset="0" stop-color="#00ad3c"/><stop offset="1" stop-color="#00e920"/></linearGradient><linearGradient id="gradient-default-789-green-level-five-2" x1="1578.6" y1="1327.7" x2="1743.3" y2="1327.7" xlink:href="#gradient-default-789-green-level-five"/><linearGradient id="gradient-default-789-green-level-five-3" x1="1574" y1="1396.3" x2="1730.6" y2="1396.3" xlink:href="#gradient-default-789-green-level-five"/><linearGradient id="gradient-default-789-green-level-five-4" x1="3742.5" y1="1259.9" x2="3882.2" y2="1259.9" gradientTransform="translate(-2398)" xlink:href="#gradient-default-789-green-level-five"/><linearGradient id="gradient-default-789-green-level-five-5" x1="3748.5" y1="1327.7" x2="3913.2" y2="1327.7" gradientTransform="translate(-2398)" xlink:href="#gradient-default-789-green-level-five"/><linearGradient id="gradient-default-789-green-level-five-6" x1="3743.9" y1="1396.3" x2="3900.5" y2="1396.3" gradientTransform="translate(-2398)" xlink:href="#gradient-default-789-green-level-five"/><radialGradient id="gradient-default-795-green-level-five" cx="1089.4" cy="805" r="28.8" gradientUnits="userSpaceOnUse"><stop offset="0" stop-color="#fd0300" stop-opacity=".6"/><stop offset="1" stop-color="#ff0006" stop-opacity="0"/></radialGradient><radialGradient id="gradient-default-795-green-level-five-2" cx="592.2" cy="805" r="28.8" xlink:href="#gradient-default-795-green-level-five"/><style>.cls-1-green-level-five{fill:#08fd50}.cls-2-green-level-five{fill:#00e920}.cls-9-green-level-five{fill:#f489b0}.cls-10-green-level-five{fill:#f35697}.cls-12-green-level-five{fill:#48bbff}.cls-13-green-level-five{fill:#00da2c}.cls-15-green-level-five{fill:#ff7bac}.cls-16-green-level-five{fill:#bc2c58}.cls-17-green-level-five{fill:#070707}.cls-18-green-level-five{fill:#fff}.cls-23-green-level-five{opacity:.46}.cls-26-green-level-five{fill:#e25890}</style></defs><path class="cls-1-green-level-five" d="M429 1336a548 548 0 0 1-115-46c-82-48-71-252-78-252-3 0 7 55-18 109a190 190 0 0 1-61 73c17 23 20 55 9 81s-36 46-64 50c28 1 54 20 64 46s2 59-18 78a2897 2897 0 0 0 282-127 7 7 0 0 0-1-12Z"/><path class="cls-2-green-level-five" d="M425 1337a511 511 0 0 1-106-42c-76-45-66-234-72-234-3 0 6 51-16 101a176 176 0 0 1-57 68 78 78 0 0 1-51 121c26 1 50 18 60 43s2 54-18 71a2672 2672 0 0 0 262-117 6 6 0 0 0-1-11Z"/><path d="M244 1199a145 145 0 0 0 103 122 258 258 0 0 1-139-71c5-2 19-7 27-20a68 68 0 0 0 9-31Z" style="fill:url(#gradient-default-789-green-level-five)"/><path d="M341 1333a112 112 0 0 1-75 5 112 112 0 0 1-59-43 56 56 0 0 1-30 57c19 4 58 9 97 8 11-1 24-1 38-8a97 97 0 0 0 29-19Z" style="fill:url(#gradient-default-789-green-level-five-2)"/><path d="m346 1359-145 75c1-2 10-13 7-28-4-16-17-22-19-23 32 5 74 6 120-9 20-7 37-15 37-15Z" style="fill:url(#gradient-default-789-green-level-five-3)"/><path class="cls-1-green-level-five" d="M1263 1336a551 551 0 0 0 115-46c82-48 71-252 78-252 3 0-7 55 18 109 15 34 39 57 60 73-16 23-19 55-8 81s36 46 64 50c-28 1-55 20-64 46s-3 59 18 78a2897 2897 0 0 1-282-127 7 7 0 0 1 1-12Z"/><path class="cls-2-green-level-five" d="M1267 1337a510 510 0 0 0 105-42c76-45 67-234 73-234 3 0-6 51 16 101a176 176 0 0 0 57 68 78 78 0 0 0 51 121c-26 1-51 18-60 43s-2 54 17 71a2672 2672 0 0 1-261-117 6 6 0 0 1 1-11Z"/><path d="M1448 1199a145 145 0 0 1-104 122 258 258 0 0 0 140-71c-5-2-19-7-27-20a68 68 0 0 1-9-28v-3Z" style="fill:url(#gradient-default-789-green-level-five-4)"/><path d="M1350 1333c9 4 39 16 75 5a112 112 0 0 0 60-43 56 56 0 0 0 30 57 532 532 0 0 1-97 8c-11-1-24-1-38-8a97 97 0 0 1-30-19Z" style="fill:url(#gradient-default-789-green-level-five-5)"/><path d="M1346 1359c-1 1 27 15 145 75a34 34 0 0 1-7-28c3-16 17-22 18-23-31 5-74 6-120-9l-36-15Z" style="fill:url(#gradient-default-789-green-level-five-6)"/><path class="cls-9-green-level-five" d="M1305 1901a216 216 0 0 1 41-82 131 131 0 0 1-21-14 180 180 0 0 0-123 142 195 195 0 0 0 45 26 190 190 0 0 0 55 13 216 216 0 0 1 3-85Z"/><path class="cls-10-green-level-five" d="m1325 1805-32-30c-46-46-43-66-69-72-31-9-66 8-84 32s-19 55-14 84c7 49 34 96 76 128a180 180 0 0 1 123-142Zm50 22c-10 0-20-2-29-8a213 213 0 0 0-44 167c38 3 77-3 107-19a149 149 0 0 1-34-140Z"/><path class="cls-9-green-level-five" d="M1448 1936c25-34 27-90 1-107-6-4-15-8-25-9-21-3-33 5-47 7h-2a149 149 0 0 0 34 140 109 109 0 0 0 39-31Z"/><path d="M1477 1888a83 83 0 0 1-82-72 84 84 0 0 0-1 11 83 83 0 0 0 167 0 84 84 0 0 0-1-11 83 83 0 0 1-83 72Z" style="fill:#d84c8c"/><ellipse class="cls-10-green-level-five" cx="1477.3" cy="1816.1" rx="82.7" ry="72.2"/><path class="cls-12-green-level-five" d="M517 1024c-7-21-37-16-77-36-44-22-72-61-90-97a159 159 0 0 1-17 95 160 160 0 0 1-97 77 306 306 0 0 0 46 27c21 11 111 54 180 16 32-18 64-57 55-82Zm857-64a144 144 0 0 1-21-34 148 148 0 0 1-9-29c-34 34-72 24-113 65-32 32-56 88-48 187a572 572 0 0 0 176-69s39-23 89-72a146 146 0 0 1-74-48Z"/><path class="cls-2-green-level-five" d="M1106 1951v-402c0-18-16-32-37-32H903c-20 0-36 14-36 32v422a323 323 0 0 1 240-20Z"/><path class="cls-1-green-level-five" d="m1289 1046-5-9-33-43a338 338 0 0 0 45-166c0-214-203-386-454-386S389 615 389 828c0 61 17 119 47 171l-22 30-2 2-17 26c288 73 609 69 894-11ZM274 1373c-10 83-29 349 137 478 83 64 199 64 433 63 216-1 324-1 404-58 148-105 180-319 166-472l-3-26a1741 1741 0 0 1-1136 15Z"/><path class="cls-12-green-level-five" d="M1289 1046c-285 80-606 84-894 11a820 820 0 0 0-117 291 304 304 0 0 0-4 25c358 122 784 116 1136-15a586 586 0 0 0-1-10c-14-97-56-206-120-302Z"/><path class="cls-1-green-level-five" d="M333 986a159 159 0 0 0 17-95 465 465 0 0 1-26-66c-20-60-4-65-17-146a921 921 0 0 0-14-69c-32 42-83 65-119 64a122 122 0 0 1-16-1c-5-1-46-8-70-39-23-28-20-61-20-81 3-50 25-100 63-130a77 77 0 0 0-52 11c-32 22-34 70-33 112 4 99 14 389 190 517a160 160 0 0 0 97-77Zm797 1057a33 33 0 0 1-24-31v-61a324 324 0 0 0-240 20v152a30 30 0 0 1-3 11 106 106 0 0 0-7 39c0 79 88 143 197 143s197-64 197-143c0-58-49-109-120-131Z"/><path class="cls-13-green-level-five" d="M68 553c0 20-3 53 19 81 25 31 66 38 71 39a122 122 0 0 0 16 1c36 0 87-23 119-64-16-65-46-142-111-173a164 164 0 0 0-51-14c-38 30-60 80-63 130Z"/><ellipse class="cls-13-green-level-five" cx="842.2" cy="822.4" rx="301" ry="247.8"/><ellipse cx="842.2" cy="834.8" rx="283.9" ry="233.8" style="fill:#04b564"/><path class="cls-2-green-level-five" d="M1187 2098c8 31-40 63-77 74a135 135 0 0 1-112-17c-10-8-20-20-16-31 3-9 13-14 21-18l69-32c31-10 46-15 59-14 23 3 51 17 56 38Z"/><path class="cls-15-green-level-five" d="M467 203c-26-3-45 15-65 33a215 215 0 0 0-54 79c-20 51-5 61-24 92-8 12-33 30-82 64-40 28-49 33-74 52a893 893 0 0 0-55 47C60 617 26 651 8 693c-6 14-10 29-7 43s16 28 31 27c17-1 28-23 36-37 28-52 58-87 102-137a399 399 0 0 1 90-80 512 512 0 0 1 79-40c66-28 67-18 93-34 66-41 81-117 86-139 7-35 1-51-4-60a64 64 0 0 0-47-33Z"/><path class="cls-16-green-level-five" d="M474 233a25 25 0 0 0-10-9c-1-1-8-3-19 0s-18 10-26 18a301 301 0 0 0-27 33c-18 25-27 38-32 56-4 13-9 28-2 45 1 4 10 27 28 30 5 1 18 1 41-24 55-58 56-133 47-149Z"/><path class="cls-17-green-level-five" d="M824 735a19 19 0 0 0-30-15c-1 1 0 3 2 2a16 16 0 0 1 19 0 16 16 0 0 1 5 9 11 11 0 1 0 4 4Zm59 0a19 19 0 0 1 30-15c1 1 0 3-2 2a16 16 0 0 0-19 0 16 16 0 0 0-6 9 11 11 0 1 1-3 4Zm162 69c-15-5-32-9-51-13a10 10 0 0 1 2 2c4 6 0 15-1 16a38 38 0 0 1-42 18c-3-1-13-4-19-14-4-7-6-18 0-25 2-4 6-6 12-6l-7-1c-9-1-30-4-59-5a11 11 0 0 1 4 3c5 6 2 16 2 17a38 38 0 0 1-40 23 30 30 0 0 1-20-11c-5-7-8-18-4-25 2-3 4-5 8-7a625 625 0 0 0-83 5l-7 1a9 9 0 0 1 2 1c6 4 5 14 5 16a38 38 0 0 1-34 30c-3 0-14 1-23-7-6-5-11-15-9-24a13 13 0 0 1 5-6l-45 12c-13 4-22 20-20 36v1c8 54 35 109 74 148-1-17 14-31 19-36a69 69 0 0 1 37-18l4 12a68 68 0 0 1 29-13c33-6 56 18 58 20a62 62 0 0 1 78-15 54 54 0 0 1 10 7l3-11a69 69 0 0 1 38 18c5 5 20 19 18 37 40-39 67-94 75-149v-1c3-16-6-32-20-36Zm-109 224 2-1-1-1-1 2Z"/><path class="cls-18-green-level-five" d="M681 799c-2 8 3 18 9 23 9 8 20 7 23 7a38 38 0 0 0 34-30c0-2 1-12-5-16a9 9 0 0 0-2-1 615 615 0 0 0-54 10 13 13 0 0 0-5 6Zm141-16c-4 7-1 18 4 25 7 9 17 11 20 11a38 38 0 0 0 40-23c0-1 3-11-2-16a11 11 0 0 0-4-3l-37-1h-13a13 13 0 0 0-8 7Z"/><path d="m936 1028 1-2a133 133 0 0 1-7-79 54 54 0 0 0-10-8 62 62 0 0 0-78 15c-2-2-25-25-58-19a68 68 0 0 0-29 12 133 133 0 0 1-8 80 174 174 0 0 0 29 12 21 21 0 0 1 1-3 38 38 0 0 1 41-20 30 30 0 0 1 20 12 30 30 0 0 1 5 17h5a30 30 0 0 1 5-17c6-10 17-12 20-13a38 38 0 0 1 41 22 176 176 0 0 0 22-9Z" style="fill:#fd0300"/><path class="cls-18-green-level-five" d="M838 1028a30 30 0 0 0-20-12 38 38 0 0 0-41 20 21 21 0 0 0-1 3h2a171 171 0 0 0 51 7l12-1h2a30 30 0 0 0-5-17Zm35-12c-3 0-14 2-20 12a30 30 0 0 0-5 18h14a170 170 0 0 0 52-9l-1-1a38 38 0 0 0-40-20Zm61-228c-6 7-4 18 0 25a30 30 0 0 0 19 14 38 38 0 0 0 42-18c1-1 5-10 1-17a10 10 0 0 0-2-1 613 613 0 0 0-48-9c-6 0-10 2-13 6Zm-192 236 4 2a59 59 0 0 1-11-49 55 55 0 0 1 20-30l-3-12a69 69 0 0 0-38 18c-5 5-20 19-19 36a210 210 0 0 0 47 35Zm4 2 1 2v-1Z"/><path class="cls-18-green-level-five" d="M735 977a59 59 0 0 0 11 49l1 1a133 133 0 0 0 8-80 55 55 0 0 0-20 30Zm236-24a69 69 0 0 0-38-18l-3 11a62 62 0 0 1 14 68 61 61 0 0 1-7 13l1 1 6-4a209 209 0 0 0 45-34c2-17-13-32-18-37Z"/><path class="cls-18-green-level-five" d="M937 1027a61 61 0 0 0 7-13 62 62 0 0 0-14-67 133 133 0 0 0 7 80Z"/><circle cx="1089.4" cy="805" r="28.8" style="fill:url(#gradient-default-795-green-level-five)"/><circle cx="592.2" cy="805" r="28.8" style="fill:url(#gradient-default-795-green-level-five-2)"/><path class="cls-1-green-level-five" d="M141 616c-5-1-46-7-71-39-22-28-20-61-19-81 3-59 34-119 87-146s124-16 159 32c49 68-12 159-17 165-32 45-85 71-123 70a122 122 0 0 1-16-1Z"/><path class="cls-2-green-level-five" d="M819 1987a56 56 0 0 0 14-21 56 56 0 0 0 3-17l15-138c8-78-49-148-129-157-79-8-151 48-159 126l-9 135a70 70 0 0 0 7 30 68 68 0 0 0 8 12c-17 10-62 39-71 87-14 77 74 162 164 172 89 9 192-54 197-133 2-43-24-79-40-96Z"/><path class="cls-1-green-level-five" d="M821 1983a111 111 0 0 0 2-10l13-127a132 132 0 0 0-117-145 132 132 0 0 0-144 117l-14 127v2c-44 25-74 66-79 115-9 88 69 169 175 179s198-52 207-140c5-44-12-86-43-118Z"/><path class="cls-2-green-level-five" d="M556 2079c17 58 102 68 105 69 58 6 126-23 139-68 5-17 4-42-10-52-10-8-23-2-53 1-10 1-49 5-86-2-46-9-58-32-76-23-20 9-28 47-19 75Zm874-1265a214 214 0 0 0-18-159c-6-11-14-23-13-35 1-9 8-17 16-19a36 36 0 0 0-28 1c-16 8-19 29-20 35-5 27 9 49 15 60 30 58 5 143-25 185a115 115 0 0 1-13 15 148 148 0 0 0 9 29 214 214 0 0 0 77-112Z"/><path class="cls-1-green-level-five" d="m1445 626 2-1a1 1 0 0 0 0-1 1 1 0 0 0 0-1 1 1 0 0 0 0-1 2 2 0 0 0-1 0 2 2 0 0 0-1 0l-2 2a1 1 0 0 0 0 1 1 1 0 0 0 0 1 2 2 0 0 0 1 1 2 2 0 0 0 1-1Z"/><path d="M1442 621a112 112 0 0 1-7-12l2 6a72 72 0 0 1 5 6Z" style="fill:none"/><path class="cls-2-green-level-five" d="M1465 520a93 93 0 0 1 72-24c-30-9-71-12-95 16-21 24-24 63-7 97a101 101 0 0 1 29-89Z"/><path class="cls-1-green-level-five" d="M1626 606c-8-41-32-79-68-100a119 119 0 0 0-22-10 93 93 0 0 0-72 24 101 101 0 0 0-29 89 112 112 0 0 0 7 12 72 72 0 0 0-6-6 60 60 0 0 0-21-14c-8 3-15 11-16 19-1 13 7 24 13 35a214 214 0 0 1 18 159 214 214 0 0 1-77 112 144 144 0 0 0 21 34 146 146 0 0 0 74 49 670 670 0 0 0 170-280c10-33 18-75 8-123Z"/><g class="cls-23-green-level-five"><path class="cls-18-green-level-five" d="M504 1065c-99 20-155 258-117 443 20 97 55 116 70 126 41 27 109 16 125-31 15-43-19-86-41-127-39-71-41-160-7-233 11-25 29-41 39-79 5-19 16-62-6-85-17-18-48-17-63-14Z"/></g><g class="cls-23-green-level-five"><path class="cls-18-green-level-five" d="M1053 520c-15-9-22-13-31-12-11 1-25 7-28 20-2 11 4 23 14 30s21 10 32 13 23 7 32 15c7 6 13 15 23 16 8 1 16-6 18-14 2-10-3-18-6-24-5-7-9-10-18-18-30-22-30-23-36-26Z"/></g><g class="cls-23-green-level-five"><path class="cls-18-green-level-five" d="M1159 642c-6 8-19 8-27 1-7-7-9-19-1-26s19-5 25 1 8 17 3 24Z"/></g><g class="cls-23-green-level-five"><path class="cls-18-green-level-five" d="M704 438c-8 6-21 3-26-5-6-7-6-19 2-26 8-6 19-3 25 4 6 8 6 20-1 27Z"/></g><g class="cls-23-green-level-five"><path class="cls-18-green-level-five" d="M180 379a64 64 0 0 0-17 6c-9 5-18 10-22 21-3 10 0 22 9 27 12 6 26-3 40-1 25 3 36 40 61 44 16 2 31-17 34-33 4-21-15-38-23-45 0 0-32-28-82-19Z"/></g><g class="cls-23-green-level-five"><path class="cls-18-green-level-five" d="M108 773c-4 13 17 105 69 149 15 13 21 12 24 10 5-2 7-8 6-14l-5-15c-16-36-33-72-53-106-2-2-7-14-19-23-3-1-14-9-19-5a7 7 0 0 0-3 4Z"/></g><g class="cls-23-green-level-five"><path class="cls-18-green-level-five" d="M223 987a27 27 0 0 0 10 6c3 0 18 5 23-3 4-5 3-14 0-20-1-3-8-21-23-20a21 21 0 0 0-19 15c-3 12 8 21 9 22Z"/></g><g class="cls-23-green-level-five"><path class="cls-18-green-level-five" d="M659 1754c-26 3-41 32-44 37 0 0-17 31-3 68 3 7 7 14 13 19s16 5 22 1c6-5 8-15 7-23s-3-17 0-25c6-19 29-19 36-39 3-11 1-26-8-33-8-7-20-6-23-5Z"/></g><g class="cls-23-green-level-five"><path class="cls-18-green-level-five" d="M616 1918c-6 12 2 25 3 28 1 1 10 16 19 13s11-13 11-22c1-6 2-14-3-20-1-1-8-10-17-8-8 1-12 8-13 9Z"/></g><g class="cls-23-green-level-five"><path class="cls-18-green-level-five" d="M886 2197a69 69 0 0 0 39 52c15 7 48 16 62-2 11-13 9-35-1-49s-26-24-42-31c-13-4-21-8-32-5-2 0-18 4-24 19-1 2-3 8-2 16Z"/></g><g class="cls-23-green-level-five"><path class="cls-18-green-level-five" d="M1002 2243c4-10 16-18 27-15 13 3 16 19 16 28 0 13-8 27-18 28-14 1-32-23-25-41Z"/></g><g class="cls-23-green-level-five"><path class="cls-18-green-level-five" d="M1461 1803c-4 2-17 10-25 5-6-6-5-20 2-28 4-5 12-10 21-8 8 2 15 9 14 17 0 7-7 11-12 14Z"/></g><g class="cls-23-green-level-five"><path class="cls-18-green-level-five" d="M1486 559c-9 28 59 51 58 101-1 14-3 22-15 73-2 10-3 22 4 30 8 8 22 7 31 0s14-18 18-29a308 308 0 0 0 16-71c3-31 3-49-6-72-6-15-18-45-47-52-23-5-53 3-59 20Z"/></g><g class="cls-23-green-level-five"><path class="cls-18-green-level-five" d="M1532 843c-5 7-15 17-22 14-8-3-13-23-4-35 8-10 24-13 30-8 5 5 1 18 0 20a33 33 0 0 1-4 9Z"/></g><g class="cls-23-green-level-five"><path class="cls-18-green-level-five" d="M1171 1014c-11 29-10 37-10 41 1 5 1 10 22 38l28 39c7 9 17 19 28 16 10-2 15-16 12-27s-11-19-18-28a107 107 0 0 1-15-87c3-9 7-16 9-30 0-4 2-25-7-29a9 9 0 0 0-6 0c-4 1-21 6-43 67Z"/></g><g class="cls-23-green-level-five"><path class="cls-18-green-level-five" d="M1257 1195c5 8 15 10 22 8s16-7 17-16a20 20 0 0 0-14-22c-9-4-19 2-24 9 0 0-7 11-1 21Z"/></g><g class="cls-23-green-level-five"><path class="cls-18-green-level-five" d="M491 225c9 2 12 33 10 60-5 73-50 110-62 117-1 1-5 2-6 1-2-2 14-19 26-36 32-48 33-115 27-129-1-2-3-8-1-11 2-2 5-2 6-2Z"/></g><g class="cls-23-green-level-five"><path class="cls-18-green-level-five" d="M92 640c-2 1-40 51-46 76-2 5-1 6 0 6 2 2 4-1 6-3l13-20c10-14 13-17 38-56 1-3 5-9 3-11-1-1-6 1-7 2a22 22 0 0 0-7 6Z"/></g><path class="cls-16-green-level-five" d="m1049 2217 28-28a14 14 0 0 0-7-23l-37-10a14 14 0 0 0-17 17l10 37a14 14 0 0 0 23 7Zm114-27v-39a14 14 0 0 0-21-12l-34 20a14 14 0 0 0 0 24l34 19a14 14 0 0 0 21-12Zm61-92-32-22a14 14 0 0 0-21 10l-4 39a14 14 0 0 0 20 13l35-16a14 14 0 0 0 2-24Zm-662 36 37-10a14 14 0 0 0 6-23l-27-28a14 14 0 0 0-23 6l-10 38a14 14 0 0 0 16 17Zm109 42 22-32a14 14 0 0 0-10-21l-39-4a14 14 0 0 0-13 19l16 36a14 14 0 0 0 24 2Zm113-26 1-39a14 14 0 0 0-20-13l-34 19a14 14 0 0 0-1 23l33 21a14 14 0 0 0 21-11Z"/><ellipse cx="808.6" cy="376.1" rx="189.6" ry="154.5" style="fill:#92dce9"/><ellipse cx="808.6" cy="362" rx="189.6" ry="154.5" style="fill:#baf1ff"/><path class="cls-15-green-level-five" d="M678 240a70 70 0 0 0-24 20c-6 7-12 16-11 28 0 10 7 21 17 24 10 2 21-3 30-8s21-10 31-6c12 5 17 20 29 26 9 4 20 0 30-5s18-10 28-10c13 0 23 9 33 17s22 15 34 12c9-2 16-9 25-12 12-4 25 1 38 5s26 8 37 2 16-21 14-34-11-24-21-33c-26-24-62-36-98-39-52-5-46 10-107 6-26-1-58-6-85 7Z"/><ellipse class="cls-26-green-level-five" cx="808.6" cy="188.6" rx="123.1" ry="100.3"/><ellipse class="cls-15-green-level-five" cx="808.6" cy="177.8" rx="123.1" ry="100.3"/><path class="cls-15-green-level-five" d="m698 298-10 56c-1 7 9 10 11 3l9-56c2-7-9-10-10-3Zm25 134 28 21c6 4 11-5 5-9l-28-21c-6-5-11 5-5 9Zm141-93-3 46c0 7 11 7 11 0l3-46c1-7-10-7-11 0Zm68 86 36-30c5-4-2-12-8-8l-36 30c-5 4 3 12 8 8Z"/><path class="cls-12-green-level-five" d="m764 392 42-22c7-4 1-13-5-10l-43 23c-6 3 0 13 6 9Zm79 71-13-16c-2-3-6-2-8 0s-2 5 0 7l13 17c2 2 6 2 8 0s2-6 0-8Zm67-173 42 27c6 4 12-6 6-10l-42-27c-6-4-12 6-6 10Zm-168-99 13-9a6 6 0 0 0 2-7c-1-2-5-4-7-2l-13 9a6 6 0 0 0-2 7c1 3 5 4 7 2Zm52-46 18 27c3 6 13 0 9-6l-17-26c-4-6-14-1-10 5Zm-7 85 35 2c7 0 7-11 0-11l-35-2c-7-1-7 10 0 11Zm108-32-18-46c-2-6-13-3-10 3l17 46c3 7 13 4 11-3Z"/><circle class="cls-18-green-level-five" cx="807.5" cy="155.7" r="51"/><circle class="cls-17-green-level-five" cx="807.5" cy="164.5" r="22"/><path class="cls-26-green-level-five" d="M809 85c-28 0-51-19-55-43a45 45 0 0 0 0 7c0 27 25 49 55 49s56-22 56-49a43 43 0 0 0-1-7c-3 24-27 43-55 43Z"/><ellipse class="cls-15-green-level-five" cx="809.2" cy="42.3" rx="55" ry="42.3"/><g class="cls-23-green-level-five"><path class="cls-18-green-level-five" d="M679 280c-21 20-26 43-26 43-1 4-7 34 9 53 2 3 7 8 15 11 3 1 11 3 16-1 7-6 4-18 0-26s-12-15-12-25c0-9 8-17 14-24 11-12 12-20 10-27-2-5-9-9-15-9-5 0-9 3-11 5Z"/></g><circle class="cls-18-green-level-five" cx="816.2" cy="161.1" r="5.4"/><circle class="cls-18-green-level-five" cx="813.7" cy="173.2" r="2.5"/></svg>