<svg width="33" height="33" viewBox="0 0 33 33" fill="none" xmlns="http://www.w3.org/2000/svg">
<g clip-path="url(#clip0_1901_13814)">
<path d="M19.2755 2.48947C22.2226 2.48478 25.1141 3.29131 27.6333 4.82071C26.1337 3.2919 24.3439 2.07797 22.3689 1.25016C20.3939 0.422339 18.2735 -0.00269782 16.132 -1.79235e-05C7.2223 -1.79235e-05 0 7.22228 0 16.1316C0 21.9817 3.11372 27.1041 7.77417 29.9324C4.80193 26.9185 3.13813 22.8541 3.14382 18.6211C3.14382 9.71177 10.3661 2.48947 19.2755 2.48947Z" fill="#27D64C"/>
<path d="M32.2636 16.1317C32.2692 11.8989 30.6054 7.83461 27.6333 4.82076C25.1141 3.29136 22.2226 2.48483 19.2755 2.48952C10.3661 2.48952 3.14549 9.71182 3.14549 18.6212C3.1398 22.8541 4.8036 26.9185 7.77584 29.9324C10.295 31.4619 13.1866 32.2684 16.1337 32.2637C25.041 32.2637 32.2636 25.041 32.2636 16.1317Z" fill="#57FA6A"/>
<path d="M17.838 21.091C18.1093 21.091 18.3293 20.8503 18.3293 20.5533C18.3293 20.2564 18.1093 20.0157 17.838 20.0157C17.5666 20.0157 17.3466 20.2564 17.3466 20.5533C17.3466 20.8503 17.5666 21.091 17.838 21.091Z" fill="#070707"/>
<path d="M21.1979 21.0481C21.4692 21.0481 21.6892 20.8073 21.6892 20.5104C21.6892 20.2135 21.4692 19.9727 21.1979 19.9727C20.9265 19.9727 20.7065 20.2135 20.7065 20.5104C20.7065 20.8073 20.9265 21.0481 21.1979 21.0481Z" fill="#070707"/>
<path d="M23.872 22.6391C23.8412 22.6638 23.2355 22.096 22.9042 21.2189C22.7689 20.8584 22.7882 20.7275 22.8436 20.6386C22.989 20.4049 23.337 20.4533 23.6011 20.5307C23.8561 20.6051 24.1161 20.6822 24.3332 20.8351C24.5503 20.9879 24.7214 21.2331 24.7143 21.4985C24.7079 21.7318 24.5642 21.9526 24.3826 22.0693C24.1005 22.2509 23.8097 22.1254 23.738 22.2722C23.6694 22.4149 23.8906 22.6242 23.872 22.6391Z" fill="white"/>
<path d="M24.7082 20.7343C24.1553 22.2401 22.8619 23.4355 21.3267 23.8882C20.931 24.0049 21.0994 24.6251 21.4958 24.5077C23.2582 23.988 24.6937 22.6269 25.326 20.905C25.3859 20.7424 25.2584 20.5534 25.1015 20.5101C24.9223 20.4607 24.7664 20.5709 24.7065 20.7343H24.7082Z" fill="#070707"/>
</g>
<defs>
<clipPath id="clip0_1901_13814">
<rect width="32.2636" height="32.2636" fill="white"/>
</clipPath>
</defs>
</svg>
