<svg id="green_4" data-name="green_4" xmlns="http://www.w3.org/2000/svg" viewBox="0 0 1609 1845.6"><defs><style>.cls-1-green-level-four{fill:#00e920}.cls-3-green-level-four{fill:#08fd50}.cls-8-green-level-four{fill:#ff7bac}.cls-9-green-level-four{fill:#fff}.cls-10-green-level-four{fill:#070707}</style></defs><path class="cls-1-green-level-four" d="M766 1450H304a32 32 0 0 1-31-22c-21-64-72-108-131-108-78 0-142 79-142 177s64 177 142 177a117 117 0 0 0 40-7 34 34 0 0 1 11-2h573a32 32 0 0 0 33-33v-150a32 32 0 0 0-33-32Z"/><path d="M216 1400c-31-7-63 36-74 69-12 36-3 75 17 100 8 10 20 19 32 15 8-3 13-11 17-19 17-34 28-51 32-62 10-27 15-41 14-52-3-21-17-47-38-51Z" style="fill:#00d720"/><path class="cls-1-green-level-four" d="M1225 1037c56-16 98-37 107-43 78-45 68-237 74-237 3 1-6 52 17 102 14 32 37 55 57 69-15 22-18 52-8 77s34 43 60 47c-26 1-51 19-60 43s-3 55 17 73a2722 2722 0 0 1-280-127l16-4Z"/><path class="cls-3-green-level-four" d="M1137 1008c43-3 86-6 127-18 24-7 48-17 69-30l-32-43c28-51 44-107 44-167 0-213-203-386-454-386S438 537 438 750c0 62 17 120 47 172l-22 29c103 45 217 65 331 70s229-4 343-13Z"/><path d="M1519 1640c-29 4-55-26-84-59-46-52-44-74-69-82-32-10-67 9-84 37s-19 63-15 95c10 74 54 144 121 176s165 15 202-43c24-38 26-102 0-122-5-4-15-8-24-10-21-3-33 6-47 8Z" style="fill:#f489b0"/><path d="M1333 960c-21 13-45 23-69 30-41 12-84 15-127 18-114 9-229 18-343 13s-228-25-331-70l-2 3 11 6-11-6a823 823 0 0 0-134 317l-1 11c31 19 67 32 103 42 286 88 598 104 893 47 52-11 108-26 141-64a653 653 0 0 0-5-36 764 764 0 0 0-125-311Z" style="fill:#48bbff"/><path class="cls-3-green-level-four" d="M1322 1371c-295 57-607 41-893-47-36-11-72-23-104-42-9 63-41 355 135 491 83 64 200 64 433 64 216-1 324-1 404-58 149-105 180-320 166-472-33 38-89 53-141 64Z"/><ellipse cx="891.4" cy="745" rx="301" ry="247.8" style="fill:#00da2c"/><ellipse cx="891.4" cy="757.4" rx="283.9" ry="233.8" style="fill:#04b564"/><path class="cls-8-green-level-four" d="M743 928c-23 12-29 37-35 64-5 17-10 51-1 96 12 53 30 53 31 89 1 15-10 43-31 98-18 47-23 56-33 85-9 27-14 47-19 70-18 69-26 116-18 160 3 15 8 30 18 41s30 14 41 4c13-10 10-34 9-51-6-58 0-104 8-170a399 399 0 0 1 73-195c38-59 45-52 58-80 31-70 1-142-7-163-14-33-27-43-37-48-16-8-38-10-57 0Z"/><path class="cls-9-green-level-four" d="M1017 861c-1 0-18-16-28-41-4-11-3-15-2-17 4-7 15-6 22-3 8 2 15 4 21 8s12 12 12 20c-1 6-5 13-10 16-8 6-17 2-19 6s5 10 4 11Zm-282-28c-1-1 16-19 41-28 11-4 14-4 17-2 7 4 5 14 3 22-2 7-4 15-9 21s-11 11-19 11c-7 0-13-4-16-10-6-8-2-16-6-18s-10 4-11 4Z"/><circle class="cls-10-green-level-four" cx="869.8" cy="783.4" r="9.6"/><circle class="cls-10-green-level-four" cx="922.7" cy="781.8" r="9.6"/><path d="M765 949a25 25 0 0 0-13-2c-1 0-8 1-15 10s-10 19-12 30a299 299 0 0 0-4 42c-1 32-1 47 5 65 4 13 9 28 24 39 2 2 23 16 39 8 5-2 16-9 21-43 13-79-28-141-45-149Z" style="fill:#bc2c58"/><path d="M869 892c-6-2-11-4-15-2-6 3-8 11-9 13-1 6 0 11 1 17 1 14 4 30 15 40 12 10 31 8 45 0s22-23 29-37c3-6 6-18 1-24-3-4-8-2-22-2-22 0-33 0-45-5Z" style="fill:#fd0300"/><path class="cls-10-green-level-four" d="M696 788a24 24 0 0 1 2 6v-3a26 26 0 0 1 0 6v-3a30 30 0 0 1-2 7l1-3a34 34 0 0 1-4 7l2-3a34 34 0 0 1-6 6l3-2a30 30 0 0 1-7 4l3-1a27 27 0 0 1-6 1h3a24 24 0 0 1-6 0h4-2a10 10 0 0 0-5 0 10 10 0 0 0-5 2 10 10 0 0 0-4 3 10 10 0 0 0-2 5c-1 3-1 7 1 10s5 6 8 6a39 39 0 0 0 9 1 41 41 0 0 0 10-1 45 45 0 0 0 8-4 49 49 0 0 0 8-5 33 33 0 0 0 4-4 54 54 0 0 0 5-8 51 51 0 0 0 4-8 29 29 0 0 0 2-6 39 39 0 0 0 0-10 36 36 0 0 0-2-10 10 10 0 0 0-2-4 10 10 0 0 0-4-4 10 10 0 0 0-5-1 10 10 0 0 0-5 0 14 14 0 0 0-8 6l-2 3a14 14 0 0 0 0 7Zm352-20a51 51 0 0 0 20 18 48 48 0 0 0 13 4 61 61 0 0 0 10 1 60 60 0 0 0 9-1 48 48 0 0 0 15-5 14 14 0 0 0 6-8 10 10 0 0 0 0-5 10 10 0 0 0-1-5c-2-3-5-6-8-6a14 14 0 0 0-11 1l-3 1 4-1a39 39 0 0 1-10 3l4-1a39 39 0 0 1-10 0l3 1a37 37 0 0 1-9-3l3 2a39 39 0 0 1-8-5l3 2a39 39 0 0 1-7-7l2 3-2-3a14 14 0 0 0-8-6 10 10 0 0 0-5 0 10 10 0 0 0-5 1c-3 2-6 5-6 8s-1 8 1 11Z"/><path class="cls-10-green-level-four" d="M707 828a265 265 0 0 0 73 50 272 272 0 0 0 88 26 251 251 0 0 0 86-5c26-6 52-17 74-33 11-8 21-17 30-28a152 152 0 0 0 13-17 141 141 0 0 0 9-20l3-9c2-7-2-15-9-17a14 14 0 0 0-17 10l-4 11 2-4a124 124 0 0 1-16 27l2-2a146 146 0 0 1-26 26l3-2a183 183 0 0 1-41 23l4-2a210 210 0 0 1-54 15h4a253 253 0 0 1-67-1l4 1a266 266 0 0 1-68-19l4 2a260 260 0 0 1-58-34l3 2a250 250 0 0 1-23-19c-5-5-14-6-19 0s-5 14 0 19Z"/><ellipse cx="857.8" cy="298.8" rx="189.6" ry="154.5" style="fill:#92dce9"/><ellipse cx="857.8" cy="284.6" rx="189.6" ry="154.5" style="fill:#baf1ff"/><path class="cls-8-green-level-four" d="M727 163a70 70 0 0 0-24 20c-6 7-11 16-11 28 0 10 7 20 17 23 11 3 21-3 31-8s21-10 31-6c12 5 16 21 28 26 10 4 21 1 30-4s18-11 29-11c12 0 23 9 33 17s21 16 34 13c9-2 15-9 24-12 12-4 26 0 38 5s26 7 37 1 17-21 14-34-11-23-20-32c-27-25-63-36-99-39-52-5-46 10-107 6-26-2-58-7-85 7Z"/><ellipse cx="857.8" cy="111.2" rx="123.1" ry="100.3" style="fill:#e25890"/><ellipse class="cls-8-green-level-four" cx="857.8" cy="100.3" rx="123.1" ry="100.3"/><path class="cls-3-green-level-four" d="M1292 1120c56-16 98-38 107-43 77-46 67-238 74-237 3 0-6 51 17 102 14 32 37 54 57 69-15 22-19 51-8 76s34 43 60 47c-26 1-51 19-61 44s-2 54 18 72a2730 2730 0 0 1-143-59 2747 2747 0 0 1-123-60 6 6 0 0 1 1-11Z"/><path class="cls-9-green-level-four" d="M894 909a44 44 0 0 1-10 34c-1 2 1 4 2 2a47 47 0 0 0 11-36 2 2 0 0 0-2-1 2 2 0 0 0-1 1Z"/><path class="cls-3-green-level-four" d="M766 1622H304a32 32 0 0 1-31-22c-21-64-72-108-131-108-78 0-142 79-142 177s64 177 142 177a116 116 0 0 0 40-7 34 34 0 0 1 11-2h573a32 32 0 0 0 33-33v-150a32 32 0 0 0-33-32Z"/><path class="cls-1-green-level-four" d="M217 1548c-31-6-63 37-74 70-11 35-2 75 18 100 8 9 20 18 31 14 8-2 13-11 17-19 18-34 28-50 32-61 11-28 16-41 15-53-3-21-18-46-39-51Zm864-345c-1-3-34-59-77-56-2 0-28 1-39 19-8 13 0 22-5 42-7 25-26 39-31 43-24 18-52 18-67 19a433 433 0 0 0-85 11 9 9 0 0 1-9-2c-12-13-39-23-62-24-9 0-49-3-60 21-6 13-1 28 6 38a38 38 0 0 0 12 10 9 9 0 0 1 3 15c-31 34-46 82-26 121 25 50 90 63 145 62 87-1 177-24 241-83s94-159 54-236Z"/><path class="cls-3-green-level-four" d="M1081 1197c-11-21-40-51-74-50-13 0-35 4-42 19-5 11 4 19 0 36-4 21-23 34-29 39-23 16-49 16-64 17a435 435 0 0 0-81 10 9 9 0 0 1-8-2c-12-12-38-20-60-22-9 0-47-2-57 19-6 12-1 26 6 35l12 9c9 7 11 9 12 12 2 6-3 12-5 15-9 12-29 39-34 57-5 17 2 33 4 39 20 50 117 56 139 56 82-1 168-22 229-75s90-144 52-214Z"/><path class="cls-1-green-level-four" d="M804 1284c2 11 23 10 40 23 18 15 19 38 26 37 3 0 5-5 8-11 2-3 4-8 4-13 0-10-7-17-11-22-22-21-62-26-66-17a5 5 0 0 0-1 3Z"/></svg>