<svg id="green_3" data-name="green_3" xmlns="http://www.w3.org/2000/svg" viewBox="0 0 1101.4 1501.9"><defs><style>.cls-1-green-level-three{fill:#08fd50}.cls-4-green-level-three{fill:#fff}.cls-6-green-level-three{fill:#00e920}.cls-7-green-level-three{fill:#070707}</style></defs><path class="cls-1-green-level-three" d="M1089 859a726 726 0 0 0-150-335c27-48 42-102 42-158C981 164 789 0 552 0S122 164 122 366c0 58 16 113 45 162A778 778 0 0 0 17 859c-4 24-55 336 126 476 78 61 189 61 410 60 205 0 307-1 383-54 152-108 175-338 153-482Z"/><ellipse cx="584.2" cy="360.9" rx="285.2" ry="234.8" style="fill:#00da2c"/><ellipse cx="574" cy="372.6" rx="269.1" ry="221.6" style="fill:#04b564"/><path class="cls-4-green-level-three" d="M1089 854c2 0 15 70 12 151-3 51-11 70-14 77-4 10-17 36-57 71-40 34-77 51-90 58-146 71-158 184-279 199-31 4-55 0-69-3-95-18-130-82-198-136-148-120-361-116-380-181A1017 1017 0 0 1 0 988c0-18 1-48 12-52 12-4 28 26 57 57 0 0 28 29 101 68 36 20 384 194 705 38 120-58 218-155 215-220l-1-25Z"/><path d="M328 1451c-45 32-148-24-182-89-13-25-19-57-20-62-5-28-8-45 0-61 12-25 42-37 70-39 69-6 119 44 122 47 43 47 39 105 38 125-2 29-5 63-28 79Z" style="fill:#2ce54b"/><path class="cls-6-green-level-three" d="M891 916c-29 12-17 48-50 81-26 25-39 17-84 42-26 16-51 40-56 70-5 32 14 64 40 80s61 20 92 15a186 186 0 0 0 119-76c2-3 43-64 30-138-4-19-8-43-29-60-15-12-41-23-62-14Z"/><path class="cls-7-green-level-three" d="M521 433a14 14 0 0 1 1 3l-1-2a15 15 0 0 1 0 4l1-2a18 18 0 0 1-2 4l1-1a20 20 0 0 1-2 4l1-2a20 20 0 0 1-4 4l2-1a18 18 0 0 1-4 2l2-1a16 16 0 0 1-4 1h2a14 14 0 0 1-4 0h3-1a6 6 0 0 0-3 0 6 6 0 0 0-3 1 9 9 0 0 0-4 5 8 8 0 0 0 1 6 8 8 0 0 0 4 3 23 23 0 0 0 6 1 24 24 0 0 0 5-1 27 27 0 0 0 5-2 29 29 0 0 0 5-3 19 19 0 0 0 2-3 32 32 0 0 0 4-4 30 30 0 0 0 2-5 17 17 0 0 0 1-3 23 23 0 0 0 0-6 21 21 0 0 0-1-6 9 9 0 0 0-4-5 6 6 0 0 0-3-1 6 6 0 0 0-3 0 8 8 0 0 0-5 4v2a8 8 0 0 0 0 4Zm207-12a29 29 0 0 0 6 6 30 30 0 0 0 6 5 28 28 0 0 0 8 2 35 35 0 0 0 6 1 36 36 0 0 0 5-1 29 29 0 0 0 9-3 8 8 0 0 0 4-5 6 6 0 0 0 0-3 6 6 0 0 0-1-3 8 8 0 0 0-5-3 9 9 0 0 0-6 0l-2 1h2a22 22 0 0 1-6 1h3a23 23 0 0 1-6 0h2a22 22 0 0 1-6-1h2a22 22 0 0 1-5-3l2 2a23 23 0 0 1-4-4l1 1-1-1a8 8 0 0 0-5-4 6 6 0 0 0-3 0 6 6 0 0 0-3 1 8 8 0 0 0-3 11Z"/><path class="cls-4-green-level-three" d="M706 477c-1 0-10-9-16-23-2-5-1-7-1-9 3-4 8-3 12-2l12 5c3 2 6 7 6 11a12 12 0 0 1-5 9c-5 3-9 1-10 3s2 6 2 6Z"/><path d="M573 792c-18 9-22 29-27 49-3 13-7 38 0 72 8 40 22 40 23 68 1 11-7 32-24 74-13 35-17 42-24 64-7 21-11 36-15 53-13 53-20 88-13 122 2 11 5 22 14 30s22 11 30 4c10-8 8-27 7-39a537 537 0 0 1 28-217c10-24 22-42 33-59 30-45 35-40 44-61 24-53 1-108-5-123-10-25-21-33-28-37-12-6-29-7-43 0Z" style="fill:#ff7bac"/><circle class="cls-7-green-level-three" cx="604.9" cy="393" r="17.5"/><circle class="cls-7-green-level-three" cx="701.7" cy="393" r="17.5"/><path d="M582 485c-15-10-21-23-25-31-6-13-11-24-8-38 2-13 12-25 25-27s28 7 29 20c1 16-11 24-6 39 2 5 6 13 14 20 3 4 7 6 8 11 2 4 2 10-1 13s-9 2-16 0c-6-1-12-3-20-7Z" style="fill:#fd0300"/><path class="cls-1-green-level-three" d="M906 918c-28 14-13 48-43 82-23 26-37 19-78 46-25 17-48 42-50 72-3 31 17 60 44 75s60 15 90 8a180 180 0 0 0 110-82c2-3 38-65 20-135-5-19-11-41-32-56-15-11-41-20-61-10Z"/><path class="cls-4-green-level-three" d="M573 418a74 74 0 0 0 13 54 71 71 0 0 0 11 12c1 1 3-1 2-2a71 71 0 0 1-23-48 68 68 0 0 1 0-15c1-2-2-3-3-1Z"/><path class="cls-7-green-level-three" d="M527 456a157 157 0 0 0 43 30 170 170 0 0 0 25 10 168 168 0 0 0 27 5 148 148 0 0 0 51-2c15-4 31-10 43-20a95 95 0 0 0 18-16 89 89 0 0 0 8-11 83 83 0 0 0 5-11 68 68 0 0 0 2-6 8 8 0 0 0-5-10 8 8 0 0 0-10 6l-2 6v-1a74 74 0 0 1-9 15l1-1a87 87 0 0 1-15 15l1-1a108 108 0 0 1-23 14l2-1a124 124 0 0 1-32 9l2-1a150 150 0 0 1-39 0h2a157 157 0 0 1-40-10h2a154 154 0 0 1-34-19l2 1a146 146 0 0 1-14-12c-3-3-8-3-11 0a8 8 0 0 0 0 11Z"/><path class="cls-6-green-level-three" d="M414 992c-57-38-56-52-83-59-41-11-99 6-111 43-8 23-1 49 12 70s31 37 49 53c47 41 95 83 153 104s129 20 176-21c3-3 38-42 27-86-7-30-31-46-34-49-38-24-66 2-124-17-19-7-34-17-65-38Z"/><path class="cls-1-green-level-three" d="M401 1009c-55-35-55-48-81-55-39-10-96 6-107 40-8 22-1 46 11 65s31 34 49 49c45 38 91 76 147 96s126 18 170-20c3-2 37-38 27-79-7-27-30-43-33-45-37-23-64 2-120-16-18-6-33-16-63-35Zm-95 450c-46 32-148-24-182-89-13-25-19-57-20-62-5-29-8-45 0-61 12-25 42-37 70-40 69-5 119 45 122 48 43 47 39 105 37 125-1 29-4 63-27 79Z"/><path class="cls-6-green-level-three" d="M344 1306c-24-9-49 2-51 3-24 11-35 33-38 41-17 36-4 72-1 79 19 47 73 84 106 70 12-5 18-15 23-23 32-55 12-151-39-170Z"/><path class="cls-1-green-level-three" d="M311 1469a96 96 0 0 1-23-44c-4-12-14-46 3-78 6-10 15-28 34-32 21-5 40 11 44 15 12 12 19 28 24 44 7 22 12 45 8 67-1 7-10 45-37 52-24 6-47-18-53-24Z"/><path class="cls-6-green-level-three" d="M934 1452c-35 18-94-5-123-47l-3-3c-17-27-6-62-5-67 4-11 9-18 56-59 42-37 58-49 82-58 29-11 40-7 45-4 15 9 16 32 17 37 1 20-8 36-11 41-37 67-15 137-58 160Z"/><path class="cls-1-green-level-three" d="M962 1435c-41 27-123-45-124-46l-2-4c-17-27-6-62-5-67l2-5c12-27 47-58 47-58a339 339 0 0 1 66-45 129 129 0 0 1 23-9c9-2 34-9 45 2 5 7 4 17 2 31-3 16-7 26-18 50l-13 31c-24 59 1 104-23 120Z"/><path class="cls-6-green-level-three" d="M876 1452c-23-30-15-77 9-105 19-22 59-45 90-28 30 17 32 59 27 84-8 37-41 76-80 74-27-2-44-22-46-25Z"/><path class="cls-1-green-level-three" d="M911 1368c16-20 48-43 73-32 27 11 25 52 25 54-3 42-42 71-47 75-9 6-15 8-18 9-15 5-36 5-48-10-13-17-6-44-3-57 3-8 6-24 18-39Z"/></svg>