<svg id="green_2" data-name="green_2" xmlns="http://www.w3.org/2000/svg" viewBox="0 0 993.6 1195.6"><defs><style>.cls-3-green-level-two{fill:#070707}</style></defs><path d="M892 384a203 203 0 0 0 15-71C913 144 698-4 508 0 326 4 120 145 125 313a202 202 0 0 0 4 32A692 692 0 0 0 0 758c1 70 11 247 140 357 95 81 207 81 357 81s261 0 357-81c128-109 138-285 139-357 3-122-33-266-101-374Z" style="fill:#08fd50"/><ellipse cx="547" cy="294.1" rx="275.3" ry="229.2" style="fill:#04b564"/><ellipse class="cls-3-green-level-two" cx="568.1" cy="294.9" rx="9.4" ry="10.5"/><ellipse class="cls-3-green-level-two" cx="632.2" cy="294.1" rx="9.4" ry="10.5"/><path class="cls-3-green-level-two" d="M460 290a18 18 0 0 1 2 5l-1-3a19 19 0 0 1 0 5l1-3a22 22 0 0 1-2 6l1-3a24 24 0 0 1-3 6l2-2a25 25 0 0 1-5 4l2-2a22 22 0 0 1-4 3l2-1a19 19 0 0 1-5 2l3-1a17 17 0 0 1-5 0l3 1-1-1a11 11 0 0 0-7 1 7 7 0 0 0-3 3 7 7 0 0 0-2 3 10 10 0 0 0 1 8c1 2 3 4 6 4a27 27 0 0 0 6 1 29 29 0 0 0 7-1 31 31 0 0 0 6-3 35 35 0 0 0 5-3 25 25 0 0 0 3-3 39 39 0 0 0 4-6 39 39 0 0 0 3-6 22 22 0 0 0 1-4 29 29 0 0 0 0-7 27 27 0 0 0-1-8 7 7 0 0 0-2-3 7 7 0 0 0-2-3 10 10 0 0 0-8-1 10 10 0 0 0-5 5l-1 2a10 10 0 0 0 0 5Zm241-18a36 36 0 0 0 6 8 36 36 0 0 0 8 5 34 34 0 0 0 10 3 42 42 0 0 0 6 1 43 43 0 0 0 7-1 34 34 0 0 0 11-3 10 10 0 0 0 4-6 8 8 0 0 0 0-4 8 8 0 0 0-1-4 10 10 0 0 0-6-4 10 10 0 0 0-7 1l-2 1 2-1a27 27 0 0 1-7 2l3-1a27 27 0 0 1-7 0l2 1a26 26 0 0 1-6-2l2 1a27 27 0 0 1-6-4l2 2a28 28 0 0 1-5-5l2 2-1-2a10 10 0 0 0-6-5 10 10 0 0 0-7 1 10 10 0 0 0-5 6 10 10 0 0 0 1 8Z"/><path d="M683 336s-12-11-18-28c-3-7-2-10-1-11 2-5 9-4 14-3 5 2 10 3 14 6s8 8 7 13a14 14 0 0 1-6 12c-5 3-11 1-12 4s3 6 2 7Z" style="fill:#fff"/><path class="cls-3-green-level-two" d="M463 314a189 189 0 0 0 51 37 202 202 0 0 0 31 12 199 199 0 0 0 32 6 174 174 0 0 0 61-3c19-4 37-12 53-24a115 115 0 0 0 21-20 110 110 0 0 0 9-13 105 105 0 0 0 7-14l2-7c2-5-1-11-6-12a10 10 0 0 0-12 7l-3 8 1-3a91 91 0 0 1-11 20l1-2a105 105 0 0 1-18 19l2-2a129 129 0 0 1-29 17l2-1a146 146 0 0 1-38 11h3a175 175 0 0 1-48 0h3a186 186 0 0 1-48-14l2 1a184 184 0 0 1-40-24l1 2a180 180 0 0 1-15-15c-4-3-10-4-14 0s-4 10 0 14Z"/></svg>