<svg id="green_1" data-name="green_1" xmlns="http://www.w3.org/2000/svg" viewBox="0 0 669 669.2"><defs><style>.cls-3-green-level-one{fill:#070707}</style></defs><path d="M400 52a333 333 0 0 1 173 48A333 333 0 0 0 335 0a334 334 0 0 0-174 621 333 333 0 0 1-96-235C65 202 215 52 400 52Z" style="fill:#00da2c"/><path d="M669 335a333 333 0 0 0-96-235 333 333 0 0 0-173-48A335 335 0 0 0 65 386a333 333 0 0 0 96 235 333 333 0 0 0 173 48c185 0 335-150 335-334Z" style="fill:#00ff50"/><ellipse class="cls-3-green-level-one" cx="369.9" cy="426.3" rx="10.2" ry="11.2"/><ellipse class="cls-3-green-level-one" cx="439.6" cy="425.4" rx="10.2" ry="11.2"/><path d="M495 470c-1 0-13-12-20-30-3-7-2-10-1-12 3-5 10-4 15-2 6 1 11 3 16 6s8 8 7 14a15 15 0 0 1-6 12c-6 4-12 1-14 4s3 7 3 8Z" style="fill:#fff"/><path class="cls-3-green-level-one" d="M512 430c-11 31-38 56-70 65-8 3-4 16 4 13 36-10 66-39 79-74 1-4-1-8-4-9-4-1-7 2-9 5Z"/></svg>