<?xml version="1.0" encoding="utf-8"?>
<!-- Generator: Adobe Illustrator 25.4.1, SVG Export Plug-In . SVG Version: 6.00 Build 0)  -->
<svg
  version="1.1"
  id="레이어_1"
  xmlns="http://www.w3.org/2000/svg"
  xmlns:xlink="http://www.w3.org/1999/xlink"
  x="0px"
  y="0px"
  viewBox="0 0 1269.4 1985.7"
  style="enable-background: new 0 0 1269.4 1985.7"
  xml:space="preserve"
>
  <style type="text/css">
    .pink-4-st0 {
      fill: #d2006d;
    }
    .pink-4-st1 {
      fill: #b4b4b4;
    }
    .pink-4-st2 {
      fill: #2c7dbe;
    }
    .pink-4-st3 {
      fill: #fd037f;
    }
    .pink-4-st4 {
      fill: #ffffff;
    }
    .pink-4-st5 {
      fill: #469dfc;
    }
    .pink-4-st6 {
      fill: #d20069;
    }
    .pink-4-st7 {
      fill: #e51570;
    }
    .pink-4-st8 {
      fill: #ffb6c7;
    }
    .pink-4-st9 {
      fill: #ff6e73;
    }
    .pink-4-st10 {
      fill: #fd016f;
    }
    .pink-4-st11 {
      fill: #070707;
    }
    .pink-4-st12 {
      fill: #d1b35d;
    }
    .pink-4-st13 {
      fill: #f7da7c;
    }
  </style>
  <path
    class="pink-4-st0"
    d="M539.4,1738.5c30.2-1.7,58.8-12.1,86.2-25.4l-14.6-239.3H485.7l-23.9,243.7
	C483.7,1732.8,512.3,1740,539.4,1738.5z"
  />
  <path
    class="pink-4-st1"
    d="M539.4,1738.5c-27,1.5-55.7-5.7-77.6-21l-3.7,37.7c28.9,17.9,64,25.8,97.7,21.3c26.3-3.7,51.1-14.4,71.8-30.9
	l-2-32.5C598.2,1726.4,569.6,1736.8,539.4,1738.5z"
  />
  <path
    class="pink-4-st2"
    d="M458.1,1755.2c0,30,0.1,60,0.2,90c-31,4.1-107.5,16.6-112.6,47.9c-5.4,33.6,71.9,84.6,145.6,84.2
	c67.3-0.4,145-43.6,145.6-84.2c0-2.6-0.2-5.2-0.8-7.7l-8.5-139.8c-20.7,16.5-45.5,27.2-71.8,30.9
	C522,1781.1,487,1773.1,458.1,1755.2z"
  />
  <path
    class="pink-4-st3"
    d="M500.5,1756.9c30.2-1.7,58.8-12.1,86.2-25.4l-14.6-239.3H446.8l-23.9,243.7
	C444.8,1751.1,473.5,1758.4,500.5,1756.9z"
  />
  <path
    class="pink-4-st4"
    d="M500.5,1756.9c-27,1.6-55.7-5.7-77.6-21l-3.7,37.7c28.9,17.9,64,25.8,97.7,21.3c26.3-3.7,51.1-14.4,71.8-30.9
	l-2-32.5C559.3,1744.8,530.7,1755.1,500.5,1756.9z"
  />
  <path
    class="pink-4-st5"
    d="M419.2,1773.6l-6.6,67c-61.1,8.8-105.9,37.2-105.9,70.9c0,40.7,65.2,73.7,145.6,73.7c90,0,144.5-63,145.2-68.4
	c0.2-1.8,0.4-3.5,0.4-5.3c0-0.8-0.2-3.4-0.2-4.2c-2.7-48-5.7-95.7-9.1-143.3c-20.7,16.5-45.5,27.2-71.8,30.9
	C483.2,1799.4,448.1,1791.4,419.2,1773.6z"
  />
  <path
    class="pink-4-st0"
    d="M748.9,1738.5c-30.2-1.7-58.8-12.1-86.2-25.4l14.6-239.3h125.3l23.9,243.7
	C804.6,1732.8,775.9,1740,748.9,1738.5z"
  />
  <path
    class="pink-4-st1"
    d="M748.9,1738.5c27,1.5,55.7-5.7,77.6-21l3.7,37.7c-28.9,17.9-64,25.8-97.7,21.3c-26.3-3.7-51.1-14.4-71.8-30.9
	l2-32.5C690.1,1726.4,718.7,1736.8,748.9,1738.5z"
  />
  <path
    class="pink-4-st2"
    d="M830.2,1755.2c-0.1,30-0.1,60-0.2,90c31,4.1,107.5,16.6,112.6,47.9c5.4,33.6-71.9,84.6-145.6,84.2
	c-67.3-0.4-145-43.6-145.6-84.2c0-2.6,0.2-5.2,0.8-7.7l8.5-139.8c20.7,16.5,45.5,27.2,71.8,30.9
	C766.2,1781.1,801.3,1773.1,830.2,1755.2z"
  />
  <path
    class="pink-4-st3"
    d="M787.7,1756.9c-30.2-1.7-58.8-12.1-86.2-25.4l14.6-239.3h125.2l23.9,243.7
	C843.4,1751.1,814.8,1758.4,787.7,1756.9z"
  />
  <path
    class="pink-4-st4"
    d="M787.7,1756.9c27,1.6,55.7-5.7,77.6-21l3.7,37.7c-28.9,17.9-64,25.8-97.7,21.3c-26.3-3.7-51.1-14.4-71.8-30.9
	l2-32.5C728.9,1744.8,757.5,1755.1,787.7,1756.9z"
  />
  <path
    class="pink-4-st5"
    d="M869,1773.6l6.6,67c61.1,8.8,105.9,37.2,105.9,70.9c0,40.7-65.2,73.7-145.6,73.7c-90,0-144.5-63-145.2-68.4
	c-0.2-1.8-0.4-3.5-0.4-5.3c0-0.8,0.2-3.4,0.2-4.2c2.7-48,5.7-95.7,9.1-143.3c20.7,16.5,45.5,27.2,71.8,30.9
	C805.1,1799.4,840.1,1791.4,869,1773.6z"
  />
  <path
    class="pink-4-st6"
    d="M1227,1459.2c-16.6-20.6-50.3-21.8-80.3-4.7l-165.3-137.2l-43.1,37l163.5,190.1c1.5,3.9,3.6,7.5,6.2,10.7
	c19.2,23.8,61.4,21.7,94.2-4.8S1246.2,1483.1,1227,1459.2z"
  />
  <path
    class="pink-4-st3"
    d="M1199.4,1473.7c-13.3-16.5-40.4-17.5-64.5-3.8l-132.7-110.2l-34.6,29.7L1099,1542c1.2,3.1,2.9,6,5,8.6
	c15.4,19.1,49.3,17.4,75.7-3.8S1214.9,1492.8,1199.4,1473.7z"
  />
  <path
    class="pink-4-st6"
    d="M42.5,1507c16.6-20.6,50.3-21.8,80.3-4.7L288,1365l43.1,37l-163.5,190.1c-1.5,3.9-3.6,7.5-6.2,10.7
	c-19.2,23.8-61.4,21.7-94.2-4.8S23.3,1530.8,42.5,1507z"
  />
  <path
    class="pink-4-st3"
    d="M70,1521.4c13.3-16.5,40.4-17.5,64.5-3.8l132.7-110.2l34.6,29.7l-131.3,152.6c-1.2,3.1-2.9,6-5,8.6
	c-15.4,19.1-49.3,17.4-75.7-3.8S54.6,1540.5,70,1521.4z"
  />
  <path
    class="pink-4-st7"
    d="M1005.8,578c93.2,108.7,144.4,247.2,144.2,390.4c0,331.6-268.8,600.5-600.5,600.5
	c-143.2,0.2-281.7-50.9-390.4-144.2c110.1,128.6,273.7,210.2,456.3,210.2c331.7,0,600.5-268.8,600.5-600.5
	C1216,851.8,1134.4,688.2,1005.8,578z"
  />
  <path
    class="pink-4-st3"
    d="M1150,968.4c0.2-143.2-51-281.7-144.2-390.4c-108.7-93.2-247.2-144.3-390.3-144.1
	C283.8,433.9,15,702.7,15,1034.4c-0.2,143.2,50.9,281.7,144.2,390.3c108.7,93.2,247.2,144.4,390.3,144.2
	C881.1,1568.9,1150,1300,1150,968.4z"
  />
  <circle class="pink-4-st7" cx="572.8" cy="1000.3" r="328.8" />
  <path
    class="pink-4-st8"
    d="M795.6,1090.3c27.2-0.1,53.9,6.4,78,19c4.9-20.5,7.4-41.4,7.3-62.4c0-147.7-119.7-267.4-267.4-267.4
	s-267.4,119.7-267.4,267.4c0,19.8,2.2,39.6,6.5,59c23.4-10.4,48.7-15.6,74.2-15.5c86.7,0,156.9,58.6,156.9,130.8
	c0,32.3-14.1,61.9-37.3,84.7c44.2,11.4,90.5,11.3,134.6-0.1c-22.2-22.8-35.6-52.3-35.6-84.6C645.5,1148.9,712.7,1090.3,795.6,1090.3
	z"
  />
  <path
    class="pink-4-st9"
    d="M583.8,1221.1c0-72.2-70.2-130.8-156.9-130.8c-25.6-0.1-50.8,5.2-74.2,15.5c22.1,97.6,96.9,174.7,193.8,199.9
	C569.7,1283,583.8,1253.4,583.8,1221.1z"
  />
  <path
    class="pink-4-st9"
    d="M873.6,1109.3c-24.1-12.6-50.8-19.1-78-19c-83,0-150.2,58.6-150.2,130.8c0,32.2,13.4,61.8,35.6,84.6
	C776.5,1280.7,850.5,1205.2,873.6,1109.3z"
  />
  <ellipse
    transform="matrix(0.7071 -0.7071 0.7071 0.7071 -597.2609 692.6649)"
    class="pink-4-st4"
    cx="537.5"
    cy="1067.3"
    rx="42.8"
    ry="42.8"
  />
  <circle class="pink-4-st4" cx="681.8" cy="1063.8" r="42.8" />
  <path
    class="pink-4-st10"
    d="M614.3,1090.3c-13.5-0.3-24.7,10.5-24.9,24s10.5,24.7,24,24.9c13.5,0.3,24.7-10.5,24.9-24c0-0.2,0-0.3,0-0.5
	C638.5,1101.4,627.8,1090.4,614.3,1090.3C614.4,1090.3,614.4,1090.3,614.3,1090.3z M614.3,1125.3c-5.8,0.1-10.6-4.5-10.8-10.3
	s4.5-10.6,10.3-10.8c5.8-0.1,10.6,4.5,10.8,10.3c0,0.1,0,0.1,0,0.2C624.7,1120.5,620.1,1125.2,614.3,1125.3
	C614.3,1125.3,614.3,1125.3,614.3,1125.3z"
  />
  <path
    class="pink-4-st10"
    d="M479.6,970.4l56.5,32.7l15.9,9.2c4.3,2.5,9.4,3.1,14.3,1.9c4.3-1.2,9-4.5,11.1-8.5c2.3-4.3,3.4-9.5,1.9-14.3
	c-1.4-4.6-4.4-8.6-8.5-11.1l-56.5-32.7l-15.9-9.2c-4.3-2.4-9.5-3.1-14.3-1.9c-4.3,1.2-9,4.5-11.1,8.5c-2.3,4.3-3.4,9.5-1.9,14.3
	C472.5,963.9,475.5,967.9,479.6,970.4L479.6,970.4z"
  />
  <path
    class="pink-4-st10"
    d="M745.8,970.4l-56.5,32.7l-15.9,9.2c-4.3,2.4-9.5,3.1-14.3,1.9c-4.3-1.2-9-4.5-11.1-8.5
	c-2.3-4.3-3.4-9.5-1.9-14.3c1.4-4.6,4.4-8.6,8.5-11.1l56.5-32.7l15.9-9.2c4.3-2.4,9.5-3.1,14.3-1.9c4.3,1.2,9,4.5,11.1,8.5
	c2.3,4.3,3.4,9.5,1.9,14.3C752.9,963.9,749.9,967.9,745.8,970.4z"
  />
  <circle class="pink-4-st11" cx="539.3" cy="1073.6" r="30.1" />
  <circle class="pink-4-st11" cx="681.5" cy="1073.6" r="30.1" />
  <path
    class="pink-4-st4"
    d="M606.7,1174.4c-0.5,3.1,7.1,6.2,22.4,12.3c3.2,1.3,7.3,3,9.6,1c1-1,1.8-2.4,2.1-3.8c2.9-9.6,2.6-19.8-0.9-29.2
	c-14.4,7.8-25.4,14.1-31.1,17.4C608,1172.5,606.9,1173.2,606.7,1174.4z"
  />
  <path
    d="M681.4,1143.2c-0.8-2.3-3.6-4.6-6.2-3.5c-0.7,0.3-1.5,0.6-2.3,0.8l-1.2,0.3l-0.6,0.1h-0.5c-0.4,0-0.8,0-1.2,0
	c-0.8,0.1-1.6,0.1-2.4-0.1l0.5,0.1l-0.6-0.1c-0.4-0.1-0.8-0.2-1.2-0.3c-0.7-0.2-1.4-0.5-2.1-0.7c1.1,0.3,0,0-0.3-0.1
	s-0.7-0.4-1.1-0.6s-0.6-0.3-0.8-0.5c-0.1,0-0.5-0.3-0.7-0.5l-0.3-0.3c-0.3-0.2-0.6-0.5-0.8-0.8s-0.5-0.6-0.8-0.8
	c0,0-0.2-0.2-0.3-0.4s-0.3-0.5-0.4-0.6l-0.5-0.8c-0.2-0.4-1.1-1.6-1-2l0.2,0.5l-0.3-0.7c-0.1-0.3-0.2-0.6-0.3-0.9
	c-0.2-0.7-0.3-1.4-0.5-2.1c0,0,0-0.1,0-0.1v-0.1c0-0.4-0.1-0.8-0.1-1.2c0-0.8,0-1.5,0.1-2.3c0.2-2.6-2.5-5.2-5-5c-2.7,0.1-5,2.3-5,5
	c-0.3,4.1,0.4,8.1,2.2,11.8c-0.3,0.5-0.7,1.1-1,1.6l-1.1,1.5l-0.4,0.6l-0.5,0.6c-1.6,2-3.2,3.8-5,5.6c-1.9,1.9-3.9,3.7-5.9,5.4
	l-1.1,0.9l-0.2,0.1l-0.8,0.6c-1.1,0.8-2.2,1.5-3.3,2.3c-2.2,1.5-4.5,2.8-6.9,4c-1.1,0.6-2.1,1.1-3.2,1.6l-1.7,0.8l-1.2,0.5
	c-4.8,1.9-9.9,3.3-15,4.2c-0.7,0.1-1.4,0.2-2.1,0.3h-0.1l-1.5,0.2c-1.5,0.2-2.9,0.3-4.4,0.3c-2.9,0.1-5.9,0.1-8.8-0.2
	c-2.7,0-5,2.3-5,5c0.1,2.7,2.3,4.9,5,5c22.5,1.7,45.4-7,61.7-22.5c3.3-3.1,6.2-6.5,8.9-10.2l0.5,0.4c6.6,5,15.3,6.3,23,3.3
	C680.3,1148.4,682.3,1146,681.4,1143.2z M616.6,1162.8L616.6,1162.8C615.8,1163.2,616.4,1162.9,616.6,1162.8L616.6,1162.8z"
  />
  <path
    class="pink-4-st12"
    d="M79.9,669.4c0,0-34.6,47.1-60.9,135.9c-3.2,10.9-6.7,29.5-0.6,50.3c4.8,16.3,17.3,31.1,33.9,34.6
	c27.6,5.9,51.1-19.2,68.2-41.6L203,740.2c27.3-36,40-45.2,52.8-43.8c22.2,2.4,26.4,36.1,45.4,36.4c21.6,0.3,23.7-43.4,64.2-65.2
	c5.5-2.9,31.8-17.1,58.7-9.2c37.2,11,35.1,52.5,72.8,63.5c21,6.2,41.4-0.8,58-6.6c27.5-9.5,44.7-24.9,51.7-30.9
	c42.8-36.2,136.7-82.3,189.8-55.5c39,19.7,37.2,69.4,72.2,72.8c22.7,2.2,28.2-18.2,58-19.6c31-1.4,64.1,19,78.9,45.9
	c13.8,25,0.8,35.9,13.5,69.5c1,2.8,24.1,60.1,59.2,61.7c31.1,1.5,51-33.2,56.8-63.8c5.7-29.4,5.2-59.6-1.4-88.8
	c-10-43.8-34.2-83.3-63.7-117.2c-52.5-60.2-110.6-88.7-158.3-111.3c-48.8-23.1-152.2-70.7-294.8-70.6c-23.1,0-108.8,1.4-213,36.2
	C349.7,462,298,486.7,249.7,517.2C211,541.6,140.5,587,79.9,669.4z"
  />
  <path
    class="pink-4-st13"
    d="M82.9,639.2c0,0-34.6,47.1-60.9,135.9c-3.2,10.9-6.7,29.5-0.6,50.3c4.8,16.3,17.3,31.1,33.9,34.7
	c27.6,5.9,51.1-19.2,68.2-41.6L206,710c27.4-36,40-45.2,52.8-43.8c22.2,2.4,26.4,36.1,45.4,36.4c21.6,0.3,23.6-43.4,64.2-65.2
	c5.5-2.9,31.8-17.1,58.7-9.2c37.2,11,35.1,52.5,72.8,63.5c21,6.2,41.4-0.8,58.1-6.6c27.5-9.5,44.7-24.9,51.7-30.8
	c42.8-36.2,136.7-82.3,189.8-55.5c39,19.7,37.2,69.4,72.2,72.8c22.7,2.2,28.3-18.2,58-19.6c31-1.4,64.1,19,78.9,45.9
	c13.8,25,0.8,35.9,13.5,69.5c1,2.8,24.1,60.1,59.2,61.7c31.1,1.5,51-33.2,56.8-63.8c5.7-29.4,5.2-59.6-1.4-88.8
	c-10-43.8-34.2-83.3-63.7-117.2c-52.5-60.3-110.6-88.7-158.4-111.4c-48.8-23.1-152.2-70.7-294.8-70.6c-23.1,0-108.8,1.4-213,36.2
	c-54.1,18.2-105.8,42.9-154.1,73.4C214,511.4,143.5,556.7,82.9,639.2z"
  />
  <path
    class="pink-4-st7"
    d="M727.4,575.5c47.1,11.2,156.4-14.2,246.7-100.7l1.6-1.5c57.4-55.7,64.3-118.8,89.4-211.9
	c18.7-69.3,28.1-104,40.2-122.2c60-90.2,166.6-88.8,164-108.3c-3.7-28.1-229.3-69.1-373.4,45c-27.5,21.8-49,42.7-78.9,84.4
	c-45.9,64-86.6,131.7-121.7,202.2c-3.5,7.1-32.8,75.9-29.1,140.3c0.8,14.1,3.4,31.7,15.7,46.9C696.9,568.3,718.5,573.4,727.4,575.5z
	"
  />
  <path
    class="pink-4-st3"
    d="M722.8,461.6c32,7.6,106.4-9.7,167.8-68.5c5-4.8,71.3-67.6,81.7-161.8c2.8-25,1.7-50.9-7.7-74.2
	s-28.2-43.7-52.3-50.8c-25.3-7.4-53.1,0.5-74.9,15.3s-38.3,36-53.7,57.4c-31.3,43.6-58.9,89.6-82.8,137.6
	c-2.4,4.8-22.3,51.6-19.8,95.5c0.5,9.6,2.3,21.6,10.6,31.9C702,456.6,716.7,460.1,722.8,461.6z"
  />
  <path
    class="pink-4-st7"
    d="M542,575.5c-47.1,11.2-156.4-14.2-246.7-100.7l-1.6-1.5c-57.4-55.7-64.3-118.8-89.4-211.9
	c-18.7-69.3-28.1-104-40.2-122.2C104.1,49-2.5,50.4,0.1,30.8c3.7-28.1,229.3-69.1,373.4,45c27.5,21.8,49,42.7,78.9,84.4
	c45.9,64,86.6,131.7,121.6,202.2c3.5,7.1,32.8,75.9,29.1,140.3c-0.8,14.1-3.4,31.7-15.7,46.9C572.5,568.3,550.9,573.4,542,575.5z"
  />
  <path
    class="pink-4-st3"
    d="M546.7,461.6c-32,7.6-106.4-9.7-167.8-68.5c-5-4.8-71.3-67.6-81.7-161.8c-2.8-25-1.7-50.9,7.7-74.2
	s28.2-43.7,52.3-50.8c25.3-7.4,53.1,0.5,74.9,15.3s38.3,36,53.7,57.4c31.3,43.6,58.9,89.6,82.8,137.6c2.4,4.8,22.3,51.6,19.8,95.5
	c-0.5,9.6-2.3,21.6-10.7,31.9C567.4,456.6,552.7,460.1,546.7,461.6z"
  />
</svg>
