<svg
  version="1.1"
  id="pink_3"
  xmlns="http://www.w3.org/2000/svg"
  x="0"
  y="0"
  viewBox="0 0 1134.8 1472.6"
  style="enable-background: new 0 0 1134.8 1472.6"
  xml:space="preserve"
>
  <style>
    .st0-pink-level-three {
      fill: #fd037f;
    }
    .st1-pink-level-three {
      fill: #e51570;
    }
    .st2-pink-level-three {
      fill: #fff;
    }
    .st4-pink-level-three {
      fill: #ff6e73;
    }
    .st5-pink-level-three {
      fill: #070707;
    }
    .st7-pink-level-three {
      fill: #d20069;
    }
  </style>
  <path
    class="st0-pink-level-three"
    d="M838 1072c72-91 126-198 145-313 15-89 8-183-23-267A554 554 0 0 0 13 937c30 53 68 101 114 143a642 642 0 0 0 561 138c56-42 106-91 150-146z"
  />
  <path
    class="st1-pink-level-three"
    d="M960 492c31 84 38 178 23 267a690 690 0 0 1-145 313c-44 55-94 104-150 146 100-25 173-71 223-104 80-52 151-117 209-193l1-37c1-153-61-292-161-392z"
  />
  <path
    class="st2-pink-level-three"
    d="m1129 924-9-3a853 853 0 0 1-209 193c-59 39-150 96-282 115-33 5-297 38-503-149A586 586 0 0 1 13 941l-7 2c-6 5-15 19 17 113 16 48 24 72 41 104 17 30 50 91 80 86a353 353 0 0 1 293 179h2l2 2a58 58 0 0 0 29 17c28 6 122 19 179 5 11-3 24-8 35-19l4-4h1a356 356 0 0 1 297-180h1c31 5 64-59 82-92 18-34 26-60 42-110 33-100 24-116 18-120z"
  />
  <path
    class="st1-pink-level-three"
    d="M633 458c41 9 136-13 215-88 6-6 91-86 104-207 4-32 2-65-10-94s-36-56-67-65c-32-10-67 0-95 19s-49 46-69 74c-40 55-75 114-106 176-3 6-28 66-25 122 1 12 3 27 14 40 13 16 31 21 39 23z"
  />
  <path
    class="st0-pink-level-three"
    d="M629 359c28 6 93-9 146-60 4-4 62-59 71-141 2-21 1-44-7-64s-24-38-45-44c-22-7-46 0-65 13s-34 31-47 50c-27 38-51 78-72 120-2 4-19 44-17 83 0 8 2 18 9 27 9 11 22 14 27 16z"
  />
  <path
    class="st1-pink-level-three"
    d="M445 458c-41 9-136-13-215-88-6-6-91-86-104-207-4-32-3-65 9-94s36-56 67-65c32-10 68 0 96 19s49 46 68 74c41 55 76 114 106 176 3 6 29 66 26 122-1 12-3 27-14 40-13 16-32 21-39 23z"
  />
  <path
    class="st0-pink-level-three"
    d="M449 359c-28 6-93-9-146-60-5-4-62-59-71-141-3-21-2-44 6-64s25-38 46-44c22-7 46 0 65 13s33 31 46 50c28 38 52 78 72 120 3 4 20 44 18 83-1 8-2 18-10 27-8 11-21 14-26 16z"
  />
  <circle class="st1-pink-level-three" cx="545.5" cy="758.8" r="254.1" />
  <path
    d="M590 881c0-66 62-119 138-119 13 0 26 2 39 5a221 221 0 0 0-443 0c13-3 26-5 38-5 77 0 139 54 139 119 0 36-18 68-47 89 58 26 124 26 182 0-28-21-46-53-46-89z"
    style="fill: #ffb6c7"
  />
  <path
    class="st4-pink-level-three"
    d="M501 881c0-66-62-119-138-119-13 0-26 2-39 5v2c0 87 51 166 131 201 28-21 46-53 46-89zM767 769v-2c-13-3-26-5-39-5-76 0-138 54-138 119 0 36 18 68 47 89 79-35 130-114 130-201z"
  />
  <circle class="st5-pink-level-three" cx="482.7" cy="752.5" r="18.3" />
  <circle class="st5-pink-level-three" cx="608.2" cy="752.5" r="18.3" />
  <path
    class="st0-pink-level-three"
    d="M296 1286c-47-25-99-38-152-40 77 89 179 152 294 179-33-59-83-108-142-139zM690 1426c116-27 220-90 298-180a355 355 0 0 0-298 180z"
  />
  <path
    class="st1-pink-level-three"
    d="M360 1367c-15 7-3 36-19 68-10 21-23 28-21 31 5 6 44-21 60-32 13-9 19-14 21-23 1-9-4-18-11-29-8-13-14-15-16-15-1-1-8-3-14 0z"
  />
  <ellipse
    class="st1-pink-level-three"
    cx="293.5"
    cy="1375.7"
    rx="88.1"
    ry="96.9"
  />
  <ellipse
    class="st0-pink-level-three"
    cx="272.9"
    cy="1375.7"
    rx="63"
    ry="82.1"
  />
  <path
    class="st1-pink-level-three"
    d="M787 1367c15 7 4 36 19 68 10 21 23 28 21 31-4 6-43-21-59-32-13-9-20-14-21-23-2-9 4-18 11-29 8-13 14-15 15-15 1-1 8-3 14 0z"
  />
  <ellipse
    class="st1-pink-level-three"
    cx="853.8"
    cy="1375.7"
    rx="88.1"
    ry="96.9"
  />
  <ellipse
    class="st0-pink-level-three"
    cx="874.4"
    cy="1375.7"
    rx="63"
    ry="82.1"
  />
  <path
    class="st0-pink-level-three"
    d="M583 740a95 95 0 0 0 22-13 93 93 0 0 0 23-27c1-2 2-5 1-8-1-2-2-5-5-6-5-3-11-1-14 4l-7 10 2-2-15 15 2-2-17 10 3-1h-1l-3 2-3 3c-1 3-2 5-1 8s3 5 5 6c2 2 5 2 8 1zM518 720h-1l3 1-17-10 2 1c-6-4-11-9-15-14l2 2-7-10c-3-5-10-7-14-4-5 3-7 9-4 14a91 91 0 0 0 45 40c2 1 6 0 8-1 5-3 7-9 4-14l-2-2-4-3z"
  />
  <path
    d="M549 759a15 15 0 1 0 14 15c0-8-6-15-14-15zm0 21c-4 0-7-2-7-6s3-6 7-6c3 0 6 2 6 6 0 3-3 6-6 6z"
    style="fill: #fd016f"
  />
  <path
    class="st7-pink-level-three"
    d="M341 1159c4 36 25 61 50 91 18 21 28 27 39 31 5 1 26 8 40-3s15-30 15-37c1-24-21-50-65-101-6-8-16-19-32-24-4-2-25-9-38 2-12 10-10 29-9 41z"
  />
  <path
    class="st0-pink-level-three"
    d="M343 1153c3 32 21 53 43 79 15 19 24 24 34 27 4 2 21 7 34-3 12-9 13-26 13-31 1-21-18-44-56-89-6-6-14-16-28-21-3-1-22-7-33 2-10 9-8 25-7 36z"
  />
  <path
    class="st7-pink-level-three"
    d="M809 1159c-3 36-24 61-50 91-17 21-27 27-39 31-5 1-25 8-40-3-14-11-14-30-14-37-1-24 21-50 64-101 7-8 16-19 32-24 4-2 26-9 39 2 11 10 10 29 8 41z"
  />
  <path
    class="st0-pink-level-three"
    d="M808 1153c-3 32-21 53-43 79-15 19-24 24-34 27-4 2-22 7-34-3-12-9-13-26-13-31-1-21 18-44 56-89 5-6 13-16 27-21 4-1 22-7 34 2 10 9 8 25 7 36z"
  />
  <path
    class="st2-pink-level-three"
    d="M532 802c-5 3 1 19 5 19 3 0 5-7 10-11l1-2-2-2c-8-4-12-6-14-4z"
  />
  <path
    d="M577 795c-8 0-15 5-19 11l-1 2a34 34 0 0 0-40-6c-3-5-8-8-14-8a3 3 0 0 0 0 6l5 1 4 5c2 3 1 8-1 11-2 1-2 3 0 4h4c3-4 4-8 4-13 6-3 12-5 19-3 7 1 13 4 17 10 0 5 1 10 4 14a3 3 0 1 0 5-3 15 15 0 0 1 13-25c4 0 4-6 0-6z"
  />
</svg>
