<svg
  xmlns="http://www.w3.org/2000/svg"
  xmlns:xlink="http://www.w3.org/1999/xlink"
  id="green_5"
  data-name="green_5"
  viewBox="0 0 1630.89 2315.65"
>
  <defs>
    <linearGradient
      id="gradient-default-green-5-789"
      x1="1572.63"
      x2="1712.31"
      y1="1259.92"
      y2="1259.92"
      gradientTransform="matrix(-1 0 0 1 1920.06 0)"
      gradientUnits="userSpaceOnUse"
    >
      <stop offset="0" stop-color="#00ad3c" />
      <stop offset="1" stop-color="#00e920" />
    </linearGradient>
    <linearGradient
      xlink:href="#gradient-default-green-5-789"
      id="gradient-default-green-5-789-2"
      x1="1578.64"
      x2="1743.35"
      y1="1327.66"
      y2="1327.66"
    />
    <linearGradient
      xlink:href="#gradient-default-green-5-789"
      id="gradient-default-green-5-789-3"
      x1="1574.03"
      x2="1730.62"
      y1="1396.35"
      y2="1396.35"
    />
    <linearGradient
      xlink:href="#gradient-default-green-5-789"
      id="gradient-default-green-5-789-4"
      x1="3742.48"
      x2="3882.15"
      y1="1259.92"
      y2="1259.92"
      gradientTransform="translate(-2398.05)"
    />
    <linearGradient
      xlink:href="#gradient-default-green-5-789"
      id="gradient-default-green-5-789-5"
      x1="3748.49"
      x2="3913.2"
      y1="1327.66"
      y2="1327.66"
      gradientTransform="translate(-2398.05)"
    />
    <linearGradient
      xlink:href="#gradient-default-green-5-789"
      id="gradient-default-green-5-789-6"
      x1="3743.88"
      x2="3900.47"
      y1="1396.35"
      y2="1396.35"
      gradientTransform="translate(-2398.05)"
    />
    <radialGradient
      id="gradient-default-green-5-795"
      cx="1089.42"
      cy="804.99"
      r="28.78"
      gradientUnits="userSpaceOnUse"
    >
      <stop offset="0" stop-color="#fd0300" stop-opacity=".6" />
      <stop offset="1" stop-color="#ff0006" stop-opacity="0" />
    </radialGradient>
    <radialGradient
      xlink:href="#gradient-default-green-5-795"
      id="gradient-default-green-5-795-2"
      cx="592.17"
      cy="804.99"
      r="28.78"
    />
    <style>
      .green-5-cls-1 {
        fill: #08fd50;
      }
      .green-5-cls-2 {
        fill: #00e920;
      }
      .green-5-cls-9 {
        fill: #f489b0;
      }
      .green-5-cls-10 {
        fill: #f35697;
      }
      .green-5-cls-12 {
        fill: #48bbff;
      }
      .green-5-cls-13 {
        fill: #00da2c;
      }
      .green-5-cls-15 {
        fill: #ff7bac;
      }
      .green-5-cls-16 {
        fill: #bc2c58;
      }
      .green-5-cls-17 {
        fill: #070707;
      }
      .green-5-cls-18 {
        fill: #fff;
      }
      .green-5-cls-23 {
        opacity: 0.46;
      }
      .green-5-cls-26 {
        fill: #e25890;
      }
    </style>
  </defs>
  <path
    d="M428.67 1335.73c-59.77-16.73-104.55-39.73-114.4-45.59-82-48.52-71.46-252.4-78-252-3.4.23 6.34 54.74-18 108.58-15.37 34-39.71 57.52-60.79 73.29 16.13 23.3 19.36 55 8.25 81s-36.18 45.68-64.15 50.19c28.11.79 54.85 19.89 64.71 46.23s2.23 58.31-18.47 77.36c48.58-18.72 99.25-39.75 151.57-63.4 46-20.78 89.57-41.92 130.77-63.09a6.8 6.8 0 0 0-1.29-12.59Z"
    class="green-5-cls-1"
  />
  <path
    d="M425.3 1336.67c-55.33-15.5-96.77-36.81-105.9-42.2-75.93-44.91-66.14-233.63-72.19-233.22-3.14.21 5.88 50.67-16.64 100.5-14.23 31.5-36.76 53.24-56.27 67.84a78.05 78.05 0 0 1-51.75 121.48c26 .72 50.77 18.41 59.9 42.79s2.06 54-17.09 71.6c45-17.33 91.86-36.79 140.29-58.68a2658.34 2658.34 0 0 0 121-58.4 6.29 6.29 0 0 0-1.19-11.66Z"
    class="green-5-cls-2"
  />
  <path
    d="M243.84 1198.82A145.1 145.1 0 0 0 347.43 1321a258.3 258.3 0 0 1-139.68-71.39c5.24-1.69 19-6.88 27.22-19.94 6.55-10.4 8.08-23.38 8.53-27.2.18-1.47.28-2.78.34-3.65Z"
    style="fill: url(#gradient-default-green-5-789)"
  />
  <path
    d="M341.41 1333.16c-8.15 3.54-38.25 15.42-74.87 4.72a111.82 111.82 0 0 1-59.34-42.49c3.16 22.79-9.77 46.9-30.5 56.89 19.84 3.23 58.55 8.65 96.9 7.48 11.15-.34 23.93-1.29 38.57-7.41a97 97 0 0 0 29.24-19.19Z"
    style="fill: url(#gradient-default-green-5-789-2)"
  />
  <path
    d="M346 1359c.39.8-26.81 15.38-145.48 74.67 1.08-1.24 10.43-12.45 7.17-27.78-3.31-15.62-16.85-22-18.27-22.67 31.2 4.57 73.89 6 120.06-9.67 19.73-6.65 36.24-15.14 36.52-14.55Z"
    style="fill: url(#gradient-default-green-5-789-3)"
  />
  <path
    d="M1263.19 1335.73c59.77-16.75 104.54-39.76 114.4-45.59 82-48.52 71.46-252.4 78-252 3.39.23-6.34 54.74 18 108.58 15.38 34 39.72 57.52 60.79 73.29-16.13 23.3-19.35 55-8.24 81s36.17 45.68 64.15 50.19c-28.11.79-54.85 19.89-64.71 46.23s-2.23 58.31 18.46 77.36a2896.523 2896.523 0 0 1-151.56-63.4c-46-20.78-89.57-41.92-130.77-63.09a6.8 6.8 0 0 1 1.29-12.59Z"
    class="green-5-cls-1"
  />
  <path
    d="M1266.56 1336.67c55.33-15.5 96.77-36.81 105.89-42.2 75.94-44.91 66.15-233.63 72.19-233.22 3.15.21-5.87 50.67 16.65 100.5 14.23 31.5 36.76 53.24 56.27 67.84a78.05 78.05 0 0 0 51.75 121.48c-26 .72-50.77 18.41-59.9 42.79s-2.06 54 17.09 71.6c-45-17.33-91.86-36.79-140.29-58.68a2658.34 2658.34 0 0 1-121-58.4 6.3 6.3 0 0 1 1.2-11.66Z"
    class="green-5-cls-2"
  />
  <path
    d="M1448 1198.82A145.13 145.13 0 0 1 1344.43 1321a258.3 258.3 0 0 0 139.68-71.39c-5.25-1.69-19-6.88-27.22-19.94-6.55-10.4-8.08-23.38-8.53-27.2-.18-1.47-.28-2.78-.36-3.65Z"
    style="fill: url(#gradient-default-green-5-789-4)"
  />
  <path
    d="M1350.44 1333.16c8.16 3.54 38.25 15.42 74.88 4.72a111.74 111.74 0 0 0 59.33-42.49c-3.15 22.79 9.78 46.9 30.5 56.89-19.83 3.23-58.54 8.65-96.89 7.48-11.15-.34-23.93-1.29-38.57-7.41a97.08 97.08 0 0 1-29.25-19.19Z"
    style="fill: url(#gradient-default-green-5-789-5)"
  />
  <path
    d="M1345.83 1359c-.38.8 26.82 15.38 145.48 74.67-1.07-1.24-10.42-12.45-7.16-27.78 3.31-15.62 16.85-22 18.27-22.67-31.2 4.57-73.89 6-120.06-9.67-19.71-6.65-36.22-15.14-36.53-14.55Z"
    style="fill: url(#gradient-default-green-5-789-6)"
  />
  <path
    d="M1305.43 1901.05a215.54 215.54 0 0 1 40.17-81.79 130.65 130.65 0 0 1-20.38-14.33 179.57 179.57 0 0 0-122.83 142.51 194.6 194.6 0 0 0 44.24 25.5 189.5 189.5 0 0 0 55.38 13 215.5 215.5 0 0 1 3.42-84.89Z"
    class="green-5-cls-9"
  />
  <path
    d="M1325.22 1804.93c-10.39-8.68-20.94-19.19-32-30.19-46-45.8-43.5-65.3-69.29-72.22-31.35-8.42-66.41 8-83.48 32.53s-19.1 55.13-14.73 83.64c7.51 49 34.64 96.57 76.65 128.75a179.57 179.57 0 0 1 122.83-142.51Zm49.35 21.94c-9.86.52-19.43-2.38-29-7.61a213 213 0 0 0-43.57 166.66c37.53 3.26 76.79-3.23 107.14-18.76a148.69 148.69 0 0 1-34.58-140.29Z"
    class="green-5-cls-10"
  />
  <path
    d="M1447.92 1935.51c24.59-33.66 26.71-89.68.67-107-5.69-3.8-15-7.26-24.56-8.7-21.24-3.2-32.59 5.26-46.85 6.88q-1.31.13-2.61.21a148.69 148.69 0 0 0 34.58 140.29c15.85-8.14 29.31-18.73 38.77-31.68Z"
    class="green-5-cls-9"
  />
  <path
    d="M1477.27 1888.37a83.44 83.44 0 0 1-82.67-72.24 84.37 84.37 0 0 0-.77 11.2 83.44 83.44 0 0 0 166.88 0 84.37 84.37 0 0 0-.77-11.2 83.44 83.44 0 0 1-82.67 72.24Z"
    style="fill: #d84c8c"
  />
  <ellipse
    cx="1477.27"
    cy="1816.13"
    class="green-5-cls-10"
    rx="82.67"
    ry="72.24"
  />
  <path
    d="M517 1024.23c-7.28-21.23-37.34-16.53-76.6-36.18-44.17-22.11-72.35-61.23-90.6-97.43 4.15 32.5-1.65 66.32-17.24 95.17-20.15 37.28-56.21 65.45-97 76.72a305.93 305.93 0 0 0 46.44 27.82c21.36 10.35 110.81 53.69 179.64 15.41 32.47-18.07 63.96-56.31 55.36-81.51Zm856.82-64.08a144.16 144.16 0 0 1-20.69-34.6 147.64 147.64 0 0 1-8.79-28.61c-34.23 33.68-72.75 23.86-113.14 64.95-31.92 32.48-56.33 87.91-48.6 187.2 80.56-17 139.64-46.57 176.54-68.65 0 0 39-23.36 88.44-72a146.22 146.22 0 0 1-73.76-48.29Z"
    class="green-5-cls-12"
  />
  <path
    d="M1105.77 1950.85V1549.3c0-17.93-16.22-32.47-36.24-32.47H902c-20 0-36.24 14.54-36.24 32.47V1971c73.31-37.38 161.48-44.58 240.01-20.15Z"
    class="green-5-cls-2"
  />
  <path
    d="M1289.23 1045.74c-1.89-2.82-3.79-5.64-5.72-8.43q-15.24-22.11-32.11-43.14c28.27-50.38 44.11-106.8 44.11-166.37 0-213.3-203-386.21-453.34-386.21S388.84 614.5 388.84 827.8c0 61.52 16.88 119.67 46.9 171.28q-11.37 14.5-22 29.52l-1.76 2.49q-8.92 12.73-17.3 25.77c288.58 73.14 609.17 69.26 894.55-11.12Zm-1014.8 326.97c-10.71 83.67-29.72 349.65 136.56 478.15 82.74 63.93 199.37 63.66 432.63 63.1 216-.51 324-.77 404.3-57.61 148.45-105 179.74-319.88 165.63-471.94q-1.29-13.77-3-26.8c-352.11 131.76-778.46 137.25-1136.12 15.1Z"
    class="green-5-cls-1"
  />
  <path
    d="M1289.23 1045.74c-285.38 80.38-606 84.3-894.52 11.12C333.42 1152 294.13 1257.59 278 1348.38c-.34 1.9-1 5.61-1.76 10.91-.55 3.71-1.19 8.22-1.85 13.42 357.66 122.15 784 116.66 1136.08-15.1-.42-3.11-.85-6.19-1.31-9.23-14.63-97.85-55.71-206.74-119.93-302.64Z"
    class="green-5-cls-12"
  />
  <path
    d="M332.53 985.79c15.59-28.85 21.39-62.67 17.24-95.17-13-25.89-21-50.29-26.12-65.92-19.34-59.17-3.44-64.34-17-145.46C303.6 661 299.51 636.55 293 610c-32.43 41.55-82.79 64.47-118.62 64.27a122.11 122.11 0 0 1-16.13-1.27c-5.15-.79-45.89-7.66-70.77-39.25-22.14-28.13-20-61.26-19.08-81.17C70.59 503 93 453.38 131 422.5c-17.34-1.63-36.21.35-51.73 11.15-31.73 22.09-34.41 70.58-33 112.62 3.37 98.51 13.3 388.54 189.22 516.24 40.83-11.27 76.89-39.44 97.04-76.72Zm797.7 1056.68c-14.63-4.49-24.46-16.84-24.46-30.7v-60.92c-78.53-24.43-166.7-17.23-240 20.1v151.71a30.44 30.44 0 0 1-2.26 11.29 105.75 105.75 0 0 0-7.7 39.45c0 78.56 88.31 142.25 197.25 142.25s197.24-63.69 197.24-142.25c-.03-58.8-49.5-109.26-120.07-130.93Z"
    class="green-5-cls-1"
  />
  <path
    d="M68.4 552.55c-.88 19.91-3.06 53 19.08 81.17 24.88 31.59 65.62 38.46 70.77 39.25a122.11 122.11 0 0 0 16.12 1.29c35.83.2 86.19-22.72 118.62-64.27-15.86-64.67-46.11-141.93-110.9-173.22-2.73-1.32-25.18-11.83-51.06-14.27C93 453.38 70.59 503 68.4 552.55Z"
    class="green-5-cls-13"
  />
  <ellipse
    cx="842.17"
    cy="822.42"
    class="green-5-cls-13"
    rx="300.96"
    ry="247.83"
  />
  <ellipse
    cx="842.17"
    cy="834.78"
    rx="283.95"
    ry="233.83"
    style="fill: #04b564"
  />
  <path
    d="M1187.33 2098.2c7.35 31.12-40.58 63.16-77.45 74.08-39.37 11.66-83.31 2.47-111.56-17.62-10.69-7.6-20.62-19.55-16.19-31.11 3.18-8.31 12.62-13.11 21.31-17.16 38-17.71 56.3-27.81 68.8-32 30.58-10.4 45.87-15.59 58.39-14.25 23.58 2.49 51.79 17.3 56.7 38.06Z"
    class="green-5-cls-2"
  />
  <path
    d="M467.32 202.94c-25.94-2.94-45.44 15-65.59 33.44-12.88 11.78-36.55 36.59-53.71 79-20.45 50.44-5.24 60.62-24.38 91.62-7.62 12.34-32.29 29.64-81.31 63.74-40.63 28.26-49.71 33-74.28 52-22.55 17.39-38 31.23-55.43 46.86C59.66 617.12 26.37 651 8.32 692.74c-5.93 13.74-10.45 28.93-7.27 43.55s16.32 28 31.23 26.71c16.64-1.38 27.88-23 35.56-37.29 28-52 58.54-87 102-136.88 19.29-22.13 46.17-52.49 89.78-80.3 28.5-18.17 55.09-29.47 79.55-39.86 65.55-27.86 66.68-17.82 93-34.16 65.5-40.69 81-116.9 85.55-139.07 7.09-34.76 1.56-50.57-3.64-60-8.83-15.9-26.17-30.17-46.76-32.5Z"
    class="green-5-cls-15"
  />
  <path
    d="M473.56 233a24.73 24.73 0 0 0-9.61-9.11c-1.3-.6-7.58-3.3-18.67 0s-18.42 10.09-26 17.93a300.82 300.82 0 0 0-27.64 32.92c-17.9 25.64-26.85 38.46-31.94 56-3.83 13.25-8.28 28.63-2 45.78 1.08 3 10 26.29 28.06 29.44 5.37.93 17.88 1.19 41.42-23.79 55.12-58.49 55.95-133.56 46.38-149.17Z"
    class="green-5-cls-16"
  />
  <path
    d="M823.93 735.08a18.81 18.81 0 0 0-29.8-15.44c-1.56 1.11-.06 3.71 1.52 2.59a16.38 16.38 0 0 1 18.94 0 15.92 15.92 0 0 1 5.72 8.5 11.27 11.27 0 1 0 3.62 4.37Zm58.83 0a18.81 18.81 0 0 1 29.81-15.44c1.56 1.11.06 3.71-1.52 2.59a16.4 16.4 0 0 0-18.95 0 15.92 15.92 0 0 0-5.72 8.5 11.27 11.27 0 1 1-3.62 4.37Zm161.78 69.05c-15.1-4.74-31.93-9.38-50.3-13.49a10.23 10.23 0 0 1 1.64 1.87c4.2 6.29-.16 15.71-.83 16.9-8.11 14.26-26.39 21.85-42.21 17.53-2.82-.77-13.08-3.69-18.7-13.94-3.94-7.16-5.81-18.28-.64-25.51 2.57-3.58 6.54-5.28 12.32-5.66q-3.62-.51-7.29-1c-8.62-1.11-29.48-3.58-58.88-4.42a10.83 10.83 0 0 1 4.72 3.06c5 5.69 1.85 15.59 1.33 16.86-6.21 15.18-23.37 25-39.61 22.78-2.89-.4-13.44-2-20.34-11.43-4.81-6.6-8.09-17.39-3.89-25.22 1.64-3.05 4.29-5.05 8.09-6.32a625.15 625.15 0 0 0-82.95 4.71c-2.22.28-4.41.58-6.6.88a8.72 8.72 0 0 1 1.35.85c6.05 4.53 5.06 14.86 4.82 16.21-2.92 16.14-17.65 29.36-34 30.53-2.91.21-13.56.86-22.27-7-6.08-5.45-11.54-15.33-9.05-23.86a12.5 12.5 0 0 1 4.8-6.67c-16.34 3.81-31.41 8-45.06 12.29-13.47 4.23-22 20.06-19.67 36.42v.36c8 54.53 34.85 108.87 73.9 147.85-1-16.84 13.34-30.64 18.33-35.43 13.9-13.35 30.18-16.92 37.85-18.05 1.29 4 2.36 8 3.25 12a67.79 67.79 0 0 1 28.91-12.82c33-5.93 56.47 17.49 58.45 19.54 17.52-22.93 52.83-29.86 77.71-15.25a53.88 53.88 0 0 1 10.28 7.84q1.28-5.68 3.07-11.26c7.67 1.13 24 4.7 37.85 18.05 5.1 4.9 20 19.2 18.24 36.55 39.66-39.06 66.94-93.91 75-149v-.36c2.44-16.33-6.16-32.16-19.62-36.39Zm-108.85 224.2 1.79-.88c-.13-.3-.27-.6-.39-.91-.46.61-.92 1.2-1.4 1.79Z"
    class="green-5-cls-17"
  />
  <path
    d="M681.28 798.51c-2.49 8.53 3 18.41 9.05 23.86 8.71 7.81 19.36 7.16 22.27 7 16.36-1.17 31.09-14.39 34-30.53.24-1.35 1.23-11.68-4.82-16.21a8.72 8.72 0 0 0-1.35-.85c-19.4 2.71-37.56 6.2-54.36 10.11a12.5 12.5 0 0 0-4.79 6.62Zm140.58-16.03c-4.2 7.83-.92 18.62 3.89 25.22 6.9 9.45 17.45 11 20.34 11.43 16.24 2.26 33.4-7.6 39.61-22.78.52-1.27 3.64-11.17-1.33-16.86a10.83 10.83 0 0 0-4.72-3.06c-11.13-.31-23.48-.4-36.87-.08q-6.59-.15-12.83-.19c-3.8 1.27-6.45 3.27-8.09 6.32Z"
    class="green-5-cls-18"
  />
  <path
    d="M935.69 1028.33c.48-.59.94-1.18 1.4-1.79a132.91 132.91 0 0 1-7.11-80 53.88 53.88 0 0 0-10.18-7.75c-24.88-14.61-60.19-7.68-77.71 15.25-2-2-25.44-25.47-58.45-19.54a67.79 67.79 0 0 0-28.91 12.82 133 133 0 0 1-7.49 79.69 173.94 173.94 0 0 0 29.21 11.76 20.9 20.9 0 0 1 .94-2.67c7.06-14.81 24.74-23.69 40.84-20.53 2.86.56 13.3 2.74 19.66 12.56a30.42 30.42 0 0 1 4.85 17.12c.65 0 1.3 0 1.94.08 1.13.09 2.27.17 3.41.24a30.2 30.2 0 0 1 4.85-17.44c6.35-9.82 16.79-12 19.66-12.56 16.09-3.16 33.77 5.72 40.83 20.53.09.19.26.61.46 1.17l.22-.07a175.77 175.77 0 0 0 21.58-8.87Z"
    style="fill: #fd0300"
  />
  <path
    d="M837.89 1028.13c-6.36-9.82-16.8-12-19.66-12.56-16.1-3.16-33.78 5.72-40.84 20.53a20.9 20.9 0 0 0-.94 2.67c.53.16 1 .33 1.58.48a171 171 0 0 0 51 6.68c4-.07 8-.28 11.89-.6.62 0 1.24-.08 1.86-.08a30.42 30.42 0 0 0-4.89-17.12Zm34.71-12.56c-2.87.56-13.31 2.74-19.66 12.56a30.2 30.2 0 0 0-4.85 17.44q6.82.45 13.86.38a170.16 170.16 0 0 0 51.94-8.68c-.2-.56-.37-1-.46-1.17-7.06-14.81-24.74-23.69-40.83-20.53Zm60.9-228.08c-5.17 7.23-3.3 18.35.64 25.51 5.62 10.25 15.88 13.17 18.7 13.94 15.82 4.32 34.1-3.27 42.21-17.53.67-1.19 5-10.61.83-16.9a10.23 10.23 0 0 0-1.64-1.87c-15.12-3.38-31.28-6.4-48.42-8.81-5.82.38-9.75 2.08-12.32 5.66Zm-191.62 236.69c1.4.77 2.79 1.5 4.18 2.23-7.23-9.88-16.84-27.86-11.51-49.1 3.19-12.7 10.77-22.74 20.18-30-.89-4.06-2-8.08-3.25-12-7.67 1.13-24 4.7-37.85 18.05-5 4.79-19.34 18.59-18.33 35.43a210.2 210.2 0 0 0 46.58 35.39Zm4.18 2.23.92 1.22c.08-.21.17-.41.26-.62Z"
    class="green-5-cls-18"
  />
  <path
    d="M734.55 977.31c-5.33 21.24 4.28 39.22 11.51 49.1l1.18.6a133 133 0 0 0 7.49-79.69c-9.41 7.25-16.99 17.29-20.18 29.99Zm236.35-23.98c-13.9-13.33-30.18-16.92-37.85-18.05q-1.8 5.57-3.07 11.26c17.53 16.88 24.17 45 14.41 67.53a60.83 60.83 0 0 1-7.3 12.47c.12.31.26.61.39.91q3.09-1.56 6.2-3.27a209.39 209.39 0 0 0 45.46-34.3c1.75-17.35-13.14-31.65-18.24-36.55Z"
    class="green-5-cls-18"
  />
  <path
    d="M937.09 1026.54a60.83 60.83 0 0 0 7.3-12.47c9.76-22.53 3.12-50.65-14.41-67.53a132.91 132.91 0 0 0 7.11 80Z"
    class="green-5-cls-18"
  />
  <circle
    cx="1089.42"
    cy="804.99"
    r="28.78"
    style="fill: url(#gradient-default-green-5-795)"
  />
  <circle
    cx="592.17"
    cy="804.99"
    r="28.78"
    style="fill: url(#gradient-default-green-5-795-2)"
  />
  <path
    d="M140.92 616.24c-5.15-.79-45.9-7.66-70.77-39.26-22.14-28.12-20-61.25-19.08-81.16 2.61-59.07 34-118.38 86.39-145.71s124.86-15.69 159.54 32.2c49.13 67.86-12.25 158.42-16.57 164.55-32.08 45.6-85.75 70.88-123.39 70.67a122.11 122.11 0 0 1-16.12-1.29Z"
    class="green-5-cls-1"
  />
  <path
    d="M819.31 1987.27a56.16 56.16 0 0 0 13.84-21.71 55.53 55.53 0 0 0 3-16.75L851 1811.1c8.38-78.12-49.31-148.36-128.86-156.9-79.55-8.54-150.84 47.87-159.22 126q-4.59 67.59-9.17 135.19a69.58 69.58 0 0 0 7.31 29.7 67.51 67.51 0 0 0 8 12.25c-17.09 9.76-62.26 38.58-71.11 86.54-14.31 77.48 74 162.15 164 171.83 89.44 9.61 191.62-53.75 196.7-133.12 2.64-42.98-23.87-78.14-39.34-95.32Z"
    class="green-5-cls-2"
  />
  <path
    d="M821 1982.88c.63-3.2 1.14-6.44 1.49-9.74l13.67-127.31a131.5 131.5 0 0 0-116.72-144.78 131.49 131.49 0 0 0-144.78 116.72L561 1945.07c0 .52-.09 1-.13 1.54-43.91 25.29-74.27 66.36-79.2 115.14-9 88.62 69.37 169.11 175 179.79S855.07 2189 864 2100.42c4.45-43.6-12.28-85.22-43-117.54Z"
    class="green-5-cls-1"
  />
  <path
    d="M555.71 2079c17.41 58.14 101.94 68.15 105.46 68.52 57.67 6.05 125.9-22.38 138.94-67.83 4.83-16.83 3.58-41.15-9.81-51.49-10.84-8.38-23.24-2.63-53.53.78-10.07 1.13-49.3 5.55-85.41-1.6-46.72-9.26-57.87-31.87-76-23.7-20.26 9.07-28.09 47.06-19.65 75.32Zm874.14-1264.9a213.6 213.6 0 0 0-18.1-159.19c-6-11-13.31-22.42-12.29-34.92.69-8.45 7.7-16.48 15.32-18.53-9.75-3.3-19.42-3.21-27.3.58-16.31 7.83-19.8 29-20.72 34.53-4.49 27.17 9.59 49.41 15.47 60.9 29.45 57.58 4.88 142.76-25.26 184.63a114.59 114.59 0 0 1-12.63 14.84 147.64 147.64 0 0 0 8.79 28.61c36.65-27.55 64.2-67.27 76.72-111.45Z"
    class="green-5-cls-2"
  />
  <path
    d="m1445.09 626.16 1.64-1.63a1.21 1.21 0 0 0 .31-.49 1.22 1.22 0 0 0 .13-.57 1.27 1.27 0 0 0-.13-.58 1.11 1.11 0 0 0-.31-.48 1.47 1.47 0 0 0-1.06-.44 1.5 1.5 0 0 0-1.06.44L1443 624a1.24 1.24 0 0 0-.31.48 1.36 1.36 0 0 0 0 1.16 1.17 1.17 0 0 0 .31.48 1.52 1.52 0 0 0 1.06.44 1.54 1.54 0 0 0 1.06-.44Z"
    class="green-5-cls-1"
  />
  <path
    d="M1442 620.56a111.67 111.67 0 0 1-6.62-11.55q.5 3 1.19 5.88a71.49 71.49 0 0 1 5.43 5.67Z"
    style="fill: none"
  />
  <path
    d="M1464.47 520c19.34-17.94 46.29-26.21 72.06-23.56-29.5-9.67-70.35-12.09-94.83 15.91-20.72 23.71-23.48 62.3-6.35 96.64-5.46-32.1 5.56-67.12 29.12-88.99Z"
    class="green-5-cls-2"
  />
  <path
    d="M1626.14 605.83c-8.45-40.59-31.82-79.23-67.77-99.86a119.07 119.07 0 0 0-21.84-9.51c-25.77-2.65-52.72 5.62-72.06 23.56-23.56 21.85-34.58 56.87-29.12 89a111.67 111.67 0 0 0 6.62 11.55 71.49 71.49 0 0 0-5.43-5.67 60.34 60.34 0 0 0-21.76-13.43c-7.62 2-14.63 10.08-15.32 18.53-1 12.5 6.25 23.94 12.29 34.92a213.6 213.6 0 0 1 18.1 159.19c-12.52 44.18-40.07 83.85-76.72 111.45a144.16 144.16 0 0 0 20.69 34.6 146.22 146.22 0 0 0 73.76 48.33c58.18-57.22 130.74-149.43 170.89-279.7 10.09-32.79 17.8-74.37 7.67-122.96Z"
    class="green-5-cls-1"
  />
  <g class="green-5-cls-23">
    <path
      d="M503.75 1064.81c-98.55 20.31-154.56 258.35-116.39 443.19 20 96.75 54.59 115.87 69.86 125.87 41.25 27 108.6 16.19 124.56-30.47 14.92-43.61-19.1-86.71-41-127.26-38.37-71-41-160.27-6.87-233.43 11.64-25 29.48-40.35 39.24-79.11 4.66-18.54 15.49-61.57-6.34-84.65-16.93-17.95-47.38-17.37-63.06-14.14Z"
      class="green-5-cls-18"
    />
  </g>
  <g class="green-5-cls-23">
    <path
      d="M1053.17 519.94c-14.82-8.73-22.23-13.09-31.41-12.28-10.62.94-24.61 7.82-27.54 20.37-2.66 11.36 4.08 23.25 13.45 30.22s20.95 10.09 32.19 13.26 22.78 6.74 31.65 14.33c7.27 6.22 13.44 15.41 23 16.15 8.35.65 16-6.35 17.94-14.51 2.29-9.67-2.24-18-5.82-23.67-4.23-6.73-8.65-10.07-18.09-17.31-29.85-22.88-29.54-23.13-35.37-26.56Z"
      class="green-5-cls-18"
    />
  </g>
  <g class="green-5-cls-23">
    <path
      d="M1158.91 642c-6.21 8-19.34 8.06-26.88 1.12-7.26-6.67-8.78-19.28-1.53-26.39s19.3-5.19 25.89 1.48c5.96 6.02 8.03 16.66 2.52 23.79Z"
      class="green-5-cls-18"
    />
  </g>
  <g class="green-5-cls-23">
    <path
      d="M703.63 437.57c-8 6.47-20.2 3.65-26.15-4.15-5.8-7.58-5.59-19.79 2.48-25.94 7.91-6 19.42-3.19 25.29 4 6.07 7.43 6.25 19.7-1.62 26.09Z"
      class="green-5-cls-18"
    />
  </g>
  <g class="green-5-cls-23">
    <path
      d="M180 379.43a64.35 64.35 0 0 0-17.07 5.91c-8.91 4.57-18.42 10.17-22.08 20.76-3.4 9.86.22 22.39 9.59 27 11.88 5.81 26-2.57 39.1-1.05 25.62 3 36.1 40.31 61.69 43.52 15.42 1.94 31.12-16.15 33.91-32.47 3.6-21.1-15.14-37.71-23.49-45.1 0 0-31.95-28.35-81.65-18.57Z"
      class="green-5-cls-18"
    />
  </g>
  <g class="green-5-cls-23">
    <path
      d="M108 772.76c-4.31 13.45 17 104.86 68.57 149 15 12.8 21.42 12.23 24.32 10.63 4.72-2.61 6.84-8.5 6.51-13.89s-2.65-10.43-4.94-15.32c-16.82-36-33.66-72.05-53.71-106.36-1.3-2.23-6.85-13.94-19-22.43-2.35-1.64-13.37-9.35-19-5.65a7.33 7.33 0 0 0-2.75 4.02Z"
      class="green-5-cls-18"
    />
  </g>
  <g class="green-5-cls-23">
    <path
      d="M223 987.44a26.7 26.7 0 0 0 10.45 5.41c2.34.68 17.27 5.4 22.8-2.33 4.25-5.94 2.55-14.22-.36-20.91-1.23-2.85-8.13-20.36-22.55-20-8.22.21-16.85 6.16-19.25 15-3.35 12.33 7.56 21.71 8.91 22.83Z"
      class="green-5-cls-18"
    />
  </g>
  <g class="green-5-cls-23">
    <path
      d="M658.68 1753.9c-26 3.45-40.5 31.78-43.36 37.37 0 0-17 30.85-3.11 67.73 2.71 7.2 6.61 14.28 12.89 18.71s15.38 5.53 21.56 1c6.73-5 7.91-14.58 7.18-22.93s-2.73-16.94-.24-24.94c6-19.31 29.42-18.56 36.15-39.19 3.58-10.94 1-25.3-7.77-32.68-8.35-7.05-19.67-5.55-23.3-5.07Z"
      class="green-5-cls-18"
    />
  </g>
  <g class="green-5-cls-23">
    <path
      d="M616.09 1918.36c-6.18 11.65 1.92 24.87 3.32 27.16 1 1.68 10.11 16.6 18.76 13.86s11-13.62 11.3-22.63c.18-5.93 1.59-13.61-3.49-20.28-.51-.68-7.61-9.69-17.42-8-7.93 1.35-11.83 8.69-12.47 9.89Z"
      class="green-5-cls-18"
    />
  </g>
  <g class="green-5-cls-23">
    <path
      d="M885.89 2197.23c2 19.28 16.6 40.87 38.7 51.57 15.22 7.38 48.28 16.67 62.54-1.32 11-13.86 8.92-34.94-1-49.58s-26.11-23.84-42.55-30.38c-12.17-4.84-20.88-8.55-31.81-5.86-1.62.4-17.81 4.66-23.91 19.29-.98 2.28-2.86 7.66-1.97 16.28Z"
      class="green-5-cls-18"
    />
  </g>
  <g class="green-5-cls-23">
    <path
      d="M1002.07 2243.16c3.95-9.63 16-18.55 27.32-15.45 12.36 3.4 15.93 19 15.81 27.84-.16 13-8.44 27.81-18.36 28.72-13.54 1.23-32.06-23.34-24.77-41.11Z"
      class="green-5-cls-18"
    />
  </g>
  <g class="green-5-cls-23">
    <path
      d="M1460.66 1802.91c-3.73 2.25-17.14 10.33-24.45 4.63-6.63-5.16-5.45-19.44 1.54-27.75 4.26-5 12.45-10 21.3-7.62 7.5 2 14.69 9.15 14.13 16.67-.51 6.84-7.18 10.88-12.52 14.07Z"
      class="green-5-cls-18"
    />
  </g>
  <g class="green-5-cls-23">
    <path
      d="M1486.23 559.22c-9.34 28.14 59.07 50.64 57.31 100.77-.48 13.91-3 21.67-14.18 72.67-2.23 10.18-3.48 22.08 3.43 29.89 7.66 8.64 22.3 7.52 31.47.5s14-18.21 17.91-29.09a307.82 307.82 0 0 0 16.13-71.46c3.1-30.1 3-49-6.1-71.49-6.12-15.14-18-44.63-47.33-51.72-22.57-5.47-53 2.95-58.64 19.93Z"
      class="green-5-cls-18"
    />
  </g>
  <g class="green-5-cls-23">
    <path
      d="M1531.74 843.33c-4.66 6.79-15 16.35-21.8 13.95-8.19-2.86-12.63-23.2-3.56-35.21 7.45-9.89 23.56-13.5 29.18-7.83 5.12 5.16 1.27 17.72.58 20a33 33 0 0 1-4.4 9.09Z"
      class="green-5-cls-18"
    />
  </g>
  <g class="green-5-cls-23">
    <path
      d="M1170.53 1013.87c-10.83 29.19-10.11 36.8-9.48 40.73.9 5.64.85 10.24 21.55 38.15l28.85 38.88c6.77 9.13 16.31 19.35 27.37 16.72 10.71-2.55 15-16.43 11.93-27s-10.94-18.94-17.25-28a106.56 106.56 0 0 1-15.28-87.63c2.36-8.7 7.18-15.78 8.49-29.64.34-3.62 2.36-25.05-6.57-29.08a9 9 0 0 0-6.05-.26c-3.91.97-21.17 6.75-43.56 67.13Z"
      class="green-5-cls-18"
    />
  </g>
  <g class="green-5-cls-23">
    <path
      d="M1257 1194.5c4.63 8.06 14.5 10.39 22 8.9s15.59-7.34 17-16.66a20.42 20.42 0 0 0-13.63-22c-9.83-3.34-19.62 1.9-24.24 9.12-.32.48-6.76 10.91-1.13 20.64Z"
      class="green-5-cls-18"
    />
  </g>
  <g class="green-5-cls-23">
    <path
      d="M491.4 225c8.17 1.52 11.74 32.46 9.7 59.88-5.42 72.84-49.63 110.54-62.1 117.05-1.27.66-4.5 2.35-5.45 1.36-2.45-2.54 14-18.94 25.44-36.28 31.9-48.22 33.09-115.17 27.07-129.25-.57-1.35-3.5-7.55-.92-10.78 1.63-2.07 4.95-2.23 6.26-1.98Z"
      class="green-5-cls-18"
    />
  </g>
  <g class="green-5-cls-23">
    <path
      d="M91.83 639.63c-1.35 1.73-40.27 51.45-46.32 76.15-1.32 5.37-.27 6.28.08 6.5 2.15 1.41 4.71-1 6.14-3.13l13.53-20.22c9.37-14 12.8-16.57 37.49-56 1.68-2.68 5.46-8.81 3.79-10.57-1.47-1.56-6.58.94-7.33 1.31a21.7 21.7 0 0 0-7.38 5.96Z"
      class="green-5-cls-18"
    />
  </g>
  <path
    d="m1049.16 2216.59 27.6-27.85a13.68 13.68 0 0 0-6.24-22.86l-37.91-10a13.68 13.68 0 0 0-16.68 16.83l10.31 37.83a13.69 13.69 0 0 0 22.92 6.05Zm113.57-26.21v-39.21a13.68 13.68 0 0 0-20.52-11.85l-34 19.61a13.68 13.68 0 0 0 0 23.69l34 19.61a13.68 13.68 0 0 0 20.52-11.85Zm61.69-92.2-32-22.6a13.68 13.68 0 0 0-21.51 9.93l-3.56 39a13.69 13.69 0 0 0 19.37 13.66l35.59-16.44a13.68 13.68 0 0 0 2.11-23.55Zm-662.94 35.7 37.87-10.15a13.68 13.68 0 0 0 6.14-22.89l-27.73-27.72a13.68 13.68 0 0 0-22.89 6.13l-10.14 37.87a13.68 13.68 0 0 0 16.75 16.76Zm109.1 42.24 22.67-32a13.68 13.68 0 0 0-9.9-21.53l-39-3.64a13.69 13.69 0 0 0-13.7 19.34l16.35 35.63a13.68 13.68 0 0 0 23.58 2.2Zm113.18-26.07 1.51-39.17a13.68 13.68 0 0 0-20-12.63l-34.69 18.28a13.68 13.68 0 0 0-.91 23.68l33.17 20.89a13.68 13.68 0 0 0 20.92-11.05Z"
    class="green-5-cls-16"
  />
  <ellipse
    cx="808.57"
    cy="376.15"
    rx="189.56"
    ry="154.5"
    style="fill: #92dce9"
  />
  <ellipse
    cx="808.57"
    cy="361.97"
    rx="189.56"
    ry="154.5"
    style="fill: #baf1ff"
  />
  <path
    d="M677.86 240.27A70.18 70.18 0 0 0 654 259.93c-5.72 7.46-11.67 16.26-11.16 28.14.44 10.33 7.12 20.7 17.09 23.43 10.43 2.84 21.09-2.76 30.61-7.9s20.76-10.07 30.77-6c12.06 4.94 16.6 20.82 28.52 26.09 9.49 4.21 20.53.32 29.73-4.48s18.54-10.7 28.92-10.57c12.57.16 23.07 9 32.89 16.88s21.82 15.53 34.09 12.79c8.84-2 15.73-9 24.29-11.94 12.26-4.21 25.57.52 37.85 4.7s26.32 7.7 37.7 1.48 16.21-21.06 13.71-33.84-10.91-23.67-20.49-32.5c-26.4-24.33-62.5-36-98.27-39.14-52.37-4.57-46.45 10.28-107.32 6.35-26.37-1.68-58.31-6.63-85.07 6.85Z"
    class="green-5-cls-15"
  />
  <ellipse
    cx="808.57"
    cy="188.58"
    class="green-5-cls-26"
    rx="123.12"
    ry="100.35"
  />
  <ellipse
    cx="808.57"
    cy="177.76"
    class="green-5-cls-15"
    rx="123.12"
    ry="100.35"
  />
  <path
    d="M697.71 298.44 687.88 354c-1.23 6.92 9.37 9.89 10.6 2.92l9.84-55.57c1.22-6.93-9.38-9.9-10.61-2.93Zm24.76 133.78 28.4 21c5.69 4.21 11.19-5.34 5.55-9.5l-28.4-21c-5.7-4.21-11.19 5.33-5.55 9.5Zm141.74-93.15-3 45.79c-.45 7.07 10.55 7 11 0l3-45.79c.46-7.06-10.54-7-11 0Zm67.73 85.59 36-29.42c5.48-4.49-2.34-12.23-7.78-7.78l-36 29.42c-5.48 4.49 2.34 12.23 7.78 7.78Z"
    class="green-5-cls-15"
  />
  <path
    d="m763.81 392.29 42.56-22.77c6.24-3.34.69-12.84-5.55-9.5l-42.57 22.77c-6.24 3.34-.69 12.84 5.56 9.5ZM843 463.16l-12.86-16.52c-1.82-2.35-5.86-1.92-7.77 0-2.32 2.32-1.83 5.43 0 7.78l12.85 16.52c1.82 2.35 5.86 1.92 7.78 0 2.31-2.32 1.83-5.43 0-7.78Zm67-173.4 42 26.88c6 3.83 11.51-5.69 5.56-9.49l-42-26.89c-6-3.83-11.51 5.69-5.56 9.5Zm-167.7-98.54 13.08-8.71a5.64 5.64 0 0 0 2-7.53c-1.43-2.45-5-3.63-7.52-2l-13.08 8.72a5.61 5.61 0 0 0-2 7.52c1.43 2.45 5 3.63 7.52 2Zm51.81-45.88 17.35 26.21c3.89 5.87 13.42.37 9.5-5.55l-17.35-26.21c-3.89-5.88-13.43-.38-9.5 5.55Zm-6.67 84.2 34.89 2c7.07.41 7-10.59 0-11l-34.89-2c-7.07-.4-7 10.6 0 11Zm107.35-31.29-17.3-45.82c-2.48-6.56-13.12-3.72-10.61 2.92l17.3 45.83c2.48 6.56 13.12 3.71 10.61-2.93Z"
    class="green-5-cls-12"
  />
  <circle cx="807.53" cy="155.67" r="51" class="green-5-cls-18" />
  <circle cx="807.53" cy="164.52" r="21.96" class="green-5-cls-17" />
  <path
    d="M809.23 84.55c-28.09 0-51.3-18.4-55-42.28a44.59 44.59 0 0 0-.53 6.77c0 27.08 24.88 49 55.57 49s55.58-22 55.58-49a43.34 43.34 0 0 0-.54-6.77c-3.78 23.88-26.99 42.28-55.08 42.28Z"
    class="green-5-cls-26"
  />
  <ellipse
    cx="809.23"
    cy="42.27"
    class="green-5-cls-15"
    rx="55.04"
    ry="42.27"
  />
  <g class="green-5-cls-23">
    <path
      d="M679.05 280.27c-21.27 19.47-26.18 42.42-26.18 42.42-.9 4.22-6.93 34.28 8.72 53.4 2.09 2.56 7 8.43 15.42 10.78 2.47.69 11.08 3 15.93-1.18 7.06-6 4.46-17.61-.45-25.48s-11.76-15.5-11.67-24.78c.09-9.81 7.88-17.55 14.5-24.79 10.46-11.43 11.92-20 9.44-26.26-2.2-5.54-8.93-9.57-15-9.32-4.9.21-8.47 3.17-10.71 5.21Z"
      class="green-5-cls-18"
    />
  </g>
  <circle cx="816.21" cy="161.08" r="5.42" class="green-5-cls-18" />
  <circle cx="813.66" cy="173.2" r="2.55" class="green-5-cls-18" />
</svg>
