<svg
  xmlns="http://www.w3.org/2000/svg"
  xmlns:xlink="http://www.w3.org/1999/xlink"
  id="lemon-mouse-level-four"
  data-name="lemon-mouse-level-four"
  viewBox="0 0 1433.46 1645.56"
>
  <defs>
    <radialGradient
      id="lemon-mouse-level-four-gradient-409"
      cx="324.43"
      cy="678.95"
      r="372.21"
      gradientUnits="userSpaceOnUse"
    >
      <stop offset="0" stop-color="#ff000b" />
      <stop offset="1" stop-color="#ffbe00" />
    </radialGradient>
    <radialGradient
      xlink:href="#lemon-mouse-level-four-gradient-409"
      id="lemon-mouse-level-four-gradient-409-2"
      cx="-1714.83"
      cy="667.24"
      r="372.21"
      gradientTransform="matrix(-1 0 0 1 -605.81 0)"
    />
    <radialGradient
      xlink:href="#lemon-mouse-level-four-gradient-409"
      id="lemon-mouse-level-four-gradient-409-3"
      cx="1896.95"
      cy="1081.84"
      r="107.86"
      gradientTransform="rotate(-17.94 1765.054 6653.924)"
    />
    <radialGradient
      id="lemon-mouse-level-four-gradient-310"
      cx="935.56"
      cy="560.86"
      r="142.74"
      gradientUnits="userSpaceOnUse"
    >
      <stop offset="0" stop-color="#ff000b" />
      <stop offset="1" stop-color="#fc1b00" stop-opacity="0" />
    </radialGradient>
    <radialGradient
      xlink:href="#lemon-mouse-level-four-gradient-310"
      id="lemon-mouse-level-four-gradient-310-2"
      cx="483.68"
      cy="589.55"
      r="146.63"
    />
    <radialGradient
      id="lemon-mouse-level-four-gradient-393"
      cx="689.23"
      cy="555.52"
      r="59.34"
      gradientUnits="userSpaceOnUse"
    >
      <stop offset=".25" stop-color="red" />
      <stop offset="1" stop-color="#fc1b00" stop-opacity="0" />
    </radialGradient>
    <style>
      .cls-lemon-mouse-level-four-3 {
        fill: #f08f00;
      }
      .cls-lemon-mouse-level-four-4 {
        fill: #ffbe00;
      }
      .cls-lemon-mouse-level-four-5 {
        fill: #f78b3a;
      }
      .cls-lemon-mouse-level-four-6 {
        fill: #766255;
      }
      .cls-lemon-mouse-level-four-7 {
        fill: #8f7c5a;
      }
      .cls-lemon-mouse-level-four-8 {
        fill: #fc1b00;
      }
      .cls-lemon-mouse-level-four-9 {
        fill: #fc4401;
      }
      .cls-lemon-mouse-level-four-10 {
        fill: #fa6d40;
      }
      .cls-lemon-mouse-level-four-11 {
        fill: #f2ecd6;
      }
      .cls-lemon-mouse-level-four-14 {
        opacity: 0.2;
      }
      .cls-lemon-mouse-level-four-15 {
        fill: #333;
      }
      .cls-lemon-mouse-level-four-16 {
        fill: #fff;
      }
    </style>
  </defs>
  <path
    d="M43.24 894.37c19.22-25.47 38.92-40.08 78.32-69.28a814.46 814.46 0 0 1 70.28-46.67 225.5 225.5 0 0 1 132.62-66.11 119.07 119.07 0 0 0-83.76 73.07c1.06 3.11 2.66 7.77 4.67 13.41 12.31 34.63 16.85 41.74 19.76 45.74 4.66 6.43 8.92 10.09 17.45 17.4 13.39 11.48 36.29 31.12 68.87 39.14 18.95 4.67 23.91 3.31 36.77 9 11.56 5.12 21.95 15.55 22.22 28.15a60.82 60.82 0 0 1-25.5 32.42c-.38-1.94-4.68-22-22.09-28.68-8.82-3.37-16.76-1.66-20.23-.86-20.95 4.82-30.61 25.35-32.12 28.69-9.77-5.28-19.42-2.3-21.41 2.18-1.87 4.25 1.94 12.55 11 16.75l-5.09 6.53-5.2-5.45c2.05 2.15-9.3 43.39-9.91 49.21a268.64 268.64 0 0 0-.38 52.13c3.17 35.73 16.49 67.86 28.49 101.33A619.59 619.59 0 0 1 219.76 1022a64.18 64.18 0 0 1-27.89-6.07 63.36 63.36 0 0 1-17.15-11.9l-8.74 7.7c-.58-7.16-8.61-12.72-15.54-10.75s-10.82 10.92-7.51 17.31c-42.35 25.23-69 74.62-66.75 123.75a1096.5 1096.5 0 0 0-13-192.3c5.35 5.8 17.09 1.77 17.73-6.08s-10.3-13.71-16.52-8.84c3.9-2.34 8-4.82 10.33-8.69s2.44-9.56-1.1-12.41c-5-4-12.2 0-17 4.15C43 929.49 32.19 939.6 23 953.86 6.36 979.81 1.17 991.25.22 990.84c-1.89-.84 8.25-50.39 43.02-96.47Z"
    style="fill: url(#lemon-mouse-level-four-gradient-409)"
  />
  <path
    d="M1390.22 882.66c-19.22-25.48-38.92-40.08-78.33-69.29a816.44 816.44 0 0 0-70.27-46.66A225.5 225.5 0 0 0 1109 700.6a119.07 119.07 0 0 1 83.76 73.07c-1.06 3.11-2.66 7.77-4.67 13.41-12.31 34.63-16.86 41.73-19.76 45.74-4.66 6.43-8.92 10.08-17.45 17.4-13.39 11.48-36.29 31.11-68.87 39.14-19 4.67-23.92 3.31-36.77 9-11.56 5.11-22 15.54-22.22 28.15a60.85 60.85 0 0 0 25.5 32.42c.38-1.94 4.68-22 22.08-28.69 8.83-3.37 16.76-1.65 20.24-.85 21 4.82 30.6 25.34 32.12 28.69 9.77-5.29 19.42-2.31 21.4 2.18 1.88 4.25-1.93 12.55-11 16.74l5.18 6.53 5.21-5.44c-2 2.14 9.3 43.39 9.91 49.21a269.34 269.34 0 0 1 .38 52.12c-3.22 35.74-16.52 67.84-28.52 101.33a619.35 619.35 0 0 0 88.22-170.48 63.47 63.47 0 0 0 45-18l8.74 7.7c.57-7.16 8.61-12.72 15.54-10.75s10.81 10.92 7.51 17.3c42.34 25.24 69 74.63 66.75 123.76a1097.33 1097.33 0 0 1 13-192.3c-5.35 5.79-17.09 1.77-17.72-6.09s10.3-13.7 16.51-8.84c-3.9-2.33-8-4.82-10.32-8.69s-2.44-9.55 1.1-12.4c5-4 12.2 0 17 4.15 13.59 11.63 24.4 21.74 33.56 36 16.67 26 21.86 37.39 22.81 37 1.91-.81-8.22-50.38-43-96.45Z"
    style="fill: url(#lemon-mouse-level-four-gradient-409-2)"
  />
  <path
    d="M582.42 1437.91c-4.64 12.21-19.39 51-59.49 66.29-43.33 16.47-83.94-6.65-85.69-8.14-28.7-24.55-37.08-73.08-73.47-83.18-17.25-4.79-35.62 4.11-61.41 15.51-30.73 13.6-35.76 24.95-52.76 23.62-19.12-1.5-39.36-18-45.07-40.42-5.17-20.28 3.68-37 5.94-41-3.07 24.19 4.59 45.69 20.34 55.36a40.84 40.84 0 0 0 23.38 5.6c22.59-1.32 31-20.36 59.21-40.36 20.86-14.77 32.94-23.33 48-23.27 35.87.13 40.82 49.17 89.43 65.72 27.52 9.36 61.91 6.35 85.46-10.2 37.55-26.39 35-78.37 44.1-77.4 8.55.96 18.61 48.11 2.03 91.87Z"
    class="cls-lemon-mouse-level-four-3"
  />
  <path
    d="M582.42 1419.9c-4.64 12.22-19.39 51-59.49 66.3-43.33 16.47-83.94-6.66-85.69-8.15-28.7-24.54-37.08-73.08-73.47-83.18-17.25-4.79-35.62 4.11-61.41 15.52-30.73 13.61-35.76 24.94-52.76 23.61-19.12-1.5-39.36-18-45.07-40.41-5.17-20.29 3.68-37 5.94-41-3.07 24.19 4.59 45.69 20.34 55.37a41 41 0 0 0 23.38 5.6c22.59-1.33 31-20.37 59.21-40.36 20.86-14.78 32.94-23.34 48-23.28 35.87.13 40.82 49.18 89.43 65.72 27.52 9.37 61.91 6.36 85.46-10.2 37.55-26.39 35-78.37 44.1-77.39 8.55.95 18.61 48.09 2.03 91.85Z"
    class="cls-lemon-mouse-level-four-4"
  />
  <path
    d="M434.2 1292.22c40.46 14.41 85 11.6 127.31 4.17s84-19.28 126.78-22.52c68.81-5.22 137.05 12 205.31 22.08 58.08 8.59 119.75 11.48 174.42-7.73 3.46-34.91 4.56-73.38 5.85-119.39 2.82-99.84 4.1-178.64-39.76-260.29-13.84-25.76-30-56.65-63.22-82s-55.07-23.84-223.95-29.24c-7.51-.24-15.14-.49-22.85-.7h-.18c-7.71.21-15.34.46-22.85.7-168.89 5.4-190.84 3.94-223.95 29.22s-49.39 56.26-63.23 82C370 990.19 371.31 1069 374.12 1168.83c.88 31.1 1.66 58.75 3.14 84.19 14.79 17.7 35.13 31.44 56.94 39.2Z"
    class="cls-lemon-mouse-level-four-5"
  />
  <path
    d="M628.82 1568.73c6.62 21.73-9 44.84-22.58 56.79-34.17 30.15-83.27 18.33-97.86 14.66-5.77-1.45-18-5-28.88-15.15-8.17-7.58-16.66-19.82-13.31-25.34 1.05-1.72 2.33-1.15 6.91-4.59s5.75-6 9-8.6a68.25 68.25 0 0 1 13.44-8.07c24.11-11.18 38.12-13.85 65.92-22.62 30.21-9.54 37.71-14 48.24-9.7 13.59 5.51 18.3 19.95 19.12 22.62Z"
    class="cls-lemon-mouse-level-four-6"
  />
  <path
    d="M628.82 1548.22c6.62 21.73-9 44.84-22.58 56.79-29.25 25.81-70.65 19.08-97.86 14.66-14.48-2.35-37.77-6.38-42.19-20-2.77-8.52.83-18.11 6.91-25.1a64.44 64.44 0 0 1 22.46-16.67c24.11-11.18 38.12-13.85 65.92-22.62 30.21-9.54 37.71-14 48.24-9.7 13.57 5.53 18.28 19.97 19.1 22.64Z"
    class="cls-lemon-mouse-level-four-7"
  />
  <path
    d="M835.56 1568.73c-6.62 21.73 9 44.84 22.59 56.79 34.16 30.15 83.26 18.33 97.86 14.66 5.76-1.45 18-5 28.88-15.15 8.16-7.58 16.65-19.82 13.3-25.34-1-1.72-2.33-1.15-6.91-4.59s-5.75-6-9-8.6a67.67 67.67 0 0 0-13.44-8.07c-24.11-11.18-38.11-13.85-65.91-22.62-30.21-9.54-37.71-14-48.24-9.7-13.59 5.51-18.31 19.95-19.13 22.62Z"
    class="cls-lemon-mouse-level-four-6"
  />
  <path
    d="M835.56 1548.22c-6.62 21.73 9 44.84 22.59 56.79 29.24 25.81 70.65 19.08 97.86 14.66 14.48-2.35 37.77-6.38 42.18-20 2.77-8.52-.83-18.11-6.91-25.1a64.35 64.35 0 0 0-22.46-16.67c-24.11-11.18-38.11-13.85-65.91-22.62-30.21-9.54-37.71-14-48.24-9.7-13.57 5.53-18.29 19.97-19.11 22.64Z"
    class="cls-lemon-mouse-level-four-7"
  />
  <path
    d="M905.53 1538.55c-29.21-2.76-36.37-23.71-95.21-50.7-32.78-15-56.26-25.8-87.54-26.18-32.38-.4-58.15 11.51-109.69 35.32-54.66 25.25-61.75 36.43-85.47 37-24.88.62-47.37-10.91-66.58-26.62 24.54 35.37 57.24 67.62 99.37 74.5 63.16 10.33 83.43-46.82 163.5-43.89h.18c80.07-2.93 100.33 54.22 163.5 43.89 51.78-8.46 89.32-55.24 115-99.05-43.36 49.81-75.59 57.76-97.06 55.73Z"
    class="cls-lemon-mouse-level-four-8"
  />
  <path
    d="M1068 1288.22c-54.67 19.21-116.34 16.32-174.42 7.73-68.26-10.11-136.5-27.3-205.31-22.08-42.83 3.24-84.47 15.1-126.78 22.52s-86.85 10.24-127.31-4.17c-21.81-7.76-42.15-21.5-56.94-39.2 3.82 65.53 12.31 116.35 39.15 173.34 9.88 21 24.52 52 44.63 81 19.21 15.71 41.7 27.24 66.58 26.62 23.72-.59 30.81-11.77 85.47-37 51.54-23.81 77.31-35.72 109.69-35.32 31.28.38 54.76 11.14 87.54 26.18 58.84 27 66 47.94 95.21 50.7 21.5 2 53.7-5.92 97-55.71 12.32-21 21.9-41.38 29-56.48 21.92-46.35 31.6-88.67 36.49-138.13Z"
    class="cls-lemon-mouse-level-four-9"
  />
  <path
    d="M452.05 813.07c-53.26-7.89-171 168.19-120.66 297.9 4.58 11.8 25.18 63.39 77 86 49 21.37 107.63 4 150.47-28 22.36-16.69 42.52-38.36 49.92-65.26s-1.14-59.49-25.16-73.68c-25.61-15.14-64.55-8.94-80.18-34.26-9.81-15.89 4.21-25 4.09-69.56-.05-20.81-.74-63.29-29.19-94-9.03-9.78-16.34-17.66-26.29-19.14Z"
    class="cls-lemon-mouse-level-four-10"
  />
  <path
    d="M406.63 845.08c-47.2-7-151.55 149.07-106.94 264 4.06 10.46 22.32 56.19 68.22 76.19 43.45 18.93 95.4 3.57 133.37-24.79 19.82-14.8 37.69-34 44.25-57.85s-1-52.73-22.3-65.31c-22.71-13.41-57.22-7.92-71.07-30.36-8.7-14.08 3.73-22.14 3.63-61.65-.05-18.44-.66-56.1-25.88-83.35-7.98-8.59-14.43-15.57-23.28-16.88Z"
    class="cls-lemon-mouse-level-four-5"
  />
  <path
    d="M458.34 812.88c-9.77.75-19.48 8.86-21.53 18-2.8 12.48 11.3 24.61 15.17 29.57 41.72 53.32 121.15 185.37 368.41 371.81 0 0 62.8 47.35 108.19 36.4 4-1 15.24-3.68 24-13.49 6.71-7.57 14.25-21.92 9.87-33.86-4.9-13.37-20.82-13-50.08-28.92-6.7-3.64-11.15-6.52-35.26-24-111.84-81-294.43-213.17-342.56-282.13-3.74-5.36-14.4-17.52-35.73-41.85-20.72-23.6-29.37-32.41-40.48-31.53Z"
    class="cls-lemon-mouse-level-four-7"
  />
  <path
    d="M474.31 804.3c-9.77.75-19.48 8.86-21.52 18-2.79 12.44 11.29 24.57 15.21 29.52 41.71 53.33 121.15 185.37 368.4 371.81 0 0 62.8 47.36 108.19 36.4 4.05-1 15.24-3.68 24-13.49 6.72-7.56 14.26-21.91 9.88-33.86-4.9-13.37-20.82-13-50.08-28.91-6.71-3.64-11.15-6.53-35.27-24-111.83-81-294.42-213.16-342.55-282.13-3.74-5.36-14.41-17.52-35.74-41.85-20.75-23.56-29.4-32.35-40.52-31.49Z"
    class="cls-lemon-mouse-level-four-11"
  />
  <path
    d="M1088 1134.58c-46 9.16-80.87 20.34-132 38-75.67 26.19-80.18 29.7-84.94 36.34-29.41 41-14.37 125.77 31 170.59 44 43.46 103 35.93 167.93 27.62 51.13-6.53 92.49-11.82 122.39-50 39.51-50.5 27.06-117.62 25.31-126.32-1.87-9.34-17.32-81.77-66.17-100.5-6.74-2.62-16.52-5.08-63.52 4.27Z"
    class="cls-lemon-mouse-level-four-7"
  />
  <path
    d="M1101.25 1153.32c-36.62 7.29-64.36 16.19-105 30.27-60.23 20.84-63.81 23.63-67.59 28.91-23.41 32.64-11.45 100.09 24.69 135.76 35 34.59 81.94 28.59 133.63 22 40.69-5.2 73.6-9.4 97.4-39.82 31.44-40.19 21.53-93.6 20.14-100.53-1.49-7.43-13.78-65.07-52.66-80-5.44-2.07-13.23-4.03-50.61 3.41Z"
    class="cls-lemon-mouse-level-four-11"
  />
  <path
    d="M869.7 1214.92c9.72 6.46 34.79-6.67 57.56.8 24.29 8 21 23.17 46.83 41.61 22.43 16 51.24 21.32 78.74 19.3s54.05-10.8 79.76-20.78c23.76-9.24 49.32-21.75 58.68-45.47 7.83-19.84 1.56-43.48-12.46-59.55-15.8-18.09-40-27.3-63.89-29.3s-47.92 2.54-71.29 8.09c-37.35 8.89-43.49 12.9-70.41 22.57-22.41 8-22.21 6.82-49.76 16.26 0 0-53.13 18.19-58 33.25a12.94 12.94 0 0 0-.1 8.25 12.08 12.08 0 0 0 4.34 4.97Z"
    class="cls-lemon-mouse-level-four-3"
  />
  <path
    d="M872 1201.16c21-5.15 43.06-4 57.56.79 24.29 8 21 23.18 46.82 41.61 22.44 16 51.24 21.32 78.75 19.31s54.05-10.8 79.75-20.79c23.77-9.23 49.33-21.75 58.69-45.47 7.83-19.84 1.56-43.48-12.46-59.54-15.8-18.1-39.95-27.31-63.89-29.3s-47.92 2.53-71.29 8.09c-53.27 12.67-43.06 15.44-120.17 38.82-16.36 5-39.23 11.59-53.09 32.45a63.52 63.52 0 0 0-7.62 16c1.42-.48 3.86-1.22 6.95-1.97Z"
    class="cls-lemon-mouse-level-four-4"
  />
  <path
    d="M1094.13 1278c-8.62 2.35-12.15 3.08-15.81 1.22-8.42-4.27-11.73-19.3-6.67-24.64 2.64-2.79 6.19-1.49 13.83-1.61 21.45-.35 33.87-11.28 51.11-12.26 3.84-.22 4.46.25 12.24 0 5.21-.17 7-.45 8.56.81 2.76 2.21 2.9 7.53 1.63 11.06-2.17 6-8.62 7.23-26.27 13.22-10.36 3.5-20.28 7.2-38.62 12.2Z"
    class="cls-lemon-mouse-level-four-7"
  />
  <path
    d="M1094.13 1270.81c-5 1.7-10.41 3.6-15.81 1.22-4.6-2-8.77-7-8.57-11.89.3-7.56 8.57-11.9 15.73-14.36a276.14 276.14 0 0 1 51.11-12.26c4.07-.58 8.27-1.06 12.24 0 3.63 1 8.46 4.34 8.56 8s-4.73 6.56-12 10.27c-19.16 9.86-25 10.1-51.26 19.02Z"
    class="cls-lemon-mouse-level-four-11"
  />
  <path
    d="M944.51 1059.69c.52.79 1.61 2.45 3.18 4.71 41.31 59.28 101.26 76.25 141.18 86.89 31.44 8.38 53.41 13.91 67.51 1.67 12.53-10.88 13.26-31 13.67-42.23.94-26-8.17-45.88-11.94-53.86-39.14-83-60.57-128.41-113.32-174-38.52-33.27-55-33.12-62-32.3-37.19 4.29-56.86 54.91-60 63-26.87 69.05 17.21 139.15 21.72 146.12Z"
    class="cls-lemon-mouse-level-four-10"
  />
  <path
    d="M974.16 1047.84c.53.7 1.65 2.18 3.25 4.18 42.19 52.55 99 64.54 136.86 71.92 29.79 5.81 50.58 9.56 62.92-2.72 11-10.92 10.38-29.66 10-40.17-.77-24.23-10.51-42.16-14.51-49.35-41.63-74.7-64.44-115.65-116.41-154.7-37.95-28.52-53.23-27.34-59.76-26.13-34.33 6.34-49.43 54.69-51.86 62.46-20.58 65.88 24.86 128.32 29.51 134.51Z"
    class="cls-lemon-mouse-level-four-5"
  />
  <path
    d="M644.32 1008.48a7.91 7.91 0 0 0-7.09-2.48q-.13.62-.33 1.23a47.09 47.09 0 0 1 6.34 2.58Z"
    style="fill: none"
  />
  <path
    d="M606 1004.68c7.73-7.8 13-12.14 20.36-12.43 8.43-.33 19.53 4.69 20.27 12.54.94 10.1-10.25 16.89-20.14 19.19 7.49-5 15.45-10.16 24.43-10.64s19 5.73 19.16 14.72c.13 6.45-4.8 12.13-10.63 14.89s-12.46 3.16-18.9 3.53c6.61-6.47 19.56-3.67 22.9 4.94s-4.31 19.43-13.55 19.12c5.34-3.9 13.76.39 15.38 6.79s-2.09 13.21-7.36 17.19-11.85 5.74-18.24 7.41c-30.82 8.07-47.43 5.87-57.38-2.73-18.48-16-10.71-48.32-10.06-50.88 3.27-12.92 13.43-23.16 33.76-43.64ZM1139.25 1143.93c-8.76 8.75-13.14 13.24-13.34 19.44-.16 5 3.72 11.55 13.77 22.55l21.83 23.91c4.48 4.91 9.18 10 16.08 11.35a12.25 12.25 0 0 0 4.75 0c10.35-2 10.7-13.32 6-20a25.27 25.27 0 0 0-6.11-5.92 1 1 0 0 1 1-1.77 43.09 43.09 0 0 1 18 16.36 41.64 41.64 0 0 1 3.77 8.15c1.6 4.77 8.49 4.42 9.37-.53v-.28c3.32-19 .77-38.43-1.79-57.53-2.14-16-8.41-31.7-21.54-37-6.06-2.44-11.66-1.64-16.5-.94-15.28 2.28-24.91 11.85-35.29 22.21Z"
    class="cls-lemon-mouse-level-four-9"
  />
  <path
    d="m188.08 1323.52 55.52 39.37a8.84 8.84 0 0 1 .22 14.28 444.92 444.92 0 0 1-37.2 25.3 444.099 444.099 0 0 1-34.78 19.12 8.85 8.85 0 0 1-12.63-9.52q7.53-41.46 15-82.92a8.84 8.84 0 0 1 13.87-5.63Z"
    style="fill: url(#lemon-mouse-level-four-gradient-409-3)"
  />
  <path
    d="M979.91 812c-10.5-8.27-37.22 4.18-55.22 12.33-110.58 50-141.92 50.75-208.35 99q-2.62 1.9-5.11 3.76-3.16-2.4-6.57-4.86c-66.43-48.27-97.77-49-208.35-99-18-8.15-44.72-20.6-55.22-12.33-9 7.07-2.07 26.16-.21 31.28C449 864.46 467 878 473.84 883c0 0 102.72 74.94 185.38 115.1.71.35 7.9 3.82 17.93 7.72 12.72 4.94 20.9 8.12 27.14 9.23a23.66 23.66 0 0 0 5.59 1.42c7.14.88 16.08-2.6 34-9.55 10-3.9 17.22-7.37 17.93-7.72 82.66-40.15 185.38-115.1 185.38-115.1 6.82-5 24.89-18.5 33-40.73 1.81-5.17 8.72-24.26-.28-31.37Z"
    class="cls-lemon-mouse-level-four-14"
  />
  <path
    d="M894.49 125.7C917.78 93.2 951.94 50.94 993 18.17c12-9.56 27-19.54 45.19-18 16.6 1.39 30.78 13.66 38.59 28.37s10.24 31.62 11.7 48.21a495.82 495.82 0 0 1-34.27 228.79c-3.75 9.24-9.08 24.66-21.89 28.79-20 6.43-44.28-18.38-55.41-29.73-47.08-48.04-70.54-120.6-82.42-178.9Z"
    class="cls-lemon-mouse-level-four-7"
  />
  <path
    d="M1036.19 38c-38 2.72-68.69 130.76-46.59 208.92 2.88 10.17 9.17 32.31 22.14 33.85 12.23 1.46 21.94-9.8 28.37-20.31 38.21-62.49 37-131.4 31.5-187.38-.6-6.1-2-17.55-10.58-25.78a35.45 35.45 0 0 0-24.84-9.3Z"
    class="cls-lemon-mouse-level-four-14"
  />
  <path
    d="M543.57 125.7c-23.28-32.5-57.45-74.76-98.51-107.53-12-9.56-27-19.54-45.19-18-16.6 1.39-30.78 13.66-38.59 28.37s-10.28 31.61-11.7 48.2a495.82 495.82 0 0 0 34.27 228.79c3.75 9.24 9.08 24.66 21.89 28.79 20 6.43 44.28-18.38 55.41-29.73 47.08-48.03 70.54-120.59 82.42-178.89Z"
    class="cls-lemon-mouse-level-four-7"
  />
  <path
    d="M401.87 38c38 2.72 68.69 130.76 46.59 208.92-2.88 10.17-9.17 32.31-22.14 33.85-12.23 1.46-21.94-9.8-28.37-20.31-38.21-62.49-37-131.4-31.5-187.38.6-6.1 2-17.55 10.58-25.78a35.45 35.45 0 0 1 24.84-9.3Z"
    class="cls-lemon-mouse-level-four-14"
  />
  <path
    d="M961.12 302.5c-31.17-94.68-93.34-189-189.45-215.42-8.84-36.38-45.1-62.2-81.91-64.19-36.39 1.83-66.23 24.08-70 54.68a7 7 0 0 1-4.55 5.67C563.09 102.8 526.4 131.73 511 143.7c-107.94 83.75-131 200.23-145 270.88-17.51 88.32-51.27 258.6 66.43 394.69 4.7 5.44 79.92 89.57 198 122.27.74.2 4.64 2.15 9.93 4.69 44.37 21.32 49.56 28.17 61.87 32.61 22 7.95 61.3-9.35 139.37-44.07C982.82 755.6 1030.11 512 961.12 302.5Z"
    class="cls-lemon-mouse-level-four-9"
  />
  <path
    d="M951.25 172.86c-29-28.34-86.16-84.22-173.72-102.77a7.08 7.08 0 0 1-4.91-3.76c-10.74-21.94-35.42-39-65.84-42.82a99.75 99.75 0 0 0-17-.62c36.81 2 73.07 27.81 81.91 64.19C867.78 113.48 930 207.82 961.12 302.5c69 209.52 21.7 453.1-119.6 622.27l2.4-1.07c10.3-4.58 15.63-7 21-9.54 37.08-17.83 117.53-65.29 168.35-149.32 48.52-80.22 49.84-155.82 50.91-217.16 1.01-57.41 4.21-240.74-132.93-374.82Z"
    class="cls-lemon-mouse-level-four-8"
  />
  <ellipse
    cx="585.53"
    cy="437.38"
    class="cls-lemon-mouse-level-four-15"
    rx="40.46"
    ry="28.86"
    transform="rotate(-65.17 585.546 437.382)"
  />
  <ellipse
    cx="819.09"
    cy="427.07"
    class="cls-lemon-mouse-level-four-15"
    rx="28.86"
    ry="40.46"
    transform="rotate(-24.83 819.027 427.057)"
  />
  <path
    d="M770 650.39a92.87 92.87 0 0 0 6.37 11c5.93 8.8 9.16 13.6 13.41 13.58 5 0 8.84-6.62 13-13.62a59.36 59.36 0 0 0 5.12-11.24Z"
    class="cls-lemon-mouse-level-four-16"
  />
  <path
    d="M1042.16 650.68c-48.9 57.19-143 73.92-203.68 21.32-61-52.9-58.61-150.31-5.33-207.15 54.8-58.46 154.29-64.23 209.44-6 50.14 52.99 44.77 138.98-.43 191.83Z"
    style="fill: url(#lemon-mouse-level-four-gradient-310)"
  />
  <path
    d="M593.19 681.82C543 740.57 446.26 757.76 384 703.72c-62.65-54.35-60.2-154.41-5.47-212.8 56.29-60.05 158.5-66 215.15-6.14 51.46 54.41 45.94 142.75-.49 197.04Z"
    style="fill: url(#lemon-mouse-level-four-gradient-310-2)"
  />
  <ellipse
    cx="590.26"
    cy="435.09"
    rx="38.35"
    ry="27.35"
    transform="rotate(-65.17 590.28 435.096)"
  />
  <ellipse
    cx="813.59"
    cy="423.97"
    rx="27.35"
    ry="38.35"
    transform="rotate(-24.83 813.522 423.94)"
  />
  <circle
    cx="597.77"
    cy="410.93"
    r="7.05"
    class="cls-lemon-mouse-level-four-16"
  />
  <circle
    cx="806.79"
    cy="400.47"
    r="7.05"
    class="cls-lemon-mouse-level-four-16"
  />
  <path
    d="m729.78 652.29 69.62-2.13 20-.61c3-.09 6-2.61 5.83-5.82a5.92 5.92 0 0 0-5.83-5.83l-69.64 2.1-20 .61c-3 .09-6 2.61-5.83 5.82a5.92 5.92 0 0 0 5.83 5.83Z"
  />
  <path
    d="M725.4 580.32c-14 4.79-30.29-1.14-39.47-10.92-9.43-10.06-11.58-24.43-5-36.44 6.35-11.64 20.77-19.42 35.33-19.07 3 .08 12.84.59 20.61 7.27 8 6.88 8.72 16 9.07 20.52.14 2.17 1.87 30.99-20.54 38.64Z"
    style="fill: url(#lemon-mouse-level-four-gradient-393)"
  />
  <path
    d="M685.35 452.46c-11.81 20.84-23.6 42.33-26 66.57-1.1 11.09-.09 22.75 4 33.19a56.47 56.47 0 0 0 19.62 25.66 46 46 0 0 0 33.44 8.48c3-.41 4.94-4.44 4.06-7.16-1.07-3.33-3.91-4.52-7.16-4.07 1.2-.17-.14 0-.6 0s-1.11.08-1.66.1h-3.33c-.55 0-1.1-.08-1.65-.14l-.7-.09c1.29.16.42.06.15 0-1.09-.21-2.17-.41-3.25-.69s-2.13-.59-3.18-.95c-.52-.18-1-.38-1.56-.58l-.66-.26c.75.3.38.16-.14-.08a45.54 45.54 0 0 1-5.89-3.24c-.88-.57-1.72-1.2-2.57-1.8 1 .71-.3-.24-.54-.44q-.75-.62-1.47-1.26a49.54 49.54 0 0 1-4.75-4.86c-.37-.43-.72-.88-1.08-1.31.7.85-.17-.25-.4-.57-.66-.91-1.29-1.85-1.89-2.81a48.3 48.3 0 0 1-3.42-6.63c.36.86-.13-.36-.23-.64-.23-.59-.45-1.19-.65-1.8a53.43 53.43 0 0 1-1.2-3.91 64.28 64.28 0 0 1-1.52-7.5c.15 1.06-.06-.59-.09-.9-.06-.55-.11-1.1-.16-1.65-.11-1.37-.18-2.74-.21-4.12a76.85 76.85 0 0 1 .19-7.74c.1-1.3.23-2.58.38-3.87.12-1.13-.09.46.08-.66.11-.73.22-1.46.35-2.19q.64-3.82 1.61-7.59a121.9 121.9 0 0 1 5.34-15.88l.34-.82c-.3.72.11-.26.22-.52.31-.72.63-1.45 1-2.17.6-1.35 1.23-2.7 1.86-4q2.05-4.29 4.28-8.5c2.95-5.62 6.08-11.15 9.21-16.67 1.5-2.66.72-6.49-2.09-8a5.92 5.92 0 0 0-8 2.09Z"
  />
</svg>
