<svg
  id="orange-5"
  data-name="orange-5"
  xmlns="http://www.w3.org/2000/svg"
  xmlns:xlink="http://www.w3.org/1999/xlink"
  viewBox="0 0 2724.63 1568.8"
>
  <defs>
    <style>
      .orange-5-cls-1 {
        fill: #fc4401;
      }
      .orange-5-cls-2 {
        fill: #cd2a12;
      }
      .orange-5-cls-3 {
        opacity: 0.1;
      }
      .orange-5-cls-34,
      .orange-5-cls-4 {
        fill: #fff;
      }
      .orange-5-cls-5 {
        fill: #8f7c5a;
      }
      .orange-5-cls-6 {
        fill: url(#orange-5-gradient-723);
      }
      .orange-5-cls-39,
      .orange-5-cls-7 {
        opacity: 0.6;
      }
      .orange-5-cls-8 {
        fill: url(#orange-5-gradient-743);
      }
      .orange-5-cls-9 {
        fill: url(#orange-5-gradient-409);
      }
      .orange-5-cls-10 {
        opacity: 0.2;
      }
      .orange-5-cls-11,
      .orange-5-cls-34 {
        opacity: 0.5;
      }
      .orange-5-cls-12 {
        fill: url(#orange-5-gradient-478);
      }
      .orange-5-cls-13 {
        fill: url(#orange-5-gradient-409-2);
      }
      .orange-5-cls-14,
      .orange-5-cls-39 {
        fill: #ffbe00;
      }
      .orange-5-cls-15 {
        fill: url(#orange-5-gradient-409-3);
      }
      .orange-5-cls-16 {
        fill: url(#orange-5-gradient-409-4);
      }
      .orange-5-cls-17 {
        fill: url(#orange-5-gradient-409-5);
      }
      .orange-5-cls-18 {
        fill: url(#orange-5-gradient-409-6);
      }
      .orange-5-cls-19 {
        fill: url(#orange-5-gradient-409-7);
      }
      .orange-5-cls-20 {
        fill: url(#orange-5-gradient-409-8);
      }
      .orange-5-cls-21 {
        fill: #f08f00;
      }
      .orange-5-cls-22 {
        opacity: 0.3;
      }
      .orange-5-cls-23 {
        opacity: 0.15;
      }
      .orange-5-cls-24 {
        fill: url(#orange-5-gradient-723-2);
      }
      .orange-5-cls-25 {
        fill: url(#orange-5-gradient-743-2);
      }
      .orange-5-cls-26 {
        fill: url(#orange-5-gradient-409-9);
      }
      .orange-5-cls-27 {
        fill: url(#orange-5-gradient-478-2);
      }
      .orange-5-cls-28 {
        fill: #fc1b00;
      }
      .orange-5-cls-29 {
        fill: url(#orange-5-gradient-310);
      }
      .orange-5-cls-30 {
        fill: url(#orange-5-gradient-310-2);
      }
      .orange-5-cls-31 {
        fill: url(#orange-5-gradient-454);
      }
      .orange-5-cls-32 {
        fill: #333;
      }
      .orange-5-cls-33 {
        fill: #00f800;
      }
      .orange-5-cls-35 {
        fill: #766255;
      }
      .orange-5-cls-36 {
        fill: #f2ecd6;
      }
      .orange-5-cls-37 {
        fill: #cab095;
      }
      .orange-5-cls-38 {
        fill: url(#orange-5-gradient-471);
      }
      .orange-5-cls-40 {
        fill: #ffc500;
      }
      .orange-5-cls-41 {
        fill: #ffd500;
      }
      .orange-5-cls-42 {
        fill: url(#orange-5-gradient-10);
      }
      .orange-5-cls-43 {
        fill: url(#orange-5-gradient-10-2);
      }
      .orange-5-cls-44 {
        fill: red;
      }
      .orange-5-cls-45 {
        fill: url(#orange-5-gradient-477);
      }
    </style>
    <radialGradient
      id="orange-5-gradient-723"
      cx="-2585.52"
      cy="58.09"
      r="961.47"
      gradientTransform="matrix(-1, 0, 0, 1, -698.94, 0)"
      gradientUnits="userSpaceOnUse"
    >
      <stop offset="0.45" stop-color="#ff000b" />
      <stop offset="1" stop-color="#4575ff" />
    </radialGradient>
    <radialGradient
      id="orange-5-gradient-743"
      cx="-2686.81"
      cy="306.03"
      r="593.29"
      gradientTransform="matrix(-1, 0, 0, 1, -698.94, 0)"
      gradientUnits="userSpaceOnUse"
    >
      <stop offset="0" stop-color="#ff000b" />
      <stop offset="1" stop-color="#67c1ff" />
    </radialGradient>
    <radialGradient
      id="orange-5-gradient-409"
      cx="-3211.32"
      cy="707"
      r="2.03"
      gradientTransform="matrix(-1, 0, 0, 1, -698.94, 0)"
      gradientUnits="userSpaceOnUse"
    >
      <stop offset="0" stop-color="#ff000b" />
      <stop offset="1" stop-color="#ffbe00" />
    </radialGradient>
    <radialGradient
      id="orange-5-gradient-478"
      cx="-3226.45"
      cy="1213.08"
      r="29.44"
      gradientTransform="matrix(-1, 0, 0, 1, -698.94, 0)"
      gradientUnits="userSpaceOnUse"
    >
      <stop offset="0.45" stop-color="#ff000b" />
      <stop offset="1" stop-color="#ffbe00" />
    </radialGradient>
    <radialGradient
      id="orange-5-gradient-409-2"
      cx="1893.05"
      cy="914.01"
      r="341.86"
      gradientTransform="matrix(1, 0, 0, 1, 0, 0)"
      xlink:href="#orange-5-gradient-409"
    />
    <radialGradient
      id="orange-5-gradient-409-3"
      cx="1830.12"
      cy="330.93"
      r="257.08"
      gradientTransform="matrix(1, 0, 0, 1, 0, 0)"
      xlink:href="#orange-5-gradient-409"
    />
    <radialGradient
      id="orange-5-gradient-409-4"
      cx="2101.74"
      cy="449.84"
      r="83.36"
      gradientTransform="matrix(1, 0, 0, 1, 0, 0)"
      xlink:href="#orange-5-gradient-409"
    />
    <radialGradient
      id="orange-5-gradient-409-5"
      cx="-2475.96"
      cy="1868.03"
      r="83.36"
      gradientTransform="translate(5169.22 1311.86) rotate(50.64)"
      xlink:href="#orange-5-gradient-409"
    />
    <radialGradient
      id="orange-5-gradient-409-6"
      cx="-4160.15"
      cy="4889.59"
      r="83.36"
      gradientTransform="translate(7280.03 4540.18) rotate(86.25)"
      xlink:href="#orange-5-gradient-409"
    />
    <radialGradient
      id="orange-5-gradient-409-7"
      cx="6869.26"
      cy="4736.6"
      r="83.36"
      gradientTransform="translate(-5382.94 4742.49) rotate(-63.76)"
      xlink:href="#orange-5-gradient-409"
    />
    <radialGradient
      id="orange-5-gradient-409-8"
      cx="7038.35"
      cy="6310.96"
      r="83.36"
      gradientTransform="translate(-5583.69 6610.89) rotate(-80.33)"
      xlink:href="#orange-5-gradient-409"
    />
    <radialGradient
      id="orange-5-gradient-723-2"
      cx="838.05"
      cy="-2.15"
      r="961.47"
      gradientTransform="matrix(1, 0, 0, 1, 0, 0)"
      xlink:href="#orange-5-gradient-723"
    />
    <radialGradient
      id="orange-5-gradient-743-2"
      cx="736.77"
      cy="245.8"
      r="593.29"
      gradientTransform="matrix(1, 0, 0, 1, 0, 0)"
      xlink:href="#orange-5-gradient-743"
    />
    <radialGradient
      id="orange-5-gradient-409-9"
      cx="212.26"
      cy="646.76"
      r="2.03"
      gradientTransform="matrix(1, 0, 0, 1, 0, 0)"
      xlink:href="#orange-5-gradient-409"
    />
    <radialGradient
      id="orange-5-gradient-478-2"
      cx="197.12"
      cy="1152.84"
      r="29.44"
      gradientTransform="matrix(1, 0, 0, 1, 0, 0)"
      xlink:href="#orange-5-gradient-478"
    />
    <radialGradient
      id="orange-5-gradient-310"
      cx="1476.03"
      cy="570.68"
      r="142.95"
      gradientUnits="userSpaceOnUse"
    >
      <stop offset="0" stop-color="#ff000b" />
      <stop offset="1" stop-color="#fc1b00" stop-opacity="0" />
    </radialGradient>
    <radialGradient
      id="orange-5-gradient-310-2"
      cx="1066.24"
      cy="524.11"
      r="76.47"
      xlink:href="#orange-5-gradient-310"
    />
    <radialGradient
      id="orange-5-gradient-454"
      cx="1138.03"
      cy="526.83"
      r="63.78"
      gradientTransform="translate(0 -151.63) scale(1 1.25)"
      gradientUnits="userSpaceOnUse"
    >
      <stop offset="0.25" stop-color="red" />
      <stop offset="1" stop-color="red" stop-opacity="0" />
    </radialGradient>
    <linearGradient
      id="orange-5-gradient-471"
      x1="1222.61"
      y1="381.26"
      x2="1266.38"
      y2="1128.6"
      gradientUnits="userSpaceOnUse"
    >
      <stop offset="0" stop-color="#ffbe00" />
      <stop offset="1" stop-color="#f2ecd6" />
    </linearGradient>
    <radialGradient
      id="orange-5-gradient-10"
      cx="2767.58"
      cy="1488.05"
      r="18.5"
      gradientTransform="translate(-1728.45 346.37) rotate(-15.27)"
      gradientUnits="userSpaceOnUse"
    >
      <stop offset="0" stop-color="#ff3400" stop-opacity="0.6" />
      <stop offset="1" stop-color="#ff3600" stop-opacity="0" />
    </radialGradient>
    <radialGradient
      id="orange-5-gradient-10-2"
      cx="2832.81"
      cy="1488.05"
      r="18.5"
      xlink:href="#orange-5-gradient-10"
    />
    <radialGradient
      id="orange-5-gradient-477"
      cx="1160.91"
      cy="550.32"
      r="53.9"
      gradientUnits="userSpaceOnUse"
    >
      <stop offset="0.02" stop-color="#7b0022" />
      <stop offset="1" stop-color="red" stop-opacity="0" />
    </radialGradient>
  </defs>
  <path
    class="orange-5-cls-1"
    d="M1000.53,942.05a51.08,51.08,0,0,1-2.74,7c-9,18.52-28.6,26.1-34.14,28.36-61.36,25.13-122.91,106-140.71,132.53-16.85,25.09-63.16,94-38.69,155.45,16.32,40.95,58.11,63.5,82.37,73.58,8.15-4.13,17.06-6.82,25.85-9.45l143-42.73c23.77-7.11,48.44-14.3,73-11s49.19,20.22,53.18,44.72c2.81,17.3-4.84,34.4-12.29,50.26-2.9,6.17-5.58,13.51-8.47,21.09,18,7.79,25.89,17.06,61.73,36.94,12.2,6.76,10.41,4.79,15.12,8.09,24.47,17.17,36.63,35.29,47.92,51.33a86.81,86.81,0,0,1,14.51-29.74c16.14-21.44,39.42-36.08,60.79-52.32,103.57-78.7,167-201.07,198.66-327.24a1238.86,1238.86,0,0,0,34.85-220.08C1392.62,917.82,1192.14,911.45,1000.53,942.05Z"
  />
  <path
    class="orange-5-cls-2"
    d="M1551.2,567.15a1854.11,1854.11,0,0,0-62.7-201.92c-9.91,17-18.38,36.11-27.06,59.66-15.07,40.84-28.43,83.33-54.8,118-53.67,70.53-148.45,90.28-255.49,110.65-100.4,19.11-122.27,5.56-172.35,36.35C914,729.69,890,789.61,879,817.11c-10.06,25.09-12.89,43.72-6.18,61.52s24.1,37.43,43.91,38.64c13.22.81,15.66-7.25,39.76-11.81,15.76-3,30.76-5.81,39.62,2.61,8.15,7.74,8.13,22.17,4.47,34,191.61-30.6,392.09-24.23,573.93-83.19C1580.86,760.19,1574.47,660.68,1551.2,567.15Z"
  />
  <g class="orange-5-cls-3">
    <path
      class="orange-5-cls-4"
      d="M1015.22,62.56c-4.11.83-10.11,3.37-22.13,8.44-4,1.67-7.74,3.37-7.83,5.9-.08,2.16,2.48,4.7,5.08,5.06s5.18-.52,7.66-1.34a168.5,168.5,0,0,1,109.62,1.78c3.77,1.38,7.62,2.92,11.64,2.85s8.32-2.22,9.52-6.06c1.58-5-3.84-9.88-4.3-10.28-4.17-3.64-9.53-3.75-11.2-3.79C1089.69,64.45,1051.32,55.3,1015.22,62.56Z"
    />
  </g>
  <g class="orange-5-cls-3">
    <path
      class="orange-5-cls-4"
      d="M1142.94,78.85c-1.89,2.48-1.34,6.11.29,8.41,2.23,3.14,7.2,4.77,10.46,2.29s3.28-7.9.37-10.91S1145.38,75.65,1142.94,78.85Z"
    />
  </g>
  <g class="orange-5-cls-3">
    <path
      class="orange-5-cls-4"
      d="M1104.8,27c-2.42,4.86,1.94,10.62,2.74,11.69.94,1.23,4.63,6.21,7.9,5,2.66-1,3.94-4.17,3.64-7-.26-2.44-1.07-4.22-3.28-7.74-2.37-3.79-3.55-5.68-5.47-5.87C1108,22.92,1105.78,25.06,1104.8,27Z"
    />
  </g>
  <g class="orange-5-cls-3">
    <path
      class="orange-5-cls-4"
      d="M1353.82,81.92a9.17,9.17,0,0,0-4,.31l5.3,10.67c3.68,7.42,4.22,8.49,4.41,10.62.46,5.35-2.13,8.2-.41,10,1.37,1.39,4.53,1.16,6.28-.34,1.55-1.33,1.86-3.54,1.6-6.86C1366.44,99.06,1363,83.29,1353.82,81.92Z"
    />
  </g>
  <path
    class="orange-5-cls-5"
    d="M1528.23,43.51l-2.42,24.87a17.61,17.61,0,0,0,24.81,17.73l22.75-10.34a17.61,17.61,0,0,0,3-30.35L1556,30.89A17.6,17.6,0,0,0,1528.23,43.51Z"
  />
  <path
    class="orange-5-cls-5"
    d="M1634.09,10.61l-9.94,22.92A17.61,17.61,0,0,0,1642.32,58l24.82-2.86a17.61,17.61,0,0,0,12.13-28L1664.38,7.12A17.6,17.6,0,0,0,1634.09,10.61Z"
  />
  <g class="orange-5-cls-3">
    <path
      class="orange-5-cls-4"
      d="M1535.94,42.45c-.48.19-1.71.85-2.86,9.64-.79,6.11-1.19,9.16-.45,13.1s1.66,8.71,4.87,9.87c4.21,1.51,8.86-2,10.22-6.29,1.16-3.65.89-6.72-.66-13.21-.82-3.47-1.47-6.07-3.62-8.69C1543.14,46.52,1538.83,41.33,1535.94,42.45Z"
    />
  </g>
  <g class="orange-5-cls-3">
    <path
      class="orange-5-cls-4"
      d="M1638.9,16.34c-1,.44-4.52,2.19-8.28,12.93-2.33,6.64-4.06,11.6-2,13.37s6.88-.48,8.37-1.18a21,21,0,0,0,5.85-4.33,18.88,18.88,0,0,0,3.26-3.88,15.79,15.79,0,0,0,2.23-9.26c0-.7-.51-6.55-4.22-8.08A6.83,6.83,0,0,0,1638.9,16.34Z"
    />
  </g>
  <path
    class="orange-5-cls-6"
    d="M2613,614.55c-49.65-65.8-100.55-103.52-202.33-179A2104.62,2104.62,0,0,0,2229.09,315a582.41,582.41,0,0,0-342.58-170.77A307.6,307.6,0,0,1,2102.88,333c-2.74,8-6.88,20.07-12.06,34.64-31.8,89.45-43.55,107.8-51.05,118.15-12,16.61-23,26.05-45.08,44.94-34.58,29.66-93.73,80.38-177.89,101.11-49,12.06-61.78,8.56-95,23.25-29.86,13.22-56.7,40.16-57.4,72.72a157.19,157.19,0,0,0,65.86,83.75c1-5,12.1-56.94,57.06-74.11,22.79-8.7,43.29-4.27,52.26-2.21,54.12,12.45,79.06,65.48,83,74.12,25.24-13.65,50.18-6,55.3,5.63,4.84,11-5,32.42-28.52,43.25l13.38,16.87,13.45-14.07c-5.3,5.54,24,112.08,25.6,127.12a695.41,695.41,0,0,1,1,134.64c-8.32,92.31-42.67,175.23-73.68,261.75A1600.11,1600.11,0,0,0,2157,944.19a165.93,165.93,0,0,0,72-15.68,164.23,164.23,0,0,0,44.31-30.74l22.58,19.89c1.48-18.5,22.23-32.86,40.14-27.76s27.93,28.2,19.4,44.7c109.38,65.17,178.19,192.76,172.42,319.67a2833.53,2833.53,0,0,1,33.57-496.74c-13.82,15-44.15,4.57-45.79-15.72s26.62-35.41,42.67-22.84c-10.08-6-20.54-12.44-26.68-22.44s-6.3-24.69,2.85-32c12.81-10.3,31.51,0,44,10.72,35.11,30.06,63,56.18,86.67,93,43.06,67,56.47,96.59,58.93,95.52C2729,861.61,2702.75,733.58,2613,614.55Z"
  />
  <g class="orange-5-cls-7">
    <path
      class="orange-5-cls-8"
      d="M2539.28,559.77c-14.56,10.93-63.1-48.37-86.56-36.12-10.14,5.29-18,25.2-5.11,92.25-22.18-10.57-50-8.29-70.12,5.75s-31.94,39.29-29.74,63.77c-17.61-30.59-52-50.75-87.32-51.18s-70.18,18.9-88.53,49c-18.83-24-50.34-37.4-80.68-34.32s-58.53,22.53-72.16,49.81c-9-31.35-35.3-57.13-66.84-65.43s-67.15,1.14-90.41,24a58.69,58.69,0,0,0-15.41-34.3c68.58-23.95,117.92-66.25,148.29-92.3,22-18.89,33-28.33,45.08-44.94,7.5-10.35,19.25-28.7,51.05-118.15,5.18-14.57,9.32-26.61,12.06-34.64a307.6,307.6,0,0,0-216.37-188.75A582.41,582.41,0,0,1,2229.09,315a2104.62,2104.62,0,0,1,181.53,120.55c55.08,40.82,95.26,70.6,128.4,99.77C2542.68,548.06,2543.79,556.39,2539.28,559.77Z"
    />
  </g>
  <path class="orange-5-cls-9" d="M2511.5,707.18a21,21,0,0,1,4.18,2.53Z" />
  <g class="orange-5-cls-10">
    <path
      d="M1664.42,729.37a157.13,157.13,0,0,0,65.86,83.74,123.34,123.34,0,0,1,15-37.56,98.29,98.29,0,0,1-6.65-11.81c-10.24-21.64-10.39-49.9,6.09-67.26,13.64-14.37,34.73-18.07,54.2-21.8a731.35,731.35,0,0,0,134.56-39.48c53.93-21.64,108.32-53.09,138.38-101.52-5.41,49.83-9.48,99.79-11.83,149.86-5.56,118-1.75,236.62-17.21,353.7a1085,1085,0,0,1-96.51,325q13.21-18.74,26.71-39.06c84.77-163.83,99.34-356.61,111.67-542,2.86-43-17.39-196.81,26-390.65,3.16-14.11,6-25.64,7.89-33.11,36.62,60.39,78.14,131.34,122.35,211.68,54,98.08,92.07,175.57,108.38,206.67,52.79,100.66,106.15,203.07,142.35,310.29a357.66,357.66,0,0,1,35.72,131.24q-.6-86.55,4.09-173a591.79,591.79,0,0,0-21.23-66.17c-37.68-98.07-80.65-165.89-93.24-185.27-39-60.07-110.45-184.41-252.08-463.23a1785.6,1785.6,0,0,1,222.42,139c70.29,51.53,159,116.6,203.88,185.35,6.34,9.73,49.75,77.71,74,115.78,6.51,10.22,10.38,16.29,15.57,24.64,30.83,49.66,41.22,71.8,43.36,70.88,4.89-2.13-21.32-130.17-111.12-249.19-49.65-65.8-100.55-103.52-202.33-179a2106.48,2106.48,0,0,0-181.53-120.54,582.41,582.41,0,0,0-342.58-170.77,307.6,307.6,0,0,1,216.37,188.75l-.07.18c-2.73,8-6.85,20-12,34.46-31.8,89.45-43.55,107.8-51.05,118.15-12,16.6-23,26-45.08,44.94C1960.11,562,1901,612.67,1816.8,633.4c-49,12.06-61.78,8.56-95,23.25C1692,669.86,1665.12,696.8,1664.42,729.37Zm479-418.81-2.62-4.61A9.49,9.49,0,0,1,2143.38,310.56Z"
    />
  </g>
  <g class="orange-5-cls-10">
    <path
      d="M2196.39,328.08a1140.16,1140.16,0,0,1,451.07,388.68c-47.38-76-111.4-140.62-181.26-196.7-57.47-46.14-128.41-92.17-221.46-152-26.73-17.2-48.95-31.13-63.87-40.41Z"
    />
  </g>
  <g class="orange-5-cls-10">
    <path
      d="M2140.78,346.62C2423,905.88,2490.14,1039.16,2490,1039.21S2398.7,855,2270.53,615.37c-59-110.38-109.63-202.09-146.17-267.57Z"
    />
  </g>
  <g class="orange-5-cls-10">
    <path
      d="M2001.68,192.49c.49-.76,37.45,18.36,76,50a430.53,430.53,0,0,1,63.83,64.88l-24,20.63c-11.11-28.9-31.19-68.4-69.39-101.9C2025,205.85,2001.28,193.1,2001.68,192.49Z"
    />
  </g>
  <g class="orange-5-cls-10">
    <path
      d="M2085.18,467.09c-8.89,42.15-11.87,50.36-15.46,57.61-11.47,23.15-29.49,36.75-40.15,44.34-49.76,35.46-74.14,46.33-74.14,46.33-88.67,39.56-193.69,59.46-194.61,55.61-1.12-4.64,150-39.44,241-111.21,27.17-21.43,42-40.8,46.34-46.34a268.15,268.15,0,0,0,46.34-92.67C2092.32,432,2089.21,448,2085.18,467.09Z"
    />
  </g>
  <g class="orange-5-cls-10">
    <path
      d="M2515.51,1063.57l6,81.4q-37.47-102.61-74.93-205.24Q2481.06,1001.65,2515.51,1063.57Z"
    />
  </g>
  <g class="orange-5-cls-11">
    <path
      class="orange-5-cls-4"
      d="M2493,504.16a385.49,385.49,0,0,1,120.47,129.75c-57.37-66-110-110.35-148.28-139-94.86-71.06-166.81-120.48-166.81-120.48-10.27-7.06-38.12-26.11-37.07-27.8s28.78,13.66,37.07,18.53C2385.55,416.43,2406.24,445.4,2493,504.16Z"
    />
  </g>
  <g class="orange-5-cls-11">
    <path
      class="orange-5-cls-4"
      d="M2363.2,708.05c9.37,16.85,36.7,66.06,46.34,83.41-46.61-80.18-84.85-142.84-111.21-185.35-33.71-54.36-66.35-105.33-98.13-181.29-8.46-20.22-23.88-59-22.35-59.67s16.76,31.75,26.19,51.24C2227.62,465.13,2239.6,485.69,2363.2,708.05Z"
    />
  </g>
  <g class="orange-5-cls-11">
    <path
      class="orange-5-cls-4"
      d="M2058.23,899.4c-1.67,22.82-4.69,59.54-10.12,105.21,14.76-98.74,19.51-177,21.09-230.78,1.42-48.45.69-91.55,6.71-167.72,4.21-53.26,10.07-101.85,9.27-101.95s-5.7,35.1-9.27,64.88C2060.37,698.84,2068.33,761.13,2058.23,899.4Z"
    />
  </g>
  <path
    class="orange-5-cls-12"
    d="M2527.85,1254.27q-.41-19.26-.52-38.51A332,332,0,0,1,2527.85,1254.27Z"
  />
  <path
    class="orange-5-cls-2"
    d="M1835.22,393.82c-1.33,7.75-8.1,9.94-8,16.57.15,9.64,14.62,15.29,23,20.76,32.92,21.42,16.57,68.4,56.08,122.66,7.6,10.44,15.19,18.29,24.6,18.42,13.25.19,23.84-14.66,30.25-25.79l91.51-158.91c3.75-6.52,7.65-13.71,6.52-21.15-1.61-10.59-15.41-15.41-20.32-17.35-46.85-18.47-220.25-13.23-220.51,14.29C1818.29,372.52,1837.6,379.92,1835.22,393.82Z"
  />
  <path
    class="orange-5-cls-1"
    d="M1872.28,743.3a.5.5,0,0,0,0-1,.5.5,0,0,0,0,1Z"
  />
  <path
    class="orange-5-cls-13"
    d="M1677.57,1250.37c10.6-35.86,90.81-7,155.16-63.78,50.4-44.5,71-124.35,64-186.45-4-35.55-16.31-69.66-22.41-104.92s-5.28-74,14.6-103.72c38.26-57.28,129.88-59.52,165.67-118.37,22.26-36.59,14.33-86.41-12-120.22s-67.69-53.19-109.73-61.42c52.54-22.69,119.64-4.37,153.36,41.87s30.63,115.73-7,158.81c-24.36,27.86-59.27,43.6-91.2,62.3s-63.66,43.79-73.31,79.51c-15.18,56.19,28.82,108.8,53.51,161.5,45.41,96.93,10.72,233-64,301.72-10.87,10-65.77,60.41-132.16,46.7C1717.45,1332.64,1668.55,1280.87,1677.57,1250.37Z"
  />
  <path
    class="orange-5-cls-14"
    d="M1653,1250.37c10.61-35.86,90.82-7,155.17-63.78,50.4-44.5,71-124.35,64-186.45-4-35.55-16.31-69.66-22.42-104.92s-5.27-74,14.61-103.72C1902.6,734.22,1994.23,732,2030,673.13c22.25-36.59,14.32-86.41-12-120.22s-67.69-53.19-109.73-61.42c52.54-22.69,119.64-4.37,153.35,41.87s30.64,115.73-7,158.81c-24.36,27.86-59.27,43.6-91.2,62.3s-63.66,43.79-73.31,79.51c-15.18,56.19,28.82,108.8,53.51,161.5,45.4,96.93,10.72,233-64.05,301.72-10.88,10-65.77,60.41-132.17,46.7C1692.89,1332.64,1644,1280.87,1653,1250.37Z"
  />
  <path
    class="orange-5-cls-15"
    d="M1826.3,410.08c-1.33,7.75-8.1,9.94-8,16.57.15,9.64,14.62,15.29,23,20.76,32.93,21.42,16.58,68.4,56.09,122.66,7.6,10.44,15.19,18.29,24.6,18.42,13.25.19,23.84-14.65,30.25-25.79l91.51-158.91c3.75-6.52,7.64-13.7,6.52-21.14-1.61-10.6-15.41-15.42-20.32-17.36-46.85-18.46-220.25-13.23-220.51,14.29C1809.37,388.78,1828.68,396.18,1826.3,410.08Z"
  />
  <path
    class="orange-5-cls-16"
    d="M2028.84,500.8,2072,528.63a7.18,7.18,0,0,0,11.06-5.68l2.52-51.28a7.17,7.17,0,0,0-10.44-6.74l-45.68,23.45A7.18,7.18,0,0,0,2028.84,500.8Z"
  />
  <path
    class="orange-5-cls-17"
    d="M2069.06,558l5.85,51a7.17,7.17,0,0,0,11.4,5l41.25-30.56a7.18,7.18,0,0,0-1.41-12.36l-47.1-20.44A7.18,7.18,0,0,0,2069.06,558Z"
  />
  <path
    class="orange-5-cls-18"
    d="M2073.19,639.34l-25,44.88a7.18,7.18,0,0,0,6.39,10.66l51.34-.83a7.18,7.18,0,0,0,6-10.87l-26.39-44A7.18,7.18,0,0,0,2073.19,639.34Z"
  />
  <path
    class="orange-5-cls-19"
    d="M1916.34,763.56l44-26.39a7.18,7.18,0,0,0-.21-12.43l-44.88-25a7.18,7.18,0,0,0-10.66,6.4l.84,51.33A7.18,7.18,0,0,0,1916.34,763.56Z"
  />
  <path
    class="orange-5-cls-20"
    d="M1858.17,813.46l34.69-37.86a7.18,7.18,0,0,0-3.74-11.86L1839,752.64a7.17,7.17,0,0,0-8.4,9.16l15.45,49A7.17,7.17,0,0,0,1858.17,813.46Z"
  />
  <path
    class="orange-5-cls-21"
    d="M1784.34,1199a29.86,29.86,0,0,0,15.54-2.34,28.79,28.79,0,0,0,11-9.46c2.63,15.14,10,62.45,1.22,102.37a96.26,96.26,0,0,1-7.21,21.48,79.49,79.49,0,0,1-6.67,11.59c-3.48,4.89-11.22,14.16-26.26,21.28a132.31,132.31,0,0,1-25.36-1.51c-13.8-2.17-20.52-5.5-22.76-6.68-5.06-2.65-10.8-5.75-13.51-12a20.57,20.57,0,0,1-1.11-11.78C1713.24,1286.77,1756.48,1197.35,1784.34,1199Z"
  />
  <g class="orange-5-cls-22">
    <path
      class="orange-5-cls-4"
      d="M1882.83,1047.16c-2,20.65-9.43,53.61-12.56,64.17-10,33.6-28.87,38.29-34,64.73-1.41,7.28,0,17.19,7.34,18.52,4.17.77,8.14-1.9,11.44-4.57,39.25-31.78,59.32-85.62,50.43-135.34-.5-2.83-.74-8.81-4.92-13.55-3.11-3.53-8.73-7-12.64-5.31C1883.7,1037.63,1883.07,1044.74,1882.83,1047.16Z"
    />
  </g>
  <g class="orange-5-cls-22">
    <path
      class="orange-5-cls-4"
      d="M1895.35,1024.92c-1.81,2.52-6.19,3.19-9.09,1.66-2.36-1.25-3.35-3.55-4.28-7.31-.65-2.64-1.3-5.37-.77-8,.45-2.27,2.77-5.34,5.3-5.39,3.07-.06,5.17,4.42,6.91,8.13C1895.53,1018.47,1897.28,1022.22,1895.35,1024.92Z"
    />
  </g>
  <g class="orange-5-cls-10">
    <path
      class="orange-5-cls-4"
      d="M1870,453.71c-5,5.09,8.74,16.6,18.21,49,3.71,12.7,5.69,24.93,14.41,28.08a15.36,15.36,0,0,0,9.82-.15c6.35-2.45,9.38-9,10.54-13.67.79-3.12,8.41-24.87-4.91-42.55-6.1-8.09-13.66-11.51-21.76-15.17C1887.84,455.42,1874.4,449.21,1870,453.71Z"
    />
  </g>
  <g class="orange-5-cls-10">
    <path
      class="orange-5-cls-4"
      d="M1862.65,445.59c-3.64,2.79-14.14-2.37-18.15-10.43-2.31-4.63-3.34-12-.07-14.25,3.43-2.39,10.33,1.65,14,5.7C1864,432.66,1866.1,442.94,1862.65,445.59Z"
    />
  </g>
  <g class="orange-5-cls-23">
    <path
      class="orange-5-cls-4"
      d="M1914.62,708.77c-1.86,2.06,3.05,11.17,10.44,16.65,10,7.45,24.23,7.89,25.36,5s-9.81-9.4-17-13.72C1926.68,712.59,1916.64,706.54,1914.62,708.77Z"
    />
  </g>
  <g class="orange-5-cls-23">
    <path
      class="orange-5-cls-4"
      d="M1843,760.22a6,6,0,0,0-1.48,6c.74,2.15,2.83,2.79,9.28,5.21,8.37,3.15,11.18,3.73,16.68,5.57,2.61.87,5.72,1.67,7.91,0s1.12-6.38-1.09-9.07c-2-2.44-4.72-2.81-8.76-3.66C1850.23,761.11,1846.06,757.43,1843,760.22Z"
    />
  </g>
  <g class="orange-5-cls-23">
    <path
      class="orange-5-cls-4"
      d="M2044.1,490.5c-4.2,3.78-5.2,5.72-4.7,6.83.8,1.77,5.29,1.44,7.71,1,3.82-.71,7.41-2.64,13.39-8.44s12.44-12.05,11.19-13.86C2069.94,473.46,2054.36,481.26,2044.1,490.5Z"
    />
  </g>
  <g class="orange-5-cls-23">
    <path
      class="orange-5-cls-4"
      d="M2119,576.33c1-5.22-41.52-20.53-44.16-15.79-1.31,2.34,7,9.82,14.26,13.66C2102.36,581.16,2118.43,579.39,2119,576.33Z"
    />
  </g>
  <path
    class="orange-5-cls-24"
    d="M111.69,554.31c49.65-65.8,100.54-103.52,202.33-179A2103.17,2103.17,0,0,1,495.54,254.8,582.48,582.48,0,0,1,838.13,84,307.64,307.64,0,0,0,621.75,272.78c2.74,8,6.88,20.07,12.06,34.64,31.8,89.45,43.55,107.8,51.05,118.15,12,16.61,23,26.05,45.08,44.94,34.58,29.66,93.74,80.39,177.89,101.11,49,12.06,61.78,8.56,95,23.25,29.86,13.22,56.7,40.16,57.4,72.72a157.15,157.15,0,0,1-65.86,83.75c-1-5-12.1-56.94-57.05-74.11C914.5,668.53,894,673,885,675c-54.12,12.45-79.07,65.48-83,74.12-25.24-13.65-50.17-6-55.29,5.63-4.85,11,5,32.42,28.52,43.25L761.9,814.89l-13.45-14.07c5.3,5.55-24,112.08-25.6,127.12a694.62,694.62,0,0,0-1,134.64c8.31,92.31,42.66,175.23,73.67,261.75A1600.24,1600.24,0,0,1,567.66,884a165.91,165.91,0,0,1-72-15.69,164.07,164.07,0,0,1-44.31-30.74l-22.59,19.9c-1.48-18.51-22.23-32.86-40.14-27.77s-27.93,28.2-19.39,44.7C259.82,939.53,191,1067.12,196.78,1194a2832.57,2832.57,0,0,0-33.57-496.74c13.82,15,44.15,4.57,45.79-15.72s-26.61-35.41-42.67-22.83c10.08-6,20.54-12.45,26.68-22.45s6.3-24.69-2.85-32c-12.81-10.3-31.51,0-44,10.72-35.1,30-63,56.17-86.67,93C16.43,775,3,804.57.56,803.5-4.33,801.37,21.88,673.34,111.69,554.31Z"
  />
  <g class="orange-5-cls-7">
    <path
      class="orange-5-cls-25"
      d="M185.35,499.53c14.56,10.94,63.11-48.37,86.57-36.12,10.13,5.3,18,25.21,5.1,92.25,22.18-10.56,50-8.29,70.12,5.75s31.94,39.3,29.74,63.77c17.62-30.59,52-50.75,87.32-51.18s70.18,18.9,88.53,49c18.83-24,50.34-37.39,80.69-34.32s58.52,22.53,72.15,49.81c9-31.35,35.31-57.12,66.85-65.43s67.14,1.14,90.4,24a58.64,58.64,0,0,1,15.42-34.31c-68.59-23.95-117.92-66.25-148.3-92.3-22-18.89-33-28.33-45.08-44.94-7.5-10.35-19.25-28.7-51.05-118.15-5.18-14.57-9.32-26.61-12.06-34.64A307.64,307.64,0,0,1,838.13,84,582.48,582.48,0,0,0,495.54,254.8,2103.17,2103.17,0,0,0,314,375.35c-55.09,40.83-95.27,70.61-128.41,99.77C182,487.82,180.85,496.15,185.35,499.53Z"
    />
  </g>
  <path
    class="orange-5-cls-26"
    d="M213.13,646.94a21,21,0,0,0-4.18,2.53C210.34,648.64,211.74,647.8,213.13,646.94Z"
  />
  <g class="orange-5-cls-10">
    <path
      d="M1002.81,596.41c-33.2-14.69-46-11.19-95-23.25-84.15-20.73-143.31-71.45-177.89-101.11-22-18.89-33-28.33-45.08-44.94-7.5-10.35-19.24-28.7-51.05-118.15-5.14-14.46-9.26-26.42-12-34.45,0-.07-.05-.13-.07-.19A307.64,307.64,0,0,1,838.13,85.57,582.48,582.48,0,0,0,495.54,256.34,2103.17,2103.17,0,0,0,314,376.89c-101.79,75.44-152.68,113.16-202.33,179C21.88,674.88-4.33,802.91.56,805c2.14.93,12.53-21.22,43.36-70.88,5.19-8.35,9.07-14.42,15.57-24.64,24.22-38.06,67.63-106,74-115.78C178.3,525,267.06,459.92,337.35,408.39a1784.1,1784.1,0,0,1,222.42-139c-141.64,278.82-213,403.16-252.08,463.23-12.6,19.38-55.57,87.2-93.25,185.27a596,596,0,0,0-21.23,66.17q4.68,86.42,4.09,173A357.86,357.86,0,0,1,233,1025.82c36.21-107.22,89.57-209.63,142.35-310.29,16.31-31.1,54.41-108.59,108.38-206.67C528,428.52,569.48,357.58,606.1,297.18c1.89,7.47,4.73,19,7.89,33.11C657.38,524.13,637.12,678,640,720.94c12.33,185.39,26.9,378.16,111.67,542q13.47,20.33,26.72,39.06a1084.9,1084.9,0,0,1-96.52-325c-15.46-117.08-11.65-235.74-17.2-353.7-2.36-50.07-6.42-100-11.83-149.85,30,48.43,84.44,79.87,138.37,101.51a731.22,731.22,0,0,0,134.57,39.48c19.46,3.73,40.55,7.43,54.19,21.8,16.48,17.36,16.33,45.62,6.1,67.26a99,99,0,0,1-6.66,11.81,123.26,123.26,0,0,1,15,37.57,157.19,157.19,0,0,0,65.86-83.75C1059.51,636.57,1032.67,609.63,1002.81,596.41ZM583.87,245.71l-2.62,4.61A9.54,9.54,0,0,1,583.87,245.71Z"
    />
  </g>
  <g class="orange-5-cls-10">
    <path
      d="M528.24,267.84A1140.16,1140.16,0,0,0,77.17,656.52c47.38-76,111.41-140.62,181.27-196.7,57.46-46.13,128.4-92.17,221.46-152,26.73-17.19,48.94-31.13,63.87-40.41Z"
    />
  </g>
  <g class="orange-5-cls-10">
    <path
      d="M583.85,286.38C301.63,845.64,234.5,978.92,234.6,979S325.93,794.8,454.11,555.14c59-110.39,109.63-202.09,146.17-267.58Z"
    />
  </g>
  <g class="orange-5-cls-10">
    <path
      d="M723,132.25c-.49-.76-37.46,18.36-76,50a431,431,0,0,0-63.83,64.88l24,20.64c11.1-28.91,31.19-68.41,69.38-101.91C699.66,145.61,723.35,132.87,723,132.25Z"
    />
  </g>
  <g class="orange-5-cls-10">
    <path
      d="M639.45,406.86c8.89,42.14,11.87,50.35,15.46,57.6,11.47,23.15,29.5,36.75,40.15,44.34,49.76,35.46,74.14,46.34,74.14,46.34,88.67,39.55,193.69,59.45,194.62,55.6,1.11-4.64-150-39.44-241-111.21-27.17-21.43-42-40.8-46.34-46.34a267.91,267.91,0,0,1-46.33-92.67C632.31,371.75,635.42,387.71,639.45,406.86Z"
    />
  </g>
  <g class="orange-5-cls-10">
    <path d="M209.12,1003.33l-6,81.41Q240.56,982.11,278,879.5Z" />
  </g>
  <g class="orange-5-cls-11">
    <path
      class="orange-5-cls-4"
      d="M231.69,443.93A385.53,385.53,0,0,0,111.21,573.67c57.38-66,110-110.35,148.28-139C354.35,363.61,426.3,314.18,426.3,314.18c10.27-7.05,38.13-26.11,37.07-27.8S434.59,300,426.3,304.91C339.08,356.19,318.39,385.16,231.69,443.93Z"
    />
  </g>
  <g class="orange-5-cls-11">
    <path
      class="orange-5-cls-4"
      d="M361.43,647.81l-46.34,83.41c46.61-80.17,84.85-142.84,111.21-185.35,33.71-54.36,66.35-105.33,98.13-181.29,8.46-20.22,23.88-59,22.35-59.67S530,336.66,520.59,356.15C497,404.89,485,425.45,361.43,647.81Z"
    />
  </g>
  <g class="orange-5-cls-11">
    <path
      class="orange-5-cls-4"
      d="M666.41,839.16c1.66,22.83,4.69,59.54,10.11,105.21-14.75-98.73-19.51-177-21.09-230.78-1.42-48.44-.69-91.55-6.71-167.72-4.21-53.26-10.07-101.85-9.27-101.94s5.71,35.09,9.27,64.87C664.26,638.6,656.3,700.89,666.41,839.16Z"
    />
  </g>
  <path
    class="orange-5-cls-27"
    d="M196.78,1194q.41-19.26.52-38.51A332,332,0,0,0,196.78,1194Z"
  />
  <path
    class="orange-5-cls-28"
    d="M1161.64,1320.53c-4-24.5-28.58-41.39-53.18-44.72s-49.26,3.86-73,11l-143,42.73c-8.79,2.63-17.7,5.32-25.85,9.45,8.16,3.38,14.33,5.36,16.89,6.15,53,16.37,116.08,22.91,129.69,23.34,27.6.87,54.42,9.38,81.69,13.75,31.89,5.1,35.65,5.38,44.32,9l1.67.71c2.89-7.58,5.57-14.92,8.47-21.09C1156.8,1354.93,1164.45,1337.83,1161.64,1320.53Z"
  />
  <path
    class="orange-5-cls-5"
    d="M971,70.71a12.86,12.86,0,0,0-3.65,20.14,441.77,441.77,0,0,1,108.84,220.89,12.88,12.88,0,0,0,20.13,8.31c46.91-33.66,77.3-87.25,105.46-138.53,9.89-18,20.1-38.51,14.27-58.21-1.08-3.63-4.69-15.22-27.06-34.33-8.14-7-35.24-29-68.92-39.24C1060.21,31.55,999,56.43,971,70.71Z"
  />
  <path
    class="orange-5-cls-5"
    d="M993.39,26.12,988,47.45a17.61,17.61,0,0,0,21.83,21.3l21.19-6a17.6,17.6,0,0,0,7.53-29.55l-15.76-15.37A17.61,17.61,0,0,0,993.39,26.12Z"
  />
  <path
    class="orange-5-cls-5"
    d="M1093.22,15.06l-14,17A17.61,17.61,0,0,0,1090,60.63l21.72,3.56a17.61,17.61,0,0,0,19.33-23.59L1123.31,20A17.6,17.6,0,0,0,1093.22,15.06Z"
  />
  <path
    class="orange-5-cls-5"
    d="M1079,218.2a318.49,318.49,0,0,0-31.72-67.92,273.52,273.52,0,0,0-28.81-38c-2.52-4.86-5.66-10.83-3-15.73,7.31-13.63,54.82-10.61,89.92,9.21a92,92,0,0,1,33.85,31.08c7.62-4.74,15.78-8.71,23.26-13.7,10.21-6.83,19.6-16.49,21.43-28.64A23.6,23.6,0,0,0,1183,84.1c-11.87-9.41-35.18-25.9-63-34.36C1060.21,31.55,999,56.43,971,70.71a12.86,12.86,0,0,0-3.65,20.14,443.36,443.36,0,0,1,76.29,115.76c4.9,10.83,9.16,21.43,12.89,31.73C1065,233.44,1072.52,226.28,1079,218.2Z"
  />
  <g class="orange-5-cls-10">
    <path
      d="M1216,123.31c-1.08-3.63-4.69-15.22-27.06-34.33-1.42-1.21-3.43-2.89-5.93-4.88a23.6,23.6,0,0,1,.86,10.44c-1.83,12.15-11.22,21.81-21.43,28.64-7.48,5-15.64,9-23.26,13.7,15.88,24.2,20.78,54.7,16.63,81-4.56,28.85-19.15,47.23-26.2,55.89-1.46,1.79-21.45,25.87-30.38,21.82-2.52-1.14-3.25-4.1-6-16.39-3.57-16.23-5.36-24.35-5.64-26.44-1.11-8.22-4-20.37-8.67-34.56-6.46,8.08-14,15.24-22.49,20.14a443.1,443.1,0,0,1,19.66,73.4,12.88,12.88,0,0,0,20.13,8.31c46.91-33.66,77.3-87.25,105.46-138.53C1211.63,163.52,1221.84,143,1216,123.31Z"
    />
  </g>
  <g class="orange-5-cls-10">
    <path
      d="M1122.89,118a94.78,94.78,0,0,0-17.55-12.18c-35.1-19.82-82.61-22.84-89.92-9.21-2.63,4.9.51,10.87,3,15.73a273.52,273.52,0,0,1,28.81,38A318.49,318.49,0,0,1,1079,218.2a134.62,134.62,0,0,0,10.86-15.86c12.39-21,22.09-44.76,41.27-59.86a90.06,90.06,0,0,1,8.08-5.6A94.42,94.42,0,0,0,1122.89,118Z"
    />
  </g>
  <g class="orange-5-cls-11">
    <path
      d="M1089.84,202.34A134.62,134.62,0,0,1,1079,218.2c4.7,14.19,7.56,26.34,8.67,34.56.28,2.09,2.07,10.21,5.64,26.44,2.7,12.29,3.43,15.25,6,16.39,8.93,4.05,28.92-20,30.38-21.82,7.05-8.66,21.64-27,26.2-55.89,4.15-26.3-.75-56.8-16.63-81a90.06,90.06,0,0,0-8.08,5.6C1111.93,157.58,1102.23,181.31,1089.84,202.34Z"
    />
  </g>
  <path
    class="orange-5-cls-28"
    d="M1800.24,1078.17c-.62-13.46-2.64-46.61-2.71-94.12,0-28,.62-50.63,1.09-63.68.21-5.77.4-10,.42-10.51,11-262.07-122.88-544.32-122.88-544.32-19-40-47.51-94.72-82.48-93.7-23.28.68-49.66,25.67-65.82,42.27s-28.64,32.7-39.36,51.12a1854.11,1854.11,0,0,1,62.7,201.92c40.92,164.46,29.66,347.39-11.59,511.79-31.66,126.17-95.09,248.54-198.66,327.24-21.37,16.24-44.65,30.88-60.79,52.32a86.81,86.81,0,0,0-14.51,29.74c11.87,16.86,22.79,31.41,46.07,40.13,6.52,2.44,15.5,5,49.78,5.35,41.09.43,85,.9,149.23-13.24,82.3-18.14,126-27.77,169.25-62.54,61.31-49.34,81.26-116.83,98.83-176.26C1805.8,1190.4,1801.2,1099.26,1800.24,1078.17Z"
  />
  <path
    class="orange-5-cls-28"
    d="M1215.81,122.25c35.4-14.21,68.81-13.79,88.28-12.16-5.49-23.19,13.56-48.91,38-51.28s48.32,19.2,47.67,43c68.52,22.22,116.7,54.14,145.66,76.72,35.79,27.9,79.94,62.32,101.18,120.56,4.38,12,3.29,12.7,14,64.14,18.58,89.3,25.72,105.7,28.89,127,13.57,91.35-54.61,212.91-152.89,259.3-57.28,27-124.17,28.27-166.61,29a553.83,553.83,0,0,1-77.65-4.09c-20.75,23.12-51.79,33.42-80,26.28-27.62-7-42-27.94-45.5-33.47-21.3-4.53-67.83-17.45-108.29-56.76-62.33-60.57-63.28-138.17-63.2-157.68.17-39.45,16.54-74.92,49.28-144.26C1139.72,185.83,1160.67,144.39,1215.81,122.25Z"
  />
  <path
    class="orange-5-cls-1"
    d="M1223.85,121.22c31.29-12.94,60.82-12.56,78-11.07-4.85-21.14,12-44.57,33.55-46.72s42.71,17.49,42.13,39.16a414.76,414.76,0,0,1,128.76,69.89c31.63,25.42,70.66,56.77,89.43,109.83,3.88,10.94,2.91,11.56,12.37,58.43,16.43,81.35,22.74,96.29,25.54,115.72,12,83.22-48.27,194-135.13,236.22-50.64,24.64-109.77,25.76-147.28,26.44a474.31,474.31,0,0,1-68.63-3.73c-18.34,21.06-45.79,30.45-70.76,24-24.42-6.36-37.09-25.46-40.22-30.49-18.83-4.14-60-15.9-95.72-51.71-55.1-55.19-55.93-125.88-55.86-143.65.15-35.94,14.62-68.25,43.55-131.41C1156.59,179.14,1175.12,141.39,1223.85,121.22Z"
  />
  <path
    class="orange-5-cls-1"
    d="M1232.47,131.18c31.29-12.94,60.83-12.56,78-11.07-4.85-21.14,12-44.57,33.56-46.72s42.7,17.49,42.12,39.16A414.64,414.64,0,0,1,1515,182.44c31.63,25.42,70.66,56.77,89.44,109.83,3.87,10.94,2.9,11.56,12.37,58.43,16.42,81.35,22.73,96.29,25.53,115.72,12,83.22-48.26,194-135.13,236.22-50.64,24.64-109.77,25.76-147.28,26.44a474.31,474.31,0,0,1-68.63-3.73c-18.34,21.06-45.78,30.45-70.76,23.95-24.42-6.36-37.09-25.46-40.21-30.49-18.84-4.14-60-15.9-95.73-51.71-55.09-55.19-55.93-125.88-55.86-143.65.15-35.94,14.62-68.25,43.56-131.41C1165.22,189.1,1183.74,151.35,1232.47,131.18Z"
  />
  <path
    class="orange-5-cls-29"
    d="M1582.8,660.64c-49,57.27-143.25,74-204,21.35-61.08-53-58.69-150.54-5.33-207.46,54.88-58.55,154.53-64.34,209.76-6C1633.44,521.59,1628.07,607.71,1582.8,660.64Z"
  />
  <path
    class="orange-5-cls-30"
    d="M1123.35,572.24c-26.2,30.63-76.63,39.6-109.12,11.42-32.68-28.35-31.4-80.54-2.86-111,29.36-31.32,82.67-34.41,112.21-3.2C1150.44,497.85,1147.57,543.92,1123.35,572.24Z"
  />
  <path
    class="orange-5-cls-31"
    d="M1176.91,541.35c-15.06,6.44-32.56-1.54-42.42-14.7-10.14-13.54-12.45-32.88-5.41-49,6.83-15.66,22.32-26.13,38-25.66a31.45,31.45,0,0,1,22.15,9.77c8.63,9.27,9.38,21.5,9.75,27.62C1199.13,492.27,1201,531.05,1176.91,541.35Z"
  />
  <path
    class="orange-5-cls-32"
    d="M1142.21,356.56c-5.54-1.56-12.27,2.82-20.34,8.84-12.46,9.31-18.68,14-19.5,21.46-.9,8.28,4.05,18.25,12,21.09,6.4,2.3,12.16-1,23.45-7.49,10.85-6.22,17.39-10,18.46-16.78,1-6.12-2.5-14.68-4.67-18.4l-.06-.11C1150,362.69,1147.29,358,1142.21,356.56Z"
  />
  <path
    class="orange-5-cls-32"
    d="M1305.68,374.7a15,15,0,0,0-6.1,5.81c-2.69,4.82-1.36,9.91-.85,11.92,1.37,5.38,4.55,8.71,8.81,13a62.72,62.72,0,0,0,11.41,9.16c11.53,7.32,23.22,14.74,35,11.32a19.77,19.77,0,0,0,10.49-6.95c5.53-7.44,3-16.58,2.69-17.55-1.8-6.09-6-9.22-14.07-15.15-5.94-4.34-15.2-10.94-28.81-13.27C1312.85,371.09,1307.51,373.68,1305.68,374.7Z"
  />
  <path
    d="M1152,353.48c-9.22-3-18.22,3.12-23.1,6.45-6.66,4.54-15.29,10.43-16.09,20.76-.59,7.82,3.38,17.48,11.14,20.63,7.58,3.09,15.1-1.54,23.18-6.51,6.68-4.11,14.27-8.78,16.46-17.86.4-1.65,2.32-10.51-3.28-17.59A18,18,0,0,0,1152,353.48Z"
  />
  <path
    d="M1294.12,376.54a20.58,20.58,0,0,0-.83,11.61c1.87,10.58,11,17,17,21.25,4.41,3.09,13,9,25.34,9.81,6.88.48,15.84,1.11,21.76-5.2,4.64-4.95,6.42-13.11,3.77-19.2a15.87,15.87,0,0,0-5.33-6.36c-25.07-19-37.94-28-49.65-23.47C1305.32,365.33,1297.32,368.55,1294.12,376.54Z"
  />
  <path
    class="orange-5-cls-2"
    d="M1594.37,728.15c-27.83,12.81-26.78,28-73.07,56.51-44.91,27.62-58,20.73-73.11,38.91-29.84,35.89-23.9,116.09,21.21,157.48,42.88,39.34,106.52,49.46,163.85,39.43,18-3.14,122.84-22.68,150.62-112.57,14.13-45.73,8-108.67-37-151.2C1702.09,714.46,1636.42,708.81,1594.37,728.15Z"
  />
  <path
    class="orange-5-cls-28"
    d="M1595.69,724.3c-25.53,11.74-24.57,25.71-67,51.82-41.18,25.33-53.18,19-67,35.68-27.36,32.91-21.92,106.46,19.45,144.42,39.32,36.08,97.68,45.36,150.26,36.16,16.46-2.88,112.65-20.8,138.13-103.24,13-41.93,7.32-99.65-34-138.65C1694.47,711.74,1634.25,706.56,1595.69,724.3Z"
  />
  <g class="orange-5-cls-23">
    <path
      class="orange-5-cls-33"
      d="M1120.16,394.37a9.38,9.38,0,0,1-4,.27c-2.1-.48-2.64-1.65-4.05-1.48a3.47,3.47,0,0,0-2.79,3,5.78,5.78,0,0,0,1.3,4.14c2.83,3.72,8.3,4.48,12.73,3s8-4.68,11.46-7.89a9.8,9.8,0,0,0,2.47-3.05,3.47,3.47,0,0,0-.39-3.71c-1.24-1.29-3.55-.54-4-.41-1.57.51-2,1.39-3.41,2.56C1126.81,393.12,1123.81,393.68,1120.16,394.37Z"
    />
  </g>
  <path
    class="orange-5-cls-34"
    d="M1154.35,369.08a7.28,7.28,0,1,1-7.28-7.29A7.28,7.28,0,0,1,1154.35,369.08Z"
  />
  <circle class="orange-5-cls-4" cx="1147.07" cy="367.93" r="4.43" />
  <circle class="orange-5-cls-34" cx="1314.1" cy="383.66" r="7.28" />
  <circle class="orange-5-cls-4" cx="1314.1" cy="382.52" r="4.43" />
  <g class="orange-5-cls-23">
    <path
      class="orange-5-cls-33"
      d="M1342.46,393.19c-.08,2.47,4.78,3.07,9.5,7.67,2.18,2.12,4.73,4.29,4.33,7.08-.39,2.62-3.2,4.83-2.47,7.39a3.56,3.56,0,0,0,3.62,2.34,5.55,5.55,0,0,0,3.9-2.27c2.16-2.77,2.2-6.78.8-10-1.21-2.78-3-4.55-6.83-7.85s-9.14-7.84-11.71-6.26A2.45,2.45,0,0,0,1342.46,393.19Z"
    />
  </g>
  <path
    class="orange-5-cls-28"
    d="M1467.82,142.26c-22.15-6-30.35.06-32.7,2.11-11.24,9.8-7,31.39-6.09,34.86,3.3,11.85,10.42,22.22,17.42,32.34q39,56.46,78.11,112.91c11.29,16.32,23.36,33.33,41.2,42,17,8.26,42.76,2.67,52.44-12.09,8.19-12.46,3-29.32-1.93-42.73C1589.89,240.23,1529.94,159.05,1467.82,142.26Z"
  />
  <path
    class="orange-5-cls-5"
    d="M1459.58,141.67c7.08-19.41,22.15-31.67,92.46-69.6,29.42-15.88,45.3-21.52,56.74-24,64.55-13.89,123.59,17.45,122.36,24.57-.63,3.66-16.9-.33-34.22,11.78a59.45,59.45,0,0,0-17.4,19.64c-21.93,37.49-5.27,107.74-32.68,164.7-12.3,25.55-38.94,59.62-65.8,57.38-24.83-2.07-42.11-24.74-56.08-45.38-25.07-37-19-36.14-50.17-74.13-6.89-8.38-16.63-19.51-18.82-36.5A59.93,59.93,0,0,1,1459.58,141.67Z"
  />
  <g class="orange-5-cls-10">
    <path
      d="M1503.63,198.62c-3.47-18.4,14.27-29.07,83.95-95.53,12.18-11.62,21.34-20.54,37-24.82,26.46-7.24,54.44,3.54,54.14,7-.16,1.94-9,.22-17.11,4.2-19,9.32-17.87,41.88-20.76,73.5-6.11,66.93-31.42,141.77-53.68,142.14a9.24,9.24,0,0,1-3.89-.72c-6.29-2.38-10.91-11.38-31-38.54-11.41-15.43-10.83-11.29-31.8-41C1509.64,209.51,1504.24,201.84,1503.63,198.62Z"
    />
  </g>
  <path
    class="orange-5-cls-1"
    d="M1618.93,739.21c-23.32,4.52-21.25,16.66-70.7,46.29-40.88,24.5-51.45,21.68-69.85,41.85-5.39,5.92-34.29,37.59-25.56,68.39,3.57,12.59,12.37,21.35,24,32.88,5.61,5.58,18.67,17.64,34.66,25.45,11,5.36,33.75,13.8,83.08,5.64,61-10.09,99.92-16.52,123.72-52.18,21.16-31.72,27.13-81.69.84-121.19C1696.25,752.05,1653.66,732.48,1618.93,739.21Z"
  />
  <g class="orange-5-cls-10">
    <path
      d="M1503.83,199.35c.84,2.58,3.86,7.24,9.22,15a48.67,48.67,0,0,0-6.94-12.18C1505.22,201,1504.47,200.08,1503.83,199.35Z"
    />
  </g>
  <g class="orange-5-cls-10">
    <path
      d="M1539.1,217c5.86-4.63,9.85-11.18,13.59-17.64,0,0,9.5-23.85,42.8-73.94,10.4-15.63,30.14-34.38,71.35-46.29-10.55-3.08-26.69-5.08-42.3-.81s-24.78,13.2-37,24.82c-69.68,66.46-87.42,77.13-83.95,95.53a5.07,5.07,0,0,0,.2.73c.64.73,1.39,1.62,2.28,2.78a48.67,48.67,0,0,1,6.94,12.18c1.39,2,3,4.21,4.66,6.64a4.3,4.3,0,0,0,.43.21C1525.05,224,1533.24,221.59,1539.1,217Z"
    />
  </g>
  <path
    class="orange-5-cls-28"
    d="M1313.38,99c3.87-1.14,6.79,7.86,15.73,12,6.13,2.84,12.46,2.18,16.63,1.27-2.42,4-4.9,8.12-8.38,11.27s-8.2,5.29-12.85,4.59c-8-1.18-11.93-9.46-13.17-12.11a17.36,17.36,0,0,1-1.82-7.29C1309.52,105.65,1310.5,99.88,1313.38,99Z"
  />
  <path
    class="orange-5-cls-35"
    d="M859.05,1332.12c-21-19.64-27.91-24.07-46.56-43.6-3.64-3.8-9.07-9.81-18.44-13.86a55.54,55.54,0,0,0-15.38-3.79,29.6,29.6,0,0,0-6.64.29,231,231,0,0,1,26.69,25.36c5.33,6,10.59,12.78,11,20.76.4,7-3,13.69-7.78,18.77s-10.78,8.76-16.73,12.39c-15.54,9.48-31.26,19-48.55,24.76-13.64,4.5-28.49,6.42-42.5,3.84,1.78,8.88,5.68,17.71,13.84,21.83,12.11,6.1,26.61,1.41,39.31-3.33l109.83-41c3.34-1.25,7-2.73,8.63-5.88C868.83,1343,863.74,1336.5,859.05,1332.12Z"
  />
  <path
    class="orange-5-cls-5"
    d="M736.71,1373.2c17.29-5.71,33-15.28,48.55-24.76,6-3.63,12-7.31,16.73-12.39s8.18-11.82,7.78-18.77c-.46-8-5.72-14.8-11-20.76A231,231,0,0,0,772,1271.16c-25.33,3.65-74.72,34.45-78.81,81.55a90.05,90.05,0,0,0,1,24.33C708.22,1379.62,723.07,1377.7,736.71,1373.2Z"
  />
  <g class="orange-5-cls-3">
    <path
      class="orange-5-cls-4"
      d="M1508,111.38c-15,9.22-17,7.59-22.84,13-8.9,8.27-14.94,22.27-11.74,25.28,4.59,4.32,25.31-16.81,42.65-22.75a15.75,15.75,0,0,0,8.08-5.77c.37-.55,3.72-5.62,1.62-9.28-2.39-4.17-9.9-3.16-11.28-2.94A17.12,17.12,0,0,0,1508,111.38Z"
    />
  </g>
  <g class="orange-5-cls-10">
    <path
      class="orange-5-cls-4"
      d="M1278.19,142.83c-13.63-10.77-51.41,8.1-73.89,32.79-2.23,2.45-.2.44-32.33,57l-16.74,42.13c-2.67,6.71-5.28,14.52-1.78,20.84,5.12,9.22,19.92,7.66,27.17,0s9.37-18.67,12.46-28.75c9.43-30.74,34.61-59.59,59-73.33,13.77-7.78,23.6-8.85,29-19.8C1285.9,163.84,1285.74,148.78,1278.19,142.83Z"
    />
  </g>
  <g class="orange-5-cls-10">
    <path
      class="orange-5-cls-4"
      d="M1315.77,167.07c-4.62,1.67-10.64-1.87-13-6.8-1.69-3.57-2.15-9.37,1.8-13.1a11,11,0,0,1,14-.45c5.13,4,4,11.46,2.06,15.34C1320,163.28,1318.66,166,1315.77,167.07Z"
    />
  </g>
  <g class="orange-5-cls-10">
    <path
      class="orange-5-cls-4"
      d="M1477.33,530.28c-10.15,10.28-28.45,10.7-41.13,3.77-19.47-10.65-19.66-35.36-19.7-39.68s-.18-22.07,13.14-33.65c2.26-2,11.77-10.24,24.06-8.55,11.51,1.58,18.11,10.87,22.56,17.15,12.17,17.12,10,35.78,9.33,40C1484.56,516.41,1483.43,524.1,1477.33,530.28Z"
    />
  </g>
  <g class="orange-5-cls-10">
    <path
      class="orange-5-cls-4"
      d="M1492.27,532.78c-6.47,5.21-8.85,16.26-2.7,22.83s17.56,5.56,23.21-1.47c5.88-7.34,3.46-19-3.93-23.19C1503.52,527.89,1496.63,529.27,1492.27,532.78Z"
    />
  </g>
  <path
    class="orange-5-cls-4"
    d="M1146.66,510.08a6.93,6.93,0,0,1-10.24-2.38,7,7,0,0,1,4.87-9.37,7.14,7.14,0,0,1,8.1,6.85,7.25,7.25,0,0,1-8.34,6.64"
  />
  <g class="orange-5-cls-10">
    <path
      class="orange-5-cls-4"
      d="M1065.17,521.73c-3.48,3.94-9.22,6.59-15,5.32-7.53-1.65-10.47-9-11.85-12.08-2.52-5.58-3.44-12.55.13-17.52,5.08-7.08,17.19-2.87,18-2.57,2,.67,9.52,3.26,12,11.11A16.49,16.49,0,0,1,1065.17,521.73Z"
    />
  </g>
  <g class="orange-5-cls-10">
    <path
      class="orange-5-cls-4"
      d="M1058.25,480.53a5,5,0,0,1-3.7-1.1c-2.56-2.05-3.48-6.9-.87-9.21s7.59-1.2,9.08,2.08S1061.41,480,1058.25,480.53Z"
    />
  </g>
  <path
    class="orange-5-cls-28"
    d="M1654.53,750.4l.84-.84a1.71,1.71,0,0,0,.45-1.09,1.25,1.25,0,0,0-.13-.6,1.23,1.23,0,0,0-.32-.49l-.32-.25a1.62,1.62,0,0,0-.77-.21l-.42.06a1.48,1.48,0,0,0-.68.4l-.84.84a1.11,1.11,0,0,0-.32.5,1.19,1.19,0,0,0-.13.59,1.25,1.25,0,0,0,.13.6,1.13,1.13,0,0,0,.32.49l.31.24a1.55,1.55,0,0,0,.78.21l.41-.05a1.55,1.55,0,0,0,.69-.4Z"
  />
  <g class="orange-5-cls-3">
    <path
      class="orange-5-cls-4"
      d="M1667.75,773.27c-8.89-1-13.18-6.11-13.54-6.56-4.59-5.72.68-11.6,3.47-14.71,3.12-3.48,10-11.2,21.74-11,9.19.13,16.78,5.08,19.14,9.85,3.33,6.73-4.11,12.35-7.26,14.73C1688.65,767.55,1679.39,774.54,1667.75,773.27Z"
    />
  </g>
  <path
    class="orange-5-cls-28"
    d="M943.42,1016.38c-15.73,1.73-29.41,15-32.34,29-3.32,15.88,7.09,30.29,23.1,48.37l111.57,126c12.65,14.28,26.66,29.37,45.37,33.09,24.5,4.87,47.66-11.17,68.47-25a546.9,546.9,0,0,1,231.48-86.43c15.63-2,32-3.6,45.12-12.4s21-27.63,12.24-40.74c-5-7.5-14.16-11.34-23.13-12s-17.9,1.31-26.67,3.31l-185.53,42.32c-37.22,8.49-75.18,17-113.2,13.6-19.91-1.79-76.64-13.61-96.36-53.67-7.77-15.8-6.8-30.24-22.74-46.92C974.31,1028.08,961.26,1014.42,943.42,1016.38Z"
  />
  <g class="orange-5-cls-23">
    <path
      class="orange-5-cls-4"
      d="M870.8,1112.67c-13.12,4.1-20.91,14.72-49.55,84.25a36.61,36.61,0,0,0-2.25,17.54c.7,5.89,3.77,11.8,9.07,14.48,7.66,3.88,16.9,0,24.12-4.64a114.15,114.15,0,0,0,49.59-73.53c.91-4.74,3-12.35.39-21.1-.83-2.8-3.63-12.35-12.11-16.64C882.43,1109.17,874.23,1111.6,870.8,1112.67Z"
    />
  </g>
  <g class="orange-5-cls-23">
    <path
      class="orange-5-cls-4"
      d="M814.28,1248.66a7.25,7.25,0,0,0,8.87,11.13c4-2,5.55-7.69,2.92-11.17S817.17,1245.17,814.28,1248.66Z"
    />
  </g>
  <g class="orange-5-cls-23">
    <path
      class="orange-5-cls-4"
      d="M1285.18,1312.45c-12.42,10.84-23.07,19.37-30.63,35-3.85,8-4.85,14.77-4.08,22.09.8,7.52,5.06,15,12,17.94,9.87,4.08,20.82-2,29.4-8.37a263.83,263.83,0,0,0,80.84-98.51c2.16-4.55,4.22-9.31,4.39-14.34,0-.51-.71-9.74-6.4-12.83-6.41-3.47-15.85,2.65-21.89,6.74C1321.57,1278.64,1305.62,1294.61,1285.18,1312.45Z"
    />
  </g>
  <g class="orange-5-cls-23">
    <path
      class="orange-5-cls-4"
      d="M1468.81,527.9c-5.18,5.25-14.54,5.47-21,1.93-10-5.44-10.06-18.07-10.07-20.28s-.09-11.28,6.71-17.2c1.16-1,6-5.23,12.3-4.37,5.88.81,9.25,5.56,11.53,8.77a28.86,28.86,0,0,1,4.77,20.44C1472.51,520.81,1471.93,524.74,1468.81,527.9Z"
    />
  </g>
  <path
    class="orange-5-cls-36"
    d="M858.07,627.55a105,105,0,0,1,10.11-37,836.5,836.5,0,0,0,189.19,189.87l296.9-140.67,9.33,89-281.49,141c-8.24,4.13-17.31,8.37-26.31,6.41-7.78-1.69-13.79-7.68-19.33-13.39-28.19-29.07-108.29-113.37-129.79-133.84-15.78-15-29-26.13-38.72-47.54A111.49,111.49,0,0,1,858.07,627.55Z"
  />
  <path
    class="orange-5-cls-37"
    d="M852.83,635.69a105.33,105.33,0,0,1,10.11-37,836.34,836.34,0,0,0,189.19,189.88L1349,647.89l9.33,89-281.48,141c-8.24,4.13-17.31,8.38-26.32,6.42-7.77-1.7-13.79-7.68-19.33-13.4C1003,841.82,922.94,757.52,901.45,737.06c-15.79-15-29-26.13-38.72-47.54A111.43,111.43,0,0,1,852.83,635.69Z"
  />
  <path
    class="orange-5-cls-36"
    d="M828.48,625.47a115.56,115.56,0,0,1,11.08-40.58A917.35,917.35,0,0,0,1047,793.07l325.52-154.23,10.23,97.57L1074.12,891c-9,4.52-19,9.18-28.85,7-8.53-1.86-15.12-8.42-21.19-14.68-30.91-31.88-118.74-124.3-142.3-146.74C864.47,720.13,850,708,839.33,684.48A122.11,122.11,0,0,1,828.48,625.47Z"
  />
  <path
    class="orange-5-cls-21"
    d="M808.1,589.52l3.91-6.7,204.42,199,36.47,13.47q19.1-10.83,39.32-21.19c111.14-56.84,221.27-87.85,321.4-103.81l5.84,10L1034.19,841.19Z"
  />
  <path
    class="orange-5-cls-5"
    d="M1013.89,788.42,808.1,589.52c24.55,118,53.84,239.25,88.64,363.35q10.88,38.8,22.16,76.88,58.77,70.76,121.19,142.19,20.85,23.85,41.69,47.28l.59.21a1238.41,1238.41,0,0,1-68.48-431Z"
  />
  <path
    class="orange-5-cls-38"
    d="M1419.46,680.25a1543.73,1543.73,0,0,0-366,123.14c2.8,58.57,7.42,120.09,14.38,184.24,9.24,85.15,21.53,165.08,35.58,239.34l1.45.52q15.88-9.54,32.43-18.8c106.64-59.61,213.56-98,314.5-122.23A2095.79,2095.79,0,0,0,1419.46,680.25Z"
  />
  <path
    class="orange-5-cls-14"
    d="M1053.48,803.39l-1.61.77-30.8-8.8-7.18-6.94a1238.41,1238.41,0,0,0,68.48,431l21.07,7.54c-14-74.26-26.34-154.19-35.58-239.34C1060.9,923.48,1056.28,862,1053.48,803.39Z"
  />
  <g class="orange-5-cls-7">
    <path
      class="orange-5-cls-14"
      d="M1104.46,876.77l-5.4,67.81,5.27-2.19c-5.94-7.19-1.14-17.19,4.52-22.87,6-6,13.55-10.11,19.8-15.81a58.74,58.74,0,0,0,18.85-42.23c.06-3.42-5.33-4.28-6.07-.82a140.14,140.14,0,0,0-.94,54.56c.36,2,2.94,2.75,4.54,1.84a48.86,48.86,0,0,0,24.35-33.73c.38-2.15-1.38-4.62-3.8-3.8-8,2.72-12.1,12.24-7.32,19.61a3.12,3.12,0,0,0,5.34,0l9.83-17.74-5.64-2.38c-.9,4.56,1.73,8.28,6.15,9.66a10.88,10.88,0,0,0,12.19-4.08c3.81-4.93,4.25-11.73,5.27-17.65l4.86-28.2h-6l8.49,42.25,6-1.64a15.92,15.92,0,0,1,10.4-19.7l-3.91-3a14.28,14.28,0,0,1-10.35,13.69l3.8,3.8c.92-5,10.83-.17,13.82.14a21.54,21.54,0,0,0,11-1.9c7.1-3.17,12.65-9.4,16.56-16,9.54-16.07,12.92-35.91,11-54.33a3.11,3.11,0,0,0-6.07-.82,138.7,138.7,0,0,0-6.21,71.37c.36,2.08,2.93,2.68,4.54,1.85,30.15-15.57,49.55-49.3,45.86-83.33-.31-2.86-4.1-4.44-5.75-1.56a108.06,108.06,0,0,0-11.93,76.74c.84,3.89,6.8,2.24,6-1.64a101.44,101.44,0,0,1,11.3-72l-5.76-1.56c3.48,32-14.37,63.31-42.8,78l4.54,1.85a132.44,132.44,0,0,1,6.21-68.09l-6.07-.82c2,18.47-1.33,39.84-12.68,55.08-6.06,8.12-13.79,12.68-23.86,9.82-5.76-1.64-14.22-2.13-15.62,5.54-.4,2.19,1.38,4.56,3.8,3.8,8.77-2.74,14.84-10.36,14.88-19.65a3.11,3.11,0,0,0-3.91-3c-11.28,3.72-18.3,15.7-14.72,27.3,1.18,3.83,6.74,2.24,6-1.64l-8.49-42.25c-.59-2.91-5.44-3-6,0l-5.2,30.22c-.61,3.5-.95,7.36-2.31,10.69-.83,2-2.15,4.49-4.51,5-1.23.26-4.94-.29-4.54-2.35.64-3.28-3.85-5.61-5.64-2.38L1158.26,896h5.34a7,7,0,0,1,3.62-10.54l-3.8-3.8a43,43,0,0,1-21.51,30.05l4.54,1.84a131.87,131.87,0,0,1,.94-51.27l-6.07-.82a52.31,52.31,0,0,1-8,27.09c-5.48,8.72-13.33,14.21-21.37,20.31-11.36,8.61-23.23,24.24-12,37.88,1.86,2.26,5.08.21,5.27-2.18l5.4-67.81c.32-4-5.86-3.94-6.18,0Z"
    />
    <path
      class="orange-5-cls-14"
      d="M1269.76,828.45l42.64-20c3.6-1.68.46-7-3.12-5.34l-42.64,20c-3.6,1.69-.47,7,3.12,5.34Z"
    />
    <path
      class="orange-5-cls-14"
      d="M1234.57,801.82l18.89-11.41c3.4-2,.3-7.4-3.12-5.33l-18.89,11.4c-3.39,2.06-.29,7.4,3.12,5.34Z"
    />
  </g>
  <path
    class="orange-5-cls-39"
    d="M1096,958.43l1.94,49.11c.16,4,6.17,4,6.18,0l.07-37-6.07.82c1.43,8,3.92,16.88,12.38,20a12.28,12.28,0,0,0,15.79-6.27c2.67-5.54,2.06-11.9,3.9-17.67,1.23-3.86,4-6.35,8.28-4.93,6,2,7.55,9.16,8.81,14.62.63,2.75,4.25,2.83,5.65.74l16.53-24.61c1.93-2.87-2.66-6.51-4.85-3.75-6,7.56-5.77,17.7.9,24.8,1.48,1.57,3.72.9,4.85-.63a24.35,24.35,0,0,0,3-23.71c-1-2.36-4.18-3.2-5.65-.73-3.08,5.16-2.36,10.8,1.53,15.29a3.12,3.12,0,0,0,4.86-.63l10.35-18.06-5.65-.73,3.66,12.3c1,3.3,6.07,2.72,6.07-.82,0-2.38-.13-4.91.63-7.2a6.83,6.83,0,0,1,2.76-3.92q4.08-2.07,4,2.21c-1.1,2.9,3.16,5.2,5.16,3l24.17-26.59a3.09,3.09,0,0,0-4.36-4.37,16.49,16.49,0,0,0-.54,23.93c1.07,1,10.46,5.58,9.14,7.09l5.16,3c2.08-11.17,4.13-22.35,6.22-33.53.74-4,1.43-8.34,3.7-11.81,3.17-4.85,8.53-4.48,12.16-.2,5.85,6.9,3.6,18.29-2.8,24-7.27,6.48-18.39,5.81-25.84.13v5.33l60.69-33.53-4.54-3.49-4,10.94c-1.18,3.25,4.26,5.61,5.64,2.38l11.74-27.33-5.76-1.56L1286.13,941l5.75-1.55c-5.08-7.84,5.12-13.71,10.81-16.86,6.79-3.77,13.61-7.47,20.41-11.21l41.73-22.9c3.49-1.91.37-7.25-3.12-5.33l-52.38,28.74c-10,5.49-32.71,15.39-22.78,30.67,1.76,2.71,5.44,1.44,5.75-1.56l5.82-55.87c.31-3-4.56-4.33-5.76-1.56l-11.73,27.33,5.64,2.38,4-10.94c1-2.65-2.33-4.7-4.54-3.48L1225,932.37c-2.23,1.23-1.74,4,0,5.33,9.44,7.2,23.71,7.26,32.81-.62,8.34-7.21,11.22-20.62,5.45-30.27s-18.38-11.18-24.33-.93c-3.25,5.6-3.93,12.42-5.09,18.66l-5.11,27.61c-.52,2.76,3,5.53,5.16,3,4.42-5,.74-10.57-4.4-13.15-3.59-1.8-6.51-3.35-7.53-7.58a10.13,10.13,0,0,1,3.32-10.28l-4.36-4.37-24.17,26.59,5.16,3c2.29-6-3.78-11.76-9.77-10.51-8.28,1.73-9.79,10.69-9.78,17.78l6.07-.83-3.66-12.3a3.13,3.13,0,0,0-5.65-.74l-10.35,18.06,4.85-.62a6.21,6.21,0,0,1-.57-7.81l-5.64-.73a18.75,18.75,0,0,1-2.39,18.94l4.85-.62a12.28,12.28,0,0,1-.89-16.06l-4.85-3.74L1147.6,974.8l5.65.74c-1.83-7.89-4.79-16.52-13.4-19.06-6.29-1.86-12.25,1.28-14.8,7.15-2.44,5.66-1.7,12.08-3.85,17.79-1.65,4.36-5.72,6-10,3.53-5.22-3-6.19-9.8-7.15-15.21-.62-3.49-6.06-2.58-6.07.82l-.07,37h6.18l-2-49.11c-.15-4-6.33-4-6.17,0Z"
  />
  <path
    class="orange-5-cls-40"
    d="M1343.44,966.39a69.52,69.52,0,0,1,68.45,18.88,69.55,69.55,0,1,0-108.81,85.58,69.59,69.59,0,0,1,40.36-104.46Z"
  />
  <path
    class="orange-5-cls-41"
    d="M1371.54,1089.73a69.6,69.6,0,0,0,40.35-104.46,69.56,69.56,0,0,0-108.81,85.58A69.54,69.54,0,0,0,1371.54,1089.73Z"
  />
  <circle class="orange-5-cls-42" cx="1333.3" cy="1053.12" r="18.5" />
  <circle class="orange-5-cls-43" cx="1396.23" cy="1035.94" r="18.5" />
  <rect
    class="orange-5-cls-44"
    x="1358.34"
    y="1044.91"
    width="10.69"
    height="5.04"
    rx="2.52"
    transform="matrix(0.96, -0.26, 0.26, 0.96, -227.69, 396.06)"
  />
  <rect
    class="orange-5-cls-44"
    x="1359.81"
    y="1050.3"
    width="10.69"
    height="5.04"
    rx="2.52"
    transform="translate(-229.05 396.64) rotate(-15.27)"
  />
  <circle cx="1355.65" cy="1041.2" r="1.98" />
  <circle cx="1366.7" cy="1038.18" r="1.98" />
  <g class="orange-5-cls-22">
    <path
      class="orange-5-cls-4"
      d="M1166.34,778.34c-22.63,9.44-45.1,19.3-67.22,29.9-10.19,4.89-14.86,7.43-18.35,10.61,0,0-1.52,1.46-2.94,3.12-6.14,7.19-7.31,47.24-3.3,100.77,4.78-48.34,21.83-76.41,37.9-93.49,40.13-42.62,108.74-53.49,106.13-66.22-.27-1.31-1.42-3.31-6.54-5C1192.94,767,1177.16,773.83,1166.34,778.34Z"
    />
  </g>
  <g class="orange-5-cls-22">
    <path
      class="orange-5-cls-4"
      d="M1234.48,748.43c-2.57,2.84-2,7.17-.07,9.73,2.89,3.86,9.38,4.49,12.24,1.34,3-3.34,1.31-10.17-3.1-12.43C1240.92,745.72,1236.91,745.76,1234.48,748.43Z"
    />
  </g>
  <g class="orange-5-cls-11">
    <path
      class="orange-5-cls-35"
      d="M1005,795q-20.41-21.79-41.39-43.66Q891.33,676,819.41,607.14a1009,1009,0,0,1,195.25,336.64Z"
    />
  </g>
  <path
    class="orange-5-cls-1"
    d="M861.71,824.21c-10.4,9.74-11.06,23.09-11.5,32-1.51,30.74,19.48,51.61,25.71,57.81,11.54,11.48,19.4,12.65,22.44,12.9,2.58.21,13.23.69,20.26-7a19,19,0,0,0,5.27-13.1c0-1.09-.32-9-5.59-12.23-6.15-3.81-15.33,1-15.64.09S911,892,916.75,885c.42-.5,7.73-9.54,4.26-15.69-2.69-4.74-10.15-4.83-12.5-4.86A22.58,22.58,0,0,0,895,869a70.26,70.26,0,0,0,12.85-7.09c6.11-4.25,9.48-6.67,10.25-10.87s-1.17-9.45-4.3-10.43-5.31,3.16-11.42,4.73a20.16,20.16,0,0,1-11.3-.62c4.9-.29,9.93-.61,14.43-2.57s8.46-5.94,9-10.82c.67-6.31-4.85-10.92-6-11.86-2.28-1.92-5.83-3.91-13-4.51C889.68,814.48,873.53,813.13,861.71,824.21Z"
  />
  <path
    class="orange-5-cls-28"
    d="M907.27,826.89c-2.7,1.58-2.39,4.18-4.41,6.3-1.8,1.9-4.35,2.21-7.05,2.54s-4.83-.33-8.78.67a5.76,5.76,0,0,0-2.81,1.4,2.7,2.7,0,0,0-.69,2.9c.72,1.59,2.92,1.62,4.65,1.41,7.4-.91,15.4-2.1,20.61-7.43a6.6,6.6,0,0,0,2.29-4.89c-.07-1.18-.64-3-1.9-3.33A2.43,2.43,0,0,0,907.27,826.89Z"
  />
  <path
    class="orange-5-cls-28"
    d="M914,850.47c-.23-.36-2,.29-5.41,1.61-6.06,2.31-9.09,3.46-12.4,5.81a33.81,33.81,0,0,0-6.92,6.56,36.62,36.62,0,0,0,11.55-3.21C908.55,857.65,914.67,851.43,914,850.47Z"
  />
  <path
    class="orange-5-cls-28"
    d="M915.07,871.16c-1.19.65.19,3.51-1.31,5.67-.84,1.21-2.14,1.43-4.56,2.13l-14.67,4.25a9.87,9.87,0,0,0-4.47,2.18c-1.17,1.2-1.58,3.32-.42,4.52,1,1,2.83.92,4.16.75,9.31-1.21,14-1.81,18.37-5.66,3.75-3.28,8-9.25,6.26-12.25C917.72,871.48,915.92,870.68,915.07,871.16Z"
  />
  <path
    class="orange-5-cls-28"
    d="M916.68,917.27c4.07-5.51,3.16-13.57,1.47-14-1.39-.39-1.77,4.83-6.29,7.1-5.58,2.81-15.28-.25-22.19-3.73-1.54-.78-3.14-1.68-4.85-1.55-3.06.23-5,3.89-4.26,6.87s3,4.76,6,6.65,10.16,6.48,19.39,4.58C908.54,922.6,913.49,921.58,916.68,917.27Z"
  />
  <g class="orange-5-cls-3">
    <path
      class="orange-5-cls-4"
      d="M879.42,823.83C865.08,831.46,863.33,842,863.33,842a9,9,0,0,0,.95,6.48c1.21,1.88,3.86,3,5.79,1.84,2.42-1.42,2.25-4.87,2.47-7.66a17.22,17.22,0,0,1,10.24-14.21c1-.44,2.22-.85,2.75-1.85s-.21-2.79-1.34-3.45-2.87-.12-4,.3A8,8,0,0,0,879.42,823.83Z"
    />
  </g>
  <path
    class="orange-5-cls-1"
    d="M1423.68,824.68c-13.63,1.28-22.43,5.82-38.29,14-12.21,6.29-16.52,10.46-18.76,15.93s-3.19,13.94.94,17.32c7.46,6.1,28.24-7.6,28.81-6.48.43.84-12.79,5.89-21,18.25-1,1.48-9.68,15-4.86,21.41,4.65,6.22,19.1,2.21,24,.84,14.83-4.11,24.59-13.17,24.52-13.28a171.55,171.55,0,0,1-23,14.12c-7.63,3.94-8.75,3.88-11.71,6.37-7.71,6.5-14.08,18.7-9.83,24.43,3.75,5.06,13.56,3.61,16,3.24,7.15-1.06,10-4.24,19.08-8.6a97.3,97.3,0,0,1,18.2-6.6c-38.47,15.63-44.79,24.74-44,30,.83,5.56,10,9,12,9.72,7.77,2.91,15.72,2,28.84-2.57,19.67-6.83,29.83-10.36,40.62-20.52,5.67-5.35,24.17-24.46,24.61-54.34.09-6.06.73-37.95-22.7-54.59C1451.36,822.08,1433,823.8,1423.68,824.68Z"
  />
  <path
    class="orange-5-cls-28"
    d="M1396.23,853.36c-10.39,3.7-15.2,7.35-23.25,12a4.1,4.1,0,0,0-1.91,2.14c-.54,1.72,1.17,3.48,3,3.71s3.53-.59,5.15-1.39l22.67-11.13c1.52-.75,3.27-1.88,3.17-3.57a3.32,3.32,0,0,0-2.08-2.38c-.26-.11-1-.42-3.33-.11A19.32,19.32,0,0,0,1396.23,853.36Z"
  />
  <path
    class="orange-5-cls-28"
    d="M1401.05,887.33c-7.16,3.71-9.52,2.09-20.81,7.23-2.21,1-5,2.38-5,4.24a3.62,3.62,0,0,0,2.37,3.05,9.16,9.16,0,0,0,4,.43,46.85,46.85,0,0,0,32-15.5c.45-.51,1.22-2.3.63-3s-1.78-.18-2.38,0C1405.14,885.91,1401.77,887,1401.05,887.33Z"
  />
  <path
    class="orange-5-cls-28"
    d="M1415.5,911.82c-7.25,2.26-19.1,9.81-26.12,13.52a8.78,8.78,0,0,0-3.83,3.83c-.77,1.66-.45,4,1.16,4.84,1.46.78,3.25.12,4.77-.54l24.42-10.72a15.39,15.39,0,0,0,5-3c.44-.46,2.39-3,1.39-5.39-.87-2.08-3.47-2.76-5-2.78A5.74,5.74,0,0,0,1415.5,911.82Z"
  />
  <path
    class="orange-5-cls-28"
    d="M1421.51,946.11c-6.71,2.75-12.75,7.54-19.89,8.82a9.1,9.1,0,0,0-4,2,4,4,0,0,0-1.39,4c.8,2.49,4.18,2.75,6.78,2.44a105,105,0,0,0,73.93-45.55c1.3-2,2.58-4.08,2.77-6.44s-1.28-5-3.28-5.66c-2.84-.92-6.35,2.73-7.69,4.09S1440.56,938.3,1421.51,946.11Z"
  />
  <g class="orange-5-cls-3">
    <path
      class="orange-5-cls-4"
      d="M1507.2,831.74c-34,18.35-45.25,20.14-55.84,17.91-10.12-2.14-20-7.84-26.46-3.08-5,3.69-5.83,11.26-3.05,16.78s8.37,9.15,14.22,11.15c19.38,6.62,40.29-2.36,58.79-11.15l95.88-45.57L1638.6,795c3.8-1.8,7.7-3.68,10.52-6.8s4.3-7.83,2.49-11.62c-2.17-4.55-8.22-5.23-10.12-5.36h-.26c-3.41-.17-21.52.77-33.31,4.67C1588,782.49,1545.93,810.82,1507.2,831.74Z"
    />
  </g>
  <path
    class="orange-5-cls-4"
    d="M1211.14,586.36c-.82.2-2.54.64-3.23,1.93-.87,1.64.45,3.72,1,4.58,7.14,11.44,6.74,17,11.33,17.79,7,1.15,15.62-10.76,16.86-20.44.4-3.1-.19-4.29-.68-5C1233.39,580.92,1222.83,583.5,1211.14,586.36Z"
  />
  <path
    d="M1186.46,593.12l55.38-5.55c2.4-.24,4.75-2,4.63-4.63-.1-2.31-2-4.89-4.63-4.64l-55.38,5.55c-2.4.24-4.75,2-4.63,4.64.1,2.3,2.05,4.89,4.63,4.63Z"
  />
  <path
    class="orange-5-cls-45"
    d="M1165.22,530.42c-4.62-.95-4.67-3.14-11.51-8.41-3.78-2.91-8.85-5.12-13.25-3.26-5,2.08-6.71,8.77-4.7,13.76s6.77,8.36,11.74,10.41a38.59,38.59,0,0,0,45.64-12.56c1.82-2.45,3.35-5.91,1.57-8.38-1.22-1.71-4.07-2-6-1.57-2.75.53-4.38,2.44-5.53,3.58C1178.51,528.6,1170.61,531.53,1165.22,530.42Z"
  />
  <path
    d="M1121,499.49a47.47,47.47,0,0,0,18.12,37.56,43.4,43.4,0,0,0,21.06,8.88,36.06,36.06,0,0,0,28.13-9.11,42,42,0,0,0,10.85-15.28c.75-1.84-2.24-2.64-3-.82-.16.4.14-.28-.12.29-.17.36-.33.73-.51,1.09-.46,1-1,1.9-1.51,2.82a40.83,40.83,0,0,1-5.76,7.64,33.44,33.44,0,0,1-24.65,10.52c-7.91-.14-15.48-3.26-21.83-7.86-1-.72-1.38-1-2.38-1.85a40.69,40.69,0,0,1-5.26-5.24,41.3,41.3,0,0,1-6.71-11.42,47.25,47.25,0,0,1-3.36-17.22,1.55,1.55,0,0,0-3.09,0Z"
  />
  <g class="orange-5-cls-11">
    <path
      class="orange-5-cls-2"
      d="M1658.87,369.79a505.17,505.17,0,0,1-37.07,333.62,256.49,256.49,0,0,1,157.55,102c-.91-85.14-15.26-150.06-28.47-194.07-12.17-40.51-32.52-92.09-73.47-195.17C1669.65,396.61,1663.2,380.53,1658.87,369.79Z"
    />
  </g>
  <g class="orange-5-cls-11">
    <path
      class="orange-5-cls-2"
      d="M1649.61,1018.51c-.43,48.44-7.88,144.57-64.14,247.23-69.44,126.72-172.31,188.68-215.11,211.37,3.92,12.86,16.06,21.86,29,25.67s26.61,3.29,40,2.73c94.17-3.93,124-7.13,172.72-29.91,90.43-42.24,128.72-156.82,139.48-188.34,21.29-62.32,23.46-115.68,27.8-222.41,2.5-61.28,1.47-112.37,0-148.28a212.58,212.58,0,0,1-129.74,101.94Z"
    />
  </g>
  <g class="orange-5-cls-3">
    <path
      class="orange-5-cls-4"
      d="M1014.39,22.94c-.59-.06-3.45-.39-4.9,1.29-3.4,3.92,3.07,16.35,11.76,23.77,2.08,1.78,10.22,8.77,14.28,6.08,2.83-1.87,3.12-7.67,1.2-11.64-1.73-3.57-4.29-3.7-10.1-8C1019.41,29.08,1019.32,23.51,1014.39,22.94Z"
    />
  </g>
  <g class="orange-5-cls-3">
    <path
      class="orange-5-cls-4"
      d="M1105.8,22.14a19.72,19.72,0,0,0-2.1,16.25c1.6,5,6.29,12.64,11.06,11.63,3.67-.77,6.08-4.54,6.49-8.27.37-3.46-.14-6-2-11-2.1-5.75-4.8-13.18-8.51-13.16C1108.64,17.64,1107.08,20.12,1105.8,22.14Z"
    />
  </g>
  <g class="orange-5-cls-3">
    <path
      class="orange-5-cls-4"
      d="M1108,67.4c-15.16-.48-22.73-.72-23.09.92-.19.86,1.07,2.61,50.64,19.11,14.14,4.71,21,6.9,22.85,4.33,2.13-3-3.28-11.9-10.41-17.29C1144.66,71.93,1138.53,68.37,1108,67.4Z"
    />
  </g>
  <path
    class="orange-5-cls-5"
    d="M1163.54,1541.42c9.82,2.58,20.2-.3,29.79-3.65a293.7,293.7,0,0,0,81.5-44c6.69-5.13,13.38-10.83,16.79-18.54,2.74-6.16,2.72-13.94-.8-19.45-16.35-16.13-44.33-35.89-77.45-26.89-44.15,12-54.89,63.54-57.86,77.77-1.45,6.95-3.7,17.41-3.31,27.76A23.55,23.55,0,0,0,1163.54,1541.42Z"
  />
  <path
    class="orange-5-cls-35"
    d="M1306.13,1473.62a132.93,132.93,0,0,0-15.31-17.86c3.52,5.51,3.54,13.29.8,19.45-3.41,7.71-10.1,13.41-16.79,18.54a293.7,293.7,0,0,1-81.5,44c-9.59,3.35-20,6.23-29.79,3.65a23.55,23.55,0,0,1-11.34-7c.33,9.06,2.7,18,9.41,24.5,12.45,12,32.23,11,49.2,7.74a284,284,0,0,0,85-31.26c13.5-7.6,19.12-12.77,21.83-20.38C1323.43,1498.76,1311.34,1481.18,1306.13,1473.62Z"
  />
</svg>
