<svg
  id="blueberry-octo-level-three"
  data-name="blueberry-octo-level-three"
  xmlns="http://www.w3.org/2000/svg"
  xmlns:xlink="http://www.w3.org/1999/xlink"
  viewBox="0 0 1089 1440"
>
  <defs>
    <style>
      .cls-blueberry-octo-level-three-1 {
        fill: #00d389;
      }
      .cls-blueberry-octo-level-three-2 {
        fill: #00f68b;
      }
      .cls-blueberry-octo-level-three-3 {
        fill: #1600cb;
      }
      .cls-blueberry-octo-level-three-4 {
        fill: #2501fd;
      }
      .cls-blueberry-octo-level-three-5 {
        fill: #ff317d;
      }
      .cls-blueberry-octo-level-three-6 {
        fill: #070707;
      }
      .cls-blueberry-octo-level-three-7 {
        fill: url(#blueberry-octo-level-three-gradient-752);
      }
      .cls-blueberry-octo-level-three-8 {
        fill: url(#blueberry-octo-level-three-gradient-752-2);
      }
      .cls-blueberry-octo-level-three-9 {
        fill: #fff;
      }
      .cls-blueberry-octo-level-three-10 {
        fill: #130093;
      }
      .cls-blueberry-octo-level-three-11 {
        opacity: 0.2;
      }
    </style>
    <radialGradient
      id="blueberry-octo-level-three-gradient-752"
      cx="345.99"
      cy="930.4"
      r="57.69"
      gradientUnits="userSpaceOnUse"
    >
      <stop offset="0" stop-color="#d20c2b" />
      <stop offset="1" stop-color="#d20c2b" stop-opacity="0" />
    </radialGradient>
    <radialGradient
      id="blueberry-octo-level-three-gradient-752-2"
      cx="759.03"
      cy="930.4"
      r="57.69"
      xlink:href="#blueberry-octo-level-three-gradient-752"
    />
  </defs>
  <path
    class="cls-blueberry-octo-level-three-1"
    d="M295.12,273.5c-60.05-37.89-94.46-59.6-140.9-65.16C89.9,200.64,34.38,227.71,0,250.43L87.72,371.82c33.85,46.83,68.72,94.68,116.72,126.86,82,55,198.13,53.23,278.45-4.22-30.51-81-74.48-130.75-102-157.06C351,308.78,323.26,291.25,295.12,273.5Z"
  />
  <path
    class="cls-blueberry-octo-level-three-2"
    d="M462.5,225c-15.67-69.25-24.65-108.93-53.56-145.71-40-50.92-98.43-71-138.81-79.28q-11.89,73.94-23.8,147.86c-9.19,57-18.36,115.55-7.18,172.24C258.27,417,341.61,497.84,439,514c35.68-78.82,39.79-145.12,39-183.15C477.1,289.48,469.85,257.44,462.5,225Z"
  />
  <path
    class="cls-blueberry-octo-level-three-3"
    d="M729,234a116.51,116.51,0,0,0-63.11,18.46,117,117,0,0,0-197.78,0,117,117,0,1,0,35.78,161.08,117.11,117.11,0,0,0,126.22,0A117,117,0,1,0,729,234Z"
  />
  <path
    class="cls-blueberry-octo-level-three-4"
    d="M956.27,957.05c36.91-76.1,51.53-164.83,35.45-257.88C961.57,524.76,823.29,387.54,647.35,357.5c-269.18-46-502.71,158.23-502.71,416.5a418.28,418.28,0,0,0,45.28,189.81,59.79,59.79,0,0,1-23.23,78.86C98.65,1082,57.42,1162,76.79,1249c15.9,71.47,73.16,127.16,145.5,141.87,123,25,231.08-67.43,231.08-184.89a188.06,188.06,0,0,0-1.76-25.71.13.13,0,0,1,.17-.14,432.77,432.77,0,0,0,258.35-6,.13.13,0,0,1,.18.15,188.26,188.26,0,0,0-2.69,31.7c0,102.18,81.82,185.43,184.07,188.89C1001.14,1398.59,1091,1311,1089,1202.5c-1.33-72.58-43.94-135.15-105.54-165.66A59.75,59.75,0,0,1,956.27,957.05Z"
  />
  <path
    class="cls-blueberry-octo-level-three-5"
    d="M99,1303.51a227.7,227.7,0,0,0,81.62,21.9c130.91,9.36,223.27-103.34,236-119.41,10.21,20.63,20.07,42,21,64.29,1,24.43-9.11,48.74-26,68.56-23.48,27.52-51.83,40.46-66.17,46.31-14.1,5.77-74.15,30.3-142.24,8.44a174.63,174.63,0,0,1-53.78-28.55A180.38,180.38,0,0,1,99,1303.51Z"
  />
  <path
    class="cls-blueberry-octo-level-three-5"
    d="M1062,1303.51a227.7,227.7,0,0,1-81.62,21.9c-130.91,9.36-223.27-103.34-236-119.41-10.21,20.63-20.07,42-21,64.29-1,24.43,9.11,48.74,26,68.56,23.48,27.52,51.83,40.46,66.17,46.31,14.1,5.77,74.15,30.3,142.24,8.44a174.63,174.63,0,0,0,53.78-28.55A180.38,180.38,0,0,0,1062,1303.51Z"
  />
  <path
    class="cls-blueberry-octo-level-three-6"
    d="M55.1,671.55a1.5,1.5,0,0,0,0-3,1.5,1.5,0,0,0,0,3Z"
  />
  <path
    class="cls-blueberry-octo-level-three-7"
    d="M332.41,873.71c-26.55,6.23-46.4,33.51-44.25,60.69s25.94,51,53.12,53.23c35.07,2.89,67.89-32.68,62-67.37s-48.82-57.46-80.75-42.68"
  />
  <path
    class="cls-blueberry-octo-level-three-8"
    d="M745.45,873.71c-26.55,6.23-46.4,33.51-44.25,60.69s25.94,51,53.12,53.23c35.07,2.89,67.89-32.68,62-67.37s-48.82-57.46-80.76-42.68"
  />
  <circle class="cls-blueberry-octo-level-three-9" cx="378" cy="783" r="90" />
  <circle class="cls-blueberry-octo-level-three-9" cx="720" cy="783" r="90" />
  <circle class="cls-blueberry-octo-level-three-6" cx="702" cy="783" r="72" />
  <circle class="cls-blueberry-octo-level-three-6" cx="396" cy="783" r="72" />
  <path
    class="cls-blueberry-octo-level-three-9"
    d="M583.82,976.93c-7.13-5-9.63-12.8-14.32-28.26-3.08-10.13-3-13.35-1.32-15.77,2.23-3.11,6.31-4.33,10.13-4.56,10.71-.65,24.72,6.6,28.81,19.7,4.3,13.76-2.67,30.92-12,32.79C590.71,981.72,586.67,978.91,583.82,976.93Z"
  />
  <path
    class="cls-blueberry-octo-level-three-10"
    d="M558,837a90,90,0,1,0,90,90A90,90,0,0,0,558,837Zm0,135a45,45,0,1,1,45-45A45,45,0,0,1,558,972Z"
  />
  <path
    class="cls-blueberry-octo-level-three-10"
    d="M594,1251c0-104.38-84.62-189-189-189a189.07,189.07,0,0,0-181.36,135.68c6.71-8.88,16.3-18.18,29.37-23.15,40.24-15.27,85.7,10.2,112,44.29,34.15,44.32,29,69.78,62.83,112.59,27.53,34.84,64.68,53.9,98,64.93A188.57,188.57,0,0,0,594,1251Z"
  />
  <path
    class="cls-blueberry-octo-level-three-4"
    d="M592.71,1258.18a169.18,169.18,0,0,0-302.79-125.29c-5.32,7.08,1.22,16.82,9.85,14.81l.36-.09c37.58-8.48,74.66,19.8,93.66,53.31,24.7,43.55,16.95,65.48,41.55,107.66,18.86,32.35,47.05,53.35,73.79,67.34a9.38,9.38,0,0,0,9.55-.48A168.74,168.74,0,0,0,592.71,1258.18Z"
  />
  <path
    class="cls-blueberry-octo-level-three-5"
    d="M427.81,1331.41C394,1288.6,399.13,1263.14,365,1218.82c-26.27-34.09-71.73-59.56-112-44.29-13.07,5-22.66,14.27-29.37,23.15A189.16,189.16,0,0,0,216,1251c0,104.38,84.62,189,189,189a188.19,188.19,0,0,0,120.81-43.66C492.49,1385.31,455.34,1366.25,427.81,1331.41Z"
  />
  <path
    class="cls-blueberry-octo-level-three-10"
    d="M513,1251c0-104.38,84.62-189,189-189a189.07,189.07,0,0,1,181.36,135.68c-6.71-8.88-16.3-18.18-29.37-23.15-40.24-15.27-85.7,10.2-112,44.29-34.15,44.32-29,69.78-62.83,112.59-27.53,34.84-64.68,53.9-98,64.93A188.57,188.57,0,0,1,513,1251Z"
  />
  <path
    class="cls-blueberry-octo-level-three-4"
    d="M514.29,1258.18a169.18,169.18,0,0,1,302.79-125.29c5.32,7.08-1.22,16.82-9.85,14.81l-.36-.09c-37.58-8.48-74.66,19.8-93.66,53.31-24.7,43.55-17,65.48-41.55,107.66-18.86,32.35-47,53.35-73.79,67.34a9.38,9.38,0,0,1-9.55-.48A168.74,168.74,0,0,1,514.29,1258.18Z"
  />
  <path
    class="cls-blueberry-octo-level-three-5"
    d="M679.19,1331.41c33.82-42.81,28.68-68.27,62.83-112.59,26.27-34.09,71.73-59.56,112-44.29,13.07,5,22.66,14.27,29.37,23.15A189.16,189.16,0,0,1,891,1251c0,104.38-84.62,189-189,189a188.19,188.19,0,0,1-120.81-43.66C614.51,1385.31,651.66,1366.25,679.19,1331.41Z"
  />
  <g class="cls-blueberry-octo-level-three-11">
    <path
      d="M1089,1202.5c-1.33-72.58-43.94-135.15-105.54-165.66a59.75,59.75,0,0,1-27.16-79.79c36.91-76.1,51.53-164.83,35.45-257.88C961.57,524.76,823.29,387.54,647.35,357.5q-15.78-2.7-31.38-4.26C679.41,383.43,780.55,447.17,837,567c10.29,21.84,67.52,143.32,36,279-15.75,67.78-40.42,82.21-32.58,129.62,13.43,81.19,93.47,85.4,133.44,185.34,8.09,20.23,38.43,96.08,1.33,167-19.79,37.85-51.68,60.75-80.05,74.45a189.1,189.1,0,0,0,62.66-8.85,174.63,174.63,0,0,0,53.78-28.55,180.38,180.38,0,0,0,50.42-61.54l-.31.14A187.07,187.07,0,0,0,1089,1202.5Z"
    />
  </g>
</svg>
