<svg
  id="red_5"
  data-name="red_5"
  xmlns="http://www.w3.org/2000/svg"
  xmlns:xlink="http://www.w3.org/1999/xlink"
  viewBox="0 0 1654.7 1963.1"
>
  <defs>
    <radialGradient
      id="red-level-five-gradient-266"
      cx="1320.8"
      cy="387.3"
      fx="1333.2"
      fy="358.2"
      r="100"
      gradientTransform="matrix(1.03 0 0 .88 -37.7 1245.7)"
      gradientUnits="userSpaceOnUse"
    >
      <stop offset=".4" stop-color="#ff3059" />
      <stop offset=".8" stop-color="#ff7281" />
    </radialGradient>
    <radialGradient
      id="red-level-five-gradient-266-2"
      cx="1433.9"
      cy="1506"
      fx="1433.9"
      fy="1506"
      r="66.1"
      xlink:href="#red-level-five-gradient-266"
    />
    <style>
      .cls-3-red-level-five {
        fill: #d11022;
      }
      .cls-5-red-level-five {
        fill: #fd0300;
      }
      .cls-6-red-level-five {
        fill: #da1a0e;
      }
      .cls-7-red-level-five {
        fill: #af1d26;
      }
      .cls-8-red-level-five {
        fill: #87ff7b;
      }
      .cls-9-red-level-five {
        fill: #00f082;
      }
      .cls-10-red-level-five {
        fill: #663606;
      }
      .cls-11-red-level-five {
        fill: #625300;
      }
      .cls-15-red-level-five {
        fill: #ffc2ff;
      }
      .cls-16-red-level-five {
        fill: #070707;
      }
      .cls-19-red-level-five,
      .cls-20-red-level-five,
      .cls-21-red-level-five,
      .cls-22-red-level-five,
      .cls-29-red-level-five {
        fill: #fff;
      }
      .cls-20-red-level-five {
        opacity: 0.6;
      }
      .cls-21-red-level-five,
      .cls-26-red-level-five {
        opacity: 0.2;
      }
      .cls-22-red-level-five,
      .cls-39 {
        opacity: 0.8;
      }
      .cls-23-red-level-five {
        fill: #fc4401;
      }
      .cls-24-red-level-five {
        fill: #ea001e;
      }
      .cls-25-red-level-five,
      .cls-29-red-level-five {
        opacity: 0.3;
      }
      .cls-27-red-level-five {
        opacity: 0.15;
      }
      .cls-28-red-level-five {
        fill: #e72500;
      }
      .cls-30-red-level-five {
        opacity: 0.1;
      }
      .cls-36-red-level-five {
        fill: #ff9d93;
      }
    </style>
  </defs>
  <path
    d="M1231 1573.8c.8-6.8 7.1-54.1 55-72.5 50.3-19.3 98.2 12 101.2 14.1a91.8 91.8 0 0 1 39.3 82 86.3 86.3 0 0 1-45 69.6 113.2 113.2 0 0 1-91.4 5.9 93.1 93.1 0 0 1-59.2-99Z"
    style="fill: url(#red-level-five-gradient-266)"
  />
  <path
    d="M1404.6 1565.3a68.3 68.3 0 0 1-34.7-55c-1.8-30.5 18.3-66.3 53.8-71.6 34.8-5.2 65.2 21.6 72.5 52.4 8.3 35-13.8 71.7-44 80.8a63.7 63.7 0 0 1-47.6-6.6Z"
    style="fill: url(#red-level-five-gradient-266-2)"
  />
  <path
    class="cls-3-red-level-five"
    d="M1249.2 1502c72.8 61 48.8 223.3-32.6 314.6-12.3 13.9-99.8 108.8-215.1 83.4-79.3-17.5-144.4-92-143.9-173.2.4-53.8 24.8-93.7 41.2-118.3 51.7-77.2 129.6-103 155.6-111.2 40.2-12.7 137.6-43.3 194.8 4.7Z"
  />
  <path
    d="M1109.7 1775.5c-108.8 44.6-216 24.6-294.6 9.4-119.3-23.1-222-38.8-255.3-110.7-16.6-35.7-23.8-101.3-24.3-106.1-.9-8.6-1-11.3-1.2-84.5-.3-85.6.8-129.7 26-159a68 68 0 0 1 6.8-6.8c21.2-18.5 44.2-19.7 79.5-24 110-13.5 131.8-34 177.3-44 9.2-2 29-5.3 58.8-6 66.3-1.3 141.5-2.8 202.6 22.3 123.3 50.4 206 215.5 177 339.4a264 264 0 0 1-49.9 100c-7.6 9-38 43.5-102.7 70Z"
    style="fill: #bcbdf3"
  />
  <path
    class="cls-5-red-level-five"
    d="M691.9 1911.3c34.3-11.1 69.7-29.9 84-63 9.2-21 8.5-44.9 6.8-67.7a826.6 826.6 0 0 0-27.7-157.3 405.7 405.7 0 0 0-209.1 52.2c-7.3 47.9-3.6 92 2 124.9a91.4 91.4 0 0 0-24.8 32 90.6 90.6 0 0 0 7.6 87 75.1 75.1 0 0 0 5.8 7.3 373 373 0 0 0 155.4-15.4Z"
  />
  <path
    class="cls-6-red-level-five"
    d="M755 1623.3a829.8 829.8 0 0 0-59.7-153.8c-54.5 3-87 56.1-108.4 91.6a310.1 310.1 0 0 0-41 114.4 405.7 405.7 0 0 1 209.1-52.2Z"
  />
  <path
    class="cls-3-red-level-five"
    d="M839.6 1645.9c-21.5-15.9-51.2-21.3-78.8-22.4l-5.8-.2a826.6 826.6 0 0 1 27.7 157.3c1.7 22.8 2.4 46.7-6.7 67.7-14.4 33.1-49.8 51.9-84.1 63a373 373 0 0 1-155.5 15.4c40.7 45 130 36.6 156.2 34.1 31.7-3 88.3-8.3 127.5-46.5 35.5-34.6 31-107.5 20.8-252l-1.3-16.4Z"
  />
  <path
    class="cls-7-red-level-five"
    d="M760.8 1623.5c27.6 1.1 57.3 6.5 78.8 22.4-5-54.9-14-79.7-30.8-108.6-22.3-38.4-66.2-70.3-113.3-67.8h-.2a829.8 829.8 0 0 1 59.7 153.8l5.8.2Z"
  />
  <path
    class="cls-8-red-level-five"
    d="M532.3 104.6a143.4 143.4 0 0 0 86 119 86.6 86.6 0 0 0-8.6-39.5 91 91 0 0 0-25.5-31.5c-13.2-10.7-19-9.7-30.6-19.6a83.1 83.1 0 0 1-21.3-28.4ZM609.7 314a173 173 0 0 0-52.5-106.6 169.9 169.9 0 0 0-82.9-42.2 123.6 123.6 0 0 1 23.5 21.5c10.7 12.7 15 23.6 24.8 46.9C537 267 544.2 284 548 288.4c9.5 10.9 27 22.8 61.7 25.5ZM501.4 310a188.1 188.1 0 0 1 39 30.9c16.3 16.8 21.3 28.5 34.2 31.5 8.2 1.8 20.8.4 39.1-15.1a76.7 76.7 0 0 1-31-12c-13-8.7-16-17-24.6-24.3-9.2-8-25.6-15.1-56.7-11ZM620 422.1c-16.9-3.5-24.9-14.2-35.3-20.8s-27.4-12.1-57.5-5.4a103 103 0 0 0 31.2 41.3c12.4 9.6 28 21.9 47.2 18 23.2-4.8 33.6-29.7 34.8-32.8a54 54 0 0 1-20.4-.3ZM621 153a77.7 77.7 0 0 1-34.3-52.8c-5.5-40.1 25-66.6 27-68.2-1.9 34.3 4.9 56 12 70 3.1 6 10.2 18.2 7 32a38.4 38.4 0 0 1-11.7 19Z"
  />
  <path
    class="cls-9-red-level-five"
    d="M689.9 360.6A256.3 256.3 0 0 0 827 497.8l2.3-1a163.2 163.2 0 0 1-42.8-62c-16.4-43.6-2.8-70.3-8.1-113.8-6.6-54-34.9-72-65.9-126.8-23-40.5-48.2-102.8-53.2-194.2L657 3.6l6.3 184.7c2 58.4 4.3 118.1 26.5 172.3Z"
  />
  <path
    class="cls-8-red-level-five"
    d="M689.9 360.6c-22.2-54.2-24.5-114-26.5-172.3L657.1 3.6a613.2 613.2 0 0 0-86.9 231c-14.4 93.6 2.3 138.6 7.2 150.8 7.5 18.7 32.5 81.1 101.3 111.5 68.2 30.2 131.6 7.7 148.4 1A256.5 256.5 0 0 1 690 360.5Z"
  />
  <path
    class="cls-9-red-level-five"
    d="M651 115.3a55.4 55.4 0 0 1-30.1 30.7 85.2 85.2 0 0 1 31.3 25.6ZM649.4 185.7a55.4 55.4 0 0 1-30.2 30.7 85.2 85.2 0 0 1 31.3 25.5ZM647.1 255.8a55.4 55.4 0 0 1-25.6 34.6 85.5 85.5 0 0 1 34.6 21ZM659.7 327.2a55.3 55.3 0 0 1-21.5 37.3 85.2 85.2 0 0 1 36.8 16.8ZM678.3 394.4a55.4 55.4 0 0 1-10.4 41.7 85.4 85.4 0 0 1 40 6.2ZM716.2 448.6a55.3 55.3 0 0 1 6.5 42.6 85.6 85.6 0 0 1 39.2-9.7Z"
  />
  <path
    class="cls-10-red-level-five"
    d="M872.9 384.7a301.4 301.4 0 0 1 154.3-107.6l-57.7-47.7a322 322 0 0 0-148 152c-38.1 83-28.9 158.5-24 186.8l16.5 1A301.3 301.3 0 0 1 873 384.7Z"
  />
  <path
    class="cls-11-red-level-five"
    d="M1027.2 277a301.5 301.5 0 0 0-154.3 107.7A301.3 301.3 0 0 0 814 569.2l2.2.1C825.5 536 857.6 436 956 369a337.2 337.2 0 0 1 120.9-51Z"
  />
  <path
    d="M969.5 229.4c-4.2 5.5-3.1 12.6-2 19.7 7.5 49.2 76 66 90.9 69.6 5.7 1.4 12.5 2.7 18.4-.7 12.6-7.3 14.4-32 9-48-15.1-44.3-100-61.9-116.3-40.6Z"
    style="fill: #528c00"
  />
  <path
    class="cls-8-red-level-five"
    d="M977.7 221.2c-4.2 5.5-3 12.5-2 19.6 7.5 49.3 76 66 90.9 69.7 5.8 1.4 12.5 2.6 18.4-.8 12.7-7.3 14.4-32 9-47.9-15-44.4-100-62-116.3-40.6Z"
  />
  <path
    class="cls-11-red-level-five"
    d="M972.4 273.2a33.2 33.2 0 0 0 3.5 6.6 33.7 33.7 0 0 0 6.8 7.2 157.7 157.7 0 0 0-57.6 35.4l-1.3-1.5-1.3-1.5Z"
  />
  <path
    class="cls-3-red-level-five"
    d="M1360 883c-30 139.8-104.2 229-159.8 290.3-122.9 135-266.9 197.1-364.5 226.7v1.1l-2.2-.5-2.1.6v-1.1c-99.1-24.3-246.3-78.7-376.1-207-58.9-58-137.7-143.3-175-281.1A528.4 528.4 0 0 1 262 804.4a495.8 495.8 0 0 0 18.3 159.1c37.3 137.9 116.2 223.2 175 281.2 129.8 128.3 277 182.6 376 207v1l2.2-.6 2.2.6v-1.2c97.6-29.5 241.6-91.7 364.5-226.7 55.6-61.1 129.8-150.5 159.7-290.2 6-28 15.1-77.9 11.8-136.2a546.3 546.3 0 0 1-11.8 84.7Z"
  />
  <path
    class="cls-5-red-level-five"
    d="M1307.6 594.3c-94.2-132.3-246.7-143.9-278-145.4a382.9 382.9 0 0 0-220.9 59.3A382.9 382.9 0 0 0 585 460.7c-31.2 3.3-183 23-269.9 160.1-47.9 75.5-56.9 155.4-53.1 220q.5-8.7 1.5-17.7a540.5 540.5 0 0 0 16.7 88.9c37.4 137.9 116.2 223.2 175 281.2 130 128.3 277 182.6 376.1 207v1l2.2-.6 2.2.6v-1.2c97.6-29.5 241.6-91.7 364.5-226.7 55.6-61.1 129.7-150.5 159.7-290.2a563.7 563.7 0 0 0 10.3-66q1 9 1.4 17.7c3.9-68.2-5.6-158.5-64-240.5Z"
  />
  <path
    d="M854.6 1236.4a86.6 86.6 0 0 1 82.8-54.8l3.8-28a465.4 465.4 0 0 0 3.7-46.8 4.3 4.3 0 0 0-7.9-2.5 53.3 53.3 0 0 1-44.2 23c-26.6-.8-41.6-23.2-43-25.2-1.4 2-16.4 24.4-43 25.2a53.3 53.3 0 0 1-44.2-23 4.3 4.3 0 0 0-7.9 2.5 465.1 465.1 0 0 0 3.7 46.8c6.2 47.6 9.7 74.4 29.1 98a88.4 88.4 0 0 1 67-15.2Z"
    style="fill: #7c0d17"
  />
  <path
    d="M893.4 1192.3a87.5 87.5 0 0 0-38.8 44.1 88.4 88.4 0 0 0-67 15.2l.8 1.2c3.7 4.3 27.8 32.6 60.8 36.5a5.2 5.2 0 0 0 1.2 0c33-4 57-32.2 60.8-36.5 16-18.9 21.5-39.6 26.2-71.2a87.6 87.6 0 0 0-44 10.7Z"
    style="fill: #c9354e"
  />
  <path
    class="cls-3-red-level-five"
    d="M822.2 529.6a154.2 154.2 0 0 1 43.1 42.4c5.5 8.2 18.3 28.9 25 65.8 10.7 59.5-3.7 109-2.6 109.2 2.2.3 1.6-72.8 42.6-142.1 32.6-55.2 76-82.2 85-87.7a241.8 241.8 0 0 1 112.4-34 374 374 0 0 0-305.5 46.4ZM348.1 1107.6c-8.5-12.5-145.7-221.7-38.3-429 12.4-24 33-62.9 72.1-100.5a360.8 360.8 0 0 1 67.4-50.1c86.7-49.6 180.5-49 222.5-46.3A529.6 529.6 0 0 0 518 571.5c-14 11.8-98.2 83.7-140.6 184.7-88.5 210.4 52.2 433.5 66.4 455.3a497.5 497.5 0 0 1-95.7-103.8Z"
  />
  <path
    class="cls-15-red-level-five"
    d="M924 1120.4a1.4 1.4 0 0 0-2-1.7 50.8 50.8 0 0 1-29.3 8.6l-3.3-.2a1.4 1.4 0 0 0-1.4 1.9l5.2 12 7.9 18.2a3.4 3.4 0 0 0 6.1 0M808.4 1239.3l1.9-7.5a10.7 10.7 0 0 0-14.9-12.4l-7 3.3-6.8 3.1a8.2 8.2 0 0 0-3.8 11.4 90.1 90.1 0 0 0 10.7 15.6 124.7 124.7 0 0 0 13 13.1 1.9 1.9 0 0 0 .2-.5ZM905 1219.4a10.7 10.7 0 0 0-14.8 12.4l2 7.5 3 12.1a8.2 8.2 0 0 0 14.2 3.4l1.8-2a90.8 90.8 0 0 0 10.9-16 8.2 8.2 0 0 0-3.8-11.3l-6.2-2.8ZM775.6 1120.4l8.9 20.6 1.7 3.9a10.1 10.1 0 0 0 18.5 0l1.7-3.9 5.2-12a1.4 1.4 0 0 0-1.4-2c-1.1.2-2.2.3-3.4.3a50.8 50.8 0 0 1-29.3-8.6 1.4 1.4 0 0 0-2 1.7Z"
  />
  <path
    class="cls-16-red-level-five"
    d="m847 1076.2-.6 28.4c-.1 3.9 5.9 3.9 6 0l.7-28.4c0-4-6-4-6 0Z"
  />
  <path
    class="cls-16-red-level-five"
    d="M749.2 1096a65.2 65.2 0 0 0 35 29.6c15.3 5.5 32 4.3 46.8-2.1a62.7 62.7 0 0 0 21.6-15.6c1.5-1.8 1.8-4.7 0-6.4s-4.7-1.8-6.4 0a60.6 60.6 0 0 1-3.8 4l-2 1.7-1 .9-.5.4c-.6.5.3-.2-.1 0a68.5 68.5 0 0 1-9.2 5.8l-2.5 1.1c-.2.1-1.4.6-.5.3l-1.5.6q-2.5 1-5.1 1.7t-5.3 1.2l-2.7.5c.8-.2 0 0-.3 0l-1.6.1a58.2 58.2 0 0 1-11 0l-1.3-.2h-.3l-2.8-.5q-2.6-.5-5-1.3c-1.8-.5-3.5-1.1-5.2-1.8-.8-.3.5.3-.3 0l-1.2-.6a66 66 0 0 1-2.5-1.3 66.8 66.8 0 0 1-9-5.6l-.5-.4-1.1-1a71 71 0 0 1-2.3-2 58.6 58.6 0 0 1-4.1-4.4 60 60 0 0 1-2-2.3c.6.7 0-.2-.3-.4l-.8-1.2a56.9 56.9 0 0 1-3.3-5.3 4.5 4.5 0 1 0-7.8 4.6Z"
  />
  <path
    class="cls-16-red-level-five"
    d="m845.6 1076.2.7 28.4a4.5 4.5 0 0 0 9 0l-.7-28.4a4.5 4.5 0 0 0-9 0Z"
  />
  <path
    class="cls-16-red-level-five"
    d="m943.2 1091.5-2.7 4.5-1.5 2.2-.4.4c-.4.6.5-.5 0 0l-1 1.2a59.2 59.2 0 0 1-7.3 7.4l-1 .9-.7.6-.8.5-1.2.9a60.5 60.5 0 0 1-9.1 5.2l-1.2.5-.5.3c.1 0 .8-.4 0 0l-2.5 1a58.3 58.3 0 0 1-10.3 2.6c-.3 0-1.6.2-.5 0l-1.1.2a59.4 59.4 0 0 1-8.4.2l-2.7-.2-1.3-.1-.8-.1a86.6 86.6 0 0 1-10.5-2.5 78 78 0 0 1-2.6-1l-1-.3c-.9-.4-.2-.1 0 0l-.8-.4a61.4 61.4 0 0 1-10.8-6.1l-1.2-1 .1.2-.7-.6-2.2-2a57 57 0 0 1-4.6-4.5 4.5 4.5 0 0 0-6.3 0 4.6 4.6 0 0 0 0 6.4 65.2 65.2 0 0 0 42.3 21 62.9 62.9 0 0 0 43.6-12.8 64.5 64.5 0 0 0 17.4-20 4.5 4.5 0 1 0-7.7-4.5Z"
  />
  <path
    d="M850.1 1077.7c24.3.5 28.6 1 31.3-2.4 4.9-5.9.5-17.9-6.7-24.7-12.5-11.6-36.6-10.8-49 .5-6.5 6-11.8 17-7.6 22.9 2.6 3.5 7.2 3.2 32 3.7Z"
    style="fill: #ff8033"
  />
  <path
    d="M850 1067.6c17 .4 20 .7 22-1.7 3.5-4.1.4-12.6-4.7-17.4-8.8-8.2-25.9-7.6-34.6.3-4.6 4.3-8.4 12-5.4 16.2 1.8 2.5 5 2.3 22.6 2.6Z"
    style="fill: #fdd301"
  />
  <circle class="cls-19-red-level-five" cx="625.6" cy="994.9" r="81.6" />
  <circle class="cls-16-red-level-five" cx="630" cy="1002.8" r="64.5" />
  <circle class="cls-20-red-level-five" cx="649.6" cy="951.8" r="14.5" />
  <circle class="cls-21-red-level-five" cx="590.9" cy="1017.9" r="10.2" />
  <circle class="cls-19-red-level-five" cx="597.8" cy="971.5" r="27.6" />
  <circle class="cls-20-red-level-five" cx="590.9" cy="1017.9" r="4.8" />
  <circle class="cls-22-red-level-five" cx="649.6" cy="951.8" r="4.8" />
  <circle class="cls-22-red-level-five" cx="654.8" cy="966.4" r="7.8" />
  <circle class="cls-21-red-level-five" cx="623.4" cy="983.3" r="17.8" />
  <circle class="cls-21-red-level-five" cx="647" cy="1044.3" r="21.7" />
  <circle class="cls-21-red-level-five" cx="640" cy="1059.6" r="10" />
  <circle class="cls-23-red-level-five" cx="1109.8" cy="1139.8" r="50.4" />
  <circle class="cls-23-red-level-five" cx="570.2" cy="1149.8" r="50.4" />
  <circle class="cls-23-red-level-five" cx="542" cy="1170" r="86.5" />
  <circle class="cls-19-red-level-five" cx="597.8" cy="1022.7" r="115.9" />
  <circle class="cls-16-red-level-five" cx="591.5" cy="1033.9" r="91.7" />
  <circle class="cls-20-red-level-five" cx="563.6" cy="961.5" r="20.6" />
  <circle class="cls-21-red-level-five" cx="647" cy="1055.3" r="14.4" />
  <circle class="cls-19-red-level-five" cx="637.3" cy="989.4" r="39.1" />
  <circle class="cls-20-red-level-five" cx="647" cy="1055.3" r="6.8" />
  <circle class="cls-22-red-level-five" cx="563.6" cy="961.5" r="6.8" />
  <circle class="cls-22-red-level-five" cx="556.2" cy="982.1" r="11.1" />
  <circle class="cls-21-red-level-five" cx="600.9" cy="1006.1" r="25.3" />
  <circle class="cls-21-red-level-five" cx="567.3" cy="1093" r="30.8" />
  <circle class="cls-21-red-level-five" cx="577.2" cy="1114.6" r="14.3" />
  <path
    class="cls-5-red-level-five"
    d="M575.9 1533c31.7 15.1 69.6 19.1 102.2 6.3s58.7-44 61-79c1.2-17.4-4.3-35-14.3-49.2-17.8-10.9-34.3-15-60.3-30.3-69.5-40.6-77.5-84.3-108.4-79-27.4 4.6-42 42.7-48.5 58.4-18.5 45.1-6.4 87-1.5 103.3l3.2 9.4c16 25.8 39.2 47.2 66.6 60.2Z"
  />
  <path
    class="cls-24-red-level-five"
    d="M786.4 1487.2c-5.5-27.1-22.6-43.7-37.4-57.5a145.6 145.6 0 0 0-24.1-18.6 77.6 77.6 0 0 1 14.2 49.2c-2.3 35-28.3 66.1-61 79s-70.5 8.8-102.2-6.2a159.7 159.7 0 0 1-66.6-60.2c22.5 61.2 81.4 120 153.8 124.5 9.5.6 77.5 4.8 109.3-41.9a97 97 0 0 0 14-68.3Z"
  />
  <g class="cls-25-red-level-five">
    <path
      class="cls-16-red-level-five"
      d="M744.6 1510.2c-8.5 10.7-13 16.4-17.6 25.5a18.6 18.6 0 0 0-2 9.4c.2 3.3 1.8 6.6 4.7 8 3.1 1.6 7 .6 9.9-1.4s4.8-5 6.7-8l19.1-29a19 19 0 0 0 3.2-6.7 7.6 7.6 0 0 0-1.8-6.2 4.2 4.2 0 0 0-.4-.4c-2.2-2.3-7.4-2.3-10.6-1.5-4 1-6 3.8-11.2 10.3Z"
    />
  </g>
  <g class="cls-25-red-level-five">
    <path
      class="cls-16-red-level-five"
      d="M704.4 1554c-12.6 5-19.5 7.6-28 13.3a18.5 18.5 0 0 0-6.4 7.2c-1.4 2.9-1.6 6.6.2 9.3 1.9 2.9 5.8 4 9.2 3.6s6.7-2 9.8-3.5l31-15.7a19 19 0 0 0 6.2-4.1 7.6 7.6 0 0 0 1.5-6.4 5.4 5.4 0 0 0-.2-.5c-.7-3.1-5.3-5.7-8.4-6.6-4-1-7.1.2-15 3.3Z"
    />
  </g>
  <g class="cls-25-red-level-five">
    <path
      class="cls-16-red-level-five"
      d="M758 1453a110.6 110.6 0 0 0-1 31 18.5 18.5 0 0 0 3.5 9c1.9 2.6 5 4.5 8.3 4.1 3.5-.4 6.2-3.3 7.5-6.5.8-2.2 1.6-4.4 1.3-10.4s-.7-17-6.6-26.3c-.7-1-1.8-2.8-3.2-4.6a74.4 74.4 0 0 0-6.8-7.9 112.6 112.6 0 0 0-3 11.7Z"
    />
  </g>
  <path
    class="cls-10-red-level-five"
    d="m743 1525.6 9.2-13a7.3 7.3 0 0 1 12.6 1.3l6.6 14.4 6.6 14.4a7.3 7.3 0 0 1-7.4 10.4l-15.7-1.6-15.8-1.5a7.3 7.3 0 0 1-5.3-11.5ZM696.8 1565.8l14.5-6.3a7.3 7.3 0 0 1 10.2 7.5l-1.7 15.8-1.8 15.7a7.3 7.3 0 0 1-11.7 5.1l-12.7-9.4-12.8-9.4a7.3 7.3 0 0 1 1.5-12.6ZM765.2 1468.4l1.4-15.8a7.3 7.3 0 0 1 11.6-5.3l12.9 9.1 13 9.1a7.3 7.3 0 0 1-1.2 12.7l-14.4 6.7-14.4 6.6a7.3 7.3 0 0 1-10.4-7.4Z"
  />
  <path
    class="cls-19-red-level-five"
    d="M835 1051.2c0 .1-1.6 2.6-.2 4.7s4.3 2 4.5 2c1.8-.3 4-1.5 4.3-3.9a4.6 4.6 0 0 0-2.8-4.8 4.9 4.9 0 0 0-5.8 2Z"
  />
  <g class="cls-26-red-level-five">
    <path
      class="cls-19-red-level-five"
      d="M768 516c-12.5-6.3-53.7-27.3-87.4-14.3-3.7 1.4-23.7 9.6-24 22s19.2 21.6 23.8 22.8c12.4 3 25.7 2.2 38.4 4.3 26 4.2 47.4 20.6 60.8 40s19.5 41.4 24.7 63.3c6.2 26.5 18.6 28.3 23.4 28.5 11.4.5 22.6-16.6 27-28 18.1-45.7-28.3-109-86.7-138.6Z"
    />
  </g>
  <g class="cls-25-red-level-five">
    <path
      class="cls-19-red-level-five"
      d="M839.2 699c-12.6.6-23 14.1-20.6 27.5 2.4 12.8 16.1 22.3 28.6 18.4s17.7-19.2 13.6-30.6c-3.1-8.5-11.8-15.9-21.6-15.4Z"
    />
  </g>
  <g class="cls-26-red-level-five">
    <path
      class="cls-19-red-level-five"
      d="M1216.5 538.5c-3.9-5.2-35.7-46.3-73.2-40.9-4.8.7-14 2.2-20.9 10a29.8 29.8 0 0 0-6.8 23c2.1 8.2 7.5 15.2 13 21.7a273.9 273.9 0 0 0 35.8 34.7c7 5.7 14.6 11.2 23.4 13.7 2.9.8 15.2 3 25.8-4.2 13.4-9.1 14.9-27.4 12.6-38.8a46.4 46.4 0 0 0-9.7-19.2Z"
    />
  </g>
  <g class="cls-26-red-level-five">
    <path
      class="cls-19-red-level-five"
      d="M559.3 1322.7c-5.7 2.8-7 13.2-6.8 18.5.4 9.3 6.3 15.8 8.2 18.8a388.3 388.3 0 0 0 60.1 74.7c9.7 9.4 24.6 18.7 35.6 10.8 6.4-4.6 7.4-16.3 5-24.7-3.5-11.9-14-18.4-17.5-20.6-44.2-28.5-69.7-84.7-84.6-77.5Z"
    />
  </g>
  <g class="cls-26-red-level-five">
    <path
      class="cls-19-red-level-five"
      d="M670 1458.3c-2.2-7.2 1.6-15.3 8.2-19.1 6.3-3.6 14.7-3.2 19.8 1.5 7.7 7.2 5.8 22.7-3.7 27.8-8.6 4.6-21.5-.4-24.4-10.2Z"
    />
  </g>
  <g class="cls-27-red-level-five">
    <path
      class="cls-19-red-level-five"
      d="M592.2 1602.8c-9.5-.7-20.3 41.9-24.5 63.5-1.7 8.7-6.9 37.4-5.6 80.7 1.6 50.5 10 58.4 1 79-9.7 21.7-24 24.4-25.8 44.4-1.5 17.1 6.8 38.3 20.2 41.2 13 3 26.2-12.2 30.6-17.3 15.4-17.8 20.8-39.2 23.8-90.3 2.3-40.6 2.1-83.4-4.2-138.2-4-34.7-8-62.5-15.5-63Z"
    />
  </g>
  <g class="cls-25-red-level-five">
    <path
      class="cls-19-red-level-five"
      d="M1357.1 1522.3c-13-13.3-37-12.1-52-4-4.6 2.5-10.8 6.6-12.6 13.6-1.7 6.2 2 13.9 8.3 14.7 7.1 1 9.9-5.9 20-7 14.4-1.5 21 13.7 33.5 10.3 4.3-1.1 8.7-4.3 10.2-8.6 2.8-8-5.5-17.1-7.4-19Z"
    />
  </g>
  <g class="cls-25-red-level-five">
    <path
      class="cls-19-red-level-five"
      d="M1366 1553a11.3 11.3 0 0 0-4.8 5.5 12.1 12.1 0 0 0 19.7 13 12 12 0 0 0 1-16c-4.3-5.3-11.6-5-15.9-2.5Z"
    />
  </g>
  <g class="cls-25-red-level-five">
    <path
      class="cls-19-red-level-five"
      d="M1444.8 1449.6c-4-1.3-7.2-2.4-11.3-1.8-2.2.3-9.1 1.6-12 7.5-2.1 4.4-.5 10.7 4 12.4 3.7 1.4 8-.2 11.7 1 5.1 1.7 7.4 8.1 12.4 10.2 4.7 2 11.4-2.4 13.3-7.6 2.4-6.8-4.3-13.4-6.2-15.3-3.7-3.6-7.8-5-11.9-6.4Z"
    />
  </g>
  <g class="cls-25-red-level-five">
    <path
      class="cls-19-red-level-five"
      d="M1466.1 1480.3c-2 2.8-.8 7.1 1.9 9.3s7.2 2.7 9.6 0 1.5-7.5-1.3-9.9-8-2.5-10.2.6Z"
    />
  </g>
  <path
    class="cls-3-red-level-five"
    d="M418 755.8c-21 87-103.7 168-206.5 166.6C108 921 40.2 836.4 15.2 772.2c-30.3-77.8-7.3-150 1-174.7 20-59.3 55.2-97.7 75-116.5 27.4 38.8 54 51.3 73.4 55.5 48.7 10.5 84.2-24.5 150.4-7.2 7.3 2 18.5 4.9 30.5 11.4 61.8 33.6 92.3 133.8 72.6 215.1Z"
  />
  <path
    class="cls-5-red-level-five"
    d="M396.7 604.7c-20.4-41-56.9-76.2-101.9-84.2-22.2-4-45.1-1.2-67.7-2.7a121.2 121.2 0 0 1-22.8-3.6 91.3 91.3 0 0 1-22-2c-19.5-4.2-46-16.7-73.5-55.4a286.8 286.8 0 0 0-75 116.5c-8.2 24.8-31.3 96.9-1 174.7 25 64.2 92.7 148.7 196.4 150.2 93.8 1.3 170.8-66.1 199.6-144q-.3-8.1-1-16.8c-3.5-50.7-9.5-89.2-31.1-132.7Z"
  />
  <path
    class="cls-3-red-level-five"
    d="M363.1 516.5c-12-6.5-23.2-9.5-30.5-11.4-55.8-14.6-89.8 8-128.3 9.1a121.2 121.2 0 0 0 22.8 3.6c22.6 1.5 45.5-1.3 67.7 2.7 45 8 81.5 43.3 101.9 84.2 21.6 43.5 27.6 82 31.2 132.7q.6 8.6.9 16.8a204.4 204.4 0 0 0 7-22.6c19.7-81.3-10.9-181.5-72.7-215.1Z"
  />
  <circle class="cls-28-red-level-five" cx="250" cy="731.6" r="137.9" />
  <circle class="cls-23-red-level-five" cx="265.4" cy="737.9" r="131.3" />
  <path
    class="cls-3-red-level-five"
    d="M86.5 347.2c-17.8.5-30.7 35.6-31.5 63.4a92.2 92.2 0 0 0 2.8 25.7c2.4 9.5 11.5 44.3 46 56 3.5 1.3 8.1 2.8 10.3 1.6 6.7-3.6-23.9-25.5-31.8-59.4a82.4 82.4 0 0 1-.5-31.9 122.5 122.5 0 0 1 18.4-49.5c-6-5-10.6-6-13.7-5.9Z"
  />
  <path
    class="cls-5-red-level-five"
    d="M100.8 341.6c-17.8.5-30.7 35.6-31.5 63.4a91.7 91.7 0 0 0 2.8 25.7c2.5 9.5 11.5 44.3 46 56 3.5 1.3 8.1 2.8 10.3 1.6 6.7-3.6-23.9-25.5-31.8-59.4-3-12.8-1.6-22.9-.5-31.8a122.4 122.4 0 0 1 18.4-49.6c-6-5-10.5-6-13.7-5.9Z"
  />
  <circle class="cls-3-red-level-five" cx="102.7" cy="299" r="76.9" />
  <circle class="cls-5-red-level-five" cx="99.4" cy="296.4" r="73" />
  <circle class="cls-19-red-level-five" cx="99.4" cy="315.5" r="46.5" />
  <circle class="cls-16-red-level-five" cx="117.8" cy="334" r="18.5" />
  <path
    class="cls-5-red-level-five"
    d="M168 309.7c-4.7 6.6-25.5-11.3-66.4-11.4-40.1-.2-60.5 16.8-65 10.2-6.7-9.4 23.4-60.8 65.2-61 42.5 0 72.8 53 66.1 62.2Z"
  />
  <path
    class="cls-3-red-level-five"
    d="M109.3 254.8a36.3 36.3 0 0 1 11.5 18.3 35.9 35.9 0 0 1 .4 16.1 39.5 39.5 0 0 1 25.2 10c-.2-6-1.5-19-10.5-30.4-3.3-4.2-9.2-11.8-19.1-13.7a25.3 25.3 0 0 0-7.5-.3ZM90 257.3a36.4 36.4 0 0 0-11.5 18.3 35.9 35.9 0 0 0-.4 16.1 39.5 39.5 0 0 0-25.2 9.9c.2-6 1.5-18.8 10.5-30.3 3.3-4.2 9.1-11.8 19-13.7a25.4 25.4 0 0 1 7.6-.3Z"
  />
  <g class="cls-26-red-level-five">
    <path
      class="cls-19-red-level-five"
      d="M72.3 545.1c-15.5 1.6-24.6 55-25.9 62.6C34 680.2 48.6 755 71 776c2.8 2.6 10 9.3 16 5.8 6.4-3.8 9-15.1 8.1-24.8s-4.6-18.4-7.7-27.2A230.6 230.6 0 0 1 83.6 597c.7-2.4 4.9-10.7 5.4-22.4.2-4 .6-14.7-4.2-22.1-3.5-5.5-9-7.7-12.5-7.4Z"
    />
  </g>
  <g class="cls-27-red-level-five">
    <path
      class="cls-19-red-level-five"
      d="M254.7 633c-1.5.7-6 3-8.7 7.2-4.6 7.3-4 21.1 2.8 23.4 9 3 18.5-5.7 27.7-3.4 10 2.4 14.8 16.5 25 16.4 6 0 11-7.4 11.6-13.7.7-7-4.2-12-9.2-17.1a51.3 51.3 0 0 0-40.4-15.4 26 26 0 0 0-8.8 2.6Z"
    />
  </g>
  <g class="cls-27-red-level-five">
    <path
      class="cls-19-red-level-five"
      d="M322.9 678.1c-2.4 6 1.8 14.2 7.1 15 6 1 13.6-7.2 11.6-14.1a10.5 10.5 0 0 0-11.2-7.1 10 10 0 0 0-7.5 6.2Z"
    />
  </g>
  <g class="cls-25-red-level-five">
    <path
      class="cls-19-red-level-five"
      d="M94.7 378.7c-1.1-.6-3 .5-3.7 1-8.4 4.9-11.7 21.7-9.8 38.5.2 1.5 3.4 29 13.6 30.9.3 0 3.1.6 4.1-.6 1.6-1.8-2.3-6.6-3.8-8.5-12-16.2-4.7-43.8-4.3-45 2.2-7.8 6.1-15 3.9-16.3Z"
    />
  </g>
  <circle class="cls-29-red-level-five" cx="99.6" cy="454.3" r="3" />
  <path
    class="cls-3-red-level-five"
    d="M1236.7 721.4c21.1 87 103.7 168.1 206.5 166.7 103.7-1.5 171.4-86 196.4-150.2 30.3-77.9 7.2-150-1.1-174.7a287.3 287.3 0 0 0-75-116.5c-27.3 38.7-54 51.2-73.4 55.4-48.7 10.5-84.2-24.5-150.3-7.2-7.4 2-18.6 4.9-30.6 11.4-61.8 33.6-92.3 133.8-72.5 215.1Z"
  />
  <path
    class="cls-5-red-level-five"
    d="M1258 570.3c20.4-40.9 57-76.1 101.9-84.2 22.3-4 45.1-1.2 67.7-2.7a121.3 121.3 0 0 0 22.8-3.6 91.2 91.2 0 0 0 22.1-2c19.4-4.2 46-16.7 73.4-55.4 19.8 18.7 55 57.1 75 116.5 8.3 24.7 31.3 96.8 1 174.7-25 64.2-92.7 148.7-196.3 150.2-93.8 1.3-170.8-66.1-199.7-144 .2-5.4.5-11 1-16.8 3.5-50.7 9.5-89.1 31.2-132.7Z"
  />
  <path
    class="cls-3-red-level-five"
    d="M1291.6 482.1c12-6.5 23.2-9.5 30.5-11.4 55.8-14.6 89.8 8 128.3 9.1a121.3 121.3 0 0 1-22.8 3.6c-22.6 1.5-45.4-1.3-67.7 2.7-45 8-81.5 43.3-101.8 84.2-21.7 43.6-27.6 82-31.3 132.7a492 492 0 0 0-.9 16.8 206.6 206.6 0 0 1-6.9-22.6c-19.7-81.3 10.8-181.5 72.6-215.1Z"
  />
  <circle class="cls-28-red-level-five" cx="1404.7" cy="697.3" r="137.9" />
  <circle class="cls-23-red-level-five" cx="1389.3" cy="703.5" r="131.3" />
  <path
    class="cls-3-red-level-five"
    d="M1568.3 312.8c17.8.5 30.7 35.6 31.5 63.4a91.7 91.7 0 0 1-2.8 25.8c-2.5 9.5-11.5 44.3-46 56-3.5 1.3-8.1 2.8-10.3 1.6-6.7-3.7 23.9-25.6 31.8-59.5 3-12.8 1.6-22.8.5-31.8a122.5 122.5 0 0 0-18.4-49.6c6-5 10.5-6 13.7-5.9Z"
  />
  <path
    class="cls-5-red-level-five"
    d="M1554 307.3c17.8.4 30.6 35.5 31.4 63.3a92 92 0 0 1-2.8 25.8c-2.4 9.4-11.4 44.3-45.9 56-3.6 1.2-8.2 2.8-10.4 1.6-6.6-3.7 24-25.6 31.8-59.5 3-12.8 1.7-22.9.5-31.8a122.5 122.5 0 0 0-18.4-49.6c6-5 10.6-6 13.7-5.9Z"
  />
  <circle class="cls-3-red-level-five" cx="1552.1" cy="264.6" r="76.9" />
  <circle class="cls-5-red-level-five" cx="1555.4" cy="262" r="73" />
  <circle class="cls-19-red-level-five" cx="1555.4" cy="281.1" r="46.5" />
  <circle class="cls-16-red-level-five" cx="1537" cy="299.6" r="18.5" />
  <path
    class="cls-5-red-level-five"
    d="M1486.8 275.4c4.7 6.5 25.4-11.3 66.3-11.5 40.1-.2 60.5 16.8 65.1 10.2 6.6-9.4-23.4-60.8-65.3-60.9-42.5-.1-72.8 52.9-66 62.2Z"
  />
  <path
    class="cls-3-red-level-five"
    d="M1545.5 220.4a36.4 36.4 0 0 0-11.5 18.3 35.7 35.7 0 0 0-.4 16.2 39.5 39.5 0 0 0-25.2 9.8c.2-5.9 1.5-18.8 10.5-30.3 3.3-4.2 9.2-11.7 19-13.7a25.4 25.4 0 0 1 7.6-.3ZM1564.8 223a36.3 36.3 0 0 1 11.5 18.2 35.9 35.9 0 0 1 .4 16.2 39.6 39.6 0 0 1 25.2 9.8c-.2-5.9-1.5-18.8-10.5-30.3-3.3-4.2-9.2-11.8-19.1-13.7a25.3 25.3 0 0 0-7.5-.3Z"
  />
  <g class="cls-26-red-level-five">
    <path
      class="cls-19-red-level-five"
      d="M1582.5 510.8c15.4 1.5 24.5 55 25.8 62.5 12.4 72.6-2.2 147.3-24.6 168.3-2.8 2.6-10 9.3-16 5.8-6.4-3.8-9-15.1-8.1-24.8s4.6-18.4 7.7-27.1c14.2-41 15.6-90.4 3.8-132.9-.7-2.4-4.8-10.7-5.4-22.4-.1-4-.6-14.7 4.2-22.1 3.5-5.5 9-7.7 12.6-7.3Z"
    />
  </g>
  <g class="cls-27-red-level-five">
    <path
      class="cls-19-red-level-five"
      d="M1400 598.6c1.5.7 6 3 8.7 7.2 4.7 7.3 4 21.1-2.8 23.4-9 3-18.5-5.7-27.7-3.4-10 2.4-14.7 16.5-25 16.4-5.9 0-11-7.4-11.5-13.7-.7-7 4.2-12 9.2-17.1a51.3 51.3 0 0 1 40.3-15.4 26 26 0 0 1 8.9 2.6Z"
    />
  </g>
  <g class="cls-27-red-level-five">
    <path
      class="cls-19-red-level-five"
      d="M1331.8 643.7c2.4 6.1-1.8 14.2-7.1 15-6 1-13.6-7.2-11.6-14.1a10.5 10.5 0 0 1 11.3-7.1 10 10 0 0 1 7.4 6.2Z"
    />
  </g>
  <g class="cls-25-red-level-five">
    <path
      class="cls-19-red-level-five"
      d="M1560 344.3c1.1-.6 3 .5 3.7 1 8.4 4.9 11.7 21.7 9.8 38.5-.1 1.5-3.3 29-13.6 30.9-.3 0-3 .6-4.1-.6-1.6-1.8 2.4-6.6 3.8-8.5 12-16.1 4.7-43.7 4.3-45-2.1-7.8-6-15-3.8-16.3Z"
    />
  </g>
  <circle class="cls-29-red-level-five" cx="1555.1" cy="419.9" r="3" />
  <g class="cls-30-red-level-five">
    <path
      class="cls-16-red-level-five"
      d="M1123.8 1523.1c-11.3 29.4-18 46.9-11.2 63.2 9.4 22.8 39.9 31 58.6 31.7 32.6 1.3 54.8-19.4 63-27 6.2-5.7 30-27.9 31.6-62.5a73 73 0 0 0-12.9-47.3 59.3 59.3 0 0 0-22.5-19.6c-30.4-14.2-72 4.3-92.2 31.3-5.9 8-8.7 15.3-14.4 30.2Z"
    />
  </g>
  <g class="cls-30-red-level-five">
    <path
      class="cls-16-red-level-five"
      d="M1161.7 1609.4s37.3 107.2 39.1 183a82.6 82.6 0 0 1-10 40.2c-6.7 12.2-18.6 22.3-32.5 23.6-24.2 2.1-42.3-21.6-52.6-43.6a307.6 307.6 0 0 1-27.2-156.3c.9-9.7.6-27.6 11.7-45 2.2-3.3 17.7-27.6 36.6-26.3 17.6 1.3 35 24.4 35 24.4Z"
    />
  </g>
  <path
    class="cls-7-red-level-five"
    d="M1063 1553.5q9.5 35.4 16.7 71.4a240.7 240.7 0 0 1 71.9 57l-2-8c-20.3-74.7-41.1-115.2-65.8-149-20.4-27.9-38.3-44.1-57.1-54.4a132.4 132.4 0 0 1 10.3 15 267.2 267.2 0 0 1 26 68Z"
  />
  <path
    class="cls-6-red-level-five"
    d="M985.5 1598.3a235.6 235.6 0 0 1 94.2 26.5q-7.2-36-16.7-71.3c-6.3-23.6-13.6-47.1-26-68a132.4 132.4 0 0 0-10.3-15 126.3 126.3 0 0 0-16-7.4c-8.8-3.3-35.5-13-67.4-8.4-68.7 10-100.7 78-105.4 87.9-12.7 26.9-13 46.3-12 105.6a240.1 240.1 0 0 1 159.6-49.9Z"
  />
  <path
    class="cls-3-red-level-five"
    d="M1151.6 1681.9a240.7 240.7 0 0 0-72-57 1107 1107 0 0 1 20.5 171.3c1.2 31 .5 64.3-17.2 89.7-18.1 26-50.2 38.3-81 46.2a526.7 526.7 0 0 1-179.1 14.3 98.6 98.6 0 0 0 25.6 8.7c20 4 40.7 2.9 61.1 1.7 80.7-4.7 120.5-15.7 149.2-21.6 71.3-14.9 84.4-21.7 94.3-33.6 14-16.5 15.2-35.3 15.7-53.5 2-78.9-11.8-144.2-17.1-166.2Z"
  />
  <path
    class="cls-5-red-level-five"
    d="M1002 1932c30.7-7.9 62.8-20 81-46.1 17.6-25.5 18.3-58.8 17-89.8a1107 1107 0 0 0-20.3-171.3 235.6 235.6 0 0 0-94.2-26.5 240.3 240.3 0 0 0-159.6 50l.6 30.5c.6 36.3 1 83.7.7 139.5a99.9 99.9 0 0 0-33.8 50.7c-3.3 12.3-9 35.2 4.8 56.4a63 63 0 0 0 24.6 21A526.7 526.7 0 0 0 1002 1932Z"
  />
  <g class="cls-27-red-level-five">
    <path
      class="cls-19-red-level-five"
      d="M872.9 1572.5c-9.4-1.3-20.3 13-24.7 21.2-8.6 16.1-4.2 33.3-3.7 40.2l9.9 149.4c1.6 24.2 2.3 51.3-13.7 69.6-10.1 11.6-26.4 18.9-30.6 33.7-5 17.3 12 35.5 30 35.8 23 .4 38.5-22.7 42.3-29 13.4-22 11.5-45.5 11-52.5-9.2-120.5 8-264.5-20.5-268.4Z"
    />
  </g>
  <path
    d="M751.5 1364.3q66.6 55.4 137.8 111.6 61.6 48.5 122 93.7c7.7.9 27 2.2 46.3-8.6a71.2 71.2 0 0 0 8.6-5.7L761 1313.8a76.8 76.8 0 0 0-9.6 50.6Z"
    style="fill: #ff5f54"
  />
  <path
    d="M1095.3 1486.4c-3.8-24.3-22.2-37.8-46-57.1-50.8-41.3-156.7-134.8-209.7-161.6-5.5-2.8-21.2-10.3-34.1-4.8a22 22 0 0 0-10.6 9.1c-2.3 4-3 8.8-1.3 13a74.9 74.9 0 0 0-29.3 24 71.3 71.3 0 0 0-3.2 4.8l305.1 241.6a76 76 0 0 0 29-69Z"
    style="fill: #ffa49c"
  />
  <path
    d="M683.8 1245.5a48.2 48.2 0 0 0 1.1 30.6 439.2 439.2 0 0 0 52.5 42.5 43.4 43.4 0 0 0 20.9 8.8 43 43 0 0 0 26.3-6.3l-100-78.1-.9 2.5Z"
    style="fill: #6c6565"
  />
  <path
    d="M798.8 1268.6a76 76 0 0 0-20.6-20.1c-9.8-7.4-15.8-13.2-25.1-19-18.2-11.2-27.3-16.8-38.2-15.1-14.8 2.3-25.7 16-30.3 28.6l100 78a40.3 40.3 0 0 0 12-11.4c9-12.9 8.7-30.1 2.2-41Z"
    style="fill: #a9a9a9"
  />
  <path
    d="M751.2 1017.6c-7.9-56.2-19.2-136.8-87.6-190.5a267 267 0 0 0-75.2-38.7c31.2 13.2 52 29 54.3 30.8 68.5 53.7 79.8 134.3 87.7 190.6 10.1 72-3.3 137.4-9.3 165.7a543.6 543.6 0 0 1-18.2 65.1c-55.2 25.8-135 52-230.7 48.5-35.5-1.3-73.2-2.7-110.7-14.7 44.2 19.3 89.5 21 131.6 22.5a501.1 501.1 0 0 0 230.7-48.5 543.6 543.6 0 0 0 18.1-65.1c6.1-28.2 19.5-93.6 9.3-165.7Z"
    style="fill: #ff5557"
  />
  <path
    class="cls-36-red-level-five"
    d="M230.3 1058.4C249 963.5 347.5 922.9 356 919.6c3.7-14.2 24.3-89 95.3-124.6 49-24.6 98.4-19.3 137.2-6.6-41-17.4-99.9-30.4-158-1.3-71 35.6-91.7 110.5-95.3 124.6-8.4 3.4-107 44-125.6 138.8-21.2 108 78.3 183.6 91 193a209.7 209.7 0 0 0 61 30.9 208.3 208.3 0 0 1-40-23c-12.9-9.4-112.4-85-91.2-193Z"
  />
  <path
    class="cls-36-red-level-five"
    d="M703 1240.6a543.6 543.6 0 0 0 18.1-65.1c6-28.3 19.4-93.6 9.3-165.7-8-56.3-19.2-136.9-87.7-190.6a260.7 260.7 0 0 0-54.3-30.8c-38.8-12.7-88.3-18-137.2 6.6-71 35.6-91.7 110.4-95.3 124.6-8.4 3.3-107 44-125.6 138.8-21.2 108 78.3 183.6 91.1 193a208.3 208.3 0 0 0 40.1 23c37.5 12 75.2 13.4 110.7 14.7a501.9 501.9 0 0 0 230.7-48.5Zm-375.2-31c-10.6-7.8-93.8-71-76-161.1 15.5-79.3 97.8-113.2 104.9-116 3-11.9 20.2-74.4 79.6-104.2 85.5-42.9 173 23.4 177.4 26.9 47.1 37 61.8 89.1 69.3 132.7 2.6 13 4.3 25.6 6 36.9 8 57-2.6 108.7-7.4 131a429.7 429.7 0 0 1-14.4 51.6 412.6 412.6 0 0 1-104.2 33 398.7 398.7 0 0 1-91.7 7.3c-46-1.6-96.4-3.5-143.5-38Z"
  />
  <path
    d="M563 1240.5a376.3 376.3 0 0 1-78.3 5.3c-43.4-1.6-91.2-3.4-135.7-36.1-10.1-7.4-88.8-67.2-72.1-152.7 14.7-75 92.7-107.2 99.3-109.8 2.9-11.2 19.2-70.4 75.4-98.6 81-40.6 163.8 22.1 168 25.4C660 905.7 675.2 949.3 683 988c-7.4-43.5-22.1-95.7-69.2-132.7-4.5-3.5-92-69.7-177.5-26.8-59.3 29.7-76.6 92.3-79.6 104-7 2.9-89.4 36.8-105 116-17.6 90.3 65.5 153.5 76.2 161.3 47 34.5 97.5 36.4 143.4 38.1a398.7 398.7 0 0 0 91.6-7.3Z"
    style="fill: #ff5757"
  />
  <path
    d="M679.2 1152.8a454 454 0 0 1-15.2 54.5 438.7 438.7 0 0 1-101 33.2 412.6 412.6 0 0 0 104.2-33 429.7 429.7 0 0 0 14.4-51.6c4.7-22.3 15.3-74 7.3-131-1.6-11.4-3.3-23.9-6-37a916 916 0 0 1 4 26.5c8.5 60.2-2.7 114.9-7.7 138.4Z"
    style="fill: #caefff"
  />
  <g class="cls-39">
    <path
      class="cls-19-red-level-five"
      d="M819 1272.5c-2-.4-7.7-1.8-10.3 1s-1.6 8.2.2 11.4c2 3.5 5.2 6 8.3 8.6l243 196c3.4 2.7 8 5.6 12 3.4 2.5-1.5 3.4-5 2.8-7.9a15.4 15.4 0 0 0-4.3-7.7c-17.4-16.5-26-24.7-27-25.2-27.8-16.6-195.6-172.8-224.8-179.6Z"
    />
  </g>
  <g class="cls-39">
    <path
      class="cls-19-red-level-five"
      d="M737.7 1227.5c-1.8 2-4.6 5.8-3.8 9.9.7 3.5 3.7 5.4 5.2 6.7l32.9 28.2c2 1.7 5.7 4.1 8.5 3 2.2-1 2.9-4 3-5 .8-4.6-2-9-6.1-13.5-8-8.8-15.3-12.6-29.1-22a321 321 0 0 1-10.6-7.3Z"
    />
  </g>
  <g class="cls-39">
    <path
      class="cls-19-red-level-five"
      d="M392.3 817a311.6 311.6 0 0 0-24.4 29.1 219.9 219.9 0 0 1 38-30.8c12.7-8.2 60.7-38.2 120.6-35.2 17 .9 35.8 4.4 36 3.1.3-1-11-4-21.1-6.4a151.5 151.5 0 0 0-42.5-5.2 154.8 154.8 0 0 0-70.7 19 145.7 145.7 0 0 0-36 26.3Z"
    />
  </g>
  <g class="cls-26-red-level-five">
    <path
      class="cls-19-red-level-five"
      d="M677.3 879.1a506 506 0 0 1 34.6 109.7c5.3 27 12.3 64.5 9 112.6-.6 10-4.2 36.9-11.4 90.2l-6.6 49a510.7 510.7 0 0 0 29-132c1-13.6 5.2-70.3-7.7-138-6.1-32.6-13.2-52-18.8-65.2a283.3 283.3 0 0 0-30-53.7l1.9 27.4Z"
    />
  </g>
  <path
    class="cls-24-red-level-five"
    d="M1005.4 1505.8c-26.5-8.1-53.3-19.8-71-41.3-26.6-32.2-26.3-81.6-4.8-117.5 16.7-27.8 44-47.7 74.6-59.2h-1.1a244.7 244.7 0 0 0-38.3 1.8c-44.6 5.4-89 28.5-110.7 67.9-22 40-16.7 91.7 7.1 130.7 30.5 50 77.5 70.6 107 81.5 93.7 34.6 247.6 34 289.1-52.3a108.5 108.5 0 0 0 9.4-30.7c-12.4 9.7-28 15.6-43.2 20.1a383.2 383.2 0 0 1-218-1Z"
  />
  <path
    class="cls-5-red-level-five"
    d="M1240 1379c-21-29-61.5-43.4-142.4-72.2-24.9-8.8-55-17.6-93.4-19a145.5 145.5 0 0 0-74.5 59.2c-21.5 35.9-21.9 85.3 4.8 117.5 17.6 21.4 44.4 33.2 71 41.3a383.2 383.2 0 0 0 218 1 128.5 128.5 0 0 0 43.2-20.1 153 153 0 0 0-26.8-107.6Z"
  />
  <g class="cls-25-red-level-five">
    <path
      class="cls-16-red-level-five"
      d="M931 1319.5c-1.4-1.9-4-2.8-6-3-5.3-.2-8.5 4.9-15.2 12.3-3.1 3.5-22.6 22.4-29.6 29.4a16 16 0 0 0-3.8 4.8 7.6 7.6 0 0 0 .6 5.8 9.4 9.4 0 0 0 5.6 3.7c11.5 3 56.1-41.5 48.3-53Z"
    />
  </g>
  <g class="cls-25-red-level-five">
    <path
      class="cls-16-red-level-five"
      d="M882.8 1374.7c-2.3-.4-4.8 1-6.2 2.3-4 3.6-2.4 9.4-1.6 19.4.3 4.6.6 31.8.8 41.7a16.2 16.2 0 0 0 .9 6 7.6 7.6 0 0 0 4.6 3.6 9.3 9.3 0 0 0 6.5-1.5c10.1-6.2 8.7-69.2-5-71.5Z"
    />
  </g>
  <g class="cls-25-red-level-five">
    <path
      class="cls-16-red-level-five"
      d="M884.7 1450.7c-2.2.9-3.6 3.3-4 5.2-1.4 5.1 3 9.3 9 17.3 2.7 3.8 17.4 26.6 22.9 34.9a16 16 0 0 0 4 4.6 7.6 7.6 0 0 0 5.8.6 9.3 9.3 0 0 0 4.7-4.8c5.2-10.6-29.6-63.2-42.4-57.8Z"
    />
  </g>
  <path
    class="cls-10-red-level-five"
    d="M884.2 1411.2v19.2a8.9 8.9 0 0 1-13.3 7.7l-16.6-9.6-16.6-9.6a8.9 8.9 0 0 1 0-15.4l16.6-9.5 16.6-9.6a8.9 8.9 0 0 1 13.3 7.7ZM907.2 1345.5l-12.5 14.6a8.9 8.9 0 0 1-15.1-2.8l-6.4-18-6.4-18.2a8.9 8.9 0 0 1 10-11.7l18.8 3.5 18.9 3.5a8.9 8.9 0 0 1 5.1 14.5ZM905.3 1481l11.4 15.4a8.9 8.9 0 0 1-6.3 14l-19 2-19.1 2.1a8.9 8.9 0 0 1-9-12.4l7.7-17.5 7.7-17.6a8.9 8.9 0 0 1 15.3-1.6Z"
  />
  <g class="cls-26-red-level-five">
    <path
      class="cls-19-red-level-five"
      d="M1034 1315.7c-31-6.4-55-9.7-81-1.2-9 3-25 8.5-27.2 20.1-2.2 12 11.9 23.4 13 24.2 8.2 5.2 18 7.2 27.5 9l167.2 32c11 2.1 26 1.6 30.2-6 5.8-10.3-11-29.7-14-33-7-8.4-25-26.4-115.7-45.1Z"
    />
  </g>
  <g class="cls-26-red-level-five">
    <path
      class="cls-19-red-level-five"
      d="M1192.9 1378.7c-6.2 4.4-9.7 13.6-5.7 21 4.3 7.8 14.9 9.7 22.3 5.8 8-4.1 12.2-14.9 7.6-22.7-4.7-8.2-16.8-9.4-24.2-4.1Z"
    />
  </g>
  <circle class="cls-19-red-level-five" cx="1060.7" cy="1031" r="81.6" />
  <circle class="cls-16-red-level-five" cx="1056.3" cy="1038.9" r="64.5" />
  <circle class="cls-20-red-level-five" cx="1036.7" cy="988" r="14.5" />
  <circle class="cls-21-red-level-five" cx="1095.4" cy="1054" r="10.2" />
  <circle class="cls-19-red-level-five" cx="1088.5" cy="1007.6" r="27.6" />
  <circle class="cls-20-red-level-five" cx="1095.4" cy="1054" r="4.8" />
  <circle class="cls-22-red-level-five" cx="1036.7" cy="988" r="4.8" />
  <circle class="cls-22-red-level-five" cx="1031.5" cy="1002.5" r="7.8" />
  <circle class="cls-21-red-level-five" cx="1046.3" cy="1095.7" r="10" />
</svg>
