<svg
  version="1.1"
  id="orange-3"
  xmlns="http://www.w3.org/2000/svg"
  x="0"
  y="0"
  viewBox="0 0 1422.3 1338.6"
  xml:space="preserve"
>
  <style>
    .orange-3-st1 {
      fill: #f78b3a;
    }
    .orange-3-st2 {
      fill: #8f7c5a;
    }
    .orange-3-st3 {
      fill: #f2ecd6;
    }
    .orange-3-st5 {
      fill: #795600;
    }
    .orange-3-st7 {
      fill: #fc4401;
    }
    .orange-3-st8 {
      fill: #fa6d40;
    }
  </style>
  <path
    d="M676.8 220.1c-47.2-26.7-198.1-112-368.1-62-35.9 10.6-106.8 31.4-159.7 93.5-1.3 1.5-3.2 2.4-5.2 2.2-22.8-1.2-47.6 10.9-63.7 33.7-23.2 32.8-19.8 75.1 7.6 94.5 2 1.4 3 3.8 2.8 6.2-6.1 50.8 2.2 93.4 5.5 111.2 23.3 124.7 110.2 195.7 162.8 238.9 65.8 53.9 192.8 157.9 356.1 124.5 6.5-1.3 108.6-24 186.3-104.2 2.3-2.4 5.1-4.4 8.2-5.9 19.8-9.7 40.3-17.8 61.3-24.5 36.1-11.5 43.2-9.3 50.7-18.6 22.4-27.3.2-94.6-27.6-127.8-4.7-5.6-7.1-12.7-6.6-20 5.9-104.6-41.8-186.3-51.9-202.9-45.8-75.2-108-110.4-158.5-138.8z"
    fill="#fc1b00"
  />
  <path
    class="orange-3-st1"
    d="M1373.1 1055.3c-41.4 47.2-96.6 61.2-105.6 63.4-31.2 7.5-57.1 6.6-89.1 2.8-34.5-4.1-68.9-10-102.2-20.3-62-19.1-118.4-52.9-174.1-86.3-31.1-18.7-62.3-37.4-92.2-58.1-22.8-15.8-53.7-33.8-69.2-57.8-13.4-20.8-9-53.9-4.4-76.6 6.4-31.6 20.5-61.2 37.7-88.1 39.8-62.4 62-74.8 94.7-132.7 11.4-20.3 21.3-41.4 29.4-63.2 54.9-1.1 109.8 2.7 164 11.1 124.5 19.4 215.8 33.6 283 108.5 64.5 71.9 71.7 160.5 74.6 196.3 4 49.4 11 135.4-46.6 201z"
  />
  <path
    class="orange-3-st2"
    d="M1374.4 1054.7c-30.4-28.6-68.1-50.1-107.3-65-58.9-22.4-121.8-31.5-184.1-40.5l-423.2-61-395.4-56.9c-13.1 5.7-22.7 13.4-27.7 23.9-5.2 10.7-5.1 23.2-1.6 36.6 183.3 82.6 368.2 163.5 562.5 215 55.7 14.8 112.1 26.8 169 36 138 22 278.8 25.5 415.5.9 5.5-26.2 2.3-57.1-7.7-89z"
  />
  <path
    class="orange-3-st3"
    d="M1318.7 950.4c-21-9.5-42.5-17.7-64.5-24.5-81.3-25.2-166.7-33.4-251.4-41.6l-339.6-32.6-343.4-33c-22.1 2.4-41 6.3-55.5 12.6l395.4 56.9 423.2 61c62.3 9 125.3 18.1 184.1 40.5 39.2 14.9 76.9 36.4 107.3 65-11-35.1-30.4-71.5-55.6-104.3z"
  />
  <path
    class="orange-3-st2"
    d="M1238.5 874.3c-93.8-62.4-207-48.7-337.2-51.4-125.1-2.5-166.4 6.2-233.8 5.2-23.2-.3-49.6-1.8-83.5-5.3-35.2-3.6-84.6-10-155.9-8.8-40.2.7-77.3 1.3-108.2 4.7l343.4 33 339.6 32.6c84.7 8.1 170.1 16.4 251.4 41.6 22 6.8 43.5 15 64.5 24.5-22.7-29.4-50.1-56-80.3-76.1zM893.2 1214.1c-36.3-4.6-72.3-10.7-108-18.4-188.6-40.8-367.4-125.7-518.8-245.3 20.5 27.9 45.6 53.8 61 69.5 25.7 26.4 117.8 116.9 338 202.2 0 0 42.1 16.3 109.3 34.4 80.4 21.7 197 46 320.3 47.7 33.2.5 59.9-2.3 85.5-10.3 10.6-3.4 20.9-7.6 30.9-12.6 60.8-29.8 120.1-58.9 150-95-153 37.9-311.8 47.4-468.2 27.8z"
  />
  <path
    class="orange-3-st3"
    d="M966.5 1142.8c-56.9-9.2-113.3-21.2-169-36-194.2-51.5-379.1-132.4-562.5-215 5 18.8 17.1 39.2 31.4 58.6 151.4 119.6 330.2 204.5 518.8 245.3 35.7 7.7 71.7 13.9 108 18.4 156.4 19.6 315.2 10.1 468.2-28 4-4.8 7.6-10 10.7-15.4 4.6-8.5 8-17.6 9.9-27-136.7 24.6-277.5 21.1-415.5-.9z"
  />
  <path
    d="M1374 1054.6c-11.1-35.1-30.4-71.5-55.7-104.3-22.6-29.4-50-56-80.2-76.1-93.8-62.4-207-48.7-337.2-51.3-125.1-2.5-166.4 6.2-233.8 5.2-1.5 7.8-3 15.7-4.2 23.5-2.1 12.1-3.2 24.3-3.5 36.5 0 3.8 0 7.6.3 11.5 1.6 24.8 10.1 50.1 28.4 67 29 26.9 73.4 26 112.9 23.6l124.1-7.7c23.8-1.5 50.8-1.9 67.8 14.9 19.4 19.2 16.1 51.3 7.5 77.2-17.2 51.1-49.3 95.9-92.1 128.6-5 3.8-10.1 7.4-15.4 10.8-35.6 23.2-76.3 37.7-118.5 42.3 80.6 21.7 197.2 45.9 320.4 47.6 33.1.5 60-2.3 85.5-10.3 10.6-3.4 20.9-7.6 30.9-12.6 60.8-29.8 120.1-58.9 150-95 4-4.8 7.6-9.9 10.7-15.4 4.6-8.5 8-17.6 9.9-27 5.4-26.2 2.2-57.1-7.8-89z"
    opacity=".2"
  />
  <path
    class="orange-3-st5"
    d="M382.4 172.9c-7.3-4.2-30.4-17.6-38.8-44.5-8-25.7 2.3-48.5 7.5-60 15.1-33.1 45.9-59 81.5-66.5 7-1.5 63-10.9 99.2 31.4 24.8 29 30.3 70.6 16 101.7-26.8 58.6-117 65.9-165.4 37.9z"
  />
  <path
    class="orange-3-st2"
    d="M360.2 172.7c-7-4.1-29.4-17-37.5-43-7.7-24.9 2.2-46.9 7.3-58 14.6-32 44.4-57 78.8-64.3 6.7-1.4 60.9-10.6 96 30.4 24 28 29.3 68.3 15.5 98.4-26.1 56.5-113.3 63.5-160.1 36.5z"
  />
  <path
    class="orange-3-st5"
    d="M104.9 524.6c-40.5.6-69.3 35.7-75.5 43.3-6 7.3-28.1 36.8-22.5 75.4 4.7 32 28.6 61.1 62.6 73.1 31.1 11 75.8 8.1 104.7-17.5 34.7-30.8 23.7-75 20-89.8-8.6-34.7-40.2-85.2-89.3-84.5z"
  />
  <path
    class="orange-3-st2"
    d="M95.6 504.7c-39.2.6-67 34.5-73 41.9-5.8 7.1-27.2 35.6-21.7 72.9 4.6 31 27.6 59.1 60.5 70.7 30 10.6 73.3 7.8 101.2-17 33.6-29.8 22.9-72.6 19.4-86.8-8.4-33.6-39-82.4-86.4-81.7z"
  />
  <path
    d="M843.9 338.8c-40.1-55-86.1-81.6-135.6-109.5-77.2-43.5-212.7-119.8-376.2-84.1-39.5 8.6-108.1 29.8-181.2 89-57.6-3.8-106.3 35-113.9 83.5-5.9 36.8 12.7 75.6 46.7 98.6-2.2 39.8 1.6 79.6 11.5 118.2 23.3 90.6 73.4 147.9 101.6 179.3 26.5 29.5 133.4 145.3 302.9 166 46.3 5.6 115.8 13.1 180.8-25.5 21.3-12.6 37.2-27.3 86.7-93 89.4-118.6 134-177.8 139.3-224.4 10.8-97.2-46.4-175.8-62.6-198.1zM725.2 752.6c-36.5 33.8-97.5 88.1-176.6 83.2-53.3-3.3-90.4-32.2-154-82.9-55.2-44.2-104.3-95.6-146-152.8-7.6-71.8-15.3-143.7-22.9-215.5 32.9-44.8 87.2-105.3 169.9-152.3 25.7-14.6 52.6-27.1 80.4-37.2 42.1-.8 122.8 3.6 207.4 49.3 41.8 22.6 152.1 82.2 178 200.2 33.2 151.2-99.2 273.8-136.2 308z"
    fill="#fb5b42"
  />
  <path
    class="orange-3-st1"
    d="M854.5 322.9c-40.1-55-86.1-81.6-135.6-109.5-77.2-43.5-212.7-119.8-376.3-84.1-39.5 8.6-108.1 29.8-181.2 89-57.6-3.8-106.4 35-113.9 83.5-5.8 36.9 12.7 75.6 46.7 98.6-2.2 39.8 1.6 79.7 11.5 118.3C129 609.3 179.1 666.6 207.3 698c26.5 29.5 133.4 145.3 302.9 166 46.3 5.6 115.8 13.2 180.8-25.4 21.3-12.6 37.2-27.3 86.7-93C867.1 627 911.7 567.7 917 521.1c10.9-97.4-46.3-176-62.5-198.2zM735.8 736.7c-36.5 33.8-97.5 88.1-176.6 83.2-53.2-3.3-90.4-32.2-154-82.9-55.2-44.2-104.3-95.6-146-152.8-7.6-71.8-15.3-143.7-22.9-215.5 32.9-44.8 87.2-105.3 169.9-152.3 25.7-14.6 52.6-27.1 80.4-37.2 42.1-.8 122.8 3.6 207.4 49.3 41.7 22.6 152.1 82.2 178 200.2 33.2 151.1-99.2 273.7-136.2 308z"
  />
  <path
    class="orange-3-st7"
    d="M680.4 273.3c-76.8-41.5-150.2-45.5-188.5-44.8-25.3 9.2-49.7 20.5-73.1 33.8-75.1 42.8-124.5 97.8-154.4 138.4l20.9 195.8c37.8 52 82.5 98.6 132.7 138.8 57.8 46.1 91.5 72.3 139.9 75.3 71.9 4.5 127.3-44.9 160.5-75.6 33.7-31.2 154-142.5 123.8-279.8-23.6-107.1-123.9-161.4-161.8-181.9z"
  />
  <path
    class="orange-3-st8"
    d="M710 915.9c-15.7-24-8.2-53.1-3.7-70.7 7.7-30 23.6-49.5 33-64.5 30.5-48.6 63.7-99.6 115.3-124.7 76.7-37.2 169-5.2 206.2 71.4 1.4 2.8 2.6 5.6 3.8 8.5 8.7 21 12.6 44.9 5.8 66.6-7.2 22.8-25.1 40.6-43.8 55.6 0 0-89 69.9-227.2 88.8-12.6 1.7-34.1 4-57-5.9-7.1-3-22.3-9.7-32.4-25.1z"
  />
  <path
    class="orange-3-st1"
    d="M738.3 862.4c-13.6-20.9-7.1-46.2-3.2-61.5 6.7-26.1 20.5-43 28.7-56 26.5-42.2 55.4-86.6 100.3-108.4 66.7-32.4 147-4.5 179.3 62.1 1.2 2.4 2.3 4.9 3.3 7.4 7.6 18.3 10.9 39 5 57.9-6.2 19.8-21.8 35.3-38 48.3 0 0-77.4 60.8-197.5 77.2-11 1.5-29.6 3.5-49.5-5.1-6.3-2.7-19.6-8.5-28.4-21.9z"
  />
  <path
    class="orange-3-st8"
    d="M1143.9 790.5c-34.8 16.2-33.8 88.4-26.6 126.7 3 15.9 7.3 28.6 16.9 38.8 7.8 8.3 18.2 13.2 28.3 17.9l72.4 33.8c14.3 6.7 28.9 13.5 44.4 15 17.2 1.7 34.2-3 50.8-7.8 18.1-5.2 38.4-12.2 46.3-30 5-11.3 5.1-26.6-6.3-52.6-43-98.4-160-149.8-214.5-144.8-4 .3-8 1.3-11.7 3z"
  />
  <path
    class="orange-3-st7"
    d="M485 1127.4c-1.9 2-9.4 10-7.8 18.9 1.1 6.4 6.5 10.2 15.8 16.5 12 8.1 24.4 15.7 37.1 22.5 15.6 8.4 35.2 15.8 50.3 6.3 10.6-6.7 14.3-21.1 13.4-32-1.4-16.3-13.4-26.1-18.8-30.6-26.8-21.7-71.6-21.2-90-1.6z"
  />
  <path
    class="orange-3-st1"
    d="M1104.8 1278.7c-7.4 6.1-13.4 13.6-17.6 22.1-6.2 12-12.1 23.1-6.9 30.2 3.6 5 10 7.3 16.1 7.5s12.2-1.4 18.1-3c9-2.4 18.2-5 25.8-10.4s13.4-14.4 12.4-23.7c-1.2-11.7-12.8-18.1-17.3-20.6-11.8-6.6-23.5-5.2-27.7-4.5-.7.6-1.7 1.4-2.9 2.4z"
  />
  <path
    class="orange-3-st7"
    d="M763.6 956.4c-18.9 15.3-47.2 8.6-62.8-6.6-12.2-11.8-20.4-32.4-13.2-49 11-25.5 55.4-35.2 77.7-13.5 17.6 17.3 19.2 52.2-1.7 69.1zM973.3 1316.4c-16.9-6.8-10.8-6.1-30.7-15.8-5.9-2.7-11.3-6.6-15.6-11.5-1.1-1.2-2.1-2.5-3-3.9-4.6-6.7-6.5-15.7-3.1-23.1 6-13.1 23.7-14.8 38-13.9 39.9 2.5 79.4 10 117.4 22.4 21.9 7.2 34.6 17.3 36.2 30 1.9 15-14 31.2-29.7 38.4-24.4 11.3-52.7.1-109.5-22.6z"
  />
  <radialGradient
    id="SVGID_1_orange-3"
    cx="719.257"
    cy="929.645"
    r="142.35"
    gradientTransform="matrix(1 0 0 -1 0 1348.11)"
    gradientUnits="userSpaceOnUse"
  >
    <stop offset="0" stop-color="#ff000b" />
    <stop offset="1" stop-color="#fc1b00" stop-opacity="0" />
  </radialGradient>
  <path
    d="M825.6 508.1c-48.8 57-142.6 73.7-203.1 21.3-60.8-52.8-58.5-149.9-5.3-206.6 54.7-58.3 153.9-64.1 208.9-6 49.9 52.8 44.5 138.6-.5 191.3z"
    fill="url(#SVGID_1_orange-3)"
  />
  <radialGradient
    id="SVGID_00000145017233400303119640000008954505351967747987_orange-3"
    cx="482.409"
    cy="667.37"
    r="142.352"
    gradientTransform="matrix(1 0 0 -1 0 1348.11)"
    gradientUnits="userSpaceOnUse"
  >
    <stop offset="0" stop-color="#ff000b" />
    <stop offset="1" stop-color="#fc1b00" stop-opacity="0" />
  </radialGradient>
  <path
    d="M588.7 770.3c-48.8 57-142.6 73.7-203.1 21.2-60.8-52.8-58.4-149.9-5.3-206.6 54.6-58.3 153.9-64.1 208.9-6 49.9 53 44.6 138.7-.5 191.4z"
    fill="url(#SVGID_00000145017233400303119640000008954505351967747987_orange-3)"
  />
  <path
    class="orange-3-st1"
    d="M1177.4 784.6c-29.8 13.9-28.9 75.6-22.7 108.4 2.6 13.6 6.3 24.5 14.4 33.2 6.7 7.1 15.6 11.3 24.2 15.3l61.9 28.9c12.2 5.7 24.8 11.5 38 12.8 14.7 1.5 29.2-2.6 43.4-6.7 15.5-4.4 32.8-10.4 39.6-25.7 4.3-9.7 4.3-22.8-5.4-45-36.8-84.2-136.9-128.1-183.5-123.9-3.3.4-6.7 1.3-9.9 2.7z"
  />
  <path
    class="orange-3-st7"
    d="M1207.5 958.9c-61.6-8-82-3.5-95.8 1.6-12.8 4.8-20.8 11-27 19.5-6.6 9.1-9.3 21.7-4.4 31.8 6.4 13.4 23.3 18.3 38.1 17.5 14.8-.8 29.2-5.7 44-5.8 19.1-.1 37.3 7.8 55 15.1s36.5 14.1 55.5 11.8c18.2-2.2 38.2-19 38.6-35.9.5-21.7-31.6-36.4-45.7-42.9-5.8-2.5-17.1-7.3-58.3-12.7z"
  />
  <path
    class="orange-3-st8"
    d="M1067.6 795.6c-4.8 3.1-8.5 7.7-10.6 13-.7 2-3.8 10.2.1 16.1 4.3 6.6 13.4 7.5 21.3 7.8l31 1c4.9.2 10 .3 14.7-1s9.3-4.2 11.4-8.7c3-6.6-1-13.4-1.8-14.9-3-5.2-7.7-7.9-11.9-9.8-9.3-4.1-35.6-16.2-54.2-3.5z"
  />
  <path
    d="M431.4 595.8c23.3-1.3 42.2-19.4 44.5-42.7.6-5.9.1-11.8-1.5-17.5-.8-2.8-3.2-5.2-6.4-4.6-2.6.5-5.4 3.4-4.6 6.4.6 2.2 1.1 4.5 1.4 6.8.1 1.1.2 2.2.2 3.2v.7c0 .6 0 1.2-.1 1.8-.1 2.2-.4 4.5-.9 6.7-.2 1 0 .2 0 0-.1.2-.1.5-.2.7-.1.5-.3 1-.5 1.6-.4 1.2-.8 2.4-1.2 3.5s-.9 2-1.3 3c0 .1-.4.8-.1.2l-.2.4c-.3.5-.6 1.1-1 1.6-1.2 2-2.7 3.9-4.3 5.7.7-.7.1-.1-.1 0l-.7.7c-.4.4-.7.7-1.1 1-1 .9-2 1.8-3.1 2.6-.5.4-1 .7-1.4 1-.3.2-1.6 1-.7.5-1.1.7-2.2 1.3-3.3 1.8-1.3.6-2.6 1.2-4 1.7-.6.2-1.3.5-1.9.7.1 0 .9-.2.2-.1l-1.2.3c-2.8.7-5.6 1.2-8.5 1.3-2.9.1-5.1 3.7-4.6 6.4.9 3.3 3.5 4.8 6.6 4.6z"
  />
  <path
    d="M438.1 598.8c22.5-1.2 40.8-18.6 43-41 .6-5.7.1-11.5-1.5-17-.6-1.9-2.1-3.4-4.2-3-1.8.3-3.6 2.3-3 4.2 2.5 8.5 2.1 17.6-1.2 25.8-3.5 8.5-10 15.5-18.3 19.6-4.9 2.5-10.3 3.8-15.9 4.1-2 .1-3.4 2.4-3 4.2.3 2.2 2.2 3.2 4.1 3.1zM557.9 446.1c23.3-1.3 42.2-19.4 44.5-42.7.6-5.9.1-11.8-1.5-17.5-.8-2.8-3.2-5.2-6.3-4.6-2.7.5-5.4 3.4-4.6 6.4.7 2.2 1.1 4.5 1.4 6.8.1 1.1.2 2.1.2 3.2v.7c0 .6 0 1.2-.1 1.9-.1 2.2-.4 4.5-.9 6.7-.2 1 0 .2 0 0 0 .2-.1.5-.2.7-.1.5-.3 1-.4 1.6-.4 1.2-.8 2.4-1.2 3.5s-.9 2-1.3 3l-.1.2-.2.4c-.3.5-.6 1.1-.9 1.6-1.2 2-2.7 3.9-4.3 5.7.7-.7.1-.1-.1 0l-.7.7c-.4.4-.7.7-1.1 1-1 .9-2 1.8-3.1 2.6-.5.4-1 .7-1.5 1-.3.2-1.6 1-.7.4-1.1.7-2.2 1.3-3.3 1.9-1.3.6-2.6 1.2-4 1.7-.6.2-1.3.5-1.9.7.1 0 .8-.2.2-.1l-1.2.3c-2.8.7-5.6 1.2-8.5 1.3-2.9.1-5.2 3.6-4.6 6.4.7 3.1 3.3 4.6 6.4 4.5z"
  />
  <path
    d="M564.6 449.1c22.5-1.2 40.8-18.6 43-41 .6-5.7.1-11.5-1.5-17-.5-1.9-2.1-3.4-4.2-3-1.8.3-3.6 2.3-3 4.2 2.5 8.5 2 17.6-1.3 25.8-3.5 8.5-10 15.5-18.3 19.6-4.9 2.5-10.3 3.9-15.9 4.1-2 .1-3.3 2.4-3 4.2.4 2 2.2 3.3 4.2 3.1z"
  />
  <path
    class="orange-3-st1"
    d="M1088.9 703.2c.8 0 1.5-.7 1.5-1.5s-.7-1.5-1.5-1.5-1.5.7-1.5 1.5.7 1.5 1.5 1.5z"
  />
  <path
    d="M550.2 530.4c4 10.9 8.7 22.4 18.6 29.2 4.2 3 9.2 4.7 14.4 4.9 6.2.1 12.1-2.3 16.5-6.7 1.5-1.3 1.7-3.6.5-5.2-1.2-1.4-3.8-1.9-5.2-.5-3.2 3.4-7.7 5.2-12.4 4.9-3.9-.4-7.6-1.9-10.7-4.3-8-6-11.6-16.2-15-25.4-.9-1.8-3-2.7-4.9-1.8-1.8.9-2.6 3-1.8 4.9z"
  />
  <path
    d="M634.1 566.9c2.2-4.3 4.4-8.3 6.7-12 1.4-2.3 4.3-3 6.6-1.6.5.3.9.7 1.3 1.1 3.4 4.4 6.6 8.9 9.5 13.5 1.4 2.2.8 5.2-1.5 6.6-.8.5-1.8.8-2.8.7-2.3-.1-4.6-.2-7-.4-3.2-.3-6.2-.6-9.2-1-2.6-.4-4.4-2.7-4.1-5.4.1-.5.2-1 .5-1.5z"
    fill="#fff"
  />
  <path
    d="m627.5 588.7 23.9-35.4c1.8-2.5 1.1-6-1.4-7.7-2.5-1.8-6-1.1-7.7 1.4l-23.9 35.4c-1.8 2.4-1.4 5.9 1.1 7.8 2.4 1.8 5.9 1.4 7.8-1.1 0-.2.1-.3.2-.4z"
  />
</svg>
