<svg
  version="1.1"
  id="pink_5"
  xmlns="http://www.w3.org/2000/svg"
  x="0"
  y="0"
  viewBox="0 0 1479.7 2183.4"
  style="enable-background: new 0 0 1479.7 2183.4"
  xml:space="preserve"
>
  <style>
    .st0-pink-level-five {
      fill: #daa435;
    }
    .st1-pink-level-five {
      fill: #fcd96b;
    }
    .st2-pink-level-five {
      fill: #e35156;
    }
    .st3-pink-level-five {
      fill: #d2006d;
    }
    .st4-pink-level-five {
      fill: #b4b4b4;
    }
    .st5-pink-level-five {
      fill: #174a87;
    }
    .st6-pink-level-five {
      fill: #2c7dbe;
    }
    .st7-pink-level-five {
      fill: #469dfc;
    }
    .st8-pink-level-five {
      fill: #ff5959;
    }
    .st9-pink-level-five {
      fill: #fd037f;
    }
    .st10-pink-level-five {
      fill: #235caf;
    }
    .st11-pink-level-five {
      fill: #fff;
    }
    .st12-pink-level-five {
      opacity: 0.3;
    }
    .st13-pink-level-five {
      fill: #e51570;
    }
    .st16-pink-level-five {
      fill: #d5006d;
    }
    .st17-pink-level-five {
      fill: #070707;
    }
    .st18-pink-level-five {
      fill: #ea527e;
    }
    .st19-pink-level-five {
      opacity: 0.4;
    }
    .st20-pink-level-five {
      fill: #d41549;
    }
    .st22-pink-level-five {
      opacity: 0.2;
    }
    .st23-pink-level-five {
      fill: #c7006a;
    }
    .st24-pink-level-five {
      fill: #ff2791;
    }
    .st25-pink-level-five {
      fill: #651e02;
    }
  </style>
  <path
    class="st0-pink-level-five"
    d="M821 1561c-27 49 8 134 66 177 52 40 133 53 187 24 25-13 39-33 75-37 8-1 38-5 68 12 39 21 34 52 68 64 21 8 47 5 65-7 28-19 21-47 45-76 13-15 36-32 85-38l-13-2c-20-4-41-2-52 1-34 10-31 44-65 59-23 10-45 5-61 1-58-14-58-54-104-73-70-29-126 40-183 3-16-10-33-30-45-48-16-26-14-37-31-59-11-13-29-36-54-36-23 0-42 19-51 35z"
  />
  <path
    class="st1-pink-level-five"
    d="M826 1532c-29 48 3 134 59 180 50 42 131 59 186 32 26-12 40-31 76-34 8-1 39-3 68 14 37 23 31 54 64 68 21 9 48 7 66-5 29-17 23-46 49-74 13-14 37-30 86-34l-12-3c-21-4-41-3-53-1-34 8-33 43-68 57-22 9-44 2-60-3-58-16-56-56-101-76-69-33-128 34-183-6-15-10-31-31-42-50-16-26-13-37-30-60-10-13-27-37-52-38-22 0-43 18-53 33z"
  />
  <path
    class="st2-pink-level-five"
    d="M627 1900c30-5 58-20 84-38l-8-50c-16 22-41 38-67 44-31 7-64 2-91-14v42c25 15 54 20 82 16z"
  />
  <path
    class="st3-pink-level-five"
    d="M636 1856c26-6 51-22 67-44l-35-225-127 13 4 242c27 16 60 21 91 14z"
  />
  <path
    class="st4-pink-level-five"
    d="M648 1942c26-7 50-22 69-43l-6-37c-26 18-54 33-84 38-28 5-57-1-82-16l1 44c32 17 68 23 102 14z"
  />
  <path
    class="st5-pink-level-five"
    d="M717 1899c-19 21-43 36-69 43-34 9-70 3-102-15v1l1 38c28 22 67 31 102 22 30-7 57-27 74-53l-6-36z"
  />
  <path
    class="st6-pink-level-five"
    d="M649 1988c-35 9-74 0-102-22v40c-61 16-103 53-99 92 5 47 75 79 157 71 91-10 139-88 139-94v-6l-1-5-20-129c-17 27-44 46-74 53z"
  />
  <path
    class="st7-pink-level-five"
    d="M648 1942a142 142 0 0 1 0 0c-34 9-70 3-102-15v1c32 17 68 23 102 14z"
  />
  <path
    class="st8-pink-level-five"
    d="M596 1918c31-2 60-14 88-29l-2-51c-19 20-45 34-72 37-32 5-64-4-89-23l-4 42c23 18 52 26 79 24z"
  />
  <path
    class="st9-pink-level-five"
    d="M610 1876c27-4 53-18 72-38l-13-227H542l-21 241c25 19 58 28 89 24z"
  />
  <path
    class="st7-pink-level-five"
    d="M610 2008c-36 5-74-7-100-32l-3 39c-63 11-108 44-108 83 0 47 66 85 148 85 92 0 148-73 149-79v-11l-7-130c-20 25-48 41-79 45zM613 1962a143 143 0 0 1 0 0 138 138 0 0 0 0 0z"
  />
  <path
    class="st10-pink-level-five"
    d="M686 1926c-21 19-46 32-73 36-34 6-70-4-100-24l-3 38a107 107 0 0 0 100 32c40-5 67-27 79-38l-2-25-1-19z"
  />
  <path
    class="st11-pink-level-five"
    d="M613 1962a147 147 0 0 0 73-36l-2-47a125 125 0 0 1-88 39c-27 2-56-7-79-24l-4 43c30 21 66 31 100 25z"
  />
  <g class="st12-pink-level-five">
    <path
      class="st11-pink-level-five"
      d="M553 1824c-15 6-3 84-13 125-1 3-3 12 1 21 3 6 10 11 17 10 8-2 11-13 12-21 5-47 2-75-5-122-1-3-2-11-7-13h-5z"
    />
  </g>
  <g class="st12-pink-level-five">
    <path
      class="st11-pink-level-five"
      d="M496 2033c-24-1-41 16-65 40-4 5-9 11-11 20-2 7 0 16 6 20 5 4 11 5 17 4l17-7 37-20c16-8 23-14 25-21 3-9 1-20-5-27-7-8-17-8-21-9z"
    />
  </g>
  <g class="st12-pink-level-five">
    <path
      class="st11-pink-level-five"
      d="M554 1803c-8 1-18-7-20-17-2-9 4-21 15-23s21 8 22 17c0 8-7 15-10 18l-7 5z"
    />
  </g>
  <path
    class="st2-pink-level-five"
    d="M870 1900c-30-5-58-20-84-38l8-50c16 22 41 38 67 44 31 7 64 2 91-14v42c-24 15-54 20-82 16z"
  />
  <path
    class="st3-pink-level-five"
    d="M861 1856c-26-6-51-22-67-44l35-225 127 13-4 242c-27 16-60 21-91 14z"
  />
  <path
    class="st4-pink-level-five"
    d="M849 1942c-26-7-50-22-69-43l6-37c26 18 54 33 84 38 28 5 57-1 82-16l-1 44c-31 17-68 23-102 14z"
  />
  <path
    class="st5-pink-level-five"
    d="M780 1899c19 21 43 36 69 43 34 9 70 3 102-15v1l-1 38c-28 22-67 31-102 22-30-7-57-27-74-53l6-36z"
  />
  <path
    class="st6-pink-level-five"
    d="M848 1988c35 9 74 0 102-22v40c61 16 103 53 99 92-5 47-75 79-156 71-92-10-140-88-140-94v-6l1-5 20-129c17 27 44 46 74 53z"
  />
  <path
    class="st7-pink-level-five"
    d="M849 1942a142 142 0 0 0 0 0c34 9 70 3 102-15v1c-31 17-68 23-102 14z"
  />
  <path
    class="st8-pink-level-five"
    d="M901 1918c-31-2-60-14-88-29l3-51c18 20 44 34 71 37 32 5 64-4 89-23l4 42c-22 18-52 26-79 24z"
  />
  <path
    class="st9-pink-level-five"
    d="M887 1876c-27-4-53-18-72-38l13-227h128l20 241c-25 19-57 28-89 24z"
  />
  <path
    class="st7-pink-level-five"
    d="M887 2008c36 5 74-7 100-32l3 39c63 11 108 44 108 83 0 47-66 85-148 85-92 0-148-73-148-79l-1-6v-5l8-130c19 25 48 41 78 45zM884 1962a143 143 0 0 0 0 0 138 138 0 0 1 0 0z"
  />
  <path
    class="st10-pink-level-five"
    d="M811 1926c21 19 46 32 73 36 34 6 70-4 100-24l3 38a107 107 0 0 1-100 32c-40-5-67-27-79-38l2-25 1-19z"
  />
  <path
    class="st11-pink-level-five"
    d="M884 1962a147 147 0 0 1-73-36l2-47a125 125 0 0 0 88 39c27 2 57-7 79-24l4 43c-30 21-66 31-100 25z"
  />
  <g class="st12-pink-level-five">
    <path
      class="st11-pink-level-five"
      d="M944 1824c15 6 3 84 13 125 1 3 3 12-1 21-3 6-10 11-16 10-9-2-12-13-13-21-5-47-2-75 5-122 1-3 2-11 7-13h5z"
    />
  </g>
  <g class="st12-pink-level-five">
    <path
      class="st11-pink-level-five"
      d="M1002 2033c23-1 40 16 64 40 4 5 9 11 11 20 2 7 0 16-6 20-5 4-11 5-17 4l-17-7-37-20c-16-8-23-14-25-21-3-9-1-20 5-27 7-8 17-8 22-9z"
    />
  </g>
  <g class="st12-pink-level-five">
    <path
      class="st11-pink-level-five"
      d="M944 1803c7 1 17-7 19-17 2-9-4-21-15-23s-21 8-22 17c0 8 7 15 10 18l8 5z"
    />
  </g>
  <path
    class="st9-pink-level-five"
    d="M1280 1080c0-251-155-466-377-559a613 613 0 0 0-777 587c0 251 156 467 378 559a613 613 0 0 0 777-587z"
  />
  <circle class="st13-pink-level-five" cx="723.3" cy="1131.3" r="301.3" />
  <path
    class="st13-pink-level-five"
    d="M903 521a607 607 0 0 1 377 559 613 613 0 0 1-776 587c74 31 156 48 241 48 342 0 619-272 619-607 0-281-195-518-461-587z"
  />
  <circle cx="745.4" cy="1181.8" r="272.9" style="fill: #ffb6c7" />
  <ellipse cx="748" cy="1293" rx="30.3" ry="21.6" style="fill: #fd016f" />
  <ellipse
    class="st11-pink-level-five"
    cx="757.7"
    cy="1290.1"
    rx="12.3"
    ry="7.7"
  />
  <g>
    <path
      class="st0-pink-level-five"
      d="M487 542a642 642 0 0 0-346 430c-4 23-9 66 13 97 17 25 63 28 85 10 2-1 19-15 20-35 1-9-2-17 3-26 1-1 5-8 11-10 19-5 36 54 69 55 20 1 36-20 39-24 13-16 13-35 14-47 1-26 6-102 45-155 19-26 36-31 41-33 17-6 38-4 50 9 7 7 11 16 19 20 16 8 33-7 41-23 7-15 12-34 27-43 23-15 52 6 69 28s36 48 64 47c31-1 48-37 52-68 3-31 1-65 21-89 14-17 41-28 57-20 9 5 16 21 31 54 2 6 7 16 16 24 4 3 11 9 20 9 18 1 32-21 36-27 19-29 11-53 26-59 10-4 21 4 23 5 18 12 16 39 21 78 2 20 6 50 17 73 3 9 33 75 99 83 45 6 101-15 116-57 17-46-8-93-28-126a531 531 0 0 0-299-212c-63-19-261-67-472 32z"
    />
  </g>
  <g>
    <path
      class="st0-pink-level-five"
      d="M190 1166c-6 10-5 21-5 26 3 20 16 32 20 35 3 3 26 22 48 11 18-8 25-29 23-46-4-27-33-37-35-38-16-5-40-3-51 12z"
    />
  </g>
  <g>
    <path
      class="st1-pink-level-five"
      d="M477 508a642 642 0 0 0-346 430c-5 23-9 66 13 97 18 28 65 37 85 10 9-13 10-30 15-45s17-31 33-29c28 3 28 50 55 58 16 5 33-8 39-23s4-33 4-50c0-55 20-110 55-153 11-14 24-27 41-33s38-4 50 9c6 7 10 16 19 21 15 8 33-8 40-24 8-15 13-34 28-43 23-15 52 7 69 28 17 22 36 48 64 47 31-1 48-37 51-68 4-31 2-65 22-89 13-16 36-24 57-20s38 20 44 40c5 18 6 41 23 47 16 6 31-11 36-27s7-34 20-46c15-14 41-10 56 5s21 36 22 57c2 20 0 41 3 62 6 47 40 91 85 103 46 12 100-13 116-57 17-47-8-93-28-126a531 531 0 0 0-299-213c-64-19-261-67-472 32z"
    />
  </g>
  <g>
    <path
      class="st16-pink-level-five"
      d="m326 470-1-2c-59-57-66-121-92-216-19-71-28-106-41-125C131 35 22 37 25 17l1-2C10 20 1 26 0 32c-2 20 106 18 168 110 12 19 22 54 41 125 25 95 32 159 91 216l1 2c93 88 204 114 252 103 8-2 26-6 40-20l-15 5c-48 11-159-15-252-103z"
    />
    <path
      class="st13-pink-level-five"
      d="M600 561c12-15 15-33 16-48 3-66-26-136-30-143-36-72-77-141-124-206-31-43-53-64-81-86A426 426 0 0 0 25 17c-3 20 106 18 168 110 12 19 22 54 41 125 25 95 32 159 91 216l1 2c93 88 204 114 252 103l15-5 7-7z"
    />
    <path
      class="st9-pink-level-five"
      d="M558 471c-33 8-109-10-171-70-6-5-73-69-84-165-3-25-2-52 8-76s29-44 53-51c26-8 55 0 77 15s39 37 55 59c31 44 60 91 84 140 2 5 23 53 20 98 0 9-2 22-11 32-10 13-25 17-31 18z"
    />
    <path
      class="st16-pink-level-five"
      d="M206 266c-14-4-24-16-30-28-7-12-12-26-20-38a83 83 0 0 0-100-26l-2-1-6 6c-1 1 0 4 2 3 34-16 78-5 99 26 8 12 13 25 20 38 7 12 17 24 30 28 16 4 33-8 45-24-11 12-25 19-38 16z"
    />
    <path
      class="st13-pink-level-five"
      d="M242 160c-8-10-16-16-18-18-34-25-81-13-99-8-32 9-55 25-71 39l2 1c34-15 79-4 100 26 8 12 13 26 20 38 6 12 16 24 30 28 13 3 27-4 38-16 4-5 7-11 9-16 15-35-8-69-11-74z"
    />
    <circle class="st11-pink-level-five" cx="497.2" cy="453.1" r="56.6" />
    <circle class="st17-pink-level-five" cx="480.3" cy="442.7" r="19.1" />
    <g class="st12-pink-level-five">
      <path
        class="st11-pink-level-five"
        d="M533 375c-5 18 25 36 34 68 7 26 3 69 9 75l4 2c3 0 6-4 7-5 4-5 5-11 6-17 5-41-4-84-26-119-1-3-4-10-11-14-1 0-10-5-17 0-4 2-6 8-6 10z"
      />
    </g>
    <g class="st12-pink-level-five">
      <path
        class="st11-pink-level-five"
        d="M173 133c12 1 46 7 61 36 2 4 7 14 4 19-5 6-14 4-22 1l-36-15c-18-6-25-14-25-22-1-6 2-13 8-17 3-2 7-2 10-2z"
      />
    </g>
    <g class="st12-pink-level-five">
      <path
        class="st11-pink-level-five"
        d="M542 348c-7 7-20 6-27-1s-10-19-3-27c6-8 18-8 26-3 9 7 12 23 4 31z"
      />
    </g>
  </g>
  <g>
    <path
      class="st7-pink-level-five"
      d="m1158 685-27-56c-4-8-16-1-12 7l27 56c4 8 16 1 12-7z"
    />
  </g>
  <g>
    <path
      class="st7-pink-level-five"
      d="m949 579 45-25c8-4 1-16-7-12l-45 25c-8 5 0 17 7 12z"
    />
  </g>
  <g>
    <path
      class="st7-pink-level-five"
      d="m574 632 43 8c9 1 12-12 3-14l-42-7c-9-2-12 12-4 13z"
    />
  </g>
  <g>
    <path
      class="st7-pink-level-five"
      d="m787 589 45-72c5-8-7-15-12-7l-45 72c-4 8 8 15 12 7z"
    />
  </g>
  <g>
    <path
      class="st18-pink-level-five"
      d="m465 645 15 57c2 9 16 5 13-4l-15-57c-2-9-15-5-13 4z"
    />
  </g>
  <g>
    <path
      class="st18-pink-level-five"
      d="m841 473 57 45c3 2 7 3 10 0 2-2 3-7 0-10l-57-45c-3-2-7-2-10 0-3 3-3 8 0 10z"
    />
  </g>
  <g>
    <path
      class="st18-pink-level-five"
      d="m1207 771-48-32c-7-6-14 7-7 12l48 32c7 5 14-7 7-12z"
    />
  </g>
  <g>
    <path
      class="st18-pink-level-five"
      d="m695 700 52-44c6-6-4-16-10-10l-52 44c-7 5 3 15 10 10z"
    />
  </g>
  <g>
    <path
      class="st1-pink-level-five"
      d="M179 1163c-7 10-5 21-5 26 2 20 16 32 19 35 4 3 27 22 49 11 18-8 25-29 23-46-4-27-33-37-35-38-17-5-41-3-51 12z"
    />
  </g>
  <path
    class="st11-pink-level-five"
    d="m753 1400 26-57c2-3-1-7-5-7h-52c-4 0-7 4-5 7l26 57c2 4 8 4 10 0z"
  />
  <g class="st19-pink-level-five">
    <path
      class="st11-pink-level-five"
      d="M313 675s-52 56-94 152c-5 10-10 26-5 44 4 14 18 27 33 25 17-4 24-23 31-39 34-79 119-123 162-196 9-17 11-36 3-45-11-11-37-3-47 0-28 8-51 25-83 59z"
    />
  </g>
  <g class="st12-pink-level-five">
    <path
      class="st11-pink-level-five"
      d="M1257 1023c-16 18-10 41-24 66-10 18-14 11-26 29-14 21-13 50-10 77 1 7 2 14 5 19 3 6 9 11 15 11 7 0 13-7 18-14 18-25 37-50 50-78 14-29 22-61 19-93-3-22-11-26-14-28-7-3-17 0-19 1-3 1-8 4-14 10z"
    />
  </g>
  <g class="st12-pink-level-five">
    <path
      class="st11-pink-level-five"
      d="M1284 995c-8 5-22 8-33 1-17-9-16-31-16-32 2-13 10-24 21-31 8-4 17-6 26-4 2 1 15 4 20 16 6 12 0 25-4 33-3 6-6 12-14 17z"
    />
  </g>
  <g>
    <circle class="st11-pink-level-five" cx="654" cy="1216" r="69.3" />
    <circle class="st17-pink-level-five" cx="675.5" cy="1240.7" r="30.7" />
    <circle class="st11-pink-level-five" cx="692.5" cy="1243.3" r="5.1" />
    <circle class="st11-pink-level-five" cx="679.2" cy="1227.9" r="10.3" />
    <path
      class="st9-pink-level-five"
      d="m602 1125 69 51 19 14c3 2 9 3 12 2 4-1 8-4 9-7 2-4 3-8 2-12l-1-4-6-5-69-51-19-14c-3-3-9-3-12-2-4 1-8 4-9 7-2 4-3 8-2 12l2 4 5 5z"
    />
  </g>
  <g>
    <circle class="st11-pink-level-five" cx="835" cy="1216" r="69.3" />
    <circle class="st17-pink-level-five" cx="813.6" cy="1240.7" r="30.7" />
    <circle class="st11-pink-level-five" cx="796.5" cy="1243.3" r="5.1" />
    <circle class="st11-pink-level-five" cx="809.9" cy="1227.9" r="10.3" />
    <path
      class="st9-pink-level-five"
      d="m887 1125-69 51-19 14c-3 2-9 3-12 2-4-1-8-4-9-7-2-4-3-8-2-12l2-4 5-5 69-51 19-14c3-3 9-3 12-2 4 1 8 4 9 7 2 4 3 8 2 12l-2 4-5 5z"
    />
  </g>
  <g>
    <path
      class="st7-pink-level-five"
      d="m218 866 52-58c6-6-4-16-10-10l-51 58c-6 7 3 17 9 10z"
    />
  </g>
  <g>
    <path
      class="st7-pink-level-five"
      d="m352 700 32 28c7 6 17-4 10-10l-32-28c-7-5-17 4-10 10z"
    />
  </g>
  <g>
    <path
      class="st18-pink-level-five"
      d="m301 717 7-47c1-4-1-8-5-9-3-1-8 1-8 5l-8 47c0 4 1 8 5 9 3 1 8-1 9-5z"
    />
  </g>
  <g>
    <path
      class="st18-pink-level-five"
      d="m286 917 48-13c8-2 5-16-4-13l-48 12c-8 2-5 16 4 14z"
    />
  </g>
  <g>
    <path
      class="st16-pink-level-five"
      d="m1143 470 2-2c58-57 65-121 91-216 19-71 28-106 41-125 61-92 170-91 167-111v-2c15 6 25 12 25 17 3 20-106 19-167 111-13 19-22 54-41 125-26 95-33 159-92 216l-1 2c-92 88-204 114-252 102-8-2-25-6-40-19l15 4c48 12 160-14 252-102z"
    />
    <path
      class="st13-pink-level-five"
      d="M870 561a81 81 0 0 1-16-48c-4-66 26-136 29-143 36-72 78-141 125-206 30-43 52-64 80-86a426 426 0 0 1 356-61c3 20-106 18-167 110-13 19-22 54-41 125-26 95-33 159-92 216l-1 2c-92 88-204 114-252 103l-15-5-6-7z"
    />
    <path
      class="st9-pink-level-five"
      d="M911 471c33 8 109-10 172-70 5-5 73-69 83-165 3-25 2-52-8-76s-28-44-53-51c-26-8-54 0-76 15-23 15-40 37-55 59-32 44-60 91-85 140-2 5-23 53-20 98 1 9 2 22 11 32 10 13 25 17 31 18z"
    />
    <path
      class="st16-pink-level-five"
      d="M1263 266c14-4 24-16 31-28s11-26 19-38c22-30 66-41 100-26l2-1 6 6c2 1 0 4-2 3-33-16-78-5-99 26-8 12-13 25-20 38-7 12-16 24-30 28-15 4-33-8-44-24 11 12 25 19 37 16z"
    />
    <path
      class="st13-pink-level-five"
      d="M1228 160c7-10 15-16 17-18 35-25 82-13 100-8 31 9 55 25 70 39l-2 1c-34-15-78-4-100 26-8 12-12 26-19 38s-17 24-31 28c-12 3-26-4-37-16l-10-16c-14-35 9-69 12-74z"
    />
    <circle class="st11-pink-level-five" cx="972.1" cy="453.1" r="56.6" />
    <circle class="st17-pink-level-five" cx="989" cy="442.7" r="19.1" />
    <g class="st12-pink-level-five">
      <path
        class="st11-pink-level-five"
        d="M937 375c4 18-25 36-35 68-7 26-3 69-9 75-1 2-3 2-3 2-4 0-7-4-8-5-4-5-5-11-6-17-5-41 4-84 26-119 1-3 4-10 11-14 1 0 11-5 17 0 5 2 6 8 7 10z"
      />
    </g>
    <g class="st12-pink-level-five">
      <path
        class="st11-pink-level-five"
        d="M1296 133c-11 1-46 7-61 36-2 4-7 14-3 19 4 6 14 4 21 1l36-15c18-6 25-14 26-22 0-6-3-13-8-17-4-2-8-2-11-2z"
      />
    </g>
    <g class="st12-pink-level-five">
      <path
        class="st11-pink-level-five"
        d="M928 348c7 7 19 6 27-1 7-7 9-19 3-27-7-8-19-8-26-3-10 7-12 23-4 31z"
      />
    </g>
  </g>
  <g>
    <path class="st1-pink-level-five" d="M1158 1985c2 0 2-3 0-3s-2 3 0 3z" />
  </g>
  <g>
    <ellipse
      transform="rotate(-25 341 1393)"
      class="st9-pink-level-five"
      cx="341"
      cy="1393.5"
      rx="171.1"
      ry="165.8"
    />
    <ellipse
      class="st20-pink-level-five"
      cx="438.5"
      cy="1380.8"
      rx="199.3"
      ry="158.5"
    />
    <radialGradient
      id="SVGID_1_"
      cx="456.4"
      cy="1352.2"
      r="177.1"
      fx="543.6"
      fy="1320.8"
      gradientUnits="userSpaceOnUse"
    >
      <stop offset="0" style="stop-color: #f72165" />
      <stop offset=".8" style="stop-color: #ff6e73" />
    </radialGradient>
    <path
      d="M515 1205c-67-17-123 4-147 16-30 14-92 43-106 110-15 65 28 117 33 122 21 25 67 62 107 51 21-5 29-20 63-25 4-1 19-3 38-1 29 3 35 12 52 12 25 0 43-16 55-27 45-39 44-100 44-105-1-55-36-90-49-103-34-35-73-46-90-50z"
      style="fill: url(#SVGID_1_)"
    />
    <g class="st22-pink-level-five">
      <path
        class="st23-pink-level-five"
        d="M389 1351c-6 3-16 8-26 18-11 10-26 26-28 48-1 20 10 40 28 47 27 10 54-9 81-21 25-11 53-16 80-12 21 2 44 8 59-6 11-9 13-26 8-40-2-7-7-19-27-33-59-38-139-18-175-1z"
      />
    </g>
    <g class="st19-pink-level-five">
      <path
        class="st11-pink-level-five"
        d="M538 1247a90 90 0 0 0-73-10c-9 3-27 8-29 18-2 13 11 22 23 25s25 2 35 10c14 10 17 31 32 39 11 6 28 0 36-10 12-14 5-34 3-40-7-18-20-27-27-32z"
      />
    </g>
    <g class="st19-pink-level-five">
      <path
        class="st11-pink-level-five"
        d="M374 1262c-6 8 2 27 13 28 11 2 23-15 19-24-4-10-26-13-32-4z"
      />
    </g>
    <g class="st22-pink-level-five">
      <path
        class="st23-pink-level-five"
        d="m397 1392-16 8c-7 6-16 14-17 25-1 10 6 20 17 24 16 5 33-5 49-11 15-6 32-8 49-6 12 1 26 4 35-3 7-5 8-13 5-20-1-4-4-10-17-17-35-19-84-9-105 0z"
      />
    </g>
    <g>
      <path
        class="st13-pink-level-five"
        d="M464 1485c-29 5-51-12-58-17-9-7-16-13-17-22s4-17 12-22c7-4 15-6 24-8 17-4 34-8 51-4 14 3 32 18 32 36-1 17-19 28-23 30-8 6-16 7-21 7z"
      />
      <path
        class="st13-pink-level-five"
        d="m479 1451-116 100c-7 5-17 14-24 29-6 12-6 26 1 37 12 16 36 14 56 8 50-16 95-50 123-94 11-16 25-45 13-67-6-11-19-23-34-23-9 1-16 7-19 10z"
      />
      <path
        class="st24-pink-level-five"
        d="M524 1444c-3-6-8-12-14-17-6-11-18-19-28-22-17-4-35 0-52 4-8 2-17 4-24 9-7 4-12 12-12 21 1 9 9 15 18 22l13 9-70 61c-6 5-17 14-24 29-5 12-6 26 2 37 11 16 36 14 55 8 51-16 95-50 124-94 11-17 24-45 12-67z"
      />
      <path
        class="st13-pink-level-five"
        d="m416 1474 3 2 15 5h18l-10-3-9-5c-9-4-11-5-13-4s-4 3-4 5z"
      />
      <g class="st12-pink-level-five">
        <path
          class="st11-pink-level-five"
          d="M409 1506c-7-4-21 8-49 33-10 9-13 13-16 19-7 14-6 33 1 37 11 4 27-33 56-55 2-2 8-7 11-15 1-6 2-16-3-19z"
        />
      </g>
      <g class="st12-pink-level-five">
        <path
          class="st11-pink-level-five"
          d="M455 1416c-7-1-17-2-28 3-4 2-9 5-10 9 0 5 4 8 8 9 5 1 9-1 13-3l12-3c4-1 7 1 10 1 3 1 7 2 10 1s6-4 6-7c0-4-4-6-5-7l-8-2-8-1z"
        />
      </g>
      <path
        class="st25-pink-level-five"
        d="m387 1427 11 10c2 1 6 0 6-3l3-14c0-3-2-6-5-5l-14 5c-3 1-4 5-1 7zM383 1463l26-1c2 0 4-3 3-5l-7-16c-1-3-4-3-6-2l-19 18c-2 2-1 7 3 6zM420 1480l13-8c2-1 2-5 0-6l-13-8c-3-1-6 0-6 3v15c0 3 3 5 6 4z"
      />
    </g>
  </g>
  <g>
    <ellipse
      transform="rotate(-65 1144 1390)"
      class="st9-pink-level-five"
      cx="1144.1"
      cy="1389.9"
      rx="165.8"
      ry="171.1"
    />
    <ellipse
      class="st20-pink-level-five"
      cx="1046.5"
      cy="1377.2"
      rx="199.3"
      ry="158.5"
    />
    <radialGradient
      id="SVGID_00000114762820802298578060000018084388083144164500_"
      cx="463.7"
      cy="1348.6"
      r="177.1"
      fx="550.9"
      fy="1317.2"
      gradientTransform="matrix(-1 0 0 1 1492 0)"
      gradientUnits="userSpaceOnUse"
    >
      <stop offset="0" style="stop-color: #f72165" />
      <stop offset=".8" style="stop-color: #ff6e73" />
    </radialGradient>
    <path
      style="
        fill: url(#SVGID_00000114762820802298578060000018084388083144164500_);
      "
      d="M970 1201c67-17 123 5 147 16 30 14 92 44 106 110 15 66-28 117-33 123-21 24-67 61-107 50-21-5-29-20-63-25-4-1-19-3-38 0-29 3-35 11-52 11-25 1-43-16-55-26-45-40-44-100-44-105 1-56 36-91 49-104 34-35 73-46 90-50z"
    />
    <g class="st22-pink-level-five">
      <path
        class="st23-pink-level-five"
        d="M1096 1348c6 2 16 8 26 17 11 10 27 26 28 49 1 19-10 39-28 46-26 11-54-9-81-21-25-11-53-15-80-12-20 2-44 8-59-5-11-10-13-27-8-41 2-6 7-19 28-33 58-38 138-18 174 0z"
      />
    </g>
    <g class="st19-pink-level-five">
      <path
        class="st11-pink-level-five"
        d="M947 1244c29-20 62-13 73-10 9 2 27 7 29 18 2 12-11 21-23 24s-25 3-35 10c-14 10-17 31-32 40-11 6-28 0-36-11-12-14-5-33-3-40 7-17 20-26 27-31z"
      />
    </g>
    <g class="st19-pink-level-five">
      <path
        class="st11-pink-level-five"
        d="M1111 1258c6 8-2 27-13 29-11 1-23-15-19-25s26-12 32-4z"
      />
    </g>
    <g class="st22-pink-level-five">
      <path
        class="st23-pink-level-five"
        d="M1089 1388c3 1 9 4 15 9 7 5 16 13 17 25 1 9-6 20-17 23-16 5-33-5-49-11-15-5-32-7-48-6-13 2-27 4-36-2-7-5-8-14-5-21 2-3 4-10 17-17 35-19 84-9 106 0z"
      />
    </g>
    <g>
      <path
        class="st13-pink-level-five"
        d="M1021 1482c29 4 51-13 58-18 9-7 16-12 17-22 1-8-4-17-12-21s-15-7-24-9c-17-4-34-8-51-4-14 4-32 19-32 36 1 17 19 29 22 31 9 5 17 6 22 7z"
      />
      <path
        class="st13-pink-level-five"
        d="m1006 1447 116 100c7 5 17 15 24 30 6 11 6 26-1 36-12 16-37 15-56 9-50-16-95-50-124-94-10-17-24-46-12-68 6-11 19-23 33-22 10 0 17 6 20 9z"
      />
      <path
        class="st24-pink-level-five"
        d="M961 1440c3-6 8-12 14-16 6-11 18-20 28-22 17-4 35 0 52 3 8 2 17 4 24 9s12 13 12 22c-1 9-9 15-18 21l-13 9 70 61c7 5 17 15 24 30 5 11 6 26-2 36-11 16-36 14-55 8-50-16-95-49-124-94-11-16-24-45-12-67z"
      />
      <path
        d="m1069 1470-3 2c-8 4-12 6-15 6-4 1-10 1-18-1l10-3 9-4c9-5 11-5 13-4 2 0 4 2 4 4z"
        style="fill: #f90070"
      />
      <g class="st12-pink-level-five">
        <path
          class="st11-pink-level-five"
          d="M1076 1502c7-4 21 9 49 34 10 8 13 12 16 18 7 14 6 34-1 37-11 4-27-32-55-55-3-2-9-7-11-15-2-6-2-16 2-19z"
        />
      </g>
      <g class="st12-pink-level-five">
        <path
          class="st11-pink-level-five"
          d="M1030 1412c7 0 17-1 28 4 4 2 9 4 10 9 0 4-4 8-8 8-5 1-9-1-13-2-4-2-8-4-12-4l-10 2h-10c-3-1-6-3-6-7 0-3 4-6 5-6l8-2 8-2z"
        />
      </g>
      <path
        class="st25-pink-level-five"
        d="m1099 1423-12 10c-2 2-5 1-6-2l-3-15c0-3 2-5 5-4l14 5c3 1 4 4 2 6zM1102 1460l-26-2c-2 0-4-3-3-5l7-16c1-2 4-3 6-1l19 17c2 3 1 7-3 7zM1065 1476l-13-8c-2-1-2-5 0-6l13-8c3-1 6 1 6 4v15c0 3-3 4-6 3z"
      />
    </g>
  </g>
  <g>
    <path
      class="st17-pink-level-five"
      d="m685 1363 3-3 1-1c1 0 2-1 0 0l2-1a99 99 0 0 1 17-10l2-1c-2 0-1 0 0 0h1l4-2 10-3h4l2-1h4l2-1h5a103 103 0 0 1 15 1h-1 2l3 1 11 2 22 5c14 2 29 1 41-8s18-25 11-39c-2-3-6-4-8-2-3 2-4 5-3 8l1 1c0 1-1-1 0 0v2l1 1c0 2 0-1 0 0v5c0-2 0-1 0 0l-1 1v2l-1 2c0 1 1-1 0 0l-2 4-1 1c0 1-1 1 0 0l-1 2-3 2c-1 1 1 0 0 0l-1 1-2 1-2 1-1 1c1 0 1 0 0 0l-9 2c-1 0-1 0 0 0h-1l-3 1h-9l-3-1h-1 1-1c-15-2-29-7-44-9a105 105 0 0 0-76 26c-2 3-2 7 0 9 3 2 6 2 9 0z"
    />
  </g>
</svg>
