<svg
  version="1.1"
  id="pink_4"
  xmlns="http://www.w3.org/2000/svg"
  x="0"
  y="0"
  viewBox="0 0 1269.4 1985.7"
  style="enable-background: new 0 0 1269.4 1985.7"
  xml:space="preserve"
>
  <style>
    .st0-pink-level-four {
      fill: #d2006d;
    }
    .st1-pink-level-four {
      fill: #b4b4b4;
    }
    .st2-pink-level-four {
      fill: #2c7dbe;
    }
    .st3-pink-level-four {
      fill: #fd037f;
    }
    .st4-pink-level-four {
      fill: #fff;
    }
    .st5-pink-level-four {
      fill: #469dfc;
    }
    .st6-pink-level-four {
      fill: #d20069;
    }
    .st7-pink-level-four {
      fill: #e51570;
    }
    .st9-pink-level-four {
      fill: #ff6e73;
    }
    .st10-pink-level-four {
      fill: #fd016f;
    }
    .st11-pink-level-four {
      fill: #070707;
    }
  </style>
  <path
    class="st0-pink-level-four"
    d="M539 1739c31-2 59-13 87-26l-15-239H486l-24 243c22 16 50 23 77 22z"
  />
  <path
    class="st1-pink-level-four"
    d="M539 1739c-27 1-55-6-77-21l-4 37c29 18 64 26 98 22 26-4 51-15 72-31l-2-33c-28 13-56 24-87 26z"
  />
  <path
    class="st2-pink-level-four"
    d="M458 1755v90c-31 4-107 17-112 48-6 34 72 85 145 84 68 0 145-43 146-84l-1-8-8-139c-21 16-46 27-72 31-34 4-69-4-98-22z"
  />
  <path
    class="st3-pink-level-four"
    d="M501 1757c30-2 58-12 86-25l-15-240H447l-24 244c22 15 51 22 78 21z"
  />
  <path
    class="st4-pink-level-four"
    d="M501 1757c-27 2-56-6-78-21l-4 38a148 148 0 0 0 169-10l-1-32c-28 13-56 23-86 25z"
  />
  <path
    class="st5-pink-level-four"
    d="m419 1774-6 67c-62 8-106 37-106 70 0 41 65 74 145 74 90 0 145-63 145-68l1-6v-4l-9-143c-21 17-46 27-72 31-34 4-69-4-98-21z"
  />
  <path
    class="st0-pink-level-four"
    d="M749 1739c-30-2-59-13-86-26l14-239h126l23 243c-21 16-50 23-77 22z"
  />
  <path
    class="st1-pink-level-four"
    d="M749 1739c27 1 56-6 77-21l4 37c-29 18-64 26-97 22-27-4-52-15-72-31l2-33c27 13 56 24 86 26z"
  />
  <path
    class="st2-pink-level-four"
    d="M830 1755v90c31 4 108 17 113 48 5 34-72 85-146 84-67 0-145-43-146-84l1-8 9-139c20 16 45 27 71 31 34 4 69-4 98-22z"
  />
  <path
    class="st3-pink-level-four"
    d="M788 1757c-30-2-59-12-86-25l14-240h125l24 244c-22 15-50 22-77 21z"
  />
  <path
    class="st4-pink-level-four"
    d="M788 1757c27 2 55-6 77-21l4 38a148 148 0 0 1-169-10l2-32c27 13 56 23 86 25z"
  />
  <path
    class="st5-pink-level-four"
    d="m869 1774 7 67c61 8 106 37 106 70 0 41-66 74-146 74-90 0-145-63-145-68l-1-6 1-4c2-48 5-95 9-143 20 17 45 27 71 31 34 4 69-4 98-21z"
  />
  <path
    class="st6-pink-level-four"
    d="M1227 1459c-17-20-50-22-80-4l-166-138-43 37 164 190c1 4 3 8 6 11 19 24 61 22 94-5s44-67 25-91z"
  />
  <path
    class="st3-pink-level-four"
    d="M1199 1474c-13-17-40-18-64-4l-133-110-34 29 131 153 5 9c15 19 49 17 76-4s35-54 19-73z"
  />
  <path
    class="st6-pink-level-four"
    d="M43 1507c16-21 50-22 80-5l165-137 43 37-163 190-7 11c-19 24-61 21-94-5s-44-67-24-91z"
  />
  <path
    class="st3-pink-level-four"
    d="M70 1521c13-16 40-17 65-3l132-111 35 30-131 153-5 8c-16 19-50 18-76-4s-35-53-20-73z"
  />
  <path
    class="st7-pink-level-four"
    d="M1006 578a600 600 0 0 1-847 847 599 599 0 0 0 1057-391c0-182-82-346-210-456z"
  />
  <path
    class="st3-pink-level-four"
    d="M1150 968c0-143-51-281-144-390a600 600 0 0 0-847 847 601 601 0 0 0 991-456z"
  />
  <circle class="st7-pink-level-four" cx="572.8" cy="1000.3" r="328.8" />
  <path
    d="M796 1090c27 0 54 7 78 19a267 267 0 1 0-521-3c23-11 48-16 74-16 87 0 157 59 157 131 0 32-14 62-38 85 45 11 91 11 135 0-22-23-36-53-36-85 1-72 68-131 151-131z"
    style="fill: #ffb6c7"
  />
  <path
    class="st9-pink-level-four"
    d="M584 1221c0-72-70-131-157-131-26 0-51 5-74 16 22 97 97 174 194 200 23-23 37-53 37-85zM874 1109c-24-12-51-19-78-19-83 0-151 59-151 131 0 32 14 62 36 85 96-25 170-101 193-197z"
  />
  <circle
    transform="rotate(-45 537 1067)"
    class="st4-pink-level-four"
    cx="537.5"
    cy="1067.3"
    r="42.8"
  />
  <circle class="st4-pink-level-four" cx="681.8" cy="1063.8" r="42.8" />
  <path
    class="st10-pink-level-four"
    d="M614 1090a24 24 0 1 0-1 49c14 1 25-10 25-24 1-14-10-25-24-25zm0 35c-6 0-10-4-11-10s5-11 11-11 10 5 11 11c0 6-5 10-11 10zM480 970l56 33 16 9c4 3 9 3 14 2s9-4 11-8c3-5 4-10 2-15-1-4-4-8-8-11l-57-32-16-10c-4-2-9-3-14-2-4 2-9 5-11 9s-3 10-2 14c2 5 5 9 9 11zM746 970l-57 33-16 9c-4 3-9 3-14 2-4-1-9-4-11-8-2-5-3-10-2-15 2-4 5-8 9-11l56-32 16-10c4-2 10-3 14-2 5 2 9 5 11 9 3 4 4 10 2 14-1 5-4 9-8 11z"
  />
  <circle class="st11-pink-level-four" cx="539.3" cy="1073.6" r="30.1" />
  <circle class="st11-pink-level-four" cx="681.5" cy="1073.6" r="30.1" />
  <path
    class="st4-pink-level-four"
    d="M607 1174c-1 4 7 7 22 13 3 1 7 3 10 1l2-4c3-10 2-20-1-29a1264 1264 0 0 0-33 19z"
  />
  <path
    d="M681 1143c0-2-3-4-6-3l-2 1h-6l-1-1h-3l-1-1h-1v-1h-1v-1l-1-1h-1v-2l-1-2v1-1l-1-1v-5c0-3-3-6-5-5-3 0-5 2-5 5-1 4 0 8 2 11l-1 2-1 1-1 1v1a67 67 0 0 1-11 11l-1 1h-1l-3 3a59 59 0 0 1-10 5l-2 1h-1l-15 5h-17c-3 0-5 2-5 5s2 5 5 5a82 82 0 0 0 70-33l1 1c6 5 15 6 23 3 2-1 4-3 3-6zm-64 20c-1 0-1 0 0 0z"
  />
  <path
    d="M80 669s-35 47-61 136c-3 11-7 30-1 51 5 16 18 31 34 34 28 6 51-19 69-41l82-109c27-36 40-45 53-44 22 3 26 37 45 37 22 0 24-44 64-65 6-3 32-17 59-10 37 11 35 53 73 64 21 6 41-1 58-7 27-9 45-25 52-31 42-36 136-82 189-55 39 20 38 69 73 73 22 2 28-19 58-20 31-1 64 19 79 46 13 25 0 36 13 69 1 3 24 61 59 62 31 2 51-33 57-64 6-29 5-59-1-88-10-44-35-84-64-118-53-60-111-88-158-111-49-23-153-71-295-71a689 689 0 0 0-367 110c-39 25-109 70-170 152z"
    style="fill: #d1b35d"
  />
  <path
    d="M83 639s-35 47-61 136c-3 11-7 30-1 50 5 17 18 31 34 35 28 6 51-19 69-41l82-109c27-36 40-45 53-44 22 3 26 36 45 37 22 0 24-44 64-66 6-3 32-17 59-9 37 11 35 53 73 64 21 6 41-1 58-7 28-9 45-25 52-31 43-36 136-82 190-55 39 19 37 69 72 73 22 2 28-19 58-20 31-1 64 19 79 46 13 25 0 36 13 69 1 3 24 60 59 62 31 2 51-33 57-64 6-29 5-59-1-89-10-43-35-83-64-117-53-60-111-88-158-111-49-23-153-71-295-71a689 689 0 0 0-367 110c-39 24-109 70-170 152z"
    style="fill: #f7da7c"
  />
  <path
    class="st7-pink-level-four"
    d="M727 576c47 11 157-15 247-101l2-2c57-55 64-118 89-212 19-69 28-104 40-122 60-90 167-89 164-108-3-28-229-69-373 45-28 22-49 43-79 84-46 64-87 132-122 203-3 7-33 75-29 140 1 14 4 32 16 47 15 18 37 23 45 26z"
  />
  <path
    class="st3-pink-level-four"
    d="M723 462c32 7 106-10 168-69 5-5 71-67 81-162 3-25 2-51-7-74s-29-44-53-51c-25-7-53 1-75 16s-38 36-53 57c-32 44-59 90-83 138-3 4-22 51-20 95 1 10 2 22 11 32 10 13 25 16 31 18z"
  />
  <path
    class="st7-pink-level-four"
    d="M542 576c-47 11-156-15-247-101l-1-2c-58-55-65-118-90-212-18-69-28-104-40-122C104 49-2 50 0 31 4 3 229-38 374 76c27 22 49 43 78 84 46 64 87 132 122 202 4 7 33 76 29 141-1 14-3 31-16 47a79 79 0 0 1-45 26z"
  />
  <path
    class="st3-pink-level-four"
    d="M547 462c-32 7-107-10-168-69-5-5-71-67-82-162-3-25-1-51 8-74s28-44 52-51c26-7 53 1 75 16s38 36 54 57c31 44 59 90 83 138 2 4 22 51 19 95 0 10-2 22-10 32-11 13-25 16-31 18z"
  />
</svg>
