<?xml version="1.0" encoding="utf-8"?>
<!-- Generator: Adobe Illustrator 25.4.1, SVG Export Plug-In . SVG Version: 6.00 Build 0)  -->
<svg
  version="1.1"
  id="orange-3"
  xmlns="http://www.w3.org/2000/svg"
  xmlns:xlink="http://www.w3.org/1999/xlink"
  x="0px"
  y="0px"
  viewBox="0 0 1422.3 1338.6"
  style="enable-background: new 0 0 1422.3 1338.6"
  xml:space="preserve"
>
  <style type="text/css">
    .orange-3-st0 {
      fill: #fc1b00;
    }
    .orange-3-st1 {
      fill: #f78b3a;
    }
    .orange-3-st2 {
      fill: #8f7c5a;
    }
    .orange-3-st3 {
      fill: #f2ecd6;
    }
    .orange-3-st4 {
      opacity: 0.2;
    }
    .orange-3-st5 {
      fill: #795600;
    }
    .orange-3-st6 {
      fill: #fb5b42;
    }
    .orange-3-st7 {
      fill: #fc4401;
    }
    .orange-3-st8 {
      fill: #fa6d40;
    }
    .orange-3-st9 {
      fill: url(#SVGID_1_orange-3);
    }
    .orange-3-st10 {
      fill: url(#SVGID_00000021810467119954580260000001167415696464239028_orange-3);
    }
    .orange-3-st11 {
      fill: #ffffff;
    }
  </style>
  <path
    class="orange-3-st0"
    d="M676.8,220.1c-47.2-26.7-198.1-112-368.1-62c-35.9,10.6-106.8,31.4-159.7,93.5c-1.3,1.5-3.2,2.4-5.2,2.2
	c-22.8-1.2-47.6,10.9-63.7,33.7c-23.2,32.8-19.8,75.1,7.6,94.5l0,0c2,1.4,3,3.8,2.8,6.2c-6.1,50.8,2.2,93.4,5.5,111.2
	c23.3,124.7,110.2,195.7,162.8,238.9c65.8,53.9,192.8,157.9,356.1,124.5c6.5-1.3,108.6-24,186.3-104.2c2.3-2.4,5.1-4.4,8.2-5.9
	c19.8-9.7,40.3-17.8,61.3-24.5c36.1-11.5,43.2-9.3,50.7-18.6c22.4-27.3,0.2-94.6-27.6-127.8c-4.7-5.6-7.1-12.7-6.6-20
	c5.9-104.6-41.8-186.3-51.9-202.9C789.5,283.7,727.3,248.5,676.8,220.1z"
  />
  <path
    class="orange-3-st1"
    d="M1373.1,1055.3c-41.4,47.2-96.6,61.2-105.6,63.4c-31.2,7.5-57.1,6.6-89.1,2.8c-34.5-4.1-68.9-10-102.2-20.3
	c-62-19.1-118.4-52.9-174.1-86.3c-31.1-18.7-62.3-37.4-92.2-58.1c-22.8-15.8-53.7-33.8-69.2-57.8c-13.4-20.8-9-53.9-4.4-76.6
	c6.4-31.6,20.5-61.2,37.7-88.1c39.8-62.4,62-74.8,94.7-132.7c11.4-20.3,21.3-41.4,29.4-63.2c54.9-1.1,109.8,2.7,164,11.1
	c124.5,19.4,215.8,33.6,283,108.5c64.5,71.9,71.7,160.5,74.6,196.3C1423.7,903.7,1430.7,989.7,1373.1,1055.3z"
  />
  <path
    class="orange-3-st2"
    d="M1374.4,1054.7c-30.4-28.6-68.1-50.1-107.3-65c-58.9-22.4-121.8-31.5-184.1-40.5l-423.2-61l-395.4-56.9
	c-13.1,5.7-22.7,13.4-27.7,23.9c-5.2,10.7-5.1,23.2-1.6,36.6c183.3,82.6,368.2,163.5,562.5,215c55.7,14.8,112.1,26.8,169,36
	c138,22,278.8,25.5,415.5,0.9C1387.6,1117.5,1384.4,1086.6,1374.4,1054.7z"
  />
  <path
    class="orange-3-st3"
    d="M1318.7,950.4c-21-9.5-42.5-17.7-64.5-24.5c-81.3-25.2-166.7-33.4-251.4-41.6l-339.6-32.6l-343.4-33
	c-22.1,2.4-41,6.3-55.5,12.6l395.4,56.9l423.2,61c62.3,9,125.3,18.1,184.1,40.5c39.2,14.9,76.9,36.4,107.3,65
	C1363.3,1019.6,1343.9,983.2,1318.7,950.4z"
  />
  <path
    class="orange-3-st2"
    d="M1238.5,874.3c-93.8-62.4-207-48.7-337.2-51.4c-125.1-2.5-166.4,6.2-233.8,5.2c-23.2-0.3-49.6-1.8-83.5-5.3
	c-35.2-3.6-84.6-10-155.9-8.8c-40.2,0.7-77.3,1.3-108.2,4.7l343.4,33l339.6,32.6c84.7,8.1,170.1,16.4,251.4,41.6
	c22,6.8,43.5,15,64.5,24.5C1296.1,921,1268.7,894.4,1238.5,874.3z"
  />
  <path
    class="orange-3-st2"
    d="M893.2,1214.1c-36.3-4.6-72.3-10.7-108-18.4c-188.6-40.8-367.4-125.7-518.8-245.3c20.5,27.9,45.6,53.8,61,69.5
	c25.7,26.4,117.8,116.9,338,202.2c0,0,42.1,16.3,109.3,34.4c80.4,21.7,197,46,320.3,47.7c33.2,0.5,59.9-2.3,85.5-10.3
	c10.6-3.4,20.9-7.6,30.9-12.6c60.8-29.8,120.1-58.9,150-95C1208.4,1224.2,1049.6,1233.7,893.2,1214.1z"
  />
  <path
    class="orange-3-st3"
    d="M966.5,1142.8c-56.9-9.2-113.3-21.2-169-36c-194.2-51.5-379.1-132.4-562.5-215c5,18.8,17.1,39.2,31.4,58.6
	c151.4,119.6,330.2,204.5,518.8,245.3c35.7,7.7,71.7,13.9,108,18.4c156.4,19.6,315.2,10.1,468.2-28c4-4.8,7.6-10,10.7-15.4
	c4.6-8.5,8-17.6,9.9-27C1245.3,1168.3,1104.5,1164.8,966.5,1142.8z"
  />
  <g class="orange-3-st4">
    <path
      d="M1374,1054.6c-11.1-35.1-30.4-71.5-55.7-104.3c-22.6-29.4-50-56-80.2-76.1c-93.8-62.4-207-48.7-337.2-51.3
		c-125.1-2.5-166.4,6.2-233.8,5.2c-1.5,7.8-3,15.7-4.2,23.5c-2.1,12.1-3.2,24.3-3.5,36.5c0,3.8,0,7.6,0.3,11.5
		c1.6,24.8,10.1,50.1,28.4,67c29,26.9,73.4,26,112.9,23.6l124.1-7.7c23.8-1.5,50.8-1.9,67.8,14.9c19.4,19.2,16.1,51.3,7.5,77.2
		c-17.2,51.1-49.3,95.9-92.1,128.6c-5,3.8-10.1,7.4-15.4,10.8c-35.6,23.2-76.3,37.7-118.5,42.3c80.6,21.7,197.2,45.9,320.4,47.6
		c33.1,0.5,60-2.3,85.5-10.3c10.6-3.4,20.9-7.6,30.9-12.6c60.8-29.8,120.1-58.9,150-95c4-4.8,7.6-9.9,10.7-15.4
		c4.6-8.5,8-17.6,9.9-27C1387.2,1117.4,1384,1086.5,1374,1054.6z"
    />
  </g>
  <path
    class="orange-3-st5"
    d="M382.4,172.9c-7.3-4.2-30.4-17.6-38.8-44.5c-8-25.7,2.3-48.5,7.5-60c15.1-33.1,45.9-59,81.5-66.5
	c7-1.5,63-10.9,99.2,31.4c24.8,29,30.3,70.6,16,101.7C521,193.6,430.8,200.9,382.4,172.9z"
  />
  <path
    class="orange-3-st2"
    d="M360.2,172.7c-7-4.1-29.4-17-37.5-43c-7.7-24.9,2.2-46.9,7.3-58c14.6-32,44.4-57,78.8-64.3
	c6.7-1.4,60.9-10.6,96,30.4c24,28,29.3,68.3,15.5,98.4C494.2,192.7,407,199.7,360.2,172.7z"
  />
  <path
    class="orange-3-st5"
    d="M104.9,524.6c-40.5,0.6-69.3,35.7-75.5,43.3c-6,7.3-28.1,36.8-22.5,75.4c4.7,32,28.6,61.1,62.6,73.1
	c31.1,11,75.8,8.1,104.7-17.5c34.7-30.8,23.7-75,20-89.8C185.6,574.4,154,523.9,104.9,524.6z"
  />
  <path
    class="orange-3-st2"
    d="M95.6,504.7c-39.2,0.6-67,34.5-73,41.9c-5.8,7.1-27.2,35.6-21.7,72.9c4.6,31,27.6,59.1,60.5,70.7
	c30,10.6,73.3,7.8,101.2-17c33.6-29.8,22.9-72.6,19.4-86.8C173.6,552.8,143,504,95.6,504.7z"
  />
  <path
    class="orange-3-st6"
    d="M843.9,338.8c-40.1-55-86.1-81.6-135.6-109.5c-77.2-43.5-212.7-119.8-376.2-84.1c-39.5,8.6-108.1,29.8-181.2,89
	c-57.6-3.8-106.3,35-113.9,83.5c-5.9,36.8,12.7,75.6,46.7,98.6c-2.2,39.8,1.6,79.6,11.5,118.2c23.3,90.6,73.4,147.9,101.6,179.3
	c26.5,29.5,133.4,145.3,302.9,166c46.3,5.6,115.8,13.1,180.8-25.5c21.3-12.6,37.2-27.3,86.7-93c89.4-118.6,134-177.8,139.3-224.4
	C917.3,439.7,860.1,361.1,843.9,338.8z M725.2,752.6c-36.5,33.8-97.5,88.1-176.6,83.2c-53.3-3.3-90.4-32.2-154-82.9
	c-55.2-44.2-104.3-95.6-146-152.8c-7.6-71.8-15.3-143.7-22.9-215.5c32.9-44.8,87.2-105.3,169.9-152.3c25.7-14.6,52.6-27.1,80.4-37.2
	c42.1-0.8,122.8,3.6,207.4,49.3c41.8,22.6,152.1,82.2,178,200.2C894.6,595.8,762.2,718.4,725.2,752.6z"
  />
  <path
    class="orange-3-st1"
    d="M854.5,322.9c-40.1-55-86.1-81.6-135.6-109.5c-77.2-43.5-212.7-119.8-376.3-84.1c-39.5,8.6-108.1,29.8-181.2,89
	c-57.6-3.8-106.4,35-113.9,83.5c-5.8,36.9,12.7,75.6,46.7,98.6c-2.2,39.8,1.6,79.7,11.5,118.3C129,609.3,179.1,666.6,207.3,698
	c26.5,29.5,133.4,145.3,302.9,166c46.3,5.6,115.8,13.2,180.8-25.4c21.3-12.6,37.2-27.3,86.7-93c89.4-118.6,134-177.9,139.3-224.5
	C927.9,423.7,870.7,345.1,854.5,322.9z M735.8,736.7c-36.5,33.8-97.5,88.1-176.6,83.2c-53.2-3.3-90.4-32.2-154-82.9
	c-55.2-44.2-104.3-95.6-146-152.8c-7.6-71.8-15.3-143.7-22.9-215.5c32.9-44.8,87.2-105.3,169.9-152.3c25.7-14.6,52.6-27.1,80.4-37.2
	c42.1-0.8,122.8,3.6,207.4,49.3c41.7,22.6,152.1,82.2,178,200.2C905.2,579.8,772.8,702.4,735.8,736.7z"
  />
  <path
    class="orange-3-st7"
    d="M680.4,273.3c-76.8-41.5-150.2-45.5-188.5-44.8c-25.3,9.2-49.7,20.5-73.1,33.8
	c-75.1,42.8-124.5,97.8-154.4,138.4l20.9,195.8c37.8,52,82.5,98.6,132.7,138.8c57.8,46.1,91.5,72.3,139.9,75.3
	c71.9,4.5,127.3-44.9,160.5-75.6c33.7-31.2,154-142.5,123.8-279.8C818.6,348.1,718.3,293.8,680.4,273.3z"
  />
  <path
    class="orange-3-st8"
    d="M710,915.9c-15.7-24-8.2-53.1-3.7-70.7c7.7-30,23.6-49.5,33-64.5c30.5-48.6,63.7-99.6,115.3-124.7
	c76.7-37.2,169-5.2,206.2,71.4c1.4,2.8,2.6,5.6,3.8,8.5c8.7,21,12.6,44.9,5.8,66.6c-7.2,22.8-25.1,40.6-43.8,55.6
	c0,0-89,69.9-227.2,88.8c-12.6,1.7-34.1,4-57-5.9C735.3,938,720.1,931.3,710,915.9z"
  />
  <path
    class="orange-3-st1"
    d="M738.3,862.4c-13.6-20.9-7.1-46.2-3.2-61.5c6.7-26.1,20.5-43,28.7-56c26.5-42.2,55.4-86.6,100.3-108.4
	c66.7-32.4,147-4.5,179.3,62.1c1.2,2.4,2.3,4.9,3.3,7.4c7.6,18.3,10.9,39,5,57.9c-6.2,19.8-21.8,35.3-38,48.3
	c0,0-77.4,60.8-197.5,77.2c-11,1.5-29.6,3.5-49.5-5.1C760.4,881.6,747.1,875.8,738.3,862.4z"
  />
  <path
    class="orange-3-st8"
    d="M1143.9,790.5c-34.8,16.2-33.8,88.4-26.6,126.7c3,15.9,7.3,28.6,16.9,38.8c7.8,8.3,18.2,13.2,28.3,17.9
	l72.4,33.8c14.3,6.7,28.9,13.5,44.4,15c17.2,1.7,34.2-3,50.8-7.8c18.1-5.2,38.4-12.2,46.3-30c5-11.3,5.1-26.6-6.3-52.6
	c-43-98.4-160-149.8-214.5-144.8C1151.6,787.8,1147.6,788.8,1143.9,790.5z"
  />
  <path
    class="orange-3-st7"
    d="M485,1127.4c-1.9,2-9.4,10-7.8,18.9c1.1,6.4,6.5,10.2,15.8,16.5c12,8.1,24.4,15.7,37.1,22.5
	c15.6,8.4,35.2,15.8,50.3,6.3c10.6-6.7,14.3-21.1,13.4-32c-1.4-16.3-13.4-26.1-18.8-30.6C548.2,1107.3,503.4,1107.8,485,1127.4z"
  />
  <path
    class="orange-3-st1"
    d="M1104.8,1278.7c-7.4,6.1-13.4,13.6-17.6,22.1c-6.2,12-12.1,23.1-6.9,30.2c3.6,5,10,7.3,16.1,7.5
	s12.2-1.4,18.1-3c9-2.4,18.2-5,25.8-10.4s13.4-14.4,12.4-23.7c-1.2-11.7-12.8-18.1-17.3-20.6c-11.8-6.6-23.5-5.2-27.7-4.5
	C1107,1276.9,1106,1277.7,1104.8,1278.7z"
  />
  <path
    class="orange-3-st7"
    d="M763.6,956.4c-18.9,15.3-47.2,8.6-62.8-6.6c-12.2-11.8-20.4-32.4-13.2-49c11-25.5,55.4-35.2,77.7-13.5
	C782.9,904.6,784.5,939.5,763.6,956.4z"
  />
  <path
    class="orange-3-st7"
    d="M973.3,1316.4c-16.9-6.8-10.8-6.1-30.7-15.8c-5.9-2.7-11.3-6.6-15.6-11.5c-1.1-1.2-2.1-2.5-3-3.9
	c-4.6-6.7-6.5-15.7-3.1-23.1c6-13.1,23.7-14.8,38-13.9c39.9,2.5,79.4,10,117.4,22.4c21.9,7.2,34.6,17.3,36.2,30
	c1.9,15-14,31.2-29.7,38.4C1058.4,1350.3,1030.1,1339.1,973.3,1316.4z"
  />
  <radialGradient
    id="SVGID_1_orange-3"
    cx="719.2573"
    cy="929.6454"
    r="142.3503"
    gradientTransform="matrix(1 0 0 -1 0 1348.1093)"
    gradientUnits="userSpaceOnUse"
  >
    <stop offset="0" style="stop-color: #ff000b" />
    <stop offset="1" style="stop-color: #fc1b00; stop-opacity: 0" />
  </radialGradient>
  <path
    class="orange-3-st9"
    d="M825.6,508.1c-48.8,57-142.6,73.7-203.1,21.3c-60.8-52.8-58.5-149.9-5.3-206.6c54.7-58.3,153.9-64.1,208.9-6
	C876,369.6,870.6,455.4,825.6,508.1z"
  />
  <radialGradient
    id="SVGID_00000145017233400303119640000008954505351967747987_orange-3"
    cx="482.4092"
    cy="667.3697"
    r="142.3522"
    gradientTransform="matrix(1 0 0 -1 0 1348.1093)"
    gradientUnits="userSpaceOnUse"
  >
    <stop offset="0" style="stop-color: #ff000b" />
    <stop offset="1" style="stop-color: #fc1b00; stop-opacity: 0" />
  </radialGradient>
  <path
    style="
      fill: url(#SVGID_00000145017233400303119640000008954505351967747987_orange-3);
    "
    d="M588.7,770.3
	c-48.8,57-142.6,73.7-203.1,21.2c-60.8-52.8-58.4-149.9-5.3-206.6c54.6-58.3,153.9-64.1,208.9-6
	C639.1,631.9,633.8,717.6,588.7,770.3z"
  />
  <path
    class="orange-3-st1"
    d="M1177.4,784.6c-29.8,13.9-28.9,75.6-22.7,108.4c2.6,13.6,6.3,24.5,14.4,33.2c6.7,7.1,15.6,11.3,24.2,15.3
	l61.9,28.9c12.2,5.7,24.8,11.5,38,12.8c14.7,1.5,29.2-2.6,43.4-6.7c15.5-4.4,32.8-10.4,39.6-25.7c4.3-9.7,4.3-22.8-5.4-45
	c-36.8-84.2-136.9-128.1-183.5-123.9C1184,782.3,1180.6,783.2,1177.4,784.6z"
  />
  <path
    class="orange-3-st7"
    d="M1207.5,958.9c-61.6-8-82-3.5-95.8,1.6c-12.8,4.8-20.8,11-27,19.5c-6.6,9.1-9.3,21.7-4.4,31.8
	c6.4,13.4,23.3,18.3,38.1,17.5c14.8-0.8,29.2-5.7,44-5.8c19.1-0.1,37.3,7.8,55,15.1s36.5,14.1,55.5,11.8c18.2-2.2,38.2-19,38.6-35.9
	c0.5-21.7-31.6-36.4-45.7-42.9C1260,969.1,1248.7,964.3,1207.5,958.9z"
  />
  <path
    class="orange-3-st8"
    d="M1067.6,795.6c-4.8,3.1-8.5,7.7-10.6,13c-0.7,2-3.8,10.2,0.1,16.1c4.3,6.6,13.4,7.5,21.3,7.8l31,1
	c4.9,0.2,10,0.3,14.7-1s9.3-4.2,11.4-8.7c3-6.6-1-13.4-1.8-14.9c-3-5.2-7.7-7.9-11.9-9.8C1112.5,795,1086.2,782.9,1067.6,795.6z"
  />
  <path
    d="M431.4,595.8c23.3-1.3,42.2-19.4,44.5-42.7c0.6-5.9,0.1-11.8-1.5-17.5c-0.8-2.8-3.2-5.2-6.4-4.6c-2.6,0.5-5.4,3.4-4.6,6.4
	c0.6,2.2,1.1,4.5,1.4,6.8c0.1,1.1,0.2,2.2,0.2,3.2c0-1.1,0,0.3,0,0.7c0,0.6,0,1.2-0.1,1.8c-0.1,2.2-0.4,4.5-0.9,6.7
	c-0.2,1,0,0.2,0,0c-0.1,0.2-0.1,0.5-0.2,0.7c-0.1,0.5-0.3,1-0.5,1.6c-0.4,1.2-0.8,2.4-1.2,3.5s-0.9,2-1.3,3c0,0.1-0.4,0.8-0.1,0.2
	s-0.1,0.2-0.2,0.4c-0.3,0.5-0.6,1.1-1,1.6c-1.2,2-2.7,3.9-4.3,5.7c0.7-0.7,0.1-0.1-0.1,0l-0.7,0.7c-0.4,0.4-0.7,0.7-1.1,1
	c-1,0.9-2,1.8-3.1,2.6c-0.5,0.4-1,0.7-1.4,1c-0.3,0.2-1.6,1-0.7,0.5c-1.1,0.7-2.2,1.3-3.3,1.8c-1.3,0.6-2.6,1.2-4,1.7
	c-0.6,0.2-1.3,0.5-1.9,0.7c0.1,0,0.9-0.2,0.2-0.1c-0.4,0.1-0.8,0.2-1.2,0.3c-2.8,0.7-5.6,1.2-8.5,1.3c-2.9,0.1-5.1,3.7-4.6,6.4
	C425.7,594.5,428.3,596,431.4,595.8L431.4,595.8z"
  />
  <path
    d="M438.1,598.8c22.5-1.2,40.8-18.6,43-41c0.6-5.7,0.1-11.5-1.5-17c-0.6-1.9-2.1-3.4-4.2-3c-1.8,0.3-3.6,2.3-3,4.2
	c2.5,8.5,2.1,17.6-1.2,25.8c-3.5,8.5-10,15.5-18.3,19.6c-4.9,2.5-10.3,3.8-15.9,4.1c-2,0.1-3.4,2.4-3,4.2
	C434.3,597.9,436.2,598.9,438.1,598.8L438.1,598.8z"
  />
  <path
    d="M557.9,446.1c23.3-1.3,42.2-19.4,44.5-42.7c0.6-5.9,0.1-11.8-1.5-17.5c-0.8-2.8-3.2-5.2-6.3-4.6c-2.7,0.5-5.4,3.4-4.6,6.4
	c0.7,2.2,1.1,4.5,1.4,6.8c0.1,1.1,0.2,2.1,0.2,3.2c0-1.1,0,0.3,0,0.7c0,0.6,0,1.2-0.1,1.9c-0.1,2.2-0.4,4.5-0.9,6.7
	c-0.2,1,0,0.2,0,0c0,0.2-0.1,0.5-0.2,0.7c-0.1,0.5-0.3,1-0.4,1.6c-0.4,1.2-0.8,2.4-1.2,3.5s-0.9,2-1.3,3l-0.1,0.2
	c0.3-0.6-0.1,0.2-0.2,0.4c-0.3,0.5-0.6,1.1-0.9,1.6c-1.2,2-2.7,3.9-4.3,5.7c0.7-0.7,0.1-0.1-0.1,0l-0.7,0.7c-0.4,0.4-0.7,0.7-1.1,1
	c-1,0.9-2,1.8-3.1,2.6c-0.5,0.4-1,0.7-1.5,1c-0.3,0.2-1.6,1-0.7,0.4c-1.1,0.7-2.2,1.3-3.3,1.9c-1.3,0.6-2.6,1.2-4,1.7
	c-0.6,0.2-1.3,0.5-1.9,0.7c0.1,0,0.8-0.2,0.2-0.1c-0.4,0.1-0.8,0.2-1.2,0.3c-2.8,0.7-5.6,1.2-8.5,1.3c-2.9,0.1-5.2,3.6-4.6,6.4
	C552.2,444.7,554.8,446.2,557.9,446.1L557.9,446.1z"
  />
  <path
    d="M564.6,449.1c22.5-1.2,40.8-18.6,43-41c0.6-5.7,0.1-11.5-1.5-17c-0.5-1.9-2.1-3.4-4.2-3c-1.8,0.3-3.6,2.3-3,4.2
	c2.5,8.5,2,17.6-1.3,25.8c-3.5,8.5-10,15.5-18.3,19.6c-4.9,2.5-10.3,3.9-15.9,4.1c-2,0.1-3.3,2.4-3,4.2
	C560.8,448,562.6,449.3,564.6,449.1L564.6,449.1z"
  />
  <path
    class="orange-3-st1"
    d="M1088.9,703.2c0.8,0,1.5-0.7,1.5-1.5s-0.7-1.5-1.5-1.5s-1.5,0.7-1.5,1.5S1088.1,703.2,1088.9,703.2z"
  />
  <path
    d="M550.2,530.4c4,10.9,8.7,22.4,18.6,29.2c4.2,3,9.2,4.7,14.4,4.9c6.2,0.1,12.1-2.3,16.5-6.7c1.5-1.3,1.7-3.6,0.5-5.2
	c-1.2-1.4-3.8-1.9-5.2-0.5c-3.2,3.4-7.7,5.2-12.4,4.9c-3.9-0.4-7.6-1.9-10.7-4.3c-8-6-11.6-16.2-15-25.4c-0.9-1.8-3-2.7-4.9-1.8
	C550.2,526.4,549.4,528.5,550.2,530.4L550.2,530.4z"
  />
  <path
    class="orange-3-st11"
    d="M634.1,566.9c2.2-4.3,4.4-8.3,6.7-12c1.4-2.3,4.3-3,6.6-1.6c0.5,0.3,0.9,0.7,1.3,1.1c3.4,4.4,6.6,8.9,9.5,13.5
	c1.4,2.2,0.8,5.2-1.5,6.6c-0.8,0.5-1.8,0.8-2.8,0.7c-2.3-0.1-4.6-0.2-7-0.4c-3.2-0.3-6.2-0.6-9.2-1c-2.6-0.4-4.4-2.7-4.1-5.4
	c0.1-0.5,0.2-1,0.5-1.5L634.1,566.9z"
  />
  <path
    d="M627.5,588.7l23.9-35.4c1.8-2.5,1.1-6-1.4-7.7c-2.5-1.8-6-1.1-7.7,1.4l0,0l-23.9,35.4c-1.8,2.4-1.4,5.9,1.1,7.8
	c2.4,1.8,5.9,1.4,7.8-1.1C627.3,588.9,627.4,588.8,627.5,588.7z"
  />
</svg>
