<svg
  xmlns="http://www.w3.org/2000/svg"
  id="blueberry-octo-level-one"
  data-name="blueberry-octo-level-one"
  viewBox="0 0 668.99 668.99"
>
  <defs>
    <style>
      .cls-1-blueberry-octo-level-one {
        fill: #1600cb;
      }
      .cls-3-blueberry-octo-level-one {
        fill: #fff;
      }
      .cls-4-blueberry-octo-level-one {
        fill: #070707;
      }
    </style>
  </defs>
  <path
    d="M556.41 84.21a332.85 332.85 0 0 1 55.87 185.12c0 184.74-149.76 334.5-334.5 334.5a333.27 333.27 0 0 1-221.92-84.21C115.8 609.66 218.22 669 334.5 669 519.23 669 669 519.23 669 334.5A333.69 333.69 0 0 0 556.41 84.21Z"
    class="cls-1-blueberry-octo-level-one"
  />
  <path
    d="M612.28 269.33a332.85 332.85 0 0 0-55.87-185.12A333.22 333.22 0 0 0 334.5 0C149.76 0 0 149.76 0 334.5a332.92 332.92 0 0 0 55.86 185.12 333.27 333.27 0 0 0 221.92 84.21c184.74 0 334.5-149.76 334.5-334.5Z"
    style="fill: #2500ff"
  />
  <circle
    cx="146.31"
    cy="231.32"
    r="22.92"
    class="cls-3-blueberry-octo-level-one"
  />
  <circle
    cx="397.67"
    cy="231.32"
    r="22.92"
    class="cls-3-blueberry-octo-level-one"
  />
  <path
    d="m250.86 231.25 2.77 30.08c.51 5.47.9 11.27 3.93 16.05a19.05 19.05 0 0 0 6.77 6.58 16.55 16.55 0 0 0 4.39 1.71 17.45 17.45 0 0 0 7 0c2.08-.32 4.36-2.4 5.38-4.14a9 9 0 0 0-3.23-12.31l-2.15-.91a9 9 0 0 0-4.78 0l-.37.06 2.39-.32a8.9 8.9 0 0 1-1.46 0l2.39.32a9 9 0 0 1-1.77-.45l2.15.9a9.79 9.79 0 0 1-1.94-1.1l1.82 1.41a11.53 11.53 0 0 1-1.89-1.87l1.41 1.82a12.12 12.12 0 0 1-1.39-2.39l.9 2.15a22.39 22.39 0 0 1-1.42-5.69l.32 2.39c-.7-5.6-1.08-11.26-1.59-16.88l-1.61-17.4a9.66 9.66 0 0 0-2.63-6.36 9 9 0 0 0-12.73 0c-1.53 1.66-2.85 4-2.64 6.36Z"
    class="cls-4-blueberry-octo-level-one"
  />
  <circle
    cx="152.63"
    cy="242.5"
    r="6.32"
    class="cls-4-blueberry-octo-level-one"
  />
  <circle
    cx="397.67"
    cy="242.5"
    r="6.32"
    class="cls-4-blueberry-octo-level-one"
  />
  <path
    d="M538.64 314.54a1.5 1.5 0 0 0 0-3 1.5 1.5 0 0 0 0 3Z"
    class="cls-1-blueberry-octo-level-one"
  />
</svg>
