<svg width="33" height="33" viewBox="0 0 33 33" fill="none" xmlns="http://www.w3.org/2000/svg">
<path d="M15.1404 2.44142C24.0172 2.44142 31.2133 9.63765 31.2133 18.5148C31.2145 20.0334 31.0006 21.5445 30.5779 23.0031C31.613 20.8393 32.1487 18.4704 32.1452 16.0717C32.1452 7.19454 24.9494 0 16.0727 0C8.75354 0 2.57754 4.89227 0.635223 11.5851C3.22341 6.17633 8.74579 2.44142 15.1404 2.44142Z" fill="#F03C08"/>
<path d="M16.0729 32.1455C22.4675 32.1455 27.9899 28.4106 30.5781 23.0032C31.0008 21.5446 31.2147 20.0335 31.2135 18.5149C31.2135 9.63771 24.0174 2.44318 15.1406 2.44318C8.74599 2.44318 3.22361 6.17808 0.635427 11.5852C0.21278 13.0438 -0.00115191 14.5549 4.66448e-06 16.0735C4.66448e-06 24.949 7.19618 32.1455 16.0729 32.1455Z" fill="#FA5520"/>
<path d="M9.49684 25.7398C10.8803 25.7398 12.0018 24.6182 12.0018 23.2346C12.0018 21.8511 10.8803 20.7295 9.49684 20.7295C8.11339 20.7295 6.99188 21.8511 6.99188 23.2346C6.99188 24.6182 8.11339 25.7398 9.49684 25.7398Z" fill="#F13B07"/>
<path d="M23.9787 22.2019C25.3622 22.2019 26.4837 21.0804 26.4837 19.6968C26.4837 18.3133 25.3622 17.1917 23.9787 17.1917C22.5953 17.1917 21.4738 18.3133 21.4738 19.6968C21.4738 21.0804 22.5953 22.2019 23.9787 22.2019Z" fill="#F13B07"/>
<path d="M13.6877 18.3453C14.124 18.3453 14.4778 17.9915 14.4778 17.5552C14.4778 17.1188 14.124 16.7651 13.6877 16.7651C13.2514 16.7651 12.8976 17.1188 12.8976 17.5552C12.8976 17.9915 13.2514 18.3453 13.6877 18.3453Z" fill="white"/>
<path d="M17.2892 17.191C17.7256 17.191 18.0793 16.8373 18.0793 16.4009C18.0793 15.9645 17.7256 15.6108 17.2892 15.6108C16.8529 15.6108 16.4992 15.9645 16.4992 16.4009C16.4992 16.8373 16.8529 17.191 17.2892 17.191Z" fill="white"/>
<path d="M13.7868 18.0172C13.95 18.0172 14.0823 17.8849 14.0823 17.7217C14.0823 17.5585 13.95 17.4262 13.7868 17.4262C13.6236 17.4262 13.4913 17.5585 13.4913 17.7217C13.4913 17.8849 13.6236 18.0172 13.7868 18.0172Z" fill="black"/>
<path d="M17.2892 16.945C17.4524 16.945 17.5847 16.8127 17.5847 16.6495C17.5847 16.4863 17.4524 16.354 17.2892 16.354C17.126 16.354 16.9937 16.4863 16.9937 16.6495C16.9937 16.8127 17.126 16.945 17.2892 16.945Z" fill="black"/>
</svg>
