<svg id="orange_1" data-name="orange_1" xmlns="http://www.w3.org/2000/svg" viewBox="0 0 669 669"><defs><style>.cls-3-orange-level-one{fill:#ff1900}.cls-4-orange-level-one{fill:#fff}</style></defs><path d="M315 51c185 0 335 150 335 334a335 335 0 0 1-14 94 333 333 0 0 0 33-144 335 335 0 0 0-656-94A335 335 0 0 1 315 51Z" style="fill:#ff1c00"/><path d="M335 669c133 0 248-78 301-190a335 335 0 0 0 14-94A334 334 0 0 0 13 241a335 335 0 0 0-13 94c0 184 150 334 335 334Z" style="fill:#ff4300"/><circle class="cls-3-orange-level-one" cx="197.6" cy="483.6" r="52.1"/><circle class="cls-3-orange-level-one" cx="499" cy="409.9" r="52.1"/><circle class="cls-4-orange-level-one" cx="284.9" cy="365.4" r="16.4"/><circle class="cls-4-orange-level-one" cx="359.8" cy="341.4" r="16.4"/><circle cx="286.9" cy="368.8" r="6.2"/><circle cx="359.8" cy="346.5" r="6.2"/></svg>