<svg id="orange_2" data-name="orange_2" xmlns="http://www.w3.org/2000/svg" viewBox="0 0 604.8 836.5"><defs><style>.cls-2-orange-level-two{fill:#fc1b00}.cls-3-orange-level-two{fill:#fff}</style></defs><path d="M600 403c-5-49-20-204-145-303-27-20-79-62-152-68a6 6 0 0 1-4-3 68 68 0 0 0-58-29c-36 0-66 24-66 55a6 6 0 0 1-3 5c-40 22-67 50-78 62C14 204 7 304 3 365c-5 77-16 224 94 326 4 4 74 67 173 83a26 26 0 0 1 8 3 410 410 0 0 1 50 32c28 20 30 27 40 27 32 3 70-49 80-86a26 26 0 0 1 11-15c80-50 115-128 122-144 31-73 25-136 19-188Z" style="fill:#fc4401"/><circle class="cls-2-orange-level-two" cx="110.6" cy="436.8" r="61.6"/><circle class="cls-2-orange-level-two" cx="467" cy="349.8" r="61.6"/><circle class="cls-3-orange-level-two" cx="213.8" cy="297.1" r="19.4"/><circle class="cls-3-orange-level-two" cx="302.4" cy="268.6" r="19.4"/><path d="M243 340a310 310 0 0 0-12 29 118 118 0 0 0-4 14 94 94 0 0 0-1 16 68 68 0 0 0 1 15 60 60 0 0 0 3 11 58 58 0 0 0 6 11 56 56 0 0 0 9 10 46 46 0 0 0 10 7 39 39 0 0 0 12 4h4a6 6 0 0 0 3 0 6 6 0 0 0 3-2 6 6 0 0 0 1-2 6 6 0 0 0 1-3 8 8 0 0 0-2-6l-2-1a8 8 0 0 0-4-1h-2 2a33 33 0 0 1-8-2h2a37 37 0 0 1-9-5l2 2a45 45 0 0 1-8-8l1 1a53 53 0 0 1-7-12l1 2a55 55 0 0 1-4-14v2a70 70 0 0 1 1-18l-1 2 8-28 3-8v2l4-10a6 6 0 0 0 1-3 8 8 0 0 0-4-8 8 8 0 0 0-6-1l-2 1a8 8 0 0 0-2 3ZM315 473l16-2a6 6 0 0 0 3-2 6 6 0 0 0 2-2 6 6 0 0 0 1-3 6 6 0 0 0 0-3 8 8 0 0 0-4-4l-2-1a8 8 0 0 0-4 0l-17 2a9 9 0 0 0-4 4 6 6 0 0 0-1 3 6 6 0 0 0 0 3 8 8 0 0 0 4 5h1a8 8 0 0 0 5 0Z"/><circle cx="216.2" cy="301.1" r="7.3"/><circle cx="302.4" cy="274.8" r="7.3"/></svg>