<svg id="orange_2" data-name="orange_2" xmlns="http://www.w3.org/2000/svg" viewBox="0 0 604.79 836.53"><defs>
<style>
.cls-1-orange-level-two{fill:#fc4401;}
.cls-2-orange-level-two{fill:#fc1b00;}.cls-3-orange-level-two{fill:#fff;}</style></defs><path class="cls-1-orange-level-two" d="M600.34,402.67c-5-48.51-20.79-203.45-145.78-302.22C428.15,79.58,376.05,38.41,303,31.9a5.79,5.79,0,0,1-4.38-2.66C287.68,11.86,265.89,0,240.78,0c-36.08,0-65.33,24.48-65.33,54.67v0A6,6,0,0,1,172.32,60c-40.4,21.89-67.32,50.12-78.65,61.82C14.34,203.66,7.28,304.3,3,365.34c-5.36,76.31-15.68,223.44,93.7,325.92,4.38,4.1,74,67.2,173.25,82.47a25.6,25.6,0,0,1,8.54,2.92,409.58,409.58,0,0,1,49.85,32.25c27.21,20.5,29.28,26.81,40,27.56,31.65,2.21,69.53-49,79.39-86.6a25.69,25.69,0,0,1,11.19-15.25c79.79-50,115-127.46,121.87-143.49C612.17,518.41,605.64,454.52,600.34,402.67Z"/><circle class="cls-2-orange-level-two" cx="110.64" cy="436.8" r="61.64"/><circle class="cls-2-orange-level-two" cx="467.01" cy="349.75" r="61.64"/><circle class="cls-3-orange-level-two" cx="213.77" cy="297.05" r="19.44"/><circle class="cls-3-orange-level-two" cx="302.39" cy="268.65" r="19.44"/><path d="M242.63,339.81A310.2,310.2,0,0,0,231,368.93a118.48,118.48,0,0,0-3.7,14.14,93.91,93.91,0,0,0-1.8,16.29,68.25,68.25,0,0,0,1.3,14.33,60.42,60.42,0,0,0,3.69,11.67A58.09,58.09,0,0,0,236.18,436a56.06,56.06,0,0,0,8.35,9.71,45.89,45.89,0,0,0,10.27,7.15,39.38,39.38,0,0,0,11.89,3.91c1.54.21,3.07.43,4.61.53a5.89,5.89,0,0,0,3-.67,5.72,5.72,0,0,0,2.5-1.61,5.81,5.81,0,0,0,1.61-2.5,5.89,5.89,0,0,0,.67-3,7.84,7.84,0,0,0-2.28-5.49l-1.57-1.21a7.71,7.71,0,0,0-3.92-1.06c-.78-.05-1.55-.12-2.33-.23l2.07.28a33.34,33.34,0,0,1-8.39-2.29l1.85.78a37.26,37.26,0,0,1-8.19-4.82l1.57,1.22a45.21,45.21,0,0,1-8-8l1.21,1.57a53.43,53.43,0,0,1-6.88-11.84l.78,1.86a55.14,55.14,0,0,1-3.84-14l.28,2.06a69.93,69.93,0,0,1,.22-18.28l-.27,2.06c1.33-9.83,4.33-19.35,7.9-28.58q1.55-4,3.2-7.87l-.78,1.85c1.4-3.32,2.85-6.63,4.31-9.93a5.87,5.87,0,0,0,.92-2.88,8,8,0,0,0-3.71-7.74,7.82,7.82,0,0,0-6-.78l-1.86.78a7.82,7.82,0,0,0-2.78,2.79Z"/><path d="M314.5,473.4l16.88-2.66a5.81,5.81,0,0,0,2.64-1.39,5.91,5.91,0,0,0,2-2.18,5.76,5.76,0,0,0,.92-2.88,5.94,5.94,0,0,0-.14-3.1,7.85,7.85,0,0,0-3.57-4.64l-1.85-.78a7.82,7.82,0,0,0-4.13,0l-16.88,2.66a8.73,8.73,0,0,0-4.64,3.56,5.73,5.73,0,0,0-.92,2.89A5.85,5.85,0,0,0,305,468a7.83,7.83,0,0,0,3.56,4.64l1.86.78a7.82,7.82,0,0,0,4.13,0Z"/><circle cx="216.22" cy="301.15" r="7.27"/><circle cx="302.39" cy="274.77" r="7.27"/></svg>
