<svg width="33" height="33" viewBox="0 0 33 33" fill="none" xmlns="http://www.w3.org/2000/svg">
<path d="M15.2484 2.07877C24.1251 2.07877 31.3213 9.27462 31.3213 18.1513C31.3228 19.8041 31.0691 21.4471 30.5693 23.0225C31.6104 20.8537 32.1492 18.4782 32.1457 16.0726C32.1457 7.19585 24.9499 0 16.0731 0C8.89448 0 2.81517 4.70604 0.751892 11.2014C3.34412 5.80472 8.86112 2.07877 15.2484 2.07877Z" fill="#E51570"/>
<path d="M16.0729 32.1455C22.4601 32.1455 27.9771 28.4195 30.569 23.0224C31.0689 21.4471 31.3225 19.8041 31.321 18.1513C31.321 9.27461 24.1248 2.08044 15.2481 2.08044C8.86089 2.08044 3.34389 5.80639 0.751665 11.2031C0.252305 12.778 -0.00122877 14.4204 4.47747e-06 16.0726C4.47747e-06 24.9493 7.19619 32.1455 16.0729 32.1455Z" fill="#F8287E"/>
<path d="M11.629 21.115C12.0724 21.115 12.4318 20.7555 12.4318 20.3121C12.4318 19.8687 12.0724 19.5092 11.629 19.5092C11.1856 19.5092 10.8261 19.8687 10.8261 20.3121C10.8261 20.7555 11.1856 21.115 11.629 21.115Z" fill="#070707"/>
<path d="M18.9759 21.115C19.4193 21.115 19.7787 20.7555 19.7787 20.3121C19.7787 19.8687 19.4193 19.5092 18.9759 19.5092C18.5325 19.5092 18.173 19.8687 18.173 20.3121C18.173 20.7555 18.5325 21.115 18.9759 21.115Z" fill="#070707"/>
<path d="M15.2167 19.8767C14.6319 19.8767 14.0603 20.0501 13.5742 20.3749C13.088 20.6998 12.709 21.1615 12.4853 21.7017C12.2615 22.242 12.203 22.8364 12.317 23.4099C12.4311 23.9834 12.7127 24.5102 13.1261 24.9237C13.5396 25.3371 14.0664 25.6187 14.6399 25.7328C15.2134 25.8468 15.8078 25.7883 16.3481 25.5645C16.8883 25.3408 17.35 24.9618 17.6749 24.4756C17.9997 23.9895 18.1731 23.4179 18.1731 22.8331C18.1731 22.049 17.8616 21.297 17.3072 20.7426C16.7528 20.1882 16.0008 19.8767 15.2167 19.8767ZM15.2167 24.1067C14.9648 24.1067 14.7186 24.032 14.5091 23.892C14.2997 23.7521 14.1365 23.5532 14.0401 23.3205C13.9437 23.0878 13.9185 22.8317 13.9676 22.5847C14.0167 22.3376 14.138 22.1107 14.3161 21.9326C14.4942 21.7545 14.7212 21.6332 14.9682 21.584C15.2153 21.5349 15.4713 21.5601 15.704 21.6565C15.9367 21.7529 16.1356 21.9162 16.2756 22.1256C16.4155 22.335 16.4902 22.5812 16.4902 22.8331C16.4899 23.1707 16.3555 23.4942 16.1167 23.7328C15.8779 23.9713 15.5542 24.1053 15.2167 24.1053V24.1067Z" fill="#FF92C4"/>
<path d="M9.60234 18.767C9.61682 18.7546 9.63165 18.7424 9.64647 18.7303C9.6613 18.7182 9.65254 18.7161 9.63906 18.736C9.64591 18.7294 9.65361 18.7237 9.66197 18.7192C9.69162 18.6979 9.72194 18.6781 9.75294 18.6592C9.78393 18.6403 9.81628 18.6235 9.84862 18.6073L9.89545 18.5858C9.92375 18.5726 9.88837 18.5874 9.88635 18.5895C9.89785 18.5826 9.91036 18.5776 9.92342 18.5746C9.9914 18.5489 10.0614 18.5287 10.1326 18.5143C10.1495 18.511 10.1663 18.5076 10.1835 18.5049L10.2061 18.5015C10.2061 18.5015 10.1643 18.5066 10.2004 18.5015C10.2364 18.4965 10.2765 18.4944 10.3149 18.4934C10.3533 18.4924 10.3873 18.4934 10.4237 18.4934C10.4389 18.4934 10.4541 18.4955 10.4692 18.4968C10.479 18.4968 10.4884 18.4988 10.4979 18.4998C10.5147 18.4998 10.4574 18.4934 10.4979 18.4998C10.568 18.5106 10.6371 18.5274 10.7044 18.55C10.7182 18.5544 10.732 18.5595 10.7458 18.5645L10.7711 18.5743C10.7927 18.5827 10.7826 18.5898 10.7657 18.5713C10.7795 18.5802 10.7946 18.587 10.8105 18.5915C10.8284 18.6002 10.8466 18.609 10.8641 18.6184C10.925 18.6512 10.9835 18.6881 11.0393 18.7289C11.0477 18.735 11.0625 18.7495 11.0309 18.7222C11.0389 18.7293 11.048 18.7357 11.0565 18.7428C11.0716 18.7552 11.0868 18.7684 11.1019 18.7818C11.1302 18.8074 11.1575 18.8341 11.1835 18.862C11.1973 18.8769 11.2104 18.8917 11.2232 18.9068L11.2408 18.9281L11.2478 18.9365L11.2411 18.9277C11.2411 18.9277 11.3034 19.018 11.3085 19.0268C11.3198 19.0462 11.3349 19.0632 11.3528 19.0768C11.3707 19.0904 11.3911 19.1004 11.4129 19.1061C11.4347 19.1118 11.4573 19.1131 11.4796 19.1101C11.5019 19.107 11.5234 19.0996 11.5428 19.0883C11.5622 19.0769 11.5792 19.0619 11.5928 19.0439C11.6064 19.026 11.6164 19.0056 11.6221 18.9838C11.6278 18.9621 11.6291 18.9394 11.6261 18.9171C11.623 18.8948 11.6156 18.8734 11.6043 18.8539C11.4261 18.5726 11.1609 18.3573 10.8489 18.2407C10.5341 18.125 10.189 18.1216 9.87187 18.231C9.68457 18.2952 9.51147 18.3951 9.36212 18.5251C9.33031 18.5573 9.31247 18.6008 9.31247 18.6461C9.31247 18.6913 9.33031 18.7348 9.36212 18.767C9.39471 18.7981 9.43802 18.8155 9.48307 18.8155C9.52811 18.8155 9.57143 18.7981 9.60402 18.767H9.60234Z" fill="#070707"/>
<path d="M21.1355 18.5248C20.8716 18.2952 20.5367 18.1635 20.1871 18.1519C19.8591 18.1434 19.5379 18.2459 19.2754 18.4426C19.1231 18.5556 18.9931 18.6959 18.892 18.8563C18.8694 18.8956 18.8632 18.9422 18.8747 18.986C18.8861 19.0298 18.9144 19.0673 18.9533 19.0905C18.9927 19.1124 19.0391 19.1182 19.0827 19.1068C19.1263 19.0954 19.1638 19.0676 19.1875 19.0292C19.2056 18.9995 19.2249 18.9709 19.2454 18.9433C19.266 18.9156 19.2454 18.9487 19.242 18.9473L19.2555 18.9305C19.267 18.9163 19.2788 18.9025 19.2892 18.8887C19.3364 18.8357 19.3877 18.7865 19.4425 18.7415C19.4449 18.7415 19.4641 18.7253 19.4641 18.7246C19.4641 18.7239 19.4304 18.7502 19.4553 18.7314L19.4954 18.7027C19.5254 18.6822 19.556 18.6626 19.5877 18.6444C19.6194 18.6262 19.645 18.6128 19.6743 18.5986L19.7191 18.5781C19.7528 18.5626 19.6905 18.5892 19.7134 18.5808L19.744 18.5686C19.8096 18.5443 19.8771 18.5255 19.9458 18.5124L19.994 18.5036L20.0048 18.5019L19.9933 18.5036L20.0163 18.5009C20.0543 18.4969 20.0924 18.4948 20.1308 18.4945C20.1692 18.4942 20.1982 18.4945 20.2339 18.4972C20.2508 18.4972 20.2676 18.4999 20.2851 18.5016L20.3137 18.5049C20.3137 18.5049 20.2696 18.4982 20.3137 18.5049C20.3855 18.5168 20.4563 18.5342 20.5253 18.5572C20.5432 18.5632 20.5614 18.57 20.5792 18.5767L20.6059 18.5872L20.5914 18.5811L20.6072 18.5882C20.6436 18.6043 20.6796 18.6219 20.7147 18.6421C20.7497 18.6623 20.7868 18.6852 20.8215 18.7095L20.84 18.7229L20.8585 18.7364L20.842 18.7236C20.8611 18.7363 20.8789 18.751 20.8949 18.7674C20.9623 18.826 21.0715 18.8388 21.1368 18.7674C21.1961 18.7034 21.2093 18.5882 21.1368 18.5255L21.1355 18.5248Z" fill="#070707"/>
</svg>
