<svg id="pink_2" data-name="pink_2" xmlns="http://www.w3.org/2000/svg" viewBox="0 0 855.9 1163.6"><defs><style>.cls-3-pink-level-two{fill:#070707}</style></defs><path d="M591 340c68-72 129-192 108-261-5-15-16-51-49-69a93 93 0 0 0-56-8c-73 9-118 92-125 106-33 61-42 140-33 200h-16c9-60 0-139-32-200-8-15-52-97-125-107-10-1-33-4-57 8-33 18-44 55-48 69-21 69 40 190 107 262a428 428 0 1 0 326 0Z" style="fill:#fd037f"/><circle cx="427.9" cy="778" r="233.3" style="fill:#ffb6c7"/><circle class="cls-3-pink-level-two" cx="368.4" cy="846.6" r="13.3"/><circle class="cls-3-pink-level-two" cx="490.4" cy="846.6" r="13.3"/><path d="M428 839a49 49 0 1 0 49 49 49 49 0 0 0-49-49Zm0 71a21 21 0 1 1 21-22 21 21 0 0 1-21 22Z" style="fill:#fd016f"/><path class="cls-3-pink-level-two" d="M335 821v-1c1 0 1 0 0 0h1l1-1 2-1h1-1a2 2 0 0 1 1 0 22 22 0 0 1 4-1h1l2-1h3s-1 0 0 0a20 20 0 0 1 3 1l1 1h2a26 26 0 0 1 3 2h-1l1 1a24 24 0 0 1 3 2v1l1 1a3 3 0 1 0 5-3 25 25 0 0 0-13-10 24 24 0 0 0-16 0 26 26 0 0 0-8 5 3 3 0 0 0 0 4 3 3 0 0 0 4 0ZM526 817a25 25 0 0 0-16-6 24 24 0 0 0-15 5 26 26 0 0 0-6 6 3 3 0 0 0 5 3l1-1 1-1a21 21 0 0 1 2-2s1-1 1-1h-1 1l2-1 1-1h1s-1 0 0 0a22 22 0 0 1 4-1v-1h1-1 6s-1 0 0 0a24 24 0 0 1 3 1l1 1h1l1 1a20 20 0 0 1 2 1h1-1a5 5 0 0 1 1 1 3 3 0 0 0 4-4Z"/></svg>