<svg width="33" height="33" viewBox="0 0 33 33" fill="none" xmlns="http://www.w3.org/2000/svg">
<path d="M16.9736 30.7452C8.53025 30.7452 1.68557 23.8991 1.68557 15.454C1.68557 7.00886 8.53025 0.162731 16.9736 0.162731C17.8382 0.162462 18.7014 0.235046 19.5538 0.379706C18.409 0.126779 17.2399 -0.00054231 16.0675 1.73615e-06C7.19264 1.73615e-06 0 7.19618 0 16.0729C0 24.9496 7.19433 32.1455 16.0692 32.1455C24.0942 32.1455 30.7448 26.2619 31.9453 18.5721C30.504 25.522 24.3505 30.7452 16.9736 30.7452Z" fill="#E81A1A"/>
<path d="M32.1368 16.0729C32.137 16.9097 32.0723 17.7453 31.9435 18.5721C32.1556 17.5463 32.2623 16.5015 32.2618 15.454C32.2618 7.8882 26.7685 1.60675 19.5537 0.3797C26.7524 1.9723 32.1368 8.39357 32.1368 16.0729Z" fill="#FA2120"/>
<path d="M1.68549 15.4539C1.68549 23.899 8.53016 30.7451 16.9735 30.7451C24.3504 30.7451 30.5039 25.5229 31.9435 18.572C32.0724 17.7452 32.137 16.9096 32.1369 16.0728C32.1369 8.39348 26.7524 1.9722 19.5537 0.379605C18.7013 0.234944 17.8381 0.162361 16.9735 0.162629C8.53016 0.162629 1.68549 7.00875 1.68549 15.4539Z" fill="#FA2120"/>
<path d="M16.0352 16.4792C16.5677 16.4792 16.9993 16.2496 16.9993 15.9664C16.9993 15.6832 16.5677 15.4536 16.0352 15.4536C15.5028 15.4536 15.0712 15.6832 15.0712 15.9664C15.0712 16.2496 15.5028 16.4792 16.0352 16.4792Z" fill="#FAD62D"/>
<path d="M13.8629 15.8646C14.2614 15.8646 14.5844 15.5415 14.5844 15.1429C14.5844 14.7444 14.2614 14.4213 13.8629 14.4213C13.4644 14.4213 13.1414 14.7444 13.1414 15.1429C13.1414 15.5415 13.4644 15.8646 13.8629 15.8646Z" fill="#070707"/>
<path d="M17.9172 15.8646C18.3157 15.8646 18.6387 15.5415 18.6387 15.1429C18.6387 14.7444 18.3157 14.4213 17.9172 14.4213C17.5187 14.4213 17.1957 14.7444 17.1957 15.1429C17.1957 15.5415 17.5187 15.8646 17.9172 15.8646Z" fill="#070707"/>
<path d="M11.5976 17.9346C12.2945 17.9346 12.8595 17.3696 12.8595 16.6726C12.8595 15.9755 12.2945 15.4105 11.5976 15.4105C10.9008 15.4105 10.3358 15.9755 10.3358 16.6726C10.3358 17.3696 10.9008 17.9346 11.5976 17.9346Z" fill="#FA5520"/>
<path d="M20.2559 17.9346C20.9527 17.9346 21.5177 17.3696 21.5177 16.6726C21.5177 15.9755 20.9527 15.4105 20.2559 15.4105C19.559 15.4105 18.994 15.9755 18.994 16.6726C18.994 17.3696 19.559 17.9346 20.2559 17.9346Z" fill="#FA5520"/>
</svg>
