<svg id="red_2" data-name="red_2" xmlns="http://www.w3.org/2000/svg" viewBox="0 0 751.63 801.18">
<defs>
<style>
.cls-1-red-level-two{fill:#fd0300;}
.cls-2-red-level-two{fill:#fdd301;}
.cls-3-red-level-two{fill:#070707;}
.cls-4-red-level-two{fill:#fc4401;}</style></defs><path class="cls-1-red-level-two" d="M751.63,137.6a137.62,137.62,0,0,0-266.22-49,325.16,325.16,0,0,0-109.6,17.12A325.1,325.1,0,0,0,266.22,88.61,137.62,137.62,0,1,0,33,227C-13.82,321,1.87,429.71,5.21,452.82c0,0,31.52,218.35,308.44,334.68,27.58,11.59,47.89,14.28,62.16,13.58,14.28.7,34.59-2,62.17-13.58C714.9,671.17,746.42,452.82,746.42,452.82c3.33-23.11,19-131.85-27.78-225.83A137.11,137.11,0,0,0,751.63,137.6Z"/><ellipse class="cls-2-red-level-two" cx="380.76" cy="624.52" rx="32.88" ry="17.49"/><circle class="cls-3-red-level-two" cx="306.68" cy="596.44" r="24.61"/><circle class="cls-3-red-level-two" cx="444.95" cy="596.44" r="24.61"/><path class="cls-3-red-level-two" d="M328.4,680l38.45.82,38.44.83,21.54.46a6.76,6.76,0,0,0,6.77-6.77,6.81,6.81,0,0,0-2-4.79,7.17,7.17,0,0,0-4.79-2l-38.45-.82-38.44-.83-21.54-.46a6.76,6.76,0,0,0-6.77,6.77,6.81,6.81,0,0,0,2,4.79,7.17,7.17,0,0,0,4.79,2Z"/><circle class="cls-4-red-level-two" cx="229.41" cy="648.6" r="43.03"/><circle class="cls-4-red-level-two" cx="524.72" cy="648.6" r="43.03"/></svg>
