<svg id="red_1" data-name="red_1" xmlns="http://www.w3.org/2000/svg" viewBox="0 0 668.99 666.4"><defs>
<style>
.cls-1-red-level-one{fill:#ce0b0b;}
.cls-2-red-level-one{fill:red;}
.cls-3-red-level-one{fill:#ffd500;}
.cls-4-red-level-one{fill:#070707;}
.cls-5-red-level-one{fill:#ff4300;}</style></defs><path class="cls-1-red-level-one" d="M352,637.37c-175.07,0-317-141.92-317-317s141.93-317,317-317a318.7,318.7,0,0,1,53.5,4.5A334.31,334.31,0,0,0,333.2,0C149.18,0,0,149.18,0,333.2S149.18,666.4,333.2,666.4c166.4,0,304.3-122,329.19-281.39C632.54,529.09,504.91,637.37,352,637.37Z"/><path class="cls-2-red-level-one" d="M666.4,333.2a335.1,335.1,0,0,1-4,51.81,317.93,317.93,0,0,0,6.6-64.64c0-156.84-113.9-287.07-263.5-312.5C554.75,40.89,666.4,174,666.4,333.2Z"/><path class="cls-2-red-level-one" d="M35,320.37c0,175.08,141.93,317,317,317,152.92,0,280.55-108.28,310.4-252.36a335.1,335.1,0,0,0,4-51.81C666.4,174,554.75,40.89,405.49,7.87A318.7,318.7,0,0,0,352,3.37C176.92,3.37,35,145.29,35,320.37Z"/><ellipse class="cls-3-red-level-one" cx="332.54" cy="331" rx="19.99" ry="10.63"/><circle class="cls-4-red-level-one" cx="287.49" cy="313.93" r="14.96"/><circle class="cls-4-red-level-one" cx="371.56" cy="313.93" r="14.96"/><circle class="cls-5-red-level-one" cx="240.52" cy="345.64" r="26.16"/><circle class="cls-5-red-level-one" cx="420.05" cy="345.64" r="26.16"/></svg>
