<svg id="레이어_1" data-name="레이어 1" xmlns="http://www.w3.org/2000/svg" viewBox="0 0 1458.77 1524.38"><defs>
<style>
.cls-1-red-level-four{fill:#99a0f5;}
.cls-2-red-level-four{fill:#bcbdf3;}
.cls-3-red-level-four{fill:#d11022;}
.cls-4-red-level-four{fill:#fd0300;}
.cls-5-red-level-four{fill:#87ff7b;}
.cls-6-red-level-four{fill:#00ff7d;}
.cls-7-red-level-four{fill:#663606;}
.cls-8-red-level-four{fill:#fc4401;}
.cls-9-red-level-four{fill:#ff7687;}
.cls-10-red-level-four{fill:#7c0d17;}
.cls-11-red-level-four{fill:#ffc2ff;}
.cls-12-red-level-four{fill:#fff;}
.cls-13-red-level-four{fill:#070707;}
.cls-14-red-level-four{fill:#fdd301;}
.cls-15-red-level-four{fill:#ff5557;}
.cls-16-red-level-four{fill:#ff7081;}
.cls-17-red-level-four{fill:#6c6565;}
.cls-18-red-level-four{fill:#a9a9a9;}
.cls-19-red-level-four{fill:#ff9d93;}
.cls-20-red-level-four{fill:#ff5757;}
.cls-21-red-level-four{fill:#caefff;}
.cls-22-red-level-four{fill:#ff5f54;}
.cls-23-red-level-four{fill:#ffa49c;}
</style></defs><path class="cls-1-red-level-four" d="M642.7,1161.8C624.16,1035,525.82,962.32,514.17,954c-25.6-18.33-99.13-71-191.25-63.21,28,31,44.65,71.93,51.71,113.4,8.6,50.51,4.28,102.26-1.48,153.17-5,44.47-11.24,89.24-26.79,131.21a255.3,255.3,0,0,1-29.48,57.18c43,14.3,88.82,21,134.13,21,66.58.11,140.72-18.15,175.77-74.75C654.62,1247.06,647.92,1197.48,642.7,1161.8Z"/><path class="cls-2-red-level-four" d="M643.49,1127.08c-25.06-125.63-127-193.18-139.09-200.9-26.52-17-102.66-65.74-194.27-53.24,29.54,29.46,48.32,69.52,57.51,110.58,11.19,50,9.55,101.89,6.43,153-2.72,44.67-6.61,89.71-20,132.42a255.81,255.81,0,0,1-26.49,58.63c43.64,12.06,89.78,16.34,135,14.08,66.49-3.32,139.6-25.4,171.67-83.73C659.8,1211.61,650.55,1162.45,643.49,1127.08Z"/><path class="cls-3-red-level-four" d="M635.28,1337.71q-1.47-4.49-2.68-8.72a269.22,269.22,0,0,0-49.52,11.16c9.4,27.29,19.48,54.39,33.36,79.65,11.61,21.15,26.13,41.07,43.91,57.23,8.82-12.24,14.62-25.87,16.12-39.62C680.15,1403.73,655,1398,635.28,1337.71Z"/><path class="cls-4-red-level-four" d="M583.08,1340.15a266.39,266.39,0,0,0-64.24,30.95c-18.18,12-35.18,26.67-46.24,45.45-7.48,12.73-12,27.59-11.83,42.24a155.15,155.15,0,0,0,22.38,25.28c13.87,12.59,51.15,46.45,101.39,39.34,30.53-4.33,58.8-22.79,75.81-46.38-17.78-16.16-32.3-36.08-43.91-57.23C602.56,1394.54,592.48,1367.44,583.08,1340.15Z"/><path class="cls-2-red-level-four" d="M556.15,1185.84c-14.16-3.86-29-4.68-42.88-1.52-72,16.41-83.8,132.06-84.77,142.87-1.23,13.79-5.55,78.19,32.27,131.6-.13-14.65,4.35-29.51,11.83-42.24,11.06-18.78,28.06-33.42,46.24-45.45a266.58,266.58,0,0,1,65.31-31.29A353.6,353.6,0,0,1,556.15,1185.84Z"/><path class="cls-1-red-level-four" d="M608,1218.69c-12.58-15.45-31.48-27.29-51.8-32.85a353.6,353.6,0,0,0,28,154A268.67,268.67,0,0,1,632.6,1329C615.86,1270.91,632.26,1248.56,608,1218.69Z"/><path class="cls-5-red-level-four" d="M1062.39,1142.88c.32.22.61.45.92.68l-.18-.33Z"/><path class="cls-3-red-level-four" d="M238.18,1288.34c-2.81,6.79-25.19,58.54-78.29,69.19-48.87,9.8-87.41-21.91-101.61-35.28C31.28,1296.83,14.4,1262,5.52,1226c-7.19-29.16-9.1-61.41,5-87.91,20.27-38,68.32-49.28,101.06-47.93,73.58,3,111.71,75.23,116.43,84.53C235.26,1188.92,259.52,1236.69,238.18,1288.34Z"/><path class="cls-4-red-level-four" d="M247.75,1305.3c-2.81,6.79-25.19,58.54-78.29,69.2-48.86,9.8-87.41-21.92-101.61-35.29C40.85,1313.79,24,1279,15.1,1243c-7.19-29.15-9.1-61.41,5-87.91,20.27-38,68.33-49.28,101.07-47.92,73.58,3,111.7,75.22,116.42,84.52C244.84,1205.88,269.1,1253.66,247.75,1305.3Z"/><path class="cls-3-red-level-four" d="M285.24,1001.49C230.38,1012.8,182,1052,159.53,1103.27c-16.21,37-18.63,79.64-7.89,118.53a315.86,315.86,0,0,0,62.61,69c30.55,24.5,65.51,42.57,102.63,54.93a255.3,255.3,0,0,0,29.48-57.18c15.55-42,21.76-86.74,26.79-131.21,5.66-50,9.91-100.82,1.92-150.48A177.24,177.24,0,0,0,285.24,1001.49Z"/><path class="cls-4-red-level-four" d="M291.72,992.14c-54.87,11.31-103.23,50.47-125.71,101.78-16.21,37-18.64,79.63-7.89,118.53a315.53,315.53,0,0,0,62.6,69c30.56,24.51,65.51,42.58,102.64,54.94a256.21,256.21,0,0,0,29.48-57.19c15.54-42,21.76-86.73,26.79-131.2,5.65-50,9.91-100.83,1.91-150.48C352.67,988.17,321.45,986,291.72,992.14Z"/><path class="cls-3-red-level-four" d="M322.92,890.77A220.72,220.72,0,0,0,278,899.33c-69.15,20.75-146,79.78-162.15,169.56-11,61,9.85,113.69,35.82,152.91-10.74-38.89-8.32-81.52,7.89-118.53C182,1052,230.38,1012.8,285.24,1001.49a177.24,177.24,0,0,1,89.83,5.37c-.15-.9-.29-1.79-.44-2.69C367.57,962.7,350.89,921.72,322.92,890.77Z"/><path class="cls-3-red-level-four" d="M1014.89,1241.77c-18.52-28.52-58.71-35-97.43-33.52a124.54,124.54,0,0,0-28.07,46c44.56-17.26,98.21-9,135.39,21.07C1024.52,1265.43,1022.29,1253.16,1014.89,1241.77Z"/><path class="cls-1-red-level-four" d="M643.51,1242.21c-5.13-.13-16-.51-26,6.11-2.18,1.43-14.61,9.63-13.71,21.43.67,8.65,7.83,15.7,15.91,18.85s17,3.16,25.67,3.09q57.52-.46,115-3.14c12.88-.6,28.3-2.93,33.53-14.71,4.09-9.2-3.58-22.33-12.58-29-9.36-7-19.6-6.42-33.86-6C712.78,1239.74,678.16,1243.07,643.51,1242.21Z"/><path class="cls-2-red-level-four" d="M886,1266.57a122.88,122.88,0,0,1,31.49-58.32c-38,1.43-74.54,10.47-87.84,13.76-54,13.35-60.26,29.43-61.68,35.3-4.59,18.89,14.79,38.36,19.95,43.54,18.91,19,35.28,17.94,102.31,31.71A122.81,122.81,0,0,1,886,1266.57Z"/><path class="cls-6-red-level-four" d="M1051.11,208.26A292.14,292.14,0,0,0,838.17,2.49l.28.33c29,13.07,45.94,42.72,52.54,74.77a460.47,460.47,0,0,1,47.15,118.87c19.11,79.24,16.32,163.45-6.83,241.56A662.87,662.87,0,0,0,973.74,495,292.13,292.13,0,0,0,1051.11,208.26Z"/><path class="cls-5-red-level-four" d="M938.14,196.46A460.47,460.47,0,0,0,891,77.59a159.22,159.22,0,0,1,3.23,34.46c-.88,55.89-10.73,92.32-18,129.93-8.53,44.32-3.06,108,55.07,196C954.46,359.91,957.25,275.7,938.14,196.46Z"/><path class="cls-3-red-level-four" d="M1221.61,973.12c-66.81-18.19-118-80.07-118.33-153.8-.32-79.58,61.24-136,117.1-154.74,83.79-28.05,188.41,17.65,238.39,116.34-2,17.49-12.86,94.66-80.2,148.56C1360.89,943.63,1298.13,994,1221.61,973.12Z"/><path class="cls-7-red-level-four" d="M972.44,505c-12-78.89,39.16-139.45,49.37-151,54.73-61.88,128.85-67.23,143.57-68l51.22,60.58c-24.49-.27-56.61,3.19-90,18.37-109.84,49.93-132.46,180.81-134.84,196A166.39,166.39,0,0,1,972.44,505Z"/><path class="cls-4-red-level-four" d="M468.64,1183.55c-6.53-7.9-31.74-40.35-59.94-81.4-9.07-13.2-27.67-40.27-40.86-62.89-37.59-64.46-50.34-125.43-56.4-154.37-17.2-82.29-53.74-256.21,53.91-403.53C459.41,352.63,602.2,326.15,622.59,322.7c26.68-4.51,147.83-22.22,254.69,43.39,57.5,35.3,93.72,83.79,109.38,112.84a170.7,170.7,0,0,1,15.77,40.31,163,163,0,0,1,.14,73.34q-8-56.82-15.91-113.65a212.74,212.74,0,0,1,72.6,2.65c125,26.9,182,163.22,191.2,185.24,58.92,141.09-7.33,295.16-16.57,316.15-58.93,133.84-166.7,197-207.68,220.4-18.43,10.51-83.09,45.87-176.68,61.75C703.25,1289.94,531.38,1259.5,468.64,1183.55Z"/><path class="cls-8-red-level-four" d="M349.68,883.09c24.16-27.7,82.85-11.27,113.65,5.15,11.41,6.09,66.23,35.32,67.12,86.78.68,39.15-30.3,66.64-38.8,74.18-12.25,10.87-29.6,26.27-51.78,25.68-47.2-1.26-75-73.87-82.83-94.27C345.42,950.29,328.84,907,349.68,883.09Z"/><path class="cls-9-red-level-four" d="M706.85,1140.49c.16-3,.87-23.14-14.86-38.06-11-10.39-24.12-12.75-33.85-12.73a206.45,206.45,0,0,0-3.52,29c-.4,8.13-.81,16.68-.51,25.23,3.58,0,7.19,0,10.86.14q11.61.26,22.63.91a3.55,3.55,0,0,1,2.44,5.89l-25.85,29.2a3.53,3.53,0,0,1-1.48,1,57.72,57.72,0,0,0,9.2,12.75c12.42,13.05,28.45,18,40.64,20a60.1,60.1,0,0,0-5.7-73.35Z"/><path class="cls-10-red-level-four" d="M844.74,1101.53a3.51,3.51,0,0,1-1,4.69l-20.55,14.43a3.54,3.54,0,0,1-5.57-2.84l-.32-22.16a71.06,71.06,0,0,1-13-7.22,82.59,82.59,0,0,1-21.79-23,72.09,72.09,0,0,1-31.86-2,73.67,73.67,0,0,1-14.19-5.88,3.43,3.43,0,0,1-2,1.77l-28.45,10.18a3.53,3.53,0,0,1-4.7-3.78q1.8-14.1,3.61-28.19a3.52,3.52,0,0,1,4.22-3,124.54,124.54,0,0,1-17.06-27.49c-13.37,20.61-27.44,48.68-34,82.65,9.73,0,22.88,2.34,33.85,12.73,15.73,14.92,15,35,14.86,38.06a60.1,60.1,0,0,1,5.7,73.35,118,118,0,0,0,14.83,1.4c41.24,1.76,72.4-23.85,97.91-44.82,16.15-13.28,24.75-24.17,28.86-29.84a159.56,159.56,0,0,0,22.22-44A89.33,89.33,0,0,1,844.74,1101.53Z"/><path class="cls-11-red-level-four" d="M823.2,1120.65l20.55-14.43a3.51,3.51,0,0,0,1-4.69,74.5,74.5,0,0,1-27.43-5.88l.32,22.16A3.54,3.54,0,0,0,823.2,1120.65Z"/><path class="cls-11-red-level-four" d="M705,1037.53q-1.82,14.1-3.61,28.19a3.53,3.53,0,0,0,4.7,3.78l28.45-10.18a3.43,3.43,0,0,0,2-1.77,92.92,92.92,0,0,1-27.29-23A3.52,3.52,0,0,0,705,1037.53Z"/><path class="cls-11-red-level-four" d="M690,1150.91a3.55,3.55,0,0,0-2.44-5.89q-11-.64-22.63-.91c-3.67-.09-7.28-.12-10.86-.14.44,12.83,2.49,25.66,8.6,37.12a3.53,3.53,0,0,0,1.48-1Z"/><path class="cls-12-red-level-four" d="M729.45,807.2A50.22,50.22,0,0,0,663.3,833l-20.17,46a50.21,50.21,0,0,0,92,40.34l20.16-46A50.21,50.21,0,0,0,729.45,807.2Z"/><circle class="cls-13-red-level-four" cx="690.94" cy="897.2" r="44.27"/><circle class="cls-12-red-level-four" cx="687.36" cy="862.21" r="22.13"/><path class="cls-12-red-level-four" d="M1014.22,939.31a50.21,50.21,0,0,0-70.08,11.41L914.8,991.47a50.21,50.21,0,1,0,81.5,58.67l29.34-40.75A50.2,50.2,0,0,0,1014.22,939.31Z"/><circle class="cls-13-red-level-four" cx="957.09" cy="1021.7" r="43.96"/><circle class="cls-12-red-level-four" cx="950.8" cy="995.09" r="23.54"/><path class="cls-13-red-level-four" d="M794.07,1029.81a72.53,72.53,0,0,1-1.87,9c-.4,1.44-.85,2.87-1.33,4.29q-.39,1.11-.81,2.22c-.14.37-.28.74-.43,1.1-.06.15-.47,1.14-.13.34a73.3,73.3,0,0,1-4,8q-1.2,2-2.52,4c-.39.59-.8,1.17-1.21,1.74l-.7,1c-.11.14-.94,1.21-.37.49-1.61,2-2.15,5.08,0,7.06,1.79,1.65,5.34,2.19,7.06,0a77.56,77.56,0,0,0,16-36.58c.37-2.58-.63-5.49-3.48-6.14-2.37-.54-5.75.72-6.15,3.48Z"/><path class="cls-13-red-level-four" d="M685,1010.92a101,101,0,0,0,19.9,29.76A97.62,97.62,0,0,0,758,1069a101.63,101.63,0,0,0,24.57,1.39c2.6-.18,5.12-2.16,5-5-.11-2.55-2.2-5.19-5-5s-5.48.26-8.22.22c-1.78,0-3.57-.11-5.35-.24-1-.07-2-.16-2.93-.26-.45,0-.89-.09-1.34-.15s-2-.27-.83-.1a100.53,100.53,0,0,1-13.73-3c-2.52-.75-5-1.61-7.45-2.56-.64-.25-1.28-.51-1.91-.78l-.25-.11-1-.43c-1.31-.59-2.6-1.21-3.88-1.86a92.21,92.21,0,0,1-12.55-7.71l-1.37-1h0l-.5-.39c-.92-.73-1.83-1.48-2.72-2.24-1.61-1.39-3.18-2.83-4.69-4.32a94.78,94.78,0,0,1-7.83-8.69c-.23-.29-1.17-1.29-.26-.33a10.76,10.76,0,0,1-.7-.93c-.55-.73-1.09-1.47-1.61-2.22q-1.4-2-2.69-4a95.15,95.15,0,0,1-7.13-13.46c-1-2.41-4.76-3.13-6.83-1.79-2.5,1.61-2.9,4.25-1.8,6.83Z"/><path class="cls-13-red-level-four" d="M779.89,1068a77.33,77.33,0,0,0,30.51,29.81c17.73,9.34,38.41,10.66,57.55,5.16a83,83,0,0,0,15.43-6.1,5,5,0,0,0,1.79-6.83,5.1,5.1,0,0,0-6.83-1.79c-1.3.68-2.63,1.31-4,1.9l-.69.29c-.2.09,1.21-.49.25-.11l-1.85.74c-1.38.53-2.77,1-4.18,1.47a82.46,82.46,0,0,1-10.26,2.61c-1,.18-1.92.35-2.88.49-.44.07-1.48.18-.46.07l-1.83.21c-2.19.23-4.4.36-6.6.39s-4.52,0-6.77-.22c-.62-.05-1.24-.1-1.85-.17l-.94-.11s-.83-.1-.28,0-.39-.06-.52-.08l-1-.15-1.91-.35a69.85,69.85,0,0,1-7.56-2,54.42,54.42,0,0,1-6.77-2.63,68,68,0,0,1-11.49-6.83c-.25-.18-1.48-1.13-.61-.44l-1.09-.87c-.81-.66-1.59-1.33-2.37-2q-2.12-1.89-4.09-3.93c-1.3-1.35-2.55-2.76-3.75-4.21-.26-.31-.52-.63-.77-.95l-.37-.47c-.55-.69.51.68.15.2-.47-.63-.95-1.26-1.4-1.9a70.64,70.64,0,0,1-4-6.25,5,5,0,0,0-8.62,5Z"/><path class="cls-3-red-level-four" d="M849.25,372A253.4,253.4,0,0,0,754,334.6a250.1,250.1,0,0,0-47.77-3.53c1.63,42.78-12.29,77.88-26.47,103.81A219.65,219.65,0,0,1,849.25,372Z"/><path class="cls-3-red-level-four" d="M420.89,562.28q36.11,3,71.36,6.36A324.37,324.37,0,0,0,313.77,763.39a554.62,554.62,0,0,1,26.56-207.11Q380.11,558.93,420.89,562.28Z"/><path class="cls-3-red-level-four" d="M998,502.25a276,276,0,0,1-70.75,240.62c2.74-1,7.33-2.63,12.8-5.12,58.83-26.86,71.82-80.69,105.28-115,19.53-20,55.24-42.86,125.79-45.48a201.18,201.18,0,0,0-63-52.37C1061.49,500.22,1017.5,500.8,998,502.25Z"/><path class="cls-8-red-level-four" d="M937.81,1129.55c-33.27,14.07-49.56,47.86-55.27,59.69a141.16,141.16,0,0,0-7.78,19.86c-5.11,16.63,10.52,32.27,27.21,27.35a454.72,454.72,0,0,0,127.37-60.3,22,22,0,0,0-1.56-37.27C998.17,1122.19,965.15,1118,937.81,1129.55Z"/><path class="cls-3-red-level-four" d="M673.8,232.6c-50.86-72.33-155.08-96.45-239.23-76.92C358.18,173.42,276.88,232.1,253.31,327.4c-19.55,79.07.8,182.74,79.82,234.77C434,628.58,554.71,561,569.42,552.7c53.79-30.13,82.2-72.76,93.05-89.44,5-7.66,11.15-17.17,17.28-28.38,14.18-25.93,28.1-61,26.47-103.81-.1-2.81-.25-5.63-.5-8.5C704.33,306.24,698.89,268.28,673.8,232.6Z"/><path class="cls-3-red-level-four" d="M662.6,223.48c-21.2-35-88.93-100.14-196.55-157.28-31.42,11.24-90.33,37.14-142.56,94.54-22.6,24.84-69.23,77.44-81.37,157.54-2.18,14.37-22.48,167.43,79.82,234.77,100.87,66.41,221.58-1.22,236.29-9.46,53.78-30.14,82.2-72.77,93-89.45,5-7.66,11.16-17.16,17.29-28.37,14.17-25.93,28.09-61,26.47-103.82-.11-2.8-.26-5.63-.5-8.5C694.53,313.45,690.94,270.33,662.6,223.48Z"/><path class="cls-4-red-level-four" d="M681.1,200.46c-21.2-35.05-88.92-100.15-196.55-157.28C453.14,54.42,394.23,80.32,342,137.72c-22.6,24.84-69.23,77.44-81.37,157.54-2.18,14.37-22.47,167.42,79.82,234.77,100.87,66.41,221.58-1.22,236.29-9.46,53.78-30.14,82.2-72.77,93-89.45,5-7.66,11.15-17.17,17.28-28.38,14.18-25.93,28.09-61,26.47-103.81-.11-2.81-.25-5.63-.5-8.5C713,290.43,709.45,247.3,681.1,200.46Z"/><path class="cls-8-red-level-four" d="M582.27,476.59c-32,31.23-92.82,61.48-152.44,35.17-55.28-24.4-81.3-84.95-76.3-138.5,5.62-60.19,50-106.77,102.23-122.67,53.73-16.34,123.91-2.69,158,50.85C651.67,361.05,623.42,436.47,582.27,476.59Z"/><path class="cls-14-red-level-four" d="M781.09,1045c-7.59-4.15-12.46-6.92-13.21-11.7-1.39-8.93,12.06-20.87,25.81-21,10.55-.08,17.62,6.9,18.88,8.18,9.21,9.39,12.31,26.15,6,32.57C810.62,1061.14,790.34,1050,781.09,1045Z"/><path class="cls-15-red-level-four" d="M255.9,930.76c-4.22,7.37-22,36-56.65,43.59-38.76,8.43-87.38-12-102.59-57.08-14.76-43.76,9-89.77,47.83-107.94,41.42-19.4,92.51-3.6,114,33.07C282.28,883,257.52,927.92,255.9,930.76Z"/><path class="cls-16-red-level-four" d="M252.86,910.25c-3.76,6.25-19.58,30.56-49.51,36.37-33.46,6.5-74.85-12-87-51-11.85-37.88,9.48-77,43.17-91.83,36-15.88,79.56-1.31,97.33,30.61C276.46,869.68,254.32,907.84,252.86,910.25Z"/><path class="cls-4-red-level-four" d="M889.39,1254.26a115.6,115.6,0,0,0-3.42,12.31,122.81,122.81,0,0,0,4.23,66c6.9,1.42,14.35,3,22.39,4.77,33,7.28,42.8,10.52,58.62,6.14,1.79-.49,41.55-12.18,51.57-48.42a73.61,73.61,0,0,0,2-19.72C987.6,1245.31,934,1237,889.39,1254.26Z"/><path class="cls-17-red-level-four" d="M1143.05,1247.71a27.39,27.39,0,0,0-13.86-10.59,248.56,248.56,0,0,0-37.6,7.62c-3.61,1-7.73,2.32-11.43,6a24.43,24.43,0,0,0-6.78,13.82l70.45-15.56Q1143.46,1248.32,1143.05,1247.71Z"/><path class="cls-18-red-level-four" d="M1091.21,1289.73c5.43.83,11-.46,16.31-1.73,6.78-1.61,11.51-2.12,17.42-4.14,11.48-3.93,17.23-5.89,20.42-11.24,4.36-7.31,2.31-17.06-1.53-23.65l-70.45,15.56a22.81,22.81,0,0,0,.64,9.41C1076.46,1282.52,1084.11,1288.65,1091.21,1289.73Z"/><path class="cls-15-red-level-four" d="M1404.59,1222.08c4.9,6.72,30.22,42.86,20.11,86.88-14.6,63.48-87.22,80.61-91,81.44-48.32,10.54-87.73-13.69-115.25-30.61-35.25-21.66-59-51.21-69.24-64.07a309.89,309.89,0,0,1-22-31.55c8.69-33.55,26.12-78,62.31-118.66,20.8-23.33,43.65-49,82.16-58.71,8.72-2.2,77.88-18.43,117.54,30C1424.08,1159.27,1406.19,1217.19,1404.59,1222.08Z"/><path class="cls-19-red-level-four" d="M1415.57,1215.78c4.9,6.72,30.22,42.87,20.1,86.88-14.59,63.48-87.22,80.61-91,81.44-48.32,10.54-87.73-13.69-115.25-30.61-35.25-21.66-59-51.21-69.24-64.07a308.28,308.28,0,0,1-22-31.55c8.69-33.55,26.11-78,62.31-118.66,20.79-23.33,43.65-49,82.15-58.71,8.73-2.2,77.89-18.43,117.55,30C1435.06,1153,1417.16,1210.89,1415.57,1215.78Z"/><path class="cls-20-red-level-four" d="M1398.66,1217.73c4.09,5.61,25.25,35.82,16.8,72.59-12.19,53-72.88,67.36-76,68-40.37,8.81-73.3-11.43-96.3-25.57-29.45-18.1-49.33-42.79-57.84-53.53a256.76,256.76,0,0,1-18.35-26.36c7.25-28,21.81-65.21,52.06-99.15,17.37-19.49,36.47-40.92,68.64-49,7.29-1.84,65.07-15.4,98.21,25C1414.94,1165.25,1400,1213.65,1398.66,1217.73Z"/><path class="cls-21-red-level-four" d="M1385.13,1221c3.88,5.32,23.92,33.92,15.92,68.74-11.54,50.21-69,63.76-72,64.41-38.23,8.33-69.42-10.84-91.19-24.23-27.9-17.14-46.73-40.52-54.79-50.69a244.24,244.24,0,0,1-17.38-25c6.86-26.55,20.65-61.74,49.28-93.86,16.45-18.46,34.53-38.74,65-46.43,6.9-1.75,61.62-14.58,93,23.72C1400.54,1171.29,1386.39,1217.11,1385.13,1221Z"/><path class="cls-22-red-level-four" d="M1066.42,1234.34q-48.4,9.11-98.82,20-43.54,9.42-85.2,19.51a43.84,43.84,0,0,0-13,23.4,41.1,41.1,0,0,0-.62,5.8l216.37-46.18C1080.25,1243,1069.19,1236,1066.42,1234.34Z"/><path class="cls-23-red-level-four" d="M888.4,1340.78c12,7.15,24.61,4,41.73.52,36.46-7.3,115.82-19.84,146.73-33.35,3.23-1.41,12.22-5.58,14.48-13.22a12.53,12.53,0,0,0-.17-8,8.43,8.43,0,0,0-5.25-5.31,42.56,42.56,0,0,0,.14-21.49c-.28-1.07-.6-2.1-1-3.1l-216.37,46.18C868.12,1319.13,877.07,1334,888.4,1340.78Z"/><path class="cls-12-red-level-four" d="M1362.18,1208.75c2.36-17.65-1.33-50.1-27.8-63.58-21.51-10.94-49.74-5.14-67.83,15,6.07-.92,32.65-4.26,58.27,13.18s32.35,43.45,33.74,49.45A61.55,61.55,0,0,0,1362.18,1208.75Z"/><path class="cls-4-red-level-four" d="M1020.27,1343.66c-10.87,14.39-27.95,16.42-40.11,17.87-12.48,1.48-28.69,3.06-41.89-7.67s-17.35-30.47-11.45-46.42c8.79-23.81,32.67-31.21,37-32.41,1.93-.53,39.37-10.31,57.44,15.78C1032.27,1306.76,1031.25,1329.13,1020.27,1343.66Z"/></svg>
