<svg id="레이어_1" data-name="레이어 1" xmlns="http://www.w3.org/2000/svg" xmlns:xlink="http://www.w3.org/1999/xlink" viewBox="0 0 1654.74 1963.07">
<defs>
<style>
.cls-1-red-level-five{fill:url(#red-level-five-gradient-266);}
.cls-2-red-level-five{fill:url(#red-level-five-gradient-266-2);}
.cls-3-red-level-five{fill:#d11022;}
.cls-4-red-level-five{fill:#bcbdf3;}
.cls-5-red-level-five{fill:#fd0300;}
.cls-6-red-level-five{fill:#da1a0e;}
.cls-7-red-level-five{fill:#af1d26;}
.cls-8-red-level-five{fill:#87ff7b;}
.cls-9-red-level-five{fill:#00f082;}
.cls-10-red-level-five{fill:#663606;}
.cls-11-red-level-five{fill:#625300;}
.cls-12-red-level-five{fill:#528c00;}
.cls-13-red-level-five{fill:#7c0d17;}
.cls-14-red-level-five{fill:#c9354e;}
.cls-15-red-level-five{fill:#ffc2ff;}
.cls-16-red-level-five{fill:#070707;}
.cls-17-red-level-five{fill:#ff8033;}
.cls-18-red-level-five{fill:#fdd301;}
.cls-19-red-level-five,.cls-20-red-level-five,.cls-21-red-level-five,.cls-22-red-level-five,.cls-29-red-level-five{fill:#fff;}
.cls-20-red-level-five{opacity:0.6;}
.cls-21-red-level-five,.cls-26-red-level-five{opacity:0.2;}
.cls-22-red-level-five,.cls-39{opacity:0.8;}
.cls-23-red-level-five{fill:#fc4401;}
.cls-24-red-level-five{fill:#ea001e;}
.cls-25-red-level-five,.cls-29-red-level-five{opacity:0.3;}
.cls-27-red-level-five{opacity:0.15;}
.cls-28-red-level-five{fill:#e72500;}
.cls-30-red-level-five{opacity:0.1;}
.cls-31-red-level-five{fill:#ff5f54;}
.cls-32-red-level-five{fill:#ffa49c;}
.cls-33-red-level-five{fill:#6c6565;}
.cls-34-red-level-five{fill:#a9a9a9;}
.cls-35-red-level-five{fill:#ff5557;}
.cls-36-red-level-five{fill:#ff9d93;}
.cls-37-red-level-five{fill:#ff5757;}
.cls-38-red-level-five{fill:#caefff;}
</style><radialGradient id="red-level-five-gradient-266" cx="1320.76" cy="387.25" fx="1333.2439063778056" fy="358.2447789406562" r="99.97" gradientTransform="translate(-37.7 1245.69) scale(1.03 0.88)" gradientUnits="userSpaceOnUse"><stop offset="0.39" stop-color="#ff3059"/><stop offset="0.85" stop-color="#ff7281"/></radialGradient><radialGradient id="red-level-five-gradient-266-2" cx="1433.89" cy="1506.02" fx="1433.8922652790443" fy="1506.0152467073167" r="66.09" gradientTransform="matrix(1, 0, 0, 1, 0, 0)" xlink:href="#red-level-five-gradient-266"/></defs><path class="cls-1-red-level-five" d="M1230.92,1573.81c.92-6.83,7.22-54.11,55-72.47,50.33-19.33,98.27,11.94,101.26,14.06,27.62,19.62,42.06,51.38,39.32,82-.74,8.24-4.53,47.52-45,69.57-28.42,15.47-63.64,16.31-91.36,5.91C1243.43,1655.33,1226.23,1609,1230.92,1573.81Z"/><path class="cls-2-red-level-five" d="M1404.61,1565.31a68.33,68.33,0,0,1-34.72-55c-1.75-30.48,18.33-66.27,53.86-71.61,34.75-5.22,65.14,21.57,72.48,52.44,8.32,35-13.81,71.63-44.11,80.72C1430.68,1578.24,1411.31,1569,1404.61,1565.31Z"/><path class="cls-3-red-level-five" d="M1249.15,1502c72.89,61.08,48.88,223.26-32.56,314.61-12.34,13.84-99.81,108.79-215.1,83.4-79.29-17.47-144.42-92.06-143.87-173.25.37-53.73,24.74-93.65,41.19-118.23,51.7-77.28,129.57-103,155.58-111.2C1094.56,1484.64,1192,1454,1249.15,1502Z"/><path class="cls-4-red-level-five" d="M1109.71,1775.48c-108.76,44.6-216,24.63-294.62,9.39-119.32-23.12-222-38.81-255.31-110.69-16.54-35.69-23.74-101.26-24.26-106.12-.9-8.54-.94-11.23-1.19-84.45-.29-85.63.74-129.72,25.93-159a67.94,67.94,0,0,1,6.84-6.8c21.24-18.49,44.21-19.74,79.48-24.06,110-13.45,131.82-34,177.32-44,9.23-2,29-5.24,58.8-5.86,66.34-1.38,141.48-2.86,202.61,22.16,123.27,50.45,206.08,215.55,176.94,339.47-13.21,56.19-48,98-49.82,100.07C1204.84,1714.52,1174.33,1749,1109.71,1775.48Z"/><path class="cls-5-red-level-five" d="M691.86,1911.27c34.38-11.1,69.7-29.86,84.1-63,9.13-21,8.48-44.86,6.71-67.71A826.65,826.65,0,0,0,755,1623.3a405.69,405.69,0,0,0-209.11,52.19c-7.34,47.9-3.61,92,2,124.9a91.43,91.43,0,0,0-24.78,32c-13.22,29.07-8.77,63.79,7.56,87.08a75.14,75.14,0,0,0,5.82,7.28A372.94,372.94,0,0,0,691.86,1911.27Z"/><path class="cls-6-red-level-five" d="M755,1623.3a829.83,829.83,0,0,0-59.67-153.84c-54.55,3-87,56.16-108.42,91.59-23.1,38.21-35.35,77.47-41,114.44A405.69,405.69,0,0,1,755,1623.3Z"/><path class="cls-3-red-level-five" d="M839.59,1645.89c-21.51-15.87-51.24-21.27-78.77-22.41-1.94-.08-3.89-.13-5.83-.18a826.65,826.65,0,0,1,27.68,157.27c1.77,22.85,2.42,46.69-6.71,67.71-14.4,33.13-49.72,51.89-84.1,63a372.94,372.94,0,0,1-155.43,15.46c40.69,45,129.93,36.56,156.17,34.09,31.73-3,88.34-8.31,127.49-46.49,35.49-34.6,31.08-107.54,20.83-252C840.51,1656.55,840.06,1651.1,839.59,1645.89Z"/><path class="cls-7-red-level-five" d="M760.82,1623.48c27.53,1.14,57.26,6.54,78.77,22.41-5-54.87-14-79.68-30.79-108.62-22.28-38.4-66.25-70.32-113.35-67.82h-.13A829.83,829.83,0,0,1,755,1623.3C756.93,1623.35,758.88,1623.4,760.82,1623.48Z"/><path class="cls-8-red-level-five" d="M532.26,104.57a143.43,143.43,0,0,0,86.1,119.09,86.59,86.59,0,0,0-8.64-39.57,91.07,91.07,0,0,0-25.48-31.48c-13.24-10.76-19-9.67-30.68-19.59A83.14,83.14,0,0,1,532.26,104.57Z"/><path class="cls-8-red-level-five" d="M609.67,313.91c-1.54-14.32-8.81-65.61-52.47-106.5-31.89-29.88-67.08-39.1-82.9-42.23a123.62,123.62,0,0,1,23.5,21.5c10.68,12.71,14.91,23.6,24.84,46.9C537,267.12,544.18,284,548,288.38,557.52,299.27,574.93,311.23,609.67,313.91Z"/><path class="cls-8-red-level-five" d="M501.37,310a188.1,188.1,0,0,1,39,30.85c16.31,16.89,21.31,28.55,34.24,31.5,8.24,1.88,20.78.47,39.11-15.08a76.71,76.71,0,0,1-31.1-12c-12.83-8.7-16-17.05-24.47-24.27C548.9,313.08,532.5,305.88,501.37,310Z"/><path class="cls-8-red-level-five" d="M620,422.15c-16.9-3.51-24.89-14.2-35.25-20.84s-27.47-12.14-57.56-5.44a103.09,103.09,0,0,0,31.25,41.31c12.31,9.61,28,21.89,47.16,17.95,23.17-4.77,33.58-29.65,34.84-32.78A54,54,0,0,1,620,422.15Z"/><path class="cls-8-red-level-five" d="M621,153c-3.88-2.49-29.67-19.63-34.27-52.8-5.57-40.1,25-66.58,27-68.23-1.92,34.29,4.87,56.1,12,70,3.08,6,10.14,18.27,7,32.06C630.6,142.85,625.19,149.14,621,153Z"/><path class="cls-9-red-level-five" d="M689.86,360.61c25,61.18,75.84,111.57,137.26,137.21l2.32-1c-13.41-12.37-31.79-32.7-42.83-62-16.43-43.59-2.78-70.32-8.11-113.82-6.61-54-34.89-72-65.86-126.76C689.67,153.66,664.42,91.42,659.39,0c-.77,1.22-1.5,2.43-2.26,3.65q3.15,92.34,6.28,184.68C665.39,246.66,667.67,306.41,689.86,360.61Z"/><path class="cls-8-red-level-five" d="M689.86,360.61c-22.19-54.2-24.47-114-26.45-172.28Q660.28,96,657.13,3.65c-58.6,94.51-78.88,178.81-86.88,230.87-14.41,93.72,2.29,138.7,7.15,150.84,7.49,18.7,32.49,81.18,101.32,111.58,68.18,30.11,131.62,7.67,148.4.88C765.7,472.18,714.91,421.79,689.86,360.61Z"/><path class="cls-9-red-level-five" d="M651,115.29A55.35,55.35,0,0,1,620.89,146a85.2,85.2,0,0,1,31.28,25.58Z"/><path class="cls-9-red-level-five" d="M649.37,185.68a55.35,55.35,0,0,1-30.15,30.67,85.2,85.2,0,0,1,31.28,25.58Z"/><path class="cls-9-red-level-five" d="M647.13,255.83a55.38,55.38,0,0,1-25.58,34.57,85.45,85.45,0,0,1,34.54,21Z"/><path class="cls-9-red-level-five" d="M659.66,327.16a55.31,55.31,0,0,1-21.42,37.29A85.2,85.2,0,0,1,675,381.31Z"/><path class="cls-9-red-level-five" d="M678.27,394.4a55.37,55.37,0,0,1-10.38,41.73,85.43,85.43,0,0,1,39.93,6.15Z"/><path class="cls-9-red-level-five" d="M716.19,448.65a55.33,55.33,0,0,1,6.46,42.52,85.57,85.57,0,0,1,39.23-9.68Z"/><path class="cls-10-red-level-five" d="M872.86,384.72c38.11-51.19,93.21-89.4,154.32-107.67L969.5,229.44c-24,11.91-103.65,55.1-148.08,152-38.06,83-28.77,158.49-23.85,186.74l16.48,1C812.72,503.5,833.61,437.45,872.86,384.72Z"/><path class="cls-11-red-level-five" d="M1027.18,277.05C966.07,295.32,911,333.53,872.86,384.72c-39.25,52.73-60.14,118.78-58.81,184.47l2.28.14C825.47,536,857.64,436,955.89,369A337.19,337.19,0,0,1,1076.75,318Z"/><path class="cls-12-red-level-five" d="M969.5,229.44c-4.18,5.47-3.11,12.52-2,19.65,7.47,49.21,76,66,90.87,69.62,5.76,1.41,12.51,2.66,18.41-.75,12.64-7.31,14.43-32,9-47.91C1070.68,225.67,985.82,208.13,969.5,229.44Z"/><path class="cls-8-red-level-five" d="M977.74,221.2c-4.19,5.47-3.12,12.52-2,19.65,7.47,49.22,76,66,90.86,69.62,5.77,1.41,12.51,2.66,18.41-.75,12.65-7.3,14.43-32,9-47.91C1078.91,217.43,994.05,199.89,977.74,221.2Z"/><path class="cls-11-red-level-five" d="M972.37,273.22a33.23,33.23,0,0,0,3.5,6.53,33.67,33.67,0,0,0,6.78,7.22,157.71,157.71,0,0,0-57.51,35.39l-1.33-1.49-1.33-1.49Z"/><path class="cls-3-red-level-five" d="M1359.94,883.08c-30,139.69-104.12,229-159.75,290.19-122.85,135-266.87,197.15-364.5,226.68l0,1.17-2.19-.53-2.15.65,0-1.18c-99.08-24.27-246.21-78.62-376.09-206.87-58.83-58.09-137.65-143.35-175-281.24-6.29-23.19-15.53-61.48-18.24-107.6-4.21,68.73,9.73,127.76,18.24,159.16,37.38,137.88,116.2,223.15,175,281.23,129.88,128.26,277,182.61,376.09,206.88l0,1.17,2.15-.64,2.19.53,0-1.18c97.63-29.53,241.65-91.66,364.5-226.68,55.63-61.14,129.78-150.5,159.75-290.19,6-28.07,15.11-77.89,11.74-136.25A546.33,546.33,0,0,1,1359.94,883.08Z"/><path class="cls-5-red-level-five" d="M1307.59,594.29c-94.17-132.24-246.67-143.88-278-145.44C922.62,443.55,842.45,487,808.7,508.22,773.86,488.84,691.48,449.73,585,460.74c-31.24,3.23-182.91,23-269.88,160.08-47.89,75.49-56.91,155.42-53.12,220q.54-8.76,1.49-17.71A540.45,540.45,0,0,0,280.23,912c37.38,137.89,116.2,223.15,175,281.24,129.88,128.25,277,182.6,376.09,206.87l0,1.18,2.15-.65,2.19.53,0-1.17c97.63-29.53,241.65-91.67,364.5-226.68,55.63-61.15,129.78-150.5,159.75-290.19a563.72,563.72,0,0,0,10.33-66q.9,9,1.41,17.72C1375.47,766.56,1366,676.28,1307.59,594.29Z"/><path class="cls-13-red-level-five" d="M854.58,1236.43a86.61,86.61,0,0,1,82.79-54.85c1.26-8.48,2.46-17.73,3.79-28a465.45,465.45,0,0,0,3.72-46.74,4.31,4.31,0,0,0-7.85-2.58c-10.48,14.63-27,23.46-44.26,23-26.53-.72-41.55-23.12-42.89-25.2l-.08.1-.08-.1c-1.34,2.08-16.35,24.48-42.89,25.2-17.23.46-33.78-8.37-44.25-23a4.31,4.31,0,0,0-7.85,2.58,465.15,465.15,0,0,0,3.71,46.74c6.21,47.6,9.63,74.43,29.07,98A88.39,88.39,0,0,1,854.58,1236.43Z"/><path class="cls-14-red-level-five" d="M893.36,1192.31a87.52,87.52,0,0,0-38.78,44.12,88.39,88.39,0,0,0-67.07,15.22c.31.37.61.75.93,1.12,3.7,4.35,27.73,32.62,60.81,36.52a5.15,5.15,0,0,0,1.11,0c33.08-3.9,57.11-32.17,60.81-36.52,16-18.82,21.49-39.55,26.2-71.19A87.63,87.63,0,0,0,893.36,1192.31Z"/><path class="cls-3-red-level-five" d="M822.24,529.6A154.19,154.19,0,0,1,865.31,572c5.52,8.19,18.28,28.86,25,65.82C901,697.28,886.61,746.85,887.72,747c2.21.35,1.57-72.75,42.56-142.14,32.59-55.19,76-82.19,85.11-87.67a241.84,241.84,0,0,1,112.35-34,374.09,374.09,0,0,0-305.5,46.43Z"/><path class="cls-3-red-level-five" d="M348.11,1107.6c-8.51-12.52-145.72-221.74-38.34-429,12.42-24,33.12-62.85,72.15-100.49A360.76,360.76,0,0,1,449.33,528C536,478.39,629.82,479,671.81,481.75A529.6,529.6,0,0,0,518,571.4c-14,11.77-98.2,83.69-140.64,184.68-88.44,210.47,52.19,433.54,66.4,455.36C417.84,1190.16,381,1155.92,348.11,1107.6Z"/><path class="cls-15-red-level-five" d="M924,1120.38h0a1.36,1.36,0,0,0-2-1.67,50.81,50.81,0,0,1-29.28,8.59c-1.14,0-2.26-.11-3.36-.22A1.38,1.38,0,0,0,888,1129l5.19,12,7.88,18.19a3.35,3.35,0,0,0,6.16,0"/><path class="cls-15-red-level-five" d="M808.35,1239.32l1.94-7.53a10.71,10.71,0,0,0-14.86-12.39l-7,3.27-6.85,3.17a8.22,8.22,0,0,0-3.81,11.33,90.1,90.1,0,0,0,10.72,15.6,124.72,124.72,0,0,0,13,13.16,1.89,1.89,0,0,0,.21-.53Z"/><path class="cls-15-red-level-five" d="M905.07,1219.4a10.71,10.71,0,0,0-14.86,12.39l1.94,7.53,3.13,12.1a8.23,8.23,0,0,0,14.13,3.38c.79-.89,1.38-1.59,1.76-2a90.77,90.77,0,0,0,10.9-16,8.21,8.21,0,0,0-3.82-11.31l-6.12-2.84Z"/><path class="cls-15-red-level-five" d="M775.57,1120.38,784.5,1141l1.68,3.89a10.11,10.11,0,0,0,18.55,0l1.68-3.89,5.2-12a1.38,1.38,0,0,0-1.42-1.92c-1.09.11-2.21.19-3.36.22a50.81,50.81,0,0,1-29.28-8.59,1.35,1.35,0,0,0-2,1.67Z"/><path class="cls-16-red-level-five" d="M847.08,1076.15l-.73,28.49c-.1,3.86,5.9,3.86,6,0l.73-28.49c.09-3.86-5.91-3.86-6,0Z"/><path class="cls-16-red-level-five" d="M749.21,1096.09a65.2,65.2,0,0,0,35.06,29.49c15.26,5.48,32,4.3,46.76-2.13a62.68,62.68,0,0,0,21.54-15.55c1.56-1.76,1.86-4.66,0-6.37s-4.69-1.87-6.37,0c-1.21,1.35-2.47,2.65-3.8,3.89-.66.61-1.34,1.21-2,1.8-.34.29-.69.58-1,.86l-.45.37c-.66.52.26-.18-.17.12a68.45,68.45,0,0,1-9.23,5.71c-.81.41-1.63.8-2.45,1.17-.21.09-1.4.58-.53.23l-1.45.58q-2.53,1-5.15,1.72t-5.29,1.26c-.89.17-1.79.3-2.68.45.8-.14,0,0-.34,0l-1.55.16a58.17,58.17,0,0,1-11-.05l-1.33-.16c.82.1.09,0-.29,0-.93-.15-1.85-.31-2.77-.5q-2.57-.54-5.09-1.29c-1.74-.53-3.44-1.15-5.13-1.82-.81-.32.5.23-.3-.12l-1.2-.54c-.86-.4-1.7-.81-2.53-1.24a66.77,66.77,0,0,1-8.88-5.62c.77.57-.37-.29-.57-.45l-1.15-1c-.76-.65-1.51-1.32-2.24-2a58.62,58.62,0,0,1-4.16-4.33c-.66-.75-1.29-1.53-1.91-2.31.53.67-.15-.2-.32-.43l-.88-1.22a56.85,56.85,0,0,1-3.26-5.26,4.5,4.5,0,1,0-7.77,4.54Z"/><path class="cls-16-red-level-five" d="M845.62,1076.15l.72,28.49a4.5,4.5,0,0,0,9,0l-.72-28.49a4.5,4.5,0,0,0-9,0Z"/><path class="cls-16-red-level-five" d="M943.22,1091.55q-1.28,2.29-2.74,4.49c-.49.72-1,1.44-1.51,2.14l-.34.45c-.4.54.44-.54,0,0s-.62.78-.94,1.16a59.18,59.18,0,0,1-7.4,7.45l-1,.84c-.15.12-1.11.87-.73.58l-.74.55-1.22.87c-1.44,1-2.93,1.94-4.45,2.81s-3.07,1.68-4.66,2.42l-1.2.54-.52.22c.16-.06.83-.33,0,0s-1.63.64-2.46.94a58.3,58.3,0,0,1-10.34,2.64c-.25,0-1.54.2-.48.07l-1.13.14c-1,.1-1.93.18-2.9.23-1.81.09-3.63.1-5.43,0-.91,0-1.81-.1-2.71-.18-.46,0-.91-.08-1.36-.13-.27,0-1.73-.25-.72-.08-1.8-.29-3.57-.6-5.34-1s-3.51-.92-5.23-1.49c-.86-.29-1.71-.6-2.56-.92l-1.08-.43c-.8-.32-.16-.06,0,0l-.72-.31a61.4,61.4,0,0,1-10.77-6.15l-1.24-.93s.54.43.14.12l-.76-.61c-.75-.61-1.49-1.24-2.21-1.89a57,57,0,0,1-4.52-4.54,4.53,4.53,0,0,0-6.36,0,4.61,4.61,0,0,0,0,6.37,65.17,65.17,0,0,0,42.34,21,62.89,62.89,0,0,0,43.59-12.81,64.48,64.48,0,0,0,17.43-20,4.5,4.5,0,1,0-7.77-4.54Z"/><path class="cls-17-red-level-five" d="M850.15,1077.71c24.21.51,28.51,1,31.29-2.38,4.85-5.9.43-17.93-6.78-24.68-12.43-11.64-36.58-10.82-48.9.44-6.59,6-11.89,17-7.63,22.87C820.71,1077.53,825.29,1077.19,850.15,1077.71Z"/><path class="cls-18-red-level-five" d="M849.94,1067.62c17.11.36,20.15.72,22.11-1.68,3.43-4.17.3-12.67-4.79-17.44-8.78-8.22-25.85-7.64-34.55.31-4.66,4.26-8.4,12-5.39,16.16C829.14,1067.5,832.38,1067.25,849.94,1067.62Z"/><circle class="cls-19-red-level-five" cx="625.57" cy="994.86" r="81.59"/><circle class="cls-16-red-level-five" cx="629.97" cy="1002.76" r="64.53"/><circle class="cls-20-red-level-five" cx="649.58" cy="951.83" r="14.52"/><circle class="cls-21-red-level-five" cx="590.88" cy="1017.85" r="10.16"/><circle class="cls-19-red-level-five" cx="597.75" cy="971.47" r="27.55"/><circle class="cls-20-red-level-five" cx="590.88" cy="1017.85" r="4.81"/><circle class="cls-22-red-level-five" cx="649.58" cy="951.83" r="4.81"/><circle class="cls-22-red-level-five" cx="654.78" cy="966.35" r="7.8"/><circle class="cls-21-red-level-five" cx="623.36" cy="983.25" r="17.82"/><circle class="cls-21-red-level-five" cx="646.98" cy="1044.34" r="21.68"/><circle class="cls-21-red-level-five" cx="640.01" cy="1059.58" r="10.04"/><circle class="cls-23-red-level-five" cx="1109.83" cy="1139.85" r="50.38"/><circle class="cls-23-red-level-five" cx="570.2" cy="1149.76" r="50.38"/><circle class="cls-23-red-level-five" cx="541.99" cy="1170.02" r="86.52"/><circle class="cls-19-red-level-five" cx="597.75" cy="1022.66" r="115.93"/><circle class="cls-16-red-level-five" cx="591.5" cy="1033.88" r="91.7"/><circle class="cls-20-red-level-five" cx="563.63" cy="961.5" r="20.63"/><circle class="cls-21-red-level-five" cx="647.05" cy="1055.33" r="14.43"/><circle class="cls-19-red-level-five" cx="637.28" cy="989.42" r="39.15"/><circle class="cls-20-red-level-five" cx="647.05" cy="1055.33" r="6.83"/><circle class="cls-22-red-level-five" cx="563.63" cy="961.5" r="6.83"/><circle class="cls-22-red-level-five" cx="556.24" cy="982.14" r="11.08"/><circle class="cls-21-red-level-five" cx="600.89" cy="1006.15" r="25.32"/><circle class="cls-21-red-level-five" cx="567.33" cy="1092.96" r="30.8"/><circle class="cls-21-red-level-five" cx="577.23" cy="1114.62" r="14.27"/><path class="cls-5-red-level-five" d="M575.89,1533.08c31.72,15.05,69.56,19.05,102.23,6.2s58.7-44,61-79c1.15-17.34-4.3-35-14.27-49.17-17.9-10.89-34.38-15.08-60.36-30.27-69.49-40.63-77.5-84.31-108.4-79.1-27.44,4.62-42,42.73-48.45,58.43-18.54,45.15-6.46,87-1.51,103.28q1.44,4.72,3.18,9.45C525.3,1498.68,548.47,1520.07,575.89,1533.08Z"/><path class="cls-24-red-level-five" d="M786.36,1487.18c-5.42-27.13-22.59-43.64-37.38-57.48a145.6,145.6,0,0,0-24.12-18.59c10,14.2,15.42,31.83,14.27,49.17-2.31,35-28.33,66.15-61,79s-70.51,8.85-102.23-6.2c-27.42-13-50.59-34.4-66.57-60.18,22.45,61.16,81.4,120.07,153.82,124.51,9.45.58,77.44,4.75,109.28-41.87C793.34,1524.91,786.85,1489.66,786.36,1487.18Z"/><g class="cls-25-red-level-five"><path class="cls-16-red-level-five" d="M744.56,1510.21c-8.44,10.66-13,16.37-17.6,25.46a18.57,18.57,0,0,0-2,9.44c.21,3.24,1.84,6.55,4.74,8,3.13,1.55,7,.62,9.86-1.43s4.81-5,6.73-7.94l19.14-29.07a19.08,19.08,0,0,0,3.22-6.63,7.61,7.61,0,0,0-1.87-6.2,4.2,4.2,0,0,0-.37-.43c-2.24-2.32-7.44-2.3-10.58-1.49C751.83,1500.94,749.75,1503.65,744.56,1510.21Z"/></g><g class="cls-25-red-level-five"><path class="cls-16-red-level-five" d="M704.38,1553.93c-12.62,5-19.45,7.71-27.93,13.33a18.51,18.51,0,0,0-6.42,7.2c-1.43,2.91-1.66,6.59.14,9.29,1.93,2.9,5.79,4,9.26,3.67s6.67-2,9.79-3.54l31.07-15.69a19,19,0,0,0,6.09-4.14,7.6,7.6,0,0,0,1.47-6.31,5.44,5.44,0,0,0-.11-.55c-.78-3.14-5.3-5.71-8.43-6.57C715.3,1549.52,712.15,1550.83,704.38,1553.93Z"/></g><g class="cls-25-red-level-five"><path class="cls-16-red-level-five" d="M757.92,1453.08A110.62,110.62,0,0,0,757,1484a18.47,18.47,0,0,0,3.47,9c1.93,2.6,5.1,4.49,8.32,4.12,3.47-.4,6.24-3.31,7.5-6.56.82-2.13,1.58-4.4,1.32-10.33s-.73-17-6.58-26.29c-.69-1.11-1.86-2.83-3.21-4.61a74.43,74.43,0,0,0-6.87-7.91A112.56,112.56,0,0,0,757.92,1453.08Z"/></g><path class="cls-10-red-level-five" d="M743,1525.57l9.18-12.91a7.35,7.35,0,0,1,12.67,1.21l6.58,14.4,6.59,14.41a7.35,7.35,0,0,1-7.38,10.37l-15.77-1.51-15.77-1.5a7.34,7.34,0,0,1-5.29-11.57Z"/><path class="cls-10-red-level-five" d="M696.78,1565.83l14.52-6.33a7.35,7.35,0,0,1,10.24,7.55l-1.77,15.74L718,1598.53a7.34,7.34,0,0,1-11.66,5.09l-12.75-9.4-12.75-9.4a7.35,7.35,0,0,1,1.43-12.65Z"/><path class="cls-10-red-level-five" d="M765.16,1468.37l1.45-15.78a7.34,7.34,0,0,1,11.55-5.33l12.94,9.14,12.94,9.14a7.34,7.34,0,0,1-1.17,12.67l-14.38,6.64-14.38,6.63a7.34,7.34,0,0,1-10.39-7.34Z"/><path class="cls-19-red-level-five" d="M835,1051.2c-.07.11-1.57,2.56-.22,4.74s4.28,1.91,4.51,1.89c1.76-.21,4-1.46,4.35-3.8a4.6,4.6,0,0,0-2.84-4.82A4.88,4.88,0,0,0,835,1051.2Z"/><g class="cls-26-red-level-five"><path class="cls-19-red-level-five" d="M768,516c-12.46-6.33-53.72-27.27-87.43-14.26-3.64,1.4-23.67,9.56-23.88,22s19.08,21.6,23.73,22.73c12.43,3,25.71,2.19,38.41,4.28,26,4.26,47.41,20.63,60.73,40s19.58,41.46,24.73,63.39c6.21,26.47,18.65,28.26,23.43,28.48,11.41.53,22.55-16.57,27-27.93C872.82,608.86,826.4,545.62,768,516Z"/></g><g class="cls-25-red-level-five"><path class="cls-19-red-level-five" d="M839.22,698.92c-12.62.67-23.08,14.21-20.58,27.59,2.4,12.84,16.11,22.25,28.55,18.44s17.73-19.25,13.59-30.66C857.69,705.77,849,698.41,839.22,698.92Z"/></g><g class="cls-26-red-level-five"><path class="cls-19-red-level-five" d="M1216.54,538.49c-3.89-5.16-35.73-46.28-73.2-40.85-4.87.71-14.13,2.18-20.9,9.87-8.41,9.53-7.15,21.73-6.81,23.06,2.08,8.26,7.46,15.26,13,21.72A273.9,273.9,0,0,0,1164.41,587c7.08,5.71,14.64,11.16,23.36,13.7,2.92.85,15.25,3,25.83-4.2,13.39-9.12,14.9-27.4,12.59-38.75C1225.06,552.25,1222.68,546.63,1216.54,538.49Z"/></g><g class="cls-26-red-level-five"><path class="cls-19-red-level-five" d="M559.29,1322.73c-5.66,2.74-6.95,13.21-6.77,18.43.34,9.34,6.3,15.8,8.18,18.84a388.3,388.3,0,0,0,60.14,74.68c9.71,9.4,24.6,18.7,35.58,10.82,6.41-4.6,7.38-16.29,4.91-24.73-3.46-11.87-13.91-18.35-17.43-20.62C599.74,1371.69,574.23,1315.5,559.29,1322.73Z"/></g><g class="cls-26-red-level-five"><path class="cls-19-red-level-five" d="M669.92,1458.29c-2.08-7.2,1.72-15.29,8.32-19.1,6.26-3.62,14.68-3.19,19.73,1.52,7.68,7.18,5.87,22.7-3.68,27.8C685.67,1473.12,672.77,1468.14,669.92,1458.29Z"/></g><g class="cls-27-red-level-five"><path class="cls-19-red-level-five" d="M592.18,1602.8c-9.5-.68-20.3,41.89-24.49,63.45-1.69,8.7-6.86,37.46-5.54,80.71,1.55,50.54,10,58.41.91,79-9.61,21.69-24,24.43-25.76,44.48-1.54,17.07,6.77,38.22,20.18,41.21,13,2.91,26.2-12.3,30.63-17.4,15.43-17.76,20.8-39.12,23.75-90.23,2.34-40.66,2.19-83.38-4.19-138.18C603.62,1631.13,599.76,1603.34,592.18,1602.8Z"/></g><g class="cls-25-red-level-five"><path class="cls-19-red-level-five" d="M1357.13,1522.33c-13-13.34-36.94-12.13-52-4-4.64,2.5-10.84,6.54-12.68,13.57-1.61,6.17,2,13.86,8.36,14.75,7.1,1,9.87-5.93,20-7,14.38-1.58,21.06,13.64,33.54,10.29,4.27-1.14,8.61-4.29,10.12-8.6C1367.26,1533.22,1359,1524.19,1357.13,1522.33Z"/></g><g class="cls-25-red-level-five"><path class="cls-19-red-level-five" d="M1366,1553a11.27,11.27,0,0,0-4.82,5.51,12.1,12.1,0,0,0,19.72,13,12,12,0,0,0,.91-16C1377.57,1550.23,1370.33,1550.47,1366,1553Z"/></g><g class="cls-25-red-level-five"><path class="cls-19-red-level-five" d="M1444.8,1449.63c-4.09-1.36-7.24-2.41-11.35-1.85-2.15.3-9.06,1.65-11.93,7.52-2.16,4.41-.51,10.67,4.07,12.43,3.64,1.4,7.87-.22,11.58,1,5.16,1.68,7.47,8.09,12.48,10.17,4.62,1.92,11.39-2.42,13.23-7.63,2.41-6.82-4.29-13.41-6.15-15.24C1453,1452.37,1448.89,1451,1444.8,1449.63Z"/></g><g class="cls-25-red-level-five"><path class="cls-19-red-level-five" d="M1466.13,1480.28c-2.08,2.86-.79,7.15,1.83,9.33s7.2,2.71,9.65,0,1.5-7.51-1.28-9.87S1468.36,1477.22,1466.13,1480.28Z"/></g><path class="cls-3-red-level-five" d="M418.08,755.81c-21.15,87-103.76,168.07-206.56,166.63-103.66-1.45-171.34-86-196.34-150.2-30.32-77.86-7.25-150,1.05-174.69,20-59.39,55.16-97.79,75-116.5,27.37,38.74,54,51.24,73.41,55.42C213.31,547,248.83,512,315,529.33c7.32,1.91,18.52,4.85,30.53,11.38C407.29,574.3,437.84,674.51,418.08,755.81Z"/><path class="cls-5-red-level-five" d="M396.67,604.71c-20.35-40.92-56.85-76.18-101.83-84.22-22.26-4-45.15-1.19-67.71-2.68a121.21,121.21,0,0,1-22.83-3.6,91.27,91.27,0,0,1-22.08-2c-19.42-4.19-46-16.69-73.41-55.43-19.78,18.71-55,57.12-74.94,116.51C25.56,598.06,2.5,670.15,32.81,748c25,64.2,92.68,148.74,196.34,150.19,93.84,1.32,170.84-66.1,199.64-144q-.29-8.13-.9-16.79C424.29,686.67,418.31,648.23,396.67,604.71Z"/><path class="cls-3-red-level-five" d="M363.14,516.48c-12-6.53-23.21-9.46-30.54-11.38-55.79-14.6-89.79,8-128.3,9.11a121.21,121.21,0,0,0,22.83,3.6c22.56,1.49,45.45-1.3,67.71,2.68,45,8,81.48,43.3,101.83,84.22,21.64,43.52,27.62,82,31.22,132.67q.62,8.65.9,16.79a204.45,204.45,0,0,0,6.93-22.59C455.47,650.29,424.93,550.08,363.14,516.48Z"/><circle class="cls-28-red-level-five" cx="250.04" cy="731.63" r="137.94"/><circle class="cls-23-red-level-five" cx="265.41" cy="737.92" r="131.26"/><path class="cls-3-red-level-five" d="M86.48,347.22c-17.83.44-30.7,35.56-31.49,63.4a92.18,92.18,0,0,0,2.78,25.71c2.46,9.48,11.5,44.3,45.94,56.05,3.6,1.23,8.2,2.76,10.37,1.56,6.67-3.69-23.87-25.56-31.76-59.46-3-12.83-1.69-22.89-.52-31.84,2.79-21.52,11.35-38.47,18.37-49.57C94.23,348.12,89.64,347.14,86.48,347.22Z"/><path class="cls-5-red-level-five" d="M100.81,341.63c-17.84.44-30.7,35.55-31.5,63.4a91.66,91.66,0,0,0,2.79,25.71c2.46,9.48,11.49,44.3,45.93,56.05,3.61,1.23,8.21,2.76,10.37,1.56,6.67-3.69-23.87-25.57-31.76-59.46-3-12.83-1.68-22.89-.52-31.84,2.79-21.52,11.35-38.47,18.38-49.57C108.55,342.53,104,341.55,100.81,341.63Z"/><circle class="cls-3-red-level-five" cx="102.67" cy="299.03" r="76.92"/><circle class="cls-5-red-level-five" cx="99.38" cy="296.4" r="72.96"/><circle class="cls-19-red-level-five" cx="99.38" cy="315.52" r="46.54"/><circle class="cls-16-red-level-five" cx="117.77" cy="333.99" r="18.46"/><path class="cls-5-red-level-five" d="M167.93,309.74c-4.68,6.52-25.44-11.3-66.32-11.47-40.11-.17-60.48,16.81-65.08,10.25-6.59-9.39,23.45-60.82,65.28-60.94C144.35,247.45,174.61,300.43,167.93,309.74Z"/><path class="cls-3-red-level-five" d="M109.27,254.8a36.31,36.31,0,0,1,11.52,18.32,35.86,35.86,0,0,1,.37,16.12,39.5,39.5,0,0,1,25.23,9.87c-.21-5.92-1.53-18.82-10.51-30.34-3.28-4.2-9.15-11.73-19.09-13.66A25.33,25.33,0,0,0,109.27,254.8Z"/><path class="cls-3-red-level-five" d="M90,257.29a36.38,36.38,0,0,0-11.51,18.32,35.86,35.86,0,0,0-.37,16.12,39.5,39.5,0,0,0-25.23,9.87c.2-5.92,1.53-18.82,10.51-30.34,3.28-4.2,9.15-11.73,19.08-13.66A25.35,25.35,0,0,1,90,257.29Z"/><g class="cls-26-red-level-five"><path class="cls-19-red-level-five" d="M72.26,545.14c-15.45,1.54-24.57,55-25.84,62.53C34,680.25,48.62,755,71,776c2.77,2.59,10,9.33,16,5.76,6.4-3.78,9.06-15.07,8.11-24.77s-4.62-18.36-7.67-27.15c-14.22-41-15.64-90.39-3.81-132.84.67-2.41,4.82-10.68,5.35-22.44.18-4,.67-14.67-4.18-22.07C81.28,547,75.82,544.78,72.26,545.14Z"/></g><g class="cls-27-red-level-five"><path class="cls-19-red-level-five" d="M254.65,633c-1.43.71-5.94,3-8.63,7.18-4.67,7.29-4.06,21.16,2.79,23.47,9,3,18.53-5.73,27.73-3.47,9.91,2.43,14.74,16.51,24.94,16.45,5.93,0,11-7.46,11.6-13.71.7-6.94-4.23-12-9.2-17.15-13.43-13.85-31.39-16.42-40.38-15.34A26,26,0,0,0,254.65,633Z"/></g><g class="cls-27-red-level-five"><path class="cls-19-red-level-five" d="M322.9,678.12c-2.35,6.06,1.84,14.16,7.14,15,6,1,13.58-7.26,11.56-14.14a10.48,10.48,0,0,0-11.23-7.12A10,10,0,0,0,322.9,678.12Z"/></g><g class="cls-25-red-level-five"><path class="cls-19-red-level-five" d="M94.67,378.72c-1.07-.6-3,.51-3.66.91-8.42,4.92-11.67,21.78-9.83,38.54.17,1.51,3.38,28.94,13.61,30.91.3.06,3.13.6,4.15-.57,1.59-1.84-2.37-6.59-3.84-8.56-12-16.12-4.66-43.71-4.29-45C93,387.19,96.9,380,94.67,378.72Z"/></g><circle class="cls-29-red-level-five" cx="99.64" cy="454.26" r="3.03"/><path class="cls-3-red-level-five" d="M1236.65,721.42c21.15,87,103.76,168.08,206.57,166.64,103.66-1.45,171.34-86,196.34-150.2,30.31-77.86,7.25-150-1.06-174.69-20-59.39-55.16-97.79-74.94-116.5-27.38,38.74-54,51.24-73.41,55.42-48.72,10.5-84.24-24.46-150.38-7.14-7.33,1.91-18.53,4.85-30.54,11.38C1247.44,539.92,1216.9,640.13,1236.65,721.42Z"/><path class="cls-5-red-level-five" d="M1258.07,570.33c20.34-40.92,56.84-76.18,101.83-84.22,22.26-4,45.14-1.19,67.71-2.68a121.34,121.34,0,0,0,22.83-3.6,91.15,91.15,0,0,0,22.07-2c19.42-4.19,46-16.69,73.42-55.43,19.78,18.71,55,57.12,74.94,116.51,8.31,24.73,31.37,96.82,1.05,174.69-25,64.2-92.67,148.74-196.34,150.19-93.83,1.32-170.83-66.1-199.64-144,.2-5.43.49-11,.9-16.79C1230.45,652.29,1236.43,613.85,1258.07,570.33Z"/><path class="cls-3-red-level-five" d="M1291.6,482.1c12-6.53,23.21-9.46,30.53-11.38,55.79-14.6,89.8,8,128.31,9.11a121.34,121.34,0,0,1-22.83,3.6c-22.57,1.49-45.45-1.3-67.71,2.68-45,8-81.49,43.3-101.83,84.22-21.64,43.52-27.62,82-31.23,132.67-.41,5.77-.7,11.36-.9,16.79A206.55,206.55,0,0,1,1219,697.2C1199.26,615.91,1229.81,515.7,1291.6,482.1Z"/><circle class="cls-28-red-level-five" cx="1404.7" cy="697.25" r="137.94"/><circle class="cls-23-red-level-five" cx="1389.32" cy="703.54" r="131.26"/><path class="cls-3-red-level-five" d="M1568.25,312.84c17.84.44,30.71,35.56,31.5,63.4A91.66,91.66,0,0,1,1597,402c-2.46,9.48-11.49,44.3-45.93,56.05-3.61,1.23-8.21,2.76-10.37,1.56-6.67-3.69,23.87-25.56,31.76-59.46,3-12.83,1.68-22.89.52-31.84-2.79-21.52-11.35-38.47-18.37-49.57C1560.51,313.74,1565.09,312.76,1568.25,312.84Z"/><path class="cls-5-red-level-five" d="M1553.93,307.25c17.84.43,30.7,35.55,31.5,63.4a92.06,92.06,0,0,1-2.79,25.71c-2.46,9.48-11.49,44.3-45.93,56.05-3.61,1.23-8.21,2.76-10.37,1.56-6.68-3.69,23.87-25.57,31.76-59.46,3-12.83,1.68-22.89.52-31.84-2.79-21.52-11.35-38.47-18.38-49.58C1546.18,308.15,1550.77,307.17,1553.93,307.25Z"/><circle class="cls-3-red-level-five" cx="1552.07" cy="264.65" r="76.92"/><circle class="cls-5-red-level-five" cx="1555.36" cy="262.02" r="72.96"/><circle class="cls-19-red-level-five" cx="1555.36" cy="281.14" r="46.54"/><circle class="cls-16-red-level-five" cx="1536.97" cy="299.6" r="18.46"/><path class="cls-5-red-level-five" d="M1486.81,275.36c4.68,6.52,25.43-11.3,66.31-11.47,40.12-.18,60.49,16.81,65.09,10.25,6.59-9.39-23.45-60.82-65.29-60.94C1510.39,213.07,1480.12,266.05,1486.81,275.36Z"/><path class="cls-3-red-level-five" d="M1545.46,220.42A36.38,36.38,0,0,0,1534,238.74a35.72,35.72,0,0,0-.37,16.12,39.5,39.5,0,0,0-25.23,9.87c.2-5.92,1.52-18.82,10.51-30.34,3.27-4.2,9.15-11.73,19.08-13.66A25.35,25.35,0,0,1,1545.46,220.42Z"/><path class="cls-3-red-level-five" d="M1564.78,222.91a36.26,36.26,0,0,1,11.52,18.32,35.86,35.86,0,0,1,.37,16.12,39.56,39.56,0,0,1,25.23,9.87c-.21-5.92-1.53-18.82-10.51-30.34-3.28-4.2-9.15-11.73-19.09-13.66A25.33,25.33,0,0,0,1564.78,222.91Z"/><g class="cls-26-red-level-five"><path class="cls-19-red-level-five" d="M1582.47,510.76c15.45,1.54,24.57,55,25.85,62.52,12.37,72.59-2.2,147.34-24.6,168.33-2.77,2.59-10,9.33-16,5.76-6.4-3.78-9.07-15.08-8.12-24.77s4.62-18.36,7.68-27.15c14.22-41,15.64-90.39,3.81-132.84-.67-2.41-4.82-10.68-5.36-22.44-.18-4-.66-14.67,4.19-22.07C1573.45,512.64,1578.91,510.4,1582.47,510.76Z"/></g><g class="cls-27-red-level-five"><path class="cls-19-red-level-five" d="M1400.09,598.59c1.42.71,5.94,3,8.63,7.18,4.67,7.29,4,21.16-2.79,23.47-9,3-18.53-5.73-27.74-3.47-9.9,2.43-14.73,16.51-24.93,16.45-5.94,0-11-7.46-11.6-13.71-.7-6.94,4.23-12,9.2-17.15,13.43-13.85,31.39-16.42,40.38-15.34A26,26,0,0,1,1400.09,598.59Z"/></g><g class="cls-27-red-level-five"><path class="cls-19-red-level-five" d="M1331.83,643.74c2.36,6.06-1.83,14.16-7.14,15-6,1-13.57-7.26-11.56-14.14a10.49,10.49,0,0,1,11.23-7.12A10,10,0,0,1,1331.83,643.74Z"/></g><g class="cls-25-red-level-five"><path class="cls-19-red-level-five" d="M1560.06,344.34c1.07-.6,3,.51,3.67.91,8.42,4.92,11.66,21.78,9.82,38.54-.16,1.51-3.38,28.94-13.61,30.91-.29.06-3.12.6-4.14-.57-1.59-1.84,2.37-6.59,3.84-8.56,12-16.12,4.66-43.71,4.29-45C1561.77,352.81,1557.83,345.57,1560.06,344.34Z"/></g><circle class="cls-29-red-level-five" cx="1555.1" cy="419.88" r="3.03"/><g class="cls-30-red-level-five"><path class="cls-16-red-level-five" d="M1123.77,1523.1c-11.29,29.45-18,46.88-11.19,63.21,9.45,22.78,39.9,31,58.63,31.71,32.6,1.24,54.79-19.38,62.92-26.94,6.25-5.8,30.06-27.93,31.68-62.58.35-7.61,1-28.23-12.87-47.28-3-4.15-10.22-13.82-22.57-19.61-30.38-14.26-72,4.25-92.19,31.33C1132.31,1500.81,1129.47,1508.24,1123.77,1523.1Z"/></g><g class="cls-30-red-level-five"><path class="cls-16-red-level-five" d="M1161.71,1609.4h0s37.32,107.23,39.11,183.08a82.57,82.57,0,0,1-10.09,40.16c-6.67,12.2-18.56,22.29-32.41,23.53-24.22,2.16-42.33-21.53-52.57-43.57a307.57,307.57,0,0,1-27.28-156.33c.88-9.69.67-27.62,11.77-45,2.12-3.31,17.68-27.6,36.58-26.26C1144.37,1586.3,1161.71,1609.4,1161.71,1609.4Z"/></g><path class="cls-7-red-level-five" d="M1063,1553.46q9.52,35.4,16.66,71.39a240.68,240.68,0,0,1,71.9,57c-1.25-5.14-2-7.92-2-7.92-20.3-74.75-41.1-115.26-65.8-149-20.4-27.89-38.3-44.14-57.11-54.44a132.38,132.38,0,0,1,10.35,15C1049.45,1506.37,1056.67,1530,1063,1553.46Z"/><path class="cls-6-red-level-five" d="M985.46,1598.35a235.55,235.55,0,0,1,94.2,26.5q-7.15-36-16.66-71.39c-6.33-23.51-13.55-47.09-26-68a132.38,132.38,0,0,0-10.35-15,126.3,126.3,0,0,0-16-7.36c-8.71-3.3-35.44-13.08-67.39-8.41-68.64,10-100.68,77.94-105.37,87.88-12.7,26.91-13,46.32-11.91,105.62C870.92,1613.45,928.59,1594.91,985.46,1598.35Z"/><path class="cls-3-red-level-five" d="M1151.56,1681.89a240.68,240.68,0,0,0-71.9-57,1107.09,1107.09,0,0,1,20.4,171.3c1.26,31,.55,64.27-17.16,89.73-18.13,26.06-50.18,38.26-80.92,46.18a526.71,526.71,0,0,1-179.21,14.34,98.56,98.56,0,0,0,25.63,8.7c20.05,4,40.75,2.82,61.13,1.64,80.71-4.68,120.49-15.66,149.17-21.63,71.3-14.84,84.41-21.65,94.35-33.52,13.87-16.56,15.19-35.31,15.65-53.54C1170.68,1769.23,1156.87,1703.87,1151.56,1681.89Z"/><path class="cls-5-red-level-five" d="M1002,1932.06c30.74-7.92,62.79-20.12,80.92-46.18,17.71-25.46,18.42-58.74,17.16-89.73a1107.09,1107.09,0,0,0-20.4-171.3,235.55,235.55,0,0,0-94.2-26.5c-56.87-3.44-114.54,15.1-159.56,49.88.16,9.17.36,19.28.54,30.53.59,36.37,1,83.74.73,139.52-9,7.36-26.78,24.15-33.82,50.75-3.25,12.27-9.05,35.15,4.85,56.35,5.84,8.92,14.54,15.89,24.57,21A526.71,526.71,0,0,0,1002,1932.06Z"/><g class="cls-27-red-level-five"><path class="cls-19-red-level-five" d="M872.87,1572.53c-9.36-1.28-20.31,13-24.68,21.18-8.61,16.09-4.16,33.31-3.7,40.22l9.9,149.33c1.6,24.25,2.32,51.29-13.65,69.59-10.14,11.61-26.44,18.93-30.68,33.74-5,17.32,12.11,35.48,30.13,35.81,22.82.42,38.38-22.69,42.25-29,13.38-22,11.49-45.54,11-52.54C884.24,1720.45,901.38,1576.44,872.87,1572.53Z"/></g><path class="cls-31-red-level-five" d="M751.5,1364.34q66.59,55.41,137.84,111.56,61.57,48.46,121.93,93.66c7.69.93,27,2.21,46.34-8.55a71.24,71.24,0,0,0,8.56-5.66l-305.08-241.6C747.66,1335.93,750.62,1358.74,751.5,1364.34Z"/><path class="cls-32-red-level-five" d="M1095.29,1486.42c-3.77-24.31-22.23-37.79-46-57.16-50.76-41.24-156.69-134.8-209.65-161.57-5.52-2.79-21.25-10.32-34.15-4.81a22,22,0,0,0-10.59,9.14c-2.32,4.06-3.09,8.77-1.31,13.07a74.86,74.86,0,0,0-29.3,23.89c-1.14,1.58-2.18,3.17-3.15,4.77l305.08,241.6C1088.67,1538.18,1098.84,1509.35,1095.29,1486.42Z"/><path class="cls-33-red-level-five" d="M683.75,1245.45a48.24,48.24,0,0,0,1.17,30.66,439.2,439.2,0,0,0,52.46,42.44c5.46,3.73,11.81,7.88,20.91,8.8a43,43,0,0,0,26.34-6.28l-100-78.09C684.28,1243.81,684,1244.64,683.75,1245.45Z"/><path class="cls-34-red-level-five" d="M798.81,1268.64c-4.95-8.27-12.88-14.32-20.62-20.17-9.78-7.38-15.77-13.22-25.13-19-18.19-11.17-27.29-16.76-38.12-15.09-14.79,2.28-25.71,16-30.35,28.57l100,78.09a40.25,40.25,0,0,0,12-11.42C805.57,1296.74,805.3,1279.48,798.81,1268.64Z"/><path class="cls-35-red-level-five" d="M751.23,1017.63c-7.9-56.27-19.22-136.85-87.66-190.55-2.79-2.19-32.66-24.85-75.14-38.69,31.16,13.24,52,29.05,54.29,30.86,68.45,53.7,79.76,134.28,87.67,190.56,10.12,72.07-3.28,137.43-9.29,165.66a543.58,543.58,0,0,1-18.17,65.13c-55.23,25.82-135.08,52.05-230.7,48.49-35.49-1.32-73.24-2.73-110.71-14.69,44.2,19.26,89.47,20.95,131.55,22.52,95.63,3.56,175.47-22.67,230.7-48.5a543.58,543.58,0,0,0,18.17-65.13C748,1155.06,761.35,1089.7,751.23,1017.63Z"/><path class="cls-36-red-level-five" d="M230.33,1058.37c18.6-94.83,117.18-135.48,125.59-138.79,3.63-14.17,24.26-89,95.27-124.62,48.94-24.53,98.37-19.24,137.24-6.57-41-17.43-99.89-30.43-158.08-1.25-71,35.6-91.64,110.44-95.27,124.61-8.41,3.31-107,44-125.6,138.8-21.18,108,78.33,183.59,91.09,192.94a209.72,209.72,0,0,0,60.95,30.91,208.26,208.26,0,0,1-40.11-23.08C308.65,1242,209.14,1166.38,230.33,1058.37Z"/><path class="cls-36-red-level-five" d="M702.93,1240.6a543.58,543.58,0,0,0,18.17-65.13c6-28.23,19.41-93.59,9.29-165.66-7.91-56.28-19.22-136.86-87.67-190.56-2.3-1.81-23.13-17.62-54.29-30.86-38.87-12.67-88.3-18-137.24,6.57-71,35.61-91.64,110.45-95.27,124.62-8.41,3.31-107,44-125.59,138.79-21.19,108,78.32,183.59,91.08,193a208.26,208.26,0,0,0,40.11,23.08c37.47,12,75.22,13.37,110.71,14.69C567.85,1292.65,647.7,1266.42,702.93,1240.6Zm-375.09-30.93c-10.66-7.82-93.81-71-76.11-161.21,15.54-79.24,97.92-113.2,104.94-116,3-11.84,20.27-74.37,79.6-104.12,85.58-42.9,173,23.33,177.45,26.84,47.1,37,61.82,89.15,69.24,132.68,2.62,13.11,4.38,25.63,6,36.92,8,57-2.59,108.75-7.34,131.09a429.71,429.71,0,0,1-14.37,51.54,412.6,412.6,0,0,1-104.28,33.06,398.74,398.74,0,0,1-91.68,7.27C425.36,1246.06,374.91,1244.18,327.84,1209.67Z"/><path class="cls-37-red-level-five" d="M562.94,1240.5a376.3,376.3,0,0,1-78.2,5.3c-43.45-1.63-91.21-3.41-135.78-36.1-10.1-7.4-88.81-67.21-72.06-152.68,14.71-75,92.69-107.2,99.33-109.82,2.87-11.22,19.19-70.43,75.36-98.61,81-40.62,163.76,22.11,168,25.43C660,905.74,675.23,949.32,683,987.89c-7.42-43.53-22.14-95.72-69.24-132.68-4.47-3.51-91.87-69.74-177.45-26.84-59.33,29.75-76.57,92.28-79.6,104.12-7,2.77-89.4,36.73-104.94,116-17.7,90.25,65.45,153.39,76.11,161.21,47.07,34.51,97.52,36.39,143.42,38.1A398.74,398.74,0,0,0,562.94,1240.5Z"/><path class="cls-38-red-level-five" d="M679.2,1152.84A453.94,453.94,0,0,1,664,1207.25a438.67,438.67,0,0,1-101.08,33.25,412.6,412.6,0,0,0,104.28-33.06,429.71,429.71,0,0,0,14.37-51.54c4.75-22.34,15.35-74.06,7.34-131.09-1.59-11.29-3.35-23.81-6-36.92,1.58,9.32,2.84,18.24,4,26.53C695.42,1074.64,684.22,1129.25,679.2,1152.84Z"/><g class="cls-39"><path class="cls-19-red-level-five" d="M818.94,1272.53c-2-.47-7.67-1.78-10.29,1s-1.56,8.22.24,11.39c2,3.47,5.18,6.07,8.3,8.59l242.93,195.92c3.45,2.78,8.13,5.69,12,3.45,2.57-1.51,3.5-4.94,2.89-7.86a15.45,15.45,0,0,0-4.31-7.73c-17.39-16.48-26.09-24.73-26.93-25.23C1015.92,1435.47,848.15,1279.34,818.94,1272.53Z"/></g><g class="cls-39"><path class="cls-19-red-level-five" d="M737.7,1227.5c-1.76,2-4.58,5.81-3.81,9.88.66,3.49,3.75,5.44,5.2,6.68L772,1272.3c2,1.72,5.71,4.14,8.48,2.92,2.24-1,2.91-4,3.06-5,.76-4.52-2.08-8.86-6.17-13.42-7.91-8.81-15.27-12.63-29.09-22C743.63,1231.73,739.94,1229.11,737.7,1227.5Z"/></g><g class="cls-39"><path class="cls-19-red-level-five" d="M392.25,816.94c-2.56,2.68-7.18,7.81-11.87,13.4-5.28,6.29-9.48,11.76-12.46,15.79a219.89,219.89,0,0,1,37.92-30.87c12.71-8.17,60.73-38.17,120.67-35.15,17,.86,35.82,4.43,36.06,3.09.19-1-11-4-21.18-6.38a151.47,151.47,0,0,0-42.51-5.25,154.78,154.78,0,0,0-70.72,19C408.46,801.36,397.59,811.37,392.25,816.94Z"/></g><g class="cls-26-red-level-five"><path class="cls-19-red-level-five" d="M677.27,879.14a506,506,0,0,1,34.67,109.71c5.23,26.93,12.28,64.49,9,112.56-.68,10-4.26,36.87-11.4,90.24-2.77,20.69-5.09,37.69-6.63,48.95a510.69,510.69,0,0,0,28.91-132.07c1.13-13.57,5.25-70.19-7.58-138-6.15-32.49-13.24-52-18.81-65.11a283.34,283.34,0,0,0-30.08-53.7Q676.32,865.43,677.27,879.14Z"/></g><path class="cls-24-red-level-five" d="M1005.42,1505.77c-26.56-8.07-53.29-19.82-71-41.23-26.62-32.22-26.27-81.65-4.79-117.5,16.67-27.81,44-47.76,74.56-59.28l-1.14,0a244.67,244.67,0,0,0-38.22,1.79c-44.62,5.47-89.05,28.51-110.69,67.91-22,40.07-16.73,91.7,7.07,130.72,30.47,49.95,77.47,70.57,107,81.48,93.65,34.63,247.59,34,289.11-52.22a108.49,108.49,0,0,0,9.35-30.75c-12.34,9.68-27.94,15.62-43.21,20.11A383.18,383.18,0,0,1,1005.42,1505.77Z"/><path class="cls-5-red-level-five" d="M1239.92,1379.06c-21-29-61.4-43.41-142.31-72.22-24.87-8.86-55-17.66-93.39-19.08-30.53,11.52-57.89,31.47-74.56,59.28-21.48,35.85-21.83,85.28,4.79,117.5,17.68,21.41,44.41,33.16,71,41.23a383.18,383.18,0,0,0,218,1c15.27-4.49,30.87-10.43,43.21-20.11C1272.45,1448.73,1260.28,1407.25,1239.92,1379.06Z"/><g class="cls-25-red-level-five"><path class="cls-16-red-level-five" d="M930.93,1319.51c-1.31-1.91-4-2.81-5.95-2.92-5.27-.32-8.48,4.81-15.19,12.26-3.1,3.44-22.55,22.35-29.62,29.36a15.93,15.93,0,0,0-3.76,4.82,7.61,7.61,0,0,0,.6,5.79,9.37,9.37,0,0,0,5.64,3.72C894.09,1375.54,938.75,1331,930.93,1319.51Z"/></g><g class="cls-25-red-level-five"><path class="cls-16-red-level-five" d="M882.78,1374.69c-2.29-.37-4.79,1-6.22,2.3-3.87,3.59-2.36,9.45-1.6,19.45.35,4.61.61,31.75.81,41.69a16.19,16.19,0,0,0,.89,6,7.61,7.61,0,0,0,4.61,3.56,9.33,9.33,0,0,0,6.58-1.52C897.92,1440,896.48,1377,882.78,1374.69Z"/></g><g class="cls-25-red-level-five"><path class="cls-16-red-level-five" d="M884.68,1450.67c-2.13.9-3.54,3.36-4,5.25-1.36,5.1,3,9.26,9,17.32,2.75,3.72,17.43,26.54,22.89,34.86a16,16,0,0,0,4,4.64,7.58,7.58,0,0,0,5.79.56,9.33,9.33,0,0,0,4.77-4.79C932.28,1497.89,897.48,1445.28,884.68,1450.67Z"/></g><path class="cls-10-red-level-five" d="M884.21,1411.24v19.17a8.9,8.9,0,0,1-13.34,7.71l-16.61-9.59-16.6-9.59a8.89,8.89,0,0,1,0-15.4l16.6-9.59,16.61-9.59a8.9,8.9,0,0,1,13.34,7.71Z"/><path class="cls-10-red-level-five" d="M907.17,1345.51l-12.45,14.58a8.9,8.9,0,0,1-15.15-2.8l-6.4-18.08-6.4-18.07a8.9,8.9,0,0,1,10-11.72l18.85,3.5,18.86,3.49a8.89,8.89,0,0,1,5.14,14.52Z"/><path class="cls-10-red-level-five" d="M905.34,1480.92l11.31,15.48a8.9,8.9,0,0,1-6.22,14.09l-19.07,2-19.06,2.06a8.89,8.89,0,0,1-9.09-12.43l7.75-17.54,7.75-17.54a8.89,8.89,0,0,1,15.31-1.65Z"/><g class="cls-26-red-level-five"><path class="cls-19-red-level-five" d="M1034,1315.68c-30.94-6.39-54.93-9.69-80.95-1.14-9.1,3-25.1,8.48-27.22,20.06-2.2,12,11.83,23.44,13,24.21,8.16,5.23,17.93,7.15,27.45,9l167.26,32c11,2.1,25.87,1.57,30.15-6,5.79-10.28-11-29.68-13.91-33.09C1142.71,1352.41,1124.77,1334.43,1034,1315.68Z"/></g><g class="cls-26-red-level-five"><path class="cls-19-red-level-five" d="M1192.87,1378.7c-6.15,4.38-9.68,13.57-5.64,21,4.26,7.81,14.84,9.66,22.25,5.83,8-4.14,12.23-14.88,7.65-22.74C1212.37,1374.58,1200.32,1373.38,1192.87,1378.7Z"/></g><circle class="cls-19-red-level-five" cx="1060.7" cy="1031" r="81.59"/><circle class="cls-16-red-level-five" cx="1056.3" cy="1038.9" r="64.53"/><circle class="cls-20-red-level-five" cx="1036.69" cy="987.97" r="14.52"/><circle class="cls-21-red-level-five" cx="1095.39" cy="1053.99" r="10.16"/><circle class="cls-19-red-level-five" cx="1088.52" cy="1007.61" r="27.55"/><circle class="cls-20-red-level-five" cx="1095.39" cy="1053.99" r="4.81"/><circle class="cls-22-red-level-five" cx="1036.69" cy="987.97" r="4.81"/><circle class="cls-22-red-level-five" cx="1031.49" cy="1002.49" r="7.8"/><circle class="cls-21-red-level-five" cx="1046.26" cy="1095.72" r="10.04"/></svg>
