<svg id="red_3" data-name="red_3" xmlns="http://www.w3.org/2000/svg" viewBox="0 0 1247.23 1276.25">
<defs>
<style>
.cls-1-red-level-three{fill:#fff;}
.cls-2-red-level-three{fill:#d11022;}
.cls-3-red-level-three{fill:#fd0300;}
.cls-4-red-level-three{fill:#fc4401;}
.cls-5-red-level-three{fill:#87ff7b;}
.cls-6-red-level-three{fill:#070707;}
.cls-7-red-level-three{fill:#fdd301;}
.cls-8-red-level-three{fill:#5ebce5;}
.cls-9-red-level-three{fill:#ff8600;}
.cls-10-red-level-three{fill:#fcecca;}
</style>
</defs>
<path class="cls-1-red-level-three" d="M860.77,1117.93c.72-2,.65-4.49-.88-6a3,3,0,0,0-1.19-.68c.11-2.38.19-4.75.25-7.09-65.73,50.18-148.47,77.8-231.19,76.77-75.86-.94-149.54-25-219.57-54.26.06.55.14,1.11.2,1.67a3.47,3.47,0,0,0-4.25.78c-1.32,1.66-1.07,4.14-.08,6a33,33,0,0,0,3.91,5c1.33,1.65,2.48,3.66,2.31,5.78s-1.66,4.13-1.24,6.23c.5,2.59,3.62,4,4.33,6.51.65,2.38-1,5-.3,7.32.86,2.69,4.36,3.63,5.63,6.15,1.14,2.26.13,5,.7,7.49s2.59,4.25,4.5,5.89l11.85,10.13a18.8,18.8,0,0,0,3.09,2.23l.5.53c25.55,25.77,58.72,31.51,74.82,33.1H751.57c16.09-1.59,49.26-7.33,74.82-33.1a98.94,98.94,0,0,0,12.72-15.79c1.58-2.43,3-4.91,4.35-7.42,1.43-1.59,2.85-3.18,4.28-4.76,1.68-1.88,3.44-3.93,3.68-6.43.19-2-.62-4.07-.54-6,.29-.87.56-1.75.84-2.63,1.3-2,3.76-3.35,4.18-5.69.33-1.91-.82-3.76-1.18-5.66.26-1.2.49-2.41.73-3.62,1-1.63,2.51-3.08,2.63-5a7.7,7.7,0,0,0-1.19-3.79c.41-3,.75-5.9,1-8.83A26.49,26.49,0,0,0,860.77,1117.93Z"/><path class="cls-2-red-level-three" d="M412,1008.36A394.12,394.12,0,0,0,332.64,1114c-4.21,8.16-8.19,16.69-8.95,25.84-.59,7.14,1.16,14.78,5.52,20.31a82.24,82.24,0,0,0,12.89-.85c22.86-3.12,37.4-17.82,49.52-30.79,11.05-11.82,35.08-40.71,47-90.6,3-12.7,6.87-28.71,8.8-43.66C435.19,989.93,421.77,999.16,412,1008.36Z"/><path class="cls-3-red-level-three" d="M439.39,951C416,936.22,346.5,989.33,314.48,1054.75c-5.18,10.6-35,73.81-11,96.68,7.1,6.78,17.39,8.55,25.74,8.72-4.36-5.53-6.11-13.17-5.52-20.31.76-9.15,4.74-17.68,8.95-25.84A394.12,394.12,0,0,1,412,1008.36c9.73-9.2,23.15-18.43,35.4-14.11C450,974.82,449.25,957.19,439.39,951Z"/><path class="cls-2-red-level-three" d="M847.6,1000.53A394.07,394.07,0,0,1,927,1106.16c4.2,8.16,8.18,16.7,8.94,25.85.59,7.14-1.16,14.78-5.52,20.3a81.43,81.43,0,0,1-12.89-.84c-22.85-3.12-37.39-17.83-49.51-30.79-11.06-11.82-35.08-40.72-47-90.6-3-12.7-6.87-28.71-8.8-43.66C824.45,982.1,837.87,991.33,847.6,1000.53Z"/><path class="cls-3-red-level-three" d="M820.24,943.13c23.36-14.74,92.9,38.37,124.91,103.79,5.19,10.6,35,73.81,11,96.68-7.1,6.78-17.4,8.55-25.75,8.71,4.36-5.52,6.11-13.16,5.52-20.3-.76-9.15-4.74-17.69-8.94-25.85a394.07,394.07,0,0,0-79.4-105.63c-9.73-9.2-23.15-18.43-35.41-14.11C809.68,967,810.39,949.35,820.24,943.13Z"/><circle class="cls-3-red-level-three" cx="219.32" cy="254.99" r="219.32"/><circle class="cls-3-red-level-three" cx="1027.9" cy="254.99" r="219.32"/><circle class="cls-4-red-level-three" cx="258.48" cy="288.97" r="177.81"/><circle class="cls-4-red-level-three" cx="990.68" cy="288.97" r="177.81"/><path class="cls-5-red-level-three" d="M436.58,0C461,8.39,496.63,21.41,539,39.86c43.57,19,51.27,25.15,57.38,30.59,37,33,41.3,89.87,31.1,138.37-5.34,25.39-30.84,42.46-34,40.56-2.66-1.6,5.84-13.15,6-26.13.42-38-71.33-52.46-115.77-100.15C464.62,102.63,441.67,66.48,436.58,0Z"/><path class="cls-3-red-level-three" d="M859,1104.2c.15-6.78.11-13.36,0-19.61-.56-57.38-16.92-64-31.29-136.55-20.22-102,.66-146.75-35.65-181.49-20.89-20-48.58-25.06-67.9-26.36L633.33,740h-.93l-90.83.17c-19.32,1.3-47,6.38-67.91,26.36C437.36,801.29,458.23,846,438,948c-14.37,72.54-30.73,79.17-31.3,136.55-.12,13-.17,27.42,1.47,42.12C478.22,1156,551.9,1180,627.76,1181,710.48,1182,793.22,1154.38,859,1104.2Z"/><path class="cls-2-red-level-three" d="M1041,357c-14.3-29.23-61.27-121.54-170.42-166.31-114.7-47-218.21-8.85-243.4.9-.58.22-1.15.46-1.73.69-.58-.23-1.15-.47-1.73-.69-25.19-9.75-128.7-47.95-243.4-.9C271.13,235.47,224.17,327.78,209.86,357c-74.06,151.29-12.13,302.28,2.61,338.21,55.12,134.4,159.68,202.41,218.19,240.46,76.91,50,156.29,70.7,156.29,70.7,15.18,4,27.95,6.5,36.74,8.09l1.73-1.39,1.73,1.39c8.78-1.59,21.56-4.14,36.74-8.09,0,0,79.38-20.67,156.29-70.7,58.51-38,163.07-106.06,218.19-240.46C1053.1,659.29,1115,508.3,1041,357ZM1009.15,676.2C957.93,801.09,860.77,864.29,806.4,899.65c-71.47,46.49-145.23,65.7-145.23,65.7-14.11,3.67-26,6-34.14,7.52l-1.61-1.29-1.61,1.29c-8.16-1.48-20-3.85-34.14-7.52,0,0-73.76-19.21-145.23-65.7-54.38-35.36-151.53-98.56-202.76-223.45-13.69-33.39-71.24-173.7-2.42-314.28C252.56,334.76,296.2,249,397.63,207.38c106.59-43.73,202.78-8.23,226.18.83l1.61.64,1.61-.64c23.4-9.06,119.59-44.56,226.18-.83C954.64,249,998.28,334.76,1011.58,361.92,1080.39,502.5,1022.85,642.81,1009.15,676.2Z"/><path class="cls-3-red-level-three" d="M1011.58,361.92C998.28,334.76,954.64,249,853.21,207.38c-106.59-43.73-202.78-8.23-226.18.83l-1.61.64-1.61-.64c-23.4-9.06-119.59-44.56-226.18-.83C296.2,249,252.56,334.76,239.26,361.92,170.44,502.5,228,642.81,241.68,676.2c51.23,124.89,148.38,188.09,202.76,223.45,71.47,46.49,145.23,65.7,145.23,65.7,14.11,3.67,26,6,34.14,7.52l1.61-1.29,1.61,1.29c8.16-1.48,20-3.85,34.14-7.52,0,0,73.76-19.21,145.23-65.7,54.37-35.36,151.53-98.56,202.75-223.45C1022.85,642.81,1080.39,502.5,1011.58,361.92Z"/><ellipse class="cls-1-red-level-three" cx="552.86" cy="736.71" rx="39" ry="48.36"/><circle class="cls-6-red-level-three" cx="543.65" cy="726.78" r="27.11"/><ellipse class="cls-1-red-level-three" cx="725.87" cy="736.71" rx="39" ry="48.36"/><circle class="cls-6-red-level-three" cx="716.66" cy="726.78" r="27.11"/><ellipse class="cls-7-red-level-three" cx="644.56" cy="778.06" rx="22.18" ry="12.96"/><path class="cls-8-red-level-three" d="M728.48,798.07c-29.66-12.91-62,11.92-64.3,13.9a42.82,42.82,0,0,1-10.49,6.82A43.8,43.8,0,0,1,639,822.55a49.55,49.55,0,0,1-17.28-2.12c-11.56-3.62-16-9.88-23.78-15.41-12.68-9-31.45-13.43-48.13-9.1-2.34.61-21.94,6-32.59,25-9.63,17.14-5.85,34.47-3,47.37A99.58,99.58,0,0,0,532.42,907c20.14,26.34,47.64,35.15,60.53,39.3a154.18,154.18,0,0,0,46,6.84c10.21,0,26.58-.11,46.26-6.84,10.82-3.71,39-13.66,58.09-41.2A94.12,94.12,0,0,0,755.9,879.3c2.87-9.4,9.06-29.63,0-51C753.8,823.32,746.42,805.88,728.48,798.07Z"/><path class="cls-9-red-level-three" d="M635.86,872.73a58.69,58.69,0,1,0,58.68,58.68A58.68,58.68,0,0,0,635.86,872.73Zm0,103.41a44.73,44.73,0,1,1,44.72-44.73A44.73,44.73,0,0,1,635.86,976.14Z"/><circle class="cls-10-red-level-three" cx="635.86" cy="879.43" r="44.81"/><circle class="cls-10-red-level-three" cx="555.88" cy="834.62" r="13.58"/><circle class="cls-10-red-level-three" cx="712.28" cy="834.62" r="13.58"/><circle class="cls-4-red-level-three" cx="425.03" cy="808.07" r="42.97"/><circle class="cls-4-red-level-three" cx="827.13" cy="808.07" r="42.97"/><path class="cls-2-red-level-three" d="M626,219.12c-23.14-23-55-28.57-68.26-30.86a153.22,153.22,0,0,0-39.48-1.65,255.5,255.5,0,0,1,54.52,50.07C626,302.37,631.39,377,631.79,407.62c10.6-20.38,24.54-55,23.19-98.56C654.16,282.74,652.93,246,626,219.12Z"/><path class="cls-3-red-level-three" d="M500,1261.76c11.16-2.76,18.71-6.67,24.88-11.74,5.15-4.24,14.54-12,14.91-21.78.7-18.46-29.91-31-31.5-31.67-20.84-8.3-42.6-3.75-47.77-2.67-11.14,2.33-20.18,6.43-21.15,4.58a1.18,1.18,0,0,1,0-1c-8.39,6.33-14.17,14.84-16.36,23.15-4.7,17.84,6.37,36.45,22.22,46.42a71.36,71.36,0,0,1-9-7.06C450.06,1263.61,474.55,1268.07,500,1261.76Z"/><path class="cls-2-red-level-three" d="M533.33,1267.74c10.52-3.12,21.11-6.8,29.68-13.07,4-3,15.08-12.64,14.21-25.13-.91-13-14.35-20.37-19.36-23.13-6.51-3.58-10.11-3.72-25.63-7.26-34.68-7.92-36.74-11.8-53.22-12-9.24-.11-19.42-.23-30.41,4.85a50.36,50.36,0,0,0-9.22,5.52,1.18,1.18,0,0,0,0,1c1,1.85,10-2.25,21.15-4.58,5.17-1.08,26.93-5.63,47.77,2.67,1.59.63,32.2,13.21,31.5,31.67-.37,9.82-9.76,17.54-14.91,21.78-6.17,5.07-13.72,9-24.88,11.74-25.42,6.31-49.91,1.85-63.7-1.72a71.36,71.36,0,0,0,9,7.06,49.75,49.75,0,0,0,12.05,5.55C481.37,1279.92,508.57,1275.08,533.33,1267.74Z"/><path class="cls-3-red-level-three" d="M765.44,1261.76c-11.16-2.76-18.7-6.67-24.87-11.74-5.16-4.24-14.54-12-14.92-21.78-.7-18.46,29.91-31,31.51-31.67,20.83-8.3,42.6-3.75,47.77-2.67,11.13,2.33,20.17,6.43,21.15,4.58a1.18,1.18,0,0,0-.05-1c8.39,6.33,14.18,14.84,16.36,23.15,4.7,17.84-6.36,36.45-22.22,46.42a71.36,71.36,0,0,0,9-7.06C815.35,1263.61,790.86,1268.07,765.44,1261.76Z"/><path class="cls-2-red-level-three" d="M732.08,1267.74c-10.51-3.12-21.1-6.8-29.67-13.07-4-3-15.09-12.64-14.21-25.13.91-13,14.34-20.37,19.36-23.13,6.51-3.58,10.11-3.72,25.63-7.26,34.68-7.92,36.74-11.8,53.21-12,9.24-.11,19.42-.23,30.41,4.85a50,50,0,0,1,9.22,5.52,1.18,1.18,0,0,1,.05,1c-1,1.85-10-2.25-21.15-4.58-5.17-1.08-26.94-5.63-47.77,2.67-1.6.63-32.21,13.21-31.51,31.67.38,9.82,9.76,17.54,14.92,21.78,6.17,5.07,13.71,9,24.87,11.74,25.42,6.31,49.91,1.85,63.7-1.72a71.36,71.36,0,0,1-9,7.06,49.68,49.68,0,0,1-12,5.55C784.05,1279.92,756.84,1275.08,732.08,1267.74Z"/></svg>
