<svg id="red_3" data-name="red_3" xmlns="http://www.w3.org/2000/svg" viewBox="0 0 1247.2 1276.3"><defs><style>.cls-1-red-level-three{fill:#fff}.cls-2-red-level-three{fill:#d11022}.cls-3-red-level-three{fill:#fd0300}.cls-4-red-level-three{fill:#fc4401}.cls-6-red-level-three{fill:#070707}.cls-10-red-level-three{fill:#fcecca}</style></defs><path class="cls-1-red-level-three" d="M860.8 1118c.7-2 .6-4.6-1-6a3 3 0 0 0-1.1-.7l.2-7.1a376.7 376.7 0 0 1-231.1 76.7c-75.9-1-149.6-25-219.6-54.2l.2 1.6a3.5 3.5 0 0 0-4.3.8c-1.3 1.7-1 4.2 0 6a33 33 0 0 0 3.9 5c1.3 1.7 2.5 3.7 2.3 5.8s-1.7 4.1-1.3 6.2c.5 2.6 3.7 4 4.4 6.5.6 2.4-1 5-.3 7.4.8 2.7 4.3 3.6 5.6 6.1 1.1 2.3.1 5 .7 7.5s2.6 4.3 4.5 5.9l11.8 10.1a18.8 18.8 0 0 0 3.1 2.3l.5.5c25.6 25.8 58.8 31.5 74.9 33h237.4c16-1.5 49.2-7.2 74.8-33a99 99 0 0 0 12.7-15.8c1.6-2.4 3-5 4.4-7.4l4.2-4.8c1.7-1.9 3.5-4 3.7-6.4.2-2-.6-4-.5-6l.8-2.6c1.3-2 3.8-3.4 4.2-5.7.3-2-.8-3.8-1.2-5.7l.8-3.6c1-1.6 2.5-3.1 2.6-5a7.7 7.7 0 0 0-1.2-3.8l1-8.8a26.5 26.5 0 0 0 2.9-4.9Z"/><path class="cls-2-red-level-three" d="M412 1008.4a394.1 394.1 0 0 0-79.4 105.6 70.2 70.2 0 0 0-9 25.8 29.4 29.4 0 0 0 5.6 20.3 82.2 82.2 0 0 0 12.9-.8c22.9-3.1 37.4-17.8 49.5-30.8 11-11.8 35.1-40.7 47-90.6 3-12.7 6.9-28.7 8.8-43.7-12.2-4.3-25.6 5-35.4 14.2Z"/><path class="cls-3-red-level-three" d="M439.4 951c-23.4-14.8-92.9 38.3-125 103.8-5.1 10.6-35 73.8-11 96.6 7.2 6.8 17.5 8.6 25.8 8.7a29.4 29.4 0 0 1-5.5-20.3c.8-9.1 4.7-17.6 9-25.8a394.1 394.1 0 0 1 79.3-105.6c9.7-9.2 23.1-18.5 35.4-14.1 2.6-19.5 1.9-37.1-8-43.3Z"/><path class="cls-2-red-level-three" d="M847.6 1000.5a394 394 0 0 1 79.4 105.7 70.4 70.4 0 0 1 9 25.8c.5 7.1-1.2 14.8-5.6 20.3a81.4 81.4 0 0 1-12.9-.8c-22.8-3.1-37.4-17.9-49.5-30.8-11-11.8-35-40.7-47-90.6-3-12.7-6.8-28.7-8.8-43.7 12.3-4.3 25.7 5 35.4 14.1Z"/><path class="cls-3-red-level-three" d="M820.2 943.1c23.4-14.7 93 38.4 125 103.8 5.1 10.6 35 73.8 11 96.7-7.2 6.8-17.5 8.6-25.8 8.7a29.3 29.3 0 0 0 5.5-20.3 70.4 70.4 0 0 0-9-25.8 394 394 0 0 0-79.3-105.7c-9.8-9.2-23.2-18.4-35.4-14-2.5-19.5-1.8-37.1 8-43.4Z"/><circle class="cls-3-red-level-three" cx="219.3" cy="255" r="219.3"/><circle class="cls-3-red-level-three" cx="1027.9" cy="255" r="219.3"/><circle class="cls-4-red-level-three" cx="258.5" cy="289" r="177.8"/><circle class="cls-4-red-level-three" cx="990.7" cy="289" r="177.8"/><path d="M436.6 0c24.4 8.4 60 21.4 102.4 39.9 43.6 19 51.3 25.1 57.4 30.6 37 33 41.3 89.8 31 138.3-5.3 25.4-30.8 42.5-34 40.6-2.6-1.6 6-13.2 6-26.2.5-38-71.2-52.4-115.7-100.1-19-20.5-42-56.6-47.1-123.1Z" style="fill:#87ff7b"/><path class="cls-3-red-level-three" d="M859 1104.2v-19.6c-.6-57.4-17-64-31.3-136.6-20.2-102 .7-146.7-35.6-181.4-21-20-48.6-25.1-68-26.4l-90.8-.2h-.9l-90.8.2c-19.3 1.3-47 6.3-68 26.3C437.5 801.3 458.3 846 438 948c-14.4 72.5-30.7 79.2-31.3 136.6-.1 13-.2 27.4 1.5 42 70 29.4 143.7 53.4 219.6 54.4 82.7 1 165.4-26.6 231.2-76.8Z"/><path class="cls-2-red-level-three" d="M1041 357c-14.3-29.2-61.3-121.5-170.4-166.3-114.7-47-218.2-8.9-243.4.9l-1.7.7-1.8-.7c-25.2-9.8-128.7-48-243.4-1C271.1 235.6 224.2 327.9 210 357c-74.1 151.3-12.2 302.3 2.6 338.2 55 134.4 159.7 202.4 218.2 240.5 76.9 50 156.3 70.7 156.3 70.7 15.1 4 27.9 6.5 36.7 8l1.7-1.3 1.8 1.4a499 499 0 0 0 36.7-8.1s79.4-20.7 156.3-70.7c58.5-38 163-106 218.2-240.5 14.7-36 76.6-186.9 2.6-338.2Zm-31.9 319.2c-51.2 124.9-148.3 188-202.7 223.4-71.5 46.5-145.2 65.7-145.2 65.7-14.1 3.7-26 6-34.2 7.6l-1.6-1.3-1.6 1.3c-8.2-1.5-20-3.9-34.1-7.5 0 0-73.8-19.3-145.3-65.7C390.1 864.3 293 801 241.7 676.1c-13.7-33.4-71.3-173.7-2.4-314.3 13.3-27.1 56.9-112.9 158.3-154.5 106.6-43.8 202.8-8.3 226.2.8l1.6.7 1.6-.7c23.4-9 119.6-44.5 226.2-.8 101.4 41.6 145 127.4 158.4 154.5 68.8 140.6 11.3 281-2.5 314.3Z"/><path class="cls-3-red-level-three" d="M1011.6 362c-13.3-27.2-57-113-158.4-154.6-106.6-43.8-202.8-8.3-226.2.8l-1.6.7-1.6-.7c-23.4-9-119.6-44.5-226.2-.8-101.4 41.6-145 127.4-158.3 154.5-68.9 140.6-11.3 281 2.4 314.3 51.2 124.9 148.4 188 202.7 223.4 71.5 46.5 145.3 65.8 145.3 65.8 14 3.6 26 6 34.1 7.5l1.6-1.3 1.6 1.3c8.2-1.5 20-3.9 34.2-7.5 0 0 73.7-19.3 145.2-65.7 54.4-35.4 151.5-98.6 202.8-223.5 13.6-33.4 71.2-173.7 2.4-314.3Z"/><ellipse class="cls-1-red-level-three" cx="552.9" cy="736.7" rx="39" ry="48.4"/><circle class="cls-6-red-level-three" cx="543.6" cy="726.8" r="27.1"/><ellipse class="cls-1-red-level-three" cx="725.9" cy="736.7" rx="39" ry="48.4"/><circle class="cls-6-red-level-three" cx="716.7" cy="726.8" r="27.1"/><ellipse cx="644.6" cy="778.1" rx="22.2" ry="13" style="fill:#fdd301"/><path d="M728.5 798c-29.7-12.8-62 12-64.3 14a42.8 42.8 0 0 1-10.5 6.8 43.8 43.8 0 0 1-14.7 3.8 49.5 49.5 0 0 1-17.3-2.2c-11.5-3.6-16-9.9-23.8-15.4a60.4 60.4 0 0 0-48-9c-2.4.5-22 6-32.7 25-9.6 17-5.8 34.4-3 47.3a99.6 99.6 0 0 0 18.2 38.7c20.2 26.3 47.7 35.1 60.5 39.3a154.2 154.2 0 0 0 46 6.8c10.3 0 26.6 0 46.3-6.8a113 113 0 0 0 58.1-41.2 94.1 94.1 0 0 0 12.6-25.8c2.9-9.4 9-29.6 0-51-2.1-5-9.5-22.4-27.4-30.2Z" style="fill:#5ebce5"/><path d="M635.9 872.7a58.7 58.7 0 1 0 58.6 58.7 58.7 58.7 0 0 0-58.6-58.7Zm0 103.4a44.7 44.7 0 1 1 44.7-44.7 44.7 44.7 0 0 1-44.7 44.7Z" style="fill:#ff8600"/><circle class="cls-10-red-level-three" cx="635.9" cy="879.4" r="44.8"/><circle class="cls-10-red-level-three" cx="555.9" cy="834.6" r="13.6"/><circle class="cls-10-red-level-three" cx="712.3" cy="834.6" r="13.6"/><circle class="cls-4-red-level-three" cx="425" cy="808.1" r="43"/><circle class="cls-4-red-level-three" cx="827.1" cy="808.1" r="43"/><path class="cls-2-red-level-three" d="M626 219.1c-23.1-23-55-28.5-68.3-30.8a153.2 153.2 0 0 0-39.4-1.7 255.5 255.5 0 0 1 54.5 50c53.2 65.8 58.6 140.4 59 171 10.6-20.4 24.5-55 23.2-98.5-.8-26.4-2-63.1-29-90Z"/><path class="cls-3-red-level-three" d="M500 1261.8a60 60 0 0 0 24.9-11.8c5.1-4.2 14.5-12 14.9-21.8.7-18.4-30-31-31.5-31.6-20.9-8.3-42.6-3.8-47.8-2.7-11.1 2.3-20.2 6.4-21.1 4.6a1.2 1.2 0 0 1 0-1 44.2 44.2 0 0 0-16.4 23.1c-4.7 17.9 6.4 36.5 22.2 46.4a71.4 71.4 0 0 1-9-7 132 132 0 0 0 63.8 1.8Z"/><path class="cls-2-red-level-three" d="M533.3 1267.7a96.2 96.2 0 0 0 29.7-13c4-3 15-12.7 14.2-25.2-.9-13-14.3-20.3-19.3-23-6.5-3.7-10.1-3.8-25.7-7.4-34.7-7.9-36.7-11.8-53.2-12-9.2 0-19.4-.2-30.4 4.9a50.4 50.4 0 0 0-9.2 5.5 1.2 1.2 0 0 0 0 1c1 1.9 10-2.2 21.1-4.6 5.2-1 27-5.6 47.8 2.7 1.6.6 32.2 13.2 31.5 31.7-.4 9.8-9.8 17.5-15 21.8-6 5-13.6 9-24.8 11.7-25.4 6.3-49.9 1.9-63.7-1.7a71.4 71.4 0 0 0 9 7 49.8 49.8 0 0 0 12 5.6c24 7.2 51.3 2.4 76-5Z"/><path class="cls-3-red-level-three" d="M765.4 1261.8a60 60 0 0 1-24.8-11.8c-5.2-4.2-14.6-12-15-21.8-.6-18.4 30-31 31.6-31.6 20.8-8.3 42.6-3.8 47.7-2.7 11.2 2.3 20.2 6.4 21.2 4.6a1.2 1.2 0 0 0 0-1 44.2 44.2 0 0 1 16.3 23.1c4.7 17.9-6.4 36.5-22.2 46.4a71.4 71.4 0 0 0 9-7c-13.9 3.6-38.3 8-63.8 1.8Z"/><path class="cls-2-red-level-three" d="M732 1267.7a96.3 96.3 0 0 1-29.6-13c-4-3-15-12.7-14.2-25.2 1-13 14.3-20.3 19.4-23 6.5-3.7 10-3.8 25.6-7.4 34.7-7.9 36.7-11.8 53.2-12 9.2 0 19.4-.2 30.4 4.9a50 50 0 0 1 9.2 5.5 1.2 1.2 0 0 1 0 1c-1 1.9-10-2.2-21-4.6-5.2-1-27-5.6-47.8 2.7-1.6.6-32.2 13.2-31.5 31.7.3 9.8 9.7 17.5 14.9 21.8 6.1 5 13.7 9 24.8 11.7 25.5 6.3 50 1.9 63.7-1.7a71.4 71.4 0 0 1-9 7 49.7 49.7 0 0 1-12 5.6c-24 7.2-51.3 2.4-76-5Z"/></svg>