<svg id="red_1" data-name="red_1" xmlns="http://www.w3.org/2000/svg" viewBox="0 0 669 666.4"><defs><style>.cls-2-red-level-one{fill:red}.cls-4-red-level-one{fill:#070707}.cls-5-red-level-one{fill:#ff4300}</style></defs><path d="M352 637.4a317 317 0 1 1 0-634 318.7 318.7 0 0 1 53.5 4.5A334.3 334.3 0 0 0 333.2 0a333.2 333.2 0 1 0 329.2 385A317.1 317.1 0 0 1 352 637.4Z" style="fill:#ce0b0b"/><path class="cls-2-red-level-one" d="M666.4 333.2a335.1 335.1 0 0 1-4 51.8 318 318 0 0 0 6.6-64.6A317 317 0 0 0 405.5 7.9a333.3 333.3 0 0 1 260.9 325.3Z"/><path class="cls-2-red-level-one" d="M35 320.4A317 317 0 0 0 662.4 385a335.1 335.1 0 0 0 4-51.8 333.3 333.3 0 0 0-261-325.3A318.7 318.7 0 0 0 352 3.4a317 317 0 0 0-317 317Z"/><ellipse cx="332.5" cy="331" rx="20" ry="10.6" style="fill:#ffd500"/><circle class="cls-4-red-level-one" cx="287.5" cy="313.9" r="15"/><circle class="cls-4-red-level-one" cx="371.6" cy="313.9" r="15"/><circle class="cls-5-red-level-one" cx="240.5" cy="345.6" r="26.2"/><circle class="cls-5-red-level-one" cx="420.1" cy="345.6" r="26.2"/></svg>