<svg id="레이어_1" data-name="레이어 1" xmlns="http://www.w3.org/2000/svg" viewBox="0 0 1458.8 1524.4"><defs><style>.cls-1-red-level-four{fill:#99a0f5}.cls-2-red-level-four{fill:#bcbdf3}.cls-3-red-level-four{fill:#d11022}.cls-4-red-level-four{fill:#fd0300}.cls-5-red-level-four{fill:#87ff7b}.cls-8-red-level-four{fill:#fc4401}.cls-11-red-level-four{fill:#ffc2ff}.cls-12-red-level-four{fill:#fff}.cls-13-red-level-four{fill:#070707}.cls-15-red-level-four{fill:#ff5557}</style></defs><path class="cls-1-red-level-four" d="M643 1162a329 329 0 0 0-129-208c-25-18-99-71-191-63 28 31 45 72 52 113 8 51 4 102-2 153-5 45-11 90-27 132a255 255 0 0 1-29 57c43 14 89 21 134 21 67 0 141-18 176-75 28-45 21-95 16-130Z"/><path class="cls-2-red-level-four" d="M643 1127a329 329 0 0 0-139-201c-26-17-102-66-194-53 30 29 48 69 58 111 11 50 9 101 6 153-3 44-7 89-20 132a256 256 0 0 1-26 59c43 12 89 16 135 14 66-4 139-26 171-84 26-46 17-96 9-131Z"/><path class="cls-3-red-level-four" d="m635 1338-2-9a269 269 0 0 0-50 11c9 27 20 55 33 80 12 21 27 41 44 57 9-12 15-26 16-40 4-33-21-39-41-99Z"/><path class="cls-4-red-level-four" d="M583 1340a266 266 0 0 0-64 31c-18 12-35 27-46 46-8 12-12 27-12 42a155 155 0 0 0 22 25c14 13 51 47 102 39 30-4 58-22 75-46-17-16-32-36-44-57-13-25-24-53-33-80Z"/><path class="cls-2-red-level-four" d="M556 1186c-14-4-29-5-43-2-72 17-84 132-85 143-1 14-5 78 33 132 0-15 4-30 12-42 11-19 28-34 46-46a267 267 0 0 1 65-31 354 354 0 0 1-28-154Z"/><path class="cls-1-red-level-four" d="M608 1219c-13-16-31-28-52-33a354 354 0 0 0 28 154 269 269 0 0 1 49-11c-17-58-1-80-25-110Z"/><path class="cls-5-red-level-four" d="m1062 1143 1 1v-1Z"/><path class="cls-3-red-level-four" d="M238 1288c-3 7-25 59-78 70-49 9-88-22-102-36-27-25-44-60-52-96-8-29-10-61 5-88 20-38 68-49 101-48 73 3 111 75 116 85 7 14 32 62 10 113Z"/><path class="cls-4-red-level-four" d="M248 1305c-3 7-25 59-79 69-48 10-87-21-101-35-27-25-44-60-53-96-7-29-9-61 5-88 20-38 68-49 101-48 74 3 112 75 117 85 7 14 31 62 10 113Z"/><path class="cls-3-red-level-four" d="M285 1001c-55 12-103 51-125 102-17 37-19 80-8 119a316 316 0 0 0 62 69c31 24 66 42 103 55a255 255 0 0 0 29-57c16-42 22-87 27-132 6-50 10-100 2-150a177 177 0 0 0-90-6Z"/><path class="cls-4-red-level-four" d="M292 992c-55 11-104 51-126 102-16 37-19 80-8 118a316 316 0 0 0 63 69c30 25 65 43 102 55a256 256 0 0 0 30-57c15-42 22-87 27-131 5-50 10-101 2-150-29-10-61-12-90-6Z"/><path class="cls-3-red-level-four" d="M323 891a221 221 0 0 0-45 8c-69 21-146 80-162 170-11 61 10 114 36 153-11-39-9-82 8-119 22-51 70-90 125-102a177 177 0 0 1 90 6v-3c-7-41-24-82-52-113ZM1015 1242c-19-29-59-35-98-34a125 125 0 0 0-28 46c45-17 99-9 136 21 0-10-3-22-10-33Z"/><path class="cls-1-red-level-four" d="M644 1242c-6 0-16 0-26 6-3 2-15 10-14 22 0 8 8 15 16 19s17 3 25 3l115-3c13-1 29-3 34-15 4-9-4-22-13-29s-19-7-34-6c-34 1-69 4-103 3Z"/><path class="cls-2-red-level-four" d="M886 1267a123 123 0 0 1 31-59c-38 2-74 11-87 14-54 13-61 29-62 35-5 19 15 39 20 44 19 19 35 18 102 32a123 123 0 0 1-4-66Z"/><path d="M1051 208A292 292 0 0 0 838 2v1c29 13 46 43 53 75a460 460 0 0 1 47 118c19 80 16 164-7 242a663 663 0 0 0 43 57 292 292 0 0 0 77-287Z" style="fill:#00ff7d"/><path class="cls-5-red-level-four" d="M938 196a460 460 0 0 0-47-118 159 159 0 0 1 3 34c-1 56-10 92-18 130-8 44-3 108 55 196 23-78 26-162 7-242Z"/><path class="cls-3-red-level-four" d="M1222 973c-67-18-118-80-119-154 0-79 62-136 117-154 84-28 189 17 239 116-2 17-13 95-80 148-18 15-81 65-157 44Z"/><path d="M972 505c-12-79 40-139 50-151 55-62 129-67 143-68l52 61c-25-1-57 3-90 18-110 50-133 181-135 196a166 166 0 0 1-20-56Z" style="fill:#663606"/><path class="cls-4-red-level-four" d="M469 1184a1411 1411 0 0 1-101-145c-38-64-51-125-57-154-17-82-53-256 54-404a418 418 0 0 1 258-158c26-5 147-23 254 43 58 35 94 84 110 113a171 171 0 0 1 15 40 163 163 0 0 1 1 74l-16-114a213 213 0 0 1 72 3c125 26 182 163 191 185 59 141-7 295-16 316a475 475 0 0 1-208 220c-18 11-83 46-176 62-147 25-319-5-381-81Z"/><path class="cls-8-red-level-four" d="M350 883c24-28 83-11 113 5 12 6 67 36 67 87 1 39-30 67-38 74-13 11-30 26-52 26-47-1-75-74-83-94-12-31-28-74-7-98Z"/><path d="M707 1140c0-3 1-23-15-38a48 48 0 0 0-34-12 206 206 0 0 0-3 29l-1 25h11l23 1a4 4 0 0 1 2 6l-26 29a4 4 0 0 1-1 1 58 58 0 0 0 9 13c12 13 28 18 41 20a60 60 0 0 0-6-74Z" style="fill:#ff7687"/><path d="M845 1102a4 4 0 0 1-1 4l-21 15a4 4 0 0 1-5-3l-1-22a71 71 0 0 1-13-8 83 83 0 0 1-21-23 72 72 0 0 1-32-2 74 74 0 0 1-15-5 3 3 0 0 1-2 1l-28 10a4 4 0 0 1-5-3l4-28a4 4 0 0 1 4-3 125 125 0 0 1-17-28c-13 21-27 49-34 83 10 0 23 2 34 12 16 15 15 35 15 38a60 60 0 0 1 5 74 118 118 0 0 0 15 1c42 2 73-24 98-45 16-13 25-24 29-29a160 160 0 0 0 22-44 89 89 0 0 1-31 5Z" style="fill:#7c0d17"/><path class="cls-11-red-level-four" d="m823 1121 21-15a4 4 0 0 0 1-4 75 75 0 0 1-28-6l1 22a4 4 0 0 0 5 3ZM705 1038l-4 28a4 4 0 0 0 5 4l29-11a3 3 0 0 0 2-1 93 93 0 0 1-28-23 4 4 0 0 0-4 3ZM690 1151a4 4 0 0 0-2-6l-23-1h-11c1 13 3 26 9 37a4 4 0 0 0 1-1Z"/><path class="cls-12-red-level-four" d="M729 807a50 50 0 0 0-66 26l-20 46a50 50 0 0 0 92 40l20-46a50 50 0 0 0-26-66Z"/><circle class="cls-13-red-level-four" cx="690.9" cy="897.2" r="44.3"/><circle class="cls-12-red-level-four" cx="687.4" cy="862.2" r="22.1"/><path class="cls-12-red-level-four" d="M1014 939a50 50 0 0 0-70 12l-29 40a50 50 0 1 0 81 59l30-41a50 50 0 0 0-12-70Z"/><circle class="cls-13-red-level-four" cx="957.1" cy="1021.7" r="44"/><circle class="cls-12-red-level-four" cx="950.8" cy="995.1" r="23.5"/><path class="cls-13-red-level-four" d="M794 1030a73 73 0 0 1-2 9l-1 4-1 2v2a73 73 0 0 1-4 8l-3 4-1 1-1 1v1c-2 2-2 5 0 7 1 2 5 2 7 0a78 78 0 0 0 16-37c0-2-1-5-4-6-2 0-5 1-6 4Z"/><path class="cls-13-red-level-four" d="M685 1011a101 101 0 0 0 20 30 98 98 0 0 0 53 28 102 102 0 0 0 25 1c2 0 5-2 5-5-1-2-3-5-5-5l-9 1a74 74 0 0 1-8-1h-2a101 101 0 0 1-14-3 98 98 0 0 1-9-3v-1h-1l-4-2a92 92 0 0 1-13-8l-1-1h-1a98 98 0 0 1-7-7 95 95 0 0 1-8-8v-1a11 11 0 0 1-1 0l-2-3-2-4a95 95 0 0 1-7-13c-1-3-5-3-7-2-3 2-3 4-2 7Z"/><path class="cls-13-red-level-four" d="M780 1068a77 77 0 0 0 30 30c18 9 39 10 58 5a83 83 0 0 0 15-6 5 5 0 0 0 2-7 5 5 0 0 0-7-2l-4 2c-1 1 1 0 0 0l-2 1-4 2a82 82 0 0 1-10 2l-3 1h-21l-1-1a70 70 0 0 1-8-2 54 54 0 0 1-7-2 68 68 0 0 1-11-7l-1-1-1-1-2-2-4-3a75 75 0 0 1-5-6c-1-1 0 1 0 0l-2-2a71 71 0 0 1-4-6 5 5 0 0 0-8 5Z"/><path class="cls-3-red-level-four" d="M849 372a253 253 0 0 0-95-37 250 250 0 0 0-48-4c2 43-12 78-26 104a220 220 0 0 1 169-63ZM421 562l71 7a324 324 0 0 0-178 194 555 555 0 0 1 26-207l81 6ZM998 502a276 276 0 0 1-71 241l13-5c59-27 72-81 105-115 20-20 56-43 126-46a201 201 0 0 0-63-52c-47-25-90-24-110-23Z"/><path class="cls-8-red-level-four" d="M938 1130c-33 14-50 47-55 59a141 141 0 0 0-8 20c-5 17 10 32 27 27a455 455 0 0 0 127-60 22 22 0 0 0-1-37c-30-17-63-21-90-9Z"/><path class="cls-3-red-level-four" d="M674 233c-51-73-155-97-239-77-77 17-158 76-182 171-19 79 1 183 80 235 101 67 222-1 236-9 54-30 83-73 93-90l18-28a199 199 0 0 0 26-112c-2-17-7-55-32-90Z"/><path class="cls-3-red-level-four" d="M663 223c-22-35-89-100-197-157-31 11-90 37-143 95-22 25-69 77-81 157-2 15-22 168 80 235 101 66 222-1 236-9 54-31 82-73 93-90l18-28a199 199 0 0 0 25-113c1 0-3-43-31-90Z"/><path class="cls-4-red-level-four" d="M681 200c-21-35-89-100-196-157-32 11-91 37-143 95-23 25-69 77-81 157-3 15-23 168 79 235 101 66 222-1 237-9 54-31 82-73 93-90l17-28a199 199 0 0 0 26-113s-4-43-32-90Z"/><path class="cls-8-red-level-four" d="M582 477c-32 31-93 61-152 35-55-25-81-85-76-139 5-60 50-107 102-122 53-17 124-3 158 50 38 60 9 135-32 176Z"/><path d="M781 1045c-7-4-12-7-13-12-2-9 12-21 26-21 10 0 17 7 19 8 9 10 12 27 6 33-8 8-29-3-38-8Z" style="fill:#fdd301"/><path class="cls-15-red-level-four" d="M256 931c-4 7-22 36-57 43-39 9-87-12-102-57-15-43 9-90 47-108 42-19 93-3 114 33 24 41 0 86-2 89Z"/><path d="M253 910c-4 7-20 31-50 37-33 6-74-12-87-51-11-38 10-77 44-92 36-16 79-2 97 30 19 36-3 74-4 76Z" style="fill:#ff7081"/><path class="cls-4-red-level-four" d="M889 1254a116 116 0 0 0-3 13 123 123 0 0 0 4 66l23 4c33 8 42 11 58 6 2 0 42-12 52-48a74 74 0 0 0 2-20c-37-30-91-38-136-21Z"/><path d="M1143 1248a27 27 0 0 0-14-11 249 249 0 0 0-37 8c-4 1-8 2-12 6a24 24 0 0 0-7 14l71-16-1-1Z" style="fill:#6c6565"/><path d="M1091 1290c6 1 11-1 17-2l17-4c11-4 17-6 20-11 5-8 3-17-1-24l-71 16a23 23 0 0 0 1 9c2 9 10 15 17 16Z" style="fill:#a9a9a9"/><path class="cls-15-red-level-four" d="M1405 1222c4 7 30 43 20 87-15 63-88 81-91 81-49 11-88-13-116-30-35-22-59-51-69-64a310 310 0 0 1-22-32c9-33 26-78 63-118 20-24 43-49 82-59 8-2 78-19 117 30 35 42 17 100 16 105Z"/><path d="M1416 1216c4 6 30 43 20 87-15 63-88 80-91 81-49 11-88-14-116-31-35-21-59-51-69-64a308 308 0 0 1-22-31c9-34 26-78 62-119 21-23 44-49 83-58 8-3 78-19 117 30 35 42 17 100 16 105Z" style="fill:#ff9d93"/><path d="M1399 1218c4 5 25 36 16 72-12 53-72 68-76 68-40 9-73-11-96-25-29-18-49-43-58-54a257 257 0 0 1-18-26c7-28 22-65 52-99 17-20 37-41 69-49 7-2 65-16 98 25 29 35 14 84 13 88Z" style="fill:#ff5757"/><path d="M1385 1221c4 5 24 34 16 69-11 50-69 64-72 64-38 8-69-11-91-24-28-17-47-41-55-51a244 244 0 0 1-17-25c7-26 20-62 49-94 16-18 35-38 65-46 7-2 62-15 93 24 28 33 13 79 12 83Z" style="fill:#caefff"/><path d="m1066 1234-98 20-86 20a44 44 0 0 0-13 23 41 41 0 0 0 0 6l216-46c-5-14-16-21-19-23Z" style="fill:#ff5f54"/><path d="M888 1341c12 7 25 4 42 0 37-7 116-20 147-33 3-1 12-6 14-13a13 13 0 0 0 0-8 8 8 0 0 0-5-6 43 43 0 0 0 0-21l-1-3-216 46c-1 16 8 31 19 38Z" style="fill:#ffa49c"/><path class="cls-12-red-level-four" d="M1362 1209c3-18-1-50-28-64-21-11-49-5-67 15a81 81 0 0 1 92 63 62 62 0 0 0 3-14Z"/><path class="cls-4-red-level-four" d="M1020 1344c-11 14-28 16-40 18-12 1-29 3-42-8s-17-31-11-47c9-23 32-31 37-32 2-1 39-10 57 16 11 16 10 38-1 53Z"/></svg>