<svg
  width="44"
  height="63"
  viewBox="0 0 44 63"
  fill="none"
  xmlns="http://www.w3.org/2000/svg"
>
  <path
    d="M1.48444 19.6197C1.70467 13.3981 3.63173 8.63548 7.26561 5.33195C10.8995 1.97336 15.9649 0.294067 22.4618 0.294067C26.7014 0.294067 30.3077 1.03736 33.2809 2.52395C36.3091 3.95548 38.5941 5.9376 40.1357 8.47031C41.6774 10.948 42.4482 13.7559 42.4482 16.8943C42.4482 20.6383 41.5397 23.639 39.7228 25.8964C37.9058 28.0988 35.8411 29.5854 33.5287 30.3562V30.6865C40.1908 33.1642 43.5219 37.8992 43.5219 44.8917C43.5219 48.3604 42.7235 51.4162 41.1268 54.059C39.5301 56.7018 37.2176 58.7665 34.1894 60.2531C31.1611 61.7397 27.5548 62.483 23.3703 62.483C16.488 62.483 11.0371 60.8312 7.01785 57.5277C3.05361 54.1691 0.988907 49.0487 0.82373 42.1663H16.5981C16.488 44.3687 16.956 46.0755 18.0021 47.2868C19.0482 48.4981 20.6174 49.1037 22.7096 49.1037C24.3063 49.1037 25.5451 48.6082 26.4261 47.6171C27.3621 46.6261 27.8301 45.3047 27.8301 43.6529C27.8301 41.5607 27.1418 40.019 25.7654 39.0279C24.444 38.0369 22.2691 37.5414 19.2409 37.5414H16.3503V24.4098H19.1583C21.2506 24.4649 23.0124 24.1345 24.444 23.4188C25.9306 22.6479 26.6738 21.1338 26.6738 18.8764C26.6738 17.1696 26.2609 15.9032 25.435 15.0774C24.6091 14.1964 23.4804 13.7559 22.0489 13.7559C20.4522 13.7559 19.2684 14.3341 18.4976 15.4903C17.7818 16.5915 17.3689 17.9679 17.2588 19.6197H1.48444Z"
    fill="white"
  />
</svg>
