<svg width="43" height="60" viewBox="0 0 43 60" fill="none" xmlns="http://www.w3.org/2000/svg">
<path d="M39.524 14.186H14.924V23.288C15.9627 22.1947 17.384 21.32 19.188 20.664C20.992 20.008 22.9873 19.68 25.174 19.68C29.11 19.68 32.39 20.582 35.014 22.386C37.6927 24.19 39.6607 26.568 40.918 29.52C42.1753 32.472 42.804 35.6973 42.804 39.196C42.804 45.6467 40.9727 50.7307 37.31 54.448C33.6473 58.1107 28.5633 59.942 22.058 59.942C17.5207 59.942 13.5847 59.1767 10.25 57.646C6.97 56.0607 4.45533 53.874 2.706 51.086C0.956667 48.298 0.0546668 45.1 0 41.492H15.662C15.826 42.7493 16.3727 43.8427 17.302 44.772C18.2313 45.7013 19.598 46.166 21.402 46.166C23.3153 46.166 24.764 45.51 25.748 44.198C26.732 42.886 27.224 41.1367 27.224 38.95C27.224 36.818 26.7047 35.2053 25.666 34.112C24.6273 32.964 23.124 32.39 21.156 32.39C19.68 32.39 18.4773 32.7727 17.548 33.538C16.6733 34.2487 16.154 35.1507 15.99 36.244H0.328V0H39.524V14.186Z" fill="white"/>
</svg>
