<svg width="44" height="62" viewBox="0 0 44 62" fill="none" xmlns="http://www.w3.org/2000/svg">
<path d="M0.987442 48.9387C6.32815 44.7542 10.7053 41.1478 14.119 38.1196C17.5326 35.0914 20.3957 31.9805 22.7081 28.7871C25.0206 25.5387 26.1769 22.4554 26.1769 19.5373C26.1769 17.7754 25.7639 16.3989 24.938 15.4078C24.1672 14.4168 23.011 13.9213 21.4693 13.9213C19.8726 13.9213 18.6338 14.6095 17.7529 15.986C16.8719 17.3074 16.459 19.262 16.514 21.8497H0.822266C0.987442 16.9495 2.06109 12.9027 4.04321 9.70925C6.02532 6.46078 8.61309 4.09325 11.8065 2.60666C14.9999 1.06501 18.5512 0.294189 22.4604 0.294189C29.2326 0.294189 34.2705 1.97348 37.574 5.33207C40.8776 8.69066 42.5293 13.0403 42.5293 18.381C42.5293 24.1071 40.6023 29.4754 36.7481 34.4857C32.9491 39.4961 28.1865 43.9834 22.4604 47.9476H43.1074V61.0791H0.987442V48.9387Z" fill="white"/>
</svg>
