<svg width="24" height="24" viewBox="0 0 24 24" fill="none" xmlns="http://www.w3.org/2000/svg">
<g opacity="0.8">
<path d="M8.73926 19.6797C9.12207 19.6797 9.40918 19.4951 9.87402 19.085L12.2188 17.0068H16.3545C18.4121 17.0068 19.5674 15.8311 19.5674 13.8008V8.49609C19.5674 6.46582 18.4121 5.29004 16.3545 5.29004H7.63867C5.58105 5.29004 4.42578 6.46582 4.42578 8.49609V13.8008C4.42578 15.8311 5.6084 17.0068 7.59082 17.0068H7.87109V18.6953C7.87109 19.3037 8.19238 19.6797 8.73926 19.6797ZM9.07422 18.1758V16.2275C9.07422 15.8242 8.90332 15.667 8.51367 15.667H7.67285C6.38086 15.667 5.76562 15.0176 5.76562 13.7598V8.53711C5.76562 7.2793 6.38086 6.62988 7.67285 6.62988H16.3135C17.6055 6.62988 18.2275 7.2793 18.2275 8.53711V13.7598C18.2275 15.0176 17.6055 15.667 16.3135 15.667H12.1436C11.7334 15.667 11.5283 15.7354 11.2412 16.0361L9.07422 18.1758ZM12 12.29C12.3691 12.29 12.5811 12.0781 12.5947 11.6885L12.6973 8.36621C12.7109 7.96973 12.4102 7.67578 11.9932 7.67578C11.5693 7.67578 11.2822 7.96289 11.2891 8.35938L11.3916 11.6885C11.3984 12.0781 11.6172 12.29 12 12.29ZM12 14.5527C12.4375 14.5527 12.7998 14.2383 12.7998 13.8008C12.7998 13.3701 12.4443 13.0557 12 13.0557C11.5557 13.0557 11.2002 13.377 11.2002 13.8008C11.2002 14.2314 11.5625 14.5527 12 14.5527Z" fill="#F8F8F8"/>
</g>
</svg>
