<svg version="1.1" id="donut-profile-level-one" xmlns="http://www.w3.org/2000/svg" x="0" y="0" viewBox="0 0 669 669.2" style="enable-background:new 0 0 669 669.2" xml:space="preserve"><style>.cls-3-donut-rabbit-level-one{fill:#070707}</style><path d="M317.3 43.4a334.6 334.6 0 0 1 318.9 435.9A334.6 334.6 0 1 0 15.6 233.2 334.6 334.6 0 0 1 317.3 43.4z" style="fill:#e51570"/><path d="M334.5 669.1a334.5 334.5 0 0 0 301.7-189.9 334.6 334.6 0 0 0-620.6-246 334.6 334.6 0 0 0 318.9 435.9z" style="fill:#ff007e"/><circle class="cls-3-donut-rabbit-level-one" cx="242" cy="422.8" r="16.7"/><circle class="cls-3-donut-rabbit-level-one" cx="394.9" cy="422.8" r="16.7"/><path d="M316.7 413.8a61.5 61.5 0 1 0 61.5 61.5c0-34-27.5-61.5-61.5-61.5zm0 88a26.5 26.5 0 1 1 26.5-26.5 26.5 26.5 0 0 1-26.5 26.5z" style="fill:#ff89c5"/><path class="cls-3-donut-rabbit-level-one" d="m199.9 390.7.9-.8c.3-.2.1-.3-.2.1l.5-.4c.6-.4 1.2-.9 1.9-1.2l2-1.1 1-.5-.2.1.8-.3c1.4-.5 2.9-.9 4.4-1.2l1.1-.2.5-.1s-.9.1-.1 0l2.4-.2h2.3l1 .1.6.1c.4 0-.8-.1 0 0 1.5.2 2.9.6 4.3 1l.9.3.5.2c.4.2.2.3-.1-.1l.9.4 1.1.6a22 22 0 0 1 3.9 2.6l.9.8 1.7 1.7.8.9.4.4.1.2-.2-.1 1.4 2c1 1.7 3.2 2.3 4.9 1.3s2.3-3.2 1.3-4.9c-3.7-5.9-9.3-10.4-15.8-12.8s-13.7-2.5-20.3-.2a31.2 31.2 0 0 0-10.6 6.1 3.5 3.5 0 0 0 0 5 3.7 3.7 0 0 0 5 0v.2zM439.9 385.6a31 31 0 0 0-46.7 6.8c-1 1.7-.4 3.9 1.3 4.9 1.7 1 3.9.4 4.9-1.3l1.2-1.8c.4-.6 0 .1-.1.1l.3-.4.7-.9c1-1.1 2-2.1 3.2-3.1l.5-.4s-.7.5-.2.1l.8-.6 1.9-1.2 1.8-1 .9-.4c.7-.3-.6.2-.1 0l.6-.2c1.3-.5 2.7-.9 4.1-1.2l1-.2h.2-.2.5l2.4-.1 2.1.1 1.1.1.6.1s-.9-.1 0 0c1.5.2 3 .6 4.4 1.1l1.1.4.5.2-.3-.1.3.1 2.2 1.1 2.2 1.4.4.3.4.3-.4-.3 1.1.9c1.5 1.2 3.8 1 5-.6 1.2-1 1.2-2.8.3-4.2z"/></svg>