<svg
  version="1.1"
  id="green-profile-level-four"
  xmlns="http://www.w3.org/2000/svg"
  x="0"
  y="0"
  viewBox="0 0 906.7 1007.5"
  style="enable-background: new 0 0 906.7 1007.5"
  xml:space="preserve"
>
  <style>
    .cls-1-avocado-snowman-level-four-profile {
      fill: #08fd50;
    }
    .cls-4-avocado-snowman-level-four-profile {
      fill: #fff;
    }
    .cls-5-avocado-snowman-level-four-profile {
      fill: #070707;
    }
    .cls-9-avocado-snowman-level-four-profile {
      fill: #ff7bac;
    }
    .cls-10-avocado-snowman-level-four-profile {
      fill: #e25890;
    }
  </style>
  <path
    class="cls-1-avocado-snowman-level-four-profile"
    d="M101 879c76 23 156 35 236 40l19 1 75 2c78-1 157-6 235-12l33-2 81-9c42-33 76-73 100-117 17-41 27-86 27-132 0-207-190-375-430-386h-24C203 264 0 437 0 650c0 53 13 104 36 150 17 28 39 55 65 79z"
  />
  <ellipse cx="453.3" cy="644.4" rx="301" ry="247.8" style="fill: #00da2c" />
  <ellipse cx="453.3" cy="656.7" rx="284" ry="233.8" style="fill: #04b564" />
  <path
    class="cls-4-avocado-snowman-level-four-profile"
    d="M579 760c-1 1-18-16-28-41-4-11-4-14-2-17 4-7 14-5 22-3s15 4 21 9 12 11 11 19c0 7-4 13-9 17-8 5-17 1-19 6-2 4 5 10 4 10zM297 732c-1-1 16-19 41-28 11-4 14-4 17-2 7 4 5 14 3 22-2 7-4 15-9 21s-11 11-19 11c-7 0-13-4-16-9-6-9-2-17-6-19s-10 5-11 4z"
  />
  <circle
    class="cls-5-avocado-snowman-level-four-profile"
    cx="431.7"
    cy="682.7"
    r="9.6"
  />
  <circle
    class="cls-5-avocado-snowman-level-four-profile"
    cx="484.7"
    cy="681.1"
    r="9.6"
  />
  <path
    d="M431 792c-6-2-11-5-15-3-6 3-8 11-9 14-1 5 0 10 1 16 1 15 4 31 15 40 12 10 31 9 45 0s22-23 29-37c3-6 6-18 1-24-3-4-8-2-22-2-22 0-33 0-45-4z"
    style="fill: #fd0300"
  />
  <path
    class="cls-5-avocado-snowman-level-four-profile"
    d="m258 688 2 6-1-4v6l1-3-2 7 1-3-4 7 2-2-6 6 3-3-7 4 3-1-6 2 3-1h-6l4 1h-2l-5-1-5 2-4 4-2 4c-1 4-1 7 1 11l8 6a36 36 0 0 0 18-1l9-3a44 44 0 0 0 12-10l5-7a53 53 0 0 0 6-14v-10l-2-10-2-5-4-3-5-2h-5c-4 1-7 4-8 7l-2 3v7zM610 667a50 50 0 0 0 67 17c3-1 5-4 6-8v-5l-1-5c-2-3-5-5-8-6-4-1-7-1-11 1l-3 2 3-2-9 3h3-9 3l-9-2 3 1-8-5 2 2-6-7 2 3-2-2c-2-3-5-6-8-7h-5l-5 2c-3 1-6 4-7 8s0 7 2 10z"
  />
  <path
    class="cls-5-avocado-snowman-level-four-profile"
    d="M269 727a264 264 0 0 0 161 76c28 4 57 2 86-4 26-6 52-17 74-33a157 157 0 0 0 52-66l3-9c3-6-2-15-9-16-7-2-14 2-16 9l-4 11 1-3c-4 9-9 19-16 27l2-3c-7 10-16 19-26 26l3-2c-13 9-26 17-40 23l3-1c-17 7-35 12-54 14h4c-22 3-45 3-67 0h4c-23-3-46-9-67-18l3 1c-21-9-40-20-58-33l3 2-22-20c-5-5-14-5-19 0s-6 14-1 19z"
  />
  <ellipse cx="445.6" cy="223.1" rx="141.5" ry="115.4" style="fill: #92dce9" />
  <ellipse cx="445.6" cy="212.5" rx="141.5" ry="115.4" style="fill: #baf1ff" />
  <path
    class="cls-9-avocado-snowman-level-four-profile"
    d="M348 122c-7 3-13 8-18 14-4 6-9 12-8 21 0 8 5 16 13 18 7 2 15-2 23-6 7-4 15-8 23-5 9 4 12 16 21 20 7 3 15 0 22-3s14-8 22-8c9 0 17 6 24 12s17 12 26 10l18-9c9-3 19 0 28 3 9 4 20 6 28 2 9-5 12-16 11-26-2-9-8-17-16-24-19-18-46-27-73-29-39-4-35 7-80 4-20-1-44-4-64 6z"
  />
  <ellipse
    class="cls-10-avocado-snowman-level-four-profile"
    cx="445.6"
    cy="83"
    rx="91.9"
    ry="74.9"
  />
  <ellipse
    class="cls-9-avocado-snowman-level-four-profile"
    cx="445.6"
    cy="74.9"
    rx="91.9"
    ry="74.9"
  />
  <path
    class="cls-4-avocado-snowman-level-four-profile"
    d="M456 809c1 12-2 24-10 34-1 1 1 3 2 2 9-11 12-24 11-37l-2-1-1 2z"
  />
  <path
    class="cls-1-avocado-snowman-level-four-profile"
    d="M453 264zM477 264z"
  />
  <path
    class="cls-10-avocado-snowman-level-four-profile"
    d="M475 264h1-1zM431 922l-75-2-19-1 19 1 75 2z"
  />
  <path
    d="M667 910a3197 3197 0 0 1-311 10l-19-1c-80-5-160-17-236-40 85 79 211 129 351 129 128 0 244-42 328-109l-81 9-32 2z"
    style="fill: #f489b0"
  />
  <path
    class="cls-10-avocado-snowman-level-four-profile"
    d="M101 879zM699 908l81-9-81 9zM667 910z"
  />
</svg>
