<?xml version="1.0" encoding="utf-8"?>
<!-- Generator: Adobe Illustrator 25.4.1, SVG Export Plug-In . SVG Version: 6.00 Build 0)  -->
<svg version="1.1" id="레이어_1" xmlns="http://www.w3.org/2000/svg" xmlns:xlink="http://www.w3.org/1999/xlink" x="0px"
	 y="0px" viewBox="0 0 1302.2 1168.5" style="enable-background:new 0 0 1302.2 1168.5;" xml:space="preserve">
<style type="text/css">
	.cls-1-peach-bear-level-four{fill:#87FF7B;}
	.cls-2-peach-bear-level-four{fill:#D11022;}
	.cls-3-peach-bear-level-four{fill:#00FF7D;}
	.cls-4-peach-bear-level-four{fill:#663606;}
	.cls-5-peach-bear-level-four{fill:#FD0300;}
	.cls-6-peach-bear-level-four{fill:#FC4401;}
	.cls-7-peach-bear-level-four{fill:#FF7687;}
	.cls-8-peach-bear-level-four{fill:#7C0D17;}
	.cls-9-peach-bear-level-four{fill:#FFC2FF;}
	.cls-10-peach-bear-level-four{fill:#FFFFFF;}
	.cls-11-peach-bear-level-four{fill:#070707;}
	.cls-12-peach-bear-level-four{fill:#FDD301;}
</style>
<path class="cls-1-peach-bear-level-four" d="M1017.9,932.6c0.4,0.1,0.7,0.3,1.1,0.4l-0.3-0.3L1017.9,932.6z"/>
<path class="cls-2-peach-bear-level-four" d="M1124.2,725.5c-69.2,0.9-135.5-44.5-156.1-115.2c-22.2-76.4,21.4-147.6,69.9-181c72.8-50.1,186-35,261.2,46.1
	c2.9,17.4,13.7,94.5-36.2,164.9C1249.9,658.8,1203.5,724.5,1124.2,725.5z"/>
<g>
	<path class="cls-3-peach-bear-level-four" d="M752.9,105.9C710.8,37.2,634.8-3.2,554.4,0.2l0.3,0.2c23.9,3.5,42.5,21.6,54,43.6
		c23.3,22.8,43.2,48.7,59.3,76.9c30.5,53.9,46.1,115.9,45.6,177.8c13.7,11.7,28,22.6,42.9,32.7C796.5,261.2,795.1,174.8,752.9,105.9
		z"/>
	<path class="cls-1-peach-bear-level-four" d="M668,120.9c-16.1-28.3-36.1-54.2-59.3-76.9c4.1,7.8,7.3,16,9.6,24.5c11.1,41,11.5,69.7,14.1,98.6
		c3,34.1,20.4,79.5,81.2,131.6C714.1,236.9,698.5,174.8,668,120.9z"/>
	<path class="cls-4-peach-bear-level-four" d="M757.6,339c-25.3-55.1-0.6-110,4.4-120.6c27-56.6,80-76.1,90.6-79.7l50.1,33.5c-17.9,4.9-40.7,14.2-61.9,32.3
		C771.1,264,782,364.3,783.4,375.8C772.7,365.2,764,352.8,757.6,339z"/>
</g>
<path class="cls-5-peach-bear-level-four" d="M458.3,1135.3c-8.5-5.8-41.6-30-80.1-61.7c-12.4-10.2-37.7-31.1-56.6-49.2c-53.9-51.6-83-106.7-96.8-132.8
	c-39.2-74.4-122.3-231.5-59.4-402.8c54.9-149.7,184.9-214.5,203.6-223.4c24.4-11.7,136-62.1,256.8-28.5
	c65,18.1,113.2,54.7,136.2,78.3c10.2,10.3,19,21.9,26.3,34.4c12,21.6,19,45.7,20.3,70.5c-15.6-34.9-31.1-69.9-46.6-104.9
	c22.3-9.8,46.2-15.7,70.5-17.5c127.6-8.6,219.9,106.7,234.8,125.4c95.5,119.4,74.3,285.8,71.2,308.5
	c-19.8,144.9-106,235.3-138.9,269.1c-14.8,15.2-67.2,67-152.8,108C713.2,1172.9,539.6,1191,458.3,1135.3z"/>
<path class="cls-6-peach-bear-level-four" d="M261.2,879.2c15.6-33.3,76.5-33.7,110.7-26.4c12.6,2.7,73.4,15.7,88.4,64.9c11.4,37.4-10.8,72.4-16.9,82
	c-8.8,13.8-21.2,33.4-42.7,39c-45.7,11.8-92.5-50.3-105.6-67.8C275.6,945,247.7,908,261.2,879.2z"/>
<path class="cls-7-peach-bear-level-four" d="M675.4,1028.2c-0.7-2.9-5.5-22.5-24.8-32.5c-13.4-7-26.7-5.6-36-2.9c0.9,9.7,2.4,19.4,4.6,28.8
	c1.9,7.9,3.8,16.3,6.5,24.4c3.4-1,6.9-2,10.5-2.9c7.5-2,14.8-3.8,22-5.4c1.9-0.4,3.8,0.8,4.2,2.7c0.2,0.8,0.1,1.6-0.3,2.3
	l-16.8,35.2c-0.3,0.5-0.7,1-1.1,1.4c3.7,3.8,7.8,7.1,12.4,9.7c15.5,9.1,32.3,9.5,44.6,8C709.3,1071,698.7,1042.7,675.4,1028.2
	L675.4,1028.2z"/>
<path class="cls-8-peach-bear-level-four" d="M797.3,952.8c1.4,1.3,1.5,3.4,0.3,4.8l-15.8,19.5c-1.2,1.5-3.5,1.8-5,0.5c-0.5-0.4-1-1-1.2-1.7l-6.4-21.2
	c-4.9-0.6-9.8-1.7-14.5-3.4c-10-3.6-19.3-9-27.3-16.1c-9.7,4.6-20.4,6.9-31.2,6.9c-5.1,0-10.2-0.6-15.3-1.7
	c-0.2,0.9-0.7,1.7-1.4,2.3l-24.5,17.6c-1.6,1.1-3.8,0.8-4.9-0.8c-0.3-0.5-0.5-1-0.6-1.5c-1.4-9.4-2.9-18.7-4.3-28.1
	c-0.3-1.9,1-3.7,2.9-4c0.1,0,0.2,0,0.3,0c-8.9-6.2-17-13.5-24-21.7c-7.2,23.5-13,54.4-9.9,88.8c9.4-2.7,22.6-4.1,36,2.9
	c19.2,10,24.1,29.5,24.8,32.5c23.3,14.4,33.8,42.8,25.7,68.9c4.9-0.6,9.8-1.5,14.6-2.7c40.1-9.7,63-42.9,81.8-70.1
	c11.9-17.2,17.1-30.1,19.5-36.6c5.6-15.6,8.7-31.9,9.2-48.4C817.5,945.5,807.7,950.1,797.3,952.8z"/>
<path class="cls-9-peach-bear-level-four" d="M781.8,977.1l15.8-19.5c1.2-1.4,1-3.5-0.3-4.8c-9.1,2.4-18.6,3-28,1.9l6.4,21.2c0.6,1.9,2.6,2.9,4.4,2.3
	C780.8,978,781.4,977.6,781.8,977.1z"/>
<path class="cls-9-peach-bear-level-four" d="M645.3,929.8c1.4,9.4,2.9,18.7,4.3,28.1c0.3,1.9,2.1,3.3,4,3c0.6-0.1,1.1-0.3,1.5-0.6l24.5-17.6
	c0.8-0.5,1.3-1.3,1.4-2.3c-11.7-2.7-22.8-7.7-32.6-14.6c-1.9,0.1-3.4,1.8-3.3,3.7C645.3,929.6,645.3,929.7,645.3,929.8z"/>
<path class="cls-9-peach-bear-level-four" d="M662.1,1042.9c0.8-1.8,0.1-3.9-1.7-4.7c-0.7-0.3-1.5-0.4-2.3-0.3c-7.2,1.6-14.5,3.4-22,5.4
	c-3.6,0.9-7,1.9-10.5,2.9c4,12.2,9.5,24,18.5,33.3c0.5-0.4,0.9-0.8,1.1-1.4L662.1,1042.9z"/>
<path class="cls-10-peach-bear-level-four" d="M605.3,701.6c-27.5-3.7-52.8,15.6-56.5,43l-6.7,49.8c-3.7,27.5,15.6,52.8,43.1,56.5
	c27.5,3.7,52.8-15.6,56.5-43.1l0,0l6.7-49.8C652.1,730.6,632.8,705.3,605.3,701.6C605.3,701.6,605.3,701.6,605.3,701.6z"/>
<circle class="cls-11-peach-bear-level-four" cx="593.1" cy="798.8" r="44.3"/>
<circle class="cls-10-peach-bear-level-four" cx="580" cy="766.1" r="22.1"/>
<path class="cls-10-peach-bear-level-four" d="M915.5,750.1c-26.1-9.4-54.8,4.2-64.2,30.3l-17,47.3c-9.4,26.1,4.2,54.9,30.3,64.2c26.1,9.4,54.9-4.2,64.2-30.3
	l17-47.3C955.1,788.3,941.6,759.5,915.5,750.1C915.5,750.1,915.5,750.1,915.5,750.1z"/>
<circle class="cls-11-peach-bear-level-four" cx="883.3" cy="845.1" r="44"/>
<circle class="cls-10-peach-bear-level-four" cx="869.9" cy="821.2" r="23.5"/>
<path class="cls-11-peach-bear-level-four" d="M728.8,897.8c0.4,3,0.6,6.1,0.7,9.2c0,1.5,0,3-0.1,4.5c0,0.8-0.1,1.6-0.2,2.4c0,0.4-0.1,0.8-0.1,1.2
	c0,0.2-0.1,1.2,0,0.4c-0.4,3-0.9,5.9-1.6,8.8c-0.4,1.5-0.8,3-1.3,4.5c-0.2,0.7-0.4,1.3-0.7,2l-0.4,1.2c-0.1,0.2-0.6,1.4-0.2,0.6
	c-1,2.4-0.7,5.5,1.9,6.8c2.2,1.1,5.7,0.6,6.8-1.9c5.2-12.5,7-26.1,5.3-39.6c-0.4-2.6-2.1-5.1-5-4.9
	C731.4,892.9,728.5,895,728.8,897.8L728.8,897.8z"/>
<path class="cls-11-peach-bear-level-four" d="M618.7,909.7c7.7,9.3,16.9,17.1,27.3,23.1c17.8,10.3,38.4,14.7,58.8,12.6c8.2-0.8,16.3-2.7,24-5.4
	c2.4-0.9,4.3-3.5,3.4-6.2c-0.8-2.4-3.5-4.4-6.2-3.4s-5.2,1.8-7.8,2.5c-1.7,0.5-3.5,0.9-5.2,1.2c-1,0.2-2,0.4-2.9,0.6
	c-0.4,0.1-0.9,0.2-1.3,0.2c-0.4,0.1-2,0.3-0.8,0.1c-4.6,0.6-9.3,0.9-14,0.9c-2.6,0-5.3-0.2-7.9-0.4c-0.7-0.1-1.4-0.1-2.1-0.2l-0.3,0
	l-1.1-0.1c-1.4-0.2-2.8-0.4-4.2-0.7c-4.8-0.9-9.6-2.3-14.2-4l-1.6-0.6l0,0l-0.6-0.2c-1.1-0.4-2.2-0.9-3.2-1.4
	c-1.9-0.9-3.8-1.8-5.7-2.9c-3.4-1.9-6.7-3.9-9.9-6.2c-0.3-0.2-1.5-0.9-0.3-0.2c-0.3-0.2-0.6-0.5-0.9-0.7c-0.7-0.6-1.5-1.1-2.2-1.7
	c-1.3-1-2.5-2.1-3.7-3.1c-3.8-3.4-7.3-7-10.6-11c-1.6-2-5.4-1.7-7.1,0.2C616.6,904.8,617,907.5,618.7,909.7L618.7,909.7z"/>
<path class="cls-11-peach-bear-level-four" d="M725.7,938.4c10.4,10.1,23.4,17.2,37.5,20.2c19.6,4.1,39.9-0.3,56.7-10.9c4.7-2.9,9.1-6.3,13.2-10.1
	c1.9-2,1.8-5.2-0.2-7.1c-2-1.8-5.1-1.8-7.1,0.2c-1.1,1-2.2,2-3.3,2.9l-0.6,0.5c-0.2,0.1,1-0.8,0.2-0.2l-1.6,1.2
	c-1.2,0.9-2.4,1.7-3.6,2.6c-2.9,2-6,3.8-9.1,5.3c-0.9,0.4-1.7,0.9-2.6,1.3c-0.4,0.2-1.4,0.6-0.4,0.2l-1.7,0.7
	c-2,0.8-4.1,1.6-6.2,2.2s-4.3,1.2-6.6,1.7c-0.6,0.1-1.2,0.2-1.8,0.3l-0.9,0.2c0,0-0.8,0.1-0.3,0.1c0.6-0.1-0.4,0-0.5,0.1l-1,0.1
	l-1.9,0.2c-2.6,0.2-5.2,0.3-7.8,0.2c-2.4-0.1-4.8-0.3-7.2-0.7c-4.4-0.7-8.7-1.8-12.9-3.4c-0.3-0.1-1.7-0.7-0.7-0.3l-1.3-0.5
	c-1-0.4-1.9-0.8-2.8-1.3c-1.7-0.8-3.4-1.7-5-2.7c-1.6-0.9-3.2-2-4.8-3c-0.3-0.2-0.7-0.5-1-0.7l-0.5-0.3c-0.7-0.5,0.7,0.5,0.2,0.2
	c-0.6-0.5-1.3-0.9-1.9-1.4c-1.9-1.5-3.8-3.2-5.6-4.9c-2.1-1.7-5.3-1.4-7,0.7C723.9,933.8,724,936.6,725.7,938.4L725.7,938.4z"/>
<path class="cls-2-peach-bear-level-four" d="M600.6,250.3c-32.9-10.1-67.6-13.4-101.9-9.7c-15.9,1.7-31.6,5-46.9,9.8c13.4,40.7,9.6,78.3,3.2,107.1
	C485.9,302.5,538.9,263.4,600.6,250.3z"/>
<path class="cls-2-peach-bear-level-four" d="M241.2,551.2c23.7-4.7,47.1-9.2,70.3-13.6c-71.1,58.5-113.9,144.4-117.9,236.4
	c-23.5-66.2-34.2-136.2-31.5-206.4C188.1,562,214.5,556.6,241.2,551.2z"/>
<path class="cls-2-peach-bear-level-four" d="M779.4,334.5c39.6,79,39,172.3-1.7,250.8c2.4-1.7,6.3-4.5,10.9-8.4c49.1-42,46.8-97.4,69.5-139.6
	c13.3-24.6,41.3-56.4,108.4-78.4c-22.5-16-48-27.2-75-33C839.9,315,797.8,327.7,779.4,334.5z"/>
<path class="cls-6-peach-bear-level-four" d="M894.5,954.1c-28.1,22.7-34.5,59.7-36.7,72.6c-1.2,7-1.9,14.1-2,21.2c-0.3,17.4,19,28.1,33.7,18.8
	c39.9-25.3,75.6-56.7,105.8-93.1c7.7-9.4,6.4-23.2-2.9-31c-2.6-2.1-5.6-3.6-8.8-4.4C950.4,930.4,917.5,935.4,894.5,954.1z"/>
<path class="cls-2-peach-bear-level-four" d="M393.5,164.6c-68.8-55.5-175.7-50-251.2-8c-68.5,38.1-130.5,116.9-126.9,215c3,81.4,51.1,175.4,141.4,203.7
	c115.3,36,212.7-62.2,224.5-74.2c43.4-43.8,59-92.6,64.8-111.6c2.7-8.7,6-19.6,8.8-32c6.5-28.8,10.2-66.4-3.2-107.1
	c-0.9-2.7-1.8-5.3-2.8-8C443.1,227,427.4,192,393.5,164.6z"/>
<path class="cls-2-peach-bear-level-four" d="M380.2,158.9c-30-27.8-113.1-71.8-232.3-97c-27.1,19.5-76.6,60.6-111,130.2C22.1,222.2-8.3,285.6,2.1,365.9
	C4,380.4,26.7,533.1,143.6,569.6c115.3,36,212.7-62.2,224.5-74.2c43.4-43.8,59-92.6,64.7-111.6c2.7-8.7,6-19.6,8.8-32
	c6.5-28.8,10.2-66.4-3.2-107.1c-0.9-2.7-1.8-5.3-2.8-8C435.7,236.6,420.4,196.2,380.2,158.9z"/>
<path class="cls-5-peach-bear-level-four" d="M391.6,131.7c-30-27.9-113.1-71.8-232.3-97c-27.1,19.5-76.6,60.6-111,130.2c-14.9,30.1-45.2,93.5-34.8,173.9
	c1.9,14.4,24.5,167.1,141.4,203.7c115.3,36,212.7-62.2,224.5-74.2c43.4-43.8,59-92.6,64.7-111.6c2.7-8.7,6-19.6,8.8-32
	c6.5-28.8,10.2-66.4-3.2-107.1c-0.9-2.7-1.8-5.3-2.8-8C447.1,209.4,431.8,168.9,391.6,131.7z"/>
<path class="cls-6-peach-bear-level-four" d="M372.7,424.4c-22.2,38.8-72.3,84.7-136.8,75.8C176,492,134.3,440.9,124.4,388.1
	C113.2,328.7,143,271.7,188.8,242c47.1-30.5,118.4-36.7,165.9,5.3C407.6,294.2,401.2,374.5,372.7,424.4z"/>
<path class="cls-12-peach-bear-level-four" d="M720.5,916c-8.4-1.9-13.9-3.2-15.9-7.6c-3.8-8.2,5.8-23.4,19-27.3c10.1-3,18.8,1.8,20.4,2.7
	c11.4,6.5,19,21.7,14.7,29.7C753.3,923.4,730.8,918.2,720.5,916z"/>
</svg>
