<?xml version="1.0" encoding="utf-8"?>
<!-- Generator: Adobe Illustrator 25.4.1, SVG Export Plug-In . SVG Version: 6.00 Build 0)  -->
<svg version="1.1" id="green-profile-level-four" xmlns="http://www.w3.org/2000/svg" xmlns:xlink="http://www.w3.org/1999/xlink" x="0px"
	 y="0px" viewBox="0 0 906.7 1007.5" style="enable-background:new 0 0 906.7 1007.5;" xml:space="preserve">
<style type="text/css">
	.cls-1-avocado-snowman-level-four{fill:#08FD50;}
	.cls-2-avocado-snowman-level-four{fill:#00DA2C;}
	.cls-3-avocado-snowman-level-four{fill:#04B564;}
	.cls-4-avocado-snowman-level-four{fill:#FFFFFF;}
	.cls-5-avocado-snowman-level-four{fill:#070707;}
	.cls-6-avocado-snowman-level-four{fill:#FD0300;}
	.cls-7-avocado-snowman-level-four{fill:#92DCE9;}
	.cls-8-avocado-snowman-level-four{fill:#BAF1FF;}
	.cls-9-avocado-snowman-level-four{fill:#FF7BAC;}
	.cls-10-avocado-snowman-level-four{fill:#E25890;}
	.cls-11-avocado-snowman-level-four{fill:#F489B0;}
	.cls-12-avocado-snowman-level-four{fill:#48BBFF;}
</style>
<path class="cls-1-avocado-snowman-level-four" d="M100.7,878.6c76.1,23.6,156.3,35.7,236.5,40.4c6.2,0.4,12.5,0.7,18.7,1c25,1.1,50,1.6,75,1.5
	c78.6-0.2,157.2-5.5,235.6-11.5c10.7-0.8,21.4-1.6,32.1-2.5c27.2-2.1,54.6-4.2,81.5-8.4c41.8-33.4,75.8-73.1,99.4-117.2
	c17.6-41.2,27.3-85.8,27.3-132.2c0-206.5-190.2-375.1-429.5-385.7c-0.2,0-0.5,0-0.7,0c-0.4,0-0.7,0-1.1,0c-7.5-0.3-15-0.4-22.5-0.5
	C202.7,263.8,0,436.6,0,649.7c0,53.3,12.7,104,35.6,150.2C53.1,828.4,75.1,854.8,100.7,878.6z"/>
<ellipse class="cls-2-avocado-snowman-level-four" cx="453.3" cy="644.4" rx="301" ry="247.8"/>
<ellipse class="cls-3-avocado-snowman-level-four" cx="453.3" cy="656.7" rx="284" ry="233.8"/>
<path class="cls-4-avocado-snowman-level-four" d="M579,760.1c-0.9,0.7-18.5-15.7-28.1-41.2c-4-10.5-3.4-14.2-1.8-16.8c4.2-6.8,14.3-5.4,22-3.1
	c7.4,2.2,14.9,4.4,21.2,8.8s11.2,11.5,11,19.2c-0.2,6.8-4.3,13.2-9.6,16.6c-8.2,5.3-16.6,1.6-18.7,5.9
	C573.2,753.6,579.6,759.7,579,760.1z"/>
<path class="cls-4-avocado-snowman-level-four" d="M297,731.9c-0.7-0.9,15.7-18.5,41.2-28.1c10.5-4,14.2-3.4,16.8-1.8c6.8,4.2,5.4,14.3,3.1,22
	c-2.2,7.4-4.4,14.9-8.8,21.2s-11.5,11.2-19.2,11c-6.8-0.2-13.2-4.4-16.5-9.6c-5.3-8.2-1.6-16.6-5.9-18.7
	C303.5,726.1,297.5,732.5,297,731.9z"/>
<circle class="cls-5-avocado-snowman-level-four" cx="431.7" cy="682.7" r="9.6"/>
<circle class="cls-5-avocado-snowman-level-four" cx="484.7" cy="681.1" r="9.6"/>
<path class="cls-6-avocado-snowman-level-four" d="M430.5,791.8c-5.6-2-10.1-4.4-14.7-2.4c-5.8,2.6-7.9,10.5-8.4,13.3c-1,5.3-0.3,10.8,0.3,16.2
	c1.7,14.7,4.2,30.8,15.5,40.3c12.2,10.2,31.2,8.5,44.5-0.1s22.1-22.7,29.3-36.8c3.2-6.3,6.3-18.4,0.9-24.2c-3.4-3.7-8-2.1-22.3-2
	C453.7,796.2,442.8,796.2,430.5,791.8z"/>
<path class="cls-5-avocado-snowman-level-four" d="M258.4,687.7c0.7,1.9,1.3,3.8,1.5,5.8l-0.5-3.6c0.3,2.2,0.3,4.4,0,6.6l0.5-3.6c-0.4,2.5-1,5-2,7.3l1.3-3.2
	c-1.1,2.6-2.5,5-4.2,7.3l2.1-2.7c-1.7,2.2-3.7,4.3-5.9,6l2.7-2.1c-2.1,1.6-4.3,3-6.8,4l3.2-1.3c-2.1,0.9-4.3,1.5-6.5,1.8l3.6-0.5
	c-2,0.3-4.1,0.3-6.2,0l3.6,0.5c-0.5-0.1-1-0.2-1.4-0.2c-1.8-0.6-3.6-0.7-5.5-0.3c-1.8,0.1-3.5,0.6-5,1.6c-1.5,0.8-2.8,2-3.8,3.5
	c-1.2,1.3-2,2.9-2.4,4.6c-0.8,3.4-0.6,7.3,1.4,10.4c1.8,2.8,4.6,5.5,8,6.2c3,0.7,6.2,1,9.3,0.9c3.1-0.1,6.2-0.6,9.1-1.4
	c2.9-0.9,5.8-2.1,8.4-3.5c2.7-1.5,5.2-3.3,7.5-5.3c1.6-1.3,3-2.7,4.3-4.2c2.1-2.3,3.9-4.9,5.6-7.5c1.5-2.7,2.8-5.5,3.8-8.4
	c0.7-1.9,1.2-3.8,1.5-5.7c0.6-3.3,0.8-6.6,0.6-9.9c-0.2-3.4-0.9-6.7-2.1-9.9c-0.4-1.7-1.2-3.3-2.4-4.6c-0.9-1.5-2.2-2.6-3.8-3.5
	c-1.5-1-3.2-1.5-5-1.6c-1.8-0.4-3.6-0.3-5.4,0.2c-3.4,1-6.2,3.2-8,6.2l-1.4,3.2C257.7,682.8,257.7,685.3,258.4,687.7L258.4,687.7z"
	/>
<path class="cls-5-avocado-snowman-level-four" d="M609.8,667c4.9,7.8,11.9,14.2,20.2,18.3c4.2,2.1,8.7,3.6,13.3,4.5c3,0.5,6.1,0.8,9.1,0.9c3-0.1,6-0.3,9-0.9
	c5.4-0.9,10.7-2.7,15.5-5.4c3-1.8,5.2-4.6,6.2-8c0.6-1.7,0.6-3.6,0.2-5.4c-0.1-1.8-0.6-3.5-1.6-5c-1.8-2.9-4.6-5.4-8-6.2
	c-3.5-0.9-7.2-0.4-10.4,1.4c-1,0.5-2.1,1-3.2,1.5l3.2-1.3c-3,1.3-6.2,2.1-9.5,2.6l3.6-0.5c-3.3,0.4-6.6,0.4-9.8,0l3.6,0.5
	c-3.2-0.4-6.3-1.3-9.3-2.5l3.2,1.4c-3-1.3-5.8-2.9-8.4-4.9l2.7,2.1c-2.5-1.9-4.8-4.2-6.7-6.7l2.1,2.7c-0.6-0.8-1.2-1.7-1.8-2.6
	c-1.8-3-4.7-5.2-8-6.2c-1.7-0.6-3.6-0.6-5.4-0.2c-1.8,0.1-3.5,0.6-5,1.6c-2.9,1.8-5.4,4.6-6.2,8S608,664,609.8,667L609.8,667z"/>
<path class="cls-5-avocado-snowman-level-four" d="M269.4,727.2c21.1,20.8,45.5,37.9,72.3,50.6c27.6,13.3,57.3,21.9,87.8,25.3c28.8,3.6,57.9,2.1,86.2-4.3
	c26.3-6.1,52.2-17.1,74.1-33.1c11.1-8.1,21.5-17.2,30.2-28c4.6-5.6,8.8-11.5,12.6-17.7c3.7-6.3,6.9-12.9,9.6-19.7c1.2-3,2.3-6,3.2-9
	c2.1-6.7-2.5-15-9.4-16.5c-7.1-1.8-14.4,2.3-16.5,9.4c-1.2,3.7-2.5,7.3-4,10.9l1.4-3.2c-4.1,9.6-9.4,18.7-15.8,26.9l2.1-2.7
	c-7.6,9.7-16.4,18.5-26.2,26l2.7-2.1c-12.4,9.4-25.9,17.2-40.2,23.3l3.2-1.4c-17.1,7.2-35.1,12.1-53.5,14.5l3.6-0.5
	c-22.1,2.9-44.4,2.8-66.5-0.2l3.6,0.5c-23.2-3.2-45.8-9.4-67.4-18.4l3.2,1.3c-20.5-8.7-39.8-19.9-57.5-33.5l2.7,2.1
	c-7.8-6.1-15.3-12.6-22.3-19.5c-5-4.9-14.1-5.4-19,0S264.1,721.9,269.4,727.2L269.4,727.2z"/>
<g>
	<ellipse class="cls-7-avocado-snowman-level-four" cx="445.6" cy="223.1" rx="141.5" ry="115.4"/>
	<ellipse class="cls-8-avocado-snowman-level-four" cx="445.6" cy="212.5" rx="141.5" ry="115.4"/>
	<path class="cls-9-avocado-snowman-level-four" d="M348,121.6c-7,3.5-13,8.5-17.8,14.7c-4.3,5.6-8.7,12.1-8.3,21c0.3,7.7,5.3,15.5,12.8,17.5
		c7.8,2.1,15.7-2.1,22.9-5.9c7.1-3.8,15.5-7.5,23-4.5c9,3.7,12.4,15.5,21.3,19.5c7.1,3.1,15.3,0.2,22.2-3.3s13.8-8,21.6-7.9
		c9.4,0.1,17.2,6.7,24.6,12.6s16.3,11.6,25.5,9.6c6.6-1.5,11.7-6.7,18.1-8.9c9.2-3.1,19.1,0.4,28.3,3.5c9.2,3.1,19.7,5.8,28.2,1.1
		c8.5-4.6,12.1-15.7,10.2-25.3c-1.9-9.5-8.1-17.7-15.3-24.3c-19.7-18.2-46.7-26.9-73.4-29.2c-39.1-3.4-34.7,7.7-80.1,4.7
		C391.8,115.2,368,111.5,348,121.6z"/>
	<ellipse class="cls-10-avocado-snowman-level-four" cx="445.6" cy="83" rx="91.9" ry="74.9"/>
	<ellipse class="cls-9-avocado-snowman-level-four" cx="445.6" cy="74.9" rx="91.9" ry="74.9"/>
</g>
<path class="cls-4-avocado-snowman-level-four" d="M455.8,808.7c1.6,12.1-2,24.4-9.9,33.8c-1.2,1.5,0.9,3.6,2.1,2.1c8.6-10.2,12.4-23.5,10.6-36.7
	c-0.2-0.8-1.1-1.3-1.8-1C456.1,807.1,455.7,807.9,455.8,808.7L455.8,808.7z"/>
<path class="cls-1-avocado-snowman-level-four" d="M453.3,263.5c-0.2,0-0.3,0-0.5,0c7.5,0,15.1,0.2,22.5,0.5C468.1,263.7,460.7,263.5,453.3,263.5z"/>
<path class="cls-1-avocado-snowman-level-four" d="M476.5,264c0.2,0,0.5,0,0.7,0C476.9,264,476.7,264,476.5,264z"/>
<path class="cls-10-avocado-snowman-level-four" d="M475.4,264c0.4,0,0.7,0,1.1,0C476.1,264,475.7,264,475.4,264z"/>
<path class="cls-10-avocado-snowman-level-four" d="M430.9,921.5c-25,0.1-50-0.4-75-1.5c-6.2-0.3-12.5-0.6-18.7-1c6.2,0.4,12.5,0.7,18.7,1
	C380.9,921.1,405.9,921.6,430.9,921.5z"/>
<path class="cls-11-avocado-snowman-level-four" d="M666.5,910c-78.4,6-157,11.3-235.6,11.5c-25,0.1-50-0.4-75-1.5c-6.2-0.3-12.5-0.6-18.7-1
	c-80.3-4.7-160.4-16.9-236.5-40.4c85.2,78.9,211.1,128.9,351.6,128.9c127.9,0,243.7-41.4,327.7-108.4c-26.9,4.2-54.3,6.3-81.5,8.4
	C687.9,908.4,677.2,909.2,666.5,910z"/>
<path class="cls-10-avocado-snowman-level-four" d="M100.7,878.6C100.7,878.6,100.7,878.6,100.7,878.6c76.1,23.6,156.3,35.7,236.5,40.4
	C257,914.3,176.8,902.1,100.7,878.6z"/>
<path class="cls-10-avocado-snowman-level-four" d="M698.5,907.5c27.2-2.1,54.6-4.2,81.5-8.4c0,0,0,0,0,0C753.1,903.3,725.8,905.5,698.5,907.5z"/>
<path class="cls-10-avocado-snowman-level-four" d="M666.5,910c-78.4,6-157,11.3-235.6,11.5C509.5,921.3,588,916,666.5,910z"/>
</svg>
