<svg version="1.1" id="레이어_1" xmlns="http://www.w3.org/2000/svg" x="0" y="0" viewBox="0 0 853.6 986" style="enable-background:new 0 0 853.6 986" xml:space="preserve"><style>.st0{fill:#2501fd}.st1{fill:#130093}.st5{fill:#fff}.st6{fill:#070707}</style><path class="st0" d="M139.7 907.6a189 189 0 0 1 120.7-43.5c14.6 0 28.8 1.7 42.5 4.8.5.1.9.1 1.4.2 42.3 6 78.8 27.2 104.6 57.3 25.8-30.1 62.3-51.3 104.6-57.3.5-.1.9-.1 1.4-.2a189.15 189.15 0 0 1 167 42 521 521 0 0 0 68-49.9c-25.5-22.8-47.6-44-54-83.2-7.8-47.4 16.8-61.8 32.6-129.6 31.5-135.7-25.7-257.2-36-279-56.4-119.8-157.6-183.6-221-213.8C215.6 129.6 0 327.8 0 576c-.1 66 15.4 131 45.3 189.8 7.4 14.6 8.3 30.8 3.7 45.4-3.5 11-.6 23 7.7 31.1 25.3 24.5 53.1 46.4 83 65.3z"/><path class="st1" d="M811.6 759.1c36.9-76.1 51.5-164.8 35.5-257.9-26-150.5-132.5-273.3-274.3-323.4-4.6-1.6-9.2-3.2-13.8-4.6-18.3-5.8-37-10.3-56.3-13.6-2.4-.4-4.7-.8-7.1-1.1-1-.1-1.9-.3-2.9-.4l-4.2-.6c-1.1-.2-2.2-.3-3.4-.5-1.3-.2-2.5-.3-3.8-.5-1.1-.1-2.2-.3-3.4-.4l-5.4-.6c-.5 0-.9-.1-1.4-.2 63.4 30.2 164.6 93.9 221 213.8 10.3 21.8 67.5 143.3 36 279-15.8 67.8-40.4 82.2-32.6 129.6 6.5 39.2 28.5 60.5 54 83.2 17.2-15 33.5-31.1 48.6-48.2 5.4-6.1 8.1-14.2 7.4-22.4-.6-10.4 1.2-21.2 6.1-31.2z"/><path d="M584.4 36c-22.4 0-44.3 6.4-63.1 18.5C486.7-.1 414.4-16.4 359.8 18.1a117.1 117.1 0 0 0-36.4 36.4c-54.4-34.8-126.8-19-161.6 35.4s-19 126.8 35.4 161.6 126.8 19 161.6-35.4c.1-.2.2-.4.3-.5 38.5 24.6 87.7 24.6 126.2 0 34.5 54.6 106.8 70.9 161.4 36.3S717.6 145.1 683 90.5A116.28 116.28 0 0 0 584.4 36z" style="fill:#1600cb"/><radialGradient id="SVGID_1_" cx="201.35" cy="311.63" r="57.69" gradientTransform="matrix(1 0 0 -1 0 1044.05)" gradientUnits="userSpaceOnUse"><stop offset="0" style="stop-color:#d20c2b"/><stop offset="1" style="stop-color:#d20c2b;stop-opacity:0"/></radialGradient><path d="M187.8 675.7c-26.5 6.2-46.4 33.5-44.2 60.7s25.9 51 53.1 53.2c35.1 2.9 67.9-32.7 62-67.4-5.9-34.7-48.8-57.5-80.8-42.7" style="fill:url(#SVGID_1_)"/><radialGradient id="SVGID_00000115516585472737532530000013883818223892119950_" cx="614.39" cy="311.63" r="57.69" gradientTransform="matrix(1 0 0 -1 0 1044.05)" gradientUnits="userSpaceOnUse"><stop offset="0" style="stop-color:#d20c2b"/><stop offset="1" style="stop-color:#d20c2b;stop-opacity:0"/></radialGradient><path style="fill:url(#SVGID_00000115516585472737532530000013883818223892119950_)" d="M600.8 675.7c-26.5 6.2-46.4 33.5-44.2 60.7s25.9 51 53.1 53.2c35.1 2.9 67.9-32.7 62-67.4s-48.8-57.5-80.8-42.7"/><circle class="st5" cx="233.4" cy="585" r="90"/><circle class="st5" cx="575.4" cy="585" r="90"/><circle class="st6" cx="557.4" cy="585" r="72"/><circle class="st6" cx="251.4" cy="585" r="72"/><path class="st5" d="M439.2 779c-7.1-5-9.6-12.8-14.3-28.3-3.1-10.1-3-13.3-1.3-15.8 2.2-3.1 6.3-4.3 10.1-4.6 10.7-.7 24.7 6.6 28.8 19.7 4.3 13.8-2.7 30.9-12 32.8-4.4.9-8.5-1.9-11.3-3.8z"/><path class="st1" d="M413.4 639a90 90 0 1 0 90 90 90 90 0 0 0-90-90zm0 135c-24.9 0-45-20.1-45-45s20.1-45 45-45 45 20.1 45 45-20.2 45-45 45zM302.9 868.8c-13.7-3.1-27.9-4.8-42.5-4.8-45.2 0-87.6 16.1-120.7 43.5 6.3 4 12.7 7.8 19.1 11.5 37-38.3 90.4-57.3 144.1-50.2z"/><path class="st0" d="M404.8 931.2c1.3-1.7 2.7-3.3 4.1-4.9A168.8 168.8 0 0 0 304.3 869c-.5-.1-.9-.1-1.4-.2 40.5 9.3 76 31.7 101.9 62.4z"/><path class="st0" d="M158.8 919.1a510.46 510.46 0 0 0 217.1 66.2c6.3-19.7 16.1-38.1 28.9-54.1-25.9-30.7-61.4-53-101.9-62.3a168.95 168.95 0 0 0-144.1 50.2z"/><path class="st1" d="M514.8 868.8c55.2-7.3 110.1 12.9 147.2 53.6 6.7-3.7 13.3-7.6 19.8-11.6A188.95 188.95 0 0 0 557.3 864c-14.6 0-28.8 1.7-42.5 4.8z"/><path class="st0" d="M514.8 868.8c-.5.1-.9.1-1.4.2-42.3 6-78.8 27.2-104.6 57.3 1.4 1.6 2.7 3.2 4.1 4.9 25.9-30.7 61.5-53.1 101.9-62.4z"/><path class="st0" d="M408.9 936.1c1.3-1.7 2.7-3.3 4.1-5-1.3-1.7-2.7-3.3-4.1-4.9-1.4 1.6-2.7 3.2-4.1 4.9l4.1 5z"/><path class="st0" d="M408.9 936.1c-1.3-1.7-2.7-3.3-4.1-5-12.8 16-22.6 34.3-28.9 54.1l4.9.3c6.8-17.9 16.4-34.5 28.1-49.4zM514.8 868.8c-40.5 9.3-76 31.6-101.9 62.3a170.1 170.1 0 0 1 29.1 54.6c79.5-4.4 154.2-26.9 220-63.4-37.1-40.5-92-60.8-147.2-53.5z"/><path class="st0" d="M437.1 986c1.6-.1 3.2-.2 4.9-.2-6.3-20-16.2-38.5-29.1-54.6-1.4 1.6-2.7 3.3-4.1 5 11.9 14.9 21.5 31.7 28.3 49.8z"/><path class="st0" d="M413.4 986.6c8 0 15.9-.2 23.8-.6-6.9-18.1-16.5-35-28.3-49.9a188.76 188.76 0 0 0-28.1 49.5c10.7.6 21.6 1 32.6 1z"/><path d="M471.3 155.3c.5 0 .9.1 1.4.2-.4-.1-.9-.2-1.4-.2z" style="fill:#00d389"/></svg>