<svg
  version="1.1"
  id="lemon-mouse-level-three-profile"
  xmlns="http://www.w3.org/2000/svg"
  x="0"
  y="0"
  viewBox="0 0 830.8 984.2"
  style="enable-background: new 0 0 830.8 984.2"
  xml:space="preserve"
>
  <style>
    .cls-2-lemon-mouse-level-three-profile {
      fill: #795600;
    }
    .cls-3-lemon-mouse-level-three-profile {
      fill: #8f7c5a;
    }
  </style>
  <path
    d="M763.8 467.7c-6.5-53.9-27.1-225.9-168.1-333.3-29.8-22.7-88.6-67.5-170-73.3-2-.1-3.8-1.2-4.9-2.9-12.5-19.1-37-31.9-64.9-31.4-40.1.7-72.2 28.5-71.6 62.1 0 2.4-1.3 4.7-3.4 5.9-44.5 25.1-73.9 57.1-86.3 70.3-86.6 92.6-92.4 204.7-96 272.7-4.5 85-13.1 248.9 110.6 360.7 4.9 4.5 83.6 73.3 194.3 88.4 3.3.5 6.6 1.5 9.6 3.1 19.5 10.3 38.3 21.9 56.1 34.9 30.7 22.3 33.1 29.2 45 29.9 35.3 1.8 76.4-55.9 86.6-97.9 1.7-7.1 6.1-13.2 12.2-17.2 87.8-57.2 125.4-144 132.7-162 33.6-81.5 25.1-152.5 18.1-210z"
    style="fill: #fc1b00"
  />
  <path
    class="cls-2-lemon-mouse-level-three-profile"
    d="M627.5 202.6c-.9-8.4-3.8-34.9 12.9-57.6 16-21.7 40.4-26.9 52.8-29.5 35.6-7.4 74.7 2.1 101.8 26.3 5.3 4.8 46.1 44.3 33.4 98.6-8.7 37.2-39 66.2-72.5 73.1-63.1 13-122.3-55.4-128.4-110.9z"
  />
  <path
    class="cls-3-lemon-mouse-level-three-profile"
    d="M614.5 184.5c-.9-8-3.7-33.8 12.4-55.7 15.5-21 39.1-26 51.1-28.5 34.4-7.1 72.2 2 98.4 25.4 5.1 4.6 44.6 42.8 32.4 95.4-8.4 36-37.7 64-70.1 70.7-61 12.6-118.3-53.5-124.2-107.3z"
  />
  <path
    class="cls-2-lemon-mouse-level-three-profile"
    d="M179.8 187.3c-24.4-32.3-69.8-34.7-79.6-35.2-9.4-.5-46.3-.8-74 26.6-23 22.7-32.3 59.2-21.8 93.7 9.5 31.5 38.4 65.9 76.1 73.9 45.4 9.7 74.5-25.3 84.2-37.1 22.7-27.4 44.7-82.8 15.1-121.9z"
  />
  <path
    class="cls-3-lemon-mouse-level-three-profile"
    d="M190.3 168c-23.6-31.2-67.5-33.5-77-34-9.1-.5-44.8-.8-71.6 25.7-22.3 22-31.2 57.3-21.1 90.6 9.2 30.5 37.1 63.7 73.6 71.5 43.9 9.4 72-24.5 81.4-35.8 22.1-26.6 43.3-80.2 14.7-118z"
  />
  <path
    d="M767.1 672.7c20.6-64.9 14.8-117.7 7.9-174.2-10.7-88-29.5-242.3-155.1-352.9-30.3-26.7-88-69.5-179-93.3-31.1-48.7-91.2-65-134.8-42.3-33.1 17.1-53.4 55-51.8 96-33.4 21.7-63.2 48.5-88.5 79.3-59.2 72.4-75.7 146.7-84.3 188-8.1 38.8-38.1 193.5 45.7 342.4 22.9 40.6 58 101.1 127.6 130.6 22.8 9.7 44.1 13.8 126.3 14.8 148.5 1.8 222.7 2.7 263.3-20.7 84.9-48.9 114.4-141.4 122.7-167.7zM363.4 822.1c-48.8-9.4-128.8-26.4-171.6-93-28.9-44.9-27.6-91.9-24.4-173.2 2.9-70.7 15.2-140.7 36.6-208.1 53.4-48.7 106.7-97.4 160.1-146.1 55.6 0 136.5 7.9 223.3 46.7 27 12.1 53 26.4 77.6 42.7 25.6 33.5 69.9 101.1 83.1 196.3 6.5 47 23.8 171.3-55.9 262.1-102.1 116.3-279.3 82.1-328.8 72.6z"
    style="fill: #fb5b42"
  />
  <path
    d="M794.5 672.9c20.4-64.5 12.8-117.4 4.8-174.3C787 410.9 765.5 256.9 638 148.5c-30.8-26.2-89.2-67.9-180.6-90.1-31.9-48.1-92.3-63.3-135.5-40-32.8 17.8-52.4 56-50.1 97-33 22.3-62.3 49.6-87.1 80.8-57.9 73.5-73.1 148.1-81 189.5-7.4 39-34.7 194.2 51.7 341.5 26 44.4 63 99.8 129.9 128.3 56.5 24.1 108.3 16.8 136.4 59.1 7.5 11.3 20 36.4 49.2 55.4 10.2 6.6 17 11.1 27.2 13.1 47.3 9 91.4-50.9 94.8-55.6 18-25.1 12-32.4 29.4-54.5 22.7-28.8 48.6-36.1 70-47.9 65.4-35.9 90.2-114.2 102.2-152.2zM393.4 829.4c-49-8.5-129.2-24.1-173.3-90-29.7-44.3-29.2-91.4-27.4-172.7 1.7-70.7 12.7-140.9 32.9-208.7 52.5-49.6 105-99.3 157.4-148.9 55.6-1 136.6 5.5 224.1 42.7 27.2 11.6 53.4 25.4 78.3 41.4C711.6 326.2 757 393 772 488c7.4 46.9 26.8 170.8-51.3 263-99.8 118.1-277.6 87.1-327.3 78.4z"
    style="fill: #f78b3a"
  />
  <path
    d="M723.1 502.1c-12-86.5-52.3-148-75.5-178.4-22.4-14.9-46-27.9-70.5-38.8-79-35.2-152.5-42.4-203-42.4L228.6 375.2c-19.5 61.3-30.6 124.9-33.3 189.1-3 73.8-4.1 116.6 22.1 157.3 39 60.6 111.6 76 156 84.5 45 8.7 206.1 39.7 298.8-66 72.5-82.4 56.8-195.3 50.9-238z"
    style="fill: #fc4401"
  />
  <radialGradient
    id="SVGID_1_lemon-mouse-level-three-profile"
    cx="653.06"
    cy="1035.674"
    r="142.35"
    gradientTransform="scale(1 -1) rotate(-53.679 -994.34 231.822)"
    gradientUnits="userSpaceOnUse"
  >
    <stop offset="0" style="stop-color: #ff000b" />
    <stop offset="1" style="stop-color: #fc1b00; stop-opacity: 0" />
  </radialGradient>
  <path
    d="M619.9 758.1C545.1 752.6 476 686.8 482.5 607c6.5-80.3 86.2-135.9 163.3-126.6 79.3 9.5 142.7 86 128.5 164.7-13 71.7-85.2 118.2-154.4 113z"
    style="fill: url(#SVGID_1_lemon-mouse-level-three-profile)"
  />
  <radialGradient
    id="SVGID_00000156577685326567507460000008801555059140687037_lemon-mouse-level-three-profile"
    cx="416.212"
    cy="773.398"
    r="142.352"
    gradientTransform="scale(1 -1) rotate(-53.679 -994.34 231.822)"
    gradientUnits="userSpaceOnUse"
  >
    <stop offset="0" style="stop-color: #ff000b" />
    <stop offset="1" style="stop-color: #fc1b00; stop-opacity: 0" />
  </radialGradient>
  <path
    style="
      fill: url(#SVGID_00000156577685326567507460000008801555059140687037_lemon-mouse-level-three-profile);
    "
    d="M268.3 722.6c-74.8-5.5-143.9-71.2-137.4-151.1 6.5-80.2 86.2-135.9 163.3-126.6 79.3 9.5 142.7 86 128.5 164.7-13 71.7-85.2 118.1-154.4 113z"
  />
  <path
    d="M315.7 492.5c14.9 18 40.6 22.5 60.7 10.6 5.1-3 9.6-6.9 13.2-11.6 1.8-2.3 2.3-5.7-.1-7.8-2-1.8-5.9-2.4-7.8.1-1.4 1.8-3 3.6-4.7 5.1-.8.7-1.6 1.4-2.5 2.1.9-.6-.2.2-.5.4-.5.4-1 .7-1.5 1-1.9 1.2-3.9 2.3-5.9 3.2-.9.4-.1.1 0 0l-.6.3-1.5.6c-1.2.4-2.4.8-3.5 1.1s-2.1.5-3.2.7c-.1 0-.8.1-.2 0 .6-.1-.3 0-.5.1-.6.1-1.2.1-1.8.2-2.4.2-4.7.2-7.1-.1 1 .1.1 0-.1 0l-1-.2-1.5-.3c-1.3-.3-2.6-.6-3.9-1-.6-.2-1.2-.4-1.7-.6-.3-.1-1.7-.7-.8-.3-1.2-.5-2.3-1-3.5-1.6-1.3-.7-2.5-1.4-3.7-2.2-.6-.4-1.1-.8-1.7-1.1.1.1.7.5.2.1-.3-.3-.7-.5-1-.8-2.2-1.8-4.3-3.9-6.1-6.1-1.8-2.3-6-2-7.8.1-2.2 2.6-1.9 5.6.1 8z"
  />
  <path
    d="M317.3 499.7c14.3 17.4 39.1 21.8 58.5 10.4 5-2.9 9.3-6.7 12.8-11.3 1.2-1.6 1.5-3.7-.1-5.2-1.3-1.3-4-1.5-5.2.1-5.4 7-13 12.1-21.5 14.3-9 2.2-18.4 1.1-26.6-3.1-4.9-2.5-9.2-6.1-12.7-10.4-1.3-1.6-3.9-1.3-5.2.1-1.6 1.5-1.3 3.6 0 5.1zM511.3 505.7c14.9 18 40.6 22.5 60.7 10.6 5.1-3 9.6-6.9 13.2-11.6 1.8-2.3 2.3-5.7-.1-7.8-2-1.8-5.9-2.4-7.8.1-1.4 1.8-3 3.6-4.7 5.2-.8.7-1.6 1.4-2.5 2.1.9-.6-.2.2-.5.4-.5.4-1 .7-1.5 1-1.9 1.2-3.9 2.3-5.9 3.2-.9.4-.1.1 0 0l-.6.3-1.5.6c-1.2.4-2.3.8-3.5 1.1-1.2.3-2.1.5-3.2.7h-.2c.7-.1-.3 0-.4.1-.6.1-1.2.1-1.8.2-2.4.2-4.7.2-7.1-.1 1 .1.1 0-.1 0l-1-.1-1.5-.3c-1.3-.3-2.6-.6-3.9-1-.6-.2-1.2-.4-1.7-.6-.3-.1-1.7-.7-.7-.3-1.2-.5-2.3-1-3.5-1.6-1.3-.7-2.5-1.4-3.7-2.2-.6-.4-1.1-.8-1.7-1.1 0 .1.7.5.2.1-.3-.3-.7-.5-1-.8-2.2-1.8-4.3-3.9-6.1-6.1-1.8-2.3-6-2-7.8.1-2.3 2.5-2 5.4-.1 7.8z"
  />
  <path
    d="M512.9 513c14.3 17.4 39.1 21.8 58.5 10.4 4.9-2.9 9.3-6.8 12.8-11.3 1.2-1.6 1.5-3.7-.1-5.2-1.3-1.3-4-1.5-5.2.1-5.4 7-13 12.1-21.5 14.3-9 2.2-18.4 1.1-26.6-3.1-4.9-2.5-9.2-6.1-12.7-10.3-1.3-1.6-3.9-1.3-5.2.1-1.4 1.2-1.4 3.5 0 5zM438.8 549.5c-6.4 9.7-12.9 20.2-12.5 32.3.1 5.2 1.7 10.2 4.6 14.5 3.6 5 9.1 8.4 15.2 9.3 2 .4 3.9-.8 4.5-2.7.4-1.8-.7-4.2-2.7-4.5-4.6-.6-8.8-3.2-11.3-7.1-2-3.4-3-7.2-2.8-11.1.1-10 6.2-19 11.6-27.1 1-1.8.3-4-1.4-5-1.9-1-4.2-.3-5.2 1.4z"
  />
  <path
    d="M459 638.7c4.7-.8 9.3-1.4 13.6-1.7 2.6-.2 5 1.7 5.2 4.3.1.6 0 1.1-.2 1.7-1.5 5.3-3.3 10.6-5.3 15.7-1 2.5-3.7 3.7-6.2 2.7-.9-.4-1.7-1-2.2-1.8-1.3-1.9-2.5-3.9-3.8-5.9-1.7-2.7-3.2-5.4-4.6-8-1.3-2.3-.4-5.2 1.9-6.5.5-.1 1-.3 1.6-.5z"
    style="fill: #fff"
  />
  <path
    d="m437.6 646.3 42.7-1.7c3.1-.1 5.5-2.6 5.4-5.7-.1-3.1-2.6-5.5-5.7-5.4l-42.7 1.7c-3.1 0-5.6 2.4-5.6 5.5s2.4 5.6 5.5 5.6h.4z"
  />
</svg>
