<?xml version="1.0" encoding="utf-8"?>
<!-- Generator: Adobe Illustrator 25.4.1, SVG Export Plug-In . SVG Version: 6.00 Build 0)  -->
<svg version="1.1" id="donut-profile-level-one" xmlns="http://www.w3.org/2000/svg" xmlns:xlink="http://www.w3.org/1999/xlink" x="0px"
	 y="0px" viewBox="0 0 669 669.2" style="enable-background:new 0 0 669 669.2;" xml:space="preserve">
<style type="text/css">
	.cls-1-donut-rabbit-level-one{fill:#E51570;}
	.cls-2-donut-rabbit-level-one{fill:#FF007E;}
	.cls-3-donut-rabbit-level-one{fill:#070707;}
	.cls-4-donut-rabbit-level-one{fill:#FF89C5;}
</style>
<path class="cls-1-donut-rabbit-level-one" d="M317.3,43.4c184.7,0,334.5,149.8,334.5,334.5c0,34.4-5.2,68.6-15.6,101.4c21.7-45.1,32.9-94.6,32.8-144.6
	C669,149.9,519.2,0.1,334.5,0.1c-149.4,0-275.9,98-318.9,233.1C69.6,120.9,184.4,43.4,317.3,43.4z"/>
<path class="cls-2-donut-rabbit-level-one" d="M334.5,669.1c132.9,0,247.7-77.5,301.7-189.9c10.4-32.8,15.7-67,15.6-101.4c0-184.7-149.8-334.5-334.5-334.5
	c-132.9,0-247.8,77.5-301.7,189.9C5.2,266,0,300.2,0,334.6C0,519.3,149.8,669.1,334.5,669.1z"/>
<circle class="cls-3-donut-rabbit-level-one" cx="242" cy="422.8" r="16.7"/>
<circle class="cls-3-donut-rabbit-level-one" cx="394.9" cy="422.8" r="16.7"/>
<path class="cls-4-donut-rabbit-level-one" d="M316.7,413.8c-34,0-61.5,27.5-61.5,61.5s27.5,61.5,61.5,61.5s61.5-27.5,61.5-61.5l0,0
	C378.2,441.3,350.7,413.8,316.7,413.8z M316.7,501.8c-14.6,0-26.5-11.9-26.5-26.5s11.9-26.5,26.5-26.5s26.5,11.9,26.5,26.5l0,0
	C343.2,489.9,331.4,501.8,316.7,501.8L316.7,501.8L316.7,501.8z"/>
<path class="cls-3-donut-rabbit-level-one" d="M199.9,390.7l0.9-0.8c0.3-0.2,0.1-0.3-0.2,0.1c0.1-0.1,0.3-0.3,0.5-0.4c0.6-0.4,1.2-0.9,1.9-1.2s1.3-0.8,2-1.1
	l1-0.5c0.6-0.3-0.1,0-0.2,0.1c0.2-0.1,0.5-0.2,0.8-0.3c1.4-0.5,2.9-0.9,4.4-1.2c0.4-0.1,0.7-0.1,1.1-0.2l0.5-0.1c0,0-0.9,0.1-0.1,0
	s1.6-0.1,2.4-0.2s1.5,0,2.3,0c0.3,0,0.6,0,1,0.1l0.6,0.1c0.4,0-0.8-0.1,0,0c1.5,0.2,2.9,0.6,4.3,1l0.9,0.3l0.5,0.2
	c0.4,0.2,0.2,0.3-0.1-0.1c0.3,0.2,0.6,0.3,0.9,0.4c0.4,0.2,0.8,0.4,1.1,0.6c1.3,0.7,2.5,1.4,3.6,2.3c0.2,0.1,0.5,0.4-0.2-0.1
	c0.2,0.1,0.4,0.3,0.5,0.4c0.3,0.3,0.6,0.5,0.9,0.8c0.6,0.5,1.2,1.1,1.7,1.7c0.3,0.3,0.6,0.6,0.8,0.9l0.4,0.4l0.1,0.2L234,394
	c0,0,1.3,1.9,1.4,2c1,1.7,3.2,2.3,4.9,1.3s2.3-3.2,1.3-4.9c-3.7-5.9-9.3-10.4-15.8-12.8s-13.7-2.5-20.3-0.2
	c-3.9,1.3-7.5,3.4-10.6,6.1c-1.4,1.4-1.4,3.6,0,5c1.4,1.3,3.6,1.3,5,0L199.9,390.7z"/>
<path class="cls-3-donut-rabbit-level-one" d="M439.9,385.6c-5.5-4.8-12.5-7.5-19.7-7.8c-6.8-0.2-13.5,2-19,6c-3.2,2.4-5.9,5.3-8,8.6c-1,1.7-0.4,3.9,1.3,4.9
	c1.7,1,3.9,0.4,4.9-1.3c0.4-0.6,0.8-1.2,1.2-1.8s0,0.1-0.1,0.1s0.3-0.4,0.3-0.4c0.2-0.3,0.5-0.6,0.7-0.9c1-1.1,2-2.1,3.2-3.1
	l0.5-0.4c0,0-0.7,0.5-0.2,0.1l0.8-0.6c0.6-0.4,1.3-0.8,1.9-1.2s1.2-0.7,1.8-1l0.9-0.4c0.7-0.3-0.6,0.2-0.1,0l0.6-0.2
	c1.3-0.5,2.7-0.9,4.1-1.2c0.3-0.1,0.7-0.1,1-0.2h0.2l0,0H416h0.5c0.8-0.1,1.6-0.1,2.4-0.1s1.4,0,2.1,0.1c0.4,0,0.7,0.1,1.1,0.1
	c0.1,0,0.6,0.1,0.6,0.1s-0.9-0.1,0,0c1.5,0.2,3,0.6,4.4,1.1l1.1,0.4l0.5,0.2l-0.3-0.1l0.3,0.1c0.8,0.3,1.5,0.7,2.2,1.1
	c0.8,0.4,1.5,0.9,2.2,1.4l0.4,0.3l0.4,0.3l-0.4-0.3c0.4,0.3,0.8,0.6,1.1,0.9c1.5,1.2,3.8,1,5-0.6C440.8,388.8,440.8,387,439.9,385.6
	L439.9,385.6z"/>
</svg>
