<svg
  version="1.1"
  id="lemon-mouse-level-three"
  xmlns="http://www.w3.org/2000/svg"
  xmlns:xlink="http://www.w3.org/1999/xlink"
  x="0px"
  y="0px"
  viewBox="0 0 830.8 984.2"
  style="enable-background: new 0 0 830.8 984.2"
  xml:space="preserve"
>
  <style type="text/css">
    .cls-1-lemon-mouse-level-three-profile {
      fill: #fc1b00;
    }
    .cls-2-lemon-mouse-level-three-profile {
      fill: #795600;
    }
    .cls-3-lemon-mouse-level-three-profile {
      fill: #8f7c5a;
    }
    .cls-4-lemon-mouse-level-three-profile {
      fill: #fb5b42;
    }
    .cls-5-lemon-mouse-level-three-profile {
      fill: #f78b3a;
    }
    .cls-6-lemon-mouse-level-three-profile {
      fill: #fc4401;
    }
    .cls-7-lemon-mouse-level-three-profile {
      fill: url(#SVGID_1_lemon-mouse-level-three-profile);
    }
    .cls-8-lemon-mouse-level-three-profile {
      fill: url(#SVGID_00000142157800428518022410000004400162179161613730_lemon-mouse-level-three-profile);
    }
    .cls-9-lemon-mouse-level-three-profile {
      fill: #ffffff;
    }
  </style>
  <path
    class="cls-1-lemon-mouse-level-three-profile"
    d="M763.8,467.7c-6.5-53.9-27.1-225.9-168.1-333.3c-29.8-22.7-88.6-67.5-170-73.3c-2-0.1-3.8-1.2-4.9-2.9
	c-12.5-19.1-37-31.9-64.9-31.4c-40.1,0.7-72.2,28.5-71.6,62.1l0,0c0,2.4-1.3,4.7-3.4,5.9c-44.5,25.1-73.9,57.1-86.3,70.3
	c-86.6,92.6-92.4,204.7-96,272.7c-4.5,85-13.1,248.9,110.6,360.7c4.9,4.5,83.6,73.3,194.3,88.4c3.3,0.5,6.6,1.5,9.6,3.1
	c19.5,10.3,38.3,21.9,56.1,34.9c30.7,22.3,33.1,29.2,45,29.9c35.3,1.8,76.4-55.9,86.6-97.9c1.7-7.1,6.1-13.2,12.2-17.2
	c87.8-57.2,125.4-144,132.7-162C779.3,596.2,770.8,525.2,763.8,467.7z"
  />
  <path
    class="cls-2-lemon-mouse-level-three-profile"
    d="M627.5,202.6c-0.9-8.4-3.8-34.9,12.9-57.6c16-21.7,40.4-26.9,52.8-29.5c35.6-7.4,74.7,2.1,101.8,26.3
	c5.3,4.8,46.1,44.3,33.4,98.6c-8.7,37.2-39,66.2-72.5,73.1C692.8,326.5,633.6,258.1,627.5,202.6z"
  />
  <path
    class="cls-3-lemon-mouse-level-three-profile"
    d="M614.5,184.5c-0.9-8-3.7-33.8,12.4-55.7c15.5-21,39.1-26,51.1-28.5c34.4-7.1,72.2,2,98.4,25.4
	c5.1,4.6,44.6,42.8,32.4,95.4c-8.4,36-37.7,64-70.1,70.7C677.7,304.4,620.4,238.3,614.5,184.5z"
  />
  <path
    class="cls-2-lemon-mouse-level-three-profile"
    d="M179.8,187.3c-24.4-32.3-69.8-34.7-79.6-35.2c-9.4-0.5-46.3-0.8-74,26.6c-23,22.7-32.3,59.2-21.8,93.7
	c9.5,31.5,38.4,65.9,76.1,73.9c45.4,9.7,74.5-25.3,84.2-37.1C187.4,281.8,209.4,226.4,179.8,187.3z"
  />
  <path
    class="cls-3-lemon-mouse-level-three-profile"
    d="M190.3,168c-23.6-31.2-67.5-33.5-77-34c-9.1-0.5-44.8-0.8-71.6,25.7c-22.3,22-31.2,57.3-21.1,90.6
	c9.2,30.5,37.1,63.7,73.6,71.5c43.9,9.4,72-24.5,81.4-35.8C197.7,259.4,218.9,205.8,190.3,168z"
  />
  <path
    class="cls-4-lemon-mouse-level-three-profile"
    d="M767.1,672.7c20.6-64.9,14.8-117.7,7.9-174.2c-10.7-88-29.5-242.3-155.1-352.9c-30.3-26.7-88-69.5-179-93.3
	c-31.1-48.7-91.2-65-134.8-42.3c-33.1,17.1-53.4,55-51.8,96c-33.4,21.7-63.2,48.5-88.5,79.3c-59.2,72.4-75.7,146.7-84.3,188
	c-8.1,38.8-38.1,193.5,45.7,342.4c22.9,40.6,58,101.1,127.6,130.6c22.8,9.7,44.1,13.8,126.3,14.8c148.5,1.8,222.7,2.7,263.3-20.7
	C729.3,791.5,758.8,699,767.1,672.7z M363.4,822.1c-48.8-9.4-128.8-26.4-171.6-93c-28.9-44.9-27.6-91.9-24.4-173.2
	c2.9-70.7,15.2-140.7,36.6-208.1c53.4-48.7,106.7-97.4,160.1-146.1c55.6,0,136.5,7.9,223.3,46.7c27,12.1,53,26.4,77.6,42.7
	c25.6,33.5,69.9,101.1,83.1,196.3c6.5,47,23.8,171.3-55.9,262.1C590.1,865.8,412.9,831.6,363.4,822.1z"
  />
  <path
    class="cls-5-lemon-mouse-level-three-profile"
    d="M794.5,672.9c20.4-64.5,12.8-117.4,4.8-174.3C787,410.9,765.5,256.9,638,148.5c-30.8-26.2-89.2-67.9-180.6-90.1
	c-31.9-48.1-92.3-63.3-135.5-40c-32.8,17.8-52.4,56-50.1,97c-33,22.3-62.3,49.6-87.1,80.8c-57.9,73.5-73.1,148.1-81,189.5
	c-7.4,39-34.7,194.2,51.7,341.5c26,44.4,63,99.8,129.9,128.3c56.5,24.1,108.3,16.8,136.4,59.1c7.5,11.3,20,36.4,49.2,55.4
	c10.2,6.6,17,11.1,27.2,13.1c47.3,9,91.4-50.9,94.8-55.6c18-25.1,12-32.4,29.4-54.5c22.7-28.8,48.6-36.1,70-47.9
	C757.7,789.2,782.5,710.9,794.5,672.9z M393.4,829.4c-49-8.5-129.2-24.1-173.3-90c-29.7-44.3-29.2-91.4-27.4-172.7
	c1.7-70.7,12.7-140.9,32.9-208.7c52.5-49.6,105-99.3,157.4-148.9c55.6-1,136.6,5.5,224.1,42.7c27.2,11.6,53.4,25.4,78.3,41.4
	c26.2,33,71.6,99.8,86.6,194.8c7.4,46.9,26.8,170.8-51.3,263C620.9,869.1,443.1,838.1,393.4,829.4z"
  />
  <path
    class="cls-6-lemon-mouse-level-three-profile"
    d="M723.1,502.1c-12-86.5-52.3-148-75.5-178.4c-22.4-14.9-46-27.9-70.5-38.8c-79-35.2-152.5-42.4-203-42.4
	L228.6,375.2c-19.5,61.3-30.6,124.9-33.3,189.1c-3,73.8-4.1,116.6,22.1,157.3c39,60.6,111.6,76,156,84.5c45,8.7,206.1,39.7,298.8-66
	C744.7,657.7,729,544.8,723.1,502.1z"
  />
  <radialGradient
    id="SVGID_1_lemon-mouse-level-three-profile"
    cx="653.0603"
    cy="1035.6737"
    r="142.3503"
    gradientTransform="matrix(0.5923 0.8057 0.8057 -0.5923 -592.158 706.6295)"
    gradientUnits="userSpaceOnUse"
  >
    <stop offset="0" style="stop-color: #ff000b" />
    <stop offset="1" style="stop-color: #fc1b00; stop-opacity: 0" />
  </radialGradient>
  <path
    class="cls-7-lemon-mouse-level-three-profile"
    d="M619.9,758.1c-74.8-5.5-143.9-71.3-137.4-151.1c6.5-80.3,86.2-135.9,163.3-126.6c79.3,9.5,142.7,86,128.5,164.7
	C761.3,716.8,689.1,763.3,619.9,758.1z"
  />
  <radialGradient
    id="SVGID_00000156577685326567507460000008801555059140687037_lemon-mouse-level-three-profile"
    cx="416.2122"
    cy="773.3981"
    r="142.3522"
    gradientTransform="matrix(0.5923 0.8057 0.8057 -0.5923 -592.158 706.6295)"
    gradientUnits="userSpaceOnUse"
  >
    <stop offset="0" style="stop-color: #ff000b" />
    <stop offset="1" style="stop-color: #fc1b00; stop-opacity: 0" />
  </radialGradient>
  <path
    style="
      fill: url(#SVGID_00000156577685326567507460000008801555059140687037_lemon-mouse-level-three-profile);
    "
    d="M268.3,722.6
	c-74.8-5.5-143.9-71.2-137.4-151.1c6.5-80.2,86.2-135.9,163.3-126.6c79.3,9.5,142.7,86,128.5,164.7
	C409.7,681.3,337.5,727.7,268.3,722.6z"
  />
  <path
    d="M315.7,492.5c14.9,18,40.6,22.5,60.7,10.6c5.1-3,9.6-6.9,13.2-11.6c1.8-2.3,2.3-5.7-0.1-7.8c-2-1.8-5.9-2.4-7.8,0.1
	c-1.4,1.8-3,3.6-4.7,5.1c-0.8,0.7-1.6,1.4-2.5,2.1c0.9-0.6-0.2,0.2-0.5,0.4c-0.5,0.4-1,0.7-1.5,1c-1.9,1.2-3.9,2.3-5.9,3.2
	c-0.9,0.4-0.1,0.1,0,0c-0.2,0.1-0.4,0.2-0.6,0.3c-0.5,0.2-1,0.4-1.5,0.6c-1.2,0.4-2.4,0.8-3.5,1.1s-2.1,0.5-3.2,0.7
	c-0.1,0-0.8,0.1-0.2,0c0.6-0.1-0.3,0-0.5,0.1c-0.6,0.1-1.2,0.1-1.8,0.2c-2.4,0.2-4.7,0.2-7.1-0.1c1,0.1,0.1,0-0.1,0l-1-0.2
	c-0.5-0.1-1-0.2-1.5-0.3c-1.3-0.3-2.6-0.6-3.9-1c-0.6-0.2-1.2-0.4-1.7-0.6c-0.3-0.1-1.7-0.7-0.8-0.3c-1.2-0.5-2.3-1-3.5-1.6
	c-1.3-0.7-2.5-1.4-3.7-2.2c-0.6-0.4-1.1-0.8-1.7-1.1c0.1,0.1,0.7,0.5,0.2,0.1c-0.3-0.3-0.7-0.5-1-0.8c-2.2-1.8-4.3-3.9-6.1-6.1
	c-1.8-2.3-6-2-7.8,0.1C313.4,487.1,313.7,490.1,315.7,492.5L315.7,492.5z"
  />
  <path
    d="M317.3,499.7c14.3,17.4,39.1,21.8,58.5,10.4c5-2.9,9.3-6.7,12.8-11.3c1.2-1.6,1.5-3.7-0.1-5.2c-1.3-1.3-4-1.5-5.2,0.1
	c-5.4,7-13,12.1-21.5,14.3c-9,2.2-18.4,1.1-26.6-3.1c-4.9-2.5-9.2-6.1-12.7-10.4c-1.3-1.6-3.9-1.3-5.2,0.1
	C315.7,496.1,316,498.2,317.3,499.7L317.3,499.7z"
  />
  <path
    d="M511.3,505.7c14.9,18,40.6,22.5,60.7,10.6c5.1-3,9.6-6.9,13.2-11.6c1.8-2.3,2.3-5.7-0.1-7.8c-2-1.8-5.9-2.4-7.8,0.1
	c-1.4,1.8-3,3.6-4.7,5.2c-0.8,0.7-1.6,1.4-2.5,2.1c0.9-0.6-0.2,0.2-0.5,0.4c-0.5,0.4-1,0.7-1.5,1c-1.9,1.2-3.9,2.3-5.9,3.2
	c-0.9,0.4-0.1,0.1,0,0c-0.2,0.1-0.4,0.2-0.6,0.3c-0.5,0.2-1,0.4-1.5,0.6c-1.2,0.4-2.3,0.8-3.5,1.1c-1.2,0.3-2.1,0.5-3.2,0.7l-0.2,0
	c0.7-0.1-0.3,0-0.4,0.1c-0.6,0.1-1.2,0.1-1.8,0.2c-2.4,0.2-4.7,0.2-7.1-0.1c1,0.1,0.1,0-0.1,0l-1-0.1c-0.5-0.1-1-0.2-1.5-0.3
	c-1.3-0.3-2.6-0.6-3.9-1c-0.6-0.2-1.2-0.4-1.7-0.6c-0.3-0.1-1.7-0.7-0.7-0.3c-1.2-0.5-2.3-1-3.5-1.6c-1.3-0.7-2.5-1.4-3.7-2.2
	c-0.6-0.4-1.1-0.8-1.7-1.1c0,0.1,0.7,0.5,0.2,0.1c-0.3-0.3-0.7-0.5-1-0.8c-2.2-1.8-4.3-3.9-6.1-6.1c-1.8-2.3-6-2-7.8,0.1
	C509.1,500.4,509.4,503.3,511.3,505.7L511.3,505.7z"
  />
  <path
    d="M512.9,513c14.3,17.4,39.1,21.8,58.5,10.4c4.9-2.9,9.3-6.8,12.8-11.3c1.2-1.6,1.5-3.7-0.1-5.2c-1.3-1.3-4-1.5-5.2,0.1
	c-5.4,7-13,12.1-21.5,14.3c-9,2.2-18.4,1.1-26.6-3.1c-4.9-2.5-9.2-6.1-12.7-10.3c-1.3-1.6-3.9-1.3-5.2,0.1
	C511.5,509.2,511.5,511.5,512.9,513L512.9,513z"
  />
  <path
    d="M438.8,549.5c-6.4,9.7-12.9,20.2-12.5,32.3c0.1,5.2,1.7,10.2,4.6,14.5c3.6,5,9.1,8.4,15.2,9.3c2,0.4,3.9-0.8,4.5-2.7
	c0.4-1.8-0.7-4.2-2.7-4.5c-4.6-0.6-8.8-3.2-11.3-7.1c-2-3.4-3-7.2-2.8-11.1c0.1-10,6.2-19,11.6-27.1c1-1.8,0.3-4-1.4-5
	C442.1,547.1,439.8,547.8,438.8,549.5L438.8,549.5z"
  />
  <path
    class="cls-9-lemon-mouse-level-three-profile"
    d="M459,638.7c4.7-0.8,9.3-1.4,13.6-1.7c2.6-0.2,5,1.7,5.2,4.3c0.1,0.6,0,1.1-0.2,1.7c-1.5,5.3-3.3,10.6-5.3,15.7
	c-1,2.5-3.7,3.7-6.2,2.7c-0.9-0.4-1.7-1-2.2-1.8c-1.3-1.9-2.5-3.9-3.8-5.9c-1.7-2.7-3.2-5.4-4.6-8c-1.3-2.3-0.4-5.2,1.9-6.5
	C457.9,639.1,458.4,638.9,459,638.7L459,638.7z"
  />
  <path
    d="M437.6,646.3l42.7-1.7c3.1-0.1,5.5-2.6,5.4-5.7c-0.1-3.1-2.6-5.5-5.7-5.4l0,0l-42.7,1.7c-3.1,0-5.6,2.4-5.6,5.5
	c0,3.1,2.4,5.6,5.5,5.6C437.3,646.3,437.5,646.3,437.6,646.3z"
  />
</svg>
