<?xml version="1.0" encoding="utf-8"?>
<!-- Generator: Adobe Illustrator 25.4.1, SVG Export Plug-In . SVG Version: 6.00 Build 0)  -->
<svg version="1.1" id="peach-profile-level-three" xmlns="http://www.w3.org/2000/svg" xmlns:xlink="http://www.w3.org/1999/xlink" x="0px"
	 y="0px" viewBox="0 0 1118.8 958.1" style="enable-background:new 0 0 1118.8 958.1;" xml:space="preserve">
<style type="text/css">
	.cls-1-peach-bear-level-three{fill:#FD0300;}
	.cls-2-peach-bear-level-three{fill:#FC4401;}
	.cls-3-peach-bear-level-three{fill:#87FF7B;}
	.cls-4-peach-bear-level-three{fill:#D11022;}
	.cls-5-peach-bear-level-three{fill:#FFFFFF;}
	.cls-6-peach-bear-level-three{fill:#070707;}
	.cls-7-peach-bear-level-three{fill:#FDD301;}
	.cls-8-peach-bear-level-three{fill:#5EBCE5;}
	.cls-9-peach-bear-level-three{fill:#FF8600;}
	.cls-10-peach-bear-level-three{fill:#FCECCA;}
</style>
<circle class="cls-1-peach-bear-level-three" cx="196.7" cy="280" r="196.7"/>
<circle class="cls-1-peach-bear-level-three" cx="922" cy="280" r="196.7"/>
<circle class="cls-2-peach-bear-level-three" cx="231.9" cy="310.5" r="159.5"/>
<circle class="cls-2-peach-bear-level-three" cx="888.6" cy="310.5" r="159.5"/>
<path class="cls-3-peach-bear-level-three" d="M429.5,0c19.6,6.7,48.3,17.2,82.4,32c35,15.2,41.2,20.2,46.1,24.6c29.8,26.5,33.2,72.2,25,111.2
	c-4.3,20.4-24.8,34.1-27.3,32.6c-2.1-1.3,4.7-10.6,4.8-21c0.3-30.6-57.3-42.2-93.1-80.5C452.1,82.5,433.6,53.4,429.5,0z"/>
<path class="cls-4-peach-bear-level-three" d="M964.4,322.1c-13.8-28.3-59.3-117.6-164.9-160.9c-111-45.5-211.1-8.6-235.5,0.9c-0.6,0.2-1.1,0.4-1.7,0.7
	l-1.7-0.7c-24.4-9.4-124.5-46.4-235.5-0.9c-105.6,43.3-151,132.6-164.9,160.9c-71.6,146.4-11.7,292.5,2.5,327.2
	c53.3,130,154.5,195.8,211.1,232.6c74.4,48.4,151.2,68.4,151.2,68.4c14.7,3.8,27,6.3,35.5,7.8l1.7-1.3l1.7,1.3
	c8.5-1.5,20.8-4,35.5-7.8c0,0,76.8-20,151.2-68.4c56.6-36.8,157.8-102.6,211.1-232.6C976.1,614.5,1036,468.4,964.4,322.1z
	 M933.6,630.9C884,751.7,790,812.8,737.4,847.1c-69.2,45-140.5,63.6-140.5,63.6c-13.7,3.5-25.1,5.8-33,7.3l-1.6-1.2l-1.5,1.2
	c-7.9-1.4-19.4-3.7-33-7.3c0,0-71.4-18.6-140.5-63.6c-52.7-34.2-146.6-95.4-196.2-216.2c-13.2-32.3-68.9-168-2.3-304.1
	c12.9-26.3,55.1-109.3,153.2-149.5c103.1-42.3,196.2-8,218.8,0.8l1.5,0.6l1.6-0.6c22.6-8.8,115.7-43.1,218.8-0.8
	c98.1,40.2,140.4,123.2,153.2,149.5C1002.5,462.8,946.8,598.6,933.6,630.9z"/>
<path class="cls-1-peach-bear-level-three" d="M935.9,326.8c-12.9-26.3-55.1-109.3-153.2-149.5c-103.1-42.3-196.2-8-218.8,0.8l-1.6,0.6l-1.5-0.6
	c-22.7-8.8-115.7-43.1-218.8-0.8c-98.1,40.2-140.4,123.2-153.2,149.5c-66.6,136-10.9,271.8,2.3,304.1
	c49.6,120.8,143.6,182,196.2,216.2c69.1,45,140.5,63.6,140.5,63.6c13.7,3.5,25.1,5.8,33,7.3l1.5-1.2l1.6,1.2
	c7.9-1.4,19.4-3.7,33-7.3c0,0,71.4-18.6,140.5-63.6C790,812.8,884,751.7,933.5,630.9C946.8,598.6,1002.5,462.8,935.9,326.8z"/>
<ellipse class="cls-5-peach-bear-level-three" cx="492.1" cy="689.4" rx="37.7" ry="46.8"/>
<ellipse transform="matrix(0.9239 -0.3827 0.3827 0.9239 -223.3704 236.6618)" class="cls-6-peach-bear-level-three" cx="483.2" cy="679.8" rx="26.2" ry="26.2"/>
<ellipse class="cls-5-peach-bear-level-three" cx="659.5" cy="689.4" rx="37.7" ry="46.8"/>
<circle class="cls-6-peach-bear-level-three" cx="650.6" cy="679.8" r="26.2"/>
<ellipse class="cls-7-peach-bear-level-three" cx="580.8" cy="729.4" rx="21.5" ry="12.5"/>
<path class="cls-8-peach-bear-level-three" d="M662,748.8c-28.7-12.5-60,11.5-62.2,13.4c-3,2.7-6.5,4.9-10.1,6.6c-4.5,2-9.3,3.3-14.2,3.6
	c-5.6,0.3-11.3-0.4-16.7-2c-11.2-3.5-15.5-9.6-23-14.9c-12.3-8.7-30.4-13-46.6-8.8c-2.3,0.6-21.2,5.8-31.5,24.2
	c-9.3,16.6-5.7,33.3-2.9,45.8c3.1,13.6,9.1,26.4,17.6,37.4c19.5,25.5,46.1,34,58.6,38c14.4,4.4,29.4,6.7,44.5,6.6
	c9.9,0,25.7-0.1,44.8-6.6c10.5-3.6,37.8-13.2,56.2-39.8c5.3-7.6,9.4-16,12.2-24.9c2.8-9.1,8.8-28.7,0-49.4
	C686.5,773.2,679.4,756.3,662,748.8z"/>
<path class="cls-9-peach-bear-level-three" d="M572.4,821c-31.4,0-56.8,25.4-56.8,56.8s25.4,56.8,56.8,56.8s56.8-25.4,56.8-56.8c0,0,0,0,0,0
	C629.2,846.4,603.8,821,572.4,821C572.4,821,572.4,821,572.4,821z M572.4,921c-23.9,0-43.3-19.4-43.3-43.3
	c0-23.9,19.4-43.3,43.3-43.3c23.9,0,43.3,19.4,43.3,43.3C615.7,901.6,596.4,921,572.4,921C572.4,921.1,572.4,921.1,572.4,921
	L572.4,921z"/>
<circle class="cls-10-peach-bear-level-three" cx="572.4" cy="827.5" r="43.3"/>
<circle class="cls-10-peach-bear-level-three" cx="495" cy="784.1" r="13.1"/>
<circle class="cls-10-peach-bear-level-three" cx="646.4" cy="784.1" r="13.1"/>
<circle class="cls-2-peach-bear-level-three" cx="368.5" cy="758.5" r="41.6"/>
<circle class="cls-2-peach-bear-level-three" cx="757.5" cy="758.5" r="41.6"/>
<path class="cls-4-peach-bear-level-three" d="M562.8,188.7c-22.4-22.3-53.2-27.6-66-29.9c-12.6-2.2-25.5-2.7-38.2-1.6c19.8,13.5,37.6,29.8,52.7,48.4
	c51.5,63.5,56.8,135.7,57.1,165.4c10.3-19.7,23.8-53.2,22.4-95.4C590.1,250.2,588.9,214.7,562.8,188.7z"/>
</svg>
