<svg
  version="1.1"
  id="lemon-mouse-level-two-profile"
  xmlns="http://www.w3.org/2000/svg"
  xmlns:xlink="http://www.w3.org/1999/xlink"
  x="0px"
  y="0px"
  viewBox="0 0 604.8 836.5"
  style="enable-background: new 0 0 604.8 836.5"
  xml:space="preserve"
>
  <style type="text/css">
    .cls-1-lemon-mouse-level-two-profile {
      fill: #fc4401;
    }
    .cls-2-lemon-mouse-level-two-profile {
      fill: #fc1b00;
    }
    .cls-3-lemon-mouse-level-two-profile {
      fill: #ffffff;
    }
  </style>
  <path
    class="cls-1-lemon-mouse-level-two-profile"
    d="M600.3,402.7c-5-48.5-20.8-203.4-145.8-302.2C428.1,79.6,376,38.4,303,31.9c-1.8-0.2-3.4-1.1-4.4-2.7
	C287.7,11.9,265.9,0,240.8,0c-36.1,0-65.3,24.5-65.3,54.7l0,0c0,2.2-1.2,4.3-3.1,5.3c-40.4,21.9-67.3,50.1-78.7,61.8
	C14.3,203.7,7.3,304.3,3,365.3c-5.4,76.3-15.7,223.4,93.7,325.9c4.4,4.1,74,67.2,173.3,82.5c3,0.5,5.9,1.4,8.5,2.9
	c17.4,9.5,34,20.3,49.9,32.2c27.2,20.5,29.3,26.8,40,27.6c31.6,2.2,69.5-49,79.4-86.6c1.7-6.3,5.7-11.8,11.2-15.2
	c79.8-50,115-127.5,121.9-143.5C612.2,518.4,605.6,454.5,600.3,402.7z"
  />
  <circle
    class="cls-2-lemon-mouse-level-two-profile"
    cx="110.6"
    cy="436.8"
    r="61.6"
  />
  <circle
    class="cls-2-lemon-mouse-level-two-profile"
    cx="467"
    cy="349.8"
    r="61.6"
  />
  <circle
    class="cls-3-lemon-mouse-level-two-profile"
    cx="213.8"
    cy="297"
    r="19.4"
  />
  <circle
    class="cls-3-lemon-mouse-level-two-profile"
    cx="302.4"
    cy="268.6"
    r="19.4"
  />
  <path
    d="M242.6,339.8c-4.4,9.5-8.2,19.2-11.6,29.1c-1.5,4.6-2.8,9.4-3.7,14.1c-1.1,5.4-1.7,10.8-1.8,16.3c-0.1,4.8,0.4,9.6,1.3,14.3
	c0.8,4,2.1,7.9,3.7,11.7c1.5,3.7,3.4,7.3,5.7,10.6c2.4,3.5,5.2,6.8,8.4,9.7c3.1,2.8,6.5,5.2,10.3,7.1c3.7,1.9,7.7,3.2,11.9,3.9
	c1.5,0.2,3.1,0.4,4.6,0.5c1,0,2.1-0.2,3-0.7c1-0.3,1.8-0.9,2.5-1.6c0.7-0.7,1.3-1.5,1.6-2.5c0.5-0.9,0.7-2,0.7-3
	c0-2.1-0.8-4-2.3-5.5l-1.6-1.2c-1.2-0.7-2.5-1.1-3.9-1.1c-0.8,0-1.5-0.1-2.3-0.2l2.1,0.3c-2.9-0.4-5.7-1.2-8.4-2.3l1.9,0.8
	c-2.9-1.3-5.7-2.9-8.2-4.8l1.6,1.2c-3-2.3-5.7-5-8-8l1.2,1.6c-2.8-3.6-5.1-7.6-6.9-11.8l0.8,1.9c-1.9-4.5-3.2-9.2-3.8-14l0.3,2.1
	c-0.7-6.1-0.7-12.2,0.2-18.3l-0.3,2.1c1.3-9.8,4.3-19.4,7.9-28.6c1-2.7,2.1-5.3,3.2-7.9l-0.8,1.9c1.4-3.3,2.9-6.6,4.3-9.9
	c0.6-0.9,0.9-1.9,0.9-2.9c0.4-3.1-1.1-6.1-3.7-7.7c-1.8-1.1-4-1.3-6-0.8l-1.9,0.8C244.2,337.7,243.3,338.6,242.6,339.8L242.6,339.8z
	"
  />
  <path
    d="M314.5,473.4l16.9-2.7c1-0.2,1.9-0.7,2.6-1.4c0.8-0.5,1.5-1.3,2-2.2c0.6-0.9,0.9-1.9,0.9-2.9c0.2-1,0.2-2.1-0.1-3.1
	c-0.5-1.9-1.8-3.6-3.6-4.6l-1.9-0.8c-1.4-0.4-2.8-0.4-4.1,0l-16.9,2.7c-1.9,0.6-3.5,1.9-4.6,3.6c-0.6,0.9-0.9,1.9-0.9,2.9
	c-0.2,1-0.2,2.1,0.2,3.1c0.5,1.9,1.8,3.6,3.6,4.6l1.9,0.8C311.8,473.8,313.2,473.8,314.5,473.4L314.5,473.4z"
  />
  <circle cx="216.2" cy="301.1" r="7.3" />
  <circle cx="302.4" cy="274.8" r="7.3" />
</svg>
