<?xml version="1.0" encoding="utf-8"?>
<!-- Generator: Adobe Illustrator 25.4.1, SVG Export Plug-In . SVG Version: 6.00 Build 0)  -->
<svg version="1.1" id="peach-profile-level-one" xmlns="http://www.w3.org/2000/svg" xmlns:xlink="http://www.w3.org/1999/xlink" x="0px"
	 y="0px" viewBox="0 0 669 666.4" style="enable-background:new 0 0 669 666.4;" xml:space="preserve">
<style type="text/css">
	.cls-1-peach-bear-level-one{fill:#CE0B0B;}
	.cls-2-peach-bear-level-one{fill:#FF0000;}
	.cls-3-peach-bear-level-one{fill:#FFD500;}
	.cls-4-peach-bear-level-one{fill:#070707;}
	.cls-5-peach-bear-level-one{fill:#FF4300;}
</style>
<path class="cls-1-peach-bear-level-one" d="M352,637.4c-175.1,0-317-141.9-317-317s141.9-317,317-317c17.9,0,35.8,1.5,53.5,4.5c-23.7-5.2-48-7.9-72.3-7.9
	C149.2,0,0,149.2,0,333.2s149.2,333.2,333.2,333.2c166.4,0,304.3-122,329.2-281.4C632.5,529.1,504.9,637.4,352,637.4z"/>
<path class="cls-2-peach-bear-level-one" d="M666.4,333.2c0,17.3-1.3,34.7-4,51.8c4.4-21.3,6.6-42.9,6.6-64.6C669,163.5,555.1,33.3,405.5,7.9
	C554.8,40.9,666.4,174,666.4,333.2z"/>
<path class="cls-2-peach-bear-level-one" d="M35,320.4c0,175.1,141.9,317,317,317c152.9,0,280.5-108.3,310.4-252.4c2.7-17.1,4-34.5,4-51.8
	C666.4,174,554.8,40.9,405.5,7.9c-17.7-3-35.6-4.5-53.5-4.5C176.9,3.4,35,145.3,35,320.4z"/>
<ellipse class="cls-3-peach-bear-level-one" cx="332.5" cy="331" rx="20" ry="10.6"/>
<circle class="cls-4-peach-bear-level-one" cx="287.5" cy="313.9" r="15"/>
<circle class="cls-4-peach-bear-level-one" cx="371.6" cy="313.9" r="15"/>
<ellipse transform="matrix(0.1602 -0.9871 0.9871 0.1602 -139.184 527.6889)" class="cls-5-peach-bear-level-one" cx="240.5" cy="345.6" rx="26.2" ry="26.2"/>
<circle class="cls-5-peach-bear-level-one" cx="420" cy="345.6" r="26.2"/>
</svg>
