<?xml version="1.0" encoding="utf-8"?>
<!-- Generator: Adobe Illustrator 25.4.1, SVG Export Plug-In . SVG Version: 6.00 Build 0)  -->
<svg version="1.1" id="레이어_1" xmlns="http://www.w3.org/2000/svg" xmlns:xlink="http://www.w3.org/1999/xlink" x="0px"
	 y="0px" viewBox="0 0 859.1 720.2" style="enable-background:new 0 0 859.1 720.2;" xml:space="preserve">
<style type="text/css">
	.cls-1-avocado-snowman-level-three{fill:#08FD50;}
	.cls-2-avocado-snowman-level-three{fill:#00DA2C;}
	.cls-3-avocado-snowman-level-three{fill:#04B564;}
	.cls-4-avocado-snowman-level-three{fill:#070707;}
	.cls-5-avocado-snowman-level-three{fill:#FFFFFF;}
	.cls-6-avocado-snowman-level-three{fill:#FD0300;}
</style>
<path class="cls-1-avocado-snowman-level-three" d="M429.6,720.2c236.1,0,427.7-159.6,429.6-357.2C857.4,177,692.8,24,480.9,2.5C464,0.9,446.9,0,429.6,0
	c-16.4,0-32.5,0.8-48.4,2.3C167.9,22.6,1.8,176.2,0,363C1.9,560.5,193.5,720.2,429.6,720.2z"/>
<ellipse class="cls-2-avocado-snowman-level-three" cx="462" cy="360.9" rx="285.2" ry="234.8"/>
<ellipse class="cls-3-avocado-snowman-level-three" cx="451.9" cy="372.6" rx="269.1" ry="221.6"/>
<path class="cls-4-avocado-snowman-level-three" d="M398.5,433.1c0.4,1.1,0.7,2.2,0.9,3.4l-0.3-2.1c0.2,1.3,0.2,2.6,0,3.9l0.3-2.1c-0.2,1.5-0.6,2.9-1.2,4.3
	l0.8-1.9c-0.7,1.5-1.5,3-2.5,4.3l1.2-1.6c-1,1.3-2.2,2.5-3.5,3.5l1.6-1.2c-1.2,1-2.6,1.7-4,2.4l1.9-0.8c-1.2,0.5-2.5,0.9-3.9,1.1
	l2.1-0.3c-1.2,0.2-2.4,0.2-3.6,0l2.1,0.3l-0.9-0.1c-1-0.3-2.1-0.4-3.2-0.1c-1.1,0-2.1,0.4-3,0.9c-1.7,1.1-3,2.8-3.6,4.8
	c-0.6,2.1-0.3,4.3,0.8,6.1c1,1.8,2.7,3.1,4.8,3.6c1.8,0.4,3.7,0.6,5.5,0.5c1.8-0.1,3.6-0.4,5.4-0.9c1.7-0.5,3.4-1.2,5-2.1
	c1.6-0.9,3.1-1.9,4.4-3.1c0.9-0.7,1.8-1.6,2.6-2.5c1.2-1.4,2.3-2.9,3.3-4.5c0.9-1.6,1.7-3.3,2.3-5c0.4-1.1,0.7-2.2,0.9-3.4
	c0.4-1.9,0.5-3.9,0.4-5.9c-0.1-2-0.5-4-1.2-5.9c-0.6-2-1.9-3.6-3.7-4.8c-0.9-0.6-1.9-0.9-3-0.9c-1.1-0.2-2.1-0.2-3.2,0.1
	c-2,0.6-3.7,1.9-4.7,3.7l-0.8,1.9C398.1,430.3,398.1,431.7,398.5,433.1L398.5,433.1z"/>
<path class="cls-4-avocado-snowman-level-three" d="M606.2,420.9c1.5,2.3,3.2,4.4,5.2,6.2c2,1.8,4.3,3.4,6.7,4.6c2.5,1.3,5.1,2.1,7.8,2.6c1.8,0.3,3.6,0.5,5.4,0.5
	c1.8,0,3.5-0.2,5.3-0.5c3.2-0.5,6.3-1.6,9.2-3.2c1.8-1.1,3.1-2.8,3.7-4.8c0.3-1,0.4-2.1,0.1-3.2c0-1-0.4-2.1-0.9-3
	c-1-1.8-2.8-3.1-4.8-3.7c-2.1-0.5-4.3-0.2-6.1,0.8c-0.6,0.3-1.2,0.6-1.9,0.9l1.9-0.8c-1.8,0.7-3.7,1.3-5.6,1.5l2.1-0.3
	c-1.9,0.2-3.9,0.2-5.8,0l2.1,0.3c-1.9-0.3-3.7-0.8-5.5-1.5l1.9,0.8c-1.8-0.7-3.5-1.7-5-2.9l1.6,1.2c-1.5-1.2-2.8-2.5-4-4l1.2,1.6
	c-0.4-0.5-0.7-1-1.1-1.5c-1.1-1.8-2.8-3.1-4.8-3.7c-1-0.3-2.1-0.4-3.2-0.1c-1,0.1-2.1,0.4-3,1C605.3,412.2,604,417,606.2,420.9
	C606.2,420.8,606.2,420.8,606.2,420.9L606.2,420.9z"/>
<path class="cls-5-avocado-snowman-level-three" d="M583.7,476.9c-0.5,0.4-10.1-8.6-15.4-22.5c-2.2-5.7-1.8-7.8-1-9.2c2.3-3.7,7.8-2.9,12-1.7s8.2,2.4,11.6,4.8
	s6.2,6.3,6,10.5c-0.2,3.7-2.2,7-5.3,9.1c-4.5,2.9-9.1,0.9-10.2,3.2S584,476.7,583.7,476.9z"/>
<circle class="cls-4-avocado-snowman-level-three" cx="482.7" cy="393" r="17.5"/>
<circle class="cls-4-avocado-snowman-level-three" cx="579.5" cy="393" r="17.5"/>
<path class="cls-6-avocado-snowman-level-three" d="M460.1,484.5c-14.8-9.1-21.6-22.8-25.2-30.5c-6-12.5-10.8-23.9-8.1-38c2.5-13,12.5-25,25.5-27.3
	s27.7,7.3,28.6,20.5c1,15.6-11.3,23.3-5.9,38.7c1.6,4.6,6.3,13.2,13.8,20.4c3.5,3.4,7,5.9,8.6,11c1.1,3.5,1.7,9.6-1.7,12.7
	c-3.2,2.9-8.4,1.8-15.8,0C474.2,490.8,467.7,489.2,460.1,484.5z"/>
<path class="cls-5-avocado-snowman-level-three" d="M451.2,417.7c-2.9,19,1.7,38.4,12.8,54c3.1,4.4,6.7,8.4,10.8,12c1.4,1.3,3.6-0.8,2.1-2.1
	c-13.7-12.3-22.1-29.4-23.5-47.8c-0.4-5.1-0.2-10.2,0.6-15.3C454.4,416.6,451.5,415.8,451.2,417.7L451.2,417.7z"/>
<path class="cls-4-avocado-snowman-level-three" d="M405,456.5c12.5,12.3,26.9,22.4,42.7,29.9c8.2,3.9,16.6,7.1,25.3,9.7c8.7,2.5,17.6,4.2,26.6,5.3
	c17,2.1,34.2,1.2,50.9-2.5c15.6-3.6,30.9-10.1,43.8-19.6c6.6-4.7,12.6-10.3,17.8-16.5c2.7-3.3,5.2-6.8,7.5-10.5
	c2.2-3.7,4.1-7.6,5.7-11.6c0.7-1.8,1.3-3.5,1.9-5.3c1.1-4.2-1.3-8.6-5.5-9.8c-4.2-1.1-8.5,1.4-9.8,5.6c-0.7,2.2-1.5,4.3-2.4,6.4
	l0.8-1.9c-2.4,5.7-5.6,11-9.3,15.9l1.2-1.6c-4.5,5.8-9.7,10.9-15.5,15.4l1.6-1.2c-7.3,5.6-15.3,10.2-23.8,13.8l1.9-0.8
	c-10.1,4.3-20.8,7.2-31.7,8.6l2.1-0.3c-13.1,1.7-26.3,1.7-39.3-0.1l2.1,0.3c-13.7-1.9-27.1-5.5-39.9-10.9l1.9,0.8
	c-12.1-5.1-23.6-11.8-34-19.8l1.6,1.2c-4.6-3.6-9-7.4-13.2-11.5c-3-2.9-8.3-3.2-11.2,0C401.9,448.4,401.9,453.3,405,456.5L405,456.5
	z"/>
<path class="cls-1-avocado-snowman-level-three" d="M480.9,2.5C464,0.8,446.9,0,429.6,0c-16.4,0-32.5,0.8-48.4,2.3c15.9-1.5,32-2.3,48.4-2.3
	C446.9,0,464,0.9,480.9,2.5z"/>
</svg>
