<?xml version="1.0" encoding="utf-8"?>
<!-- Generator: Adobe Illustrator 25.4.1, SVG Export Plug-In . SVG Version: 6.00 Build 0)  -->
<svg version="1.1" id="레이어_1" xmlns="http://www.w3.org/2000/svg" xmlns:xlink="http://www.w3.org/1999/xlink" x="0px"
	 y="0px" viewBox="0 0 781.9 610" style="enable-background:new 0 0 781.9 610;" xml:space="preserve">
<style type="text/css">
	.cls-1-avocado-snowman-level-two{fill:#08FD50;}
	.cls-2-avocado-snowman-level-two{fill:#04B564;}
	.cls-3-avocado-snowman-level-two{fill:#070707;}
	.cls-4-avocado-snowman-level-two{fill:#FFFFFF;}
</style>
<path class="cls-1-avocado-snowman-level-two" d="M391,610c128.7,0,227.7-56.3,238.8-63.4c90.3-57.9,130-136.5,138.1-160c4.6-13.3,12-45.9,13.3-62
	c0.8-9.6,0.8-19.2,0.8-19.2c0-3.8-0.1-7.6-0.3-11.4C772.4,147.8,601.4,21.5,432.5,2.5C418.9,1.4,405,0.8,391,0.8
	c-17.6,0-35,0.9-52,2.7C172.3,25.8,0.6,154.1,0,305.4c0,3,0.1,5.9,0.2,8.9c0.4,10.4,1.7,20.8,3.7,31c-0.1,0.2-0.3,0.4-0.4,0.6
	C28.8,495,192.6,610,391,610z"/>
<ellipse class="cls-2-avocado-snowman-level-two" cx="421.7" cy="294.1" rx="275.2" ry="229.2"/>
<ellipse class="cls-3-avocado-snowman-level-two" cx="442.7" cy="294.9" rx="9.4" ry="10.5"/>
<ellipse class="cls-3-avocado-snowman-level-two" cx="506.9" cy="294.1" rx="9.4" ry="10.5"/>
<path class="cls-3-avocado-snowman-level-two" d="M335.2,290.5c0.5,1.4,0.9,2.8,1.1,4.2l-0.3-2.6c0.2,1.6,0.2,3.2,0,4.8l0.3-2.6c-0.3,1.8-0.7,3.6-1.4,5.3l1-2.3
	c-0.8,1.9-1.8,3.7-3,5.3l1.5-2c-1.2,1.6-2.6,3.1-4.2,4.4l1.9-1.5c-1.5,1.2-3.1,2.1-4.8,2.9l2.3-1c-1.5,0.6-3.1,1.1-4.7,1.3l2.5-0.4
	c-1.5,0.2-2.9,0.2-4.4,0l2.5,0.4c-0.3,0-0.7-0.1-1-0.2c-2.5-0.6-5.1-0.2-7.4,1c-1.1,0.6-2,1.5-2.7,2.5c-0.9,0.9-1.5,2.1-1.8,3.4
	c-0.7,2.6-0.3,5.3,1,7.5c1.3,2,3.3,4,5.7,4.5c2.2,0.5,4.4,0.7,6.6,0.6c2.2-0.1,4.4-0.5,6.5-1c2.1-0.6,4.1-1.5,6-2.6
	c1.9-1.1,3.7-2.4,5.3-3.8c1.1-0.9,2.2-1.9,3.1-3c1.5-1.7,2.8-3.5,4-5.5c1.1-2,2-4,2.7-6.1c0.5-1.4,0.8-2.7,1.1-4.2
	c0.4-2.4,0.6-4.8,0.5-7.2c-0.2-2.5-0.7-4.9-1.5-7.2c-0.3-1.2-0.9-2.4-1.7-3.3c-0.7-1.1-1.6-1.9-2.7-2.5c-2.3-1.2-4.9-1.6-7.4-1
	c-2.4,0.7-4.5,2.3-5.7,4.5l-1,2.3C334.7,287,334.7,288.8,335.2,290.5L335.2,290.5z"/>
<path class="cls-3-avocado-snowman-level-two" d="M575.7,271.8c1.7,2.8,3.9,5.4,6.3,7.7c2.4,2.3,5.1,4.2,8.1,5.7c3,1.5,6.1,2.6,9.4,3.2c2.1,0.4,4.3,0.6,6.5,0.7
	c2.1,0,4.3-0.3,6.4-0.6c3.9-0.7,7.6-2,11-3.9c2.1-1.3,3.7-3.4,4.4-5.9c0.4-1.3,0.5-2.6,0.2-3.9c-0.1-1.3-0.4-2.5-1.1-3.6
	c-1.3-2.2-3.3-3.8-5.7-4.5c-2.5-0.6-5.1-0.3-7.4,1c-0.7,0.4-1.5,0.8-2.2,1.1l2.3-1c-2.2,0.9-4.4,1.5-6.8,1.9l2.5-0.4
	c-2.3,0.3-4.7,0.3-7,0l2.5,0.3c-2.2-0.3-4.4-0.9-6.5-1.8l2.3,1c-2.1-0.9-4.2-2.1-6-3.6l1.9,1.5c-1.8-1.4-3.4-3.1-4.8-4.9l1.5,2
	c-0.5-0.6-0.9-1.2-1.3-1.9c-1.3-2.2-3.3-3.8-5.7-4.5c-2.5-0.6-5.1-0.2-7.4,1c-2.2,1.3-3.7,3.4-4.4,5.9
	C574.2,266.9,574.5,269.6,575.7,271.8L575.7,271.8z"/>
<path class="cls-4-avocado-snowman-level-two" d="M558,335.7c-0.6,0.5-12.2-10.6-18.5-27.8c-2.6-7.1-2.2-9.6-1.2-11.4c2.8-4.6,9.4-3.6,14.5-2.1
	c4.9,1.5,9.8,3,14,6s7.4,7.8,7.3,13c-0.3,4.5-2.6,8.6-6.4,11.1c-5.4,3.5-10.9,1.1-12.3,4S558.3,335.4,558,335.7z"/>
<path class="cls-3-avocado-snowman-level-two" d="M337.7,314.2c15,15.1,32.3,27.5,51.4,36.8c9.8,4.8,20,8.8,30.4,11.9c10.5,3,21.2,5.2,32,6.5
	c20.5,2.6,41.2,1.5,61.3-3.1c18.7-4.4,37.2-12.5,52.7-24.1c8-5.8,15.2-12.7,21.5-20.4c3.3-4.1,6.3-8.4,9-12.9
	c2.6-4.6,4.9-9.4,6.8-14.4c0.8-2.2,1.6-4.4,2.3-6.6c1.5-4.9-1.8-10.9-6.7-12c-5.1-1.3-10.3,1.8-11.7,6.9c-0.8,2.7-1.8,5.3-2.8,7.9
	l1-2.3c-2.9,7-6.8,13.6-11.3,19.6l1.5-2c-5.4,7.1-11.6,13.5-18.6,19l1.9-1.5c-8.8,6.8-18.4,12.5-28.6,16.9l2.3-1
	c-12.1,5.2-24.9,8.8-38,10.6l2.5-0.4c-15.7,2.1-31.6,2.1-47.3-0.1l2.5,0.4c-16.5-2.3-32.6-6.8-48-13.4l2.3,1
	c-14.6-6.4-28.4-14.6-40.9-24.5l1.9,1.5c-5.6-4.4-10.9-9.2-15.9-14.2c-3.6-3.6-10-3.9-13.5,0S333.9,310.3,337.7,314.2L337.7,314.2z"
	/>
<path class="cls-1-avocado-snowman-level-two" d="M0.1,313.3c0,0.3,0,0.7,0,1c-0.1-3-0.2-5.9-0.2-8.9C0,308,0,310.7,0.1,313.3z"/>
<path class="cls-1-avocado-snowman-level-two" d="M781.2,324.6c0.4-3.7,0.6-7.5,0.8-11.2c0.2-6.5,0.1-12.9-0.3-19.3c0.2,3.8,0.3,7.6,0.3,11.4
	C781.9,311.9,781.7,318.2,781.2,324.6z"/>
<path class="cls-1-avocado-snowman-level-two" d="M432.5,2.5c-16.8-1.9-33.6-2.7-50.1-2.4c-14.4,0.3-28.9,1.4-43.5,3.4c17-1.8,34.4-2.7,52-2.7
	C405,0.8,418.9,1.4,432.5,2.5z"/>
</svg>
