<svg
  version="1.1"
  id="blueberry-octo-profile-level-two"
  xmlns="http://www.w3.org/2000/svg"
  xmlns:xlink="http://www.w3.org/1999/xlink"
  x="0px"
  y="0px"
  viewBox="0 0 781.8 826"
  style="enable-background: new 0 0 781.8 826"
  xml:space="preserve"
>
  <style type="text/css">
    .cls-1-blueberry-octo-level-two-profile {
      fill: #00d389;
    }
    .cls-2-blueberry-octo-level-two-profile {
      fill: #1600cb;
    }
    .cls-3-blueberry-octo-level-two-profile {
      fill: #2501fd;
    }
    .cls-4-blueberry-octo-level-two-profile {
      fill: #ffffff;
    }
    .cls-5-blueberry-octo-level-two-profile {
      fill: #070707;
    }
    .cls-6-blueberry-octo-level-two-profile {
      fill: url(#SVGID_1_blueberry-octo-level-two-profile);
    }
    .cls-7-blueberry-octo-level-two-profile {
      fill: url(#SVGID_00000013179441358844699460000004739775154715813768_blueberry-octo-level-two-profile);
    }
  </style>
  <path
    class="cls-1-blueberry-octo-level-two-profile"
    d="M259.8,125.1c-52.9-33.3-83.1-52.5-124-57.3C79.1,61,30.3,84.8,0,104.8l77.2,106.8
	c29.8,41.2,60.5,83.4,102.7,111.7c72.2,48.4,174.4,46.9,245.1-3.7c-26.9-71.3-65.5-115.1-89.7-138.2
	C309,156.1,284.5,140.7,259.8,125.1z"
  />
  <circle
    class="cls-2-blueberry-octo-level-two-profile"
    cx="276.5"
    cy="99.7"
    r="78.8"
  />
  <circle
    class="cls-2-blueberry-octo-level-two-profile"
    cx="406.7"
    cy="78.8"
    r="78.8"
  />
  <circle
    class="cls-2-blueberry-octo-level-two-profile"
    cx="545.7"
    cy="99.7"
    r="78.8"
  />
  <circle
    class="cls-3-blueberry-octo-level-two-profile"
    cx="425.5"
    cy="469.7"
    r="356.4"
  />
  <circle
    class="cls-4-blueberry-octo-level-two-profile"
    cx="309"
    cy="408.6"
    r="21"
  />
  <path
    class="cls-2-blueberry-octo-level-two-profile"
    d="M401.5,429.9c-35.2,8.3-61.5,44.4-58.6,80.5s34.4,67.6,70.4,70.5c46.5,3.8,90-43.3,82.2-89.3
	s-64.7-76.1-107-56.6"
  />
  <circle
    class="cls-5-blueberry-octo-level-two-profile"
    cx="307.5"
    cy="416.7"
    r="10.6"
  />
  <circle
    class="cls-4-blueberry-octo-level-two-profile"
    cx="532.3"
    cy="408.6"
    r="21"
  />
  <circle
    class="cls-5-blueberry-octo-level-two-profile"
    cx="530.8"
    cy="416.7"
    r="10.6"
  />
  <path
    class="cls-3-blueberry-octo-level-two-profile"
    d="M410.8,468.2c-17,4-29.7,21.4-28.3,38.8s16.6,32.6,34,34c22.4,1.8,43.4-20.9,39.6-43.1s-31.2-36.7-51.6-27.3"
  />
  <radialGradient
    id="SVGID_1_blueberry-octo-level-two-profile"
    cx="212.51"
    cy="327.1012"
    r="57.691"
    gradientTransform="matrix(1 0 0 -1 0 826)"
    gradientUnits="userSpaceOnUse"
  >
    <stop offset="0" style="stop-color: #d20c2b" />
    <stop offset="1" style="stop-color: #d20c2b; stop-opacity: 0" />
  </radialGradient>
  <path
    class="cls-6-blueberry-octo-level-two-profile"
    d="M198.9,442.2c-26.6,6.2-46.4,33.5-44.2,60.7c2.1,27.2,25.9,51,53.1,53.2c35.1,2.9,67.9-32.7,62-67.4
	s-48.8-57.5-80.7-42.7"
  />
  <radialGradient
    id="SVGID_00000133513485230142842050000015082854230744717725_blueberry-octo-level-two-profile"
    cx="625.53"
    cy="327.1012"
    r="57.691"
    gradientTransform="matrix(1 0 0 -1 0 826)"
    gradientUnits="userSpaceOnUse"
  >
    <stop offset="0" style="stop-color: #d20c2b" />
    <stop offset="1" style="stop-color: #d20c2b; stop-opacity: 0" />
  </radialGradient>
  <path
    style="
      fill: url(#SVGID_00000133513485230142842050000015082854230744717725_blueberry-octo-level-two-profile);
    "
    d="M612,442.2c-26.5,6.2-46.4,33.5-44.2,60.7
	c2.2,27.2,25.9,51,53.1,53.2c35.1,2.9,67.9-32.7,62-67.4s-48.8-57.5-80.7-42.7"
  />
</svg>
