<svg version="1.1" id="banana-profile-level-five" xmlns="http://www.w3.org/2000/svg" x="0" y="0" viewBox="0 0 1492.7 921" style="enable-background:new 0 0 1492.7 921" xml:space="preserve"><style>.cls-1-banana-elephant-level-five{fill:#ffc500}.cls-2-banana-elephant-level-five{fill:#fdd301}.cls-4-banana-elephant-level-five{opacity:.46}.cls-5-banana-elephant-level-five{fill:#fff}.cls-7-banana-elephant-level-five{fill:#02111e}.cls-8-banana-elephant-level-five{fill:#610000}.cls-16-banana-elephant-level-five{fill:#651e02}.cls-17-banana-elephant-level-five{opacity:.2}</style><path class="cls-1-banana-elephant-level-five" d="M1476.1 474.8c4.9 20.8 7.4 42.1 7.4 63.5 0 151.4-122.8 274.1-274.1 274.1-118.3 0-219-74.9-257.5-179.8 28.6 120.8 137.2 210.7 266.7 210.7 151.4 0 274.1-122.8 274.1-274.1 0-32.2-5.6-64.2-16.6-94.4z"/><path class="cls-2-banana-elephant-level-five" d="M1209.3 812.4c151.4 0 274.1-122.8 274.1-274.1 0-21.4-2.5-42.7-7.4-63.5-11.4-41.7-25.5-82.7-42.1-122.6-9.4-22.6-50-108.4-64.5-103.6-3.8 1.3-7.2 9.3-4.3 40.2-3.4 29-15.4 46.4-21.9 54.4-7.2 8.8-14.6 14.5-22.2 20.3 0 0-19.4 19.2-44.2 25.6-55.2 14.3-127-21.6-191.3-5.7-98.2 24.4-140.7 160.2-141.1 185.7 0 1.7-.3 31.2-.3 31.2 1.2 11 3.8 21.9 7.7 32.3 38.5 104.9 139.3 179.8 257.5 179.8z"/><radialGradient id="SVGID_1_banana-elephant-level-five" cx="1128.37" cy="771.967" r="101.537" gradientTransform="matrix(1 0 0 -1 0 1366)" gradientUnits="userSpaceOnUse"><stop offset="0" style="stop-color:#f27d00"/><stop offset="1" style="stop-color:#ffb500"/></radialGradient><path d="M1048.1 582.7c3-16.2 11.7-63 51.5-91.9 25.9-18.8 52.9-21.2 80.1-23.6 62.5-5.5 81.6 16 119.6 6.6 22.2-5.5 52.5-21.9 82-73.5 3.5 8.8 55.8 150.9-29.2 257.2-12.9 16.2-68.7 81.2-155.6 82.7-12.6.2-101.8 2.1-138.5-63.1-20.2-35.8-13.7-73.8-9.9-94.4z" style="fill:url(#SVGID_1_banana-elephant-level-five)"/><g class="cls-4-banana-elephant-level-five"><path class="cls-5-banana-elephant-level-five" d="M1446.5 489.3c-8.3-5.7-11.1-18-12.1-22.7-5.7-24.6-19.8-86.2-41.6-96.6-3.8-1.8-10.6-3.4-15.5-10.2-1.1-1.6-4.1-6.8-3.6-11.5.6-5.6 8.9-6.3 12.1-6.3 14.3.1 29 21.4 38.6 35.5 0 0 26.6 38.7 34.7 96.5.9 6.6 1.6 15.2-2.6 17.5-3.9 1.9-9.5-1.9-10-2.2z"/></g><g class="cls-4-banana-elephant-level-five"><path class="cls-5-banana-elephant-level-five" d="M1454.9 508.7c-4-.7-8.5 5.5-17.4 17.8-7.1 9.8-10.9 15.2-11.6 23.2-.1 1.6-1.5 16.1 6.9 21 7.4 4.3 18.8-1.1 24.7-7.1 16.3-16.6 6.8-53.2-2.6-54.9z"/></g><path class="cls-1-banana-elephant-level-five" d="M16.7 474.8c-4.9 20.8-7.4 42.1-7.4 63.5 0 151.4 122.8 274.1 274.1 274.1 118.3 0 219-74.9 257.5-179.8-28.6 120.8-137.2 210.7-266.7 210.7C122.8 843.3 0 720.5 0 569.1 0 537 5.6 505 16.7 474.8z"/><path class="cls-2-banana-elephant-level-five" d="M283.4 812.4C132 812.4 9.3 689.7 9.3 538.3c0-21.4 2.5-42.7 7.4-63.5 11.4-41.7 25.5-82.7 42.1-122.6 9.4-22.6 50-108.4 64.5-103.6 3.8 1.3 7.2 9.3 4.3 40.2 3.4 29 15.4 46.4 21.9 54.4 7.2 8.8 14.6 14.5 22.2 20.3 0 0 19.4 19.2 44.2 25.6 55.2 14.3 127-21.6 191.3-5.7 98.2 24.4 140.7 160.2 141.1 185.7 0 1.7.3 31.2.3 31.2-1.2 11-3.8 21.9-7.7 32.3-38.5 104.9-139.3 179.8-257.5 179.8z"/><radialGradient id="SVGID_00000057147471396188766840000008569635242569211522_banana-elephant-level-five" cx="-547.29" cy="771.967" r="101.537" gradientTransform="rotate(180 -91.477 683)" gradientUnits="userSpaceOnUse"><stop offset="0" style="stop-color:#f27d00"/><stop offset="1" style="stop-color:#ffb500"/></radialGradient><path style="fill:url(#SVGID_00000057147471396188766840000008569635242569211522_banana-elephant-level-five)" d="M444.6 582.7c-3-16.2-11.7-63-51.5-91.9-25.9-18.8-52.9-21.2-80.1-23.6-62.5-5.5-81.6 16-119.6 6.6-22.2-5.5-52.5-21.9-82-73.5-3.5 8.8-55.8 150.9 29.2 257.2 12.9 16.2 68.7 81.2 155.6 82.7 12.6.2 101.8 2.1 138.5-63.1 20.3-35.8 13.7-73.8 9.9-94.4z"/><g class="cls-4-banana-elephant-level-five"><path class="cls-5-banana-elephant-level-five" d="M46.3 489.3c8.3-5.7 11.1-18 12.1-22.7C64 442 78.2 380.3 100 370c3.8-1.8 10.6-3.4 15.5-10.2 1.1-1.6 4.1-6.8 3.6-11.5-.6-5.6-8.9-6.3-12.1-6.3-14.3.1-29 21.4-38.6 35.5 0 0-26.6 38.7-34.7 96.5-.9 6.6-1.6 15.2 2.6 17.5 3.8 1.9 9.4-1.9 10-2.2z"/></g><g class="cls-4-banana-elephant-level-five"><path class="cls-5-banana-elephant-level-five" d="M37.8 508.7c4-.7 8.5 5.5 17.4 17.8 7.1 9.8 10.9 15.2 11.6 23.3.1 1.6 1.5 16.1-6.9 21-7.4 4.3-18.8-1.1-24.7-7.1-16.3-16.7-6.8-53.3 2.6-55z"/></g><path class="cls-2-banana-elephant-level-five" d="M762.2 279.5c-10.5-.1-21.1.2-31.8 1 10.5-.7 21.2-1 32-1h-.2z"/><path class="cls-7-banana-elephant-level-five" d="M675.9 825.3c-1.7-.9-3.4-1.8-5-2.7 2.6 1.5 5.2 2.8 7.9 4.1 4.7 2.2 9.6 4.2 14.5 5.9-4.4-1.5-8.2-3.1-11.2-4.4s-5.8-2.7-6.2-2.9z"/><path class="cls-8-banana-elephant-level-five" d="M739.7 839.3c-15.7.5-31.4-1.8-46.4-6.7 16.4 5.7 41.6 11.2 70.4 5.3-7.9 1.2-16 1.7-24 1.4z"/><path d="M1519.6 1360.1c.8 0 1.5-.7 1.5-1.5s-.7-1.5-1.5-1.5-1.5.7-1.5 1.5.7 1.5 1.5 1.5z" style="fill:#00ad4c"/><path class="cls-1-banana-elephant-level-five" d="M1089.7 548.6c7.5-17.5 11.4-36.2 11.4-55.2 0-118.1-151.4-213.8-338.2-213.8h-.4c141.6 1.5 312.7 83.2 327.4 196.9 3.8 29-3.3 55.3-12.3 76 94.4 61.5 98.9 117.3 99.2 131.6 2.2 104.4-174 202.3-320 202.3-35.8.1-71.5-3.8-106.4-11.5-34.9 7.7-70.6 11.5-106.4 11.5-145 0-322.4-97-320-202.3 1.7-74.6 92.9-129 118.5-143.9-7.5-19.8-13.5-45.4-9-73.6C450 362.8 597.7 289.8 730.4 280.5c-171.5 10.3-305.7 101.7-305.7 212.8 0 15 2.5 30 7.3 44.2-80.4 39.1-132.2 100.5-132.2 169.6 0 118.1 151.4 213.8 338.2 213.8 37.8.1 75.5-4 112.5-12.1 36.9 8.1 74.6 12.2 112.5 12.2 186.8 0 338.2-95.7 338.2-213.8-.2-63-43.1-119.5-111.5-158.6z"/><linearGradient id="SVGID_00000109752662992420466150000006381429458642748823_banana-elephant-level-five" gradientUnits="userSpaceOnUse" x1="750.366" y1="1203.75" x2="750.366" y2="960.17" gradientTransform="matrix(1 0 0 -1 0 1366)"><stop offset="0" style="stop-color:#8dff4b"/><stop offset="1" style="stop-color:#fdd301"/></linearGradient><path style="fill:url(#SVGID_00000109752662992420466150000006381429458642748823_banana-elephant-level-five)" d="M1176.8 684.1c-.3-14-4.6-67.4-92.2-127-4-2.7-5.6-7.9-3.9-12.5 7.3-19.3 12.4-42.7 9.1-68.2-12.4-95.7-135.5-168.7-258.6-190.4-5.1-.9-8.8-5.3-8.7-10.5v-2.2c0-39.1-25.9-70.9-57.9-70.9s-57.9 31.7-57.9 70.9v.1c0 5.3-3.8 9.8-9 10.5-123.2 17.9-249 87.2-264.2 182.6-3.9 24.6.1 47.2 6.2 65.7 1.5 4.6-.4 9.7-4.6 12.2-32.3 19.5-109.6 71-111.1 139.6-2.4 105.3 175 202.3 320 202.3 35 .1 69.9-3.6 104.2-11 1.5-.3 3-.3 4.4 0 34.2 7.4 69.2 11.1 104.2 11 146 .1 322.2-97.8 320-202.2z"/><radialGradient id="SVGID_00000036252140487126827170000013886293800696435886_banana-elephant-level-five" cx="13.753" cy="180.677" r="97.27" gradientTransform="scale(1 -1) rotate(28.1 1997.888 677.749)" gradientUnits="userSpaceOnUse"><stop offset="0" style="stop-color:#fd3400;stop-opacity:.6"/><stop offset="1" style="stop-color:#fd3700;stop-opacity:0"/></radialGradient><circle style="fill:url(#SVGID_00000036252140487126827170000013886293800696435886_banana-elephant-level-five)" cx="478.4" cy="698.2" r="97.3"/><radialGradient id="SVGID_00000154427125394131370370000015067429823673764281_banana-elephant-level-five" cx="1020.413" cy="667.77" r="97.27" gradientTransform="matrix(1 0 0 -1 0 1366)" gradientUnits="userSpaceOnUse"><stop offset="0" style="stop-color:#fd3400;stop-opacity:.6"/><stop offset="1" style="stop-color:#fd3700;stop-opacity:0"/></radialGradient><circle style="fill:url(#SVGID_00000154427125394131370370000015067429823673764281_banana-elephant-level-five)" cx="1020.4" cy="698.2" r="97.3"/><path d="M628.1 552.7c-1.5 0-2.9-.4-4.2-1.2-3.1-1.7-4.2-5.6-2.5-8.6.1-.3.3-.5.5-.8 2-2.6 12.6-16.1 31.6-29.2C678 496.1 707 487 736.7 487h.2c28.7-.1 56.7 8.4 80.7 24.2 18.2 11.9 28.7 24.2 31.5 27.8 2.2 2.7 1.8 6.7-.9 8.9-.2.2-.5.4-.8.5-3.4 2.2-7.9 1.5-10.5-1.5-3.8-4.7-38.8-46.3-100.1-46.4h-.2c-26.5-.1-52.3 8-74.1 23.1-17.5 12-27.2 24.6-28.3 26-1.3 2.1-3.6 3.1-6.1 3.1z"/><circle class="cls-5-banana-elephant-level-five" cx="683.8" cy="594.8" r="33.9"/><circle cx="683.8" cy="594.8" r="18.4"/><circle class="cls-5-banana-elephant-level-five" cx="787.4" cy="594.8" r="33.9"/><circle cx="787.4" cy="594.8" r="18.4"/><path class="cls-7-banana-elephant-level-five" d="M645.6 737c4.4-2 9.1-3.1 13.8-3.4-.5-.8-1-1.6-1.3-2.5l-8.4-21.2-8.4-21.2c-1-2.6-1.4-5.3-1.2-8.1-5.6 1.3-10.9 3.7-15.6 7.1-6.6 4.9-10 12.3-10.3 12.8-8.5 15.2-6.2 30.9-5.2 38.5 1.7 12.2 7 26.2 15.7 39.8-1.3-2.3-2-4.8-2.3-7.4-1.3-14.4 10.4-28.6 23.2-34.4zM691.4 688.6l-8.4 21.2-8.4 21.2c-.5 1.3-1.2 2.5-2.1 3.6 7.5 1.7 14.5 4.8 20.9 9.1 13.8 9.7 23.6 23.9 33.1 37.8 6.7-16.3 16.1-32.1 30-42.9 13.4-10.4 31.7-15.5 47.8-10.6l-7.2-18.3-8.4-21.2c-1.3-3.3-1.6-6.9-1-10.3-7.3.2-15.1.5-23.4.6h-1.5c.5 3.3.1 6.6-1.1 9.7l-8.4 21.2-8.5 21.2c-3.6 9.2-12.8 9.2-16.4 0l-8.4-21.2-8.4-21.2c-1.2-3.1-1.6-6.5-1.1-9.8-6.3-.2-12.3-.3-18-.5.5 3.5.2 7.1-1.1 10.4zM865.1 700.4c-.3-.5-3.7-7.9-10.3-12.8-4.5-3.3-9.6-5.6-15-7 .2 2.7-.3 5.4-1.2 7.9l-8.4 21.2-8.4 21.2c-.7 1.9-1.9 3.6-3.4 5 16.1 13.8 21.7 39.8 13 59.8-12.1 27.9-44.4 36.8-64.1 41.3-1.2.3-2.4.5-3.5.8 12.8-1.9 25.2-5.6 36.8-11.2 41.3-19.7 65.6-58.7 69.7-87.8 1.1-7.5 3.3-23.1-5.2-38.4z"/><path class="cls-8-banana-elephant-level-five" d="M624.7 778.7c1.8 3.4 4.7 7.2 8.7 12.5 2.9 3.8 14.8 18.9 37.5 31.5-18.8-10.8-34.6-25.8-46.2-44z"/><path class="cls-8-banana-elephant-level-five" d="M831.4 795.8c8.7-20.1 3.1-46-13-59.8-4.3 3.7-10.2 2-13-5l-1.1-2.9c-16.1-5-34.4.2-47.8 10.6-14 10.8-23.3 26.6-30 42.9-9.5-13.9-19.3-28.1-33.1-37.8-6.3-4.3-13.4-7.4-20.9-9.1-3.8 4.6-9.5 4.3-13-1.1-4.8.3-9.5 1.4-13.8 3.4-12.8 5.9-24.5 20.1-23.2 34.3.3 2.6 1 5.1 2.3 7.4 11.6 18.2 27.4 33.3 46.1 43.9 1.6.9 3.3 1.8 5 2.7.4.2 3.2 1.6 6.2 2.9s6.8 2.9 11.2 4.4c14.9 4.9 30.6 7.2 46.4 6.7 8 .2 16.1-.2 24.1-1.4 1.2-.2 2.3-.5 3.5-.8 19.7-4.5 52-13.3 64.1-41.3z"/><path class="cls-5-banana-elephant-level-five" d="m788.5 688.6 8.5 21.2 7.3 18.3c.7.2 1.3.4 2 .7 4.4 1.7 8.5 4.1 12.1 7.2 1.5-1.4 2.7-3.1 3.4-5l8.4-21.2 8.4-21.2c1-2.5 1.4-5.2 1.2-7.9-13.3-3.5-30.4-3.1-52.3-2.4-.6 3.4-.3 7 1 10.3z"/><path class="cls-5-banana-elephant-level-five" d="m804.2 728.2 1.1 2.9c2.8 7 8.7 8.6 13 5-3.6-3.1-7.7-5.5-12.2-7.2-.6-.3-1.2-.5-1.9-.7zM641.3 688.6l8.4 21.2 8.4 21.2c.3.9.8 1.7 1.3 2.5 4.4-.2 8.7.1 13 1.1.9-1.1 1.6-2.3 2.1-3.6l8.4-21.2 8.4-21.2c1.3-3.3 1.6-6.9 1-10.3-21.9-.7-39-1.1-52.3 2.3-.1 2.7.3 5.4 1.3 8z"/><path class="cls-5-banana-elephant-level-five" d="M659.5 733.6c3.4 5.4 9.2 5.8 13 1.1-4.3-1-8.7-1.4-13-1.1zM711.5 688.6l8.4 21.2 8.4 21.2c3.6 9.2 12.8 9.2 16.4 0l8.4-21.2 8.4-21.2c1.2-3.1 1.6-6.4 1.1-9.7-8.5.2-15.2.2-22.5.2h-.9c-7.7 0-14.8 0-24-.2l-4.9-.1c-.5 3.3-.1 6.7 1.2 9.8z"/><g class="cls-4-banana-elephant-level-five"><path class="cls-5-banana-elephant-level-five" d="M586.1 346.2c-7 2.2-65.1 21.3-87.5 71.4-9.2 20.6-5.2 31.1-4 35.1 3.5 11.5 14.9 21.2 26.8 19.4 16.3-2.4 22.9-21.8 32.8-35 11.3-15 29.5-23.3 47.6-28s37-6.3 55.2-11.1c9.4-2.5 18.8-6 25.8-12.8 5.7-5.5 10.8-17.2 7.3-26.5-4.4-11.5-20.7-14.3-35.1-16.7-35.8-5.8-64.9 3-68.9 4.2z"/></g><ellipse cx="492.6" cy="504.9" rx="20.4" ry="23" style="opacity:.46;fill:#fff;enable-background:new"/><path d="M821.8 261.5c-4.7-33.3-28.5-58.6-57-58.6-32 0-57.9 31.7-57.9 70.8v.1c0 .4 0 .9-.1 1.3 18.5-8.3 37.2-16.3 57.2-19.9 19.4-3.4 40.2-2.3 57.8 6.3z" style="fill:#00bf36"/><path d="M951.1 36.6c4.7 33.7-15 66.6-17.1 70-11 17.7-26.4 28.2-56.8 48.6-21.7 14.6-44.5 27.5-68.1 38.7 0 0-37.9 20.8-76.9 34l-1.2.4s-24.3 8.2-45.1 12.6c-63.4 13.5-108-10-108-10-2.1-1-21.9-10.3-33.6-31l.3 2.1c5.9 35.9 38.4 51.2 41.2 52.5 0 0 44.6 23.6 108 10.1 20.8-4.4 45.1-12.7 45.1-12.7l1.2-.4c38.9-13.2 76.8-34 76.8-34 23.6-11.2 46.4-24.1 68.1-38.7 30.4-20.4 45.8-30.9 56.8-48.6 2.7-4.3 32.2-53.4 9.3-93.6z" style="fill:#4a2827"/><path class="cls-16-banana-elephant-level-five" d="M578 231s44.6 23.5 108 10c20.8-4.4 45.1-12.7 45.1-12.7l1.2-.4c39-13.2 76.9-34 76.9-34 23.6-11.2 46.4-24.1 68.1-38.7 30.4-20.4 45.8-30.9 56.8-48.6 2.1-3.4 21.8-36.2 17.1-70-.7-1.2-1.4-2.3-2.1-3.5-10.5-16-30.5-31.2-56.1-32.2-32-1.2-52.3 20.6-55.2 23.8-19.4 24.8-42.3 46.8-67.9 65.2-27.6 19.9-56.6 40.8-97.5 47.9-57 10-83.9-15.8-109.2 5.4-16.1 13.5-21.2 37.3-18.6 56.6C556 220.6 575.8 230 578 231z"/><circle class="cls-5-banana-elephant-level-five" cx="889.2" cy="48.3" r="37"/><path class="cls-16-banana-elephant-level-five" d="m620.6 151.3-29.3-4.5c-4.3-.7-7.3-4.7-6.6-9 .2-1.4.8-2.7 1.6-3.7l18.5-23.1 18.5-23.1c2.7-3.4 7.7-4 11.1-1.3 1.1.9 2 2.1 2.5 3.4l10.8 27.6 10.7 27.6c1.6 4.1-.4 8.6-4.5 10.2-1.3.5-2.7.7-4.1.4l-29.2-4.5zM737.2 120.4l-25.1 15.8c-3.7 2.3-8.6 1.2-10.9-2.5-.7-1.2-1.2-2.5-1.2-3.9l-1.1-29.6-1.1-29.6c-.2-4.4 3.2-8 7.6-8.2 1.4-.1 2.8.3 4 .9l26.2 13.8L761.8 91c3.9 2 5.3 6.8 3.3 10.7-.6 1.2-1.6 2.3-2.8 3l-25.1 15.7zM825.7 54.6l-23.3 18.2c-3.4 2.7-8.4 2.1-11.1-1.4-.9-1.1-1.4-2.4-1.6-3.8l-4.1-29.3L781.5 9c-.6-4.3 2.4-8.3 6.7-8.9 1.4-.2 2.8 0 4.1.5l27.5 11.1 27.5 11.1c4 1.6 6 6.2 4.4 10.3-.5 1.3-1.4 2.4-2.5 3.3l-23.5 18.2z"/><circle transform="rotate(-71.016 905.896 36.64)" cx="905.9" cy="36.6" r="13.4"/><g class="cls-17-banana-elephant-level-five"><path class="cls-5-banana-elephant-level-five" d="M625.8 158.3c-5-2.2-16.8-7-36.6-5.3-6 .5-9 .8-12 2.5-7 4-11.3 12.3-11.3 20.3-.1 11.4 7.9 18.6 13.5 22.6 2.3 1.8 4.9 3 7.8 3.5 2.9.5 5.8-.5 7.7-2.7 2.9-3.8.8-9.3 2.3-13.8 1.6-4.8 7-7.4 12.1-8.1 7.4-1.1 9.4.8 15.2-1.7 4.8-2 9.9-6.6 9.2-10.7-.4-2.7-3.3-4.6-7.9-6.6z"/></g><g class="cls-17-banana-elephant-level-five"><path class="cls-5-banana-elephant-level-five" d="M656.3 157.7c-5 .5-7.6.8-8.7 1.5-2.3 1.6-4.5 4.8-3.7 7.4 1.2 3.7 6 4.5 10 4.4 4.3-.1 8.7-.6 12.9-1.5 2.2-.4 4.5-1 6.1-2.5 1.6-1.6 2-4 1.1-6-.6-1-1.5-1.7-2.5-2.1-1.8-.8-3.8-1.2-5.7-1.1-5.8-.2-8.6-.2-9.5-.1z"/></g></svg>