<svg version="1.1" id="peach-profile-level-three" xmlns="http://www.w3.org/2000/svg" x="0" y="0" viewBox="0 0 1118.8 958.1" style="enable-background:new 0 0 1118.8 958.1" xml:space="preserve"><style>.cls-1-peach-bear-level-three{fill:#fd0300}.cls-2-peach-bear-level-three{fill:#fc4401}.cls-4-peach-bear-level-three{fill:#d11022}.cls-5-peach-bear-level-three{fill:#fff}.cls-6-peach-bear-level-three{fill:#070707}.cls-10-peach-bear-level-three{fill:#fcecca}</style><circle class="cls-1-peach-bear-level-three" cx="196.7" cy="280" r="196.7"/><circle class="cls-1-peach-bear-level-three" cx="922" cy="280" r="196.7"/><circle class="cls-2-peach-bear-level-three" cx="231.9" cy="310.5" r="159.5"/><circle class="cls-2-peach-bear-level-three" cx="888.6" cy="310.5" r="159.5"/><path d="M429.5 0c19.6 6.7 48.3 17.2 82.4 32 35 15.2 41.2 20.2 46.1 24.6 29.8 26.5 33.2 72.2 25 111.2-4.3 20.4-24.8 34.1-27.3 32.6-2.1-1.3 4.7-10.6 4.8-21 .3-30.6-57.3-42.2-93.1-80.5-15.3-16.4-33.8-45.5-37.9-98.9z" style="fill:#87ff7b"/><path class="cls-4-peach-bear-level-three" d="M964.4 322.1c-13.8-28.3-59.3-117.6-164.9-160.9-111-45.5-211.1-8.6-235.5.9l-1.7.7-1.7-.7c-24.4-9.4-124.5-46.4-235.5-.9-105.6 43.3-151 132.6-164.9 160.9-71.6 146.4-11.7 292.5 2.5 327.2 53.3 130 154.5 195.8 211.1 232.6A579.4 579.4 0 0 0 525 950.3c14.7 3.8 27 6.3 35.5 7.8l1.7-1.3 1.7 1.3c8.5-1.5 20.8-4 35.5-7.8 0 0 76.8-20 151.2-68.4 56.6-36.8 157.8-102.6 211.1-232.6 14.4-34.8 74.3-180.9 2.7-327.2zm-30.8 308.8C884 751.7 790 812.8 737.4 847.1c-69.2 45-140.5 63.6-140.5 63.6a534.1 534.1 0 0 1-33 7.3l-1.6-1.2-1.5 1.2a408 408 0 0 1-33-7.3s-71.4-18.6-140.5-63.6c-52.7-34.2-146.6-95.4-196.2-216.2-13.2-32.3-68.9-168-2.3-304.1 12.9-26.3 55.1-109.3 153.2-149.5 103.1-42.3 196.2-8 218.8.8l1.5.6 1.6-.6c22.6-8.8 115.7-43.1 218.8-.8 98.1 40.2 140.4 123.2 153.2 149.5 66.6 136 10.9 271.8-2.3 304.1z"/><path class="cls-1-peach-bear-level-three" d="M935.9 326.8c-12.9-26.3-55.1-109.3-153.2-149.5-103.1-42.3-196.2-8-218.8.8l-1.6.6-1.5-.6c-22.7-8.8-115.7-43.1-218.8-.8-98.1 40.2-140.4 123.2-153.2 149.5-66.6 136-10.9 271.8 2.3 304.1 49.6 120.8 143.6 182 196.2 216.2 69.1 45 140.5 63.6 140.5 63.6 13.7 3.5 25.1 5.8 33 7.3l1.5-1.2 1.6 1.2a408 408 0 0 0 33-7.3s71.4-18.6 140.5-63.6C790 812.8 884 751.7 933.5 630.9c13.3-32.3 69-168.1 2.4-304.1z"/><ellipse class="cls-5-peach-bear-level-three" cx="492.1" cy="689.4" rx="37.7" ry="46.8"/><circle transform="rotate(-22.5 483.2 679.8)" class="cls-6-peach-bear-level-three" cx="483.2" cy="679.8" r="26.2"/><ellipse class="cls-5-peach-bear-level-three" cx="659.5" cy="689.4" rx="37.7" ry="46.8"/><circle class="cls-6-peach-bear-level-three" cx="650.6" cy="679.8" r="26.2"/><ellipse cx="580.8" cy="729.4" rx="21.5" ry="12.5" style="fill:#fdd301"/><path d="M662 748.8c-28.7-12.5-60 11.5-62.2 13.4a41.9 41.9 0 0 1-24.3 10.2c-5.6.3-11.3-.4-16.7-2-11.2-3.5-15.5-9.6-23-14.9a58.4 58.4 0 0 0-46.6-8.8 53 53 0 0 0-31.5 24.2c-9.3 16.6-5.7 33.3-2.9 45.8a96.2 96.2 0 0 0 17.6 37.4c19.5 25.5 46.1 34 58.6 38a149 149 0 0 0 44.5 6.6c9.9 0 25.7-.1 44.8-6.6a109 109 0 0 0 56.2-39.8c5.3-7.6 9.4-16 12.2-24.9 2.8-9.1 8.8-28.7 0-49.4-2.2-4.8-9.3-21.7-26.7-29.2z" style="fill:#5ebce5"/><path d="M572.4 821a56.8 56.8 0 1 0 56.8 56.8 56.8 56.8 0 0 0-56.8-56.8zm0 100a43.3 43.3 0 1 1 0-86.6 43.3 43.3 0 0 1 0 86.6c0 .1 0 .1 0 0z" style="fill:#ff8600"/><circle class="cls-10-peach-bear-level-three" cx="572.4" cy="827.5" r="43.3"/><circle class="cls-10-peach-bear-level-three" cx="495" cy="784.1" r="13.1"/><circle class="cls-10-peach-bear-level-three" cx="646.4" cy="784.1" r="13.1"/><circle class="cls-2-peach-bear-level-three" cx="368.5" cy="758.5" r="41.6"/><circle class="cls-2-peach-bear-level-three" cx="757.5" cy="758.5" r="41.6"/><path class="cls-4-peach-bear-level-three" d="M562.8 188.7c-22.4-22.3-53.2-27.6-66-29.9a148.2 148.2 0 0 0-38.2-1.6 247.4 247.4 0 0 1 52.7 48.4c51.5 63.5 56.8 135.7 57.1 165.4a192.6 192.6 0 0 0 22.4-95.4c-.7-25.4-1.9-60.9-28-86.9z"/></svg>