<svg version="1.1" id="donut-profile-level-four" xmlns="http://www.w3.org/2000/svg" x="0" y="0" viewBox="0 0 1200.8 1561.5" style="enable-background:new 0 0 1200.8 1561.5" xml:space="preserve"><style>.cls-1-donut-rabbit-level-four{fill:#e51570}.cls-2-donut-rabbit-level-four{fill:#fd037f}.cls-4-donut-rabbit-level-four{fill:#ff6e73}.cls-5-donut-rabbit-level-four{fill:#fff}.cls-6-donut-rabbit-level-four{fill:#fd016f}.cls-7-donut-rabbit-level-four{fill:#070707}</style><path class="cls-1-donut-rabbit-level-four" d="M990.7 504.6A598.53 598.53 0 0 1 1134.9 895c0 331.6-268.8 600.5-600.5 600.5A598 598 0 0 1 144 1351.3c110.1 128.6 273.7 210.2 456.3 210.2 331.7 0 600.5-268.8 600.5-600.5.1-182.6-81.5-346.2-210.1-456.4z"/><path class="cls-2-donut-rabbit-level-four" d="M1134.9 895c.2-143.2-51-281.7-144.2-390.4a598.36 598.36 0 0 0-390.3-144.1C268.7 360.5-.1 629.3-.1 961a597.54 597.54 0 0 0 144.2 390.3 598.46 598.46 0 0 0 390.3 144.2c331.6 0 600.5-268.9 600.5-600.5z"/><circle class="cls-1-donut-rabbit-level-four" cx="557.7" cy="926.9" r="328.8"/><path d="M780.5 1016.9c27.2-.1 53.9 6.4 78 19 4.9-20.5 7.4-41.4 7.3-62.4 0-147.7-119.7-267.4-267.4-267.4S331 825.8 331 973.5c0 19.8 2.2 39.6 6.5 59 23.4-10.4 48.7-15.6 74.2-15.5 86.7 0 156.9 58.6 156.9 130.8 0 32.3-14.1 61.9-37.3 84.7 44.2 11.4 90.5 11.3 134.6-.1-22.2-22.8-35.6-52.3-35.6-84.6.1-72.3 67.3-130.9 150.2-130.9z" style="fill:#ffb6c7"/><path class="cls-4-donut-rabbit-level-four" d="M568.7 1147.7c0-72.2-70.2-130.8-156.9-130.8-25.6-.1-50.8 5.2-74.2 15.5a267.74 267.74 0 0 0 193.8 199.9c23.2-22.7 37.3-52.3 37.3-84.6zM858.5 1035.9a166.79 166.79 0 0 0-78-19c-83 0-150.2 58.6-150.2 130.8 0 32.2 13.4 61.8 35.6 84.6a267.9 267.9 0 0 0 192.6-196.4z"/><circle transform="rotate(-45 522.43 993.91)" class="cls-5-donut-rabbit-level-four" cx="522.4" cy="993.9" r="42.8"/><circle class="cls-5-donut-rabbit-level-four" cx="666.7" cy="990.4" r="42.8"/><path class="cls-6-donut-rabbit-level-four" d="M599.2 1016.9a24.46 24.46 0 0 0-.9 48.9 24.4 24.4 0 0 0 24.9-24v-.5a24.1 24.1 0 0 0-24-24.4c.1 0 .1 0 0 0zm0 35c-5.8.1-10.6-4.5-10.8-10.3s4.5-10.6 10.3-10.8c5.8-.1 10.6 4.5 10.8 10.3v.2c.1 5.8-4.5 10.5-10.3 10.6zM464.5 897l56.5 32.7 15.9 9.2c4.3 2.5 9.4 3.1 14.3 1.9 4.3-1.2 9-4.5 11.1-8.5 2.3-4.3 3.4-9.5 1.9-14.3-1.4-4.6-4.4-8.6-8.5-11.1l-56.5-32.7-15.9-9.2c-4.3-2.4-9.5-3.1-14.3-1.9-4.3 1.2-9 4.5-11.1 8.5-2.3 4.3-3.4 9.5-1.9 14.3 1.4 4.6 4.4 8.6 8.5 11.1zM730.7 897l-56.5 32.7-15.9 9.2c-4.3 2.4-9.5 3.1-14.3 1.9-4.3-1.2-9-4.5-11.1-8.5-2.3-4.3-3.4-9.5-1.9-14.3 1.4-4.6 4.4-8.6 8.5-11.1l56.5-32.7 15.9-9.2c4.3-2.4 9.5-3.1 14.3-1.9 4.3 1.2 9 4.5 11.1 8.5 2.3 4.3 3.4 9.5 1.9 14.3-1.4 4.6-4.4 8.6-8.5 11.1z"/><circle transform="rotate(-22.5 524.22 1000.17)" class="cls-7-donut-rabbit-level-four" cx="524.2" cy="1000.2" r="30.1"/><circle class="cls-7-donut-rabbit-level-four" cx="666.4" cy="1000.2" r="30.1"/><path class="cls-5-donut-rabbit-level-four" d="M591.6 1101c-.5 3.1 7.1 6.2 22.4 12.3 3.2 1.3 7.3 3 9.6 1 1-1 1.8-2.4 2.1-3.8 2.9-9.6 2.6-19.8-.9-29.2-14.4 7.8-25.4 14.1-31.1 17.4-.8.4-1.9 1.1-2.1 2.3z"/><path d="M666.3 1069.8c-.8-2.3-3.6-4.6-6.2-3.5-.7.3-1.5.6-2.3.8l-1.2.3-.6.1h-1.7c-.8.1-1.6.1-2.4-.1l.5.1-.6-.1-1.2-.3c-.7-.2-1.4-.5-2.1-.7 1.1.3 0 0-.3-.1s-.7-.4-1.1-.6-.6-.3-.8-.5c-.1 0-.5-.3-.7-.5l-.3-.3c-.3-.2-.6-.5-.8-.8s-.5-.6-.8-.8c0 0-.2-.2-.3-.4s-.3-.5-.4-.6l-.5-.8c-.2-.4-1.1-1.6-1-2l.2.5-.3-.7-.3-.9c-.2-.7-.3-1.4-.5-2.1v-.2c0-.4-.1-.8-.1-1.2 0-.8 0-1.5.1-2.3.2-2.6-2.5-5.2-5-5-2.7.1-5 2.3-5 5-.3 4.1.4 8.1 2.2 11.8-.3.5-.7 1.1-1 1.6l-1.1 1.5-.4.6-.5.6c-1.6 2-3.2 3.8-5 5.6a99.2 99.2 0 0 1-5.9 5.4l-1.1.9-.2.1-.8.6c-1.1.8-2.2 1.5-3.3 2.3-2.2 1.5-4.5 2.8-6.9 4-1.1.6-2.1 1.1-3.2 1.6l-1.7.8-1.2.5c-4.8 1.9-9.9 3.3-15 4.2l-2.1.3h-.1l-1.5.2c-1.5.2-2.9.3-4.4.3-2.9.1-5.9.1-8.8-.2-2.7 0-5 2.3-5 5 .1 2.7 2.3 4.9 5 5 22.5 1.7 45.4-7 61.7-22.5 3.3-3.1 6.2-6.5 8.9-10.2l.5.4c6.6 5 15.3 6.3 23 3.3 2.5-.8 4.5-3.2 3.6-6zm-64.8 19.6c-.8.4-.2.1 0 0z"/><path d="M64.8 596S30.2 643.1 3.9 731.9c-3.2 10.9-6.7 29.5-.6 50.3 4.8 16.3 17.3 31.1 33.9 34.6 27.6 5.9 51.1-19.2 68.2-41.6l82.5-108.4c27.3-36 40-45.2 52.8-43.8 22.2 2.4 26.4 36.1 45.4 36.4 21.6.3 23.7-43.4 64.2-65.2 5.5-2.9 31.8-17.1 58.7-9.2 37.2 11 35.1 52.5 72.8 63.5 21 6.2 41.4-.8 58-6.6 27.5-9.5 44.7-24.9 51.7-30.9 42.8-36.2 136.7-82.3 189.8-55.5 39 19.7 37.2 69.4 72.2 72.8 22.7 2.2 28.2-18.2 58-19.6 31-1.4 64.1 19 78.9 45.9 13.8 25 .8 35.9 13.5 69.5 1 2.8 24.1 60.1 59.2 61.7 31.1 1.5 51-33.2 56.8-63.8 5.7-29.4 5.2-59.6-1.4-88.8-10-43.8-34.2-83.3-63.7-117.2-52.5-60.2-110.6-88.7-158.3-111.3-48.8-23.1-152.2-70.7-294.8-70.6-23.1 0-108.8 1.4-213 36.2-54.1 18.3-105.8 43-154.1 73.5-38.7 24.4-109.2 69.8-169.8 152.2z" style="fill:#d1b35d"/><path d="M67.8 565.8S33.2 612.9 6.9 701.7C3.7 712.6.2 731.2 6.3 752c4.8 16.3 17.3 31.1 33.9 34.7 27.6 5.9 51.1-19.2 68.2-41.6l82.5-108.5c27.4-36 40-45.2 52.8-43.8 22.2 2.4 26.4 36.1 45.4 36.4 21.6.3 23.6-43.4 64.2-65.2 5.5-2.9 31.8-17.1 58.7-9.2 37.2 11 35.1 52.5 72.8 63.5 21 6.2 41.4-.8 58.1-6.6 27.5-9.5 44.7-24.9 51.7-30.8 42.8-36.2 136.7-82.3 189.8-55.5 39 19.7 37.2 69.4 72.2 72.8 22.7 2.2 28.3-18.2 58-19.6 31-1.4 64.1 19 78.9 45.9 13.8 25 .8 35.9 13.5 69.5 1 2.8 24.1 60.1 59.2 61.7 31.1 1.5 51-33.2 56.8-63.8 5.7-29.4 5.2-59.6-1.4-88.8-10-43.8-34.2-83.3-63.7-117.2-52.5-60.3-110.6-88.7-158.4-111.4-48.8-23.1-152.2-70.7-294.8-70.6-23.1 0-108.8 1.4-213 36.2a716.7 716.7 0 0 0-154.1 73.4C198.9 438 128.4 483.3 67.8 565.8z" style="fill:#f7da7c"/><path class="cls-1-donut-rabbit-level-four" d="M698.3 488c39.9 9.5 132.6-12 209.2-85.4l1.4-1.3c48.7-47.2 54.5-100.7 75.8-179.7 15.9-58.8 23.8-88.2 34.1-103.6 50.9-76.5 141.3-75.3 139.1-91.8-3.1-23.8-194.5-58.6-316.7 38.2-23.3 18.5-41.6 36.2-66.9 71.6-38.9 54.3-73.4 111.7-103.2 171.5-3 6-27.8 64.4-24.7 119 .7 12 2.9 26.9 13.3 39.8 12.7 15.6 31 19.9 38.6 21.7z"/><path class="cls-2-donut-rabbit-level-four" d="M694.4 391.4c27.1 6.4 90.2-8.2 142.3-58.1 4.2-4.1 60.5-57.3 69.3-137.2 2.4-21.2 1.4-43.2-6.5-62.9-8-19.8-23.9-37.1-44.4-43.1-21.5-6.3-45 .4-63.5 13s-32.5 30.5-45.5 48.7c-26.5 37-50 76-70.2 116.7-2 4.1-18.9 43.8-16.8 81 .4 8.1 2 18.3 9 27.1 8.6 10.6 21.1 13.5 26.3 14.8z"/><g><path class="cls-1-donut-rabbit-level-four" d="M541 488c-39.9 9.5-132.6-12-209.2-85.4l-1.4-1.3c-48.7-47.2-54.5-100.7-75.8-179.7-15.9-58.8-23.8-88.2-34.1-103.6-50.8-76.5-141.2-75.3-139-91.9C84.6 2.3 276-32.5 398.2 64.3c23.3 18.5 41.6 36.2 66.9 71.6 38.9 54.3 73.4 111.7 103.1 171.5 3 6 27.8 64.4 24.7 119-.7 12-2.9 26.9-13.3 39.8-12.7 15.7-31 20-38.6 21.8z"/><path class="cls-2-donut-rabbit-level-four" d="M545 391.4c-27.1 6.4-90.2-8.2-142.3-58.1-4.2-4.1-60.5-57.3-69.3-137.2-2.4-21.2-1.4-43.2 6.5-62.9 8-19.8 23.9-37.1 44.4-43.1 21.5-6.3 45 .4 63.5 13s32.5 30.5 45.5 48.7c26.5 37 50 76 70.2 116.7 2 4.1 18.9 43.8 16.8 81-.4 8.1-2 18.3-9.1 27.1-8.6 10.6-21.1 13.5-26.2 14.8z"/></g></svg>