<?xml version="1.0" encoding="utf-8"?>
<!-- Generator: Adobe Illustrator 25.4.1, SVG Export Plug-In . SVG Version: 6.00 Build 0)  -->
<svg version="1.1" id="레이어_1" xmlns="http://www.w3.org/2000/svg" xmlns:xlink="http://www.w3.org/1999/xlink" x="0px"
	 y="0px" viewBox="0 0 855.9 1163.6" style="enable-background:new 0 0 855.9 1163.6;" xml:space="preserve">
<style type="text/css">
	.cls-1-donut-rabbit-level-two{fill:#FD037F;}
	.cls-2-donut-rabbit-level-two{fill:#FFB6C7;}
	.cls-3-donut-rabbit-level-two{fill:#070707;}
	.cls-4-donut-rabbit-level-two{fill:#FD016F;}
</style>
<path class="cls-1-donut-rabbit-level-two" d="M591.5,340.1c67.1-71.9,128.1-192.4,107.4-261.2c-4.4-14.7-15.5-51.3-48.8-68.9c-23.4-12.4-47-9.5-56.5-8.3
	c-72.9,9.7-117.2,92.3-125,106.8c-32.7,61-41.6,139.4-32.8,199.3c-2.6,0-5.3-0.1-7.9-0.1s-5,0-7.5,0.1c8.9-60,0.1-138.6-32.7-199.8
	c-7.8-14.5-52.1-97.1-125-106.8c-9.4-1.2-33-4.1-56.5,8.3C173,27,161.9,63.7,157.5,78.4c-20.8,68.9,40.4,189.5,107.6,261.4
	C109.5,403.9,0,557,0,735.7c0,236.3,191.6,427.9,428,427.9S855.9,972,855.9,735.7C855.9,557.2,746.7,404.3,591.5,340.1z"/>
<circle class="cls-2-donut-rabbit-level-two" cx="428" cy="778" r="233.3"/>
<circle class="cls-3-donut-rabbit-level-two" cx="368.4" cy="846.6" r="13.3"/>
<circle class="cls-3-donut-rabbit-level-two" cx="490.4" cy="846.6" r="13.3"/>
<path class="cls-4-donut-rabbit-level-two" d="M428,839.3c-27.1-0.1-49.1,21.9-49.2,49s21.9,49.1,49,49.2c27.1,0.1,49.1-21.9,49.2-49c0,0,0-0.1,0-0.1
	C477,861.4,455.1,839.4,428,839.3z M428,909.6c-11.7,0-21.2-9.5-21.2-21.1c0-11.7,9.5-21.2,21.1-21.2c11.7,0,21.2,9.5,21.2,21.1
	c0,0,0,0,0,0C449.1,900.1,439.7,909.6,428,909.6L428,909.6z"/>
<path class="cls-3-donut-rabbit-level-two" d="M334.7,820.9l0.7-0.6c0.2-0.2,0.1-0.2-0.1,0.1c0.1-0.1,0.3-0.2,0.4-0.3c0.5-0.3,1-0.7,1.5-1s1-0.6,1.6-0.9
	l0.8-0.4c0.5-0.2-0.1,0-0.1,0.1c0.2-0.1,0.4-0.2,0.6-0.2c1.1-0.4,2.3-0.8,3.5-1l0.8-0.2h0.4c0,0-0.7,0.1-0.1,0s1.3-0.1,1.9-0.1
	s1.2,0,1.8,0l0.8,0h0.5c0.3,0-0.7-0.1,0,0c1.2,0.2,2.3,0.5,3.4,0.8c0.2,0.1,0.5,0.2,0.7,0.2l0.4,0.2c0.4,0.1,0.2,0.3-0.1,0
	c0.1,0.2,0.5,0.2,0.8,0.3l0.9,0.4c1,0.5,2,1.2,2.9,1.8c0.1,0.1,0.4,0.3-0.1-0.1l0.4,0.3c0.3,0.2,0.5,0.4,0.8,0.7
	c0.5,0.4,0.9,0.9,1.4,1.3c0.2,0.2,0.5,0.5,0.7,0.8l0.3,0.3l0.1,0.2c0.2,0.2,0.1,0.2-0.1-0.2c0,0,1,1.5,1.1,1.6
	c0.8,1.4,2.5,1.9,3.9,1.1s1.9-2.5,1.1-3.9c0,0,0-0.1-0.1-0.1c-3-4.7-7.4-8.3-12.6-10.2c-5.2-1.9-10.9-2-16.2-0.2
	c-3.1,1.1-6,2.7-8.5,4.9c-1.1,1.1-1.1,2.9,0,4C331.8,822,333.6,822,334.7,820.9L334.7,820.9z"/>
<path class="cls-3-donut-rabbit-level-two" d="M526.2,816.9c-4.4-3.8-10-6-15.8-6.2c-5.4-0.1-10.8,1.6-15.1,4.8c-2.5,1.9-4.7,4.2-6.3,6.9
	c-0.8,1.4-0.3,3.1,1,3.9c1.4,0.8,3.1,0.3,3.9-1c0.3-0.5,0.6-1,1-1.4s0,0.1-0.1,0.1l0.2-0.3l0.6-0.7c0.8-0.9,1.6-1.7,2.5-2.4
	c0,0,0.4-0.3,0.4-0.3s-0.6,0.4-0.1,0.1l0.7-0.5c0.5-0.3,1-0.7,1.5-1s1-0.5,1.5-0.8l0.7-0.3c0.6-0.2-0.5,0.2-0.1,0l0.5-0.2
	c1.1-0.4,2.2-0.8,3.3-1l0.8-0.1h0.2l0,0h-0.2h0.4c0.6-0.1,1.3-0.1,1.9-0.1s1.1,0,1.7,0l0.9,0.1l0.5,0.1c0,0-0.7-0.1,0,0
	c1.2,0.2,2.4,0.5,3.5,0.9l0.9,0.3l0.4,0.2l-0.2-0.1l0.3,0.1c0.6,0.3,1.2,0.6,1.8,0.9c0.6,0.4,1.2,0.8,1.7,1.2l0.3,0.2l0.3,0.2
	l-0.3-0.2c0.3,0.2,0.6,0.5,0.9,0.7c1.2,1,3,0.8,4-0.4C527.1,819.5,527.1,818,526.2,816.9L526.2,816.9z"/>
</svg>
