<?xml version="1.0" encoding="utf-8"?>
<!-- Generator: Adobe Illustrator 25.4.1, SVG Export Plug-In . SVG Version: 6.00 Build 0)  -->
<svg version="1.1" id="banana-profile-level-four" xmlns="http://www.w3.org/2000/svg" xmlns:xlink="http://www.w3.org/1999/xlink" x="0px"
	 y="0px" viewBox="0 0 1338.7 919.4" style="enable-background:new 0 0 1338.7 919.4;" xml:space="preserve">
<style type="text/css">
	.cls-1-banana-elephant-level-four{fill:#FFC500;}
	.cls-2-banana-elephant-level-four{fill:#FDD301;}
	.cls-3-banana-elephant-level-four{fill:url(#SVGID_1_banana-elephant-level-four);}
	.cls-4-banana-elephant-level-four{fill:url(#SVGID_00000111183612382297697210000006739998775391830944_banana-elephant-level-four);}
	.cls-5-banana-elephant-level-four{fill:url(#SVGID_00000119804714540034543500000005539584157927863213_banana-elephant-level-four);}
	.cls-6-banana-elephant-level-four{fill:#FFFFFF;}
	.cls-7-banana-elephant-level-four{fill:#FD0300;}
	.cls-8-banana-elephant-level-four{fill:#00BF36;}
	.cls-9-banana-elephant-level-four{fill:#4F2315;}
	.cls-10-banana-elephant-level-four{fill:#651E02;}
</style>
<g>
	<path class="cls-1-banana-elephant-level-four" d="M1324.1,535.2c4.3,18.1,6.4,36.7,6.4,55.3c0,131.8-106.9,238.7-238.7,238.7c-103,0-190.7-65.2-224.2-156.6
		C892.6,777.7,987.1,856,1099.9,856c131.8,0,238.7-106.9,238.7-238.7C1338.7,589.3,1333.8,561.5,1324.1,535.2z"/>
	<path class="cls-2-banana-elephant-level-four" d="M1091.9,829.1c131.8,0,238.7-106.9,238.7-238.7c0-18.6-2.2-37.2-6.4-55.3c-9.9-36.3-22.2-72-36.7-106.8
		c-10.9-26.3-39.1-93.8-56.2-90.2c-6.7,1.4-5.8,12.5-18.9,32.4c-8.9,12.6-19.5,23.8-31.6,33.2c-30.2,23.8-68.8,24.6-82,25.4
		c-91.6,5.9-225.7,93.8-237.5,188.1c-2.4,18.7-0.2,37.6,6.4,55.3C901.2,763.9,988.9,829.1,1091.9,829.1z"/>
	<path class="cls-1-banana-elephant-level-four" d="M14.5,511.7C10.2,529.8,8,548.4,8.1,567c0,131.8,106.9,238.7,238.7,238.7c103,0,190.7-65.2,224.2-156.6
		c-25,105.2-119.5,183.4-232.3,183.4C106.9,832.5,0,725.7,0,593.9C0,565.9,4.9,538.1,14.5,511.7z"/>
	<path class="cls-2-banana-elephant-level-four" d="M246.7,805.7C114.9,805.7,8.1,698.8,8.1,567c0-18.6,2.2-37.2,6.4-55.3c9.9-36.3,22.2-72,36.7-106.8
		c10.9-26.3,39.1-93.8,56.2-90.2c6.7,1.4,5.8,12.5,18.9,32.4c8.9,12.6,19.5,23.8,31.6,33.2c30.2,23.8,68.8,24.6,82,25.4
		c91.6,5.9,225.7,93.8,237.5,188.1c2.4,18.7,0.2,37.6-6.4,55.3C437.5,740.5,349.7,805.7,246.7,805.7z"/>
</g>
<path class="cls-1-banana-elephant-level-four" d="M1004.2,547c7.5-17.5,11.4-36.2,11.4-55.2c0-118.1-151.4-213.8-338.2-213.8H677
	c141.6,1.5,312.7,83.2,327.4,196.9c3.8,29-3.3,55.3-12.3,76c94.4,61.5,98.9,117.3,99.2,131.7c2.2,104.4-174,202.3-320,202.3
	c-35.8,0.1-71.5-3.8-106.4-11.5c-34.9,7.7-70.6,11.5-106.4,11.5c-145,0-322.4-97-320-202.3c1.7-74.6,92.9-129.1,118.5-143.9
	c-7.5-19.8-13.5-45.4-9-73.6c16.6-103.9,164.2-176.9,296.9-186.2c-171.6,10.3-305.7,101.7-305.7,212.8c0,15.1,2.5,30,7.3,44.3
	C266,575.1,214.2,636.5,214.2,705.6c0,118.1,151.4,213.8,338.2,213.8c37.8,0.1,75.5-4,112.5-12.1c36.9,8.1,74.6,12.2,112.4,12.1
	c186.8,0,338.2-95.7,338.2-213.8C1115.6,642.6,1072.6,586.1,1004.2,547z"/>
<linearGradient id="SVGID_1_banana-elephant-level-four" gradientUnits="userSpaceOnUse" x1="664.8978" y1="1097.85" x2="664.8978" y2="872.27" gradientTransform="matrix(1 0 0 -1 0 1312)">
	<stop  offset="0" style="stop-color:#8DFF4B"/>
	<stop  offset="1" style="stop-color:#FDD301"/>
</linearGradient>
<path class="cls-3-banana-elephant-level-four" d="M1091.3,682.5c-0.3-14-4.6-67.4-92.2-127c-4-2.8-5.6-7.9-3.9-12.5c7.3-19.3,12.4-42.7,9.1-68.2
	C992,379.1,868.9,306.1,745.8,284.5c-5.1-0.8-8.8-5.3-8.7-10.5c0-0.7,0-1.5,0-2.2c0-4.1-0.3-8.2-0.9-12.2
	c-17.6-8.6-38.5-9.7-57.9-6.2c-19.9,3.6-38.7,11.5-57.2,19.9c-0.5,4.7-4.2,8.5-8.9,9.2C489,300.3,363.2,369.6,348,465
	c-3.9,24.6,0.1,47.2,6.2,65.7c1.5,4.6-0.4,9.7-4.6,12.2c-32.3,19.4-109.6,71-111.1,139.6c-2.4,105.3,175,202.3,320,202.3
	c35,0.1,69.9-3.6,104.2-11c1.5-0.3,3-0.3,4.4,0c34.2,7.4,69.2,11.1,104.2,11C917.3,884.8,1093.5,786.9,1091.3,682.5z"/>
<radialGradient id="SVGID_00000096769685024906649100000013543605098995602581_banana-elephant-level-four" cx="136.5405" cy="1063.3798" r="97.27" gradientTransform="matrix(0.88 -0.47 -0.47 -0.88 772.8107 1695.4697)" gradientUnits="userSpaceOnUse">
	<stop  offset="0" style="stop-color:#FD3400;stop-opacity:0.6"/>
	<stop  offset="1" style="stop-color:#FD3700;stop-opacity:0"/>
</radialGradient>
<circle style="fill:url(#SVGID_00000096769685024906649100000013543605098995602581_banana-elephant-level-four);" cx="393" cy="696.6" r="97.3"/>
<radialGradient id="SVGID_00000124120829887843857370000005311610740193248160_banana-elephant-level-four" cx="934.9597" cy="615.39" r="97.27" gradientTransform="matrix(1 0 0 -1 0 1312)" gradientUnits="userSpaceOnUse">
	<stop  offset="0" style="stop-color:#FD3400;stop-opacity:0.6"/>
	<stop  offset="1" style="stop-color:#FD3700;stop-opacity:0"/>
</radialGradient>
<circle style="fill:url(#SVGID_00000124120829887843857370000005311610740193248160_banana-elephant-level-four);" cx="935" cy="696.6" r="97.3"/>
<path d="M542.7,657.2c-1.5,0-2.9-0.4-4.2-1.2c-3.1-1.7-4.2-5.6-2.5-8.6c0.1-0.3,0.3-0.5,0.5-0.8c2-2.6,12.6-16.1,31.6-29.2
	c24.5-16.8,53.5-25.9,83.2-25.9h0.2c28.7-0.1,56.7,8.4,80.7,24.2c18.2,11.9,28.7,24.2,31.5,27.8c2.2,2.7,1.8,6.7-0.9,8.9
	c-0.2,0.2-0.5,0.4-0.8,0.5c-3.4,2.2-7.9,1.5-10.5-1.5c-3.8-4.7-38.8-46.3-100.1-46.4h-0.2c-26.5-0.1-52.3,8-74.1,23.1
	c-17.5,12-27.2,24.6-28.3,26C547.4,656.2,545.1,657.3,542.7,657.2z"/>
<circle class="cls-6-banana-elephant-level-four" cx="598.3" cy="685.9" r="33.9"/>
<circle cx="598.3" cy="685.9" r="28.4"/>
<circle class="cls-6-banana-elephant-level-four" cx="702" cy="685.9" r="33.9"/>
<circle cx="702" cy="685.9" r="28.4"/>
<path class="cls-2-banana-elephant-level-four" d="M676.7,277.9c-10.5-0.1-21.1,0.2-31.8,1c10.6-0.7,21.2-1,32.1-1H676.7z"/>
<path class="cls-7-banana-elephant-level-four" d="M633.6,770.8h45.6c14.7,0,26.5,11.9,26.5,26.5v0c0,14.7-11.9,26.5-26.5,26.5h-45.6c-14.7,0-26.5-11.9-26.5-26.5
	v0C607,782.7,618.9,770.8,633.6,770.8z"/>
<path class="cls-6-banana-elephant-level-four" d="M697.7,756h9.1c3.9,0,6.4,6.2,4.4,11.2l-4.6,11.5l-4.6,11.5c-2,5-6.9,5-8.9,0l-4.6-11.5l-4.6-11.5
	c-2-5,0.5-11.2,4.4-11.2H697.7z"/>
<path class="cls-6-banana-elephant-level-four" d="M617.9,756h9.1c3.9,0,6.4,6.2,4.4,11.2l-4.6,11.5l-4.6,11.5c-2,5-6.9,5-8.9,0l-4.6-11.5l-4.6-11.5
	c-2-5,0.5-11.2,4.4-11.2L617.9,756z"/>
<path class="cls-7-banana-elephant-level-four" d="M598.4,738.6h115.1c7.3,0,13.2,5.9,13.2,13.2l0,0c0,7.3-5.9,13.2-13.2,13.2H598.4c-7.3,0-13.2-5.9-13.2-13.2
	l0,0C585.1,744.5,591.1,738.6,598.4,738.6z"/>
<path class="cls-8-banana-elephant-level-four" d="M736.2,259.6c-4.7-33.3-28.5-58.6-57-58.6c-32,0-57.9,31.7-57.9,70.8v0.1c0,0.4,0,0.9-0.1,1.3
	c18.5-8.3,37.2-16.3,57.2-19.9C697.7,249.9,718.6,251,736.2,259.6z"/>
<path class="cls-9-banana-elephant-level-four" d="M864,35c4.7,33.7-15,66.6-17.1,69.9c-11,17.7-26.4,28.2-56.8,48.6c-21.7,14.6-44.5,27.5-68.1,38.7
	c0,0-37.9,20.8-76.9,34l-1.2,0.4c0,0-24.3,8.3-45.1,12.7c-63.4,13.5-108-10.1-108-10.1c-2.1-1-21.9-10.3-33.6-31
	c0.1,0.7,0.2,1.4,0.3,2.1c6,35.9,38.4,51.2,41.2,52.5c0,0,44.6,23.6,108,10.1c20.8-4.4,45.1-12.7,45.1-12.7l1.2-0.4
	c39-13.2,76.9-34,76.9-34c23.6-11.2,46.4-24.1,68.1-38.7c30.4-20.4,45.8-30.9,56.8-48.6C857.3,124.3,886.8,75.2,864,35z"/>
<path class="cls-10-banana-elephant-level-four" d="M491.1,230.1c0,0,44.6,23.6,108,10.1c20.8-4.4,45.1-12.7,45.1-12.7l1.2-0.4c39-13.2,76.9-34,76.9-34
	c23.6-11.2,46.4-24.1,68.1-38.7c30.4-20.4,45.8-30.9,56.8-48.6c2.1-3.4,21.8-36.2,17.1-70c-0.7-1.2-1.4-2.3-2.1-3.5
	C851.6,16.2,831.6,1,806,0.1c-32-1.2-52.3,20.6-55.2,23.8c-19.4,24.8-42.3,46.8-67.9,65.2c-27.6,19.9-56.6,40.8-97.6,48
	c-57,10-83.9-15.8-109.2,5.4c-16.1,13.5-21.2,37.3-18.6,56.6C469.2,219.7,489,229.1,491.1,230.1z"/>
</svg>
