<svg
  version="1.1"
  id="green-profile-level-two"
  xmlns="http://www.w3.org/2000/svg"
  x="0"
  y="0"
  viewBox="0 0 781.9 610"
  style="enable-background: new 0 0 781.9 610"
  xml:space="preserve"
>
  <style>
    .cls-1-avocado-snowman-level-two-profile {
      fill: #08fd50;
    }
    .cls-3-avocado-snowman-level-two-profile {
      fill: #070707;
    }
  </style>
  <path
    class="cls-1-avocado-snowman-level-two-profile"
    d="M391 610c129 0 228-56 239-63 90-58 130-137 138-160 4-14 12-46 13-62l1-20v-11C772 148 601 22 433 3a516 516 0 0 0-94 1C172 26 1 154 0 305v9l4 31v1c25 149 189 264 387 264z"
  />
  <ellipse cx="421.7" cy="294.1" rx="275.2" ry="229.2" style="fill: #04b564" />
  <ellipse
    class="cls-3-avocado-snowman-level-two-profile"
    cx="442.7"
    cy="294.9"
    rx="9.4"
    ry="10.5"
  />
  <ellipse
    class="cls-3-avocado-snowman-level-two-profile"
    cx="506.9"
    cy="294.1"
    rx="9.4"
    ry="10.5"
  />
  <path
    class="cls-3-avocado-snowman-level-two-profile"
    d="m335 291 1 4v-3 5-3l-1 6 1-3-3 6 1-2-4 4 2-2c-1 2-3 3-5 3l3-1-5 2 2-1h-4l3 1-1-1-8 1-3 3-1 3c-1 3-1 6 1 8 1 2 3 4 5 4l7 1 6-1 6-3a34 34 0 0 0 17-22v-7l-1-8-2-3-3-2c-2-2-5-2-7-1-3 0-5 2-6 4l-1 2v6zM576 272a39 39 0 0 0 14 13 35 35 0 0 0 22 3c4 0 8-2 11-3l5-6v-4l-1-4c-1-2-3-4-6-4-2-1-5-1-7 1l-2 1 2-1-7 2 3-1h-7l2 1-6-2 2 1-6-4 2 2-5-5 1 2-1-2c-1-2-3-4-6-5l-7 1c-2 2-4 4-4 6-1 3 0 6 1 8z"
  />
  <path
    d="M558 336c-1 0-12-11-18-28-3-7-3-10-2-12 3-4 10-3 15-2 5 2 10 3 14 6s7 8 7 13-3 9-6 11c-6 4-11 2-13 5s3 6 3 7z"
    style="fill: #fff"
  />
  <path
    class="cls-3-avocado-snowman-level-two-profile"
    d="M338 314a189 189 0 0 0 175 52 144 144 0 0 0 74-44 115 115 0 0 0 16-27l2-7c2-5-2-11-7-12s-10 2-11 7l-3 8 1-3-11 20 1-2c-5 7-12 13-19 19l2-2c-8 7-18 13-28 17l2-1c-12 6-25 9-38 11h3c-16 2-32 2-48-1l3 1c-17-2-33-7-48-14l2 1c-15-6-28-14-41-24l2 1-16-14c-3-3-10-4-13 0s-4 10 0 14z"
  />
  <path
    class="cls-1-avocado-snowman-level-two-profile"
    d="M0 313v1-9 8zM781 325l1-12a207 207 0 0 0-1 12zM433 3z"
  />
</svg>
