<?xml version="1.0" encoding="utf-8"?>
<!-- Generator: Adobe Illustrator 25.4.1, SVG Export Plug-In . SVG Version: 6.00 Build 0)  -->
<svg version="1.1" id="레이어_1" xmlns="http://www.w3.org/2000/svg" xmlns:xlink="http://www.w3.org/1999/xlink" x="0px"
	 y="0px" viewBox="0 0 1200.8 1561.5" style="enable-background:new 0 0 1200.8 1561.5;" xml:space="preserve">
<style type="text/css">
	.cls-1-donut-rabbit-level-four{fill:#E51570;}
	.cls-2-donut-rabbit-level-four{fill:#FD037F;}
	.cls-3-donut-rabbit-level-four{fill:#FFB6C7;}
	.cls-4-donut-rabbit-level-four{fill:#FF6E73;}
	.cls-5-donut-rabbit-level-four{fill:#FFFFFF;}
	.cls-6-donut-rabbit-level-four{fill:#FD016F;}
	.cls-7-donut-rabbit-level-four{fill:#070707;}
	.cls-8-donut-rabbit-level-four{fill:#D1B35D;}
	.cls-9-donut-rabbit-level-four{fill:#F7DA7C;}
</style>
<path class="cls-1-donut-rabbit-level-four" d="M990.7,504.6c93.2,108.7,144.4,247.2,144.2,390.4c0,331.6-268.8,600.5-600.5,600.5
	c-143.2,0.2-281.7-50.9-390.4-144.2c110.1,128.6,273.7,210.2,456.3,210.2c331.7,0,600.5-268.8,600.5-600.5
	C1200.9,778.4,1119.3,614.8,990.7,504.6z"/>
<path class="cls-2-donut-rabbit-level-four" d="M1134.9,895c0.2-143.2-51-281.7-144.2-390.4C882,411.4,743.5,360.3,600.4,360.5C268.7,360.5-0.1,629.3-0.1,961
	c-0.2,143.2,50.9,281.7,144.2,390.3c108.7,93.2,247.2,144.4,390.3,144.2C866,1495.5,1134.9,1226.6,1134.9,895z"/>
<circle class="cls-1-donut-rabbit-level-four" cx="557.7" cy="926.9" r="328.8"/>
<path class="cls-3-donut-rabbit-level-four" d="M780.5,1016.9c27.2-0.1,53.9,6.4,78,19c4.9-20.5,7.4-41.4,7.3-62.4c0-147.7-119.7-267.4-267.4-267.4
	S331,825.8,331,973.5c0,19.8,2.2,39.6,6.5,59c23.4-10.4,48.7-15.6,74.2-15.5c86.7,0,156.9,58.6,156.9,130.8
	c0,32.3-14.1,61.9-37.3,84.7c44.2,11.4,90.5,11.3,134.6-0.1c-22.2-22.8-35.6-52.3-35.6-84.6C630.4,1075.5,697.6,1016.9,780.5,1016.9
	z"/>
<path class="cls-4-donut-rabbit-level-four" d="M568.7,1147.7c0-72.2-70.2-130.8-156.9-130.8c-25.6-0.1-50.8,5.2-74.2,15.5c22.1,97.6,96.9,174.7,193.8,199.9
	C554.6,1209.6,568.7,1180,568.7,1147.7z"/>
<path class="cls-4-donut-rabbit-level-four" d="M858.5,1035.9c-24.1-12.6-50.8-19.1-78-19c-83,0-150.2,58.6-150.2,130.8c0,32.2,13.4,61.8,35.6,84.6
	C761.4,1207.3,835.4,1131.8,858.5,1035.9z"/>
<ellipse transform="matrix(0.7071 -0.7071 0.7071 0.7071 -549.7744 660.5264)" class="cls-5-donut-rabbit-level-four" cx="522.4" cy="993.9" rx="42.8" ry="42.8"/>
<circle class="cls-5-donut-rabbit-level-four" cx="666.7" cy="990.4" r="42.8"/>
<path class="cls-6-donut-rabbit-level-four" d="M599.2,1016.9c-13.5-0.3-24.7,10.5-24.9,24s10.5,24.7,24,24.9c13.5,0.3,24.7-10.5,24.9-24c0-0.2,0-0.3,0-0.5
	C623.4,1028,612.7,1017,599.2,1016.9C599.3,1016.9,599.3,1016.9,599.2,1016.9z M599.2,1051.9c-5.8,0.1-10.6-4.5-10.8-10.3
	s4.5-10.6,10.3-10.8c5.8-0.1,10.6,4.5,10.8,10.3c0,0.1,0,0.1,0,0.2C609.6,1047.1,605,1051.8,599.2,1051.9L599.2,1051.9z"/>
<path class="cls-6-donut-rabbit-level-four" d="M464.5,897l56.5,32.7l15.9,9.2c4.3,2.5,9.4,3.1,14.3,1.9c4.3-1.2,9-4.5,11.1-8.5c2.3-4.3,3.4-9.5,1.9-14.3
	c-1.4-4.6-4.4-8.6-8.5-11.1l-56.5-32.7l-15.9-9.2c-4.3-2.4-9.5-3.1-14.3-1.9c-4.3,1.2-9,4.5-11.1,8.5c-2.3,4.3-3.4,9.5-1.9,14.3
	C457.4,890.5,460.4,894.5,464.5,897L464.5,897z"/>
<path class="cls-6-donut-rabbit-level-four" d="M730.7,897l-56.5,32.7l-15.9,9.2c-4.3,2.4-9.5,3.1-14.3,1.9c-4.3-1.2-9-4.5-11.1-8.5c-2.3-4.3-3.4-9.5-1.9-14.3
	c1.4-4.6,4.4-8.6,8.5-11.1l56.5-32.7l15.9-9.2c4.3-2.4,9.5-3.1,14.3-1.9c4.3,1.2,9,4.5,11.1,8.5c2.3,4.3,3.4,9.5,1.9,14.3
	C737.8,890.5,734.8,894.5,730.7,897z"/>
<ellipse transform="matrix(0.9239 -0.3827 0.3827 0.9239 -342.8592 276.7568)" class="cls-7-donut-rabbit-level-four" cx="524.2" cy="1000.2" rx="30.1" ry="30.1"/>
<circle class="cls-7-donut-rabbit-level-four" cx="666.4" cy="1000.2" r="30.1"/>
<path class="cls-5-donut-rabbit-level-four" d="M591.6,1101c-0.5,3.1,7.1,6.2,22.4,12.3c3.2,1.3,7.3,3,9.6,1c1-1,1.8-2.4,2.1-3.8c2.9-9.6,2.6-19.8-0.9-29.2
	c-14.4,7.8-25.4,14.1-31.1,17.4C592.9,1099.1,591.8,1099.8,591.6,1101z"/>
<path d="M666.3,1069.8c-0.8-2.3-3.6-4.6-6.2-3.5c-0.7,0.3-1.5,0.6-2.3,0.8l-1.2,0.3l-0.6,0.1h-0.5c-0.4,0-0.8,0-1.2,0
	c-0.8,0.1-1.6,0.1-2.4-0.1l0.5,0.1l-0.6-0.1c-0.4-0.1-0.8-0.2-1.2-0.3c-0.7-0.2-1.4-0.5-2.1-0.7c1.1,0.3,0,0-0.3-0.1
	s-0.7-0.4-1.1-0.6s-0.6-0.3-0.8-0.5c-0.1,0-0.5-0.3-0.7-0.5l-0.3-0.3c-0.3-0.2-0.6-0.5-0.8-0.8s-0.5-0.6-0.8-0.8
	c0,0-0.2-0.2-0.3-0.4s-0.3-0.5-0.4-0.6l-0.5-0.8c-0.2-0.4-1.1-1.6-1-2l0.2,0.5l-0.3-0.7c-0.1-0.3-0.2-0.6-0.3-0.9
	c-0.2-0.7-0.3-1.4-0.5-2.1v-0.1v-0.1c0-0.4-0.1-0.8-0.1-1.2c0-0.8,0-1.5,0.1-2.3c0.2-2.6-2.5-5.2-5-5c-2.7,0.1-5,2.3-5,5
	c-0.3,4.1,0.4,8.1,2.2,11.8c-0.3,0.5-0.7,1.1-1,1.6l-1.1,1.5l-0.4,0.6l-0.5,0.6c-1.6,2-3.2,3.8-5,5.6c-1.9,1.9-3.9,3.7-5.9,5.4
	l-1.1,0.9l-0.2,0.1l-0.8,0.6c-1.1,0.8-2.2,1.5-3.3,2.3c-2.2,1.5-4.5,2.8-6.9,4c-1.1,0.6-2.1,1.1-3.2,1.6l-1.7,0.8l-1.2,0.5
	c-4.8,1.9-9.9,3.3-15,4.2c-0.7,0.1-1.4,0.2-2.1,0.3h-0.1l-1.5,0.2c-1.5,0.2-2.9,0.3-4.4,0.3c-2.9,0.1-5.9,0.1-8.8-0.2
	c-2.7,0-5,2.3-5,5c0.1,2.7,2.3,4.9,5,5c22.5,1.7,45.4-7,61.7-22.5c3.3-3.1,6.2-6.5,8.9-10.2l0.5,0.4c6.6,5,15.3,6.3,23,3.3
	C665.2,1075,667.2,1072.6,666.3,1069.8z M601.5,1089.4L601.5,1089.4C600.7,1089.8,601.3,1089.5,601.5,1089.4L601.5,1089.4z"/>
<path class="cls-8-donut-rabbit-level-four" d="M64.8,596c0,0-34.6,47.1-60.9,135.9c-3.2,10.9-6.7,29.5-0.6,50.3c4.8,16.3,17.3,31.1,33.9,34.6
	c27.6,5.9,51.1-19.2,68.2-41.6l82.5-108.4c27.3-36,40-45.2,52.8-43.8c22.2,2.4,26.4,36.1,45.4,36.4c21.6,0.3,23.7-43.4,64.2-65.2
	c5.5-2.9,31.8-17.1,58.7-9.2c37.2,11,35.1,52.5,72.8,63.5c21,6.2,41.4-0.8,58-6.6c27.5-9.5,44.7-24.9,51.7-30.9
	c42.8-36.2,136.7-82.3,189.8-55.5c39,19.7,37.2,69.4,72.2,72.8c22.7,2.2,28.2-18.2,58-19.6c31-1.4,64.1,19,78.9,45.9
	c13.8,25,0.8,35.9,13.5,69.5c1,2.8,24.1,60.1,59.2,61.7c31.1,1.5,51-33.2,56.8-63.8c5.7-29.4,5.2-59.6-1.4-88.8
	c-10-43.8-34.2-83.3-63.7-117.2c-52.5-60.2-110.6-88.7-158.3-111.3c-48.8-23.1-152.2-70.7-294.8-70.6c-23.1,0-108.8,1.4-213,36.2
	c-54.1,18.3-105.8,43-154.1,73.5C195.9,468.2,125.4,513.6,64.8,596z"/>
<path class="cls-9-donut-rabbit-level-four" d="M67.8,565.8c0,0-34.6,47.1-60.9,135.9c-3.2,10.9-6.7,29.5-0.6,50.3c4.8,16.3,17.3,31.1,33.9,34.7
	c27.6,5.9,51.1-19.2,68.2-41.6l82.5-108.5c27.4-36,40-45.2,52.8-43.8c22.2,2.4,26.4,36.1,45.4,36.4c21.6,0.3,23.6-43.4,64.2-65.2
	c5.5-2.9,31.8-17.1,58.7-9.2c37.2,11,35.1,52.5,72.8,63.5c21,6.2,41.4-0.8,58.1-6.6c27.5-9.5,44.7-24.9,51.7-30.8
	c42.8-36.2,136.7-82.3,189.8-55.5c39,19.7,37.2,69.4,72.2,72.8c22.7,2.2,28.3-18.2,58-19.6c31-1.4,64.1,19,78.9,45.9
	c13.8,25,0.8,35.9,13.5,69.5c1,2.8,24.1,60.1,59.2,61.7c31.1,1.5,51-33.2,56.8-63.8c5.7-29.4,5.2-59.6-1.4-88.8
	c-10-43.8-34.2-83.3-63.7-117.2c-52.5-60.3-110.6-88.7-158.4-111.4c-48.8-23.1-152.2-70.7-294.8-70.6c-23.1,0-108.8,1.4-213,36.2
	c-54.1,18.2-105.8,42.9-154.1,73.4C198.9,438,128.4,483.3,67.8,565.8z"/>
<g>
	<path class="cls-1-donut-rabbit-level-four" d="M698.3,488c39.9,9.5,132.6-12,209.2-85.4l1.4-1.3c48.7-47.2,54.5-100.7,75.8-179.7
		c15.9-58.8,23.8-88.2,34.1-103.6c50.9-76.5,141.3-75.3,139.1-91.8c-3.1-23.8-194.5-58.6-316.7,38.2c-23.3,18.5-41.6,36.2-66.9,71.6
		c-38.9,54.3-73.4,111.7-103.2,171.5c-3,6-27.8,64.4-24.7,119c0.7,12,2.9,26.9,13.3,39.8C672.4,481.9,690.7,486.2,698.3,488z"/>
	<path class="cls-2-donut-rabbit-level-four" d="M694.4,391.4c27.1,6.4,90.2-8.2,142.3-58.1c4.2-4.1,60.5-57.3,69.3-137.2c2.4-21.2,1.4-43.2-6.5-62.9
		c-8-19.8-23.9-37.1-44.4-43.1c-21.5-6.3-45,0.4-63.5,13s-32.5,30.5-45.5,48.7c-26.5,37-50,76-70.2,116.7c-2,4.1-18.9,43.8-16.8,81
		c0.4,8.1,2,18.3,9,27.1C676.7,387.2,689.2,390.1,694.4,391.4z"/>
</g>
<g>
	<path class="cls-1-donut-rabbit-level-four" d="M541,488c-39.9,9.5-132.6-12-209.2-85.4l-1.4-1.3c-48.7-47.2-54.5-100.7-75.8-179.7
		c-15.9-58.8-23.8-88.2-34.1-103.6C169.7,41.5,79.3,42.7,81.5,26.1c3.1-23.8,194.5-58.6,316.7,38.2c23.3,18.5,41.6,36.2,66.9,71.6
		c38.9,54.3,73.4,111.7,103.1,171.5c3,6,27.8,64.4,24.7,119c-0.7,12-2.9,26.9-13.3,39.8C566.9,481.9,548.6,486.2,541,488z"/>
	<path class="cls-2-donut-rabbit-level-four" d="M545,391.4c-27.1,6.4-90.2-8.2-142.3-58.1c-4.2-4.1-60.5-57.3-69.3-137.2c-2.4-21.2-1.4-43.2,6.5-62.9
		c8-19.8,23.9-37.1,44.4-43.1c21.5-6.3,45,0.4,63.5,13c18.5,12.6,32.5,30.5,45.5,48.7c26.5,37,50,76,70.2,116.7
		c2,4.1,18.9,43.8,16.8,81c-0.4,8.1-2,18.3-9.1,27.1C562.6,387.2,550.1,390.1,545,391.4z"/>
</g>
</svg>
