<?xml version="1.0" encoding="utf-8"?>
<!-- Generator: Adobe Illustrator 25.4.1, SVG Export Plug-In . SVG Version: 6.00 Build 0)  -->
<svg version="1.1" id="green-profile-level-five" xmlns="http://www.w3.org/2000/svg" xmlns:xlink="http://www.w3.org/1999/xlink" x="0px"
	 y="0px" viewBox="0 0 903.3 1115.6" style="enable-background:new 0 0 903.3 1115.6;" xml:space="preserve">
<style type="text/css">
	.cls-1-avocado-snowman-level-five{fill:#08FD50;}
	.cls-2-avocado-snowman-level-five{fill:#48BBFF;}
	.cls-3-avocado-snowman-level-five{fill:#00DA2C;}
	.cls-4-avocado-snowman-level-five{fill:#04B564;}
	.cls-5-avocado-snowman-level-five{fill:#070707;}
	.cls-6-avocado-snowman-level-five{fill:#FFFFFF;}
	.cls-7-avocado-snowman-level-five{fill:#FD0300;}
	.cls-8-avocado-snowman-level-five{fill:url(#SVGID_1_avocado-snowman-level-five);}
	.cls-9-avocado-snowman-level-five{fill:url(#SVGID_00000083085757102366721570000005684276532997485190_avocado-snowman-level-five);}
	.cls-10-avocado-snowman-level-five{opacity:0.46;}
	.cls-11-avocado-snowman-level-five{fill:#92DCE9;}
	.cls-12-avocado-snowman-level-five{fill:#BAF1FF;}
	.cls-13-avocado-snowman-level-five{fill:#FF7BAC;}
	.cls-14-avocado-snowman-level-five{fill:#E25890;}
	.cls-15-avocado-snowman-level-five{fill:none;}
	.cls-16-avocado-snowman-level-five{fill:#00E920;}
</style>
<path class="cls-1-avocado-snowman-level-five" d="M807.3,967.9c21-22.9,39.1-47.8,53.7-74.4c0,0,0,0,0-0.1c1.2-2.1,2.3-4.2,3.5-6.4
	c25-47.9,38.9-100.9,38.9-156.7c0-212.8-202.2-385.2-451.7-385.2S0,517.5,0,730.3c0,55.6,13.8,108.4,38.7,156.2
	c2.1,4,4.3,7.9,6.6,11.8c0,0-0.1,0.1-0.1,0.1c16.5,28.9,37,55.8,61.1,80.1C335.8,1021.5,580,1017.8,807.3,967.9z"/>
<path class="cls-2-avocado-snowman-level-five" d="M106.2,978.5c82.9,83.8,206.9,137,345.4,137c144.4,0,272.9-57.8,355.6-147.7
	C580,1017.8,335.8,1021.5,106.2,978.5z"/>
<ellipse class="cls-3-avocado-snowman-level-five" cx="451.7" cy="721.7" rx="301" ry="247.8"/>
<ellipse class="cls-4-avocado-snowman-level-five" cx="451.7" cy="734" rx="284" ry="233.8"/>
<path class="cls-5-avocado-snowman-level-five" d="M433.4,634.3c0.1-10.4-8.2-18.9-18.6-19c-4,0-7.9,1.2-11.2,3.5c-1.6,1.1-0.1,3.7,1.5,2.6c5.7-4,13.3-4,18.9,0
	c2.8,2.1,4.8,5.1,5.7,8.5c-5-3.6-12.1-2.5-15.7,2.6c-3.6,5-2.5,12.1,2.6,15.7c5,3.6,12.1,2.5,15.7-2.6
	C434.8,642.4,435.2,638,433.4,634.3L433.4,634.3z"/>
<path class="cls-5-avocado-snowman-level-five" d="M492.3,634.3c-0.1-10.4,8.2-18.9,18.6-19c4,0,7.9,1.2,11.2,3.6c1.6,1.1,0.1,3.7-1.5,2.6c-5.7-4-13.3-4-19,0
	c-2.8,2.1-4.8,5.1-5.7,8.5c5-3.6,12.1-2.5,15.7,2.6c3.6,5,2.5,12.1-2.6,15.7c-5,3.6-12.1,2.5-15.7-2.6
	C490.9,642.4,490.5,638,492.3,634.3L492.3,634.3z"/>
<path class="cls-5-avocado-snowman-level-five" d="M654,703.4c-15.1-4.7-31.9-9.4-50.3-13.5c0.6,0.6,1.2,1.2,1.6,1.9c4.2,6.3-0.2,15.7-0.8,16.9
	c-8.1,14.3-26.4,21.8-42.2,17.5c-2.8-0.8-13.1-3.7-18.7-13.9c-3.9-7.2-5.8-18.3-0.6-25.5c2.6-3.6,6.5-5.3,12.3-5.7
	c-2.4-0.3-4.8-0.7-7.3-1c-8.6-1.1-29.5-3.6-58.9-4.4c1.8,0.6,3.4,1.6,4.7,3.1c5,5.7,1.8,15.6,1.3,16.9c-6.2,15.2-23.4,25-39.6,22.8
	c-2.9-0.4-13.4-2-20.3-11.4c-4.8-6.6-8.1-17.4-3.9-25.2c1.6-3,4.3-5,8.1-6.3c-27.7-0.3-55.4,1.3-83,4.7c-2.2,0.3-4.4,0.6-6.6,0.9
	c0.5,0.2,0.9,0.5,1.3,0.8c6,4.5,5.1,14.9,4.8,16.2c-2.9,16.1-17.7,29.4-34,30.5c-2.9,0.2-13.6,0.9-22.3-7c-6.1-5.5-11.5-15.3-9-23.9
	c0.8-2.7,2.5-5.1,4.8-6.7c-16.3,3.8-31.4,8-45.1,12.3c-13.5,4.2-22,20.1-19.7,36.4c0,0.1,0,0.2,0,0.4c8,54.5,34.8,108.9,73.9,147.8
	c-1-16.8,13.3-30.6,18.3-35.4c13.9-13.3,30.2-16.9,37.8-18c1.3,4,2.4,8,3.2,12c8.5-6.5,18.4-10.9,28.9-12.8
	c33-5.9,56.5,17.5,58.5,19.5c17.5-22.9,52.8-29.9,77.7-15.2c3.7,2.2,7.2,4.8,10.3,7.8c0.9-3.8,1.9-7.5,3.1-11.3
	c7.7,1.1,24,4.7,37.8,18c5.1,4.9,20,19.2,18.2,36.5c39.7-39.1,66.9-93.9,75-149c0-0.1,0-0.2,0-0.4
	C676.1,723.4,667.5,707.6,654,703.4z"/>
<path class="cls-5-avocado-snowman-level-five" d="M545.2,927.6l1.8-0.9c-0.1-0.3-0.3-0.6-0.4-0.9C546.1,926.4,545.7,927,545.2,927.6z"/>
<path class="cls-6-avocado-snowman-level-five" d="M290.8,697.8c-2.5,8.5,3,18.4,9,23.9c8.7,7.8,19.4,7.2,22.3,7c16.4-1.2,31.1-14.4,34-30.5
	c0.2-1.3,1.2-11.7-4.8-16.2c-0.4-0.3-0.9-0.6-1.3-0.8c-19.4,2.7-37.6,6.2-54.4,10.1C293.3,692.7,291.6,695.1,290.8,697.8z"/>
<path class="cls-6-avocado-snowman-level-five" d="M431.4,681.7c-4.2,7.8-0.9,18.6,3.9,25.2c6.9,9.5,17.5,11,20.3,11.4c16.2,2.3,33.4-7.6,39.6-22.8
	c0.5-1.3,3.6-11.2-1.3-16.9c-1.3-1.4-2.9-2.5-4.7-3.1c-11.1-0.3-23.5-0.4-36.9-0.1c-4.4-0.1-8.7-0.2-12.8-0.2
	C435.7,676.7,433,678.7,431.4,681.7z"/>
<path class="cls-7-avocado-snowman-level-five" d="M545.2,927.6c0.5-0.6,0.9-1.2,1.4-1.8c-10.6-25.3-13-53.2-7.1-80c-3.1-3-6.5-5.6-10.2-7.8
	c-24.9-14.6-60.2-7.7-77.7,15.2c-2-2-25.4-25.5-58.5-19.5c-10.5,1.9-20.4,6.3-28.9,12.8c5.7,26.7,3.1,54.5-7.5,79.7
	c9.4,4.8,19.1,8.7,29.2,11.8c0.3-0.9,0.6-1.8,0.9-2.7c7.1-14.8,24.7-23.7,40.8-20.5c2.9,0.6,13.3,2.7,19.7,12.6
	c3.3,5.1,5,11.1,4.8,17.1c0.7,0,1.3,0,1.9,0.1c1.1,0.1,2.3,0.2,3.4,0.2c-0.2-6.2,1.5-12.3,4.8-17.4c6.3-9.8,16.8-12,19.7-12.6
	c16.1-3.2,33.8,5.7,40.8,20.5c0.1,0.2,0.3,0.6,0.5,1.2l0.2-0.1C531,934,538.2,931,545.2,927.6z"/>
<path class="cls-6-avocado-snowman-level-five" d="M447.4,927.4c-6.4-9.8-16.8-12-19.7-12.6c-16.1-3.2-33.8,5.7-40.8,20.5c-0.4,0.9-0.7,1.8-0.9,2.7
	c0.5,0.2,1,0.3,1.6,0.5c16.6,4.8,33.8,7,51,6.7c4-0.1,8-0.3,11.9-0.6c0.6,0,1.2-0.1,1.9-0.1C452.4,938.4,450.7,932.5,447.4,927.4z"
	/>
<path class="cls-6-avocado-snowman-level-five" d="M482.1,914.8c-2.9,0.6-13.3,2.7-19.7,12.6c-3.4,5.2-5.1,11.3-4.8,17.4c4.5,0.3,9.2,0.4,13.9,0.4
	c17.7-0.2,35.2-3.1,51.9-8.7c-0.2-0.6-0.4-1-0.5-1.2C515.9,920.5,498.2,911.7,482.1,914.8z"/>
<path class="cls-6-avocado-snowman-level-five" d="M543,686.7c-5.2,7.2-3.3,18.3,0.6,25.5c5.6,10.2,15.9,13.2,18.7,13.9c15.8,4.3,34.1-3.3,42.2-17.5
	c0.7-1.2,5-10.6,0.8-16.9c-0.5-0.7-1-1.3-1.6-1.9c-15.1-3.4-31.3-6.4-48.4-8.8C549.5,681.5,545.6,683.2,543,686.7z"/>
<path class="cls-6-avocado-snowman-level-five" d="M351.4,923.4c1.4,0.8,2.8,1.5,4.2,2.2c-7.2-9.9-16.8-27.9-11.5-49.1c3.2-12.7,10.8-22.7,20.2-30
	c-0.9-4.1-2-8.1-3.2-12c-7.7,1.1-24,4.7-37.8,18c-5,4.8-19.3,18.6-18.3,35.4C318.6,901.9,334.3,913.9,351.4,923.4z"/>
<path class="cls-6-avocado-snowman-level-five" d="M355.6,925.7l0.9,1.2c0.1-0.2,0.2-0.4,0.3-0.6L355.6,925.7z"/>
<path class="cls-6-avocado-snowman-level-five" d="M344.1,876.6c-5.3,21.2,4.3,39.2,11.5,49.1l1.2,0.6c10.6-25.2,13.2-53,7.5-79.7
	C354.8,853.8,347.2,863.9,344.1,876.6z"/>
<path class="cls-6-avocado-snowman-level-five" d="M580.4,852.6c-13.9-13.3-30.2-16.9-37.9-18c-1.2,3.7-2.2,7.5-3.1,11.3c17.5,16.9,24.2,45,14.4,67.5
	c-1.9,4.4-4.4,8.6-7.3,12.5c0.1,0.3,0.3,0.6,0.4,0.9c2.1-1,4.1-2.1,6.2-3.3c16.6-9.3,31.9-20.8,45.5-34.3
	C600.4,871.8,585.5,857.5,580.4,852.6z"/>
<path class="cls-6-avocado-snowman-level-five" d="M546.6,925.8c2.9-3.9,5.4-8,7.3-12.5c9.8-22.5,3.1-50.7-14.4-67.5C533.5,872.5,536,900.5,546.6,925.8z"/>
<radialGradient id="SVGID_1_avocado-snowman-level-five" cx="698.9218" cy="1410.2538" r="28.78" gradientTransform="matrix(1 0 0 -1 0 2114.4875)" gradientUnits="userSpaceOnUse">
	<stop  offset="0" style="stop-color:#FD0300;stop-opacity:0.6"/>
	<stop  offset="1" style="stop-color:#FF0006;stop-opacity:0"/>
</radialGradient>
<circle class="cls-8-avocado-snowman-level-five" cx="698.9" cy="704.2" r="28.8"/>
<radialGradient id="SVGID_00000098216820550190165370000014349341789086740908_avocado-snowman-level-five" cx="201.6717" cy="1410.2538" r="28.78" gradientTransform="matrix(1 0 0 -1 0 2114.4875)" gradientUnits="userSpaceOnUse">
	<stop  offset="0" style="stop-color:#FD0300;stop-opacity:0.6"/>
	<stop  offset="1" style="stop-color:#FF0006;stop-opacity:0"/>
</radialGradient>
<circle style="fill:url(#SVGID_00000098216820550190165370000014349341789086740908_avocado-snowman-level-five);" cx="201.7" cy="704.2" r="28.8"/>
<g class="cls-10-avocado-snowman-level-five">
	<path class="cls-6-avocado-snowman-level-five" d="M662.7,419.2c-14.8-8.7-22.2-13.1-31.4-12.3c-10.6,0.9-24.6,7.8-27.5,20.4c-2.7,11.4,4.1,23.2,13.5,30.2
		s21,10.1,32.2,13.3s22.8,6.7,31.7,14.3c7.3,6.2,13.4,15.4,23,16.2c8.3,0.7,16-6.3,17.9-14.5c2.3-9.7-2.2-18-5.8-23.7
		c-4.2-6.7-8.7-10.1-18.1-17.3C668.2,422.9,668.5,422.6,662.7,419.2z"/>
</g>
<g class="cls-10-avocado-snowman-level-five">
	<path class="cls-6-avocado-snowman-level-five" d="M768.4,541.2c-6.2,8-19.3,8.1-26.9,1.1c-7.3-6.7-8.8-19.3-1.5-26.4s19.3-5.2,25.9,1.5
		C771.9,523.5,773.9,534.1,768.4,541.2z"/>
</g>
<g class="cls-10-avocado-snowman-level-five">
	<path class="cls-6-avocado-snowman-level-five" d="M100.9,124.2c8.2,1.5,11.7,32.5,9.7,59.9c-5.4,72.8-49.6,110.5-62.1,117c-1.3,0.7-4.5,2.4-5.5,1.4
		c-2.5-2.5,14-18.9,25.4-36.3C100.4,218,101.6,151.1,95.6,137c-0.6-1.4-3.5-7.6-0.9-10.8C96.3,124.2,99.6,124,100.9,124.2z"/>
</g>
<g>
	<g class="cls-10-avocado-snowman-level-five">
		<path class="cls-6-avocado-snowman-level-five" d="M355.5,349.8c-6.4,5.2-16.1,2.9-20.9-3.3c-4.6-6.1-4.5-15.8,2-20.7c6.3-4.8,15.5-2.6,20.2,3.2
			C361.7,334.9,361.8,344.7,355.5,349.8z"/>
	</g>
	<ellipse class="cls-11-avocado-snowman-level-five" cx="439.4" cy="300.7" rx="151.5" ry="123.5"/>
	<ellipse class="cls-12-avocado-snowman-level-five" cx="439.4" cy="289.4" rx="151.5" ry="123.5"/>
	<path class="cls-13-avocado-snowman-level-five" d="M334.9,192.1c-7.4,3.8-14,9.1-19.1,15.7c-4.6,6-9.3,13-8.9,22.5c0.4,8.3,5.7,16.5,13.7,18.7
		c8.3,2.3,16.9-2.2,24.5-6.3c7.6-4.1,16.6-8.1,24.6-4.8c9.6,3.9,13.3,16.6,22.8,20.9c7.6,3.4,16.4,0.3,23.8-3.6
		c7.4-3.8,14.8-8.6,23.1-8.5c10,0.1,18.4,7.2,26.3,13.5c7.9,6.3,17.4,12.4,27.3,10.2c7.1-1.6,12.6-7.2,19.4-9.5
		c9.8-3.4,20.4,0.4,30.3,3.8c9.8,3.3,21,6.2,30.1,1.2c9.1-5,13-16.8,11-27.1s-8.7-18.9-16.4-26c-21.1-19.5-50-28.8-78.6-31.3
		c-41.9-3.7-37.1,8.2-85.8,5.1C381.8,185.3,356.3,181.3,334.9,192.1z"/>
	<ellipse class="cls-14-avocado-snowman-level-five" cx="439.4" cy="150.8" rx="98.4" ry="80.2"/>
	<ellipse class="cls-13-avocado-snowman-level-five" cx="439.4" cy="142.1" rx="98.4" ry="80.2"/>
	<path class="cls-13-avocado-snowman-level-five" d="M350.8,238.6l-7.9,44.4c-1,5.5,7.5,7.9,8.5,2.3l7.9-44.4C360.2,235.4,351.8,233,350.8,238.6L350.8,238.6z"/>
	<path class="cls-13-avocado-snowman-level-five" d="M370.6,345.5l22.7,16.8c4.5,3.4,8.9-4.3,4.4-7.6L375,338C370.4,334.6,366.1,342.2,370.6,345.5z"/>
	<path class="cls-13-avocado-snowman-level-five" d="M483.9,271.1l-2.4,36.6c-0.4,5.7,8.4,5.6,8.8,0l2.4-36.6C493,265.4,484.2,265.5,483.9,271.1z"/>
	<path class="cls-13-avocado-snowman-level-five" d="M538,339.5l28.8-23.5c4.4-3.6-1.9-9.8-6.2-6.2l-28.8,23.5C527.4,336.9,533.7,343.1,538,339.5z"/>
	<path class="cls-2-avocado-snowman-level-five" d="M403.6,313.6l34-18.2c5-2.7,0.6-10.3-4.4-7.6l-34,18.2C394.2,308.7,398.6,316.3,403.6,313.6z"/>
	<path class="cls-2-avocado-snowman-level-five" d="M466.9,370.3l-10.3-13.2c-1.5-1.9-4.7-1.5-6.2,0c-1.9,1.9-1.5,4.3,0,6.2l10.3,13.2c1.5,1.9,4.7,1.5,6.2,0
		C468.8,374.6,468.4,372.2,466.9,370.3z"/>
	<path class="cls-2-avocado-snowman-level-five" d="M520.5,231.7l33.6,21.5c4.8,3.1,9.2-4.5,4.4-7.6l-33.6-21.5C520.1,221,515.7,228.6,520.5,231.7z"/>
	<path class="cls-2-avocado-snowman-level-five" d="M386.4,152.9l10.5-7c2.1-1.3,2.8-3.9,1.6-6c-1.1-2-4-2.9-6-1.6l-10.5,7c-2.1,1.2-2.8,3.9-1.6,6
		C381.5,153.2,384.4,154.2,386.4,152.9z"/>
	<path class="cls-2-avocado-snowman-level-five" d="M427.8,116.2l13.9,21c3.1,4.7,10.7,0.3,7.6-4.4l-13.9-21C432.3,107.1,424.7,111.5,427.8,116.2L427.8,116.2z"/>
	<path class="cls-2-avocado-snowman-level-five" d="M422.5,183.5l27.9,1.6c5.7,0.3,5.6-8.5,0-8.8l-27.9-1.6C416.9,174.4,416.9,183.2,422.5,183.5z"/>
	<path class="cls-2-avocado-snowman-level-five" d="M508.3,158.5l-13.8-36.6c-2-5.2-10.5-3-8.5,2.3l13.8,36.6C501.8,166.1,510.3,163.8,508.3,158.5z"/>
	<circle class="cls-6-avocado-snowman-level-five" cx="438.6" cy="124.5" r="40.8"/>
	<circle class="cls-5-avocado-snowman-level-five" cx="438.6" cy="131.5" r="17.6"/>
	<path class="cls-14-avocado-snowman-level-five" d="M439.9,67.6c-22.5,0-41-14.7-44-33.8c-0.3,1.8-0.4,3.6-0.4,5.4c0,21.6,19.9,39.2,44.4,39.2
		s44.4-17.6,44.4-39.2c0-1.8-0.1-3.6-0.4-5.4C480.9,52.9,462.4,67.6,439.9,67.6z"/>
	<ellipse class="cls-13-avocado-snowman-level-five" cx="439.9" cy="33.8" rx="44" ry="33.8"/>
	<g class="cls-10-avocado-snowman-level-five">
		<path class="cls-6-avocado-snowman-level-five" d="M335.9,224.1c-17,15.6-20.9,33.9-20.9,33.9c-0.7,3.4-5.5,27.4,7,42.7c1.7,2,5.6,6.7,12.3,8.6
			c2,0.6,8.9,2.4,12.7-0.9c5.6-4.8,3.6-14.1-0.4-20.4s-9.4-12.4-9.3-19.8c0.1-7.8,6.3-14,11.6-19.8c8.4-9.1,9.5-16,7.5-21
			c-1.8-4.4-7.1-7.7-12-7.5C340.5,220.1,337.6,222.4,335.9,224.1z"/>
	</g>
	<circle class="cls-6-avocado-snowman-level-five" cx="445.5" cy="128.8" r="4.3"/>
	<circle class="cls-6-avocado-snowman-level-five" cx="443.5" cy="138.5" r="2"/>
</g>
<path class="cls-15-avocado-snowman-level-five" d="M44.8,965.8c20.3,4.6,40.8,8.8,61.4,12.7c0,0,0,0,0,0C85.6,974.7,65.1,970.4,44.8,965.8z"/>
<path class="cls-15-avocado-snowman-level-five" d="M807.3,967.9c25.6-5.6,50.9-11.8,76-18.6C858.2,956,832.8,962.2,807.3,967.9
	C807.3,967.9,807.3,967.9,807.3,967.9z"/>
<path class="cls-2-avocado-snowman-level-five" d="M898.7,945c-5.1,1.4-10.3,2.9-15.5,4.3C888.4,947.9,893.6,946.4,898.7,945z"/>
<path class="cls-16-avocado-snowman-level-five" d="M106.2,978.5C106.2,978.5,106.2,978.5,106.2,978.5c229.6,43,473.8,39.3,701.1-10.6c0,0,0,0,0,0
	C580,1017.8,335.8,1021.5,106.2,978.5z"/>
<path class="cls-16-avocado-snowman-level-five" d="M38.7,886.5c2.1,4,4.3,8,6.5,11.9c0,0,0.1-0.1,0.1-0.1C43,894.4,40.8,890.5,38.7,886.5z"/>
<path class="cls-16-avocado-snowman-level-five" d="M860.9,893.5c1.2-2.1,2.3-4.3,3.4-6.4C863.2,889.2,862.1,891.3,860.9,893.5
	C860.9,893.4,860.9,893.5,860.9,893.5z"/>
</svg>
