<?xml version="1.0" encoding="utf-8"?>
<!-- Generator: Adobe Illustrator 25.4.1, SVG Export Plug-In . SVG Version: 6.00 Build 0)  -->
<svg version="1.1" id="레이어_1" xmlns="http://www.w3.org/2000/svg" xmlns:xlink="http://www.w3.org/1999/xlink" x="0px"
	 y="0px" viewBox="0 0 1492.7 921" style="enable-background:new 0 0 1492.7 921;" xml:space="preserve">
<style type="text/css">
	.cls-1-banana-elephant-level-five{fill:#FFC500;}
	.cls-2-banana-elephant-level-five{fill:#FDD301;}
	.cls-3-banana-elephant-level-five{fill:url(#SVGID_1_banana-elephant-level-five);}
	.cls-4-banana-elephant-level-five{opacity:0.46;}
	.cls-5-banana-elephant-level-five{fill:#FFFFFF;}
	.cls-6-banana-elephant-level-five{fill:url(#SVGID_00000124138127525554773490000003809078585757541273_banana-elephant-level-five);}
	.cls-7-banana-elephant-level-five{fill:#02111E;}
	.cls-8-banana-elephant-level-five{fill:#610000;}
	.cls-9-banana-elephant-level-five{fill:#00AD4C;}
	.cls-10-banana-elephant-level-five{fill:url(#SVGID_00000165929915521905436360000011876561538686989488_banana-elephant-level-five);}
	.cls-11-banana-elephant-level-five{fill:url(#SVGID_00000158725742054061628890000010747216909518936744_banana-elephant-level-five);}
	.cls-12-banana-elephant-level-five{fill:url(#SVGID_00000004509046578577859980000008575885759529685401_banana-elephant-level-five);}
	.cls-13-banana-elephant-level-five{opacity:0.46;fill:#FFFFFF;enable-background:new;}
	.cls-14-banana-elephant-level-five{fill:#00BF36;}
	.cls-15-banana-elephant-level-five{fill:#4A2827;}
	.cls-16-banana-elephant-level-five{fill:#651E02;}
	.cls-17-banana-elephant-level-five{opacity:0.2;}
</style>
<g>
	<path class="cls-1-banana-elephant-level-five" d="M1476.1,474.8c4.9,20.8,7.4,42.1,7.4,63.5c0,151.4-122.8,274.1-274.1,274.1c-118.3,0-219-74.9-257.5-179.8
		c28.6,120.8,137.2,210.7,266.7,210.7c151.4,0,274.1-122.8,274.1-274.1C1492.7,537,1487.1,505,1476.1,474.8z"/>
	<path class="cls-2-banana-elephant-level-five" d="M1209.3,812.4c151.4,0,274.1-122.8,274.1-274.1c0-21.4-2.5-42.7-7.4-63.5c-11.4-41.7-25.5-82.7-42.1-122.6
		c-9.4-22.6-50-108.4-64.5-103.6c-3.8,1.3-7.2,9.3-4.3,40.2c-3.4,29-15.4,46.4-21.9,54.4c-7.2,8.8-14.6,14.5-22.2,20.3
		c0,0-19.4,19.2-44.2,25.6c-55.2,14.3-127-21.6-191.3-5.7c-98.2,24.4-140.7,160.2-141.1,185.7c0,1.7-0.3,31.2-0.3,31.2
		c1.2,11,3.8,21.9,7.7,32.3C990.3,737.5,1091.1,812.4,1209.3,812.4z"/>
	
		<radialGradient id="SVGID_1_banana-elephant-level-five" cx="1128.3696" cy="771.9675" r="101.5368" gradientTransform="matrix(1 0 0 -1 0 1366)" gradientUnits="userSpaceOnUse">
		<stop  offset="0" style="stop-color:#F27D00"/>
		<stop  offset="1" style="stop-color:#FFB500"/>
	</radialGradient>
	<path class="cls-3-banana-elephant-level-five" d="M1048.1,582.7c3-16.2,11.7-63,51.5-91.9c25.9-18.8,52.9-21.2,80.1-23.6c62.5-5.5,81.6,16,119.6,6.6
		c22.2-5.5,52.5-21.9,82-73.5c3.5,8.8,55.8,150.9-29.2,257.2c-12.9,16.2-68.7,81.2-155.6,82.7c-12.6,0.2-101.8,2.1-138.5-63.1
		C1037.8,641.3,1044.3,603.3,1048.1,582.7z"/>
	<g class="cls-4-banana-elephant-level-five">
		<path class="cls-5-banana-elephant-level-five" d="M1446.5,489.3c-8.3-5.7-11.1-18-12.1-22.7c-5.7-24.6-19.8-86.2-41.6-96.6c-3.8-1.8-10.6-3.4-15.5-10.2
			c-1.1-1.6-4.1-6.8-3.6-11.5c0.6-5.6,8.9-6.3,12.1-6.3c14.3,0.1,29,21.4,38.6,35.5c0,0,26.6,38.7,34.7,96.5
			c0.9,6.6,1.6,15.2-2.6,17.5C1452.6,493.4,1447,489.6,1446.5,489.3z"/>
	</g>
	<g class="cls-4-banana-elephant-level-five">
		<path class="cls-5-banana-elephant-level-five" d="M1454.9,508.7c-4-0.7-8.5,5.5-17.4,17.8c-7.1,9.8-10.9,15.2-11.6,23.2c-0.1,1.6-1.5,16.1,6.9,21
			c7.4,4.3,18.8-1.1,24.7-7.1C1473.8,547,1464.3,510.4,1454.9,508.7z"/>
	</g>
</g>
<g>
	<path class="cls-1-banana-elephant-level-five" d="M16.7,474.8c-4.9,20.8-7.4,42.1-7.4,63.5c0,151.4,122.8,274.1,274.1,274.1c118.3,0,219-74.9,257.5-179.8
		c-28.6,120.8-137.2,210.7-266.7,210.7C122.8,843.3,0,720.5,0,569.1C0,537,5.6,505,16.7,474.8z"/>
	<path class="cls-2-banana-elephant-level-five" d="M283.4,812.4C132,812.4,9.3,689.7,9.3,538.3c0-21.4,2.5-42.7,7.4-63.5c11.4-41.7,25.5-82.7,42.1-122.6
		c9.4-22.6,50-108.4,64.5-103.6c3.8,1.3,7.2,9.3,4.3,40.2c3.4,29,15.4,46.4,21.9,54.4c7.2,8.8,14.6,14.5,22.2,20.3
		c0,0,19.4,19.2,44.2,25.6c55.2,14.3,127-21.6,191.3-5.7c98.2,24.4,140.7,160.2,141.1,185.7c0,1.7,0.3,31.2,0.3,31.2
		c-1.2,11-3.8,21.9-7.7,32.3C502.4,737.5,401.6,812.4,283.4,812.4z"/>
	
		<radialGradient id="SVGID_00000057147471396188766840000008569635242569211522_banana-elephant-level-five" cx="-547.2904" cy="771.9675" r="101.5368" gradientTransform="matrix(-1 0 0 -1 -182.9542 1366)" gradientUnits="userSpaceOnUse">
		<stop  offset="0" style="stop-color:#F27D00"/>
		<stop  offset="1" style="stop-color:#FFB500"/>
	</radialGradient>
	<path style="fill:url(#SVGID_00000057147471396188766840000008569635242569211522_banana-elephant-level-five);" d="M444.6,582.7c-3-16.2-11.7-63-51.5-91.9
		c-25.9-18.8-52.9-21.2-80.1-23.6c-62.5-5.5-81.6,16-119.6,6.6c-22.2-5.5-52.5-21.9-82-73.5c-3.5,8.8-55.8,150.9,29.2,257.2
		c12.9,16.2,68.7,81.2,155.6,82.7c12.6,0.2,101.8,2.1,138.5-63.1C455,641.3,448.4,603.3,444.6,582.7z"/>
	<g class="cls-4-banana-elephant-level-five">
		<path class="cls-5-banana-elephant-level-five" d="M46.3,489.3c8.3-5.7,11.1-18,12.1-22.7C64,442,78.2,380.3,100,370c3.8-1.8,10.6-3.4,15.5-10.2
			c1.1-1.6,4.1-6.8,3.6-11.5c-0.6-5.6-8.9-6.3-12.1-6.3c-14.3,0.1-29,21.4-38.6,35.5c0,0-26.6,38.7-34.7,96.5
			c-0.9,6.6-1.6,15.2,2.6,17.5C40.1,493.4,45.7,489.6,46.3,489.3z"/>
	</g>
	<g class="cls-4-banana-elephant-level-five">
		<path class="cls-5-banana-elephant-level-five" d="M37.8,508.7c4-0.7,8.5,5.5,17.4,17.8c7.1,9.8,10.9,15.2,11.6,23.3c0.1,1.6,1.5,16.1-6.9,21
			c-7.4,4.3-18.8-1.1-24.7-7.1C18.9,547,28.4,510.4,37.8,508.7z"/>
	</g>
</g>
<path class="cls-2-banana-elephant-level-five" d="M762.2,279.5c-10.5-0.1-21.1,0.2-31.8,1c10.5-0.7,21.2-1,32-1H762.2z"/>
<path class="cls-7-banana-elephant-level-five" d="M675.9,825.3c-1.7-0.9-3.4-1.8-5-2.7c2.6,1.5,5.2,2.8,7.9,4.1c4.7,2.2,9.6,4.2,14.5,5.9
	c-4.4-1.5-8.2-3.1-11.2-4.4S676.3,825.5,675.9,825.3z"/>
<path class="cls-8-banana-elephant-level-five" d="M739.7,839.3c-15.7,0.5-31.4-1.8-46.4-6.7c16.4,5.7,41.6,11.2,70.4,5.3C755.8,839.1,747.7,839.6,739.7,839.3z"
	/>
<path class="cls-9-banana-elephant-level-five" d="M1519.6,1360.1c0.8,0,1.5-0.7,1.5-1.5s-0.7-1.5-1.5-1.5s-1.5,0.7-1.5,1.5S1518.8,1360.1,1519.6,1360.1z"/>
<path class="cls-1-banana-elephant-level-five" d="M1089.7,548.6c7.5-17.5,11.4-36.2,11.4-55.2c0-118.1-151.4-213.8-338.2-213.8h-0.4
	c141.6,1.5,312.7,83.2,327.4,196.9c3.8,29-3.3,55.3-12.3,76c94.4,61.5,98.9,117.3,99.2,131.6c2.2,104.4-174,202.3-320,202.3
	c-35.8,0.1-71.5-3.8-106.4-11.5c-34.9,7.7-70.6,11.5-106.4,11.5c-145,0-322.4-97-320-202.3c1.7-74.6,92.9-129,118.5-143.9
	c-7.5-19.8-13.5-45.4-9-73.6C450,362.8,597.7,289.8,730.4,280.5c-171.5,10.3-305.7,101.7-305.7,212.8c0,15,2.5,30,7.3,44.2
	c-80.4,39.1-132.2,100.5-132.2,169.6c0,118.1,151.4,213.8,338.2,213.8c37.8,0.1,75.5-4,112.5-12.1c36.9,8.1,74.6,12.2,112.5,12.2
	c186.8,0,338.2-95.7,338.2-213.8C1201,644.2,1158.1,587.7,1089.7,548.6z"/>
<linearGradient id="SVGID_00000109752662992420466150000006381429458642748823_banana-elephant-level-five" gradientUnits="userSpaceOnUse" x1="750.3661" y1="1203.75" x2="750.3661" y2="960.17" gradientTransform="matrix(1 0 0 -1 0 1366)">
	<stop  offset="0" style="stop-color:#8DFF4B"/>
	<stop  offset="1" style="stop-color:#FDD301"/>
</linearGradient>
<path style="fill:url(#SVGID_00000109752662992420466150000006381429458642748823_banana-elephant-level-five);" d="M1176.8,684.1c-0.3-14-4.6-67.4-92.2-127
	c-4-2.7-5.6-7.9-3.9-12.5c7.3-19.3,12.4-42.7,9.1-68.2c-12.4-95.7-135.5-168.7-258.6-190.4c-5.1-0.9-8.8-5.3-8.7-10.5
	c0-0.7,0-1.5,0-2.2c0-39.1-25.9-70.9-57.9-70.9s-57.9,31.7-57.9,70.9v0.1c0,5.3-3.8,9.8-9,10.5c-123.2,17.9-249,87.2-264.2,182.6
	c-3.9,24.6,0.1,47.2,6.2,65.7c1.5,4.6-0.4,9.7-4.6,12.2c-32.3,19.5-109.6,71-111.1,139.6c-2.4,105.3,175,202.3,320,202.3
	c35,0.1,69.9-3.6,104.2-11c1.5-0.3,3-0.3,4.4,0c34.2,7.4,69.2,11.1,104.2,11C1002.8,886.4,1179,788.5,1176.8,684.1z"/>
<radialGradient id="SVGID_00000036252140487126827170000013886293800696435886_banana-elephant-level-five" cx="13.7531" cy="180.6772" r="97.27" gradientTransform="matrix(0.88 -0.47 -0.47 -0.88 553.588 859.272)" gradientUnits="userSpaceOnUse">
	<stop  offset="0" style="stop-color:#FD3400;stop-opacity:0.6"/>
	<stop  offset="1" style="stop-color:#FD3700;stop-opacity:0"/>
</radialGradient>
<circle style="fill:url(#SVGID_00000036252140487126827170000013886293800696435886_banana-elephant-level-five);" cx="478.4" cy="698.2" r="97.3"/>
<radialGradient id="SVGID_00000154427125394131370370000015067429823673764281_banana-elephant-level-five" cx="1020.413" cy="667.77" r="97.27" gradientTransform="matrix(1 0 0 -1 0 1366)" gradientUnits="userSpaceOnUse">
	<stop  offset="0" style="stop-color:#FD3400;stop-opacity:0.6"/>
	<stop  offset="1" style="stop-color:#FD3700;stop-opacity:0"/>
</radialGradient>
<circle style="fill:url(#SVGID_00000154427125394131370370000015067429823673764281_banana-elephant-level-five);" cx="1020.4" cy="698.2" r="97.3"/>
<path d="M628.1,552.7c-1.5,0-2.9-0.4-4.2-1.2c-3.1-1.7-4.2-5.6-2.5-8.6c0.1-0.3,0.3-0.5,0.5-0.8c2-2.6,12.6-16.1,31.6-29.2
	c24.5-16.8,53.5-25.9,83.2-25.9h0.2c28.7-0.1,56.7,8.4,80.7,24.2c18.2,11.9,28.7,24.2,31.5,27.8c2.2,2.7,1.8,6.7-0.9,8.9
	c-0.2,0.2-0.5,0.4-0.8,0.5c-3.4,2.2-7.9,1.5-10.5-1.5c-3.8-4.7-38.8-46.3-100.1-46.4h-0.2c-26.5-0.1-52.3,8-74.1,23.1
	c-17.5,12-27.2,24.6-28.3,26C632.9,551.7,630.6,552.7,628.1,552.7z"/>
<circle class="cls-5-banana-elephant-level-five" cx="683.8" cy="594.8" r="33.9"/>
<circle cx="683.8" cy="594.8" r="18.4"/>
<circle class="cls-5-banana-elephant-level-five" cx="787.4" cy="594.8" r="33.9"/>
<circle cx="787.4" cy="594.8" r="18.4"/>
<path class="cls-7-banana-elephant-level-five" d="M645.6,737c4.4-2,9.1-3.1,13.8-3.4c-0.5-0.8-1-1.6-1.3-2.5l-8.4-21.2l-8.4-21.2c-1-2.6-1.4-5.3-1.2-8.1
	c-5.6,1.3-10.9,3.7-15.6,7.1c-6.6,4.9-10,12.3-10.3,12.8c-8.5,15.2-6.2,30.9-5.2,38.5c1.7,12.2,7,26.2,15.7,39.8
	c-1.3-2.3-2-4.8-2.3-7.4C621.1,757,632.8,742.8,645.6,737z"/>
<path class="cls-7-banana-elephant-level-five" d="M691.4,688.6l-8.4,21.2l-8.4,21.2c-0.5,1.3-1.2,2.5-2.1,3.6c7.5,1.7,14.5,4.8,20.9,9.1
	c13.8,9.7,23.6,23.9,33.1,37.8c6.7-16.3,16.1-32.1,30-42.9c13.4-10.4,31.7-15.5,47.8-10.6l-7.2-18.3l-8.4-21.2
	c-1.3-3.3-1.6-6.9-1-10.3c-7.3,0.2-15.1,0.5-23.4,0.6h-1.5c0.5,3.3,0.1,6.6-1.1,9.7l-8.4,21.2l-8.5,21.2c-3.6,9.2-12.8,9.2-16.4,0
	l-8.4-21.2l-8.4-21.2c-1.2-3.1-1.6-6.5-1.1-9.8c-6.3-0.2-12.3-0.3-18-0.5C693,681.7,692.7,685.3,691.4,688.6z"/>
<path class="cls-7-banana-elephant-level-five" d="M865.1,700.4c-0.3-0.5-3.7-7.9-10.3-12.8c-4.5-3.3-9.6-5.6-15-7c0.2,2.7-0.3,5.4-1.2,7.9l-8.4,21.2l-8.4,21.2
	c-0.7,1.9-1.9,3.6-3.4,5c16.1,13.8,21.7,39.8,13,59.8c-12.1,27.9-44.4,36.8-64.1,41.3c-1.2,0.3-2.4,0.5-3.5,0.8
	c12.8-1.9,25.2-5.6,36.8-11.2c41.3-19.7,65.6-58.7,69.7-87.8C871.4,731.3,873.6,715.7,865.1,700.4z"/>
<path class="cls-8-banana-elephant-level-five" d="M624.7,778.7c1.8,3.4,4.7,7.2,8.7,12.5c2.9,3.8,14.8,18.9,37.5,31.5C652.1,811.9,636.3,796.9,624.7,778.7z"/>
<path class="cls-8-banana-elephant-level-five" d="M831.4,795.8c8.7-20.1,3.1-46-13-59.8c-4.3,3.7-10.2,2-13-5l-1.1-2.9c-16.1-5-34.4,0.2-47.8,10.6
	c-14,10.8-23.3,26.6-30,42.9c-9.5-13.9-19.3-28.1-33.1-37.8c-6.3-4.3-13.4-7.4-20.9-9.1c-3.8,4.6-9.5,4.3-13-1.1
	c-4.8,0.3-9.5,1.4-13.8,3.4c-12.8,5.9-24.5,20.1-23.2,34.3c0.3,2.6,1,5.1,2.3,7.4c11.6,18.2,27.4,33.3,46.1,43.9
	c1.6,0.9,3.3,1.8,5,2.7c0.4,0.2,3.2,1.6,6.2,2.9s6.8,2.9,11.2,4.4c14.9,4.9,30.6,7.2,46.4,6.7c8,0.2,16.1-0.2,24.1-1.4
	c1.2-0.2,2.3-0.5,3.5-0.8C787,832.6,819.3,823.8,831.4,795.8z"/>
<path class="cls-5-banana-elephant-level-five" d="M788.5,688.6l8.5,21.2l7.3,18.3c0.7,0.2,1.3,0.4,2,0.7c4.4,1.7,8.5,4.1,12.1,7.2c1.5-1.4,2.7-3.1,3.4-5
	l8.4-21.2l8.4-21.2c1-2.5,1.4-5.2,1.2-7.9c-13.3-3.5-30.4-3.1-52.3-2.4C786.9,681.7,787.2,685.3,788.5,688.6z"/>
<path class="cls-5-banana-elephant-level-five" d="M804.2,728.2l1.1,2.9c2.8,7,8.7,8.6,13,5c-3.6-3.1-7.7-5.5-12.2-7.2C805.5,728.6,804.9,728.4,804.2,728.2z"/>
<path class="cls-5-banana-elephant-level-five" d="M641.3,688.6l8.4,21.2l8.4,21.2c0.3,0.9,0.8,1.7,1.3,2.5c4.4-0.2,8.7,0.1,13,1.1c0.9-1.1,1.6-2.3,2.1-3.6
	l8.4-21.2l8.4-21.2c1.3-3.3,1.6-6.9,1-10.3c-21.9-0.7-39-1.1-52.3,2.3C639.9,683.3,640.3,686,641.3,688.6z"/>
<path class="cls-5-banana-elephant-level-five" d="M659.5,733.6c3.4,5.4,9.2,5.8,13,1.1C668.2,733.7,663.8,733.3,659.5,733.6z"/>
<path class="cls-5-banana-elephant-level-five" d="M711.5,688.6l8.4,21.2l8.4,21.2c3.6,9.2,12.8,9.2,16.4,0l8.4-21.2l8.4-21.2c1.2-3.1,1.6-6.4,1.1-9.7
	c-8.5,0.2-15.2,0.2-22.5,0.2h-0.9c-7.7,0-14.8,0-24-0.2l-4.9-0.1C709.8,682.1,710.2,685.5,711.5,688.6z"/>
<g class="cls-4-banana-elephant-level-five">
	<path class="cls-5-banana-elephant-level-five" d="M586.1,346.2c-7,2.2-65.1,21.3-87.5,71.4c-9.2,20.6-5.2,31.1-4,35.1c3.5,11.5,14.9,21.2,26.8,19.4
		c16.3-2.4,22.9-21.8,32.8-35c11.3-15,29.5-23.3,47.6-28s37-6.3,55.2-11.1c9.4-2.5,18.8-6,25.8-12.8c5.7-5.5,10.8-17.2,7.3-26.5
		c-4.4-11.5-20.7-14.3-35.1-16.7C619.2,336.2,590.1,345,586.1,346.2z"/>
</g>
<ellipse class="cls-13-banana-elephant-level-five" cx="492.6" cy="504.9" rx="20.4" ry="23"/>
<path class="cls-14-banana-elephant-level-five" d="M821.8,261.5c-4.7-33.3-28.5-58.6-57-58.6c-32,0-57.9,31.7-57.9,70.8v0.1c0,0.4,0,0.9-0.1,1.3
	c18.5-8.3,37.2-16.3,57.2-19.9C783.4,251.8,804.2,252.9,821.8,261.5z"/>
<path class="cls-15-banana-elephant-level-five" d="M951.1,36.6c4.7,33.7-15,66.6-17.1,70c-11,17.7-26.4,28.2-56.8,48.6c-21.7,14.6-44.5,27.5-68.1,38.7
	c0,0-37.9,20.8-76.9,34l-1.2,0.4c0,0-24.3,8.2-45.1,12.6c-63.4,13.5-108-10-108-10c-2.1-1-21.9-10.3-33.6-31
	c0.1,0.7,0.2,1.4,0.3,2.1c5.9,35.9,38.4,51.2,41.2,52.5c0,0,44.6,23.6,108,10.1c20.8-4.4,45.1-12.7,45.1-12.7l1.2-0.4
	c38.9-13.2,76.8-34,76.8-34c23.6-11.2,46.4-24.1,68.1-38.7c30.4-20.4,45.8-30.9,56.8-48.6C944.5,125.9,974,76.8,951.1,36.6z"/>
<path class="cls-16-banana-elephant-level-five" d="M578,231c0,0,44.6,23.5,108,10c20.8-4.4,45.1-12.7,45.1-12.7l1.2-0.4c39-13.2,76.9-34,76.9-34
	c23.6-11.2,46.4-24.1,68.1-38.7c30.4-20.4,45.8-30.9,56.8-48.6c2.1-3.4,21.8-36.2,17.1-70c-0.7-1.2-1.4-2.3-2.1-3.5
	c-10.5-16-30.5-31.2-56.1-32.2c-32-1.2-52.3,20.6-55.2,23.8c-19.4,24.8-42.3,46.8-67.9,65.2c-27.6,19.9-56.6,40.8-97.5,47.9
	c-57,10-83.9-15.8-109.2,5.4c-16.1,13.5-21.2,37.3-18.6,56.6C556,220.6,575.8,230,578,231z"/>
<circle class="cls-5-banana-elephant-level-five" cx="889.2" cy="48.3" r="37"/>
<path class="cls-16-banana-elephant-level-five" d="M620.6,151.3l-29.3-4.5c-4.3-0.7-7.3-4.7-6.6-9c0.2-1.4,0.8-2.7,1.6-3.7l18.5-23.1l18.5-23.1
	c2.7-3.4,7.7-4,11.1-1.3c1.1,0.9,2,2.1,2.5,3.4l10.8,27.6l10.7,27.6c1.6,4.1-0.4,8.6-4.5,10.2c-1.3,0.5-2.7,0.7-4.1,0.4L620.6,151.3
	z"/>
<path class="cls-16-banana-elephant-level-five" d="M737.2,120.4l-25.1,15.8c-3.7,2.3-8.6,1.2-10.9-2.5c-0.7-1.2-1.2-2.5-1.2-3.9l-1.1-29.6l-1.1-29.6
	c-0.2-4.4,3.2-8,7.6-8.2c1.4-0.1,2.8,0.3,4,0.9l26.2,13.8L761.8,91c3.9,2,5.3,6.8,3.3,10.7c-0.6,1.2-1.6,2.3-2.8,3L737.2,120.4z"/>
<path class="cls-16-banana-elephant-level-five" d="M825.7,54.6l-23.3,18.2c-3.4,2.7-8.4,2.1-11.1-1.4c-0.9-1.1-1.4-2.4-1.6-3.8l-4.1-29.3L781.5,9
	c-0.6-4.3,2.4-8.3,6.7-8.9c1.4-0.2,2.8,0,4.1,0.5l27.5,11.1l27.5,11.1c4,1.6,6,6.2,4.4,10.3c-0.5,1.3-1.4,2.4-2.5,3.3L825.7,54.6z"
	/>
<ellipse transform="matrix(0.3253 -0.9456 0.9456 0.3253 576.561 881.3369)" cx="905.9" cy="36.6" rx="13.4" ry="13.4"/>
<g class="cls-17-banana-elephant-level-five">
	<path class="cls-5-banana-elephant-level-five" d="M625.8,158.3c-5-2.2-16.8-7-36.6-5.3c-6,0.5-9,0.8-12,2.5c-7,4-11.3,12.3-11.3,20.3
		c-0.1,11.4,7.9,18.6,13.5,22.6c2.3,1.8,4.9,3,7.8,3.5c2.9,0.5,5.8-0.5,7.7-2.7c2.9-3.8,0.8-9.3,2.3-13.8c1.6-4.8,7-7.4,12.1-8.1
		c7.4-1.1,9.4,0.8,15.2-1.7c4.8-2,9.9-6.6,9.2-10.7C633.3,162.2,630.4,160.3,625.8,158.3z"/>
</g>
<g class="cls-17-banana-elephant-level-five">
	<path class="cls-5-banana-elephant-level-five" d="M656.3,157.7c-5,0.5-7.6,0.8-8.7,1.5c-2.3,1.6-4.5,4.8-3.7,7.4c1.2,3.7,6,4.5,10,4.4c4.3-0.1,8.7-0.6,12.9-1.5
		c2.2-0.4,4.5-1,6.1-2.5c1.6-1.6,2-4,1.1-6c-0.6-1-1.5-1.7-2.5-2.1c-1.8-0.8-3.8-1.2-5.7-1.1C660,157.6,657.2,157.6,656.3,157.7z"/>
</g>
</svg>
