<svg
  version="1.1"
  id="blueberry-octo-profile-level-three"
  xmlns="http://www.w3.org/2000/svg"
  xmlns:xlink="http://www.w3.org/1999/xlink"
  x="0px"
  y="0px"
  viewBox="0 0 853.6 986"
  style="enable-background: new 0 0 853.6 986"
  xml:space="preserve"
>
  <style type="text/css">
    .cls-1-blueberry-octo-level-three-profile {
      fill: #2501fd;
    }
    .cls-2-blueberry-octo-level-three-profile {
      fill: #130093;
    }
    .cls-3-blueberry-octo-level-three-profile {
      fill: #1600cb;
    }
    .cls-4-blueberry-octo-level-three-profile {
      fill: url(#SVGID_1_blueberry-octo-level-three-profile);
    }
    .cls-5-blueberry-octo-level-three-profile {
      fill: url(#SVGID_00000036233671291694282960000005397362412363398313_blueberry-octo-level-three-profile);
    }
    .cls-6-blueberry-octo-level-three-profile {
      fill: #ffffff;
    }
    .cls-7-blueberry-octo-level-three-profile {
      fill: #070707;
    }
    .cls-8-blueberry-octo-level-three-profile {
      fill: #00d389;
    }
  </style>
  <path
    class="cls-1-blueberry-octo-level-three-profile"
    d="M139.7,907.6c33.1-27.4,75.4-43.5,120.7-43.5c14.6,0,28.8,1.7,42.5,4.8c0.5,0.1,0.9,0.1,1.4,0.2
	c42.3,6,78.8,27.2,104.6,57.3c25.8-30.1,62.3-51.3,104.6-57.3c0.5-0.1,0.9-0.1,1.4-0.2c13.7-3.1,27.9-4.8,42.5-4.8
	c47,0,90.8,17.4,124.5,46.8c24-14.8,46.8-31.5,68-49.9c-25.5-22.8-47.6-44-54-83.2c-7.8-47.4,16.8-61.8,32.6-129.6
	c31.5-135.7-25.7-257.2-36-279c-56.4-119.8-157.6-183.6-221-213.8C215.6,129.6,0,327.8,0,576c-0.1,66,15.4,131,45.3,189.8
	c7.4,14.6,8.3,30.8,3.7,45.4c-3.5,11-0.6,23,7.7,31.1C82,866.8,109.8,888.7,139.7,907.6z"
  />
  <path
    class="cls-2-blueberry-octo-level-three-profile"
    d="M811.6,759.1c36.9-76.1,51.5-164.8,35.5-257.9c-26-150.5-132.5-273.3-274.3-323.4c-4.6-1.6-9.2-3.2-13.8-4.6
	c-18.3-5.8-37-10.3-56.3-13.6c-2.4-0.4-4.7-0.8-7.1-1.1c-1-0.1-1.9-0.3-2.9-0.4c-1.4-0.2-2.8-0.4-4.2-0.6c-1.1-0.2-2.2-0.3-3.4-0.5
	c-1.3-0.2-2.5-0.3-3.8-0.5c-1.1-0.1-2.2-0.3-3.4-0.4c-1.8-0.2-3.6-0.4-5.4-0.6c-0.5,0-0.9-0.1-1.4-0.2
	c63.4,30.2,164.6,93.9,221,213.8c10.3,21.8,67.5,143.3,36,279c-15.8,67.8-40.4,82.2-32.6,129.6c6.5,39.2,28.5,60.5,54,83.2
	c17.2-15,33.5-31.1,48.6-48.2c5.4-6.1,8.1-14.2,7.4-22.4C804.9,779.9,806.7,769.1,811.6,759.1z"
  />
  <path
    class="cls-3-blueberry-octo-level-three-profile"
    d="M584.4,36c-22.4,0-44.3,6.4-63.1,18.5C486.7-0.1,414.4-16.4,359.8,18.1c-14.7,9.3-27.1,21.7-36.4,36.4
	c-54.4-34.8-126.8-19-161.6,35.4c-34.8,54.4-19,126.8,35.4,161.6s126.8,19,161.6-35.4c0.1-0.2,0.2-0.4,0.3-0.5
	c38.5,24.6,87.7,24.6,126.2,0c34.5,54.6,106.8,70.9,161.4,36.3s70.9-106.8,36.3-161.4C661.8,56.6,624.5,36,584.4,36z"
  />
  <radialGradient
    id="SVGID_1_blueberry-octo-level-three-profile-profile"
    cx="201.3452"
    cy="311.6301"
    r="57.692"
    gradientTransform="matrix(1 0 0 -1 0 1044.054)"
    gradientUnits="userSpaceOnUse"
  >
    <stop offset="0" style="stop-color: #d20c2b" />
    <stop offset="1" style="stop-color: #d20c2b; stop-opacity: 0" />
  </radialGradient>
  <path
    class="cls-4-blueberry-octo-level-three-profile"
    d="M187.8,675.7c-26.5,6.2-46.4,33.5-44.2,60.7s25.9,51,53.1,53.2c35.1,2.9,67.9-32.7,62-67.4
	c-5.9-34.7-48.8-57.5-80.8-42.7"
  />
  <radialGradient
    id="SVGID_00000115516585472737532530000013883818223892119950_blueberry-octo-level-three-profile"
    cx="614.3852"
    cy="311.6301"
    r="57.692"
    gradientTransform="matrix(1 0 0 -1 0 1044.054)"
    gradientUnits="userSpaceOnUse"
  >
    <stop offset="0" style="stop-color: #d20c2b" />
    <stop offset="1" style="stop-color: #d20c2b; stop-opacity: 0" />
  </radialGradient>
  <path
    style="
      fill: url(#SVGID_00000115516585472737532530000013883818223892119950_blueberry-octo-level-three-profile);
    "
    d="M600.8,675.7
	c-26.5,6.2-46.4,33.5-44.2,60.7s25.9,51,53.1,53.2c35.1,2.9,67.9-32.7,62-67.4s-48.8-57.5-80.8-42.7"
  />
  <circle
    class="cls-6-blueberry-octo-level-three-profile"
    cx="233.4"
    cy="585"
    r="90"
  />
  <circle
    class="cls-6-blueberry-octo-level-three-profile"
    cx="575.4"
    cy="585"
    r="90"
  />
  <circle
    class="cls-7-blueberry-octo-level-three-profile"
    cx="557.4"
    cy="585"
    r="72"
  />
  <circle
    class="cls-7-blueberry-octo-level-three-profile"
    cx="251.4"
    cy="585"
    r="72"
  />
  <path
    class="cls-6-blueberry-octo-level-three-profile"
    d="M439.2,779c-7.1-5-9.6-12.8-14.3-28.3c-3.1-10.1-3-13.3-1.3-15.8c2.2-3.1,6.3-4.3,10.1-4.6
	c10.7-0.7,24.7,6.6,28.8,19.7c4.3,13.8-2.7,30.9-12,32.8C446.1,783.7,442,780.9,439.2,779z"
  />
  <path
    class="cls-2-blueberry-octo-level-three-profile"
    d="M413.4,639c-49.7,0-90,40.3-90,90s40.3,90,90,90s90-40.3,90-90l0,0C503.4,679.3,463.1,639,413.4,639z
	 M413.4,774c-24.9,0-45-20.1-45-45s20.1-45,45-45s45,20.1,45,45S438.2,774,413.4,774L413.4,774z"
  />
  <path
    class="cls-2-blueberry-octo-level-three-profile"
    d="M302.9,868.8c-13.7-3.1-27.9-4.8-42.5-4.8c-45.2,0-87.6,16.1-120.7,43.5c6.3,4,12.7,7.8,19.1,11.5
	C195.8,880.7,249.2,861.7,302.9,868.8z"
  />
  <path
    class="cls-1-blueberry-octo-level-three-profile"
    d="M404.8,931.2c1.3-1.7,2.7-3.3,4.1-4.9C383,896.2,346.6,875,304.3,869c-0.5-0.1-0.9-0.1-1.4-0.2
	C343.4,878.1,378.9,900.5,404.8,931.2z"
  />
  <path
    class="cls-1-blueberry-octo-level-three-profile"
    d="M158.8,919.1c64.8,37.1,138.5,60.5,217.1,66.2c6.3-19.7,16.1-38.1,28.9-54.1c-25.9-30.7-61.4-53-101.9-62.3
	C249.2,861.7,195.8,880.7,158.8,919.1z"
  />
  <path
    class="cls-2-blueberry-octo-level-three-profile"
    d="M514.8,868.8c55.2-7.3,110.1,12.9,147.2,53.6c6.7-3.7,13.3-7.6,19.8-11.6c-33.6-29.4-77.5-46.8-124.5-46.8
	C542.7,864,528.5,865.7,514.8,868.8z"
  />
  <path
    class="cls-1-blueberry-octo-level-three-profile"
    d="M514.8,868.8c-0.5,0.1-0.9,0.1-1.4,0.2c-42.3,6-78.8,27.2-104.6,57.3c1.4,1.6,2.7,3.2,4.1,4.9
	C438.8,900.5,474.4,878.1,514.8,868.8z"
  />
  <path
    class="cls-1-blueberry-octo-level-three-profile"
    d="M408.9,936.1c1.3-1.7,2.7-3.3,4.1-5c-1.3-1.7-2.7-3.3-4.1-4.9c-1.4,1.6-2.7,3.2-4.1,4.9
	C406.2,932.8,407.5,934.4,408.9,936.1z"
  />
  <path
    class="cls-1-blueberry-octo-level-three-profile"
    d="M408.9,936.1c-1.3-1.7-2.7-3.3-4.1-5c-12.8,16-22.6,34.3-28.9,54.1c1.6,0.1,3.2,0.2,4.9,0.3
	C387.6,967.6,397.2,951,408.9,936.1z"
  />
  <path
    class="cls-1-blueberry-octo-level-three-profile"
    d="M514.8,868.8c-40.5,9.3-76,31.6-101.9,62.3c12.9,16.2,22.8,34.7,29.1,54.6c79.5-4.4,154.2-26.9,220-63.4
	C624.9,881.8,570,861.5,514.8,868.8z"
  />
  <path
    class="cls-1-blueberry-octo-level-three-profile"
    d="M437.1,986c1.6-0.1,3.2-0.2,4.9-0.2c-6.3-20-16.2-38.5-29.1-54.6c-1.4,1.6-2.7,3.3-4.1,5
	C420.7,951.1,430.3,967.9,437.1,986z"
  />
  <path
    class="cls-1-blueberry-octo-level-three-profile"
    d="M413.4,986.6c8,0,15.9-0.2,23.8-0.6c-6.9-18.1-16.5-35-28.3-49.9c-11.7,14.8-21.2,31.5-28.1,49.5
	C391.5,986.2,402.4,986.6,413.4,986.6z"
  />
  <path
    class="cls-8-blueberry-octo-level-three-profile"
    d="M471.3,155.3C471.3,155.3,471.3,155.3,471.3,155.3c0.5,0,0.9,0.1,1.4,0.2C472.3,155.4,471.8,155.3,471.3,155.3z
	"
  />
</svg>
