<svg
  version="1.1"
  id="peach-profile-level-four"
  xmlns="http://www.w3.org/2000/svg"
  x="0"
  y="0"
  viewBox="0 0 1302.2 1168.5"
  style="enable-background: new 0 0 1302.2 1168.5"
  xml:space="preserve"
>
  <style>
    .cls-1-peach-bear-level-four-profile {
      fill: #87ff7b;
    }
    .cls-2-peach-bear-level-four-profile {
      fill: #d11022;
    }
    .cls-5-peach-bear-level-four-profile {
      fill: #fd0300;
    }
    .cls-6-peach-bear-level-four-profile {
      fill: #fc4401;
    }
    .cls-9-peach-bear-level-four-profile {
      fill: #ffc2ff;
    }
    .cls-10-peach-bear-level-four-profile {
      fill: #fff;
    }
    .cls-11-peach-bear-level-four-profile {
      fill: #070707;
    }
  </style>
  <path
    class="cls-1-peach-bear-level-four-profile"
    d="m1017.9 932.6 1.1.4-.3-.3-.8-.1z"
  />
  <path
    class="cls-2-peach-bear-level-four-profile"
    d="M1124.2 725.5a161.3 161.3 0 0 1-156.1-115.2c-22.2-76.4 21.4-147.6 69.9-181 72.8-50.1 186-35 261.2 46.1 2.9 17.4 13.7 94.5-36.2 164.9-13.1 18.5-59.5 84.2-138.8 85.2z"
  />
  <path
    d="M752.9 105.9A221.8 221.8 0 0 0 554.4.2l.3.2c23.9 3.5 42.5 21.6 54 43.6a351 351 0 0 1 59.3 76.9 356.8 356.8 0 0 1 45.6 177.8c13.7 11.7 28 22.6 42.9 32.7a221.6 221.6 0 0 0-3.6-225.5z"
    style="fill: #00ff7d"
  />
  <path
    class="cls-1-peach-bear-level-four-profile"
    d="M668 120.9A349.3 349.3 0 0 0 608.7 44c4.1 7.8 7.3 16 9.6 24.5 11.1 41 11.5 69.7 14.1 98.6 3 34.1 20.4 79.5 81.2 131.6A357 357 0 0 0 668 120.9z"
  />
  <path
    d="M757.6 339c-25.3-55.1-.6-110 4.4-120.6 27-56.6 80-76.1 90.6-79.7l50.1 33.5a160.1 160.1 0 0 0-61.9 32.3C771.1 264 782 364.3 783.4 375.8a126.7 126.7 0 0 1-25.8-36.8z"
    style="fill: #663606"
  />
  <path
    class="cls-5-peach-bear-level-four-profile"
    d="M458.3 1135.3c-8.5-5.8-41.6-30-80.1-61.7a1093.2 1093.2 0 0 1-56.6-49.2c-53.9-51.6-83-106.7-96.8-132.8-39.2-74.4-122.3-231.5-59.4-402.8C220.3 339.1 350.3 274.3 369 265.4c24.4-11.7 136-62.1 256.8-28.5A317 317 0 0 1 762 315.2c10.2 10.3 19 21.9 26.3 34.4 12 21.6 19 45.7 20.3 70.5L762 315.2a214.8 214.8 0 0 1 70.5-17.5c127.6-8.6 219.9 106.7 234.8 125.4 95.5 119.4 74.3 285.8 71.2 308.5-19.8 144.9-106 235.3-138.9 269.1a543.9 543.9 0 0 1-152.8 108c-133.6 64.2-307.2 82.3-388.5 26.6z"
  />
  <path
    class="cls-6-peach-bear-level-four-profile"
    d="M261.2 879.2c15.6-33.3 76.5-33.7 110.7-26.4 12.6 2.7 73.4 15.7 88.4 64.9 11.4 37.4-10.8 72.4-16.9 82-8.8 13.8-21.2 33.4-42.7 39-45.7 11.8-92.5-50.3-105.6-67.8-19.5-25.9-47.4-62.9-33.9-91.7z"
  />
  <path
    d="M675.4 1028.2a50.4 50.4 0 0 0-24.8-32.5 47.9 47.9 0 0 0-36-2.9c.9 9.7 2.4 19.4 4.6 28.8 1.9 7.9 3.8 16.3 6.5 24.4l10.5-2.9c7.5-2 14.8-3.8 22-5.4 1.9-.4 3.8.8 4.2 2.7a3 3 0 0 1-.3 2.3l-16.8 35.2-1.1 1.4c3.7 3.8 7.8 7.1 12.4 9.7a70.7 70.7 0 0 0 44.6 8 60 60 0 0 0-25.8-68.8z"
    style="fill: #ff7687"
  />
  <path
    d="M797.3 952.8a3.5 3.5 0 0 1 .3 4.8l-15.8 19.5a3.5 3.5 0 0 1-5 .5c-.5-.4-1-1-1.2-1.7l-6.4-21.2c-4.9-.6-9.8-1.7-14.5-3.4-10-3.6-19.3-9-27.3-16.1a72.9 72.9 0 0 1-46.5 5.2c-.2.9-.7 1.7-1.4 2.3L655 960.3a3.5 3.5 0 0 1-4.9-.8l-.6-1.5-4.3-28.1c-.3-1.9 1-3.7 2.9-4h.3a127 127 0 0 1-24-21.7c-7.2 23.5-13 54.4-9.9 88.8a47.8 47.8 0 0 1 36 2.9 50.6 50.6 0 0 1 24.8 32.5 60 60 0 0 1 25.7 68.9 121 121 0 0 0 14.6-2.7c40.1-9.7 63-42.9 81.8-70.1a160.9 160.9 0 0 0 19.5-36.6c5.6-15.6 8.7-31.9 9.2-48.4a90.1 90.1 0 0 1-28.8 13.3z"
    style="fill: #7c0d17"
  />
  <path
    class="cls-9-peach-bear-level-four-profile"
    d="m781.8 977.1 15.8-19.5c1.2-1.4 1-3.5-.3-4.8-9.1 2.4-18.6 3-28 1.9l6.4 21.2a3.5 3.5 0 0 0 4.4 2.3c.7-.2 1.3-.6 1.7-1.1zM645.3 929.8l4.3 28.1a3.6 3.6 0 0 0 4 3c.6-.1 1.1-.3 1.5-.6l24.5-17.6a3 3 0 0 0 1.4-2.3 93.1 93.1 0 0 1-32.6-14.6 3.5 3.5 0 0 0-3.3 3.7c.2.1.2.2.2.3zM662.1 1042.9c.8-1.8.1-3.9-1.7-4.7-.7-.3-1.5-.4-2.3-.3-7.2 1.6-14.5 3.4-22 5.4l-10.5 2.9c4 12.2 9.5 24 18.5 33.3a3 3 0 0 0 1.1-1.4l16.9-35.2z"
  />
  <path
    class="cls-10-peach-bear-level-four-profile"
    d="M605.3 701.6a50.3 50.3 0 0 0-56.5 43l-6.7 49.8a50.3 50.3 0 0 0 99.6 13.4l6.7-49.8a50.2 50.2 0 0 0-43.1-56.4z"
  />
  <circle
    class="cls-11-peach-bear-level-four-profile"
    cx="593.1"
    cy="798.8"
    r="44.3"
  />
  <circle
    class="cls-10-peach-bear-level-four-profile"
    cx="580"
    cy="766.1"
    r="22.1"
  />
  <path
    class="cls-10-peach-bear-level-four-profile"
    d="M915.5 750.1a50.2 50.2 0 0 0-64.2 30.3l-17 47.3a50.1 50.1 0 1 0 94.5 33.9l17-47.3c9.3-26-4.2-54.8-30.3-64.2z"
  />
  <circle
    class="cls-11-peach-bear-level-four-profile"
    cx="883.3"
    cy="845.1"
    r="44"
  />
  <circle
    class="cls-10-peach-bear-level-four-profile"
    cx="869.9"
    cy="821.2"
    r="23.5"
  />
  <path
    class="cls-11-peach-bear-level-four-profile"
    d="M728.8 897.8c.4 3 .6 6.1.7 9.2l-.1 4.5-.2 2.4-.1 1.2c0 .2-.1 1.2 0 .4a85.2 85.2 0 0 1-3.6 15.3l-.4 1.2c-.1.2-.6 1.4-.2.6-1 2.4-.7 5.5 1.9 6.8 2.2 1.1 5.7.6 6.8-1.9 5.2-12.5 7-26.1 5.3-39.6-.4-2.6-2.1-5.1-5-4.9-2.5-.1-5.4 2-5.1 4.8z"
  />
  <path
    class="cls-11-peach-bear-level-four-profile"
    d="M618.7 909.7A97.5 97.5 0 0 0 728.8 940c2.4-.9 4.3-3.5 3.4-6.2-.8-2.4-3.5-4.4-6.2-3.4a87.7 87.7 0 0 1-17.2 4.5l-.8.1a108.5 108.5 0 0 1-21.9.5l-2.1-.2h-.3l-1.1-.1-4.2-.7c-4.8-.9-9.6-2.3-14.2-4l-1.6-.6-.6-.2-3.2-1.4a102.3 102.3 0 0 1-15.6-9.1l-.3-.2-.9-.7-2.2-1.7-3.7-3.1c-3.8-3.4-7.3-7-10.6-11-1.6-2-5.4-1.7-7.1.2-1.8 2.1-1.4 4.8.3 7z"
  />
  <path
    class="cls-11-peach-bear-level-four-profile"
    d="M725.7 938.4a77 77 0 0 0 37.5 20.2 77 77 0 0 0 56.7-10.9c4.7-2.9 9.1-6.3 13.2-10.1a5 5 0 0 0-.2-7.1 5.1 5.1 0 0 0-7.1.2l-3.3 2.9-.6.5c-.2.1 1-.8.2-.2l-1.6 1.2-3.6 2.6c-2.9 2-6 3.8-9.1 5.3l-2.6 1.3-.4.2-1.7.7a65 65 0 0 1-12.8 3.9l-1.8.3-.9.2s-.8.1-.3.1l-.5.1-1 .1-1.9.2a67.7 67.7 0 0 1-15-.5 64.6 64.6 0 0 1-13.6-3.7l-1.3-.5a48.2 48.2 0 0 1-7.8-4l-4.8-3-1-.7-.5-.3c-.7-.5.7.5.2.2l-1.9-1.4a85.3 85.3 0 0 1-5.6-4.9 5 5 0 0 0-7 .7 4.7 4.7 0 0 0 .1 6.4z"
  />
  <path
    class="cls-2-peach-bear-level-four-profile"
    d="M600.6 250.3a254.4 254.4 0 0 0-148.8.1 199 199 0 0 1 3.2 107.1c30.9-55 83.9-94.1 145.6-107.2zM241.2 551.2c23.7-4.7 47.1-9.2 70.3-13.6A324.2 324.2 0 0 0 193.6 774a553.2 553.2 0 0 1-31.5-206.4c26-5.6 52.4-11 79.1-16.4zM779.4 334.5c39.6 79 39 172.3-1.7 250.8 2.4-1.7 6.3-4.5 10.9-8.4 49.1-42 46.8-97.4 69.5-139.6 13.3-24.6 41.3-56.4 108.4-78.4-22.5-16-48-27.2-75-33a203.5 203.5 0 0 0-112.1 8.6z"
  />
  <path
    class="cls-6-peach-bear-level-four-profile"
    d="M894.5 954.1c-28.1 22.7-34.5 59.7-36.7 72.6a137 137 0 0 0-2 21.2 22 22 0 0 0 33.7 18.8 451.9 451.9 0 0 0 105.8-93.1 22.1 22.1 0 0 0-11.7-35.4c-33.2-7.8-66.1-2.8-89.1 15.9z"
  />
  <path
    class="cls-2-peach-bear-level-four-profile"
    d="M393.5 164.6c-68.8-55.5-175.7-50-251.2-8-68.5 38.1-130.5 116.9-126.9 215 3 81.4 51.1 175.4 141.4 203.7 115.3 36 212.7-62.2 224.5-74.2 43.4-43.8 59-92.6 64.8-111.6 2.7-8.7 6-19.6 8.8-32a198.1 198.1 0 0 0-6-115.1 186.1 186.1 0 0 0-55.4-77.8z"
  />
  <path
    class="cls-2-peach-bear-level-four-profile"
    d="M380.2 158.9c-30-27.8-113.1-71.8-232.3-97a354.7 354.7 0 0 0-111 130.2C22.1 222.2-8.3 285.6 2.1 365.9 4 380.4 26.7 533.1 143.6 569.6c115.3 36 212.7-62.2 224.5-74.2a264 264 0 0 0 64.7-111.6c2.7-8.7 6-19.6 8.8-32a198.1 198.1 0 0 0-6-115.1c.1-.1-15.2-40.5-55.4-77.8z"
  />
  <path
    class="cls-5-peach-bear-level-four-profile"
    d="M391.6 131.7c-30-27.9-113.1-71.8-232.3-97a354.7 354.7 0 0 0-111 130.2C33.4 195 3.1 258.4 13.5 338.8c1.9 14.4 24.5 167.1 141.4 203.7 115.3 36 212.7-62.2 224.5-74.2a264 264 0 0 0 64.7-111.6c2.7-8.7 6-19.6 8.8-32a198.1 198.1 0 0 0-6-115.1c.2-.2-15.1-40.7-55.3-77.9z"
  />
  <path
    class="cls-6-peach-bear-level-four-profile"
    d="M372.7 424.4c-22.2 38.8-72.3 84.7-136.8 75.8-59.9-8.2-101.6-59.3-111.5-112.1-11.2-59.4 18.6-116.4 64.4-146.1 47.1-30.5 118.4-36.7 165.9 5.3 52.9 46.9 46.5 127.2 18 177.1z"
  />
  <path
    d="M720.5 916c-8.4-1.9-13.9-3.2-15.9-7.6-3.8-8.2 5.8-23.4 19-27.3a27 27 0 0 1 20.4 2.7c11.4 6.5 19 21.7 14.7 29.7-5.4 9.9-27.9 4.7-38.2 2.5z"
    style="fill: #fdd301"
  />
</svg>
