<svg
  version="1.1"
  id="blueberry-octo-profile-level-one"
  xmlns="http://www.w3.org/2000/svg"
  x="0"
  y="0"
  viewBox="0 0 669 669"
  style="enable-background: new 0 0 669 669"
  xml:space="preserve"
>
  <style>
    .cls-1-blueberry-octo-level-one-profile {
      fill: #1600cb;
    }
    .cls-3-blueberry-octo-level-one-profile {
      fill: #fff;
    }
    .cls-4-blueberry-octo-level-one-profile {
      fill: #070707;
    }
  </style>
  <path
    class="cls-1-blueberry-octo-level-one-profile"
    d="M556.4 84.2c36.5 54.8 56 119.2 55.9 185.1 0 184.7-149.8 334.5-334.5 334.5-81.8.1-160.8-29.8-221.9-84.2 59.9 90 162.4 149.4 278.6 149.4C519.2 669 669 519.2 669 334.5c.1-95.7-40.9-186.9-112.6-250.3z"
  />
  <path
    d="M612.3 269.3c.1-65.9-19.3-130.3-55.9-185.1C495.3 29.9 416.3-.1 334.5 0 149.8 0 0 149.8 0 334.5c-.1 65.9 19.3 130.3 55.9 185.1C117 574 196 603.9 277.8 603.8c184.7 0 334.5-149.7 334.5-334.5z"
    style="fill: #2500ff"
  />
  <circle
    class="cls-3-blueberry-octo-level-one-profile"
    cx="146.3"
    cy="231.3"
    r="22.9"
  />
  <circle
    class="cls-3-blueberry-octo-level-one-profile"
    cx="397.7"
    cy="231.3"
    r="22.9"
  />
  <path
    class="cls-4-blueberry-octo-level-one-profile"
    d="m250.9 231.2 2.8 30.1c.5 5.5.9 11.3 3.9 16 1.7 2.7 4 5 6.8 6.6 1.4.8 2.9 1.4 4.4 1.7 2.3.5 4.7.5 7 0 2.1-.3 4.4-2.4 5.4-4.1 2.5-4.3 1.1-9.8-3.2-12.3l-2.1-.9c-1.6-.4-3.2-.4-4.8 0l-.4.1 2.4-.3h-1.5l2.4.3c-.6-.1-1.2-.2-1.8-.5l2.1.9c-.7-.3-1.3-.7-1.9-1.1l1.8 1.4c-.7-.5-1.3-1.2-1.9-1.9l1.4 1.8c-.6-.7-1-1.5-1.4-2.4l.9 2.1c-.7-1.8-1.2-3.7-1.4-5.7l.3 2.4c-.7-5.6-1.1-11.3-1.6-16.9l-1.6-17.4c-.1-2.4-1-4.6-2.6-6.4-3.5-3.5-9.2-3.5-12.7 0-1.6 1.9-2.9 4.2-2.7 6.5z"
  />
  <circle
    class="cls-4-blueberry-octo-level-one-profile"
    cx="152.6"
    cy="242.5"
    r="6.3"
  />
  <circle
    class="cls-4-blueberry-octo-level-one-profile"
    cx="397.7"
    cy="242.5"
    r="6.3"
  />
  <path
    class="cls-1-blueberry-octo-level-one-profile"
    d="M538.6 314.5c.8 0 1.5-.7 1.5-1.5s-.7-1.5-1.5-1.5-1.5.7-1.5 1.5.7 1.5 1.5 1.5z"
  />
</svg>
