<svg
  version="1.1"
  id="lemon-mouse-level-five-profile"
  xmlns="http://www.w3.org/2000/svg"
  x="0"
  y="0"
  viewBox="0 0 767.2 803"
  style="enable-background: new 0 0 767.2 803"
  xml:space="preserve"
>
  <style>
    .cls-2-lemon-mouse-level-five-profile {
      opacity: 0.1;
    }
    .cls-3-lemon-mouse-level-five-profile {
      fill: #fff;
    }
    .cls-4-lemon-mouse-level-five-profile {
      fill: #8f7c5a;
    }
    .cls-5-lemon-mouse-level-five-profile {
      opacity: 0.2;
    }
    .cls-7-lemon-mouse-level-five-profile {
      fill: #fc1b00;
    }
    .cls-12-lemon-mouse-level-five-profile {
      fill: #333;
    }
    .cls-13-lemon-mouse-level-five-profile {
      opacity: 0.15;
    }
    .cls-14-lemon-mouse-level-five-profile {
      fill: #00f800;
    }
    .cls-15-lemon-mouse-level-five-profile {
      opacity: 0.5;
      fill: #fff;
      enable-background: new;
    }
  </style>
  <radialGradient
    id="SVGID_1_lemon-mouse-level-five-profile"
    cx="-522.984"
    cy="385.844"
    r="29.44"
    gradientTransform="matrix(1 0 0 -1 0 1509.368)"
    gradientUnits="userSpaceOnUse"
  >
    <stop offset=".45" style="stop-color: #ff000b" />
    <stop offset="1" style="stop-color: #ffbe00" />
  </radialGradient>
  <path
    d="M-523.3 1164.7c.3-12.8.4-25.7.5-38.5-.9 12.8-1.1 25.6-.5 38.5z"
    style="fill: url(#SVGID_1_lemon-mouse-level-five-profile)"
  />
  <g class="cls-2-lemon-mouse-level-five-profile">
    <path
      class="cls-3-lemon-mouse-level-five-profile"
      d="M51.2 62.6c-4.1.8-10.1 3.4-22.1 8.4-4 1.7-7.7 3.4-7.8 5.9-.1 2.2 2.5 4.7 5.1 5.1s5.2-.5 7.7-1.3c35.7-11.6 74.3-11 109.6 1.8 3.8 1.4 7.6 2.9 11.6 2.8s8.3-2.2 9.5-6.1c1.6-5-3.8-9.9-4.3-10.3-4.2-3.6-9.5-3.8-11.2-3.8-23.6-.7-62-9.8-98.1-2.5z"
    />
  </g>
  <g class="cls-2-lemon-mouse-level-five-profile">
    <path
      class="cls-3-lemon-mouse-level-five-profile"
      d="M179 78.8c-1.9 2.5-1.3 6.1.3 8.4 2.2 3.1 7.2 4.8 10.5 2.3s3.3-7.9.4-10.9-8.8-3-11.2.2z"
    />
  </g>
  <g class="cls-2-lemon-mouse-level-five-profile">
    <path
      class="cls-3-lemon-mouse-level-five-profile"
      d="M140.8 27c-2.4 4.9 1.9 10.6 2.7 11.7.9 1.2 4.6 6.2 7.9 5 2.7-1 3.9-4.2 3.6-7-.3-2.4-1.1-4.2-3.3-7.7-2.4-3.8-3.6-5.7-5.5-5.9-2.2-.2-4.4 2-5.4 3.9z"
    />
  </g>
  <g class="cls-2-lemon-mouse-level-five-profile">
    <path
      class="cls-3-lemon-mouse-level-five-profile"
      d="M389.8 81.9c-1.3-.2-2.7-.1-4 .3l5.3 10.7c3.7 7.4 4.2 8.5 4.4 10.6.5 5.3-2.1 8.2-.4 10 1.4 1.4 4.5 1.2 6.3-.3 1.6-1.3 1.9-3.5 1.6-6.9-.5-7.2-4-23-13.2-24.4z"
    />
  </g>
  <path
    class="cls-4-lemon-mouse-level-five-profile"
    d="m564.3 43.5-2.4 24.9c-.9 9.7 6.2 18.3 15.8 19.2 3.1.3 6.2-.2 9-1.5l22.8-10.3c8.9-4 12.8-14.4 8.8-23.3-1.3-2.8-3.3-5.2-5.8-7L592 30.9c-7.9-5.7-18.9-3.8-24.6 4.1-1.7 2.5-2.8 5.4-3.1 8.5zM670.1 10.6l-9.9 22.9c-3.9 8.9.3 19.3 9.2 23.1 2.8 1.2 5.9 1.7 9 1.3l24.8-2.9c9.7-1.1 16.6-9.8 15.5-19.5-.4-3.1-1.5-6-3.4-8.5L700.4 7c-5.8-7.8-16.8-9.4-24.6-3.7-2.5 2-4.5 4.5-5.7 7.3z"
  />
  <g class="cls-2-lemon-mouse-level-five-profile">
    <path
      class="cls-3-lemon-mouse-level-five-profile"
      d="M572 42.4c-.5.2-1.7.8-2.9 9.6-.8 6.1-1.2 9.2-.4 13.1s1.7 8.7 4.9 9.9c4.2 1.5 8.9-2 10.2-6.3 1.2-3.7.9-6.7-.7-13.2-.8-3.5-1.5-6.1-3.6-8.7-.3-.3-4.6-5.5-7.5-4.4z"
    />
  </g>
  <g class="cls-2-lemon-mouse-level-five-profile">
    <path
      class="cls-3-lemon-mouse-level-five-profile"
      d="M674.9 16.3c-1 .4-4.5 2.2-8.3 12.9-2.3 6.6-4.1 11.6-2 13.4s6.9-.5 8.4-1.2c2.2-1.1 4.2-2.6 5.8-4.3 1.3-1.1 2.4-2.4 3.3-3.9 1.7-2.8 2.5-6 2.2-9.3 0-.7-.5-6.6-4.2-8.1-1.7-.4-3.6-.3-5.2.5z"
    />
  </g>
  <path
    class="cls-4-lemon-mouse-level-five-profile"
    d="M7 70.7C.7 73.9-1.8 81.7 1.4 88c.5 1 1.2 2 2 2.8 56.5 61.8 94.2 138.4 108.8 220.9 1.2 7 7.9 11.7 14.9 10.5 1.9-.3 3.7-1.1 5.2-2.2 46.9-33.7 77.3-87.3 105.5-138.5 9.9-18 20.1-38.5 14.3-58.2-1.1-3.6-4.7-15.2-27.1-34.3-8.1-7-35.2-29-68.9-39.2C96.2 31.5 35 56.4 7 70.7z"
  />
  <path
    class="cls-4-lemon-mouse-level-five-profile"
    d="M29.4 26.1 24 47.4c-2.4 9.4 3.3 19 12.7 21.4 3 .8 6.1.7 9.1-.1l21.2-6c9.4-2.6 14.8-12.3 12.2-21.7-.8-3-2.4-5.7-4.7-7.9L58.8 17.8c-6.9-6.8-18.1-6.7-24.9.3-2.2 2.2-3.7 5-4.5 8zM129.2 15.1l-14 17c-6.2 7.5-5.1 18.6 2.4 24.8 2.4 2 5.3 3.3 8.4 3.8l21.7 3.6c9.6 1.6 18.7-4.9 20.2-14.5.5-3 .2-6.2-.9-9.1L159.3 20c-3.4-9.1-13.6-13.7-22.7-10.3-2.8 1.1-5.4 3-7.4 5.4z"
  />
  <path
    class="cls-4-lemon-mouse-level-five-profile"
    d="M115 218.2c-7.9-23.8-18.5-46.6-31.7-67.9-8.5-13.5-18.1-26.2-28.8-38-2.5-4.9-5.7-10.8-3-15.7 7.3-13.6 54.8-10.6 89.9 9.2 13.7 7.3 25.4 18 33.8 31.1 7.6-4.7 15.8-8.7 23.3-13.7 10.2-6.8 19.6-16.5 21.4-28.6.5-3.5.2-7-.9-10.4-11.9-9.4-35.2-25.9-63-34.4C96.2 31.5 35 56.4 7 70.7.7 73.9-1.8 81.7 1.4 88c.5 1 1.2 2 2 2.8 31.3 34.3 57.1 73.4 76.3 115.8 4.9 10.8 9.2 21.4 12.9 31.7 8.4-4.9 15.9-12 22.4-20.1z"
  />
  <path
    d="M252 123.3c-1.1-3.6-4.7-15.2-27.1-34.3-1.4-1.2-3.4-2.9-5.9-4.9 1.1 3.4 1.4 6.9.9 10.4-1.8 12.2-11.2 21.8-21.4 28.6-7.5 5-15.6 9-23.3 13.7 15.9 24.2 20.8 54.7 16.6 81-4.6 28.9-19.2 47.2-26.2 55.9-1.5 1.8-21.4 25.9-30.4 21.8-2.5-1.1-3.2-4.1-6-16.4-3.6-16.2-5.4-24.4-5.6-26.4-1.1-8.2-4-20.4-8.7-34.6-6.5 8.1-14 15.2-22.5 20.1 8.6 23.9 15.2 48.4 19.7 73.4 1.2 7 7.9 11.7 14.9 10.5 1.9-.3 3.7-1.1 5.2-2.2 46.9-33.7 77.3-87.3 105.5-138.5 10-17.9 20.2-38.4 14.3-58.1z"
    class="cls-5-lemon-mouse-level-five-profile"
  />
  <path
    d="M158.9 118c-5.4-4.7-11.3-8.8-17.6-12.2-35-19.8-82.5-22.8-89.9-9.2-2.6 4.9.5 10.9 3 15.7 10.7 11.8 20.3 24.5 28.8 38 13.2 21.3 23.9 44.1 31.8 67.9 4-5 7.6-10.3 10.9-15.9 12.4-21 22.1-44.8 41.3-59.9 2.6-2 5.3-3.9 8.1-5.6-4.6-6.9-10.1-13.3-16.4-18.8z"
    class="cls-5-lemon-mouse-level-five-profile"
  />
  <path
    d="M125.9 202.3c-3.2 5.5-6.9 10.8-10.8 15.9 4.7 14.2 7.6 26.3 8.7 34.6.3 2.1 2.1 10.2 5.6 26.4 2.7 12.3 3.4 15.2 6 16.4 8.9 4 28.9-20 30.4-21.8 7.1-8.7 21.6-27 26.2-55.9 4.2-26.3-.8-56.8-16.6-81-2.8 1.7-5.5 3.6-8.1 5.6-19.3 15.1-29 38.8-41.4 59.8z"
    style="opacity: 0.5"
  />
  <path
    class="cls-7-lemon-mouse-level-five-profile"
    d="M251.8 122.2c35.4-14.2 68.8-13.8 88.3-12.2-5.5-23.2 13.6-48.9 38-51.3s48.3 19.2 47.7 43c31.8 7.8 90.6 27 145.7 76.7 0 0 83.3 75.3 103.9 182.1 1.6 8.5 5.4 31.1 7.4 59.7 0 0 2.5 37.9 0 71.9C670.2 661 558.6 734 558.6 734c-60.2 39.4-127.6 42.7-162.5 44.3-31.9 1.5-58.6-1.2-77.7-4.1-19.5 26.5-52.8 36.9-80 26.3-30.1-11.7-38.7-43.6-39.5-46.9-20.4-7.2-60.2-24.3-96-63-9.5-10.3-46.2-51.9-58.5-115.9-3.2-16.7-8.3-53.4 26.3-166.4 0 .2 55.4-235.6 181.1-286.1z"
  />
  <path
    d="M259.9 121.2c31.3-12.9 60.8-12.6 78-11.1-4.8-21.1 12-44.6 33.6-46.7s42.7 17.5 42.1 39.2c46.7 15.5 90.3 39.1 128.8 69.9 31.6 25.4 70.7 56.8 89.4 109.8.8 2.2 1.4 4 1.9 5.8 3.9 13.9 8.4 31.2 10.5 52.7 2.3 23.6 1.2 41.9.2 69-1.7 47-1 63.5-1.6 76.8-3.2 64.6-46.9 176-141.4 223.1-44.9 22.4-92.5 25.9-109.5 27-30.9 2-56.9-.9-75.2-4.1-13 29.5-44.2 44-70.3 36-19.3-5.9-33.8-23.7-38-45.3-42.3-23.8-69.3-51.9-84.7-70.6-16.1-19.6-57.8-71.7-60.3-142.4-.9-24.9 3.3-39.2 36.3-128.1-.1-.1 70.3-223.8 160.2-261z"
    style="fill: #fc4401"
  />
  <radialGradient
    id="SVGID_00000041274261551396747970000001166785459034264232_lemon-mouse-level-five-profile"
    cx="512.058"
    cy="938.699"
    r="142.952"
    gradientTransform="matrix(1 0 0 -1 0 1509.368)"
    gradientUnits="userSpaceOnUse"
  >
    <stop offset="0" style="stop-color: #ff000b" />
    <stop offset="1" style="stop-color: #fc1b00; stop-opacity: 0" />
  </radialGradient>
  <path
    style="
      fill: url(#SVGID_00000041274261551396747970000001166785459034264232_lemon-mouse-level-five-profile);
    "
    d="M618.8 660.6c-49 57.3-143.2 74-204 21.3-61.1-53-58.7-150.5-5.3-207.5 54.9-58.6 154.5-64.3 209.8-6 50.2 53.2 44.8 139.3-.5 192.2z"
  />
  <radialGradient
    id="SVGID_00000160883217714507527770000009636983644191412405_lemon-mouse-level-five-profile"
    cx="102.263"
    cy="985.264"
    r="76.476"
    gradientTransform="matrix(1 0 0 -1 0 1509.368)"
    gradientUnits="userSpaceOnUse"
  >
    <stop offset="0" style="stop-color: #ff000b" />
    <stop offset="1" style="stop-color: #fc1b00; stop-opacity: 0" />
  </radialGradient>
  <path
    style="
      fill: url(#SVGID_00000160883217714507527770000009636983644191412405_lemon-mouse-level-five-profile);
    "
    d="M159.4 572.2c-26.2 30.6-76.6 39.6-109.1 11.4-32.7-28.3-31.4-80.5-2.9-111 29.4-31.3 82.7-34.4 112.2-3.2 26.9 28.4 24 74.5-.2 102.8z"
  />
  <radialGradient
    id="SVGID_00000183934883727681845600000012289787073010874006_lemon-mouse-level-five-profile"
    cx="174.055"
    cy="903.602"
    r="63.78"
    gradientTransform="matrix(1 0 0 -1.25 0 1636.41)"
    gradientUnits="userSpaceOnUse"
  >
    <stop offset=".25" style="stop-color: red" />
    <stop offset="1" style="stop-color: red; stop-opacity: 0" />
  </radialGradient>
  <path
    style="
      fill: url(#SVGID_00000183934883727681845600000012289787073010874006_lemon-mouse-level-five-profile);
    "
    d="M212.9 541.3c-15.1 6.4-32.6-1.5-42.4-14.7-10.1-13.5-12.4-32.9-5.4-49 6.8-15.7 22.3-26.1 38-25.7 8.4.2 16.4 3.7 22.2 9.8 8.6 9.3 9.4 21.5 9.8 27.6.1 3 1.9 41.7-22.2 52z"
  />
  <path
    class="cls-12-lemon-mouse-level-five-profile"
    d="M178.2 356.6c-5.5-1.6-12.3 2.8-20.3 8.8-12.5 9.3-18.7 14-19.5 21.5-.9 8.3 4.1 18.2 12 21.1 6.4 2.3 12.2-1 23.4-7.5 10.8-6.2 17.4-10 18.5-16.8 1-6.1-2.5-14.7-4.7-18.4l-.1-.1c-1.5-2.5-4.2-7.2-9.3-8.6zM341.7 374.7c-2.5 1.3-4.7 3.3-6.1 5.8-2.7 4.8-1.4 9.9-.8 11.9 1.4 5.4 4.6 8.7 8.8 13 3.4 3.5 7.3 6.6 11.4 9.2 11.5 7.3 23.2 14.7 35 11.3 4.2-1.1 7.8-3.6 10.5-7 5.5-7.4 3-16.6 2.7-17.5-1.8-6.1-6-9.2-14.1-15.1-5.9-4.3-15.2-10.9-28.8-13.3-11.4-1.9-16.8.7-18.6 1.7z"
  />
  <path
    d="M188 353.5c-9.2-3-18.2 3.1-23.1 6.5-6.7 4.5-15.3 10.4-16.1 20.8-.6 7.8 3.4 17.5 11.1 20.6 7.6 3.1 15.1-1.5 23.2-6.5 6.7-4.1 14.3-8.8 16.5-17.9.4-1.6 2.3-10.5-3.3-17.6-2.1-2.8-5-4.8-8.3-5.9zM330.1 376.5c-1.4 3.7-1.7 7.7-.8 11.6 1.9 10.6 11 17 17 21.2 4.4 3.1 13 9 25.3 9.8 6.9.5 15.8 1.1 21.8-5.2 4.6-5 6.4-13.1 3.8-19.2-1.2-2.6-3-4.8-5.3-6.4-25.1-19-37.9-28-49.7-23.5-.9.5-8.9 3.7-12.1 11.7z"
  />
  <g class="cls-13-lemon-mouse-level-five-profile">
    <path
      class="cls-14-lemon-mouse-level-five-profile"
      d="M156.2 394.4c-1.3.4-2.7.5-4 .3-2.1-.5-2.6-1.6-4.1-1.5-1.5.3-2.6 1.5-2.8 3-.1 1.5.3 3 1.3 4.1 2.8 3.7 8.3 4.5 12.7 3s8-4.7 11.5-7.9c1-.8 1.9-1.9 2.5-3 .6-1.2.5-2.7-.4-3.7-1.2-1.3-3.6-.5-4-.4-1.6.5-2 1.4-3.4 2.6-2.7 2.2-5.7 2.8-9.3 3.5z"
    />
  </g>
  <path
    class="cls-15-lemon-mouse-level-five-profile"
    d="M190.4 369.1c0 4-3.3 7.3-7.3 7.3s-7.3-3.3-7.3-7.3 3.3-7.3 7.3-7.3 7.3 3.2 7.3 7.3z"
  />
  <circle
    class="cls-3-lemon-mouse-level-five-profile"
    cx="183.1"
    cy="367.9"
    r="4.4"
  />
  <circle
    class="cls-15-lemon-mouse-level-five-profile"
    cx="350.1"
    cy="383.7"
    r="7.3"
  />
  <circle
    class="cls-3-lemon-mouse-level-five-profile"
    cx="350.1"
    cy="382.5"
    r="4.4"
  />
  <g class="cls-13-lemon-mouse-level-five-profile">
    <path
      class="cls-14-lemon-mouse-level-five-profile"
      d="M378.5 393.2c-.1 2.5 4.8 3.1 9.5 7.7 2.2 2.1 4.7 4.3 4.3 7.1-.4 2.6-3.2 4.8-2.5 7.4.5 1.5 2 2.5 3.6 2.3 1.6-.2 3-1 3.9-2.3 2.2-2.8 2.2-6.8.8-10-1.2-2.8-3-4.5-6.8-7.9s-9.1-7.8-11.7-6.3c-.6.5-1.1 1.2-1.1 2z"
    />
  </g>
  <path
    class="cls-7-lemon-mouse-level-five-profile"
    d="M503.8 142.3c-22.2-6-30.3.1-32.7 2.1-11.2 9.8-7 31.4-6.1 34.9 3.3 11.9 10.4 22.2 17.4 32.3 26 37.6 52 75.3 78.1 112.9 11.3 16.3 23.4 33.3 41.2 42 17 8.3 42.8 2.7 52.4-12.1 8.2-12.5 3-29.3-1.9-42.7C625.9 240.2 566 159 503.8 142.3z"
  />
  <path
    class="cls-4-lemon-mouse-level-five-profile"
    d="M495.6 141.7c7.1-19.4 22.2-31.7 92.5-69.6 29.4-15.9 45.3-21.5 56.7-24 64.6-13.9 123.6 17.5 122.4 24.6-.6 3.7-16.9-.3-34.2 11.8-7.2 5.2-13.1 11.9-17.4 19.6-21.9 37.5-5.3 107.7-32.7 164.7-12.3 25.5-38.9 59.6-65.8 57.4-24.8-2.1-42.1-24.7-56.1-45.4-25.1-37-19-36.1-50.2-74.1-6.9-8.4-16.6-19.5-18.8-36.5-1.1-9.7.1-19.5 3.6-28.5z"
  />
  <path
    d="M539.7 198.6c-3.5-18.4 14.3-29.1 83.9-95.5 12.2-11.6 21.3-20.5 37-24.8 26.5-7.2 54.4 3.5 54.1 7-.2 1.9-9 .2-17.1 4.2-19 9.3-17.9 41.9-20.8 73.5-6.1 66.9-31.4 141.8-53.7 142.1-1.3 0-2.7-.2-3.9-.7-6.3-2.4-10.9-11.4-31-38.5-11.4-15.4-10.8-11.3-31.8-41-10.7-15.4-16.1-23.1-16.7-26.3z"
    class="cls-5-lemon-mouse-level-five-profile"
  />
  <path
    d="M539.9 199.3c.8 2.6 3.9 7.2 9.2 15-1.7-4.4-4.1-8.5-6.9-12.2-1-1.1-1.7-2-2.3-2.8z"
    class="cls-5-lemon-mouse-level-five-profile"
  />
  <path
    d="M575.1 217c5.9-4.6 9.8-11.2 13.6-17.6 0 0 9.5-23.9 42.8-73.9 10.4-15.6 30.1-34.4 71.3-46.3-10.6-3.1-26.7-5.1-42.3-.8s-24.8 13.2-37 24.8c-69.7 66.5-87.4 77.1-83.9 95.5 0 .2.1.5.2.7.6.7 1.4 1.6 2.3 2.8 2.9 3.7 5.2 7.8 6.9 12.2 1.4 2 3 4.2 4.7 6.6.1.1.3.1.4.2 7 2.8 15.2.4 21-4.2z"
    class="cls-5-lemon-mouse-level-five-profile"
  />
  <path
    class="cls-7-lemon-mouse-level-five-profile"
    d="M349.4 99c3.9-1.1 6.8 7.9 15.7 12 6.1 2.8 12.5 2.2 16.6 1.3-2.4 4-4.9 8.1-8.4 11.3s-8.2 5.3-12.8 4.6c-8-1.2-11.9-9.5-13.2-12.1-1.1-2.3-1.8-4.8-1.8-7.3 0-3.2 1-8.9 3.9-9.8z"
  />
  <g class="cls-2-lemon-mouse-level-five-profile">
    <path
      class="cls-3-lemon-mouse-level-five-profile"
      d="M544 111.4c-15 9.2-17 7.6-22.8 13-8.9 8.3-14.9 22.3-11.7 25.3 4.6 4.3 25.3-16.8 42.7-22.8 3.2-1 6.1-3 8.1-5.8.4-.6 3.7-5.6 1.6-9.3-2.4-4.2-9.9-3.2-11.3-2.9-2.4.4-4.6 1.2-6.6 2.5z"
    />
  </g>
  <g class="cls-5-lemon-mouse-level-five-profile">
    <path
      class="cls-3-lemon-mouse-level-five-profile"
      d="M314.2 142.8c-13.6-10.8-51.4 8.1-73.9 32.8-2.2 2.4-.2.4-32.3 57l-16.7 42.1c-2.7 6.7-5.3 14.5-1.8 20.8 5.1 9.2 19.9 7.7 27.2 0s9.4-18.7 12.5-28.8c9.4-30.7 34.6-59.6 59-73.3 13.8-7.8 23.6-8.9 29-19.8 4.7-9.8 4.6-24.8-3-30.8z"
    />
  </g>
  <g class="cls-5-lemon-mouse-level-five-profile">
    <path
      class="cls-3-lemon-mouse-level-five-profile"
      d="M351.8 167.1c-4.6 1.7-10.6-1.9-13-6.8-1.7-3.6-2.2-9.4 1.8-13.1 4-3.5 9.8-3.7 14-.4 5.1 4 4 11.5 2.1 15.3-.7 1.2-2 3.9-4.9 5z"
    />
  </g>
  <g class="cls-5-lemon-mouse-level-five-profile">
    <path
      class="cls-3-lemon-mouse-level-five-profile"
      d="M513.4 530.3c-10.2 10.3-28.4 10.7-41.1 3.8-19.5-10.7-19.7-35.4-19.7-39.7s-.2-22.1 13.1-33.6c2.3-2 11.8-10.2 24.1-8.5 11.5 1.6 18.1 10.9 22.6 17.1 12.2 17.1 10 35.8 9.3 40-1.1 7-2.2 14.7-8.3 20.9z"
    />
  </g>
  <g class="cls-5-lemon-mouse-level-five-profile">
    <path
      class="cls-3-lemon-mouse-level-five-profile"
      d="M528.3 532.8c-6.5 5.2-8.8 16.3-2.7 22.8s17.6 5.6 23.2-1.5c5.9-7.3 3.5-19-3.9-23.2-5.4-3-12.2-1.6-16.6 1.9z"
    />
  </g>
  <path
    class="cls-3-lemon-mouse-level-five-profile"
    d="M182.7 510.1c-3.1 2.3-7.4 1.6-9.7-1.5l-.6-.9c-1.4-3.6.4-7.7 3.9-9.1l.9-.3c3.9-.5 7.5 2.2 8 6.1 0 .2.1.5.1.7-.3 4-3.8 7-7.8 6.7-.2 0-.4 0-.6-.1"
  />
  <g class="cls-5-lemon-mouse-level-five-profile">
    <path
      class="cls-3-lemon-mouse-level-five-profile"
      d="M101.2 521.7c-3.5 3.9-9.2 6.6-15 5.3-7.5-1.7-10.5-9-11.8-12.1-2.5-5.6-3.4-12.5.1-17.5 5.1-7.1 17.2-2.9 18-2.6 2 .7 9.5 3.3 12 11.1 1.7 5.5.4 11.5-3.3 15.8z"
    />
  </g>
  <g class="cls-5-lemon-mouse-level-five-profile">
    <path
      class="cls-3-lemon-mouse-level-five-profile"
      d="M94.3 480.5c-1.3.1-2.7-.3-3.7-1.1-2.6-2-3.5-6.9-.9-9.2s7.6-1.2 9.1 2.1-1.4 7.7-4.5 8.2z"
    />
  </g>
  <g class="cls-13-lemon-mouse-level-five-profile">
    <path
      class="cls-3-lemon-mouse-level-five-profile"
      d="M504.8 527.9c-5.2 5.2-14.5 5.5-21 1.9-10-5.4-10.1-18.1-10.1-20.3s-.1-11.3 6.7-17.2c1.2-1 6-5.2 12.3-4.4 5.9.8 9.2 5.6 11.5 8.8 4.1 6 5.8 13.3 4.8 20.4-.5 3.7-1 7.6-4.2 10.8z"
    />
  </g>
  <radialGradient
    id="SVGID_00000072982231549395903950000001946649996658536333_lemon-mouse-level-five-profile"
    cx="196.935"
    cy="959.049"
    r="53.9"
    gradientTransform="matrix(1 0 0 -1 0 1509.368)"
    gradientUnits="userSpaceOnUse"
  >
    <stop offset=".02" style="stop-color: #7b0022" />
    <stop offset="1" style="stop-color: red; stop-opacity: 0" />
  </radialGradient>
  <path
    style="
      fill: url(#SVGID_00000072982231549395903950000001946649996658536333_lemon-mouse-level-five-profile);
    "
    d="M201.2 530.4c-4.6-1-4.7-3.1-11.5-8.4-3.8-2.9-8.8-5.1-13.2-3.3-5 2.1-6.7 8.8-4.7 13.8s6.8 8.4 11.7 10.4c16.3 6.7 35.1 1.6 45.6-12.6 1.8-2.5 3.3-5.9 1.6-8.4-1.2-1.7-4.1-2-6-1.6-2.8.5-4.4 2.4-5.5 3.6-4.7 4.7-12.6 7.6-18 6.5z"
  />
  <path
    d="M157 499.5c-.1 14.6 6.6 28.5 18.1 37.6 6.1 4.8 13.4 7.9 21.1 8.9 10.2 1.1 20.5-2.2 28.1-9.1 4.7-4.2 8.4-9.4 10.8-15.3.8-1.8-2.2-2.6-3-.8-.2.4.1-.3-.1.3-.2.4-.3.7-.5 1.1-.5 1-1 1.9-1.5 2.8-1.6 2.8-3.5 5.3-5.8 7.6-6.4 6.8-15.3 10.6-24.7 10.5-7.9-.1-15.5-3.3-21.8-7.9-1-.7-1.4-1-2.4-1.8-1.9-1.6-3.7-3.3-5.3-5.2-2.8-3.4-5.1-7.3-6.7-11.4-2.2-5.5-3.3-11.3-3.4-17.2-.1-.9-.8-1.5-1.7-1.4-.5-.1-1.1.5-1.2 1.3z"
  />
  <g class="cls-2-lemon-mouse-level-five-profile">
    <path
      class="cls-3-lemon-mouse-level-five-profile"
      d="M50.4 22.9c-.6-.1-3.5-.4-4.9 1.3-3.4 3.9 3.1 16.4 11.8 23.8 2.1 1.8 10.2 8.8 14.3 6.1 2.8-1.9 3.1-7.7 1.2-11.6-1.7-3.6-4.3-3.7-10.1-8-7.3-5.4-7.4-11-12.3-11.6z"
    />
  </g>
  <g class="cls-2-lemon-mouse-level-five-profile">
    <path
      class="cls-3-lemon-mouse-level-five-profile"
      d="M141.8 22.1c-3 4.9-3.8 10.8-2.1 16.2 1.6 5 6.3 12.6 11.1 11.6 3.7-.8 6.1-4.5 6.5-8.3.4-3.5-.1-6-2-11-2.1-5.8-4.8-13.2-8.5-13.2-2.1.2-3.7 2.7-5 4.7z"
    />
  </g>
  <g class="cls-2-lemon-mouse-level-five-profile">
    <path
      class="cls-3-lemon-mouse-level-five-profile"
      d="M144 67.4c-15.2-.5-22.7-.7-23.1.9-.2.9 1.1 2.6 50.6 19.1 14.1 4.7 21 6.9 22.8 4.3 2.1-3-3.3-11.9-10.4-17.3-3.2-2.5-9.3-6-39.9-7z"
    />
  </g>
  <path
    d="M224.1 640.1c-8-2-12.6-6.4-14.4-8.2-10.6-10.3-12.7-28.5.3-38.6 1.9-1.5 10.8-8 24.2-6.9 12.5 1 20.1 7.9 22 9.6 10.3 10 6.6 21.9 5.7 25-1 3.4-3.9 12.5-15.3 17.3-3 1.2-12 4.5-22.5 1.8z"
    style="fill: #070707"
  />
  <path
    class="cls-3-lemon-mouse-level-five-profile"
    d="M243.6 593.1c.2.3.4.5.6.8 1.2 1.7 2.3 3.4 3.3 5.1 1.2 2 3.9 2.3 5.5.6l2.8-2.8.6-.6-.2-.2c-1.3-1.3-5.4-5-12.1-7.5-1.2 1.2-1.6 3-.5 4.6zM214.4 598.5c.8-1.2 1.6-2.4 2.5-3.7.4-.6.8-1.1 1.2-1.6 1.2-1.5 1.1-3.3.2-4.5-4.4 1.7-7.3 3.8-8.3 4.6-1.5 1.2-2.8 2.5-4 3.9.8.8 1.5 1.5 2.2 2.3 1.7 1.7 4.7 1.2 6.2-1z"
  />
</svg>
