<?xml version="1.0" encoding="utf-8"?>
<!-- Generator: Adobe Illustrator 25.4.1, SVG Export Plug-In . SVG Version: 6.00 Build 0)  -->
<svg version="1.1" id="banana-profile-level-two" xmlns="http://www.w3.org/2000/svg" xmlns:xlink="http://www.w3.org/1999/xlink" x="0px"
	 y="0px" viewBox="0 0 993.6 707" style="enable-background:new 0 0 993.6 707;" xml:space="preserve">
<style type="text/css">
	.cls-1-banana-elephant-level-two{fill:#FDD301;}
	.cls-2-banana-elephant-level-two{fill:url(#SVGID_1_banana-elephant-level-two);}
	.cls-3-banana-elephant-level-two{fill:url(#SVGID_00000020397642227798754080000009878434810812611746_banana-elephant-level-two);}
	.cls-4-banana-elephant-level-two{fill:#FFFFFF;}
	.cls-5-banana-elephant-level-two{fill:#FD0300;}
</style>
<path class="cls-1-banana-elephant-level-two" d="M870.8,296.5c8.2-19.2,12.5-39.9,12.6-60.9c0-130.2-166.9-235.7-372.8-235.7S137.7,105.5,137.7,235.6
	c0,16.6,2.7,33.1,8,48.8C57.1,327.5,0,395.2,0,471.3C0,601.5,166.9,707,372.8,707c41.7,0.1,83.3-4.4,124-13.4
	c40.7,9,82.3,13.4,124,13.4c205.9,0,372.8-105.5,372.8-235.7C993.6,402,946.2,339.6,870.8,296.5z"/>
<radialGradient id="SVGID_1_banana-elephant-level-two" cx="297.99" cy="247.32" r="107.22" gradientTransform="matrix(1 0 0 -1 0 708)" gradientUnits="userSpaceOnUse">
	<stop  offset="0" style="stop-color:#FD3400;stop-opacity:0.6"/>
	<stop  offset="1" style="stop-color:#FD3700;stop-opacity:0"/>
</radialGradient>
<circle class="cls-2-banana-elephant-level-two" cx="298" cy="460.7" r="107.2"/>
<radialGradient id="SVGID_00000132794318728005629590000012436803173477113742_banana-elephant-level-two" cx="676.02" cy="247.32" r="107.22" gradientTransform="matrix(1 0 0 -1 0 708)" gradientUnits="userSpaceOnUse">
	<stop  offset="0" style="stop-color:#FD3400;stop-opacity:0.6"/>
	<stop  offset="1" style="stop-color:#FD3700;stop-opacity:0"/>
</radialGradient>
<circle style="fill:url(#SVGID_00000132794318728005629590000012436803173477113742_banana-elephant-level-two);" cx="676" cy="460.7" r="107.2"/>
<circle class="cls-4-banana-elephant-level-two" cx="441.1" cy="426" r="21.7"/>
<circle class="cls-4-banana-elephant-level-two" cx="507.5" cy="426" r="21.7"/>
<path d="M395.1,418.1c-3,0-5.5-2.5-5.5-5.5c0-1.1,0.3-2.2,0.9-3.1c6.4-9,14.2-17,23-23.6c18-13.7,39-20.9,60.6-20.9h0.1
	c21.2,0,40.9,6.6,58.8,19.6c8.8,6.3,16.5,13.9,23,22.5c1.7,2.5,1.1,5.9-1.4,7.6c-2.4,1.7-5.7,1.1-7.5-1.2
	c-2.7-3.8-28.3-37.5-72.9-37.5h-0.1c-19.5,0-37.6,6.3-54,18.7c-7.9,5.9-14.8,13-20.6,21C398.6,417.2,396.9,418.1,395.1,418.1z"/>
<path class="cls-5-banana-elephant-level-two" d="M460.2,460.7h32.8c8.1,0,14.6,6.5,14.6,14.6l0,0c0,8.1-6.5,14.6-14.6,14.6h-32.8c-8.1,0-14.6-6.5-14.6-14.6l0,0
	C445.6,467.2,452.1,460.7,460.2,460.7z"/>
<path class="cls-5-banana-elephant-level-two" d="M460.2,493h32.8c8.1,0,14.6,6.5,14.6,14.6v0c0,8.1-6.5,14.6-14.6,14.6h-32.8c-8.1,0-14.6-6.5-14.6-14.6v0
	C445.6,499.6,452.1,493,460.2,493z"/>
<circle cx="441.1" cy="428.1" r="11.5"/>
<ellipse transform="matrix(0.1602 -0.9871 0.9871 0.1602 3.6029 860.5347)" cx="507.5" cy="428.1" rx="11.5" ry="11.5"/>
</svg>
