<svg
  version="1.1"
  id="blueberry-octo-profile-level-four"
  xmlns="http://www.w3.org/2000/svg"
  xmlns:xlink="http://www.w3.org/1999/xlink"
  x="0px"
  y="0px"
  viewBox="0 0 945 1213.9"
  style="enable-background: new 0 0 945 1213.9"
  xml:space="preserve"
>
  <style type="text/css">
    .st0-blueberry-octo-level-four {
      fill: url(#SVGID_1_blueberry-octo-profile-level-four);
    }
    .st1-blueberry-octo-level-four {
      opacity: 0.2;
    }
    .st2-blueberry-octo-level-four {
      fill: #00ace7;
    }
    .st3-blueberry-octo-level-four {
      fill: url(#SVGID_00000118359887341069059460000005850580012415393205_blueberry-octo-profile-level-four);
    }
    .st4-blueberry-octo-level-four {
      fill: url(#SVGID_00000134950547533600233100000017525069569242817434_blueberry-octo-profile-level-four);
    }
    .st5-blueberry-octo-level-four {
      fill: #ffffff;
    }
    .st6-blueberry-octo-level-four {
      fill: #070707;
    }
    .st7-blueberry-octo-level-four {
      fill: #130093;
    }
    .st8-blueberry-octo-level-four {
      fill: #1600cb;
    }
    .st9-blueberry-octo-level-four {
      fill: #100449;
    }
  </style>
  <linearGradient
    id="SVGID_1_blueberry-octo-profile-level-four"
    gradientUnits="userSpaceOnUse"
    x1="472.5042"
    y1="1843.05"
    x2="472.5042"
    y2="913.22"
    gradientTransform="matrix(1 0 0 -1 0 1750)"
  >
    <stop offset="0.1" style="stop-color: #1600cb" />
    <stop offset="0.81" style="stop-color: #2501fd" />
  </linearGradient>
  <path
    class="st0-blueberry-octo-level-four"
    d="M862,451.3c28.9-19,50.3-47.4,60.6-80.3c5.7-18.5,4.8-27.3,5.9-60.2c1.5-41.4,7-82.6,16.6-122.9
	c-11.6,4.5-23.7,7.5-36,9c-47.9,5.7-71-15.8-115.1-19c-10.8-0.8-49.1-3.1-86.7,18.3C660,223,630.1,278,630.7,326.6v0.2
	c-14.7-5.7-29.6-10.6-44.8-14.8c-5.3-1.5-8.4-7-6.9-12.3c0.4-1.3,1-2.6,1.9-3.7c11.9-14.7,20.9-31.6,26.6-49.7
	c0,0,6.3-13.4,6.7-44.2c0.4-39-47.5-120.7-137.1-203.3c-104.1,80.4-161.9,164-161.5,203.3c0.3,30.7,6.7,44.2,6.7,44.2
	c5.6,18.2,14.6,35.1,26.6,49.8c3.5,4.2,2.9,10.5-1.3,13.9c-1.1,0.9-2.3,1.5-3.7,1.9c-12.6,3.4-24.9,7.4-37,11.8
	c-3,1.1-6.4-0.4-7.5-3.5c-0.2-0.6-0.4-1.3-0.4-2c0-82.4-66.8-149.3-149.3-149.3c-0.4,0-0.7,0-1.1,0c-14.5,0.1-10.9,4.1-41.7,6.2
	C65.6,178,31.4,168.9,9,160.9c-8.9,69.3-9.6,121.8-8.7,156.5c0.6,21.4,2.6,32.1,6.7,45.3c10.6,34.1,33.1,63.2,63.3,82.1
	C89.1,456.6,94.8,481.2,83,500c-0.2,0.3-0.4,0.7-0.7,1C19.8,594.9-8.9,713.2,13.2,838.5c30,169.9,194.4,335.9,364.1,367.3
	c292,53.9,546.5-168.8,546.5-450.9c0.1-88.2-25.3-174.6-73.1-248.6C838.8,487.9,843.8,463.5,862,451.3z"
  />
  <g class="st1-blueberry-octo-level-four">
    <path
      d="M508.6,251.1c-2.6,11.4-5.5,24,0.3,34.1c5.2,9.1,16.1,13.2,26.4,15.2c14.5,2.8,29.5,2.7,44-0.3c0.4-1.5,1-2.8,2-4
		c11.9-14.7,21-31.6,26.6-49.7c0,0,6.3-13.4,6.7-44.2c0.4-38.8-47.1-120-136-202.4C516.6,76.8,527.6,167.2,508.6,251.1z"
    />
    <path
      d="M90.5,239c17.4,7.4,35.8,11.7,53.4,18.6c19.9,7.7,33.8,16.9,45.6,32c22.4,28.8,11.1,56,28,63.8c6.3,2.9,12.6,1.3,54-18
		c10.6-5,20.3-9.5,28.8-13.7c-0.7-1-1.1-2.2-1.1-3.4c0-82.4-66.9-149.3-149.3-149.3c-0.4,0-0.7,0-1.1,0c-14.5,0.1-10.9,4.1-41.7,6.2
		c-41.3,2.8-75.5-6.3-97.9-14.3c-0.2,1.2-0.3,2.4-0.4,3.6C26.9,197.4,55.9,224.3,90.5,239z"
    />
    <path
      d="M862.3,451.3c28.9-19,50.3-47.4,60.6-80.3c5.8-18.5,4.8-27.3,5.9-60.2c1.4-40.9,6.9-81.5,16.2-121.3
		c-34,88.4-78.1,144.4-113.5,179.9c-50.7,50.9-98.2,74.4-109,130.8c-7.4,38.8,8.8,61.8,26.9,113.2C787.7,722,796.8,838.8,775.7,952
		c-8.8,46.7-20.8,100.3-62.9,152.8c-46.3,57.7-107.7,86-156.8,100.1c210-42.2,368.1-227.6,368.1-450c0.1-88.2-25.3-174.6-73.1-248.6
		C839.1,487.9,844.2,463.5,862.3,451.3z"
    />
  </g>
  <path
    class="st2-blueberry-octo-level-four"
    d="M94,474.1c1.4-1.9,2.8-3.8,4.2-5.7l2.2-2.9l0.5-0.7l0.4-0.5l-0.7,0.9c0.4-0.5,0.8-1,1.2-1.5
	c3.4-4.4,6.9-8.7,10.5-12.9c8.3-9.7,17.1-19.1,26.3-28c5.2-5,10.4-9.8,15.9-14.5c2.9-2.5,5.8-4.9,8.7-7.4c1.5-1.2,3-2.4,4.5-3.6
	l2.3-1.8l1.1-0.8c0.6-0.5-0.7,0.5-0.6,0.5l0.7-0.5c25.4-19.5,53.1-35.8,82.4-48.7c1.6-0.7,3.2-1.3,4.8-2l-1.8,0.8
	c12.1-5.1,24.4-9.6,37-13.5c3-0.9,6-1.8,9-2.7c3.8-1.1,6.5-5.4,5.2-9.2c-1.2-3.9-5.2-6.3-9.2-5.2c-14.6,4.1-29,9.1-43,14.9
	c-38.2,15.5-73.7,36.9-105.3,63.3c-13.6,11.3-26.5,23.6-38.5,36.6c-9.9,10.9-19.3,22.2-28,34.1l-2.6,3.5c-1,1.7-1.3,3.8-0.8,5.8
	c1.1,4,5.2,6.3,9.2,5.2C91.4,477,93,475.8,94,474.1L94,474.1z"
  />
  <path
    class="st2-blueberry-octo-level-four"
    d="M352.5,308.6c14.7-4.1,29.5-7.5,44.5-10c4.9-0.8,9.8-1.6,14.8-2.2l-2,0.3c29.7-4,59.7-4.9,89.6-2.6
	c8.2,0.6,16.3,1.5,24.5,2.6l-2-0.3c15,2,30,4.9,44.7,8.5c3.7,0.9,7.3,1.8,10.9,2.8c3.8,1,8.3-1.3,9.2-5.2c1-4-1.3-8.1-5.2-9.2
	c-13.2-3.6-26.6-6.6-40.1-8.9c-16.7-2.9-33.5-4.8-50.4-5.8c-17.7-1-35.4-0.9-53,0.3c-16,1.1-31.9,3-47.6,5.8
	c-12.7,2.3-25.3,5.1-37.8,8.4l-4.1,1.1c-3.8,1.1-6.5,5.4-5.2,9.2C344.4,307.3,348.5,309.6,352.5,308.6L352.5,308.6z"
  />
  <path
    class="st2-blueberry-octo-level-four"
    d="M628.5,331.9c7.6,0.3,15.1,1,22.6,2l-2-0.3c16.3,2.2,32.4,6,48,11.3c5.3,1.8,10.6,3.8,15.7,6l-1.8-0.8
	c13.4,5.7,26.4,12.5,38.6,20.5c3.3,2.2,6.5,4.4,9.7,6.7c1.6,1.2,3.2,2.4,4.8,3.5c1.1,0.8-1.2-0.9-0.1-0.1l1.1,0.8l2.3,1.8
	c5.6,4.5,11,9.3,16.2,14.3c4.8,4.7,9.5,9.5,13.9,14.6c2.1,2.4,4.2,4.9,6.2,7.4c1,1.2,1.9,2.4,2.9,3.6c0.1,0.1,0.2,0.3,0.3,0.4
	s-1.1-1.4-0.6-0.8l0.7,0.9c0.5,0.6,0.9,1.2,1.4,1.9c11.5,15.3,21.1,31.9,28.7,49.5c0.3,0.8,0.7,1.5,1,2.3l-0.8-1.8
	c0.7,1.5,1.3,3.1,1.9,4.6c0.6,1.9,1.8,3.4,3.4,4.5c1.8,1,3.8,1.3,5.8,0.8c1.9-0.5,3.5-1.8,4.5-3.5c0.9-1.7,1.5-3.9,0.8-5.8
	c-5.1-13-11.3-25.5-18.5-37.5c-10.6-17.7-23.4-34-38-48.7c-17.9-17.9-38.4-33-60.8-44.7c-19.3-10.1-39.8-17.6-61.1-22.4
	c-14.3-3.3-28.9-5.3-43.6-6.2c-1.1-0.1-2.2-0.1-3.3-0.1c-4.1,0-7.5,3.4-7.5,7.5C621.1,328.5,624.4,331.8,628.5,331.9L628.5,331.9z"
  />
  <radialGradient
    id="SVGID_00000105416481590400045070000002920506780211539842_"
    cx="252.0205"
    cy="805.739"
    r="107.4735"
    gradientTransform="matrix(1 0 0 -1 0 1750)"
    gradientUnits="userSpaceOnUse"
  >
    <stop offset="0" style="stop-color: #d20c2b" />
    <stop offset="1" style="stop-color: #d20c2b; stop-opacity: 0" />
  </radialGradient>
  <path
    style="
      fill: url(#SVGID_00000105416481590400045070000002920506780211539842_);
    "
    d="M226.7,838.7
	c-49.5,11.6-86.4,62.4-82.4,113.1s48.3,95,99,99.1c65.3,5.4,126.5-60.9,115.5-125.5s-91-107-150.5-79.5"
  />
  <radialGradient
    id="SVGID_00000110430000600642566820000018274715332438755514_"
    cx="682.04"
    cy="805.7341"
    r="99.9147"
    gradientTransform="matrix(1 0 0 -1 0 1750)"
    gradientUnits="userSpaceOnUse"
  >
    <stop offset="0" style="stop-color: #d20c2b" />
    <stop offset="1" style="stop-color: #d20c2b; stop-opacity: 0" />
  </radialGradient>
  <path
    style="
      fill: url(#SVGID_00000110430000600642566820000018274715332438755514_);
    "
    d="M658.5,846.1c-46,10.8-80.3,58-76.6,105.1
	s44.9,88.3,92,92.2c60.7,5,117.6-56.6,107.4-116.7s-84.6-99.5-139.9-73.9"
  />
  <circle class="st5-blueberry-octo-level-four" cx="295" cy="796.9" r="72" />
  <circle class="st5-blueberry-octo-level-four" cx="628" cy="796.9" r="72" />
  <circle class="st6-blueberry-octo-level-four" cx="640" cy="814.9" r="47" />
  <circle class="st6-blueberry-octo-level-four" cx="308" cy="810.9" r="47" />
  <path
    class="st7-blueberry-octo-level-four"
    d="M187.8,645.1c-28.9,18-32.6,22.6-33.4,28.3c-1,6.7,1.9,15.3,8.7,18.5c1.6,0.8,8.1,5.3,21.6-2.7l45.4-26.7
	c5.2-3.1,10.5-6.2,14.2-10.7c1.1-1.4,5.9-8.8,2.5-15.4c-4-7.7-16.3-8.9-18-9.1C221,626.5,214.2,628.7,187.8,645.1z"
  />
  <path
    class="st8-blueberry-octo-level-four"
    d="M185,641.4c-26.5,16.4-29.8,20.7-30.5,25.9c-0.9,6.2,1.7,14,7.9,16.9c1.5,0.7,7.4,4.8,19.8-2.5l41.6-24.4
	c4.8-2.8,9.6-5.7,13-9.8c1-1.3,5.3-8.1,2.2-14.1c-3.6-7-14.9-8.2-16.4-8.3C215.3,624.4,209.1,626.4,185,641.4z"
  />
  <path
    class="st7-blueberry-octo-level-four"
    d="M725.4,645.1c28.9,18,32.6,22.6,33.4,28.3c1,6.7-1.9,15.3-8.7,18.5c-1.6,0.8-8.1,5.3-21.6-2.7l-45.4-26.7
	c-5.2-3.1-10.5-6.2-14.2-10.7c-1.1-1.4-5.8-8.8-2.4-15.4c4-7.7,16.3-8.9,18-9.1C692.3,626.5,699,628.7,725.4,645.1z"
  />
  <path
    class="st8-blueberry-octo-level-four"
    d="M728.3,641.4c26.5,16.4,29.8,20.7,30.5,25.9c0.9,6.2-1.7,14-7.9,16.9c-1.5,0.7-7.4,4.8-19.8-2.5l-41.5-24.4
	c-4.8-2.8-9.6-5.7-13-9.8c-1-1.3-5.3-8.1-2.2-14.1c3.6-7,14.9-8.2,16.4-8.3C698,624.4,704.1,626.4,728.3,641.4z"
  />
  <path
    class="st5-blueberry-octo-level-four"
    d="M513.8,1023.8c-7.1-5-9.6-12.8-14.3-28.3c-3.1-10.1-3.1-13.3-1.3-15.8c2.2-3.1,6.3-4.3,10.1-4.6
	c10.7-0.7,24.7,6.6,28.8,19.7c4.3,13.8-2.7,30.9-12,32.8C520.7,1028.6,516.7,1025.8,513.8,1023.8z"
  />
  <path
    class="st5-blueberry-octo-level-four"
    d="M438.6,1023.8c7.1-5,9.6-12.8,14.3-28.3c3.1-10.1,3.1-13.3,1.3-15.8c-2.2-3.1-6.3-4.3-10.1-4.6
	c-10.7-0.7-24.7,6.6-28.8,19.7c-4.3,13.8,2.7,30.9,12,32.8C431.7,1028.6,435.8,1025.8,438.6,1023.8z"
  />
  <path
    class="st9-blueberry-octo-level-four"
    d="M466,844.9c-67.9,0-123,55.1-123,123s55.1,123,123,123s123-55.1,123-123l0,0C589,899.9,533.9,844.9,466,844.9z
	 M466,1029.4c-34,0-61.5-27.5-61.5-61.5s27.5-61.5,61.5-61.5s61.5,27.5,61.5,61.5l0,0C527.5,1001.8,500,1029.4,466,1029.4z"
  />
  <path
    class="st7-blueberry-octo-level-four"
    d="M479,844.9c-65.7,0-119,53.3-119,119s53.3,119,119,119s119-53.3,119-119l0,0C598,898.1,544.7,844.9,479,844.9z
	 M479,1023.4c-32.9,0-59.5-26.6-59.5-59.5s26.6-59.5,59.5-59.5s59.5,26.6,59.5,59.5l0,0C538.5,996.7,511.9,1023.4,479,1023.4z"
  />
</svg>
