<svg version="1.1" id="green-profile-level-one" xmlns="http://www.w3.org/2000/svg" xmlns:xlink="http://www.w3.org/1999/xlink" x="0px" y="0px" viewBox="0 0 669 669.2" style="enable-background:new 0 0 669 669.2;" xml:space="preserve">
<defs>
<style>
.cls-1-avocado-snowman-level-one{fill:#00DA2C;}
.cls-2-avocado-snowman-level-one{fill:#00FF50;}
.cls-3-avocado-snowman-level-one{fill:#070707;}
.cls-4-avocado-snowman-level-one{fill:#FFFFFF;}
</style>
</defs>
<path class="cls-1-avocado-snowman-level-one" d="M399.7,51.7c61.1-0.1,121.1,16.6,173.3,48.3C510.2,36,424.2,0,334.5,0.1C149.8,0.1,0,149.9,0,334.6c0,121.3,64.6,227.5,161.2,286.2c-61.6-62.5-96.1-146.8-96-234.5C65.2,201.5,215,51.7,399.7,51.7z"/>
<path class="cls-2-avocado-snowman-level-one" d="M669,334.6c0.1-87.8-34.4-172-96-234.5c-52.2-31.7-112.2-48.4-173.3-48.3C215,51.7,65.2,201.5,65.2,386.2c-0.1,87.8,34.4,172,96,234.5c52.2,31.7,112.2,48.4,173.3,48.3C519.2,669.1,669,519.3,669,334.6z"/>
<ellipse class="cls-3-avocado-snowman-level-one" cx="369.9" cy="426.3" rx="10.2" ry="11.1"/>
<ellipse class="cls-3-avocado-snowman-level-one" cx="439.5" cy="425.4" rx="10.2" ry="11.1"/>
<path class="cls-4-avocado-snowman-level-one" d="M495,469.5c-0.6,0.5-13.2-11.2-20.1-29.4c-2.8-7.5-2.4-10.2-1.2-12c3-4.8,10.2-3.8,15.7-2.2c5.3,1.5,10.7,3.1,15.2,6.3s8,8.2,7.9,13.8c-0.3,4.8-2.8,9.2-6.9,11.8c-5.9,3.8-11.9,1.2-13.4,4.2S495.4,469.2,495,469.5z"/>
<path class="cls-3-avocado-snowman-level-one" d="M512.3,430c-11.5,31.2-38.3,56-70.1,65.4c-8.2,2.4-4.7,15.3,3.5,12.8c36.5-10.8,66.3-39,79.4-74.7c1.2-3.4-1.4-7.3-4.7-8.2C516.8,424.4,513.6,426.7,512.3,430L512.3,430z"/>
</svg>
