<svg version="1.1" id="banana-profile-level-four" xmlns="http://www.w3.org/2000/svg" x="0" y="0" viewBox="0 0 1338.7 919.4" style="enable-background:new 0 0 1338.7 919.4" xml:space="preserve"><style>.cls-1-banana-elephant-level-four{fill:#ffc500}.cls-2-banana-elephant-level-four{fill:#fdd301}.cls-6-banana-elephant-level-four{fill:#fff}.cls-7-banana-elephant-level-four{fill:#fd0300}</style><path class="cls-1-banana-elephant-level-four" d="M1324 535a239 239 0 0 1-232 294c-103 0-191-65-224-156a239 239 0 1 0 456-138z"/><path class="cls-2-banana-elephant-level-four" d="M1092 829a239 239 0 0 0 232-294c-10-36-22-72-36-107-11-26-40-93-57-90-6 2-6 13-19 33-9 12-19 23-31 33-30 24-69 24-82 25-92 6-226 94-238 188-2 19 0 38 7 56 33 91 121 156 224 156z"/><path class="cls-1-banana-elephant-level-four" d="M15 512a239 239 0 0 0 457 137A239 239 0 1 1 14 512z"/><path class="cls-2-banana-elephant-level-four" d="M247 806A239 239 0 0 1 15 512c9-37 22-72 36-107 11-26 39-94 56-90 7 1 6 12 19 32 9 13 20 24 32 33 30 24 69 25 82 26 92 6 226 93 237 188 3 18 1 37-6 55a239 239 0 0 1-224 157z"/><path class="cls-1-banana-elephant-level-four" d="M1004 547c8-17 12-36 12-55 0-118-152-214-339-214 142 2 313 83 327 197 4 29-3 55-12 76 95 61 99 117 99 132 2 104-174 202-320 202-36 0-71-4-106-12-35 8-71 12-107 12-144 0-322-97-319-202 1-75 92-130 118-144-7-20-13-46-9-74 17-104 164-177 297-186-172 10-306 102-306 213 0 15 3 30 7 44-80 39-132 101-132 170 0 118 152 213 338 213 38 1 76-4 113-12 37 8 74 13 112 12 187 0 338-95 338-213 1-63-42-120-111-159z"/><linearGradient id="SVGID_1_banana-elephant-level-four" gradientUnits="userSpaceOnUse" x1="664.9" y1="1097.8" x2="664.9" y2="872.3" gradientTransform="matrix(1 0 0 -1 0 1312)"><stop offset="0" style="stop-color:#8dff4b"/><stop offset="1" style="stop-color:#fdd301"/></linearGradient><path d="M1091 683c0-14-4-68-92-127-4-3-6-8-4-13 7-19 13-43 9-68-12-96-135-169-258-190-5-1-9-6-9-11v-2l-1-12c-17-9-38-10-58-7-20 4-38 12-57 20 0 5-4 9-9 10-123 17-249 87-264 182-4 25 0 47 6 66 2 4 0 9-4 12-33 19-110 71-112 140-2 105 175 202 321 202a487 487 0 0 0 108-11c34 7 69 11 104 11 146 0 323-98 320-202z" style="fill:url(#SVGID_1_banana-elephant-level-four)"/><radialGradient id="SVGID_00000096769685024906649100000013543605098995602581_banana-elephant-level-four" cx="136.5" cy="1063.4" r="97.3" gradientTransform="scale(1 -1) rotate(28 3782 698)" gradientUnits="userSpaceOnUse"><stop offset="0" style="stop-color:#fd3400;stop-opacity:.6"/><stop offset="1" style="stop-color:#fd3700;stop-opacity:0"/></radialGradient><circle style="fill:url(#SVGID_00000096769685024906649100000013543605098995602581_banana-elephant-level-four)" cx="393" cy="696.6" r="97.3"/><radialGradient id="SVGID_00000124120829887843857370000005311610740193248160_banana-elephant-level-four" cx="935" cy="615.4" r="97.3" gradientTransform="matrix(1 0 0 -1 0 1312)" gradientUnits="userSpaceOnUse"><stop offset="0" style="stop-color:#fd3400;stop-opacity:.6"/><stop offset="1" style="stop-color:#fd3700;stop-opacity:0"/></radialGradient><circle style="fill:url(#SVGID_00000124120829887843857370000005311610740193248160_banana-elephant-level-four)" cx="935" cy="696.6" r="97.3"/><path d="m543 657-4-1c-4-2-5-6-3-9h1c2-3 12-16 31-30 25-16 54-26 83-26h1a146 146 0 0 1 112 53c2 2 2 6-1 8l-1 1c-3 2-8 1-10-2-4-4-39-46-101-46-26 0-52 8-74 23-17 12-27 25-28 26l-6 3z"/><circle class="cls-6-banana-elephant-level-four" cx="598.3" cy="685.9" r="33.9"/><circle cx="598.3" cy="685.9" r="28.4"/><circle class="cls-6-banana-elephant-level-four" cx="702" cy="685.9" r="33.9"/><circle cx="702" cy="685.9" r="28.4"/><path class="cls-2-banana-elephant-level-four" d="M677 278z"/><path class="cls-7-banana-elephant-level-four" d="M634 771h45c15 0 27 12 27 26 0 15-12 27-27 27h-45c-15 0-27-12-27-27 0-14 12-26 27-26z"/><path class="cls-6-banana-elephant-level-four" d="M698 756h9c4 0 6 6 4 11l-4 12-5 11c-2 5-7 5-9 0l-4-11-5-12c-2-5 0-11 4-11h10zM618 756h9c4 0 6 6 4 11l-4 12-5 11c-2 5-7 5-9 0l-4-11-5-12c-2-5 1-11 4-11h10z"/><path class="cls-7-banana-elephant-level-four" d="M598 739h115c8 0 14 6 14 13s-6 13-13 13H598c-7 0-13-6-13-13s6-13 13-13z"/><path d="M736 260c-4-34-28-59-57-59-32 0-58 32-58 71v1c19-8 37-16 57-20 20-3 41-2 58 7z" style="fill:#00bf36"/><path d="M864 35c5 34-15 67-17 70-11 18-27 28-57 49-22 14-44 27-68 38 0 0-38 21-77 34l-1 1s-24 8-45 12c-64 14-108-10-108-10-2-1-22-10-34-31v2c6 36 39 51 42 53 0 0 44 23 108 10l45-13h1c39-13 77-34 77-34 23-11 46-24 68-39 30-20 46-31 57-49 2-4 32-53 9-93z" style="fill:#4f2315"/><path d="M491 230s45 24 108 10c21-4 45-13 45-13h1c39-13 77-34 77-34 24-11 47-24 68-39 31-20 46-31 57-48 2-4 22-36 17-70l-2-4a71 71 0 0 0-56-32c-32-1-52 21-55 24-20 25-43 47-68 65-28 20-57 41-98 48-57 10-84-16-109 6-16 13-21 37-19 56 12 21 32 30 34 31z" style="fill:#651e02"/></svg>