<svg
  version="1.1"
  id="blueberry-octo-profile-level-four"
  xmlns="http://www.w3.org/2000/svg"
  x="0"
  y="0"
  viewBox="0 0 945 1213.9"
  style="enable-background: new 0 0 945 1213.9"
  xml:space="preserve"
>
  <style>
    .st2-blueberry-octo-level-four-profile {
      fill: #00ace7;
    }
    .st5-blueberry-octo-level-four-profile {
      fill: #fff;
    }
    .st6-blueberry-octo-level-four-profile {
      fill: #070707;
    }
    .st7-blueberry-octo-level-four-profile {
      fill: #130093;
    }
    .st8-blueberry-octo-level-four-profile {
      fill: #1600cb;
    }
  </style>
  <linearGradient
    id="SVGID_1_blueberry-octo-profile-level-four"
    gradientUnits="userSpaceOnUse"
    x1="472.504"
    y1="1843.05"
    x2="472.504"
    y2="913.22"
    gradientTransform="matrix(1 0 0 -1 0 1750)"
  >
    <stop offset=".1" style="stop-color: #1600cb" />
    <stop offset=".81" style="stop-color: #2501fd" />
  </linearGradient>
  <path
    d="M862 451.3c28.9-19 50.3-47.4 60.6-80.3 5.7-18.5 4.8-27.3 5.9-60.2 1.5-41.4 7-82.6 16.6-122.9-11.6 4.5-23.7 7.5-36 9-47.9 5.7-71-15.8-115.1-19-10.8-.8-49.1-3.1-86.7 18.3C660 223 630.1 278 630.7 326.6v.2c-14.7-5.7-29.6-10.6-44.8-14.8-5.3-1.5-8.4-7-6.9-12.3.4-1.3 1-2.6 1.9-3.7 11.9-14.7 20.9-31.6 26.6-49.7 0 0 6.3-13.4 6.7-44.2.4-39-47.5-120.7-137.1-203.3-104.1 80.4-161.9 164-161.5 203.3.3 30.7 6.7 44.2 6.7 44.2 5.6 18.2 14.6 35.1 26.6 49.8 3.5 4.2 2.9 10.5-1.3 13.9-1.1.9-2.3 1.5-3.7 1.9-12.6 3.4-24.9 7.4-37 11.8-3 1.1-6.4-.4-7.5-3.5-.2-.6-.4-1.3-.4-2 0-82.4-66.8-149.3-149.3-149.3h-1.1c-14.5.1-10.9 4.1-41.7 6.2-41.3 2.9-75.5-6.2-97.9-14.2C.1 230.2-.6 282.7.3 317.4c.6 21.4 2.6 32.1 6.7 45.3 10.6 34.1 33.1 63.2 63.3 82.1C89.1 456.6 94.8 481.2 83 500c-.2.3-.4.7-.7 1-62.5 93.9-91.2 212.2-69.1 337.5 30 169.9 194.4 335.9 364.1 367.3 292 53.9 546.5-168.8 546.5-450.9.1-88.2-25.3-174.6-73.1-248.6-11.9-18.4-6.9-42.8 11.3-55z"
    style="fill: url(#SVGID_1_blueberry-octo-profile-level-four)"
  />
  <g style="opacity: 0.2">
    <path
      d="M508.6 251.1c-2.6 11.4-5.5 24 .3 34.1 5.2 9.1 16.1 13.2 26.4 15.2 14.5 2.8 29.5 2.7 44-.3.4-1.5 1-2.8 2-4 11.9-14.7 21-31.6 26.6-49.7 0 0 6.3-13.4 6.7-44.2.4-38.8-47.1-120-136-202.4 38 77 49 167.4 30 251.3zM90.5 239c17.4 7.4 35.8 11.7 53.4 18.6 19.9 7.7 33.8 16.9 45.6 32 22.4 28.8 11.1 56 28 63.8 6.3 2.9 12.6 1.3 54-18 10.6-5 20.3-9.5 28.8-13.7-.7-1-1.1-2.2-1.1-3.4 0-82.4-66.9-149.3-149.3-149.3h-1.1c-14.5.1-10.9 4.1-41.7 6.2-41.3 2.8-75.5-6.3-97.9-14.3-.2 1.2-.3 2.4-.4 3.6 18.1 32.9 47.1 59.8 81.7 74.5zM862.3 451.3c28.9-19 50.3-47.4 60.6-80.3 5.8-18.5 4.8-27.3 5.9-60.2 1.4-40.9 6.9-81.5 16.2-121.3-34 88.4-78.1 144.4-113.5 179.9-50.7 50.9-98.2 74.4-109 130.8-7.4 38.8 8.8 61.8 26.9 113.2C787.7 722 796.8 838.8 775.7 952c-8.8 46.7-20.8 100.3-62.9 152.8-46.3 57.7-107.7 86-156.8 100.1 210-42.2 368.1-227.6 368.1-450 .1-88.2-25.3-174.6-73.1-248.6-11.9-18.4-6.8-42.8 11.3-55z"
    />
  </g>
  <path
    class="st2-blueberry-octo-level-four-profile"
    d="m94 474.1 4.2-5.7 2.2-2.9.5-.7.4-.5-.7.9 1.2-1.5c3.4-4.4 6.9-8.7 10.5-12.9 8.3-9.7 17.1-19.1 26.3-28 5.2-5 10.4-9.8 15.9-14.5 2.9-2.5 5.8-4.9 8.7-7.4l4.5-3.6 2.3-1.8 1.1-.8c.6-.5-.7.5-.6.5l.7-.5c25.4-19.5 53.1-35.8 82.4-48.7 1.6-.7 3.2-1.3 4.8-2l-1.8.8c12.1-5.1 24.4-9.6 37-13.5l9-2.7c3.8-1.1 6.5-5.4 5.2-9.2-1.2-3.9-5.2-6.3-9.2-5.2-14.6 4.1-29 9.1-43 14.9-38.2 15.5-73.7 36.9-105.3 63.3-13.6 11.3-26.5 23.6-38.5 36.6-9.9 10.9-19.3 22.2-28 34.1l-2.6 3.5c-1 1.7-1.3 3.8-.8 5.8 1.1 4 5.2 6.3 9.2 5.2 1.8-.6 3.4-1.8 4.4-3.5zM352.5 308.6c14.7-4.1 29.5-7.5 44.5-10 4.9-.8 9.8-1.6 14.8-2.2l-2 .3c29.7-4 59.7-4.9 89.6-2.6 8.2.6 16.3 1.5 24.5 2.6l-2-.3c15 2 30 4.9 44.7 8.5 3.7.9 7.3 1.8 10.9 2.8 3.8 1 8.3-1.3 9.2-5.2 1-4-1.3-8.1-5.2-9.2-13.2-3.6-26.6-6.6-40.1-8.9-16.7-2.9-33.5-4.8-50.4-5.8-17.7-1-35.4-.9-53 .3-16 1.1-31.9 3-47.6 5.8-12.7 2.3-25.3 5.1-37.8 8.4l-4.1 1.1c-3.8 1.1-6.5 5.4-5.2 9.2 1.1 3.9 5.2 6.2 9.2 5.2zM628.5 331.9c7.6.3 15.1 1 22.6 2l-2-.3c16.3 2.2 32.4 6 48 11.3 5.3 1.8 10.6 3.8 15.7 6l-1.8-.8c13.4 5.7 26.4 12.5 38.6 20.5 3.3 2.2 6.5 4.4 9.7 6.7 1.6 1.2 3.2 2.4 4.8 3.5 1.1.8-1.2-.9-.1-.1l1.1.8 2.3 1.8c5.6 4.5 11 9.3 16.2 14.3 4.8 4.7 9.5 9.5 13.9 14.6 2.1 2.4 4.2 4.9 6.2 7.4 1 1.2 1.9 2.4 2.9 3.6.1.1.2.3.3.4s-1.1-1.4-.6-.8l.7.9c.5.6.9 1.2 1.4 1.9 11.5 15.3 21.1 31.9 28.7 49.5.3.8.7 1.5 1 2.3l-.8-1.8c.7 1.5 1.3 3.1 1.9 4.6.6 1.9 1.8 3.4 3.4 4.5 1.8 1 3.8 1.3 5.8.8 1.9-.5 3.5-1.8 4.5-3.5.9-1.7 1.5-3.9.8-5.8-5.1-13-11.3-25.5-18.5-37.5-10.6-17.7-23.4-34-38-48.7-17.9-17.9-38.4-33-60.8-44.7-19.3-10.1-39.8-17.6-61.1-22.4-14.3-3.3-28.9-5.3-43.6-6.2-1.1-.1-2.2-.1-3.3-.1-4.1 0-7.5 3.4-7.5 7.5.2 4.4 3.5 7.7 7.6 7.8z"
  />
  <radialGradient
    id="SVGID_00000105416481590400045070000002920506780211539842_octo-level-four-profile"
    cx="252.02"
    cy="805.739"
    r="107.474"
    gradientTransform="matrix(1 0 0 -1 0 1750)"
    gradientUnits="userSpaceOnUse"
  >
    <stop offset="0" style="stop-color: #d20c2b" />
    <stop offset="1" style="stop-color: #d20c2b; stop-opacity: 0" />
  </radialGradient>
  <path
    style="
      fill: url(#SVGID_00000105416481590400045070000002920506780211539842_octo-level-four-profile);
    "
    d="M226.7 838.7c-49.5 11.6-86.4 62.4-82.4 113.1s48.3 95 99 99.1c65.3 5.4 126.5-60.9 115.5-125.5s-91-107-150.5-79.5"
  />
  <radialGradient
    id="SVGID_00000110430000600642566820000018274715332438755514_octo-level-four-profile"
    cx="682.04"
    cy="805.734"
    r="99.915"
    gradientTransform="matrix(1 0 0 -1 0 1750)"
    gradientUnits="userSpaceOnUse"
  >
    <stop offset="0" style="stop-color: #d20c2b" />
    <stop offset="1" style="stop-color: #d20c2b; stop-opacity: 0" />
  </radialGradient>
  <path
    style="
      fill: url(#SVGID_00000110430000600642566820000018274715332438755514_octo-level-four-profile);
    "
    d="M658.5 846.1c-46 10.8-80.3 58-76.6 105.1s44.9 88.3 92 92.2c60.7 5 117.6-56.6 107.4-116.7s-84.6-99.5-139.9-73.9"
  />
  <circle
    class="st5-blueberry-octo-level-four-profile"
    cx="295"
    cy="796.9"
    r="72"
  />
  <circle
    class="st5-blueberry-octo-level-four-profile"
    cx="628"
    cy="796.9"
    r="72"
  />
  <circle
    class="st6-blueberry-octo-level-four-profile"
    cx="640"
    cy="814.9"
    r="47"
  />
  <circle
    class="st6-blueberry-octo-level-four-profile"
    cx="308"
    cy="810.9"
    r="47"
  />
  <path
    class="st7-blueberry-octo-level-four-profile"
    d="M187.8 645.1c-28.9 18-32.6 22.6-33.4 28.3-1 6.7 1.9 15.3 8.7 18.5 1.6.8 8.1 5.3 21.6-2.7l45.4-26.7c5.2-3.1 10.5-6.2 14.2-10.7 1.1-1.4 5.9-8.8 2.5-15.4-4-7.7-16.3-8.9-18-9.1-7.8-.8-14.6 1.4-41 17.8z"
  />
  <path
    class="st8-blueberry-octo-level-four-profile"
    d="M185 641.4c-26.5 16.4-29.8 20.7-30.5 25.9-.9 6.2 1.7 14 7.9 16.9 1.5.7 7.4 4.8 19.8-2.5l41.6-24.4c4.8-2.8 9.6-5.7 13-9.8 1-1.3 5.3-8.1 2.2-14.1-3.6-7-14.9-8.2-16.4-8.3-7.3-.7-13.5 1.3-37.6 16.3z"
  />
  <path
    class="st7-blueberry-octo-level-four-profile"
    d="M725.4 645.1c28.9 18 32.6 22.6 33.4 28.3 1 6.7-1.9 15.3-8.7 18.5-1.6.8-8.1 5.3-21.6-2.7l-45.4-26.7c-5.2-3.1-10.5-6.2-14.2-10.7-1.1-1.4-5.8-8.8-2.4-15.4 4-7.7 16.3-8.9 18-9.1 7.8-.8 14.5 1.4 40.9 17.8z"
  />
  <path
    class="st8-blueberry-octo-level-four-profile"
    d="M728.3 641.4c26.5 16.4 29.8 20.7 30.5 25.9.9 6.2-1.7 14-7.9 16.9-1.5.7-7.4 4.8-19.8-2.5l-41.5-24.4c-4.8-2.8-9.6-5.7-13-9.8-1-1.3-5.3-8.1-2.2-14.1 3.6-7 14.9-8.2 16.4-8.3 7.2-.7 13.3 1.3 37.5 16.3z"
  />
  <path
    class="st5-blueberry-octo-level-four-profile"
    d="M513.8 1023.8c-7.1-5-9.6-12.8-14.3-28.3-3.1-10.1-3.1-13.3-1.3-15.8 2.2-3.1 6.3-4.3 10.1-4.6 10.7-.7 24.7 6.6 28.8 19.7 4.3 13.8-2.7 30.9-12 32.8-4.4 1-8.4-1.8-11.3-3.8zM438.6 1023.8c7.1-5 9.6-12.8 14.3-28.3 3.1-10.1 3.1-13.3 1.3-15.8-2.2-3.1-6.3-4.3-10.1-4.6-10.7-.7-24.7 6.6-28.8 19.7-4.3 13.8 2.7 30.9 12 32.8 4.4 1 8.5-1.8 11.3-3.8z"
  />
  <path
    d="M466 844.9c-67.9 0-123 55.1-123 123s55.1 123 123 123 123-55.1 123-123c0-68-55.1-123-123-123zm0 184.5c-34 0-61.5-27.5-61.5-61.5s27.5-61.5 61.5-61.5 61.5 27.5 61.5 61.5c0 33.9-27.5 61.5-61.5 61.5z"
    style="fill: #100449"
  />
  <path
    class="st7-blueberry-octo-level-four-profile"
    d="M479 844.9c-65.7 0-119 53.3-119 119s53.3 119 119 119 119-53.3 119-119c0-65.8-53.3-119-119-119zm0 178.5c-32.9 0-59.5-26.6-59.5-59.5s26.6-59.5 59.5-59.5 59.5 26.6 59.5 59.5c0 32.8-26.6 59.5-59.5 59.5z"
  />
</svg>
