<svg
  version="1.1"
  id="green-profile-level-five"
  xmlns="http://www.w3.org/2000/svg"
  x="0"
  y="0"
  viewBox="0 0 903.3 1115.6"
  style="enable-background: new 0 0 903.3 1115.6"
  xml:space="preserve"
>
  <style>
    .cls-2-avocado-snowman-level-five-profile {
      fill: #48bbff;
    }
    .cls-5-avocado-snowman-level-five-profile {
      fill: #070707;
    }
    .cls-6-avocado-snowman-level-five-profile {
      fill: #fff;
    }
    .cls-10-avocado-snowman-level-five-profile {
      opacity: 0.46;
    }
    .cls-13-avocado-snowman-level-five-profile {
      fill: #ff7bac;
    }
    .cls-14-avocado-snowman-level-five-profile {
      fill: #e25890;
    }
    .cls-15-avocado-snowman-level-five-profile {
      fill: none;
    }
    .cls-16-avocado-snowman-level-five-profile {
      fill: #00e920;
    }
  </style>
  <path
    d="M807 968c21-23 39-48 54-75 0 1 0 1 0 0l4-6c25-48 38-101 38-157 0-213-202-385-451-385S0 518 0 730a336 336 0 0 0 45 168c17 29 37 56 61 80 230 44 474 40 701-10z"
    style="fill: #08fd50"
  />
  <path
    class="cls-2-avocado-snowman-level-five-profile"
    d="M106 979c83 83 207 137 346 137 144 0 272-58 355-148-227 50-471 54-701 11z"
  />
  <ellipse cx="451.7" cy="721.7" rx="301" ry="247.8" style="fill: #00da2c" />
  <ellipse cx="451.7" cy="734" rx="284" ry="233.8" style="fill: #04b564" />
  <path
    class="cls-5-avocado-snowman-level-five-profile-profile"
    d="M433 634a19 19 0 0 0-29-15c-2 1-1 3 1 2 6-4 13-4 19 0 3 2 5 5 6 9a11 11 0 1 0-13 18c5 4 12 3 15-2 3-4 3-8 1-12zM492 634a19 19 0 0 1 30-15c2 1 0 4-1 2-6-3-14-3-19 1-3 2-5 5-6 8a11 11 0 1 1 13 18 11 11 0 0 1-17-14zM654 703a629 629 0 0 0-49-11c5 6 0 15 0 17-9 14-27 21-43 17-2-1-13-4-18-14-4-7-6-18-1-25 3-4 7-6 12-6l-7-1c-9-1-29-4-59-4 2 0 4 1 5 3 5 5 2 15 1 17-6 15-23 25-39 22-3 0-14-2-21-11-5-7-8-17-4-25 2-3 5-5 8-6-27-1-55 1-83 4l-6 1 1 1c6 4 5 15 5 16-3 16-18 30-34 31-3 0-14 1-22-7-6-6-12-16-9-24 0-3 2-5 4-7l-45 12c-13 5-22 20-19 37 8 55 34 109 74 148-1-17 13-31 18-35 14-14 30-17 38-18l3 12c8-7 18-11 29-13 33-6 56 17 58 19 18-23 53-30 78-15l10 8 3-11c8 1 24 4 38 18 5 4 20 19 18 36 40-39 67-94 75-149 3-17-5-32-19-37zM545 928l2-1v-1l-2 2z"
  />
  <path
    class="cls-6-avocado-snowman-level-five-profile"
    d="M291 698c-3 8 3 18 9 24 9 7 19 7 22 7 17-2 31-15 34-31 0-1 1-12-5-16l-1-1c-19 3-38 6-54 10-3 2-4 4-5 7zM431 682c-4 8-1 18 4 25 7 9 18 11 21 11 16 3 33-7 39-22 1-2 4-12-1-17-1-2-3-3-5-3l-37-1h-12c-4 2-7 4-9 7z"
  />
  <path
    d="m545 928 2-2c-11-25-13-53-7-80l-11-8c-25-15-60-8-77 15-2-2-26-25-59-19-10 2-20 6-29 13 6 26 3 54-7 79 9 5 19 9 29 12l1-3c7-14 24-23 41-20 2 0 13 3 19 12 4 6 5 12 5 18h5c0-6 2-12 5-18 6-9 17-12 20-12 16-3 34 6 41 20v2-1l22-8z"
    style="fill: #fd0300"
  />
  <path
    class="cls-6-avocado-snowman-level-five-profile"
    d="M447 927c-6-9-16-12-19-12-16-3-34 5-41 20l-1 3 2 1a173 173 0 0 0 63 6h1c0-7-1-12-5-18zM482 915c-3 0-13 2-20 12-3 6-5 12-4 18h14c17 0 35-3 51-9v-1c-7-14-25-23-41-20zM543 687c-5 7-3 18 1 25 5 10 16 13 18 14 16 4 34-3 43-17 0-2 5-11 0-17l-1-2c-15-4-32-7-49-9-5 1-9 2-12 6zM351 923l5 3c-8-10-17-28-12-49 3-13 11-23 20-30l-3-12c-8 1-24 4-38 18-5 4-19 18-18 35 14 14 29 26 46 35zM356 926l1 1v-1h-1z"
  />
  <path
    class="cls-6-avocado-snowman-level-five-profile"
    d="M344 877c-5 21 4 39 12 49h1c10-25 13-53 7-79-9 7-17 17-20 30zM580 853a69 69 0 0 0-38-18l-3 11c18 17 25 45 15 67l-8 13 1 1 6-4c17-9 32-20 46-34 1-17-13-31-19-36z"
  />
  <path
    class="cls-6-avocado-snowman-level-five-profile"
    d="m547 926 7-13c10-22 3-50-15-67-5 27-3 55 8 80z"
  />
  <radialGradient
    id="SVGID_1_avocado-snowman-level-five-profile"
    cx="698.9"
    cy="1410.3"
    r="28.8"
    gradientTransform="matrix(1 0 0 -1 0 2114)"
    gradientUnits="userSpaceOnUse"
  >
    <stop offset="0" style="stop-color: #fd0300; stop-opacity: 0.6" />
    <stop offset="1" style="stop-color: #ff0006; stop-opacity: 0" />
  </radialGradient>
  <circle
    cx="698.9"
    cy="704.2"
    r="28.8"
    style="fill: url(#SVGID_1_avocado-snowman-level-five-profile)"
  />
  <radialGradient
    id="SVGID_00000098216820550190165370000014349341789086740908_avocado-snowman-level-five-profile"
    cx="201.7"
    cy="1410.3"
    r="28.8"
    gradientTransform="matrix(1 0 0 -1 0 2114)"
    gradientUnits="userSpaceOnUse"
  >
    <stop offset="0" style="stop-color: #fd0300; stop-opacity: 0.6" />
    <stop offset="1" style="stop-color: #ff0006; stop-opacity: 0" />
  </radialGradient>
  <circle
    style="
      fill: url(#SVGID_00000098216820550190165370000014349341789086740908_avocado-snowman-level-five-profile);
    "
    cx="201.7"
    cy="704.2"
    r="28.8"
  />
  <g class="cls-10-avocado-snowman-level-five-profile">
    <path
      class="cls-6-avocado-snowman-level-five-profile"
      d="M663 419c-15-9-22-13-32-12s-24 8-27 20 4 23 13 30 21 11 33 14 22 6 31 14c8 6 14 15 23 16s16-6 18-14c2-10-2-18-6-24-4-7-8-10-18-17l-35-27z"
    />
  </g>
  <g class="cls-10-avocado-snowman-level-five-profile">
    <path
      class="cls-6-avocado-snowman-level-five-profile"
      d="M768 541c-6 8-19 8-27 1-7-6-8-19-1-26s19-5 26 1c6 7 8 17 2 24z"
    />
  </g>
  <g class="cls-10-avocado-snowman-level-five-profile">
    <path
      class="cls-6-avocado-snowman-level-five-profile"
      d="M101 124c8 2 12 33 10 60-6 73-50 111-62 117-2 1-5 3-6 2-2-3 14-19 25-37 32-48 34-115 28-129-1-1-4-8-1-11 1-2 5-2 6-2z"
    />
  </g>
  <g class="cls-10-avocado-snowman-level-five-profile">
    <path
      class="cls-6-avocado-snowman-level-five-profile"
      d="M356 350c-7 5-17 3-21-3-5-7-5-16 2-21 6-5 15-3 20 3s5 16-1 21z"
    />
  </g>
  <ellipse cx="439.4" cy="300.7" rx="151.5" ry="123.5" style="fill: #92dce9" />
  <ellipse cx="439.4" cy="289.4" rx="151.5" ry="123.5" style="fill: #baf1ff" />
  <path
    class="cls-13-avocado-snowman-level-five-profile"
    d="M335 192c-8 4-14 9-19 16-5 6-10 13-9 22 0 9 6 17 14 19s16-2 24-6 17-8 25-5c9 4 13 16 22 21 8 3 17 0 24-4 8-4 15-8 23-8 10 0 19 7 27 13s17 13 27 10c7-1 13-7 19-9 10-4 21 0 31 4 10 3 21 6 30 1s13-17 11-27-9-19-17-26c-21-20-50-29-78-32-42-3-37 9-86 6-21-2-47-6-68 5z"
  />
  <ellipse
    class="cls-14-avocado-snowman-level-five-profile"
    cx="439.4"
    cy="150.8"
    rx="98.4"
    ry="80.2"
  />
  <ellipse
    class="cls-13-avocado-snowman-level-five-profile"
    cx="439.4"
    cy="142.1"
    rx="98.4"
    ry="80.2"
  />
  <path
    class="cls-13-avocado-snowman-level-five-profile"
    d="m351 239-8 44c-1 6 7 8 8 2l8-44c1-6-7-8-8-2zM371 346l22 16c5 4 9-4 5-7l-23-17c-5-3-9 4-4 8zM484 271l-3 37c0 5 9 5 9 0l3-37c0-6-9-5-9 0zM538 340l29-24c4-4-2-10-6-6l-29 23c-5 4 2 10 6 7z"
  />
  <path
    class="cls-2-avocado-snowman-level-five-profile"
    d="m404 314 34-19c5-2 0-10-5-7l-34 18c-5 3 0 10 5 8zM467 370l-10-13c-2-2-5-1-7 0-2 2-1 4 0 6l11 14h6c2-2 1-5 0-7zM521 232l33 21c5 3 9-4 5-7l-34-22c-5-3-9 5-4 8zM386 153l11-7c2-1 3-4 1-6-1-2-3-3-5-2l-11 7c-2 2-3 4-2 6 2 2 4 3 6 2zM428 116l14 21c3 5 10 0 7-4l-14-21c-3-5-10 0-7 4zM423 184l27 1c6 0 6-8 0-9l-28-1c-5-1-5 8 1 9zM508 159l-13-37c-2-5-11-3-9 2l14 37c2 5 10 3 8-2z"
  />
  <circle
    class="cls-6-avocado-snowman-level-five-profile"
    cx="438.6"
    cy="124.5"
    r="40.8"
  />
  <circle
    class="cls-5-avocado-snowman-level-five-profile-profile"
    cx="438.6"
    cy="131.5"
    r="17.6"
  />
  <path
    class="cls-14-avocado-snowman-level-five-profile"
    d="M440 68c-23 0-41-15-44-34l-1 5c1 22 20 39 45 39s44-17 44-39v-5c-3 19-22 34-44 34z"
  />
  <ellipse
    class="cls-13-avocado-snowman-level-five-profile"
    cx="439.9"
    cy="33.8"
    rx="44"
    ry="33.8"
  />
  <g class="cls-10-avocado-snowman-level-five-profile">
    <path
      class="cls-6-avocado-snowman-level-five-profile"
      d="M336 224c-17 16-21 34-21 34-1 3-5 27 7 43 2 2 6 6 12 8 2 1 9 3 13-1 6-4 4-14 0-20s-10-12-10-20 7-14 12-20c8-9 9-16 7-21-1-4-7-7-12-7-3 0-6 2-8 4z"
    />
  </g>
  <circle
    class="cls-6-avocado-snowman-level-five-profile"
    cx="445.5"
    cy="128.8"
    r="4.3"
  />
  <circle
    class="cls-6-avocado-snowman-level-five-profile"
    cx="443.5"
    cy="138.5"
    r="2"
  />
  <path
    class="cls-15-avocado-snowman-level-five-profile"
    d="m45 966 61 12v1l-61-13zM807 968z"
  />
  <path
    class="cls-2-avocado-snowman-level-five-profile"
    d="m899 945-16 4 16-4z"
  />
  <path
    class="cls-16-avocado-snowman-level-five-profile"
    d="M106 979a1781 1781 0 0 1 0 0zM39 887l6 11-6-11zM861 894l3-7-3 7c0-1 0 0 0 0z"
  />
</svg>
