<?xml version="1.0" encoding="utf-8"?>
<!-- Generator: Adobe Illustrator 25.4.1, SVG Export Plug-In . SVG Version: 6.00 Build 0)  -->
<svg version="1.1" id="donut-profile-level-five" xmlns="http://www.w3.org/2000/svg" xmlns:xlink="http://www.w3.org/1999/xlink" x="0px"
	 y="0px" viewBox="0 0 1239.9 1539.7" style="enable-background:new 0 0 1239.9 1539.7;" xml:space="preserve">
<style type="text/css">
	.cls-1-donut-rabbit-level-five{fill:#FD037F;}
	.cls-2-donut-rabbit-level-five{fill:#2C7DBE;}
	.cls-3-donut-rabbit-level-five{fill:#E51570;}
	.cls-4-donut-rabbit-level-five{fill:#FFB6C7;}
	.cls-5-donut-rabbit-level-five{fill:#FD016F;}
	.cls-6-donut-rabbit-level-five{fill:#FFFFFF;}
	.cls-7-donut-rabbit-level-five{fill:#DAA435;}
	.cls-8-donut-rabbit-level-five{fill:#FCD96B;}
	.cls-9-donut-rabbit-level-five{fill:#D5006D;}
	.cls-10-donut-rabbit-level-five{fill:#070707;}
	.cls-11-donut-rabbit-level-five{opacity:0.3;}
	.cls-12-donut-rabbit-level-five{fill:#469DFC;}
	.cls-13-donut-rabbit-level-five{fill:#EA527E;}
	.cls-14-donut-rabbit-level-five{opacity:0.4;}
	.cls-15-donut-rabbit-level-five{fill:#D41549;}
	.cls-16-donut-rabbit-level-five{fill:url(#SVGID_1_donut-rabbit-level-five);}
	.cls-17-donut-rabbit-level-five{opacity:0.2;}
	.cls-18-donut-rabbit-level-five{fill:#C7006A;}
	.cls-19-donut-rabbit-level-five{fill:url(#SVGID_00000148657047443867944290000018119213300186763168_donut-rabbit-level-five);}
</style>
<path class="cls-1-donut-rabbit-level-five" d="M1155.9,904.9c0-251-155.5-466.4-377.2-558.7c-50.4-13-103.3-19.9-157.9-19.9C279,326.3,1.8,598,1.8,933.1
	c0,251,155.5,466.4,377.2,558.7c50.4,13,103.3,19.9,157.9,19.9C878.8,1511.6,1155.9,1240,1155.9,904.9z"/>
<path class="cls-2-donut-rabbit-level-five" d="M597.9,1909.6"/>
<circle class="cls-3-donut-rabbit-level-five" cx="598.8" cy="956.2" r="301.3"/>
<path class="cls-3-donut-rabbit-level-five" d="M778.8,346.1c221.7,92.3,377.2,307.7,377.2,558.7c0,335.1-277.1,606.8-619,606.8c-54.6,0-107.5-6.9-157.9-19.9
	c74.3,30.9,156,48,241.8,48c341.8,0,619-271.7,619-606.8C1239.9,651.4,1044.1,414.5,778.8,346.1z"/>
<circle class="cls-4-donut-rabbit-level-five" cx="620.9" cy="1006.7" r="272.9"/>
<ellipse class="cls-5-donut-rabbit-level-five" cx="623.5" cy="1117.9" rx="30.3" ry="21.6"/>
<ellipse class="cls-6-donut-rabbit-level-five" cx="633.2" cy="1115" rx="12.3" ry="7.7"/>
<g>
	<path class="cls-7-donut-rabbit-level-five" d="M362.6,366.4C102.6,488.3,28.7,737.5,16.7,797.3c-4.5,22.4-8.9,65.6,12.6,96.8c16.8,24.3,62.8,27.9,85,10.1
		c2-1.6,19.2-15.4,20.4-35c0.6-8.9-2.3-17,3-26c1-1.7,5.1-8.6,10.9-10.2c19.2-5.3,36.2,53.5,68.8,55.1c20,1,35.9-19.9,38.8-23.7
		c12.8-16.8,13.5-35.8,14.2-47.7c1.5-25.3,6.2-101.5,45-154.6c19.3-26.4,35.8-30.9,41.4-32.9c16.7-6.2,37.5-4.2,49.8,8.7
		c6.5,6.8,10.6,16.2,19,20.5c15.5,7.9,33.1-7.5,40.6-23.2s12.1-34.7,27-43.7c23.5-14.2,52.6,6.9,69.5,28.5c17,21.6,36.2,48,63.6,47
		c31.1-1.2,48.2-37.2,51.7-68.1c3.5-30.9,1.6-65.4,21.6-89.2c14.3-17,41-27.7,56.6-19.7c9.3,4.8,16.5,21,30.8,53.5
		c2.9,6.5,7,16.3,16.8,24.3c3.7,3,10.8,8.8,19.6,9.3c18.1,1,32.4-21.1,36.3-27.1c18.5-28.6,11-52.8,25.5-58.9
		c9.9-4.1,21.6,3.7,23.3,4.8c18.1,12.4,15.5,38.8,20.7,78.5c2.7,20,6.5,49.2,16.8,73c3.7,8.5,33.6,74.6,99.9,82.9
		c44.9,5.7,100.8-15,115.8-57.1c16.4-46.1-8.3-92.9-28.2-125.9C1050,408.7,893.1,352.6,834.5,335C771,315.9,573.4,267.5,362.6,366.4
		z"/>
</g>
<g>
	<path class="cls-7-donut-rabbit-level-five" d="M65.5,990.9c-6.5,9.6-5.3,20.8-4.7,26.3c2.2,19.5,15.5,31.4,19.3,34.6c3.6,3,26.2,21.7,48.8,11.1
		c17.3-8.1,24.8-28.6,22.4-45.7c-3.9-27.6-32.5-37.3-34.9-38.1C100.1,973.9,76,975.5,65.5,990.9z"/>
</g>
<g>
	<path class="cls-8-donut-rabbit-level-five" d="M352.3,332.4C92.3,454.3,18.4,703.5,6.4,763.3c-4.5,22.4-8.9,65.6,12.6,96.8c18.9,27.5,65.2,36.9,85,10.1
		c9.5-12.8,10.6-29.8,15.4-45s17.1-31,33-29.4c27.6,2.9,28.4,50,54.8,58.4c15.9,5,32.8-8.1,38.8-23.7s4.4-32.9,4.5-49.6
		c0.2-55.1,19.8-110,54.7-152.7c11.3-13.8,24.6-26.8,41.4-32.9c16.7-6.2,37.5-4.2,49.8,8.7c6.5,6.8,10.6,16.2,19,20.5
		c15.5,7.9,33.1-7.5,40.6-23.2s12.1-34.7,27-43.7c23.5-14.2,52.6,6.9,69.5,28.5c17,21.6,36.2,48,63.6,47
		c31.1-1.2,48.2-37.2,51.7-68.1c3.5-30.9,1.6-65.4,21.6-89.2c13.5-16,36.1-23.9,56.6-19.7s38.2,20.2,44.4,40.3
		c5.3,17.4,5.6,41,22.8,46.9c16,5.4,31-11.2,36.3-27.1c5.3-16,7.1-34.5,19.5-45.9c15.3-14.1,41.4-9.9,56.4,4.6s20.6,36.1,22.2,56.8
		s-0.4,41.7,2.4,62.3c6.3,46.9,40.1,90.5,85.8,102.6c45.7,12.1,99.9-12.6,115.8-57.1c16.4-46.1-8.3-92.9-28.2-125.9
		C1039.9,375,883,318.9,824.4,301.3C760.7,282,563.1,233.6,352.3,332.4z"/>
</g>
<g>
	<g>
		<path class="cls-9-donut-rabbit-level-five" d="M338.4,327.8c-0.4-0.4-0.7-0.7-1.1-1.1c-40.8-39.7-45.8-84.6-63.8-151c-13.3-49.4-20-74.1-28.7-87.1
			C202.1,24.4,126.1,25.3,128,11.5c0.1-0.5,0.2-0.9,0.4-1.4c-10.8,3.7-17.3,8-17.8,11.9c-1.8,13.9,74.2,12.9,116.9,77.2
			c8.7,13.1,15.4,37.7,28.7,87.1c17.9,66.3,22.8,111.3,63.8,151c0.4,0.4,0.7,0.6,1.1,1.1c64.3,61.7,142.2,79.7,175.7,71.7
			c5.4-1.3,17.7-4.2,27.8-13.5c-4.3,1.6-8,2.5-10.4,3.1C480.6,407.6,402.7,389.5,338.4,327.8z"/>
	</g>
	<g>
		<path class="cls-3-donut-rabbit-level-five" d="M529.2,391.6c8.7-10.8,10.5-23.3,11.2-33.4c2.6-45.9-18.2-95-20.7-100c-24.9-50.3-54-98.5-86.7-144
			c-21.3-29.7-36.6-44.6-56.2-60.1c-82.8-65.6-203.2-59.4-248.2-44c-0.2,0.5-0.3,0.9-0.4,1.4c-1.8,13.9,74.2,12.9,116.9,77.2
			c8.7,13.1,15.4,37.7,28.7,87.1c17.9,66.3,22.8,111.3,63.8,151c0.4,0.4,0.7,0.6,1.1,1.1c64.3,61.7,142.2,79.7,175.7,71.7
			c2.4-0.6,6.1-1.5,10.4-3.1C526.2,395.1,527.7,393.4,529.2,391.6z"/>
	</g>
	<g>
		<path class="cls-1-donut-rabbit-level-five" d="M500,328.8c-22.8,5.4-75.8-6.9-119.6-48.8c-3.6-3.4-50.8-48.2-58.2-115.3c-2-17.8-1.3-36.3,5.5-52.9
			s20-31.1,37.2-36.2c18-5.3,37.8,0.3,53.3,10.9c15.5,10.6,27.3,25.6,38.3,40.9c22.3,31,42,63.8,59,98c1.7,3.4,15.9,36.8,14.1,68
			c-0.4,6.8-1.7,15.4-7.6,22.7C514.9,325.3,504.4,327.8,500,328.8z"/>
	</g>
	<g>
		<path class="cls-9-donut-rabbit-level-five" d="M254.3,185.5c-9.5-2.7-16.4-10.8-21.2-19.5c-4.8-8.6-8.1-18-13.7-26.2c-14.8-21.5-46-29.2-69.5-18.4
			c-0.7,0.3-1.3,0-1.5-0.6c-1.5,1.4-3,2.8-4.3,4.1c-0.9,0.9,0.1,2.4,1.3,1.9c23.5-10.8,54.7-3.1,69.5,18.4
			c5.6,8.1,8.9,17.5,13.7,26.2c4.8,8.6,11.7,16.8,21.2,19.5c10.6,3,22.8-5.6,31-16.5C273,182.5,263.1,187.9,254.3,185.5z"/>
	</g>
	<g>
		<path class="cls-3-donut-rabbit-level-five" d="M279.1,111.7c-5.2-7.3-10.8-11.6-12.1-12.6c-23.9-17.6-57-8.8-69.3-5.5c-22.2,5.9-38.5,17.5-49.3,27.2
			c0.3,0.5,0.9,0.8,1.5,0.6c23.5-10.8,54.7-3.1,69.5,18.4c5.6,8.1,8.9,17.5,13.7,26.2c4.8,8.6,11.7,16.8,21.2,19.5
			c8.8,2.4,18.6-2.9,26.4-11.1c2.7-3.6,5-7.6,6.6-11.5C297.3,138.5,281.2,114.7,279.1,111.7z"/>
	</g>
	
		<ellipse transform="matrix(0.1602 -0.9871 0.9871 0.1602 72.2005 717.3369)" class="cls-6-donut-rabbit-level-five" cx="457.7" cy="316.2" rx="39.5" ry="39.5"/>
	<circle class="cls-10-donut-rabbit-level-five" cx="445.9" cy="309" r="13.3"/>
	<g class="cls-11-donut-rabbit-level-five">
		<path class="cls-6-donut-rabbit-level-five" d="M482.5,261.5c-3,13.1,17.4,25.1,23.8,47.5c5.3,18.5,2.2,48.1,6.3,52.4c1.3,1.3,2.6,1.4,2.6,1.4
			c2.4,0.2,4.5-2.4,5.3-3.4c2.7-3.3,3.5-7.7,4-11.9c3.7-28.7-2.7-58.6-17.9-83.2c-1.1-1.8-3.1-6.7-8.1-9.3c-0.6-0.3-7-3.5-11.7-0.6
			C483.7,256.4,482.8,260.2,482.5,261.5z"/>
	</g>
	<g class="cls-11-donut-rabbit-level-five">
		<path class="cls-6-donut-rabbit-level-five" d="M231.4,92.7c8,0.3,32.1,4.7,42.6,24.9c1.5,3,5,9.8,2.4,13.3c-3.2,4.2-9.8,2.7-14.7,0.8
			c-8.5-3.4-17-6.6-25.6-10c-12.4-4.8-17.2-10.1-17.7-15.8c-0.3-4.1,1.9-9.1,5.7-11.5C226.7,92.7,229.4,92.7,231.4,92.7z"/>
	</g>
	<g class="cls-11-donut-rabbit-level-five">
		<path class="cls-6-donut-rabbit-level-five" d="M488.7,242.6c-4.9,4.8-13.8,4.3-19-0.7c-4.8-4.5-6.6-12.9-2-18.6c4.6-5.6,13-5.5,18.2-1.9
			C492.7,226.1,494.5,236.9,488.7,242.6z"/>
	</g>
</g>
<g>
	<g>
		<path class="cls-12-donut-rabbit-level-five" d="M1033.3,509.6c-8.8-18.5-17.6-36.9-26.5-55.4c-3.9-8.1-16-1-12.1,7.1c8.8,18.5,17.6,36.9,26.5,55.4
			C1025.1,524.8,1037.2,517.7,1033.3,509.6L1033.3,509.6z"/>
	</g>
</g>
<g>
	<g>
		<path class="cls-12-donut-rabbit-level-five" d="M824.9,404.3c15-8.3,29.9-16.7,44.9-25c7.9-4.4,0.8-16.5-7.1-12.1c-15,8.3-29.9,16.7-44.9,25
			C809.9,396.6,817,408.6,824.9,404.3L824.9,404.3z"/>
	</g>
</g>
<g>
	<g>
		<path class="cls-12-donut-rabbit-level-five" d="M449.9,457c14.1,2.5,28.3,5,42.4,7.5c8.8,1.6,12.6-11.9,3.7-13.5c-14.1-2.5-28.3-5-42.4-7.5
			C444.8,442,441,455.4,449.9,457L449.9,457z"/>
	</g>
</g>
<g>
	<g>
		<path class="cls-12-donut-rabbit-level-five" d="M662.9,414.1c15-24.1,30-48.2,45.1-72.3c4.8-7.7-7.3-14.7-12.1-7.1c-15,24.1-30,48.2-45.1,72.3
			C646,414.7,658.1,421.8,662.9,414.1L662.9,414.1z"/>
	</g>
</g>
<g>
	<g>
		<path class="cls-13-donut-rabbit-level-five" d="M340.4,469.5c5,19.1,10,38.3,14.9,57.4c2.3,8.7,15.8,5,13.5-3.7c-5-19.1-10-38.3-14.9-57.4
			C351.6,457.1,338.1,460.8,340.4,469.5L340.4,469.5z"/>
	</g>
</g>
<g>
	<g>
		<path class="cls-13-donut-rabbit-level-five" d="M716.1,298.3c19.2,14.9,38.3,29.9,57.5,44.8c3,2.3,7,2.9,9.9,0c2.4-2.4,3-7.6,0-9.9
			c-19.2-14.9-38.3-29.9-57.5-44.8c-3-2.3-7-2.9-9.9,0C713.7,290.8,713.1,296,716.1,298.3L716.1,298.3z"/>
	</g>
</g>
<g>
	<g>
		<path class="cls-13-donut-rabbit-level-five" d="M1082.1,596c-15.8-10.9-31.5-21.7-47.3-32.6c-7.4-5.1-14.4,7-7.1,12.1c15.8,10.9,31.5,21.7,47.3,32.6
			C1082.5,613.2,1089.5,601.1,1082.1,596L1082.1,596z"/>
	</g>
</g>
<g>
	<g>
		<path class="cls-13-donut-rabbit-level-five" d="M570.5,524.4c17.2-14.5,34.3-29,51.5-43.5c6.9-5.8-3.1-15.7-9.9-9.9c-17.2,14.5-34.3,29-51.5,43.5
			C553.7,520.3,563.7,530.2,570.5,524.4L570.5,524.4z"/>
	</g>
</g>
<g>
	<path class="cls-8-donut-rabbit-level-five" d="M54.3,987.9c-6.5,9.6-5.3,20.8-4.7,26.3c2.2,19.5,15.5,31.4,19.3,34.6c3.6,3,26.2,21.7,48.8,11.1
		c17.3-8.1,24.8-28.6,22.4-45.7c-3.9-27.6-32.5-37.3-34.9-38.1C88.9,970.9,64.8,972.4,54.3,987.9z"/>
</g>
<path class="cls-6-donut-rabbit-level-five" d="M628.5,1224.9l25.9-56.6c1.7-3.6-1-7.8-5-7.8h-51.7c-4,0-6.7,4.2-5,7.8l25.8,56.6
	C620.5,1229.2,626.6,1229.2,628.5,1224.9z"/>
<g class="cls-14-donut-rabbit-level-five">
	<path class="cls-6-donut-rabbit-level-five" d="M188.6,499.9c0,0-52.3,55.9-94.4,151.6c-4.4,10.1-9.4,26.6-4.8,44.2c3.8,14.5,17.9,27.4,32.7,24.7
		c17.2-3.1,24.6-22.9,31.5-38.9c33.6-78.2,119-122.2,161.4-196c9.8-17,11.2-35.4,3.2-44.3c-10.4-11.5-36.2-3.7-46.3-0.7
		C243.4,449.2,220.4,466,188.6,499.9z"/>
</g>
<g class="cls-11-donut-rabbit-level-five">
	<path class="cls-6-donut-rabbit-level-five" d="M1132.4,848.1c-16.3,17.8-10.1,40.5-23.8,65.4c-10,18.3-14.5,11-26.2,29c-14,21.7-12.9,50.8-9.7,77.2
		c0.8,6.8,1.8,13.7,4.8,19.6c3,6,8.6,10.8,14.7,10.7c7.6-0.1,13.4-7.2,18.2-13.7c18.4-25,36.9-50.2,50.4-78.8
		c13.5-28.5,21.8-61,18.3-93c-2.4-21.5-10.8-26-13.2-27.2c-7.6-3.8-17-0.2-19.6,0.8C1143.7,839.3,1138.1,841.9,1132.4,848.1z"/>
</g>
<g class="cls-11-donut-rabbit-level-five">
	<path class="cls-6-donut-rabbit-level-five" d="M1159.4,819.8c-8.3,5.2-21.7,8.2-33.3,1.5c-16.8-9.6-15.5-31.1-15.3-32.7c1.3-12.6,9.5-24.1,20.5-30.3
		c7.8-4.4,17.2-6.2,25.9-4.3c2.1,0.5,15,4,20.5,15.9c5.7,12.3-0.6,24.9-4.6,32.8C1170.3,808.4,1167,815,1159.4,819.8z"/>
</g>
<g>
	<g>
		<circle class="cls-6-donut-rabbit-level-five" cx="529.5" cy="1040.9" r="69.3"/>
		<circle class="cls-10-donut-rabbit-level-five" cx="551" cy="1065.6" r="30.7"/>
		<circle class="cls-6-donut-rabbit-level-five" cx="568" cy="1068.2" r="5.1"/>
		<circle class="cls-6-donut-rabbit-level-five" cx="554.7" cy="1052.8" r="10.3"/>
	</g>
	<path class="cls-1-donut-rabbit-level-five" d="M477.7,950.1c23,16.9,45.9,33.9,68.9,50.8c6.4,4.7,12.9,9.5,19.3,14.2c3,2.2,8.4,2.5,11.9,1.6
		c3.6-1,7.5-3.8,9.2-7.1c1.9-3.6,2.8-7.9,1.6-11.9c-0.5-1.2-1-2.5-1.6-3.7c-1.4-2.3-3.2-4.2-5.5-5.5c-23-16.9-45.9-33.9-68.9-50.8
		c-6.4-4.7-12.9-9.5-19.3-14.2c-3-2.2-8.4-2.5-11.9-1.6c-3.6,1-7.5,3.8-9.2,7.1c-1.9,3.6-2.8,7.9-1.6,11.9c0.5,1.2,1,2.5,1.6,3.7
		C473.5,946.8,475.3,948.7,477.7,950.1L477.7,950.1z"/>
</g>
<g>
	<g>
		<circle class="cls-6-donut-rabbit-level-five" cx="710.5" cy="1040.9" r="69.3"/>
		<circle class="cls-10-donut-rabbit-level-five" cx="689.1" cy="1065.6" r="30.7"/>
		<circle class="cls-6-donut-rabbit-level-five" cx="672" cy="1068.2" r="5.1"/>
		<circle class="cls-6-donut-rabbit-level-five" cx="685.4" cy="1052.8" r="10.3"/>
	</g>
	<path class="cls-1-donut-rabbit-level-five" d="M762.4,950.1c-23,16.9-45.9,33.9-68.9,50.8c-6.4,4.7-12.9,9.5-19.3,14.2c-3,2.2-8.4,2.5-11.9,1.6
		c-3.6-1-7.5-3.8-9.2-7.1c-1.9-3.6-2.8-7.9-1.6-11.9c0.5-1.2,1-2.5,1.6-3.7c1.4-2.3,3.2-4.2,5.5-5.5c23-16.9,45.9-33.9,68.9-50.8
		c6.4-4.7,12.9-9.5,19.3-14.2c3-2.2,8.4-2.5,11.9-1.6c3.6,1,7.5,3.8,9.2,7.1c1.9,3.6,2.8,7.9,1.6,11.9c-0.5,1.2-1,2.5-1.6,3.7
		C766.6,946.8,764.7,948.7,762.4,950.1L762.4,950.1z"/>
</g>
<g>
	<g>
		<path class="cls-12-donut-rabbit-level-five" d="M93.9,691.2c17.2-19.3,34.5-38.7,51.7-58c6-6.7-3.9-16.6-9.9-9.9c-17.2,19.3-34.5,38.7-51.7,58
			C78,688,87.8,697.9,93.9,691.2L93.9,691.2z"/>
	</g>
</g>
<g>
	<g>
		<path class="cls-12-donut-rabbit-level-five" d="M227.2,525.1c10.8,9.2,21.6,18.3,32.4,27.5c6.8,5.8,16.8-4.1,9.9-9.9c-10.8-9.2-21.6-18.3-32.4-27.5
			C230.2,509.4,220.3,519.3,227.2,525.1L227.2,525.1z"/>
	</g>
</g>
<g>
	<g>
		<path class="cls-13-donut-rabbit-level-five" d="M176.2,541.9c2.5-15.8,5-31.6,7.6-47.4c0.6-3.8-1-7.5-4.9-8.6c-3.3-1-8,1.2-8.6,4.9
			c-2.5,15.8-5,31.6-7.6,47.4c-0.6,3.8,1,7.5,4.9,8.6C170.9,547.8,175.6,545.6,176.2,541.9L176.2,541.9z"/>
	</g>
</g>
<g>
	<g>
		<path class="cls-13-donut-rabbit-level-five" d="M161.6,741.5c15.8-4.2,31.6-8.3,47.4-12.5c8.7-2.3,5-15.8-3.7-13.5c-15.8,4.2-31.6,8.3-47.4,12.5
			C149.2,730.3,152.9,743.8,161.6,741.5L161.6,741.5z"/>
	</g>
</g>
<g>
	<g>
		<path class="cls-9-donut-rabbit-level-five" d="M908.5,327.8c0.4-0.4,0.7-0.7,1.1-1.1c40.8-39.7,45.8-84.6,63.8-151c13.3-49.4,20-74.1,28.7-87.1
			c42.7-64.2,118.7-63.3,116.9-77.2c-0.1-0.5-0.2-0.9-0.4-1.4c10.9,3.7,17.3,8,17.9,11.9c1.8,13.9-74.2,12.9-116.9,77.2
			c-8.7,13.1-15.4,37.7-28.7,87.1c-17.9,66.3-22.8,111.3-63.8,151c-0.4,0.4-0.7,0.6-1.1,1.1C861.7,400,783.7,418,750.2,410
			c-5.4-1.3-17.7-4.2-27.8-13.5c4.3,1.6,8,2.5,10.4,3.1C766.3,407.6,844.2,389.5,908.5,327.8z"/>
	</g>
	<g>
		<path class="cls-3-donut-rabbit-level-five" d="M717.8,391.6c-8.7-10.8-10.5-23.3-11.2-33.4c-2.6-45.9,18.2-95,20.7-100c24.9-50.3,54-98.5,86.7-144
			c21.3-29.7,36.6-44.6,56.2-60.1c82.7-65.5,203.2-59.3,248.2-43.9c0.2,0.5,0.3,0.9,0.4,1.4c1.8,13.9-74.2,12.9-116.9,77.2
			c-8.7,13.1-15.4,37.7-28.7,87.1c-17.9,66.3-22.8,111.3-63.8,151c-0.4,0.4-0.7,0.6-1.1,1.1c-64.3,61.7-142.2,79.7-175.7,71.7
			c-2.4-0.6-6.1-1.5-10.4-3.1C720.8,395.1,719.2,393.4,717.8,391.6z"/>
	</g>
	<g>
		<path class="cls-1-donut-rabbit-level-five" d="M746.9,328.8c22.8,5.4,75.8-6.9,119.6-48.8c3.6-3.4,50.8-48.2,58.2-115.3c2-17.8,1.3-36.3-5.5-52.9
			c-6.8-16.5-20-31.1-37.2-36.2c-18-5.3-37.8,0.3-53.3,10.9c-15.5,10.6-27.3,25.6-38.3,40.9c-22.3,31-42,63.8-59,98
			c-1.7,3.4-15.9,36.8-14.1,68c0.4,6.8,1.7,15.4,7.6,22.7C732.1,325.3,742.6,327.8,746.9,328.8z"/>
	</g>
	<g>
		<path class="cls-9-donut-rabbit-level-five" d="M992.7,185.5c9.5-2.7,16.4-10.8,21.2-19.5c4.8-8.6,8.1-18,13.7-26.2c14.8-21.5,46-29.2,69.5-18.4
			c0.7,0.3,1.3,0,1.5-0.6c1.5,1.4,3,2.8,4.3,4.1c0.9,0.9-0.1,2.4-1.3,1.9c-23.5-10.8-54.7-3.1-69.5,18.4
			c-5.6,8.1-8.9,17.5-13.7,26.2c-4.8,8.6-11.7,16.8-21.2,19.5c-10.6,3-22.8-5.6-31-16.5C974,182.5,983.9,187.9,992.7,185.5z"/>
	</g>
	<g>
		<path class="cls-3-donut-rabbit-level-five" d="M967.9,111.7c5.2-7.3,10.8-11.6,12.1-12.6c23.9-17.6,57-8.8,69.3-5.5c22.2,5.9,38.5,17.5,49.3,27.2
			c-0.3,0.5-0.9,0.8-1.5,0.6c-23.5-10.8-54.7-3.1-69.5,18.4c-5.6,8.1-8.9,17.5-13.7,26.2c-4.8,8.6-11.7,16.8-21.2,19.5
			c-8.8,2.4-18.6-2.9-26.4-11.1c-2.7-3.6-5-7.6-6.6-11.5C949.6,138.5,965.7,114.7,967.9,111.7z"/>
	</g>
	<circle class="cls-6-donut-rabbit-level-five" cx="789.3" cy="316.2" r="39.5"/>
	<circle class="cls-10-donut-rabbit-level-five" cx="801.1" cy="309" r="13.3"/>
	<g class="cls-11-donut-rabbit-level-five">
		<path class="cls-6-donut-rabbit-level-five" d="M764.4,261.5c3,13.1-17.4,25.1-23.8,47.5c-5.3,18.5-2.2,48.1-6.3,52.4c-1.3,1.3-2.6,1.4-2.6,1.4
			c-2.4,0.2-4.5-2.4-5.3-3.4c-2.7-3.3-3.5-7.7-4-11.9c-3.7-28.7,2.7-58.6,17.9-83.2c1.1-1.8,3.1-6.7,8.1-9.3c0.6-0.3,7-3.5,11.7-0.6
			C763.2,256.4,764.1,260.2,764.4,261.5z"/>
	</g>
	<g class="cls-11-donut-rabbit-level-five">
		<path class="cls-6-donut-rabbit-level-five" d="M1015.6,92.7c-8,0.3-32.1,4.7-42.6,24.9c-1.5,3-5,9.8-2.4,13.3c3.2,4.2,9.8,2.7,14.7,0.8
			c8.5-3.4,17-6.6,25.6-10c12.4-4.8,17.2-10.1,17.7-15.8c0.3-4.1-1.9-9.1-5.7-11.5C1020.3,92.7,1017.5,92.7,1015.6,92.7z"/>
	</g>
	<g class="cls-11-donut-rabbit-level-five">
		<path class="cls-6-donut-rabbit-level-five" d="M758.2,242.6c4.9,4.8,13.8,4.3,19-0.7c4.8-4.5,6.6-12.9,2-18.6c-4.6-5.6-13-5.5-18.2-1.9
			C754.2,226.1,752.5,236.9,758.2,242.6z"/>
	</g>
</g>
<g>
	<g>
		<path class="cls-8-donut-rabbit-level-five" d="M1033.3,1809.5c1.9,0,1.9-3,0-3S1031.4,1809.5,1033.3,1809.5L1033.3,1809.5z"/>
	</g>
</g>
<ellipse transform="matrix(0.9028 -0.4301 0.4301 0.9028 -502.9684 211.5808)" class="cls-1-donut-rabbit-level-five" cx="216.5" cy="1218.4" rx="171.1" ry="165.8"/>
<ellipse class="cls-15-donut-rabbit-level-five" cx="314" cy="1205.7" rx="199.3" ry="158.5"/>
<g>
	
		<radialGradient id="SVGID_1_donut-rabbit-level-five" cx="331.7679" cy="656.7074" r="177.0683" fx="418.9732" fy="625.335" gradientTransform="matrix(1 0 0 -1 0 1833.7885)" gradientUnits="userSpaceOnUse">
		<stop  offset="0" style="stop-color:#F72165"/>
		<stop  offset="0.7883" style="stop-color:#FF6E73"/>
	</radialGradient>
	<path class="cls-16-donut-rabbit-level-five" d="M390.8,1029.6c-66.8-17-123.3,4.7-147,15.9c-30.3,14.4-92.3,43.8-106.8,110.4c-14.2,65.3,28.6,117,33.2,122.4
		c21.1,24.7,66.9,61.2,107.2,50.7c20.8-5.5,29.3-20.6,62.7-25.5c4.1-0.6,19.1-2.6,38.6-0.4c28.6,3.2,34.8,11.7,52,11.9
		c24.3,0.3,42.7-16.3,54.5-26.8c44.8-39.8,44.3-100,44.2-105c-1.3-55.3-35.9-90.7-48.6-103.7
		C446.8,1044.4,407.6,1033.9,390.8,1029.6z"/>
</g>
<g class="cls-17-donut-rabbit-level-five">
	<path class="cls-18-donut-rabbit-level-five" d="M264.4,1176.1c-6,2.9-15.8,8.2-25.9,17.5c-11,10.2-26.5,25.8-27.8,48.7c-1.1,19.2,9.7,39.5,27.6,46.5
		c26.8,10.5,54.6-9.3,80.9-21.1c25.1-11.3,53.4-15.6,80.7-12.2c20.2,2.5,43.5,8.2,58.8-5.3c10.9-9.6,13.1-26.7,8.1-40.3
		c-2.4-6.6-6.9-19.4-27.7-33C380.9,1138.7,300.1,1158.7,264.4,1176.1z"/>
</g>
<g class="cls-14-donut-rabbit-level-five">
	<path class="cls-6-donut-rabbit-level-five" d="M413.6,1072.3c-29.5-20-62.3-13.2-73.4-10.1c-8.4,2.3-27.1,7.7-28.7,18.1c-1.9,12.1,10.9,21.5,22.9,24.3
		c11.9,2.8,25.2,2.6,35.1,9.8c13.9,10.1,16.7,31.6,31.8,39.8c11.3,6.1,28.1-0.1,36.5-10.5c11.4-14.1,4.5-33.4,2.2-39.9
		C433.9,1086.3,420.6,1077,413.6,1072.3z"/>
</g>
<g class="cls-14-donut-rabbit-level-five">
	<path class="cls-6-donut-rabbit-level-five" d="M249.6,1086.8c-5.8,8.1,1.6,26.9,12.7,28.3s23-14.9,19.4-24.2C277.8,1080.9,255.8,1078.1,249.6,1086.8z"/>
</g>
<g class="cls-17-donut-rabbit-level-five">
	<path class="cls-18-donut-rabbit-level-five" d="M272,1216.4c-3.7,1.5-9.6,4.2-15.7,8.9c-6.7,5.2-16.1,13.1-16.9,24.7c-0.7,9.8,5.9,20,16.8,23.6
		c16.2,5.3,33.1-4.7,49-10.7c15.2-5.7,32.4-7.9,48.9-6.2c12.3,1.3,26.4,4.2,35.6-2.7c6.6-4.9,7.9-13.5,4.9-20.5
		c-1.5-3.3-4.2-9.8-16.8-16.7C342.6,1197.4,293.7,1207.6,272,1216.4z"/>
</g>
<ellipse transform="matrix(0.4301 -0.9028 0.9028 0.4301 -515.6263 1612.8229)" class="cls-1-donut-rabbit-level-five" cx="1019.6" cy="1214.8" rx="165.8" ry="171.1"/>
<ellipse class="cls-15-donut-rabbit-level-five" cx="922" cy="1202.1" rx="199.3" ry="158.5"/>
<g>
	
		<radialGradient id="SVGID_00000139992350657339084220000017589234633319174292_donut-rabbit-level-five" cx="539.1499" cy="660.3574" r="177.0465" fx="626.3445" fy="628.9888" gradientTransform="matrix(-1 0 0 -1 1443.379 1833.7885)" gradientUnits="userSpaceOnUse">
		<stop  offset="0" style="stop-color:#F72165"/>
		<stop  offset="0.7883" style="stop-color:#FF6E73"/>
	</radialGradient>
	<path style="fill:url(#SVGID_00000139992350657339084220000017589234633319174292_donut-rabbit-level-five);" d="M845.3,1026c66.8-17,123.3,4.7,147,15.9
		c30.3,14.3,92.3,43.8,106.7,110.3c14.2,65.3-28.6,117-33.2,122.4c-21.1,24.7-66.9,61.2-107.2,50.7c-20.8-5.5-29.3-20.6-62.7-25.5
		c-4.1-0.6-19.1-2.6-38.6-0.4c-28.6,3.2-34.8,11.7-52,11.9c-24.3,0.3-42.7-16.3-54.5-26.8c-44.8-39.8-44.3-100-44.2-105
		c1.3-55.3,35.9-90.7,48.6-103.7C789.3,1040.8,828.5,1030.3,845.3,1026z"/>
</g>
<g class="cls-17-donut-rabbit-level-five">
	<path class="cls-18-donut-rabbit-level-five" d="M971.7,1172.4c6,2.9,15.8,8.2,25.9,17.5c11,10.2,26.5,25.8,27.8,48.7c1.1,19.2-9.7,39.5-27.6,46.5
		c-26.8,10.5-54.6-9.3-80.9-21.1c-25.1-11.3-53.4-15.6-80.7-12.2c-20.2,2.5-43.5,8.2-58.8-5.3c-10.9-9.6-13.1-26.7-8.1-40.3
		c2.4-6.6,6.9-19.4,27.7-33C855.2,1135.1,935.9,1155.1,971.7,1172.4z"/>
</g>
<g class="cls-14-donut-rabbit-level-five">
	<path class="cls-6-donut-rabbit-level-five" d="M822.4,1068.7c29.5-20,62.3-13.2,73.4-10.1c8.4,2.3,27.1,7.7,28.7,18.1c1.9,12.1-10.9,21.5-22.9,24.3
		c-11.9,2.8-25.2,2.6-35.1,9.8c-13.9,10.1-16.7,31.6-31.8,39.8c-11.3,6.1-28.1-0.1-36.5-10.5c-11.4-14.1-4.5-33.4-2.2-39.9
		C802.1,1082.7,815.4,1073.4,822.4,1068.7z"/>
</g>
<g class="cls-14-donut-rabbit-level-five">
	<path class="cls-6-donut-rabbit-level-five" d="M986.5,1083.2c5.8,8.1-1.6,26.9-12.7,28.3s-23-14.9-19.4-24.2C958.2,1077.3,980.2,1074.5,986.5,1083.2z"/>
</g>
<g class="cls-17-donut-rabbit-level-five">
	<path class="cls-18-donut-rabbit-level-five" d="M964.1,1212.8c3.7,1.5,9.6,4.2,15.7,8.9c6.7,5.2,16.1,13.1,16.9,24.7c0.7,9.8-5.9,20-16.8,23.6
		c-16.2,5.3-33.1-4.7-49-10.7c-15.2-5.7-32.4-7.9-48.9-6.2c-12.3,1.3-26.4,4.2-35.6-2.7c-6.6-4.9-7.9-13.5-4.9-20.5
		c1.5-3.3,4.2-9.8,16.8-16.7C893.4,1193.8,942.4,1204,964.1,1212.8z"/>
</g>
<g>
	<g>
		<path class="cls-10-donut-rabbit-level-five" d="M560.2,1188c1.2-1.1,2.4-2.1,3.6-3.1c0.3-0.3,0.6-0.5,0.9-0.8c0.3-0.2,1.4-1,0,0c0.7-0.5,1.3-1,1.9-1.4
			c2.6-1.9,5.3-3.6,8-5.2c2.8-1.6,5.6-3.1,8.5-4.4c0.7-0.3,1.5-0.8,2.2-1c-1.5,0.3-0.4,0.2,0,0c0.2-0.1,0.5-0.2,0.7-0.3
			c1.6-0.6,3.2-1.2,4.9-1.8c3-1,6.1-1.9,9.2-2.6c1.4-0.3,2.9-0.6,4.3-0.9c0.8-0.1,1.6-0.3,2.4-0.4c0.4-0.1,0.8-0.1,1.2-0.2
			c0.3,0,0.5-0.1,0.8-0.1c-0.3,0-0.5,0.1-0.8,0.1c0.2,0.2,2-0.2,2.4-0.3c0.8-0.1,1.6-0.2,2.4-0.2c1.6-0.1,3.2-0.2,4.8-0.3
			c3.2-0.1,6.4,0,9.6,0.2c1.6,0.1,3.2,0.3,4.8,0.5c0.4,0,1.1,0-0.4-0.1c0.5,0,1,0.1,1.4,0.2c1.1,0.2,2.2,0.4,3.3,0.6
			c3.7,0.7,7.5,1.6,11.2,2.5c7.2,1.7,14.4,3.6,21.7,4.7c13.8,2,29.4,1.4,41-7.4c11.8-8.9,18.2-25.3,11.1-39.2
			c-1.4-2.8-5.6-3.8-8.2-2.2c-2.9,1.8-3.7,5.2-2.2,8.2c0.2,0.3,0.3,0.6,0.5,0.9c0.6,1.1-0.5-1.4-0.1-0.2c0.2,0.6,0.4,1.3,0.6,1.9
			c0.1,0.5,0.2,1.1,0.4,1.6c0.2,1.2-0.1-1.5,0-0.3c0,0.4,0.1,0.9,0.1,1.3c0,1.3-0.1,2.5-0.2,3.7c0.1-1.8,0.1-0.7,0-0.2
			c-0.1,0.3-0.1,0.7-0.2,1c-0.2,0.7-0.3,1.3-0.5,2s-0.4,1.3-0.7,2c-0.4,1.1,0.5-1.1,0.1-0.3c-0.1,0.3-0.2,0.5-0.4,0.8
			c-0.6,1.3-1.3,2.5-2.1,3.7c-0.2,0.3-0.4,0.6-0.6,0.9c-0.4,0.5-1,0.8,0.1-0.1c-0.5,0.4-0.9,1.1-1.4,1.6c-1,1-2,2-3.1,2.9
			c-1,0.8,1.1-0.8,0.1-0.1c-0.2,0.1-0.4,0.3-0.6,0.4c-0.6,0.4-1.3,0.9-2,1.3s-1.4,0.8-2.2,1.2c-0.2,0.1-0.5,0.2-0.7,0.4
			c-0.2,0.1-0.5,0.2-0.7,0.3c0.8-0.3,0.9-0.4,0.3-0.1c-3,1.1-6.1,2-9.3,2.5c-0.1,0-0.1,0-0.2,0c-0.7,0.1-0.5,0.1,0.4,0
			c-0.3,0.1-0.9,0.1-1.2,0.1c-0.8,0.1-1.7,0.2-2.5,0.2c-1.7,0.1-3.3,0.1-5,0.1c-1.5,0-3.1-0.1-4.6-0.2c-0.8-0.1-1.7-0.2-2.5-0.3
			c-0.3,0-0.6-0.1-0.8-0.1c-0.7-0.1-0.5-0.1,0.4,0c-0.3,0-0.5-0.1-0.8-0.1c-14.8-2.2-28.9-7.4-43.9-8.6c-12.7-1-25.8,0.6-37.9,4.5
			c-14.1,4.5-27.2,11.9-38.2,21.8c-2.3,2.1-2.3,6.4,0,8.5C554.2,1190.3,557.7,1190.2,560.2,1188L560.2,1188z"/>
	</g>
</g>
</svg>
