<?xml version="1.0" encoding="utf-8"?>
<!-- Generator: Adobe Illustrator 25.4.1, SVG Export Plug-In . SVG Version: 6.00 Build 0)  -->
<svg version="1.1" id="레이어_1" xmlns="http://www.w3.org/2000/svg" xmlns:xlink="http://www.w3.org/1999/xlink" x="0px"
	 y="0px" viewBox="0 0 1654.7 1278" style="enable-background:new 0 0 1654.7 1278;" xml:space="preserve">
<style type="text/css">
	.st0{fill:#87FF7B;}
	.st1{fill:#00F082;}
	.st2{fill:#663606;}
	.st3{fill:#625300;}
	.st4{fill:#528C00;}
	.st5{fill:#D11022;}
	.st6{fill:#FD0300;}
	.st7{fill:#7C0D17;}
	.st8{fill:#C9354E;}
	.st9{fill:#FFC2FF;}
	.st10{fill:#070707;}
	.st11{fill:#FF8033;}
	.st12{fill:#FDD301;}
	.st13{fill:#FC4401;}
	.st14{fill:#FFFFFF;}
	.st15{opacity:0.2;}
	.st16{opacity:0.3;}
	.st17{fill:#E72500;}
	.st18{opacity:0.15;}
	.st19{opacity:0.3;fill:#FFFFFF;enable-background:new;}
	.st20{opacity:0.6;fill:#FFFFFF;enable-background:new;}
	.st21{opacity:0.2;fill:#FFFFFF;enable-background:new;}
	.st22{opacity:0.8;fill:#FFFFFF;enable-background:new;}
</style>
<g>
	<path class="st0" d="M630.9,69.3c3.1,34.8,25,65.1,57,78.9c0.2-9.1-1.8-18-5.7-26.2c-4-8.1-9.8-15.3-16.9-20.8
		c-8.8-7.1-12.6-6.4-20.3-13C639,82.9,634.2,76.5,630.9,69.3z"/>
	<path class="st0" d="M682.2,207.9c-1-9.5-5.8-43.5-34.7-70.5c-21.1-19.8-44.4-25.9-54.9-28c5.8,4.1,11,8.8,15.6,14.2
		c7.1,8.4,9.9,15.6,16.5,31.1c9.5,22.2,14.3,33.4,16.8,36.3C647.7,198.2,659.2,206.1,682.2,207.9z"/>
	<path class="st0" d="M610.5,205.3c9.5,5.6,18.2,12.5,25.8,20.4c10.8,11.2,14.1,18.9,22.7,20.9c5.5,1.2,13.8,0.3,25.9-10
		c-7.4-1.1-14.4-3.8-20.6-7.9c-8.5-5.8-10.6-11.3-16.2-16.1C642,207.3,631.1,202.6,610.5,205.3z"/>
	<path class="st0" d="M689,279.6c-11.2-2.3-16.5-9.4-23.3-13.8c-6.9-4.4-18.2-8-38.1-3.6c4.5,10.7,11.6,20.1,20.7,27.4
		c8.2,6.4,18.5,14.5,31.2,11.9c15.3-3.2,22.2-19.6,23.1-21.7C698.1,280.5,693.5,280.5,689,279.6z"/>
	<path class="st0" d="M689.7,101.3c-2.6-1.6-19.6-13-22.7-35c-3.7-26.6,16.6-44.1,17.9-45.2c-1.3,22.7,3.2,37.2,7.9,46.4
		c2,4,6.7,12.1,4.6,21.2C696.1,94.6,692.5,98.8,689.7,101.3z"/>
	<path class="st1" d="M735.3,238.8c16.6,40.5,50.2,73.9,90.9,90.9l1.5-0.7c-8.9-8.2-21.1-21.7-28.4-41.1
		c-10.9-28.9-1.8-46.6-5.4-75.4c-4.4-35.8-23.1-47.7-43.6-83.9C735.2,101.8,718.5,60.5,715.1,0c-0.5,0.8-1,1.6-1.5,2.4
		c1.4,40.8,2.8,81.5,4.2,122.3C719.1,163.4,720.6,202.9,735.3,238.8z"/>
	<path class="st0" d="M735.3,238.8c-14.7-35.9-16.2-75.5-17.5-114.1C716.4,84,715,43.2,713.6,2.4c-38.8,62.6-52.2,118.4-57.5,152.9
		c-9.5,62.1,1.5,91.9,4.7,99.9c5,12.4,21.5,53.8,67.1,73.9c45.2,19.9,87.2,5.1,98.3,0.6C785.5,312.7,751.9,279.3,735.3,238.8z"/>
	<path class="st1" d="M709.6,76.4c-3.6,9.2-10.8,16.5-19.9,20.3c8.2,3.9,15.3,9.7,20.7,16.9L709.6,76.4z"/>
	<path class="st1" d="M708.5,123c-3.6,9.2-10.8,16.5-20,20.3c8.2,3.9,15.3,9.7,20.7,16.9L708.5,123z"/>
	<path class="st1" d="M707,169.4c-2.3,9.6-8.4,17.9-16.9,22.9c8.6,2.7,16.5,7.5,22.9,13.9L707,169.4z"/>
	<path class="st1" d="M715.3,216.7c-1.2,9.8-6.3,18.7-14.2,24.7c8.9,1.7,17.2,5.5,24.3,11.2L715.3,216.7z"/>
	<path class="st1" d="M727.6,261.2c1.5,9.8-1,19.7-6.9,27.6c9-0.8,18.1,0.6,26.4,4.1L727.6,261.2z"/>
	<path class="st1" d="M752.7,297.1c5.2,8.4,6.7,18.6,4.3,28.2c8-4.2,16.9-6.4,26-6.4L752.7,297.1z"/>
	<path class="st2" d="M856.5,254.8c25.2-33.9,61.7-59.2,102.2-71.3L920.5,152c-15.9,7.9-68.6,36.5-98.1,100.7
		c-25.2,55-19.1,105-15.8,123.7l10.9,0.7C816.7,333.5,830.5,289.7,856.5,254.8z"/>
	<path class="st3" d="M958.7,183.5c-40.5,12.1-76.9,37.4-102.2,71.3c-26,34.9-39.8,78.7-38.9,122.2l1.5,0.1
		c6.1-22.1,27.4-88.3,92.4-132.7c24.2-16.4,51.4-27.9,80-33.8L958.7,183.5z"/>
	<path class="st4" d="M920.5,152c-2.8,3.6-2.1,8.3-1.3,13c4.9,32.6,50.3,43.7,60.2,46.1c3.8,0.9,8.3,1.8,12.2-0.5
		c8.4-4.8,9.6-21.2,6-31.7C987.5,149.5,931.3,137.8,920.5,152z"/>
	<path class="st0" d="M926,146.5c-2.8,3.6-2.1,8.3-1.3,13c4.9,32.6,50.3,43.7,60.2,46.1c3.8,0.9,8.3,1.8,12.2-0.5
		c8.4-4.8,9.6-21.2,6-31.7C993,144,936.8,132.4,926,146.5z"/>
	<path class="st3" d="M922.4,180.9c0.6,1.5,1.4,3,2.3,4.3c1.3,1.8,2.8,3.4,4.5,4.8c-14.2,5-27.2,13-38.1,23.4l-0.9-1l-0.9-1
		L922.4,180.9z"/>
</g>
<path class="st5" d="M1359.9,709.5c-30,139.7-104.1,229-159.8,290.2c-122.8,135-266.9,197.2-364.5,226.7v1.2l-2.2-0.5l-2.2,0.7v-1.2
	c-99.1-24.3-246.2-78.6-376.1-206.9c-58.8-58.1-137.6-143.3-175-281.2c-6.3-23.2-15.5-61.5-18.2-107.6
	c-4.2,68.7,9.7,127.8,18.2,159.2c37.4,137.9,116.2,223.2,175,281.2c129.9,128.3,277,182.6,376.1,206.9v1.2l2.2-0.6l2.2,0.5v-1.2
	c97.6-29.5,241.7-91.7,364.5-226.7c55.6-61.1,129.8-150.5,159.8-290.2c6-28.1,15.1-77.9,11.7-136.2
	C1370,653.3,1366.1,681.7,1359.9,709.5z"/>
<path class="st6" d="M1307.6,420.8c-94.2-132.2-246.7-143.9-278-145.4c-107-5.3-187.1,38.2-220.9,59.4
	c-34.8-19.4-117.2-58.5-223.7-47.5c-31.2,3.2-182.9,23-269.9,160.1c-47.9,75.5-56.9,155.4-53.1,220c0.4-5.8,0.9-11.7,1.5-17.7
	c3.1,30,8.7,59.8,16.7,88.9c37.4,137.9,116.2,223.2,175,281.2c129.9,128.2,277,182.6,376.1,206.9v1.2l2.2-0.7l2.2,0.5v-1.2
	c97.6-29.5,241.7-91.7,364.5-226.7c55.6-61.2,129.8-150.5,159.8-290.2c4.7-21.8,8.2-43.8,10.3-66c0.6,6,1.1,11.9,1.4,17.7
	C1375.5,593,1366,502.7,1307.6,420.8z"/>
<path class="st7" d="M838.7,1062.9c13.3-33.9,46.4-55.8,82.8-54.8c1.3-8.5,2.5-17.7,3.8-28c2-15.5,3.3-31.1,3.7-46.7
	c0.1-2.4-1.8-4.4-4.2-4.4c-1.5,0-2.8,0.7-3.7,1.9c-10.5,14.6-27,23.5-44.3,23c-26.5-0.7-41.5-23.1-42.9-25.2l-0.1,0.1l-0.1-0.1
	c-1.3,2.1-16.3,24.5-42.9,25.2c-17.2,0.5-33.8-8.4-44.2-23c-1.4-2-4-2.4-6-1.1c-1.2,0.8-1.9,2.2-1.9,3.7c0.5,15.6,1.7,31.2,3.7,46.7
	c6.2,47.6,9.6,74.4,29.1,98C791,1064.2,815.2,1058.7,838.7,1062.9z"/>
<path class="st8" d="M877.4,1018.8c-17.6,9.8-31.3,25.4-38.8,44.1c-23.5-4.2-47.7,1.3-67.1,15.2c0.3,0.4,0.6,0.8,0.9,1.1
	c3.7,4.3,27.7,32.6,60.8,36.5c0.4,0,0.7,0,1.1,0c33.1-3.9,57.1-32.2,60.8-36.5c16-18.8,21.5-39.6,26.2-71.2
	C906.1,1007.7,890.9,1011.4,877.4,1018.8z"/>
<path class="st5" d="M822.2,356.1c17,11.2,31.7,25.6,43.1,42.4c5.5,8.2,18.3,28.9,25,65.8c10.7,59.5-3.7,109-2.6,109.2
	c2.2,0.3,1.6-72.7,42.6-142.1c32.6-55.2,76-82.2,85.1-87.7c34.1-20.4,72.7-32.1,112.4-34C1024,280.4,912.6,297.3,822.2,356.1
	L822.2,356.1z"/>
<path class="st5" d="M348.1,934.1c-8.5-12.5-145.7-221.7-38.3-429c12.4-24,33.1-62.8,72.1-100.5c20.4-19.3,43.1-36.1,67.4-50.1
	c86.7-49.6,180.5-49,222.5-46.2c-56,21-108,51.3-153.8,89.7c-14,11.8-98.2,83.7-140.6,184.7c-88.4,210.5,52.2,433.5,66.4,455.4
	C417.8,1016.6,381,982.4,348.1,934.1z"/>
<path class="st9" d="M908.1,946.8L908.1,946.8c0.3-0.7,0-1.5-0.7-1.8c-0.4-0.2-0.9-0.1-1.3,0.1c-8.6,5.8-18.9,8.8-29.3,8.6
	c-1.1,0-2.3-0.1-3.4-0.2c-0.8-0.1-1.4,0.5-1.5,1.3c0,0.2,0,0.4,0.1,0.6l5.2,12l7.9,18.2c0.7,1.7,2.7,2.5,4.4,1.8
	c0.8-0.3,1.4-1,1.8-1.8"/>
<path class="st9" d="M792.4,1065.8l1.9-7.5c1.5-5.7-2-11.6-7.7-13c-2.4-0.6-4.9-0.4-7.2,0.6l-7,3.3l-6.8,3.2
	c-4.1,1.9-5.9,6.8-4,10.9c0.1,0.1,0.1,0.3,0.2,0.4c3,5.6,6.6,10.8,10.7,15.6c4,4.7,8.3,9.1,13,13.2c0.1-0.2,0.2-0.3,0.2-0.5
	L792.4,1065.8z"/>
<path class="st9" d="M889.1,1045.9c-5.4-2.5-11.7-0.1-14.2,5.2c-1,2.2-1.3,4.8-0.6,7.2l1.9,7.5l3.1,12.1c1.1,4.4,5.6,7,10,5.9
	c1.6-0.4,3-1.3,4.1-2.5c0.8-0.9,1.4-1.6,1.8-2c4.2-4.9,7.8-10.3,10.9-16c2.1-4,0.6-9-3.4-11.1c-0.1-0.1-0.3-0.1-0.4-0.2l-6.1-2.8
	L889.1,1045.9z"/>
<path class="st9" d="M759.6,946.8l8.9,20.6l1.7,3.9c2.2,5.1,8.2,7.5,13.3,5.3c2.4-1,4.2-2.9,5.3-5.3l1.7-3.9l5.2-12
	c0.3-0.7,0-1.5-0.7-1.8c-0.2-0.1-0.5-0.1-0.7-0.1c-1.1,0.1-2.2,0.2-3.4,0.2c-10.4,0.2-20.6-2.8-29.3-8.6c-0.6-0.4-1.5-0.3-1.9,0.3
	C759.5,945.9,759.4,946.4,759.6,946.8L759.6,946.8z"/>
<path class="st10" d="M831.2,902.6l-0.7,28.5c-0.1,3.9,5.9,3.9,6,0l0.7-28.5C837.2,898.8,831.2,898.8,831.2,902.6z"/>
<path class="st10" d="M733.3,922.6c7.7,13.7,20.2,24.2,35.1,29.5c15.3,5.5,32,4.3,46.8-2.1c8.2-3.6,15.6-8.9,21.5-15.6
	c1.6-1.8,1.9-4.7,0-6.4s-4.7-1.9-6.4,0c-1.2,1.3-2.5,2.7-3.8,3.9c-0.7,0.6-1.3,1.2-2,1.8c-0.3,0.3-0.7,0.6-1,0.9l-0.5,0.4
	c-0.7,0.5,0.3-0.2-0.2,0.1c-2.9,2.1-6,4.1-9.2,5.7c-0.8,0.4-1.6,0.8-2.5,1.2c-0.2,0.1-1.4,0.6-0.5,0.2l-1.5,0.6
	c-1.7,0.7-3.4,1.2-5.2,1.7s-3.5,0.9-5.3,1.3c-0.9,0.2-1.8,0.3-2.7,0.4c0.8-0.1,0,0-0.3,0l-1.5,0.2c-3.7,0.3-7.3,0.3-11-0.1l-1.3-0.2
	c0.8,0.1,0.1,0-0.3,0c-0.9-0.2-1.8-0.3-2.8-0.5c-1.7-0.4-3.4-0.8-5.1-1.3c-1.7-0.5-3.4-1.2-5.1-1.8c-0.8-0.3,0.5,0.2-0.3-0.1
	l-1.2-0.5c-0.9-0.4-1.7-0.8-2.5-1.2c-3.1-1.6-6.1-3.5-8.9-5.6c0.8,0.6-0.4-0.3-0.6-0.4l-1.2-1c-0.8-0.7-1.5-1.3-2.2-2
	c-1.5-1.4-2.8-2.8-4.2-4.3c-0.7-0.8-1.3-1.5-1.9-2.3c0.5,0.7-0.2-0.2-0.3-0.4l-0.9-1.2c-1.2-1.7-2.3-3.4-3.3-5.3
	c-1.2-2.2-4-2.9-6.1-1.7c-2.2,1.2-2.9,4-1.7,6.1c0,0,0,0.1,0.1,0.1L733.3,922.6z"/>
<path class="st10" d="M829.7,902.6l0.7,28.5c0,2.5,2,4.5,4.5,4.5s4.5-2,4.5-4.5l-0.7-28.5c0-2.5-2-4.5-4.5-4.5
	S829.7,900.1,829.7,902.6z"/>
<path class="st10" d="M927.3,918c-0.9,1.5-1.8,3-2.7,4.5c-0.5,0.7-1,1.4-1.5,2.1l-0.3,0.4c-0.4,0.5,0.4-0.5,0,0s-0.6,0.8-0.9,1.2
	c-2.2,2.7-4.7,5.2-7.4,7.4l-1,0.8c-0.2,0.1-1.1,0.9-0.7,0.6l-0.7,0.6l-1.2,0.9c-1.4,1-2.9,1.9-4.5,2.8s-3.1,1.7-4.7,2.4l-1.2,0.5
	l-0.5,0.2c0.2-0.1,0.8-0.3,0,0s-1.6,0.6-2.5,0.9c-3.4,1.2-6.8,2.1-10.3,2.6c-0.2,0-1.5,0.2-0.5,0.1l-1.1,0.1c-1,0.1-1.9,0.2-2.9,0.2
	c-1.8,0.1-3.6,0.1-5.4,0c-0.9,0-1.8-0.1-2.7-0.2c-0.5,0-0.9-0.1-1.4-0.1c-0.3,0-1.7-0.2-0.7-0.1c-1.8-0.3-3.6-0.6-5.3-1
	s-3.5-0.9-5.2-1.5c-0.9-0.3-1.7-0.6-2.6-0.9l-1.1-0.4c-0.8-0.3-0.2-0.1,0,0l-0.7-0.3c-3.8-1.7-7.4-3.7-10.8-6.2l-1.2-0.9
	c0,0,0.5,0.4,0.1,0.1l-0.8-0.6c-0.8-0.6-1.5-1.2-2.2-1.9c-1.6-1.4-3.1-2.9-4.5-4.5c-1.8-1.7-4.6-1.7-6.4,0c-1.7,1.8-1.7,4.6,0,6.4
	c11,12.1,26.1,19.5,42.3,21c15.6,1.3,31.2-3.3,43.6-12.8c7.1-5.4,13.1-12.2,17.4-20c1.3-2.1,0.6-4.9-1.5-6.2S928.6,915.8,927.3,918
	C927.3,918,927.3,918,927.3,918L927.3,918z"/>
<path class="st11" d="M834.2,904.2c24.2,0.5,28.5,1,31.3-2.4c4.8-5.9,0.4-17.9-6.8-24.7c-12.4-11.6-36.6-10.8-48.9,0.4
	c-6.6,6-11.9,17-7.6,22.9C804.8,904,809.4,903.7,834.2,904.2z"/>
<path class="st12" d="M834,894.1c17.1,0.4,20.2,0.7,22.1-1.7c3.4-4.2,0.3-12.7-4.8-17.4c-8.8-8.2-25.8-7.6-34.5,0.3
	c-4.7,4.3-8.4,12-5.4,16.2C813.2,894,816.5,893.7,834,894.1z"/>
<circle class="st13" cx="1103.6" cy="953.7" r="50.4"/>
<circle class="st13" cx="586.1" cy="952.1" r="50.4"/>
<path class="st14" d="M819.1,877.7c-0.1,0.1-1.6,2.6-0.2,4.7s4.3,1.9,4.5,1.9c1.8-0.2,4-1.5,4.3-3.8c0.3-2.1-0.9-4-2.8-4.8
	C822.7,874.9,820.3,875.7,819.1,877.7z"/>
<g class="st15">
	<path class="st14" d="M768,342.5c-12.5-6.3-53.7-27.3-87.4-14.3c-3.6,1.4-23.7,9.6-23.9,22s19.1,21.6,23.7,22.7
		c12.4,3,25.7,2.2,38.4,4.3c26,4.3,47.4,20.6,60.7,40s19.6,41.5,24.7,63.4c6.2,26.5,18.7,28.3,23.4,28.5c11.4,0.5,22.5-16.6,27-27.9
		C872.8,435.3,826.4,372.1,768,342.5z"/>
</g>
<g class="st16">
	<path class="st14" d="M839.2,525.4c-12.6,0.7-23.1,14.2-20.6,27.6c2.4,12.8,16.1,22.2,28.5,18.4s17.7-19.2,13.6-30.7
		C857.7,532.2,849,524.9,839.2,525.4z"/>
</g>
<g class="st15">
	<path class="st14" d="M1216.5,365c-3.9-5.2-35.7-46.3-73.2-40.9c-4.9,0.7-14.1,2.2-20.9,9.9c-8.4,9.5-7.2,21.7-6.8,23.1
		c2.1,8.3,7.5,15.3,13,21.7c10.8,12.6,22.8,24.3,35.8,34.7c7.1,5.7,14.6,11.2,23.4,13.7c2.9,0.8,15.2,3,25.8-4.2
		c13.4-9.1,14.9-27.4,12.6-38.8C1225.1,378.7,1222.7,373.1,1216.5,365z"/>
</g>
<path class="st5" d="M418.1,582.3c-21.1,87-103.8,168.1-206.6,166.6c-103.7-1.5-171.3-86-196.3-150.2c-30.3-77.9-7.2-150,1-174.7
	c20-59.4,55.2-97.8,75-116.5c27.4,38.7,54,51.2,73.4,55.4c48.7,10.5,84.2-24.5,150.4-7.1c7.3,1.9,18.5,4.8,30.5,11.4
	C407.3,400.8,437.8,501,418.1,582.3z"/>
<path class="st6" d="M396.7,431.2c-20.4-40.9-56.9-76.2-101.8-84.2c-22.3-4-45.1-1.2-67.7-2.7c-7.7-0.5-15.4-1.7-22.8-3.6
	c-7.4,0.2-14.8-0.4-22.1-2c-19.4-4.2-46-16.7-73.4-55.4C89,302,53.8,340.4,33.9,399.8c-8.3,24.8-31.4,96.9-1.1,174.7
	c25,64.2,92.7,148.7,196.3,150.2c93.8,1.3,170.8-66.1,199.6-144c-0.2-5.4-0.5-11-0.9-16.8C424.3,513.1,418.3,474.7,396.7,431.2z"/>
<path class="st5" d="M363.1,342.9c-12-6.5-23.2-9.5-30.5-11.4c-55.8-14.6-89.8,8-128.3,9.1c7.5,1.9,15.1,3.1,22.8,3.6
	c22.6,1.5,45.5-1.3,67.7,2.7c45,8,81.5,43.3,101.8,84.2c21.6,43.5,27.6,82,31.2,132.7c0.4,5.8,0.7,11.4,0.9,16.8
	c2.7-7.4,5.1-14.9,6.9-22.6C455.5,476.8,424.9,376.5,363.1,342.9z"/>
<circle class="st17" cx="250" cy="558.1" r="137.9"/>
<circle class="st13" cx="265.4" cy="564.4" r="131.3"/>
<path class="st5" d="M86.5,173.7c-17.8,0.4-30.7,35.6-31.5,63.4c-0.3,8.7,0.6,17.3,2.8,25.7c2.5,9.5,11.5,44.3,45.9,56
	c3.6,1.2,8.2,2.8,10.4,1.6c6.7-3.7-23.9-25.6-31.8-59.5c-3-12.8-1.7-22.9-0.5-31.8c2.8-21.5,11.3-38.5,18.4-49.6
	C94.2,174.6,89.6,173.6,86.5,173.7z"/>
<path class="st6" d="M100.8,168.1c-17.8,0.4-30.7,35.5-31.5,63.4c-0.3,8.7,0.6,17.3,2.8,25.7c2.5,9.5,11.5,44.3,45.9,56
	c3.6,1.2,8.2,2.8,10.4,1.6c6.7-3.7-23.9-25.6-31.8-59.5c-3-12.8-1.7-22.9-0.5-31.8c2.8-21.5,11.3-38.5,18.4-49.6
	C108.6,169,104,168,100.8,168.1z"/>
<circle class="st5" cx="102.7" cy="125.5" r="76.9"/>
<circle class="st6" cx="99.4" cy="122.9" r="73"/>
<circle class="st14" cx="99.4" cy="142" r="46.5"/>
<circle class="st10" cx="117.8" cy="160.5" r="18.5"/>
<path class="st6" d="M167.9,136.2c-4.7,6.5-25.4-11.3-66.3-11.5c-40.1-0.2-60.5,16.8-65.1,10.2C29.9,125.6,60,74.2,101.8,74
	C144.4,73.9,174.6,126.9,167.9,136.2z"/>
<path class="st5" d="M109.3,81.3c5.6,4.8,9.6,11.2,11.5,18.3c1.3,5.3,1.5,10.8,0.4,16.1c9.3,0.2,18.2,3.7,25.2,9.9
	c-0.2-5.9-1.5-18.8-10.5-30.3c-3.3-4.2-9.2-11.7-19.1-13.7C114.3,81.1,111.8,81,109.3,81.3z"/>
<path class="st5" d="M90,83.8c-5.6,4.8-9.6,11.2-11.5,18.3c-1.3,5.3-1.5,10.8-0.4,16.1c-9.3,0.2-18.2,3.7-25.2,9.9
	c0.2-5.9,1.5-18.8,10.5-30.3c3.3-4.2,9.2-11.7,19.1-13.7C85,83.6,87.5,83.5,90,83.8z"/>
<g class="st15">
	<path class="st14" d="M72.3,371.6c-15.5,1.5-24.6,55-25.8,62.5C34,506.7,48.6,581.5,71,602.5c2.8,2.6,10,9.3,16,5.8
		c6.4-3.8,9.1-15.1,8.1-24.8s-4.6-18.4-7.7-27.2c-14.2-41-15.6-90.4-3.8-132.8c0.7-2.4,4.8-10.7,5.3-22.4c0.2-4,0.7-14.7-4.2-22.1
		C81.3,373.5,75.8,371.2,72.3,371.6z"/>
</g>
<g class="st18">
	<path class="st14" d="M254.6,459.5c-1.4,0.7-5.9,3-8.6,7.2c-4.7,7.3-4.1,21.2,2.8,23.5c9,3,18.5-5.7,27.7-3.5
		c9.9,2.4,14.7,16.5,24.9,16.5c5.9,0,11-7.5,11.6-13.7c0.7-6.9-4.2-12-9.2-17.2c-13.4-13.8-31.4-16.4-40.4-15.3
		C260.4,457.2,257.4,458.1,254.6,459.5z"/>
</g>
<g class="st18">
	<path class="st14" d="M322.9,504.6c-2.4,6.1,1.8,14.2,7.1,15c6,1,13.6-7.3,11.6-14.1c-1.6-4.7-6.3-7.7-11.2-7.1
		C327,499,324.1,501.3,322.9,504.6z"/>
</g>
<g class="st16">
	<path class="st14" d="M94.7,205.2c-1.1-0.6-3,0.5-3.7,0.9c-8.4,4.9-11.7,21.8-9.8,38.5c0.2,1.5,3.4,28.9,13.6,30.9
		c0.3,0.1,3.1,0.6,4.2-0.6c1.6-1.8-2.4-6.6-3.8-8.6c-12-16.1-4.7-43.7-4.3-45C93,213.7,96.9,206.5,94.7,205.2z"/>
</g>
<circle class="st19" cx="99.6" cy="280.7" r="3"/>
<path class="st5" d="M1236.7,547.9c21.2,87,103.8,168.1,206.6,166.6c103.7-1.5,171.3-86,196.3-150.2c30.3-77.9,7.2-150-1.1-174.7
	c-20-59.4-55.2-97.8-74.9-116.5c-27.4,38.7-54,51.2-73.4,55.4c-48.7,10.5-84.2-24.5-150.4-7.1c-7.3,1.9-18.5,4.9-30.5,11.4
	C1247.4,366.4,1216.9,466.6,1236.7,547.9z"/>
<path class="st6" d="M1258.1,396.8c20.3-40.9,56.8-76.2,101.8-84.2c22.3-4,45.1-1.2,67.7-2.7c7.7-0.5,15.4-1.7,22.8-3.6
	c7.4,0.2,14.8-0.4,22.1-2c19.4-4.2,46-16.7,73.4-55.4c19.8,18.7,55,57.1,74.9,116.5c8.3,24.7,31.4,96.8,1.1,174.7
	c-25,64.2-92.7,148.7-196.3,150.2c-93.8,1.3-170.8-66.1-199.6-144c0.2-5.4,0.5-11,0.9-16.8C1230.4,478.8,1236.4,440.3,1258.1,396.8z
	"/>
<path class="st5" d="M1291.6,308.6c12-6.5,23.2-9.5,30.5-11.4c55.8-14.6,89.8,8,128.3,9.1c-7.5,1.9-15.1,3.1-22.8,3.6
	c-22.6,1.5-45.4-1.3-67.7,2.7c-45,8-81.5,43.3-101.8,84.2c-21.6,43.5-27.6,82-31.2,132.7c-0.4,5.8-0.7,11.4-0.9,16.8
	c-2.7-7.4-5.1-14.9-6.9-22.6C1199.3,442.4,1229.8,342.2,1291.6,308.6z"/>
<circle class="st17" cx="1404.7" cy="523.7" r="137.9"/>
<circle class="st13" cx="1389.3" cy="530" r="131.3"/>
<path class="st5" d="M1568.2,139.3c17.8,0.4,30.7,35.6,31.5,63.4c0.3,8.7-0.6,17.3-2.8,25.8c-2.5,9.5-11.5,44.3-45.9,56
	c-3.6,1.2-8.2,2.8-10.4,1.6c-6.7-3.7,23.9-25.6,31.8-59.5c3-12.8,1.7-22.9,0.5-31.8c-2.8-21.5-11.3-38.5-18.4-49.6
	C1560.5,140.2,1565.1,139.2,1568.2,139.3z"/>
<path class="st6" d="M1553.9,133.7c17.8,0.4,30.7,35.5,31.5,63.4c0.3,8.7-0.7,17.3-2.8,25.7c-2.5,9.5-11.5,44.3-45.9,56
	c-3.6,1.2-8.2,2.8-10.4,1.6c-6.7-3.7,23.9-25.6,31.8-59.5c3-12.8,1.7-22.9,0.5-31.8c-2.8-21.5-11.3-38.5-18.4-49.6
	C1546.2,134.6,1550.8,133.6,1553.9,133.7z"/>
<circle class="st5" cx="1552.1" cy="91.1" r="76.9"/>
<circle class="st6" cx="1555.4" cy="88.5" r="73"/>
<circle class="st14" cx="1555.4" cy="107.6" r="46.5"/>
<circle class="st10" cx="1537" cy="126.1" r="18.5"/>
<path class="st6" d="M1486.8,101.8c4.7,6.5,25.4-11.3,66.3-11.5c40.1-0.2,60.5,16.8,65.1,10.2c6.6-9.4-23.4-60.8-65.3-60.9
	C1510.4,39.5,1480.1,92.5,1486.8,101.8z"/>
<path class="st5" d="M1545.5,46.9c-5.6,4.8-9.6,11.2-11.5,18.3c-1.4,5.3-1.5,10.8-0.4,16.1c-9.3,0.2-18.2,3.7-25.2,9.9
	c0.2-5.9,1.5-18.8,10.5-30.3c3.3-4.2,9.2-11.7,19.1-13.7C1540.5,46.7,1543,46.6,1545.5,46.9z"/>
<path class="st5" d="M1564.8,49.4c5.6,4.8,9.6,11.2,11.5,18.3c1.3,5.3,1.5,10.8,0.4,16.1c9.3,0.2,18.2,3.7,25.2,9.9
	c-0.2-5.9-1.5-18.8-10.5-30.3c-3.3-4.2-9.2-11.7-19.1-13.7C1569.8,49.2,1567.3,49.1,1564.8,49.4z"/>
<g class="st15">
	<path class="st14" d="M1582.5,337.2c15.4,1.5,24.6,55,25.8,62.5c12.4,72.6-2.2,147.3-24.6,168.3c-2.8,2.6-10,9.3-16,5.8
		c-6.4-3.8-9.1-15.1-8.1-24.8s4.6-18.4,7.7-27.2c14.2-41,15.6-90.4,3.8-132.8c-0.7-2.4-4.8-10.7-5.4-22.4c-0.2-4-0.7-14.7,4.2-22.1
		C1573.4,339.1,1578.9,336.9,1582.5,337.2z"/>
</g>
<g class="st18">
	<path class="st14" d="M1400.1,425.1c1.4,0.7,5.9,3,8.6,7.2c4.7,7.3,4,21.2-2.8,23.5c-9,3-18.5-5.7-27.7-3.5
		c-9.9,2.4-14.7,16.5-24.9,16.5c-5.9,0-11-7.5-11.6-13.7c-0.7-6.9,4.2-12,9.2-17.2c13.4-13.8,31.4-16.4,40.4-15.3
		C1394.3,422.8,1397.3,423.7,1400.1,425.1z"/>
</g>
<g class="st18">
	<path class="st14" d="M1331.8,470.2c2.4,6.1-1.8,14.2-7.1,15c-6,1-13.6-7.3-11.6-14.1c1.6-4.7,6.3-7.7,11.2-7.1
		C1327.8,464.6,1330.6,467,1331.8,470.2z"/>
</g>
<g class="st16">
	<path class="st14" d="M1560.1,170.8c1.1-0.6,3,0.5,3.7,0.9c8.4,4.9,11.7,21.8,9.8,38.5c-0.2,1.5-3.4,28.9-13.6,30.9
		c-0.3,0.1-3.1,0.6-4.1-0.6c-1.6-1.8,2.4-6.6,3.8-8.6c12-16.1,4.7-43.7,4.3-45C1561.8,179.3,1557.8,172,1560.1,170.8z"/>
</g>
<circle class="st19" cx="1555.1" cy="246.3" r="3"/>
<g>
	<circle class="st14" cx="1049" cy="866.2" r="81.6"/>
	<circle class="st10" cx="1044.6" cy="874.1" r="64.5"/>
	<circle class="st20" cx="1025" cy="823.2" r="14.5"/>
	<circle class="st21" cx="1083.7" cy="889.2" r="10.2"/>
	<circle class="st14" cx="1076.8" cy="842.8" r="27.6"/>
	<circle class="st20" cx="1083.7" cy="889.2" r="4.8"/>
	<circle class="st22" cx="1025" cy="823.2" r="4.8"/>
	
		<ellipse transform="matrix(0.1602 -0.9871 0.9871 0.1602 29.535 1710.1116)" class="st22" cx="1019.8" cy="837.7" rx="7.8" ry="7.8"/>
	<circle class="st21" cx="1034.5" cy="930.9" r="10"/>
</g>
<g>
	<circle class="st14" cx="625.6" cy="857.5" r="81.6"/>
	<circle class="st10" cx="630" cy="865.4" r="64.5"/>
	<circle class="st20" cx="649.6" cy="814.4" r="14.5"/>
	<circle class="st21" cx="590.9" cy="880.5" r="10.2"/>
	<circle class="st14" cx="597.8" cy="834.1" r="27.5"/>
	<circle class="st20" cx="590.9" cy="880.5" r="4.8"/>
	<circle class="st22" cx="649.6" cy="814.4" r="4.8"/>
	<circle class="st22" cx="654.8" cy="829" r="7.8"/>
	<circle class="st21" cx="640" cy="922.2" r="10"/>
</g>
</svg>
