<svg
  version="1.1"
  id="green-profile-level-one"
  xmlns="http://www.w3.org/2000/svg"
  x="0"
  y="0"
  viewBox="0 0 669 669.2"
  style="enable-background: new 0 0 669 669.2"
  xml:space="preserve"
>
  <defs>
    <style>
      .cls-3-avocado-snowman-level-one-profile {
        fill: #070707;
      }
    </style>
  </defs>
  <path
    d="M400 52c61 0 121 16 173 48A334 334 0 0 0 0 335c0 121 65 227 161 286A334 334 0 0 1 400 52z"
    style="fill: #00da2c"
  />
  <path
    d="M669 335c0-88-34-172-96-235a334 334 0 0 0-412 521 334 334 0 0 0 508-286z"
    style="fill: #00ff50"
  />
  <ellipse
    class="cls-3-avocado-snowman-level-one-profile"
    cx="369.9"
    cy="426.3"
    rx="10.2"
    ry="11.1"
  />
  <ellipse
    class="cls-3-avocado-snowman-level-one-profile"
    cx="439.5"
    cy="425.4"
    rx="10.2"
    ry="11.1"
  />
  <path
    d="M495 470c-1 0-13-12-20-30-3-7-3-10-1-12 3-5 10-4 15-2 6 1 11 3 16 6s8 8 7 14c0 5-2 9-6 12-6 4-12 1-14 4s3 7 3 8z"
    style="fill: #fff"
  />
  <path
    class="cls-3-avocado-snowman-level-one-profile"
    d="M512 430c-11 31-38 56-70 65-8 3-5 16 4 13 36-11 66-39 79-75 1-3-1-7-5-8-3-1-6 2-8 5z"
  />
</svg>
