<svg
  version="1.1"
  id="lemon-mouse-level-five"
  xmlns="http://www.w3.org/2000/svg"
  xmlns:xlink="http://www.w3.org/1999/xlink"
  x="0px"
  y="0px"
  viewBox="0 0 767.2 803"
  style="enable-background: new 0 0 767.2 803"
  xml:space="preserve"
>
  <style type="text/css">
    .cls-1-lemon-mouse-level-five-profile {
      fill: url(#SVGID_1_lemon-mouse-level-five-profile);
    }
    .cls-2-lemon-mouse-level-five-profile {
      opacity: 0.1;
    }
    .cls-3-lemon-mouse-level-five-profile {
      fill: #ffffff;
    }
    .cls-4-lemon-mouse-level-five-profile {
      fill: #8f7c5a;
    }
    .cls-5-lemon-mouse-level-five-profile {
      opacity: 0.2;
    }
    .cls-6-lemon-mouse-level-five-profile {
      opacity: 0.5;
    }
    .cls-7-lemon-mouse-level-five-profile {
      fill: #fc1b00;
    }
    .cls-8-lemon-mouse-level-five-profile {
      fill: #fc4401;
    }
    .cls-9-lemon-mouse-level-five-profile {
      fill: url(#SVGID_00000042706601569154263440000011086279513479060904_lemon-mouse-level-five-profile);
    }
    .cls-10-lemon-mouse-level-five-profile {
      fill: url(#SVGID_00000085212369926164019950000008079697831257754268_lemon-mouse-level-five-profile);
    }
    .cls-11-lemon-mouse-level-five-profile {
      fill: url(#SVGID_00000109741557320029715050000018441615521749838271_lemon-mouse-level-five-profile);
    }
    .cls-12-lemon-mouse-level-five-profile {
      fill: #333333;
    }
    .cls-13-lemon-mouse-level-five-profile {
      opacity: 0.15;
    }
    .cls-14-lemon-mouse-level-five-profile {
      fill: #00f800;
    }
    .cls-15-lemon-mouse-level-five-profile {
      opacity: 0.5;
      fill: #ffffff;
      enable-background: new;
    }
    .cls-16-lemon-mouse-level-five-profile {
      fill: url(#SVGID_00000116213977807351218140000003607374575626822531_lemon-mouse-level-five-profile);
    }
    .cls-17-lemon-mouse-level-five-profile {
      fill: #070707;
    }
  </style>
  <radialGradient
    id="SVGID_1_lemon-mouse-level-five-profile"
    cx="-522.9838"
    cy="385.8441"
    r="29.44"
    gradientTransform="matrix(1 0 0 -1 0 1509.368)"
    gradientUnits="userSpaceOnUse"
  >
    <stop offset="0.45" style="stop-color: #ff000b" />
    <stop offset="1" style="stop-color: #ffbe00" />
  </radialGradient>
  <path
    class="cls-1-lemon-mouse-level-five-profile"
    d="M-523.3,1164.7c0.3-12.8,0.4-25.7,0.5-38.5C-523.7,1139-523.9,1151.8-523.3,1164.7z"
  />
  <g>
    <g class="cls-2-lemon-mouse-level-five-profile">
      <path
        class="cls-3-lemon-mouse-level-five-profile"
        d="M51.2,62.6c-4.1,0.8-10.1,3.4-22.1,8.4c-4,1.7-7.7,3.4-7.8,5.9c-0.1,2.2,2.5,4.7,5.1,5.1s5.2-0.5,7.7-1.3
			c35.7-11.6,74.3-11,109.6,1.8c3.8,1.4,7.6,2.9,11.6,2.8s8.3-2.2,9.5-6.1c1.6-5-3.8-9.9-4.3-10.3c-4.2-3.6-9.5-3.8-11.2-3.8
			C125.7,64.4,87.3,55.3,51.2,62.6z"
      />
    </g>
    <g class="cls-2-lemon-mouse-level-five-profile">
      <path
        class="cls-3-lemon-mouse-level-five-profile"
        d="M179,78.8c-1.9,2.5-1.3,6.1,0.3,8.4c2.2,3.1,7.2,4.8,10.5,2.3s3.3-7.9,0.4-10.9S181.4,75.6,179,78.8z"
      />
    </g>
    <g class="cls-2-lemon-mouse-level-five-profile">
      <path
        class="cls-3-lemon-mouse-level-five-profile"
        d="M140.8,27c-2.4,4.9,1.9,10.6,2.7,11.7c0.9,1.2,4.6,6.2,7.9,5c2.7-1,3.9-4.2,3.6-7c-0.3-2.4-1.1-4.2-3.3-7.7
			c-2.4-3.8-3.6-5.7-5.5-5.9C144,22.9,141.8,25.1,140.8,27z"
      />
    </g>
    <g class="cls-2-lemon-mouse-level-five-profile">
      <path
        class="cls-3-lemon-mouse-level-five-profile"
        d="M389.8,81.9c-1.3-0.2-2.7-0.1-4,0.3l5.3,10.7c3.7,7.4,4.2,8.5,4.4,10.6c0.5,5.3-2.1,8.2-0.4,10
			c1.4,1.4,4.5,1.2,6.3-0.3c1.6-1.3,1.9-3.5,1.6-6.9C402.5,99.1,399,83.3,389.8,81.9z"
      />
    </g>
    <path
      class="cls-4-lemon-mouse-level-five-profile"
      d="M564.3,43.5l-2.4,24.9c-0.9,9.7,6.2,18.3,15.8,19.2c3.1,0.3,6.2-0.2,9-1.5l22.8-10.3c8.9-4,12.8-14.4,8.8-23.3
		c-1.3-2.8-3.3-5.2-5.8-7L592,30.9c-7.9-5.7-18.9-3.8-24.6,4.1C565.7,37.5,564.6,40.4,564.3,43.5z"
    />
    <path
      class="cls-4-lemon-mouse-level-five-profile"
      d="M670.1,10.6l-9.9,22.9c-3.9,8.9,0.3,19.3,9.2,23.1c2.8,1.2,5.9,1.7,9,1.3l24.8-2.9c9.7-1.1,16.6-9.8,15.5-19.5
		c-0.4-3.1-1.5-6-3.4-8.5l-14.9-20c-5.8-7.8-16.8-9.4-24.6-3.7C673.3,5.3,671.3,7.8,670.1,10.6z"
    />
    <g class="cls-2-lemon-mouse-level-five-profile">
      <path
        class="cls-3-lemon-mouse-level-five-profile"
        d="M572,42.4c-0.5,0.2-1.7,0.8-2.9,9.6c-0.8,6.1-1.2,9.2-0.4,13.1s1.7,8.7,4.9,9.9c4.2,1.5,8.9-2,10.2-6.3
			c1.2-3.7,0.9-6.7-0.7-13.2c-0.8-3.5-1.5-6.1-3.6-8.7C579.2,46.5,574.9,41.3,572,42.4z"
      />
    </g>
    <g class="cls-2-lemon-mouse-level-five-profile">
      <path
        class="cls-3-lemon-mouse-level-five-profile"
        d="M674.9,16.3c-1,0.4-4.5,2.2-8.3,12.9c-2.3,6.6-4.1,11.6-2,13.4s6.9-0.5,8.4-1.2c2.2-1.1,4.2-2.6,5.8-4.3
			c1.3-1.1,2.4-2.4,3.3-3.9c1.7-2.8,2.5-6,2.2-9.3c0-0.7-0.5-6.6-4.2-8.1C678.4,15.4,676.5,15.5,674.9,16.3z"
      />
    </g>
    <path
      class="cls-4-lemon-mouse-level-five-profile"
      d="M7,70.7c-6.3,3.2-8.8,11-5.6,17.3c0.5,1,1.2,2,2,2.8c56.5,61.8,94.2,138.4,108.8,220.9
		c1.2,7,7.9,11.7,14.9,10.5c1.9-0.3,3.7-1.1,5.2-2.2c46.9-33.7,77.3-87.3,105.5-138.5c9.9-18,20.1-38.5,14.3-58.2
		c-1.1-3.6-4.7-15.2-27.1-34.3c-8.1-7-35.2-29-68.9-39.2C96.2,31.5,35,56.4,7,70.7z"
    />
    <path
      class="cls-4-lemon-mouse-level-five-profile"
      d="M29.4,26.1L24,47.4c-2.4,9.4,3.3,19,12.7,21.4c3,0.8,6.1,0.7,9.1-0.1l21.2-6c9.4-2.6,14.8-12.3,12.2-21.7
		c-0.8-3-2.4-5.7-4.7-7.9L58.8,17.8c-6.9-6.8-18.1-6.7-24.9,0.3C31.7,20.3,30.2,23.1,29.4,26.1z"
    />
    <path
      class="cls-4-lemon-mouse-level-five-profile"
      d="M129.2,15.1l-14,17c-6.2,7.5-5.1,18.6,2.4,24.8c2.4,2,5.3,3.3,8.4,3.8l21.7,3.6c9.6,1.6,18.7-4.9,20.2-14.5
		c0.5-3,0.2-6.2-0.9-9.1L159.3,20c-3.4-9.1-13.6-13.7-22.7-10.3C133.8,10.8,131.2,12.7,129.2,15.1z"
    />
    <path
      class="cls-4-lemon-mouse-level-five-profile"
      d="M115,218.2c-7.9-23.8-18.5-46.6-31.7-67.9c-8.5-13.5-18.1-26.2-28.8-38c-2.5-4.9-5.7-10.8-3-15.7
		c7.3-13.6,54.8-10.6,89.9,9.2c13.7,7.3,25.4,18,33.8,31.1c7.6-4.7,15.8-8.7,23.3-13.7c10.2-6.8,19.6-16.5,21.4-28.6
		c0.5-3.5,0.2-7-0.9-10.4c-11.9-9.4-35.2-25.9-63-34.4C96.2,31.5,35,56.4,7,70.7c-6.3,3.2-8.8,11-5.6,17.3c0.5,1,1.2,2,2,2.8
		c31.3,34.3,57.1,73.4,76.3,115.8c4.9,10.8,9.2,21.4,12.9,31.7C101,233.4,108.5,226.3,115,218.2z"
    />
    <g class="cls-5-lemon-mouse-level-five-profile">
      <path
        d="M252,123.3c-1.1-3.6-4.7-15.2-27.1-34.3c-1.4-1.2-3.4-2.9-5.9-4.9c1.1,3.4,1.4,6.9,0.9,10.4
			c-1.8,12.2-11.2,21.8-21.4,28.6c-7.5,5-15.6,9-23.3,13.7c15.9,24.2,20.8,54.7,16.6,81c-4.6,28.9-19.2,47.2-26.2,55.9
			c-1.5,1.8-21.4,25.9-30.4,21.8c-2.5-1.1-3.2-4.1-6-16.4c-3.6-16.2-5.4-24.4-5.6-26.4c-1.1-8.2-4-20.4-8.7-34.6
			c-6.5,8.1-14,15.2-22.5,20.1c8.6,23.9,15.2,48.4,19.7,73.4c1.2,7,7.9,11.7,14.9,10.5c1.9-0.3,3.7-1.1,5.2-2.2
			c46.9-33.7,77.3-87.3,105.5-138.5C247.7,163.5,257.9,143,252,123.3z"
      />
    </g>
    <g class="cls-5-lemon-mouse-level-five-profile">
      <path
        d="M158.9,118c-5.4-4.7-11.3-8.8-17.6-12.2C106.3,86,58.8,83,51.4,96.6c-2.6,4.9,0.5,10.9,3,15.7
			c10.7,11.8,20.3,24.5,28.8,38c13.2,21.3,23.9,44.1,31.8,67.9c4-5,7.6-10.3,10.9-15.9c12.4-21,22.1-44.8,41.3-59.9
			c2.6-2,5.3-3.9,8.1-5.6C170.7,129.9,165.2,123.5,158.9,118z"
      />
    </g>
    <g class="cls-6-lemon-mouse-level-five-profile">
      <path
        d="M125.9,202.3c-3.2,5.5-6.9,10.8-10.8,15.9c4.7,14.2,7.6,26.3,8.7,34.6c0.3,2.1,2.1,10.2,5.6,26.4
			c2.7,12.3,3.4,15.2,6,16.4c8.9,4,28.9-20,30.4-21.8c7.1-8.7,21.6-27,26.2-55.9c4.2-26.3-0.8-56.8-16.6-81
			c-2.8,1.7-5.5,3.6-8.1,5.6C148,157.6,138.3,181.3,125.9,202.3z"
      />
    </g>
    <path
      class="cls-7-lemon-mouse-level-five-profile"
      d="M251.8,122.2c35.4-14.2,68.8-13.8,88.3-12.2c-5.5-23.2,13.6-48.9,38-51.3s48.3,19.2,47.7,43
		c31.8,7.8,90.6,27,145.7,76.7c0,0,83.3,75.3,103.9,182.1c1.6,8.5,5.4,31.1,7.4,59.7c0,0,2.5,37.9,0,71.9
		c-12.6,168.9-124.2,241.9-124.2,241.9c-60.2,39.4-127.6,42.7-162.5,44.3c-31.9,1.5-58.6-1.2-77.7-4.1c-19.5,26.5-52.8,36.9-80,26.3
		c-30.1-11.7-38.7-43.6-39.5-46.9c-20.4-7.2-60.2-24.3-96-63c-9.5-10.3-46.2-51.9-58.5-115.9c-3.2-16.7-8.3-53.4,26.3-166.4
		C70.7,408.5,126.1,172.7,251.8,122.2z"
    />
    <path
      class="cls-8-lemon-mouse-level-five-profile"
      d="M259.9,121.2c31.3-12.9,60.8-12.6,78-11.1c-4.8-21.1,12-44.6,33.6-46.7s42.7,17.5,42.1,39.2
		c46.7,15.5,90.3,39.1,128.8,69.9c31.6,25.4,70.7,56.8,89.4,109.8c0.8,2.2,1.4,4,1.9,5.8c3.9,13.9,8.4,31.2,10.5,52.7
		c2.3,23.6,1.2,41.9,0.2,69c-1.7,47-1,63.5-1.6,76.8c-3.2,64.6-46.9,176-141.4,223.1c-44.9,22.4-92.5,25.9-109.5,27
		c-30.9,2-56.9-0.9-75.2-4.1c-13,29.5-44.2,44-70.3,36c-19.3-5.9-33.8-23.7-38-45.3c-42.3-23.8-69.3-51.9-84.7-70.6
		c-16.1-19.6-57.8-71.7-60.3-142.4c-0.9-24.9,3.3-39.2,36.3-128.1C99.6,382.1,170,158.4,259.9,121.2z"
    />

    <radialGradient
      id="SVGID_00000041274261551396747970000001166785459034264232_lemon-mouse-level-five-profile"
      cx="512.0581"
      cy="938.6994"
      r="142.9522"
      gradientTransform="matrix(1 0 0 -1 0 1509.368)"
      gradientUnits="userSpaceOnUse"
    >
      <stop offset="0" style="stop-color: #ff000b" />
      <stop offset="1" style="stop-color: #fc1b00; stop-opacity: 0" />
    </radialGradient>
    <path
      style="
        fill: url(#SVGID_00000041274261551396747970000001166785459034264232_lemon-mouse-level-five-profile);
      "
      d="M618.8,660.6c-49,57.3-143.2,74-204,21.3
		c-61.1-53-58.7-150.5-5.3-207.5c54.9-58.6,154.5-64.3,209.8-6C669.5,521.6,664.1,607.7,618.8,660.6z"
    />

    <radialGradient
      id="SVGID_00000160883217714507527770000009636983644191412405_lemon-mouse-level-five-profile"
      cx="102.2633"
      cy="985.2643"
      r="76.4759"
      gradientTransform="matrix(1 0 0 -1 0 1509.368)"
      gradientUnits="userSpaceOnUse"
    >
      <stop offset="0" style="stop-color: #ff000b" />
      <stop offset="1" style="stop-color: #fc1b00; stop-opacity: 0" />
    </radialGradient>
    <path
      style="
        fill: url(#SVGID_00000160883217714507527770000009636983644191412405_lemon-mouse-level-five-profile);
      "
      d="M159.4,572.2
		c-26.2,30.6-76.6,39.6-109.1,11.4c-32.7-28.3-31.4-80.5-2.9-111c29.4-31.3,82.7-34.4,112.2-3.2
		C186.5,497.8,183.6,543.9,159.4,572.2z"
    />

    <radialGradient
      id="SVGID_00000183934883727681845600000012289787073010874006_lemon-mouse-level-five-profile"
      cx="174.0552"
      cy="903.6017"
      r="63.78"
      gradientTransform="matrix(1 0 0 -1.25 0 1636.4091)"
      gradientUnits="userSpaceOnUse"
    >
      <stop offset="0.25" style="stop-color: #ff0000" />
      <stop offset="1" style="stop-color: #ff0000; stop-opacity: 0" />
    </radialGradient>
    <path
      style="
        fill: url(#SVGID_00000183934883727681845600000012289787073010874006_lemon-mouse-level-five-profile);
      "
      d="M212.9,541.3
		c-15.1,6.4-32.6-1.5-42.4-14.7c-10.1-13.5-12.4-32.9-5.4-49c6.8-15.7,22.3-26.1,38-25.7c8.4,0.2,16.4,3.7,22.2,9.8
		c8.6,9.3,9.4,21.5,9.8,27.6C235.2,492.3,237,531,212.9,541.3z"
    />
    <path
      class="cls-12-lemon-mouse-level-five-profile"
      d="M178.2,356.6c-5.5-1.6-12.3,2.8-20.3,8.8c-12.5,9.3-18.7,14-19.5,21.5c-0.9,8.3,4.1,18.2,12,21.1
		c6.4,2.3,12.2-1,23.4-7.5c10.8-6.2,17.4-10,18.5-16.8c1-6.1-2.5-14.7-4.7-18.4l-0.1-0.1C186,362.7,183.3,358,178.2,356.6z"
    />
    <path
      class="cls-12-lemon-mouse-level-five-profile"
      d="M341.7,374.7c-2.5,1.3-4.7,3.3-6.1,5.8c-2.7,4.8-1.4,9.9-0.8,11.9c1.4,5.4,4.6,8.7,8.8,13
		c3.4,3.5,7.3,6.6,11.4,9.2c11.5,7.3,23.2,14.7,35,11.3c4.2-1.1,7.8-3.6,10.5-7c5.5-7.4,3-16.6,2.7-17.5c-1.8-6.1-6-9.2-14.1-15.1
		c-5.9-4.3-15.2-10.9-28.8-13.3C348.9,371.1,343.5,373.7,341.7,374.7z"
    />
    <path
      d="M188,353.5c-9.2-3-18.2,3.1-23.1,6.5c-6.7,4.5-15.3,10.4-16.1,20.8c-0.6,7.8,3.4,17.5,11.1,20.6c7.6,3.1,15.1-1.5,23.2-6.5
		c6.7-4.1,14.3-8.8,16.5-17.9c0.4-1.6,2.3-10.5-3.3-17.6C194.2,356.6,191.3,354.6,188,353.5z"
    />
    <path
      d="M330.1,376.5c-1.4,3.7-1.7,7.7-0.8,11.6c1.9,10.6,11,17,17,21.2c4.4,3.1,13,9,25.3,9.8c6.9,0.5,15.8,1.1,21.8-5.2
		c4.6-5,6.4-13.1,3.8-19.2c-1.2-2.6-3-4.8-5.3-6.4c-25.1-19-37.9-28-49.7-23.5C341.3,365.3,333.3,368.5,330.1,376.5z"
    />
    <g class="cls-13-lemon-mouse-level-five-profile">
      <path
        class="cls-14-lemon-mouse-level-five-profile"
        d="M156.2,394.4c-1.3,0.4-2.7,0.5-4,0.3c-2.1-0.5-2.6-1.6-4.1-1.5c-1.5,0.3-2.6,1.5-2.8,3
			c-0.1,1.5,0.3,3,1.3,4.1c2.8,3.7,8.3,4.5,12.7,3s8-4.7,11.5-7.9c1-0.8,1.9-1.9,2.5-3c0.6-1.2,0.5-2.7-0.4-3.7
			c-1.2-1.3-3.6-0.5-4-0.4c-1.6,0.5-2,1.4-3.4,2.6C162.8,393.1,159.8,393.7,156.2,394.4z"
      />
    </g>
    <path
      class="cls-15-lemon-mouse-level-five-profile"
      d="M190.4,369.1c0,4-3.3,7.3-7.3,7.3s-7.3-3.3-7.3-7.3c0-4,3.3-7.3,7.3-7.3C187.1,361.8,190.4,365,190.4,369.1
		C190.4,369.1,190.4,369.1,190.4,369.1z"
    />
    <circle
      class="cls-3-lemon-mouse-level-five-profile"
      cx="183.1"
      cy="367.9"
      r="4.4"
    />
    <circle
      class="cls-15-lemon-mouse-level-five-profile"
      cx="350.1"
      cy="383.7"
      r="7.3"
    />
    <circle
      class="cls-3-lemon-mouse-level-five-profile"
      cx="350.1"
      cy="382.5"
      r="4.4"
    />
    <g class="cls-13-lemon-mouse-level-five-profile">
      <path
        class="cls-14-lemon-mouse-level-five-profile"
        d="M378.5,393.2c-0.1,2.5,4.8,3.1,9.5,7.7c2.2,2.1,4.7,4.3,4.3,7.1c-0.4,2.6-3.2,4.8-2.5,7.4
			c0.5,1.5,2,2.5,3.6,2.3c1.6-0.2,3-1,3.9-2.3c2.2-2.8,2.2-6.8,0.8-10c-1.2-2.8-3-4.5-6.8-7.9s-9.1-7.8-11.7-6.3
			C379,391.7,378.5,392.4,378.5,393.2z"
      />
    </g>
    <path
      class="cls-7-lemon-mouse-level-five-profile"
      d="M503.8,142.3c-22.2-6-30.3,0.1-32.7,2.1c-11.2,9.8-7,31.4-6.1,34.9c3.3,11.9,10.4,22.2,17.4,32.3
		c26,37.6,52,75.3,78.1,112.9c11.3,16.3,23.4,33.3,41.2,42c17,8.3,42.8,2.7,52.4-12.1c8.2-12.5,3-29.3-1.9-42.7
		C625.9,240.2,566,159,503.8,142.3z"
    />
    <path
      class="cls-4-lemon-mouse-level-five-profile"
      d="M495.6,141.7c7.1-19.4,22.2-31.7,92.5-69.6c29.4-15.9,45.3-21.5,56.7-24c64.6-13.9,123.6,17.5,122.4,24.6
		c-0.6,3.7-16.9-0.3-34.2,11.8c-7.2,5.2-13.1,11.9-17.4,19.6c-21.9,37.5-5.3,107.7-32.7,164.7c-12.3,25.5-38.9,59.6-65.8,57.4
		c-24.8-2.1-42.1-24.7-56.1-45.4c-25.1-37-19-36.1-50.2-74.1c-6.9-8.4-16.6-19.5-18.8-36.5C490.9,160.5,492.1,150.7,495.6,141.7z"
    />
    <g class="cls-5-lemon-mouse-level-five-profile">
      <path
        d="M539.7,198.6c-3.5-18.4,14.3-29.1,83.9-95.5c12.2-11.6,21.3-20.5,37-24.8c26.5-7.2,54.4,3.5,54.1,7
			c-0.2,1.9-9,0.2-17.1,4.2c-19,9.3-17.9,41.9-20.8,73.5c-6.1,66.9-31.4,141.8-53.7,142.1c-1.3,0-2.7-0.2-3.9-0.7
			c-6.3-2.4-10.9-11.4-31-38.5c-11.4-15.4-10.8-11.3-31.8-41C545.7,209.5,540.3,201.8,539.7,198.6z"
      />
    </g>
    <g class="cls-5-lemon-mouse-level-five-profile">
      <path
        d="M539.9,199.3c0.8,2.6,3.9,7.2,9.2,15c-1.7-4.4-4.1-8.5-6.9-12.2C541.2,201,540.5,200.1,539.9,199.3z"
      />
    </g>
    <g class="cls-5-lemon-mouse-level-five-profile">
      <path
        d="M575.1,217c5.9-4.6,9.8-11.2,13.6-17.6c0,0,9.5-23.9,42.8-73.9c10.4-15.6,30.1-34.4,71.3-46.3
			c-10.6-3.1-26.7-5.1-42.3-0.8s-24.8,13.2-37,24.8c-69.7,66.5-87.4,77.1-83.9,95.5c0,0.2,0.1,0.5,0.2,0.7c0.6,0.7,1.4,1.6,2.3,2.8
			c2.9,3.7,5.2,7.8,6.9,12.2c1.4,2,3,4.2,4.7,6.6c0.1,0.1,0.3,0.1,0.4,0.2C561.1,224,569.3,221.6,575.1,217z"
      />
    </g>
    <path
      class="cls-7-lemon-mouse-level-five-profile"
      d="M349.4,99c3.9-1.1,6.8,7.9,15.7,12c6.1,2.8,12.5,2.2,16.6,1.3c-2.4,4-4.9,8.1-8.4,11.3s-8.2,5.3-12.8,4.6
		c-8-1.2-11.9-9.5-13.2-12.1c-1.1-2.3-1.8-4.8-1.8-7.3C345.5,105.6,346.5,99.9,349.4,99z"
    />
    <g class="cls-2-lemon-mouse-level-five-profile">
      <path
        class="cls-3-lemon-mouse-level-five-profile"
        d="M544,111.4c-15,9.2-17,7.6-22.8,13c-8.9,8.3-14.9,22.3-11.7,25.3c4.6,4.3,25.3-16.8,42.7-22.8
			c3.2-1,6.1-3,8.1-5.8c0.4-0.6,3.7-5.6,1.6-9.3c-2.4-4.2-9.9-3.2-11.3-2.9C548.2,109.3,546,110.1,544,111.4z"
      />
    </g>
    <g class="cls-5-lemon-mouse-level-five-profile">
      <path
        class="cls-3-lemon-mouse-level-five-profile"
        d="M314.2,142.8c-13.6-10.8-51.4,8.1-73.9,32.8c-2.2,2.4-0.2,0.4-32.3,57l-16.7,42.1c-2.7,6.7-5.3,14.5-1.8,20.8
			c5.1,9.2,19.9,7.7,27.2,0s9.4-18.7,12.5-28.8c9.4-30.7,34.6-59.6,59-73.3c13.8-7.8,23.6-8.9,29-19.8
			C321.9,163.8,321.8,148.8,314.2,142.8z"
      />
    </g>
    <g class="cls-5-lemon-mouse-level-five-profile">
      <path
        class="cls-3-lemon-mouse-level-five-profile"
        d="M351.8,167.1c-4.6,1.7-10.6-1.9-13-6.8c-1.7-3.6-2.2-9.4,1.8-13.1c4-3.5,9.8-3.7,14-0.4
			c5.1,4,4,11.5,2.1,15.3C356,163.3,354.7,166,351.8,167.1z"
      />
    </g>
    <g class="cls-5-lemon-mouse-level-five-profile">
      <path
        class="cls-3-lemon-mouse-level-five-profile"
        d="M513.4,530.3c-10.2,10.3-28.4,10.7-41.1,3.8c-19.5-10.7-19.7-35.4-19.7-39.7s-0.2-22.1,13.1-33.6
			c2.3-2,11.8-10.2,24.1-8.5c11.5,1.6,18.1,10.9,22.6,17.1c12.2,17.1,10,35.8,9.3,40C520.6,516.4,519.5,524.1,513.4,530.3z"
      />
    </g>
    <g class="cls-5-lemon-mouse-level-five-profile">
      <path
        class="cls-3-lemon-mouse-level-five-profile"
        d="M528.3,532.8c-6.5,5.2-8.8,16.3-2.7,22.8s17.6,5.6,23.2-1.5c5.9-7.3,3.5-19-3.9-23.2
			C539.5,527.9,532.7,529.3,528.3,532.8z"
      />
    </g>
    <path
      class="cls-3-lemon-mouse-level-five-profile"
      d="M182.7,510.1c-3.1,2.3-7.4,1.6-9.7-1.5c-0.2-0.3-0.4-0.6-0.6-0.9c-1.4-3.6,0.4-7.7,3.9-9.1
		c0.3-0.1,0.6-0.2,0.9-0.3c3.9-0.5,7.5,2.2,8,6.1c0,0.2,0.1,0.5,0.1,0.7c-0.3,4-3.8,7-7.8,6.7c-0.2,0-0.4,0-0.6-0.1"
    />
    <g class="cls-5-lemon-mouse-level-five-profile">
      <path
        class="cls-3-lemon-mouse-level-five-profile"
        d="M101.2,521.7c-3.5,3.9-9.2,6.6-15,5.3c-7.5-1.7-10.5-9-11.8-12.1c-2.5-5.6-3.4-12.5,0.1-17.5
			c5.1-7.1,17.2-2.9,18-2.6c2,0.7,9.5,3.3,12,11.1C106.2,511.4,104.9,517.4,101.2,521.7z"
      />
    </g>
    <g class="cls-5-lemon-mouse-level-five-profile">
      <path
        class="cls-3-lemon-mouse-level-five-profile"
        d="M94.3,480.5c-1.3,0.1-2.7-0.3-3.7-1.1c-2.6-2-3.5-6.9-0.9-9.2s7.6-1.2,9.1,2.1S97.4,480,94.3,480.5z"
      />
    </g>
    <g class="cls-13-lemon-mouse-level-five-profile">
      <path
        class="cls-3-lemon-mouse-level-five-profile"
        d="M504.8,527.9c-5.2,5.2-14.5,5.5-21,1.9c-10-5.4-10.1-18.1-10.1-20.3s-0.1-11.3,6.7-17.2c1.2-1,6-5.2,12.3-4.4
			c5.9,0.8,9.2,5.6,11.5,8.8c4.1,6,5.8,13.3,4.8,20.4C508.5,520.8,508,524.7,504.8,527.9z"
      />
    </g>

    <radialGradient
      id="SVGID_00000072982231549395903950000001946649996658536333_lemon-mouse-level-five-profile"
      cx="196.9352"
      cy="959.0487"
      r="53.9"
      gradientTransform="matrix(1 0 0 -1 0 1509.368)"
      gradientUnits="userSpaceOnUse"
    >
      <stop offset="2.000000e-02" style="stop-color: #7b0022" />
      <stop offset="1" style="stop-color: #ff0000; stop-opacity: 0" />
    </radialGradient>
    <path
      style="
        fill: url(#SVGID_00000072982231549395903950000001946649996658536333_lemon-mouse-level-five-profile);
      "
      d="M201.2,530.4c-4.6-1-4.7-3.1-11.5-8.4
		c-3.8-2.9-8.8-5.1-13.2-3.3c-5,2.1-6.7,8.8-4.7,13.8s6.8,8.4,11.7,10.4c16.3,6.7,35.1,1.6,45.6-12.6c1.8-2.5,3.3-5.9,1.6-8.4
		c-1.2-1.7-4.1-2-6-1.6c-2.8,0.5-4.4,2.4-5.5,3.6C214.5,528.6,206.6,531.5,201.2,530.4z"
    />
    <path
      d="M157,499.5c-0.1,14.6,6.6,28.5,18.1,37.6c6.1,4.8,13.4,7.9,21.1,8.9c10.2,1.1,20.5-2.2,28.1-9.1c4.7-4.2,8.4-9.4,10.8-15.3
		c0.8-1.8-2.2-2.6-3-0.8c-0.2,0.4,0.1-0.3-0.1,0.3c-0.2,0.4-0.3,0.7-0.5,1.1c-0.5,1-1,1.9-1.5,2.8c-1.6,2.8-3.5,5.3-5.8,7.6
		c-6.4,6.8-15.3,10.6-24.7,10.5c-7.9-0.1-15.5-3.3-21.8-7.9c-1-0.7-1.4-1-2.4-1.8c-1.9-1.6-3.7-3.3-5.3-5.2
		c-2.8-3.4-5.1-7.3-6.7-11.4c-2.2-5.5-3.3-11.3-3.4-17.2c-0.1-0.9-0.8-1.5-1.7-1.4C157.7,498.1,157.1,498.7,157,499.5L157,499.5z"
    />
    <g class="cls-2-lemon-mouse-level-five-profile">
      <path
        class="cls-3-lemon-mouse-level-five-profile"
        d="M50.4,22.9c-0.6-0.1-3.5-0.4-4.9,1.3c-3.4,3.9,3.1,16.4,11.8,23.8c2.1,1.8,10.2,8.8,14.3,6.1
			c2.8-1.9,3.1-7.7,1.2-11.6c-1.7-3.6-4.3-3.7-10.1-8C55.4,29.1,55.3,23.5,50.4,22.9z"
      />
    </g>
    <g class="cls-2-lemon-mouse-level-five-profile">
      <path
        class="cls-3-lemon-mouse-level-five-profile"
        d="M141.8,22.1c-3,4.9-3.8,10.8-2.1,16.2c1.6,5,6.3,12.6,11.1,11.6c3.7-0.8,6.1-4.5,6.5-8.3c0.4-3.5-0.1-6-2-11
			c-2.1-5.8-4.8-13.2-8.5-13.2C144.7,17.6,143.1,20.1,141.8,22.1z"
      />
    </g>
    <g class="cls-2-lemon-mouse-level-five-profile">
      <path
        class="cls-3-lemon-mouse-level-five-profile"
        d="M144,67.4c-15.2-0.5-22.7-0.7-23.1,0.9c-0.2,0.9,1.1,2.6,50.6,19.1c14.1,4.7,21,6.9,22.8,4.3
			c2.1-3-3.3-11.9-10.4-17.3C180.7,71.9,174.6,68.4,144,67.4z"
      />
    </g>
    <g>
      <g>
        <path
          class="cls-17-lemon-mouse-level-five-profile"
          d="M224.1,640.1c-8-2-12.6-6.4-14.4-8.2c-10.6-10.3-12.7-28.5,0.3-38.6c1.9-1.5,10.8-8,24.2-6.9
				c12.5,1,20.1,7.9,22,9.6c10.3,10,6.6,21.9,5.7,25c-1,3.4-3.9,12.5-15.3,17.3C243.6,639.5,234.6,642.8,224.1,640.1z"
        />
      </g>
      <g>
        <path
          class="cls-3-lemon-mouse-level-five-profile"
          d="M243.6,593.1c0.2,0.3,0.4,0.5,0.6,0.8c1.2,1.7,2.3,3.4,3.3,5.1c1.2,2,3.9,2.3,5.5,0.6
				c0.9-0.9,1.8-1.8,2.8-2.8c0.2-0.2,0.4-0.4,0.6-0.6c-0.1-0.1-0.1-0.1-0.2-0.2c-1.3-1.3-5.4-5-12.1-7.5
				C242.9,589.7,242.5,591.5,243.6,593.1z"
        />
      </g>
      <g>
        <path
          class="cls-3-lemon-mouse-level-five-profile"
          d="M214.4,598.5c0.8-1.2,1.6-2.4,2.5-3.7c0.4-0.6,0.8-1.1,1.2-1.6c1.2-1.5,1.1-3.3,0.2-4.5
				c-4.4,1.7-7.3,3.8-8.3,4.6c-1.5,1.2-2.8,2.5-4,3.9c0.8,0.8,1.5,1.5,2.2,2.3C209.9,601.2,212.9,600.7,214.4,598.5z"
        />
      </g>
    </g>
  </g>
</svg>
