<svg version="1.1" id="레이어_1" xmlns="http://www.w3.org/2000/svg" x="0" y="0" viewBox="0 0 1284.8 640.4" style="enable-background:new 0 0 1284.8 640.4" xml:space="preserve"><style>.st0{fill:#ffc500}.st1{fill:#fdd301}.st4{fill:#fff}.st5{fill:#fd0300}</style><path class="st0" d="M1273.4 290.7c3.4 14.1 5 28.6 5 43.1 0 102.9-83.4 186.3-186.3 186.3-78.2 0-148.1-48.8-175-122.2 19.5 82.1 93.2 143.2 181.3 143.2 102.9 0 186.3-83.4 186.3-186.3.1-21.9-3.8-43.6-11.3-64.1z"/><path class="st1" d="M1092.1 520.1c102.9 0 186.3-83.4 186.3-186.3 0-14.5-1.7-29-5-43.1-26.9-73.4-96.8-122.2-175-122.2-102.9 0-186.3 83.4-186.3 186.3 0 14.5 1.7 29 5 43.1 27 73.4 96.8 122.2 175 122.2z"/><path class="st0" d="M11.4 290.7c-3.4 14.1-5 28.6-5 43.1 0 102.9 83.4 186.3 186.3 186.3 78.2 0 148.1-48.8 175-122.2-19.5 82.1-93.2 143.2-181.3 143.2C83.4 541.1 0 457.7 0 354.8c0-21.9 3.8-43.6 11.4-64.1z"/><path class="st1" d="M192.6 520.1C89.7 520.1 6.3 436.7 6.3 333.8c0-14.5 1.7-29 5.1-43.1 26.9-73.4 96.8-122.2 175-122.2 102.9 0 186.3 83.4 186.3 186.3 0 14.5-1.7 29-5 43.1-27 73.4-96.9 122.3-175.1 122.2z"/><path class="st0" d="M957.3 268c7.5-17.5 11.4-36.2 11.4-55.2C968.7 94.7 817.2-1 630.5-1h-.5C771.6.5 942.7 82.2 957.4 195.9c3.8 29-3.3 55.3-12.3 76 94.4 61.5 98.9 117.3 99.2 131.7 2.2 104.4-174 202.3-320 202.3-35.8.1-71.5-3.8-106.4-11.5-34.9 7.7-70.6 11.5-106.4 11.5-145 0-322.4-97-320-202.3 1.7-74.6 92.9-129.1 118.5-143.9-7.5-19.8-13.5-45.4-9-73.6C317.7 82.3 465.3 9.3 598 0 426.4 10.3 292.2 101.7 292.2 212.8c0 15 2.5 30 7.3 44.2-80.4 39.1-132.2 100.5-132.2 169.6 0 118.1 151.4 213.8 338.2 213.8 37.8.1 75.5-4 112.5-12.1 36.9 8.1 74.6 12.2 112.5 12.1 186.8 0 338.2-95.7 338.2-213.8 0-62.9-43-119.4-111.4-158.6z"/><path class="st1" d="M301.1 186.1c-4.5 28.2 1.4 53.7 9 73.6-25.6 14.9-116.8 69.3-118.5 143.9-2.4 105.3 175 202.3 320 202.3 35.8.1 71.5-3.8 106.4-11.5 34.9 7.7 70.6 11.5 106.4 11.5 146.1 0 322.2-97.9 320-202.3-.3-14.3-4.8-70.2-99.2-131.7 8.9-20.7 16-47 12.3-76C942.7 82.2 771.6.5 630-1c-10.8 0-21.5.3-32 1-132.7 9.3-280.3 82.3-296.9 186.1z"/><radialGradient id="SVGID_1_" cx="397.6903" cy="1990.0193" r="97.27" gradientTransform="scale(1 -1) rotate(28.1 5232.6866 860.9153)" gradientUnits="userSpaceOnUse"><stop offset="0" style="stop-color:#fd3400;stop-opacity:.6"/><stop offset="1" style="stop-color:#fd3700;stop-opacity:0"/></radialGradient><circle cx="438" cy="417" r="97.3" style="fill:url(#SVGID_1_)"/><radialGradient id="SVGID_00000162327406786031554150000009653731713479500479_" cx="780.8972" cy="569" r="97.27" gradientTransform="matrix(1 0 0 -1 0 986)" gradientUnits="userSpaceOnUse"><stop offset="0" style="stop-color:#fd3400;stop-opacity:.6"/><stop offset="1" style="stop-color:#fd3700;stop-opacity:0"/></radialGradient><circle style="fill:url(#SVGID_00000162327406786031554150000009653731713479500479_)" cx="780.9" cy="417" r="97.3"/><path d="M495.7 378.3c-1.5 0-2.9-.4-4.2-1.2-3.1-1.7-4.2-5.6-2.5-8.6.1-.3.3-.5.5-.8 1.9-2.6 12.6-16.1 31.6-29.1 24.5-16.8 53.5-25.9 83.2-25.9h.2c28.7-.1 56.8 8.4 80.7 24.2 18.2 11.9 28.7 24.2 31.5 27.8 2.2 2.7 1.8 6.7-.9 8.9-.2.2-.5.4-.8.5-3.4 2.2-7.9 1.5-10.5-1.5-3.8-4.7-38.8-46.3-100.1-46.4h-.2c-26.5-.1-52.3 8-74.1 23.1-17.5 12-27.2 24.6-28.3 26-1.3 2-3.6 3.1-6.1 3z"/><circle class="st4" cx="551.4" cy="407" r="33.9"/><circle cx="551.4" cy="410.3" r="28.4"/><circle class="st4" cx="655" cy="407" r="33.9"/><circle cx="655" cy="410.3" r="28.4"/><path class="st5" d="M573.3 491.9h72.2c7.3 0 13.2 5.9 13.2 13.2 0 7.3-5.9 13.2-13.2 13.2h-72.2c-7.3 0-13.2-5.9-13.2-13.2 0-7.3 5.9-13.2 13.2-13.2z"/><path class="st4" d="M632.2 472.9h9.1c3.9 0 6.4 6.2 4.4 11.2l-4.6 11.5-4.5 11.5c-2 5-6.9 5-8.9 0l-4.6-11.5-4.5-11.5c-2-5 .5-11.2 4.4-11.2h9.2z"/><path class="st5" d="M573.3 459.7h72.2c7.3 0 13.2 5.9 13.2 13.2 0 7.3-5.9 13.2-13.2 13.2h-72.2c-7.3 0-13.2-5.9-13.2-13.2 0-7.3 5.9-13.2 13.2-13.2z"/></svg>