<svg
  version="1.1"
  id="banana-profile-level-one"
  xmlns="http://www.w3.org/2000/svg"
  x="0"
  y="0"
  viewBox="0 0 669 669.2"
  style="enable-background: new 0 0 669 669.2"
  xml:space="preserve"
>
  <style>
    .cls-5-banana-elephant-level-one-profile {
      fill: red;
    }
  </style>
  <path
    d="M360 61c127 0 237 71 294 175A335 335 0 1 0 41 495 334 334 0 0 1 361 61z"
    style="fill: #ffc500"
  />
  <path
    d="M335 669a335 335 0 0 0 319-433A334 334 0 0 0 41 495a334 334 0 0 0 294 174z"
    style="fill: #ffd500"
  />
  <radialGradient
    id="SVGID_1_banana-elephant-level-one"
    cx="203.4"
    cy="221.2"
    r="89"
    gradientTransform="matrix(1 0 0 -1 0 672)"
    gradientUnits="userSpaceOnUse"
  >
    <stop offset="0" style="stop-color: #ff3400; stop-opacity: 0.6" />
    <stop offset="1" style="stop-color: #ff3600; stop-opacity: 0" />
  </radialGradient>
  <circle
    cx="203.4"
    cy="450.8"
    r="89"
    style="fill: url(#SVGID_1_banana-elephant-level-one-profile)"
  />
  <radialGradient
    id="SVGID_00000128449933322687511500000017588770808353722529_banana-elephant-level-one-profile"
    cx="517.2"
    cy="221.2"
    r="89"
    gradientTransform="matrix(1 0 0 -1 0 672)"
    gradientUnits="userSpaceOnUse"
  >
    <stop offset="0" style="stop-color: #ff3400; stop-opacity: 0.6" />
    <stop offset="1" style="stop-color: #ff3600; stop-opacity: 0" />
  </radialGradient>
  <circle
    style="
      fill: url(#SVGID_00000128449933322687511500000017588770808353722529_banana-elephant-level-one-profile);
    "
    cx="517.2"
    cy="450.8"
    r="89"
  />
  <path
    class="cls-5-banana-elephant-level-one-profile"
    d="M338 451h27c7 0 12 5 12 12s-5 12-12 12h-27c-7 0-12-5-12-12s5-12 12-12zM338 478h27c7 0 12 5 12 12 0 6-5 12-12 12h-27c-7 0-12-6-12-12 0-7 5-12 12-12z"
  />
  <circle cx="322.2" cy="423.8" r="9.5" />
  <circle cx="377.4" cy="423.8" r="9.5" />
</svg>
