<svg
  version="1.1"
  id="lemon-mouse-level-four"
  xmlns="http://www.w3.org/2000/svg"
  xmlns:xlink="http://www.w3.org/1999/xlink"
  x="0px"
  y="0px"
  viewBox="0 0 742.6 970.7"
  style="enable-background: new 0 0 742.6 970.7"
  xml:space="preserve"
>
  <style type="text/css">
    .cls-1-lemon-mouse-level-four-profile {
      fill: none;
    }
    .cls-2-lemon-mouse-level-four-profile {
      fill: #8f7c5a;
    }
    .cls-3-lemon-mouse-level-four-profile {
      opacity: 0.2;
    }
    .cls-4-lemon-mouse-level-four-profile {
      fill: #fc4401;
    }
    .cls-5-lemon-mouse-level-four-profile {
      fill: #fc1b00;
    }
    .cls-6-lemon-mouse-level-four-profile {
      fill: #333333;
    }
    .cls-7-lemon-mouse-level-four-profile {
      fill: #ffffff;
    }
    .cls-8-lemon-mouse-level-four-profile {
      fill: url(#SVGID_1_lemon-mouse-level-four-profile);
    }
    .cls-9-lemon-mouse-level-four-profile {
      fill: url(#SVGID_00000055697308407349163480000001699664168426499232_lemon-mouse-level-four-profile);
    }
    .cls-10-lemon-mouse-level-four-profile {
      fill: url(#SVGID_00000149382739610313205630000015661161421121691301_lemon-mouse-level-four-profile);
    }
  </style>
  <path
    class="cls-1-lemon-mouse-level-four-profile"
    d="M296.6,1008.5c-1.8-2-4.5-2.9-7.1-2.5c-0.1,0.4-0.2,0.8-0.3,1.2c2.2,0.7,4.3,1.6,6.3,2.6L296.6,1008.5z"
  />
  <path
    class="cls-2-lemon-mouse-level-four-profile"
    d="M546.8,125.7c23.3-32.5,57.5-74.8,98.5-107.5c12-9.6,27-19.5,45.2-18c16.6,1.4,30.8,13.7,38.6,28.4
	s10.2,31.6,11.7,48.2c6.8,77.9-5,156.3-34.3,228.8c-3.8,9.2-9.1,24.7-21.9,28.8c-20,6.4-44.3-18.4-55.4-29.7
	C582.1,256.6,558.7,184,546.8,125.7z"
  />
  <g class="cls-3-lemon-mouse-level-four-profile">
    <path
      d="M688.5,38c-38,2.7-68.7,130.8-46.6,208.9c2.9,10.2,9.2,32.3,22.1,33.8c12.2,1.5,21.9-9.8,28.4-20.3
		c38.2-62.5,37-131.4,31.5-187.4c-0.6-6.1-2-17.5-10.6-25.8C706.6,41.1,697.6,37.8,688.5,38z"
    />
  </g>
  <path
    class="cls-2-lemon-mouse-level-four-profile"
    d="M195.9,125.7c-23.3-32.5-57.5-74.8-98.5-107.5c-12-9.6-27-19.5-45.2-18C35.6,1.6,21.4,13.8,13.6,28.5
	S3.3,60.2,1.9,76.7c-6.8,77.9,5,156.3,34.3,228.8c3.8,9.2,9.1,24.7,21.9,28.8c20,6.4,44.3-18.4,55.4-29.7
	C160.5,256.6,184,184,195.9,125.7z"
  />
  <g class="cls-3-lemon-mouse-level-four-profile">
    <path
      d="M54.2,38c38,2.7,68.7,130.8,46.6,208.9c-2.9,10.2-9.2,32.3-22.1,33.8c-12.2,1.5-21.9-9.8-28.4-20.3
		C12,198,13.2,129.1,18.7,73.1c0.6-6.1,2-17.5,10.6-25.8C36.1,41.1,45,37.8,54.2,38z"
    />
  </g>
  <path
    class="cls-4-lemon-mouse-level-four-profile"
    d="M613.4,302.5c-31.2-94.7-93.3-189-189.5-215.4c-8.8-36.4-45.1-62.2-81.9-64.2c-36.4,1.8-66.2,24.1-70,54.7l0,0
	c-0.3,2.6-2.1,4.8-4.5,5.7c-52.1,19.6-88.8,48.5-104.2,60.5c-107.9,83.8-131,200.2-145,270.9C0.8,502.9-33,673.2,84.7,809.3
	c4.7,5.4,79.9,89.6,198,122.3c0.7,0.2,4.6,2.2,9.9,4.7c44.4,21.3,49.6,28.2,61.9,32.6c22,8,61.3-9.3,139.4-44.1
	C635.1,755.6,682.4,512,613.4,302.5z"
  />
  <path
    class="cls-5-lemon-mouse-level-four-profile"
    d="M603.5,172.9c-29-28.3-86.2-84.2-173.7-102.8c-2.1-0.4-3.9-1.8-4.9-3.8c-10.7-21.9-35.4-39-65.8-42.8
	c-5.6-0.7-11.3-0.9-17-0.6c36.8,2,73.1,27.8,81.9,64.2c96.1,26.4,158.3,120.7,189.4,215.4c69,209.5,21.7,453.1-119.6,622.3l2.4-1.1
	c10.3-4.6,15.6-7,21-9.5c37.1-17.8,117.5-65.3,168.3-149.3c48.5-80.2,49.8-155.8,50.9-217.2C737.5,490.3,740.7,306.9,603.5,172.9z"
  />
  <ellipse
    transform="matrix(0.4199 -0.9076 0.9076 0.4199 -259.0067 469.5598)"
    class="cls-6-lemon-mouse-level-four-profile"
    cx="237.8"
    cy="437.4"
    rx="40.5"
    ry="28.9"
  />
  <ellipse
    transform="matrix(0.9076 -0.4199 0.4199 0.9076 -135.7517 237.4203)"
    class="cls-6-lemon-mouse-level-four-profile"
    cx="471.4"
    cy="427"
    rx="28.9"
    ry="40.5"
  />
  <path
    class="cls-7-lemon-mouse-level-four-profile"
    d="M422.3,650.4c1.9,3.8,4,7.5,6.4,11c5.9,8.8,9.2,13.6,13.4,13.6c5,0,8.8-6.6,13-13.6c2.1-3.6,3.8-7.3,5.1-11.2
	L422.3,650.4z"
  />
  <radialGradient
    id="SVGID_1_lemon-mouse-level-four-profile"
    cx="587.8427"
    cy="1085.1453"
    r="142.7393"
    gradientTransform="matrix(1 0 0 -1 0 1646)"
    gradientUnits="userSpaceOnUse"
  >
    <stop offset="0" style="stop-color: #ff000b" />
    <stop offset="1" style="stop-color: #fc1b00; stop-opacity: 0" />
  </radialGradient>
  <path
    class="cls-8-lemon-mouse-level-four-profile"
    d="M694.4,650.7c-48.9,57.2-143,73.9-203.7,21.3c-61-52.9-58.6-150.3-5.3-207.1c54.8-58.5,154.3-64.2,209.4-6
	C745,511.8,739.6,597.8,694.4,650.7z"
  />
  <radialGradient
    id="SVGID_00000122719405648352089330000002118133669965139072_lemon-mouse-level-four-profile"
    cx="135.9951"
    cy="1056.4563"
    r="146.6216"
    gradientTransform="matrix(1 0 0 -1 0 1646)"
    gradientUnits="userSpaceOnUse"
  >
    <stop offset="0" style="stop-color: #ff000b" />
    <stop offset="1" style="stop-color: #fc1b00; stop-opacity: 0" />
  </radialGradient>
  <path
    style="
      fill: url(#SVGID_00000122719405648352089330000002118133669965139072_lemon-mouse-level-four-profile);
    "
    d="M245.5,681.8
	c-50.2,58.8-146.9,75.9-209.2,21.9c-62.6-54.3-60.2-154.4-5.5-212.8c56.3-60,158.5-66,215.1-6.1
	C297.4,539.2,291.9,627.5,245.5,681.8z"
  />
  <ellipse
    transform="matrix(0.4199 -0.9076 0.9076 0.4199 -254.191 472.5255)"
    cx="242.6"
    cy="435.1"
    rx="38.3"
    ry="27.4"
  />
  <ellipse
    transform="matrix(0.9076 -0.4199 0.4199 0.9076 -134.9562 234.8266)"
    cx="465.9"
    cy="423.9"
    rx="27.3"
    ry="38.4"
  />
  <circle
    class="cls-7-lemon-mouse-level-four-profile"
    cx="250.1"
    cy="410.9"
    r="7"
  />
  <circle
    class="cls-7-lemon-mouse-level-four-profile"
    cx="459.1"
    cy="400.5"
    r="7"
  />
  <path
    d="M382.1,652.3l69.6-2.1l20-0.6c3-0.1,6-2.6,5.8-5.8c0-3.2-2.6-5.8-5.8-5.8L402,640l-20,0.6c-3,0.1-6,2.6-5.8,5.8
	C376.3,649.6,378.8,652.2,382.1,652.3L382.1,652.3z"
  />
  <radialGradient
    id="SVGID_00000024705277660363345390000011982847015088595130_lemon-mouse-level-four-profile"
    cx="341.5159"
    cy="1090.48"
    r="59.34"
    gradientTransform="matrix(1 0 0 -1 0 1646)"
    gradientUnits="userSpaceOnUse"
  >
    <stop offset="0.25" style="stop-color: #ff0000" />
    <stop offset="1" style="stop-color: #fc1b00; stop-opacity: 0" />
  </radialGradient>
  <path
    style="
      fill: url(#SVGID_00000024705277660363345390000011982847015088595130_lemon-mouse-level-four-profile);
    "
    d="M377.7,580.3c-14,4.8-30.3-1.1-39.5-10.9
	c-9.4-10.1-11.6-24.4-5-36.4c6.3-11.6,20.8-19.4,35.3-19.1c3,0.1,12.8,0.6,20.6,7.3c8,6.9,8.7,16,9.1,20.5
	C398.4,543.8,400.1,572.7,377.7,580.3z"
  />
  <path
    d="M337.6,452.5c-11.8,20.8-23.6,42.3-26,66.6c-1.1,11.1-0.1,22.8,4,33.2c3.9,10.3,10.7,19.2,19.6,25.7
	c9.6,7.1,21.6,10.1,33.4,8.5c3-0.4,4.9-4.4,4.1-7.2c-1.1-3.3-3.9-4.5-7.2-4.1c1.2-0.2-0.1,0-0.6,0s-1.1,0.1-1.7,0.1
	c-1.1,0-2.2,0-3.3,0c-0.5,0-1.1-0.1-1.7-0.1l-0.7-0.1c1.3,0.2,0.4,0.1,0.2,0c-1.1-0.2-2.2-0.4-3.2-0.7s-2.1-0.6-3.2-1
	c-0.5-0.2-1-0.4-1.6-0.6l-0.7-0.3c0.8,0.3,0.4,0.2-0.1-0.1c-2-0.9-4-2-5.9-3.2c-0.9-0.6-1.7-1.2-2.6-1.8c1,0.7-0.3-0.2-0.5-0.4
	c-0.5-0.4-1-0.8-1.5-1.3c-1.7-1.5-3.3-3.1-4.8-4.9c-0.4-0.4-0.7-0.9-1.1-1.3c0.7,0.8-0.2-0.2-0.4-0.6c-0.7-0.9-1.3-1.8-1.9-2.8
	c-1.3-2.1-2.5-4.3-3.4-6.6c0.4,0.9-0.1-0.4-0.2-0.6c-0.2-0.6-0.5-1.2-0.7-1.8c-0.5-1.3-0.8-2.6-1.2-3.9c-0.7-2.5-1.2-5-1.5-7.5
	c0.2,1.1-0.1-0.6-0.1-0.9c-0.1-0.5-0.1-1.1-0.2-1.7c-0.1-1.4-0.2-2.7-0.2-4.1c-0.1-2.6,0-5.2,0.2-7.7c0.1-1.3,0.2-2.6,0.4-3.9
	c0.1-1.1-0.1,0.5,0.1-0.7c0.1-0.7,0.2-1.5,0.3-2.2c0.4-2.5,1-5.1,1.6-7.6c1.4-5.4,3.2-10.7,5.3-15.9l0.3-0.8
	c-0.3,0.7,0.1-0.3,0.2-0.5c0.3-0.7,0.6-1.5,1-2.2c0.6-1.4,1.2-2.7,1.9-4c1.4-2.9,2.8-5.7,4.3-8.5c3-5.6,6.1-11.1,9.2-16.7
	c1.5-2.7,0.7-6.5-2.1-8C342.9,448.8,339.4,449.7,337.6,452.5L337.6,452.5z"
  />
</svg>
