<svg
  version="1.1"
  id="donut-profile-level-five"
  xmlns="http://www.w3.org/2000/svg"
  x="0"
  y="0"
  viewBox="0 0 1239.9 1539.7"
  style="enable-background: new 0 0 1239.9 1539.7"
  xml:space="preserve"
>
  <style>
    .cls-1-donut-rabbit-level-five-profile {
      fill: #fd037f;
    }
    .cls-3-donut-rabbit-level-five-profile {
      fill: #e51570;
    }
    .cls-6-donut-rabbit-level-five-profile {
      fill: #fff;
    }
    .cls-7-donut-rabbit-level-five-profile {
      fill: #daa435;
    }
    .cls-8-donut-rabbit-level-five-profile {
      fill: #fcd96b;
    }
    .cls-9-donut-rabbit-level-five-profile {
      fill: #d5006d;
    }
    .cls-10-donut-rabbit-level-five-profile {
      fill: #070707;
    }
    .cls-11-donut-rabbit-level-five-profile {
      opacity: 0.3;
    }
    .cls-12-donut-rabbit-level-five-profile {
      fill: #469dfc;
    }
    .cls-13-donut-rabbit-level-five-profile {
      fill: #ea527e;
    }
    .cls-14-donut-rabbit-level-five-profile {
      opacity: 0.4;
    }
    .cls-15-donut-rabbit-level-five-profile {
      fill: #d41549;
    }
    .cls-17-donut-rabbit-level-five-profile {
      opacity: 0.2;
    }
    .cls-18-donut-rabbit-level-five-profile {
      fill: #c7006a;
    }
  </style>
  <path
    class="cls-1-donut-rabbit-level-five-profile"
    d="M1156 905c0-251-156-466-377-559A613 613 0 0 0 2 933c0 251 155 467 377 559a613 613 0 0 0 777-587z"
  />
  <circle
    class="cls-3-donut-rabbit-level-five-profile"
    cx="598.8"
    cy="956.2"
    r="301.3"
  />
  <path
    class="cls-3-donut-rabbit-level-five-profile"
    d="M779 346a607 607 0 0 1 377 559 613 613 0 0 1-777 587c74 31 156 48 242 48 342 0 619-272 619-607 0-282-196-518-461-587z"
  />
  <circle cx="620.9" cy="1006.7" r="272.9" style="fill: #ffb6c7" />
  <ellipse cx="623.5" cy="1117.9" rx="30.3" ry="21.6" style="fill: #fd016f" />
  <ellipse
    class="cls-6-donut-rabbit-level-five-profile"
    cx="633.2"
    cy="1115"
    rx="12.3"
    ry="7.7"
  />
  <path
    class="cls-7-donut-rabbit-level-five-profile"
    d="M363 366A642 642 0 0 0 17 797c-5 23-9 66 12 97 17 24 63 28 85 10 2-1 19-15 21-35 0-9-3-17 3-26 1-2 5-8 11-10 19-5 36 53 68 55 20 1 36-20 39-24 13-16 14-35 14-47 2-26 7-102 45-155 20-26 36-31 42-33 16-6 37-4 50 9 6 7 10 16 19 20 15 8 33-7 40-23s12-35 27-44c24-14 53 7 70 29s36 48 63 47c31-1 49-37 52-68 4-31 2-66 22-89 14-17 41-28 56-20 10 5 17 21 31 53 3 7 7 17 17 25 4 3 11 9 19 9 19 1 33-21 37-27 18-29 11-53 25-59 10-4 22 4 24 5 18 12 15 39 20 78 3 20 7 50 17 73 4 9 34 75 100 83 45 6 101-15 116-57 16-46-9-93-28-126a531 531 0 0 0-299-212c-64-19-262-67-472 31zM66 991c-7 9-6 21-5 26 2 20 15 32 19 35s26 21 49 11c17-8 25-29 22-46-4-27-32-37-35-38-16-5-40-3-50 12z"
  />
  <path
    class="cls-8-donut-rabbit-level-five-profile"
    d="M352 332A642 642 0 0 0 6 763c-4 23-9 66 13 97 19 28 65 37 85 10 9-13 11-30 15-45s17-31 33-29c28 3 29 50 55 58 16 5 33-8 39-24s4-32 5-49c0-55 19-110 54-153 11-14 25-27 42-33 16-6 37-4 49 9 7 7 11 16 19 20 16 8 33-7 41-23s12-34 27-43c24-15 53 6 70 28s36 48 63 47c31-1 48-37 52-68 3-31 1-65 21-89 14-16 37-24 57-20s38 20 44 40c6 18 6 41 23 47 16 6 31-11 37-27 5-16 7-34 19-46 15-14 41-10 56 5s21 36 23 57-1 41 2 62c6 47 40 90 86 103 45 12 100-13 116-58 16-46-9-92-29-125a531 531 0 0 0-299-213c-63-19-261-67-472 31z"
  />
  <path
    class="cls-9-donut-rabbit-level-five-profile"
    d="m338 328-1-1c-41-40-46-85-64-151-13-50-20-74-28-87-43-65-119-64-117-77v-2c-10 4-17 8-17 12-2 14 74 13 117 77 8 13 15 38 28 87 18 67 23 112 64 151l1 1c64 62 142 80 176 72 5-1 18-4 28-13l-11 3c-33 8-111-10-176-72z"
  />
  <path
    class="cls-3-donut-rabbit-level-five-profile"
    d="M529 392c9-11 11-24 11-34 3-46-18-95-20-100-25-50-54-98-87-144-21-29-37-44-56-60a297 297 0 0 0-249-42c-2 13 74 12 117 77 9 13 16 37 29 87 18 66 23 111 64 151l1 1c64 62 142 80 175 72l11-3 4-5z"
  />
  <path
    class="cls-1-donut-rabbit-level-five-profile"
    d="M500 329c-23 5-76-7-120-49-3-3-50-48-58-115-2-18-1-37 6-53s20-31 37-36c18-6 38 0 53 10 16 11 27 26 38 41 23 31 43 64 60 98 1 4 15 37 14 68-1 7-2 16-8 23-7 9-18 12-22 13z"
  />
  <path
    class="cls-9-donut-rabbit-level-five-profile"
    d="M254 186c-9-3-16-11-21-20s-8-18-14-26a58 58 0 0 0-69-19h-2l-4 4c-1 1 0 2 1 2 24-11 55-3 70 18 6 8 9 18 14 26 4 9 11 17 21 20s23-6 31-17c-8 9-18 14-27 12z"
  />
  <path
    class="cls-3-donut-rabbit-level-five-profile"
    d="M279 112c-5-8-11-12-12-13-24-17-57-9-69-5-23 6-39 17-50 27h2c23-10 55-3 69 19 6 8 9 17 14 26s12 17 21 20c9 2 19-3 27-12 2-3 5-7 6-11 10-24-6-48-8-51z"
  />
  <circle
    transform="rotate(-81 458 316)"
    class="cls-6-donut-rabbit-level-five-profile"
    cx="457.7"
    cy="316.2"
    r="39.5"
  />
  <circle
    class="cls-10-donut-rabbit-level-five-profile"
    cx="445.9"
    cy="309"
    r="13.3"
  />
  <g class="cls-11-donut-rabbit-level-five-profile">
    <path
      class="cls-6-donut-rabbit-level-five-profile"
      d="M483 262c-3 13 17 25 23 47 6 19 3 48 7 52l2 2c3 0 5-3 6-4l4-12c3-28-3-58-18-83-1-1-3-6-8-9-1 0-7-3-12-1-3 2-4 6-4 8z"
    />
  </g>
  <g class="cls-11-donut-rabbit-level-five-profile">
    <path
      class="cls-6-donut-rabbit-level-five-profile"
      d="M231 93c8 0 33 4 43 25 2 3 5 9 2 13s-9 3-14 1l-26-10c-12-5-17-10-18-16 0-4 2-9 6-12l7-1z"
    />
  </g>
  <g class="cls-11-donut-rabbit-level-five-profile">
    <path
      class="cls-6-donut-rabbit-level-five-profile"
      d="M489 243c-5 4-14 4-19-1s-7-13-2-19c4-5 13-5 18-2 7 5 9 16 3 22z"
    />
  </g>
  <path
    class="cls-12-donut-rabbit-level-five-profile"
    d="m1033 510-26-56c-4-8-16-1-12 7l26 56c4 8 16 1 12-7zM825 404l45-25c8-4 1-16-7-12l-45 25c-8 5-1 17 7 12zM450 457l42 8c9 1 13-12 4-14l-42-7c-9-2-13 11-4 13zM663 414l45-72c5-8-7-15-12-7l-45 72c-5 8 7 15 12 7z"
  />
  <path
    class="cls-13-donut-rabbit-level-five-profile"
    d="m340 470 15 57c3 9 16 5 14-4l-15-57c-2-9-16-5-14 4zM716 298l58 45c3 2 7 3 10 0 2-2 3-7 0-10l-58-45c-3-2-7-2-10 0-2 3-3 8 0 10zM1082 596l-47-33c-8-5-15 7-7 12l47 33c8 5 15-7 7-12zM571 524l51-43c7-6-3-16-10-10l-51 44c-7 5 3 15 10 9z"
  />
  <path
    class="cls-8-donut-rabbit-level-five-profile"
    d="M54 988c-6 9-5 21-4 26 2 20 15 32 19 35 3 3 26 21 49 11 17-8 24-29 22-46-4-27-32-37-35-38-16-5-40-4-51 12z"
  />
  <path
    class="cls-6-donut-rabbit-level-five-profile"
    d="m629 1225 25-57c2-3-1-7-5-7h-51c-4 0-7 4-5 7l25 57c3 4 9 4 11 0z"
  />
  <g class="cls-14-donut-rabbit-level-five-profile">
    <path
      class="cls-6-donut-rabbit-level-five-profile"
      d="M189 500s-53 56-95 151c-4 11-9 27-5 45 4 14 18 27 33 24 17-3 25-22 32-38 33-79 119-123 161-196 10-17 11-36 3-45-10-11-36-3-46 0-29 8-52 25-83 59z"
    />
  </g>
  <g class="cls-11-donut-rabbit-level-five-profile">
    <path
      class="cls-6-donut-rabbit-level-five-profile"
      d="M1132 848c-16 18-10 41-23 66-10 18-15 11-27 29-14 21-12 50-9 77 1 7 2 13 5 19s8 11 14 11c8 0 14-7 18-14 19-25 37-50 51-79 13-28 22-60 18-92-2-22-11-26-13-28-8-4-17 0-20 1-2 1-8 4-14 10z"
    />
  </g>
  <g class="cls-11-donut-rabbit-level-five-profile">
    <path
      class="cls-6-donut-rabbit-level-five-profile"
      d="M1159 820c-8 5-21 8-33 1-17-9-15-31-15-32 1-13 9-25 20-31 8-4 18-6 26-4 2 1 15 4 21 16 5 12-1 25-5 33-3 5-6 12-14 17z"
    />
  </g>
  <circle
    class="cls-6-donut-rabbit-level-five-profile"
    cx="529.5"
    cy="1040.9"
    r="69.3"
  />
  <circle
    class="cls-10-donut-rabbit-level-five-profile"
    cx="551"
    cy="1065.6"
    r="30.7"
  />
  <circle
    class="cls-6-donut-rabbit-level-five-profile"
    cx="568"
    cy="1068.2"
    r="5.1"
  />
  <circle
    class="cls-6-donut-rabbit-level-five-profile"
    cx="554.7"
    cy="1052.8"
    r="10.3"
  />
  <path
    class="cls-1-donut-rabbit-level-five-profile"
    d="m478 950 69 51 19 14c3 2 8 3 12 2 3-1 7-4 9-7 2-4 3-8 2-12l-2-4-5-5-69-51-20-14c-3-3-8-3-12-2-3 1-7 4-9 7-2 4-3 8-1 12l1 4c2 2 3 4 6 5z"
  />
  <circle
    class="cls-6-donut-rabbit-level-five-profile"
    cx="710.5"
    cy="1040.9"
    r="69.3"
  />
  <circle
    class="cls-10-donut-rabbit-level-five-profile"
    cx="689.1"
    cy="1065.6"
    r="30.7"
  />
  <circle
    class="cls-6-donut-rabbit-level-five-profile"
    cx="672"
    cy="1068.2"
    r="5.1"
  />
  <circle
    class="cls-6-donut-rabbit-level-five-profile"
    cx="685.4"
    cy="1052.8"
    r="10.3"
  />
  <path
    class="cls-1-donut-rabbit-level-five-profile"
    d="m762 950-69 51-19 14c-3 2-8 3-12 2-3-1-7-4-9-7-2-4-3-8-1-12l1-4c2-2 3-4 6-5l69-51 19-14c3-3 8-3 12-2 3 1 7 4 9 7 2 4 3 8 1 12l-1 4c-1 2-3 4-6 5z"
  />
  <path
    class="cls-12-donut-rabbit-level-five-profile"
    d="m94 691 52-58c6-6-4-16-10-10l-52 58c-6 7 4 17 10 10zM227 525l33 28c6 5 16-4 9-10l-32-28c-7-6-17 4-10 10z"
  />
  <path
    class="cls-13-donut-rabbit-level-five-profile"
    d="m176 542 8-48c0-3-1-7-5-8-3-1-8 1-9 5l-7 47c-1 4 1 8 5 9 3 1 8-1 8-5zM162 742l47-13c9-2 5-16-4-13l-47 12c-9 2-5 16 4 14z"
  />
  <g>
    <path
      class="cls-9-donut-rabbit-level-five-profile"
      d="m909 328 1-1c40-40 45-85 63-151 14-50 20-74 29-87 43-65 119-64 117-78v-1c10 4 17 8 17 12 2 14-74 13-116 77-9 13-16 38-29 87-18 66-23 111-64 151l-1 1c-64 62-142 80-176 72-5-1-17-4-28-13l11 3c33 8 111-10 176-72z"
    />
    <path
      class="cls-3-donut-rabbit-level-five-profile"
      d="M718 392c-9-11-11-24-11-34-3-46 18-95 20-100 25-50 54-98 87-144 21-29 37-44 56-60a297 297 0 0 1 249-42c2 14-74 13-117 77-9 13-15 38-29 87-18 66-23 111-64 151l-1 1c-64 62-142 80-175 72l-11-3-4-5z"
    />
    <path
      class="cls-1-donut-rabbit-level-five-profile"
      d="M747 329c23 5 76-7 119-49 4-3 51-48 59-115 2-18 1-37-6-53-7-17-20-31-37-36-18-6-38 0-53 10-16 11-28 26-39 41-22 31-42 64-59 98-1 4-15 37-14 68 1 7 2 16 8 23 7 9 18 12 22 13z"
    />
    <path
      class="cls-9-donut-rabbit-level-five-profile"
      d="M993 186c9-3 16-11 21-20s8-18 14-26c14-22 46-29 69-19h2l4 4c1 1 0 2-1 2-24-11-55-3-70 18l-14 26c-4 9-11 17-21 20s-23-6-31-17c8 9 18 14 27 12z"
    />
    <path
      class="cls-3-donut-rabbit-level-five-profile"
      d="M968 112c5-8 11-12 12-13 24-17 57-9 69-5 22 6 39 17 50 27h-2c-23-10-55-3-69 19-6 8-9 17-14 26s-12 17-21 20c-9 2-19-3-27-12-2-3-5-7-6-11-10-24 6-48 8-51z"
    />
    <circle
      class="cls-6-donut-rabbit-level-five-profile"
      cx="789.3"
      cy="316.2"
      r="39.5"
    />
    <circle
      class="cls-10-donut-rabbit-level-five-profile"
      cx="801.1"
      cy="309"
      r="13.3"
    />
    <g class="cls-11-donut-rabbit-level-five-profile">
      <path
        class="cls-6-donut-rabbit-level-five-profile"
        d="M764 262c3 13-17 25-23 47-6 19-3 48-7 52l-2 2c-3 0-5-3-6-4l-4-12c-3-28 3-58 18-83 1-1 3-6 8-9 1 0 7-3 12-1 3 2 4 6 4 8z"
      />
    </g>
    <g class="cls-11-donut-rabbit-level-five-profile">
      <path
        class="cls-6-donut-rabbit-level-five-profile"
        d="M1016 93c-8 0-32 4-43 25-1 3-5 9-2 13s9 3 14 1l26-10c12-5 17-10 18-16 0-4-2-9-6-12l-7-1z"
      />
    </g>
    <g class="cls-11-donut-rabbit-level-five-profile">
      <path
        class="cls-6-donut-rabbit-level-five-profile"
        d="M758 243c5 4 14 4 19-1s7-13 2-19c-4-5-13-5-18-2-7 5-8 16-3 22z"
      />
    </g>
  </g>
  <g>
    <path
      class="cls-8-donut-rabbit-level-five-profile"
      d="M1033 1810c2 0 2-3 0-3s-2 3 0 3z"
    />
  </g>
  <ellipse
    transform="rotate(-25 217 1218)"
    class="cls-1-donut-rabbit-level-five-profile"
    cx="216.5"
    cy="1218.4"
    rx="171.1"
    ry="165.8"
  />
  <ellipse
    class="cls-15-donut-rabbit-level-five-profile"
    cx="314"
    cy="1205.7"
    rx="199.3"
    ry="158.5"
  />
  <g>
    <radialGradient
      id="SVGID_1_donut-rabbit-level-five-profile"
      cx="331.8"
      cy="656.7"
      r="177.1"
      fx="419"
      fy="625.3"
      gradientTransform="matrix(1 0 0 -1 0 1834)"
      gradientUnits="userSpaceOnUse"
    >
      <stop offset="0" style="stop-color: #f72165" />
      <stop offset=".8" style="stop-color: #ff6e73" />
    </radialGradient>
    <path
      d="M391 1030c-67-17-123 4-147 15-30 15-92 44-107 111-14 65 29 117 33 122 21 25 67 62 107 51 21-5 30-21 63-25 4-1 19-3 39-1 28 3 34 12 52 12 24 0 42-16 54-27 45-40 44-100 44-105-1-55-36-90-48-103-34-36-73-46-90-50z"
      style="fill: url(#SVGID_1_donut-rabbit-level-five-profile)"
    />
  </g>
  <g class="cls-17-donut-rabbit-level-five-profile">
    <path
      class="cls-18-donut-rabbit-level-five-profile"
      d="M264 1176c-6 3-15 8-26 18s-26 25-27 48c-1 19 9 40 27 47 27 10 55-10 81-21 25-12 54-16 81-12 20 2 43 8 59-6 11-9 13-26 8-40-3-7-7-19-28-33-58-38-139-18-175-1z"
    />
  </g>
  <g class="cls-14-donut-rabbit-level-five-profile">
    <path
      class="cls-6-donut-rabbit-level-five-profile"
      d="M414 1072a90 90 0 0 0-74-10c-8 3-27 8-28 18-2 12 10 22 22 25 12 2 26 2 36 9 13 10 16 32 31 40 12 6 28 0 37-10 11-14 4-34 2-40-6-18-19-27-26-32z"
    />
  </g>
  <g class="cls-14-donut-rabbit-level-five-profile">
    <path
      class="cls-6-donut-rabbit-level-five-profile"
      d="M250 1087c-6 8 1 27 12 28s23-15 20-24c-4-10-26-13-32-4z"
    />
  </g>
  <g class="cls-17-donut-rabbit-level-five-profile">
    <path
      class="cls-18-donut-rabbit-level-five-profile"
      d="m272 1216-16 9c-6 6-16 13-17 25 0 10 6 20 17 24 16 5 33-5 49-11 15-6 33-8 49-6 12 1 26 4 36-3 6-5 8-13 5-20-2-4-5-10-17-17-35-20-84-9-106-1z"
    />
  </g>
  <ellipse
    transform="rotate(-65 1020 1215)"
    class="cls-1-donut-rabbit-level-five-profile"
    cx="1019.6"
    cy="1214.8"
    rx="165.8"
    ry="171.1"
  />
  <ellipse
    class="cls-15-donut-rabbit-level-five-profile"
    cx="922"
    cy="1202.1"
    rx="199.3"
    ry="158.5"
  />
  <g>
    <radialGradient
      id="SVGID_00000139992350657339084220000017589234633319174292_donut-rabbit-level-five-profile"
      cx="539.1"
      cy="660.4"
      r="177"
      fx="626.3"
      fy="629"
      gradientTransform="rotate(180 722 917)"
      gradientUnits="userSpaceOnUse"
    >
      <stop offset="0" style="stop-color: #f72165" />
      <stop offset=".8" style="stop-color: #ff6e73" />
    </radialGradient>
    <path
      style="
        fill: url(#SVGID_00000139992350657339084220000017589234633319174292_donut-rabbit-level-five-profile);
      "
      d="M845 1026c67-17 124 5 147 16 31 14 93 44 107 110s-29 117-33 123c-21 24-67 61-107 50-21-5-30-20-63-25-4-1-19-3-39-1-28 4-35 12-52 12-24 1-42-16-54-26-45-40-45-100-44-105 1-56 35-91 48-104 34-35 74-46 90-50z"
    />
  </g>
  <g class="cls-17-donut-rabbit-level-five-profile">
    <path
      class="cls-18-donut-rabbit-level-five-profile"
      d="M972 1172c6 3 16 9 26 18 11 10 26 26 27 49 2 19-9 39-27 46-27 11-55-9-81-21-25-11-53-16-81-12-20 2-43 8-59-5-10-10-13-27-8-41 3-6 7-19 28-33 58-38 139-18 175-1z"
    />
  </g>
  <g class="cls-14-donut-rabbit-level-five-profile">
    <path
      class="cls-6-donut-rabbit-level-five-profile"
      d="M822 1069c30-20 63-13 74-10 8 2 27 7 28 18 2 12-10 21-22 24s-26 3-35 10c-14 10-17 31-32 40-12 6-28-1-37-11-11-14-4-33-2-40 6-17 19-27 26-31z"
    />
  </g>
  <g class="cls-14-donut-rabbit-level-five-profile">
    <path
      class="cls-6-donut-rabbit-level-five-profile"
      d="M987 1083c5 8-2 27-13 29s-23-15-20-25c4-10 26-12 33-4z"
    />
  </g>
  <g class="cls-17-donut-rabbit-level-five-profile">
    <path
      class="cls-18-donut-rabbit-level-five-profile"
      d="M964 1213c4 1 10 4 16 9 7 5 16 13 17 24 0 10-6 20-17 24-16 5-33-5-49-11-15-5-32-8-49-6-12 1-26 4-36-3-6-5-7-13-4-20 1-3 4-10 16-17 35-19 84-9 106 0z"
    />
  </g>
  <g>
    <path
      class="cls-10-donut-rabbit-level-five-profile"
      d="m560 1188 4-3 1-1s1-1 0 0l2-1a99 99 0 0 1 16-10l2-1c-1 0 0 0 0 0h1l5-2 9-3h4l3-1h2-1 2l3-1h5a103 103 0 0 1 14 1s1 0 0 0h1l3 1 11 2 22 5c14 2 30 1 41-8 12-9 18-25 11-39-1-3-5-4-8-2s-4 5-2 8v1c1 1 0-1 0 0l1 2v1c0 1 0-1 0 0v5c0-2 0-1 0 0v1l-1 2v2-1l-1 1-2 4v1c-1 0-1 1 0 0l-2 1-3 3c-1 1 1 0 0 0v1l-2 1-2 1-1 1h-1 1l-10 2c-1 0 0 0 0 0h-1l-2 1h-5l-5-1h-3c-1 0-1 0 0 0h-1c-14-2-28-7-43-9a105 105 0 0 0-76 26c-3 3-3 7-1 9 3 2 7 2 9 0z"
    />
  </g>
</svg>
