<?xml version="1.0" encoding="utf-8"?>
<!-- Generator: Adobe Illustrator 25.4.1, SVG Export Plug-In . SVG Version: 6.00 Build 0)  -->
<svg version="1.1" id="banana-profile-level-three" xmlns="http://www.w3.org/2000/svg" xmlns:xlink="http://www.w3.org/1999/xlink" x="0px"
	 y="0px" viewBox="0 0 1284.8 640.4" style="enable-background:new 0 0 1284.8 640.4;" xml:space="preserve">
<style type="text/css">
	.cls-1-banana-elephant-level-three{fill:#FFC500;}
	.cls-2-banana-elephant-level-three{fill:#FDD301;}
	.cls-3-banana-elephant-level-three{fill:url(#SVGID_1_banana-elephant-level-three);}
	.cls-4-banana-elephant-level-three{fill:url(#SVGID_00000157280569872331136670000005710456206254383549_banana-elephant-level-three);}
	.cls-5-banana-elephant-level-three{fill:#FFFFFF;}
	.cls-6-banana-elephant-level-three{fill:#FD0300;}
</style>
<path class="cls-1-banana-elephant-level-three" d="M1273.4,290.7c3.4,14.1,5,28.6,5,43.1c0,102.9-83.4,186.3-186.3,186.3c-78.2,0-148.1-48.8-175-122.2
	c19.5,82.1,93.2,143.2,181.3,143.2c102.9,0,186.3-83.4,186.3-186.3C1284.8,332.9,1280.9,311.2,1273.4,290.7z"/>
<path class="cls-2-banana-elephant-level-three" d="M1092.1,520.1c102.9,0,186.3-83.4,186.3-186.3c0-14.5-1.7-29-5-43.1c-26.9-73.4-96.8-122.2-175-122.2
	c-102.9,0-186.3,83.4-186.3,186.3c0,14.5,1.7,29,5,43.1C944.1,471.3,1013.9,520.1,1092.1,520.1z"/>
<path class="cls-1-banana-elephant-level-three" d="M11.4,290.7c-3.4,14.1-5,28.6-5,43.1c0,102.9,83.4,186.3,186.3,186.3c78.2,0,148.1-48.8,175-122.2
	c-19.5,82.1-93.2,143.2-181.3,143.2C83.4,541.1,0,457.7,0,354.8C0,332.9,3.8,311.2,11.4,290.7z"/>
<path class="cls-2-banana-elephant-level-three" d="M192.6,520.1C89.7,520.1,6.3,436.7,6.3,333.8c0-14.5,1.7-29,5.1-43.1c26.9-73.4,96.8-122.2,175-122.2
	c102.9,0,186.3,83.4,186.3,186.3c0,14.5-1.7,29-5,43.1C340.7,471.3,270.8,520.2,192.6,520.1z"/>
<path class="cls-1-banana-elephant-level-three" d="M957.3,268c7.5-17.5,11.4-36.2,11.4-55.2C968.7,94.7,817.2-1,630.5-1H630c141.6,1.5,312.7,83.2,327.4,196.9
	c3.8,29-3.3,55.3-12.3,76c94.4,61.5,98.9,117.3,99.2,131.7c2.2,104.4-174,202.3-320,202.3c-35.8,0.1-71.5-3.8-106.4-11.5
	c-34.9,7.7-70.6,11.5-106.4,11.5c-145,0-322.4-97-320-202.3c1.7-74.6,92.9-129.1,118.5-143.9c-7.5-19.8-13.5-45.4-9-73.6
	C317.7,82.3,465.3,9.3,598,0C426.4,10.3,292.2,101.7,292.2,212.8c0,15,2.5,30,7.3,44.2c-80.4,39.1-132.2,100.5-132.2,169.6
	c0,118.1,151.4,213.8,338.2,213.8c37.8,0.1,75.5-4,112.5-12.1c36.9,8.1,74.6,12.2,112.5,12.1c186.8,0,338.2-95.7,338.2-213.8
	C1068.7,363.7,1025.7,307.2,957.3,268z"/>
<path class="cls-2-banana-elephant-level-three" d="M301.1,186.1c-4.5,28.2,1.4,53.7,9,73.6c-25.6,14.9-116.8,69.3-118.5,143.9c-2.4,105.3,175,202.3,320,202.3
	c35.8,0.1,71.5-3.8,106.4-11.5c34.9,7.7,70.6,11.5,106.4,11.5c146.1,0,322.2-97.9,320-202.3c-0.3-14.3-4.8-70.2-99.2-131.7
	c8.9-20.7,16-47,12.3-76C942.7,82.2,771.6,0.5,630-1c-10.8,0-21.5,0.3-32,1C465.3,9.3,317.7,82.3,301.1,186.1z"/>
<radialGradient id="SVGID_1_banana-elephant-level-three" cx="397.6903" cy="1990.0193" r="97.27" gradientTransform="matrix(0.88 -0.47 -0.47 -0.88 1020.2413 2358.0784)" gradientUnits="userSpaceOnUse">
	<stop  offset="0" style="stop-color:#FD3400;stop-opacity:0.6"/>
	<stop  offset="1" style="stop-color:#FD3700;stop-opacity:0"/>
</radialGradient>
<circle class="cls-3-banana-elephant-level-three" cx="438" cy="417" r="97.3"/>
<radialGradient id="SVGID_00000162327406786031554150000009653731713479500479_banana-elephant-level-three" cx="780.8972" cy="569" r="97.27" gradientTransform="matrix(1 0 0 -1 0 986)" gradientUnits="userSpaceOnUse">
	<stop  offset="0" style="stop-color:#FD3400;stop-opacity:0.6"/>
	<stop  offset="1" style="stop-color:#FD3700;stop-opacity:0"/>
</radialGradient>
<circle style="fill:url(#SVGID_00000162327406786031554150000009653731713479500479_banana-elephant-level-three);" cx="780.9" cy="417" r="97.3"/>
<path d="M495.7,378.3c-1.5,0-2.9-0.4-4.2-1.2c-3.1-1.7-4.2-5.6-2.5-8.6c0.1-0.3,0.3-0.5,0.5-0.8c1.9-2.6,12.6-16.1,31.6-29.1
	c24.5-16.8,53.5-25.9,83.2-25.9h0.2c28.7-0.1,56.8,8.4,80.7,24.2c18.2,11.9,28.7,24.2,31.5,27.8c2.2,2.7,1.8,6.7-0.9,8.9
	c-0.2,0.2-0.5,0.4-0.8,0.5c-3.4,2.2-7.9,1.5-10.5-1.5c-3.8-4.7-38.8-46.3-100.1-46.4h-0.2c-26.5-0.1-52.3,8-74.1,23.1
	c-17.5,12-27.2,24.6-28.3,26C500.5,377.3,498.2,378.4,495.7,378.3z"/>
<circle class="cls-5-banana-elephant-level-three" cx="551.4" cy="407" r="33.9"/>
<circle cx="551.4" cy="410.3" r="28.4"/>
<circle class="cls-5-banana-elephant-level-three" cx="655" cy="407" r="33.9"/>
<circle cx="655" cy="410.3" r="28.4"/>
<path class="cls-6-banana-elephant-level-three" d="M573.3,491.9h72.2c7.3,0,13.2,5.9,13.2,13.2l0,0c0,7.3-5.9,13.2-13.2,13.2h-72.2c-7.3,0-13.2-5.9-13.2-13.2l0,0
	C560.1,497.8,566,491.9,573.3,491.9z"/>
<path class="cls-5-banana-elephant-level-three" d="M632.2,472.9h9.1c3.9,0,6.4,6.2,4.4,11.2l-4.6,11.5l-4.5,11.5c-2,5-6.9,5-8.9,0l-4.6-11.5l-4.5-11.5
	c-2-5,0.5-11.2,4.4-11.2L632.2,472.9z"/>
<path class="cls-6-banana-elephant-level-three" d="M573.3,459.7h72.2c7.3,0,13.2,5.9,13.2,13.2v0c0,7.3-5.9,13.2-13.2,13.2h-72.2c-7.3,0-13.2-5.9-13.2-13.2v0
	C560.1,465.6,566,459.7,573.3,459.7z"/>
</svg>
