<svg
  version="1.1"
  id="lemon-mouse-level-four-profile"
  xmlns="http://www.w3.org/2000/svg"
  x="0"
  y="0"
  viewBox="0 0 742.6 970.7"
  style="enable-background: new 0 0 742.6 970.7"
  xml:space="preserve"
>
  <style>
    .cls-2-lemon-mouse-level-four-profile {
      fill: #8f7c5a;
    }
    .cls-3-lemon-mouse-level-four-profile {
      opacity: 0.2;
    }
    .cls-6-lemon-mouse-level-four-profile {
      fill: #333;
    }
    .cls-7-lemon-mouse-level-four-profile {
      fill: #fff;
    }
  </style>
  <path
    d="M296.6 1008.5c-1.8-2-4.5-2.9-7.1-2.5l-.3 1.2c2.2.7 4.3 1.6 6.3 2.6l1.1-1.3z"
    style="fill: none"
  />
  <path
    class="cls-2-lemon-mouse-level-four-profile"
    d="M546.8 125.7c23.3-32.5 57.5-74.8 98.5-107.5 12-9.6 27-19.5 45.2-18 16.6 1.4 30.8 13.7 38.6 28.4s10.2 31.6 11.7 48.2c6.8 77.9-5 156.3-34.3 228.8-3.8 9.2-9.1 24.7-21.9 28.8-20 6.4-44.3-18.4-55.4-29.7-47.1-48.1-70.5-120.7-82.4-179z"
  />
  <path
    d="M688.5 38c-38 2.7-68.7 130.8-46.6 208.9 2.9 10.2 9.2 32.3 22.1 33.8 12.2 1.5 21.9-9.8 28.4-20.3 38.2-62.5 37-131.4 31.5-187.4-.6-6.1-2-17.5-10.6-25.8-6.7-6.1-15.7-9.4-24.8-9.2z"
    class="cls-3-lemon-mouse-level-four-profile"
  />
  <path
    class="cls-2-lemon-mouse-level-four-profile"
    d="M195.9 125.7c-23.3-32.5-57.5-74.8-98.5-107.5-12-9.6-27-19.5-45.2-18-16.6 1.4-30.8 13.6-38.6 28.3S3.3 60.2 1.9 76.7c-6.8 77.9 5 156.3 34.3 228.8 3.8 9.2 9.1 24.7 21.9 28.8 20 6.4 44.3-18.4 55.4-29.7 47-48 70.5-120.6 82.4-178.9z"
  />
  <path
    d="M54.2 38c38 2.7 68.7 130.8 46.6 208.9-2.9 10.2-9.2 32.3-22.1 33.8-12.2 1.5-21.9-9.8-28.4-20.3C12 198 13.2 129.1 18.7 73.1c.6-6.1 2-17.5 10.6-25.8 6.8-6.2 15.7-9.5 24.9-9.3z"
    class="cls-3-lemon-mouse-level-four-profile"
  />
  <path
    d="M613.4 302.5c-31.2-94.7-93.3-189-189.5-215.4-8.8-36.4-45.1-62.2-81.9-64.2-36.4 1.8-66.2 24.1-70 54.7-.3 2.6-2.1 4.8-4.5 5.7-52.1 19.6-88.8 48.5-104.2 60.5-107.9 83.8-131 200.2-145 270.9C.8 502.9-33 673.2 84.7 809.3c4.7 5.4 79.9 89.6 198 122.3.7.2 4.6 2.2 9.9 4.7 44.4 21.3 49.6 28.2 61.9 32.6 22 8 61.3-9.3 139.4-44.1C635.1 755.6 682.4 512 613.4 302.5z"
    style="fill: #fc4401"
  />
  <path
    d="M603.5 172.9c-29-28.3-86.2-84.2-173.7-102.8-2.1-.4-3.9-1.8-4.9-3.8-10.7-21.9-35.4-39-65.8-42.8-5.6-.7-11.3-.9-17-.6 36.8 2 73.1 27.8 81.9 64.2 96.1 26.4 158.3 120.7 189.4 215.4 69 209.5 21.7 453.1-119.6 622.3l2.4-1.1c10.3-4.6 15.6-7 21-9.5 37.1-17.8 117.5-65.3 168.3-149.3 48.5-80.2 49.8-155.8 50.9-217.2 1.1-57.4 4.3-240.8-132.9-374.8z"
    style="fill: #fc1b00"
  />
  <ellipse
    transform="rotate(-65.172 237.8 437.374)"
    class="cls-6-lemon-mouse-level-four-profile"
    cx="237.8"
    cy="437.4"
    rx="40.5"
    ry="28.9"
  />
  <ellipse
    transform="rotate(-24.828 471.418 427.062)"
    class="cls-6-lemon-mouse-level-four-profile"
    cx="471.4"
    cy="427"
    rx="28.9"
    ry="40.5"
  />
  <path
    class="cls-7-lemon-mouse-level-four-profile"
    d="M422.3 650.4c1.9 3.8 4 7.5 6.4 11 5.9 8.8 9.2 13.6 13.4 13.6 5 0 8.8-6.6 13-13.6 2.1-3.6 3.8-7.3 5.1-11.2l-37.9.2z"
  />
  <radialGradient
    id="SVGID_1_lemon-mouse-level-four-profile"
    cx="587.843"
    cy="1085.145"
    r="142.739"
    gradientTransform="matrix(1 0 0 -1 0 1646)"
    gradientUnits="userSpaceOnUse"
  >
    <stop offset="0" style="stop-color: #ff000b" />
    <stop offset="1" style="stop-color: #fc1b00; stop-opacity: 0" />
  </radialGradient>
  <path
    d="M694.4 650.7c-48.9 57.2-143 73.9-203.7 21.3-61-52.9-58.6-150.3-5.3-207.1 54.8-58.5 154.3-64.2 209.4-6 50.2 52.9 44.8 138.9-.4 191.8z"
    style="fill: url(#SVGID_1_lemon-mouse-level-four-profile)"
  />
  <radialGradient
    id="SVGID_00000122719405648352089330000002118133669965139072_lemon-mouse-level-four-profile"
    cx="135.995"
    cy="1056.456"
    r="146.622"
    gradientTransform="matrix(1 0 0 -1 0 1646)"
    gradientUnits="userSpaceOnUse"
  >
    <stop offset="0" style="stop-color: #ff000b" />
    <stop offset="1" style="stop-color: #fc1b00; stop-opacity: 0" />
  </radialGradient>
  <path
    style="
      fill: url(#SVGID_00000122719405648352089330000002118133669965139072_lemon-mouse-level-four-profile);
    "
    d="M245.5 681.8c-50.2 58.8-146.9 75.9-209.2 21.9-62.6-54.3-60.2-154.4-5.5-212.8 56.3-60 158.5-66 215.1-6.1 51.5 54.4 46 142.7-.4 197z"
  />
  <ellipse
    transform="rotate(-65.172 242.528 435.09)"
    cx="242.6"
    cy="435.1"
    rx="38.3"
    ry="27.4"
  />
  <ellipse
    transform="rotate(-24.828 465.924 423.958)"
    cx="465.9"
    cy="423.9"
    rx="27.3"
    ry="38.4"
  />
  <circle
    class="cls-7-lemon-mouse-level-four-profile"
    cx="250.1"
    cy="410.9"
    r="7"
  />
  <circle
    class="cls-7-lemon-mouse-level-four-profile"
    cx="459.1"
    cy="400.5"
    r="7"
  />
  <path
    d="m382.1 652.3 69.6-2.1 20-.6c3-.1 6-2.6 5.8-5.8 0-3.2-2.6-5.8-5.8-5.8l-69.7 2-20 .6c-3 .1-6 2.6-5.8 5.8.1 3.2 2.6 5.8 5.9 5.9z"
  />
  <radialGradient
    id="SVGID_00000024705277660363345390000011982847015088595130_lemon-mouse-level-four-profile"
    cx="341.516"
    cy="1090.48"
    r="59.34"
    gradientTransform="matrix(1 0 0 -1 0 1646)"
    gradientUnits="userSpaceOnUse"
  >
    <stop offset=".25" style="stop-color: red" />
    <stop offset="1" style="stop-color: #fc1b00; stop-opacity: 0" />
  </radialGradient>
  <path
    style="
      fill: url(#SVGID_00000024705277660363345390000011982847015088595130_lemon-mouse-level-four-profile);
    "
    d="M377.7 580.3c-14 4.8-30.3-1.1-39.5-10.9-9.4-10.1-11.6-24.4-5-36.4 6.3-11.6 20.8-19.4 35.3-19.1 3 .1 12.8.6 20.6 7.3 8 6.9 8.7 16 9.1 20.5.2 2.1 1.9 31-20.5 38.6z"
  />
  <path
    d="M337.6 452.5c-11.8 20.8-23.6 42.3-26 66.6-1.1 11.1-.1 22.8 4 33.2 3.9 10.3 10.7 19.2 19.6 25.7 9.6 7.1 21.6 10.1 33.4 8.5 3-.4 4.9-4.4 4.1-7.2-1.1-3.3-3.9-4.5-7.2-4.1 1.2-.2-.1 0-.6 0s-1.1.1-1.7.1h-3.3c-.5 0-1.1-.1-1.7-.1l-.7-.1c1.3.2.4.1.2 0-1.1-.2-2.2-.4-3.2-.7s-2.1-.6-3.2-1c-.5-.2-1-.4-1.6-.6l-.7-.3c.8.3.4.2-.1-.1-2-.9-4-2-5.9-3.2-.9-.6-1.7-1.2-2.6-1.8 1 .7-.3-.2-.5-.4-.5-.4-1-.8-1.5-1.3-1.7-1.5-3.3-3.1-4.8-4.9-.4-.4-.7-.9-1.1-1.3.7.8-.2-.2-.4-.6-.7-.9-1.3-1.8-1.9-2.8-1.3-2.1-2.5-4.3-3.4-6.6.4.9-.1-.4-.2-.6-.2-.6-.5-1.2-.7-1.8-.5-1.3-.8-2.6-1.2-3.9-.7-2.5-1.2-5-1.5-7.5.2 1.1-.1-.6-.1-.9-.1-.5-.1-1.1-.2-1.7-.1-1.4-.2-2.7-.2-4.1-.1-2.6 0-5.2.2-7.7.1-1.3.2-2.6.4-3.9.1-1.1-.1.5.1-.7.1-.7.2-1.5.3-2.2.4-2.5 1-5.1 1.6-7.6 1.4-5.4 3.2-10.7 5.3-15.9l.3-.8c-.3.7.1-.3.2-.5.3-.7.6-1.5 1-2.2.6-1.4 1.2-2.7 1.9-4 1.4-2.9 2.8-5.7 4.3-8.5 3-5.6 6.1-11.1 9.2-16.7 1.5-2.7.7-6.5-2.1-8-2.5-1.5-6-.6-7.8 2.2z"
  />
</svg>
