<svg version="1.1" id="donut-profile-level-three" xmlns="http://www.w3.org/2000/svg" x="0" y="0" viewBox="0 0 944.3 1276.2" style="enable-background:new 0 0 944.3 1276.2" xml:space="preserve"><style>.cls-1-donut-rabbit-level-three{fill:#fd037f}.cls-2-donut-rabbit-level-three{fill:#e51570}.cls-3-donut-rabbit-level-three{fill:#fff}.cls-5-donut-rabbit-level-three{fill:#ff6e73}.cls-6-donut-rabbit-level-three{fill:#070707}</style><path class="cls-1-donut-rabbit-level-three" d="M697.2 957.7C757.5 882 802 792.6 817.9 697a440.4 440.4 0 0 0-19.4-222.5A462.4 462.4 0 0 0 10.7 845.3a485.5 485.5 0 0 0 94.6 118.4c171 156 391.1 128.2 418.5 124.3 17-2.4 33.1-5.7 48.4-9.4a681.5 681.5 0 0 0 125-120.9z"/><path class="cls-2-donut-rabbit-level-three" d="M798.5 474.5A438.2 438.2 0 0 1 817.9 697c-15.8 95.5-60.4 185-120.7 260.7a690.8 690.8 0 0 1-124.9 120.9c84-20.7 144.3-59.1 185.6-85.9a707.8 707.8 0 0 0 174.4-161.2 460.9 460.9 0 0 0-133.8-357z"/><path class="cls-3-donut-rabbit-level-three" d="M939.3 833.8a13.6 13.6 0 0 0-7-2.3v.1-.1a709.5 709.5 0 0 1-174.4 161.2c-48.8 31.7-124.3 79.6-234.1 95.4-27.4 3.9-247.5 31.7-418.7-124.3a487.8 487.8 0 0 1-94.6-118.4l.3 2.9a12 12 0 0 0-5.9 2.1c-5.2 3.7-12.1 15.9 14.1 94.1 13.2 39.5 19.9 59.3 34.5 86.1 13.9 25.5 41.2 75.6 66.4 71.5a294 294 0 0 1 125.9 33.4c49.3 26 90.6 66.9 118.2 115.4l1.4.3c.3.5.8.9 1.4 1.2a45 45 0 0 0 24.5 14.1c23 5.7 100.9 16.6 148.7 4.4a59.4 59.4 0 0 0 29.3-15.6l3-3.3 1.3-.3c27.5-48.9 69.1-90 118.7-116.3a296 296 0 0 1 128.4-33.5l.4.1c25.9 4.3 53.8-49 68.1-76.2 15-28.6 21.8-49.7 35.5-91.8 27-83.2 20-96.2 14.6-100.2z"/><path class="cls-2-donut-rabbit-level-three" d="M546.3 403.4c36.1 8.6 119.9-10.9 189.1-77.1 5.6-5.4 80.4-76.2 92-182.3 3.1-28.1 1.9-57.4-8.6-83.6s-31.8-49.2-59-57.2c-28.5-8.4-59.8.5-84.4 17.3S632.3 61 615 85.2a1117.9 1117.9 0 0 0-93.3 155c-2.6 5.4-25.1 58.2-22.3 107.5a60.7 60.7 0 0 0 12 36c11.5 14.1 28.1 18 34.9 19.7z"/><path class="cls-1-donut-rabbit-level-three" d="M542.6 316c24.5 5.8 81.5-7.4 128.6-52.5 3.9-3.7 54.6-51.8 62.6-124 2.1-19.1 1.3-39-5.9-56.9s-21.6-33.5-40-38.9c-19.4-5.7-40.7.4-57.4 11.7s-29.4 27.6-41.2 44a767.7 767.7 0 0 0-63.5 105.4c-1.9 3.7-17.1 39.6-15.2 73.2.4 7.3 1.8 16.6 8.2 24.4 8 9.8 19.3 12.5 23.8 13.6z"/><path class="cls-2-donut-rabbit-level-three" d="M380 403.4c-36 8.6-119.9-11-189-77.2-5.6-5.4-80.4-76.2-92-182.3-3.1-28.1-1.9-57.4 8.6-83.6s31.7-49.2 58.9-57.2c28.5-8.4 59.8.5 84.4 17.3S294 61 311.3 85.2a1117.9 1117.9 0 0 1 93.3 155c2.7 5.4 25.1 58.2 22.3 107.5a60.7 60.7 0 0 1-12 36c-11.5 14.1-28.1 18-34.9 19.7z"/><path class="cls-1-donut-rabbit-level-three" d="M383.5 316c-24.5 5.8-81.5-7.4-128.6-52.5-3.9-3.7-54.6-51.8-62.6-124-2.1-19.1-1.3-39 5.9-56.9a65.3 65.3 0 0 1 40-38.9c19.4-5.7 40.7.4 57.4 11.7 16.7 11.4 29.4 27.6 41.2 44 24 33.4 45.2 68.7 63.5 105.4 1.9 3.7 17.1 39.6 15.2 73.2a40.8 40.8 0 0 1-8.2 24.4 41.6 41.6 0 0 1-23.8 13.6z"/><circle class="cls-2-donut-rabbit-level-three" cx="469.8" cy="705.3" r="254.1"/><path d="M514.2 827.8c0-65.8 62-119.2 138.4-119.2 12.9 0 25.8 1.5 38.3 4.6a221.3 221.3 0 0 0-442.4 0c12.5-3.1 25.4-4.7 38.3-4.6 76.4 0 138.4 53.4 138.4 119.2 0 35.5-18 67.3-46.5 89.1a222 222 0 0 0 182 0c-28.5-21.8-46.5-53.6-46.5-89.1z" style="fill:#ffb6c7"/><path class="cls-5-donut-rabbit-level-three" d="M425.3 827.8c0-65.8-62-119.2-138.4-119.2-12.9 0-25.8 1.5-38.3 4.6v2c0 87 50.9 165.9 130.2 201.7 28.5-21.8 46.5-53.6 46.5-89.1zM691 715.2v-2a154.4 154.4 0 0 0-38.3-4.6c-76.4 0-138.4 53.4-138.4 119.2 0 35.5 18 67.3 46.5 89.1A221.4 221.4 0 0 0 691 715.2z"/><circle class="cls-6-donut-rabbit-level-three" cx="407" cy="699" r="18.3"/><circle class="cls-6-donut-rabbit-level-three" cx="532.5" cy="699" r="18.3"/><path class="cls-1-donut-rabbit-level-three" d="M245.9 1135.5a294.4 294.4 0 0 0-125.9-33.4 462.5 462.5 0 0 0 244.2 148.8 295.8 295.8 0 0 0-118.3-115.4zM573.8 1251.8a463.1 463.1 0 0 0 247.9-149.7 294 294 0 0 0-129.2 33.5 295 295 0 0 0-118.7 116.2zM507.2 686.8a95.3 95.3 0 0 0 22.2-12.9 92.6 92.6 0 0 0 22.9-27 11 11 0 0 0 1.1-8.1c-.7-2.6-2.5-4.9-4.8-6.3-4.9-2.6-11.5-1.4-14.4 3.8-1.9 3.6-4.2 7-6.6 10.2l1.7-2.1a81.8 81.8 0 0 1-14.7 14.7l2.1-1.6a82.6 82.6 0 0 1-17.2 10.1l2.5-1.1-.4.2c-1.3.3-2.6 1-3.6 1.9a7.5 7.5 0 0 0-2.7 2.9 10.5 10.5 0 0 0-1 8.1c.7 2.6 2.5 4.9 4.8 6.3 2.3 1.1 5.6 2 8.1.9zM441.9 666.5l-.4-.2 2.5 1.1c-6.1-2.6-11.9-6-17.2-10.1l2.1 1.6a77.6 77.6 0 0 1-14.6-14.6l1.6 2.1a68.4 68.4 0 0 1-6.6-10.2c-2.6-4.8-9.7-6.8-14.4-3.8-4.9 3-6.6 9.3-3.8 14.4a90.5 90.5 0 0 0 45.1 39.9c2.3 1 6 .2 8.1-1.1 5-2.9 6.7-9.4 3.8-14.4l-1.6-2.1a13 13 0 0 0-4.6-2.6z"/><path d="M473.1 705.8a14.7 14.7 0 1 0 14.4 15v-.2c0-8.1-6.4-14.7-14.4-14.8zm0 21c-3.5.1-6.4-2.7-6.4-6.2s2.7-6.4 6.2-6.4a6.2 6.2 0 0 1 6.4 6.2v.1c0 3.4-2.8 6.2-6.2 6.3z" style="fill:#fd016f"/><path class="cls-3-donut-rabbit-level-three" d="M456.1 748.2c-4.3 3.3.9 18.9 5.5 19.1 3 .1 4.8-6.5 9.3-10.6.3-.3 1.3-1.2 1.2-2.2s-1.4-1.8-2.1-2.2c-7.3-3.7-11.7-5.9-13.9-4.1z"/><path d="M501 741.8a22 22 0 0 0-19 11.1l-.8 1.7a34.4 34.4 0 0 0-39.9-5.8c-3-5.1-8.4-8.2-14.3-8.1a2.9 2.9 0 0 0 0 5.8c2-.1 3.9.5 5.6 1.5s3.1 2.5 4 4.3c1.6 3.7.9 7.9-1.7 10.9a3 3 0 0 0 0 4.2 3 3 0 0 0 4.1 0c3.2-3.5 4.7-8.3 4.1-13 5.8-3.3 12.6-4.5 19.2-3.3a29.3 29.3 0 0 1 17.3 10.3c-.4 5 1 10 3.9 14.1a3 3 0 1 0 5-3 15.4 15.4 0 0 1 12.4-25c3.9.2 3.9-5.7.1-5.7z"/></svg>