<?xml version="1.0" encoding="utf-8"?>
<!-- Generator: Adobe Illustrator 25.4.1, SVG Export Plug-In . SVG Version: 6.00 Build 0)  -->
<svg version="1.1" id="레이어_1" xmlns="http://www.w3.org/2000/svg" xmlns:xlink="http://www.w3.org/1999/xlink" x="0px"
	 y="0px" viewBox="0 0 944.3 1276.2" style="enable-background:new 0 0 944.3 1276.2;" xml:space="preserve">
<style type="text/css">
	.cls-1-donut-rabbit-level-three{fill:#FD037F;}
	.cls-2-donut-rabbit-level-three{fill:#E51570;}
	.cls-3-donut-rabbit-level-three{fill:#FFFFFF;}
	.cls-4-donut-rabbit-level-three{fill:#FFB6C7;}
	.cls-5-donut-rabbit-level-three{fill:#FF6E73;}
	.cls-6-donut-rabbit-level-three{fill:#070707;}
	.cls-7-donut-rabbit-level-three{fill:#FD016F;}
</style>
<path class="cls-1-donut-rabbit-level-three" d="M697.2,957.7C757.5,882,802,792.6,817.9,697c12.3-74.2,6.5-152.1-19.4-222.5c-83.7-84-199.6-136.1-327.6-136.1
	c-255.4,0-462.4,207-462.4,462.4c0,15,0.7,29.9,2.2,44.5c25.1,44.2,57.1,84.1,94.6,118.4c171,156,391.1,128.2,418.5,124.3
	c17-2.4,33.1-5.7,48.4-9.4C618.9,1043.8,660.8,1003.2,697.2,957.7z"/>
<path class="cls-2-donut-rabbit-level-three" d="M798.5,474.5c26,70.4,31.8,148.3,19.4,222.5c-15.8,95.5-60.4,185-120.7,260.7c-36.4,45.4-78.3,86-124.9,120.9
	c84-20.7,144.3-59.1,185.6-85.9c66.8-43.5,125.7-98,174.4-161.2c0.7-10.2,1-20.5,1-30.8C933.3,673.5,881.8,558.1,798.5,474.5z"/>
<path class="cls-3-donut-rabbit-level-three" d="M939.3,833.8c-2.1-1.4-4.5-2.2-7-2.3v0.1v-0.1c-48.7,63.2-107.7,117.7-174.4,161.2
	c-48.8,31.7-124.3,79.6-234.1,95.4c-27.4,3.9-247.5,31.7-418.7-124.3c-37.5-34.3-69.4-74.2-94.6-118.4c0.1,1,0.2,1.9,0.3,2.9
	c-2.2,0.2-4.2,0.9-5.9,2.1c-5.2,3.7-12.1,15.9,14.1,94.1c13.2,39.5,19.9,59.3,34.5,86.1c13.9,25.5,41.2,75.6,66.4,71.5
	c43.8,1.7,87.2,12.9,125.9,33.4c49.3,26,90.6,66.9,118.2,115.4l1.4,0.3c0.3,0.5,0.8,0.9,1.4,1.2c2,2.2,4.2,4.2,6.5,5.9
	c5.4,3.9,11.5,6.7,18,8.2c23,5.7,100.9,16.6,148.7,4.4c9.3-2.3,20.2-6.3,29.3-15.6c1.2-1.2,2.1-2.3,3-3.3l1.3-0.3
	c27.5-48.9,69.1-90,118.7-116.3c39.4-20.8,83.8-32.1,128.4-33.5l0.4,0.1c25.9,4.3,53.8-49,68.1-76.2c15-28.6,21.8-49.7,35.5-91.8
	C951.7,850.8,944.7,837.8,939.3,833.8z"/>
<g>
	<path class="cls-2-donut-rabbit-level-three" d="M546.3,403.4c36.1,8.6,119.9-10.9,189.1-77.1c5.6-5.4,80.4-76.2,92-182.3c3.1-28.1,1.9-57.4-8.6-83.6
		S787,11.2,759.8,3.2c-28.5-8.4-59.8,0.5-84.4,17.3S632.3,61,615,85.2c-35.3,49.1-66.4,100.9-93.3,155
		c-2.6,5.4-25.1,58.2-22.3,107.5c0.6,10.8,2.6,24.3,12,36C522.9,397.8,539.5,401.7,546.3,403.4z"/>
	<path class="cls-1-donut-rabbit-level-three" d="M542.6,316c24.5,5.8,81.5-7.4,128.6-52.5c3.9-3.7,54.6-51.8,62.6-124c2.1-19.1,1.3-39-5.9-56.9
		s-21.6-33.5-40-38.9c-19.4-5.7-40.7,0.4-57.4,11.7s-29.4,27.6-41.2,44c-24,33.4-45.2,68.7-63.5,105.4c-1.9,3.7-17.1,39.6-15.2,73.2
		c0.4,7.3,1.8,16.6,8.2,24.4C526.8,312.2,538.1,314.9,542.6,316z"/>
	<path class="cls-2-donut-rabbit-level-three" d="M380,403.4C344,412,260.1,392.4,191,326.2c-5.6-5.4-80.4-76.2-92-182.3c-3.1-28.1-1.9-57.4,8.6-83.6
		s31.7-49.2,58.9-57.2c28.5-8.4,59.8,0.5,84.4,17.3S294,61,311.3,85.2c35.3,49.1,66.4,100.9,93.3,155c2.7,5.4,25.1,58.2,22.3,107.5
		c-0.6,10.8-2.6,24.3-12,36C403.4,397.8,386.8,401.7,380,403.4z"/>
	<path class="cls-1-donut-rabbit-level-three" d="M383.5,316c-24.5,5.8-81.5-7.4-128.6-52.5c-3.9-3.7-54.6-51.8-62.6-124c-2.1-19.1-1.3-39,5.9-56.9
		c7.2-17.8,21.6-33.5,40-38.9c19.4-5.7,40.7,0.4,57.4,11.7c16.7,11.4,29.4,27.6,41.2,44c24,33.4,45.2,68.7,63.5,105.4
		c1.9,3.7,17.1,39.6,15.2,73.2c-0.4,7.3-1.8,16.6-8.2,24.4C399.4,312.2,388.2,314.9,383.5,316z"/>
</g>
<circle class="cls-2-donut-rabbit-level-three" cx="469.8" cy="705.3" r="254.1"/>
<path class="cls-4-donut-rabbit-level-three" d="M514.2,827.8c0-65.8,62-119.2,138.4-119.2c12.9,0,25.8,1.5,38.3,4.6C689.8,592,591.2,494,469.7,494
	s-220.1,98-221.2,219.2c12.5-3.1,25.4-4.7,38.3-4.6c76.4,0,138.4,53.4,138.4,119.2c0,35.5-18,67.3-46.5,89.1c57.9,26,124.1,26,182,0
	C532.2,895.1,514.2,863.3,514.2,827.8z"/>
<path class="cls-5-donut-rabbit-level-three" d="M425.3,827.8c0-65.8-62-119.2-138.4-119.2c-12.9,0-25.8,1.5-38.3,4.6c0,0.7,0,1.3,0,2
	c0,87,50.9,165.9,130.2,201.7C407.3,895.1,425.3,863.3,425.3,827.8z"/>
<path class="cls-5-donut-rabbit-level-three" d="M691,715.2c0-0.7,0-1.3,0-2c-12.5-3.1-25.4-4.7-38.3-4.6c-76.4,0-138.4,53.4-138.4,119.2
	c0,35.5,18,67.3,46.5,89.1C640,881.1,691,802.2,691,715.2z"/>
<circle class="cls-6-donut-rabbit-level-three" cx="407" cy="699" r="18.3"/>
<circle class="cls-6-donut-rabbit-level-three" cx="532.5" cy="699" r="18.3"/>
<path class="cls-1-donut-rabbit-level-three" d="M245.9,1135.5c-38.8-20.5-82.1-31.7-125.9-33.4c63.6,74.1,149,126.2,244.2,148.8
	C336.6,1202.3,295.3,1161.5,245.9,1135.5z"/>
<path class="cls-1-donut-rabbit-level-three" d="M573.8,1251.8c96.5-22.1,183.4-74.6,247.9-149.7c-44.9,1.2-89.5,12.5-129.2,33.5
	C642.8,1161.7,601.4,1202.8,573.8,1251.8z"/>
<path class="cls-1-donut-rabbit-level-three" d="M507.2,686.8c4-1.6,7.9-3.5,11.6-5.6c3.7-2.2,7.2-4.7,10.6-7.3c6.1-4.9,11.6-10.5,16.3-16.8
	c2.5-3.2,4.7-6.6,6.6-10.2c1.4-2.5,1.8-5.4,1.1-8.1c-0.7-2.6-2.5-4.9-4.8-6.3c-4.9-2.6-11.5-1.4-14.4,3.8c-1.9,3.6-4.2,7-6.6,10.2
	l1.7-2.1c-4.2,5.5-9.2,10.4-14.7,14.7l2.1-1.6c-5.3,4.1-11.1,7.4-17.2,10.1l2.5-1.1l-0.4,0.2c-1.3,0.3-2.6,1-3.6,1.9
	c-1.1,0.7-2.1,1.7-2.7,2.9c-1.4,2.5-1.8,5.4-1,8.1c0.7,2.6,2.5,4.9,4.8,6.3C501.4,687,504.7,687.9,507.2,686.8L507.2,686.8z"/>
<path class="cls-1-donut-rabbit-level-three" d="M441.9,666.5l-0.4-0.2l2.5,1.1c-6.1-2.6-11.9-6-17.2-10.1l2.1,1.6c-5.5-4.2-10.4-9.1-14.6-14.6l1.6,2.1
	c-2.5-3.2-4.7-6.6-6.6-10.2c-2.6-4.8-9.7-6.8-14.4-3.8c-4.9,3-6.6,9.3-3.8,14.4c7.6,13.8,18.7,25.3,32.1,33.5
	c4.2,2.5,8.5,4.6,13,6.4c2.3,1,6,0.2,8.1-1.1c5-2.9,6.7-9.4,3.8-14.4l0,0l-1.6-2.1C445.2,668,443.6,667,441.9,666.5L441.9,666.5z"/>
<path class="cls-7-donut-rabbit-level-three" d="M473.1,705.8c-8.1-0.2-14.8,6.3-15,14.4c-0.2,8.1,6.3,14.8,14.4,15c8.1,0.2,14.8-6.3,15-14.4c0-0.1,0-0.2,0-0.2
	C487.5,712.5,481.1,705.9,473.1,705.8L473.1,705.8z M473.1,726.8c-3.5,0.1-6.4-2.7-6.4-6.2s2.7-6.4,6.2-6.4c3.5-0.1,6.4,2.7,6.4,6.2
	v0.1C479.3,723.9,476.5,726.7,473.1,726.8L473.1,726.8z"/>
<path class="cls-3-donut-rabbit-level-three" d="M456.1,748.2c-4.3,3.3,0.9,18.9,5.5,19.1c3,0.1,4.8-6.5,9.3-10.6c0.3-0.3,1.3-1.2,1.2-2.2s-1.4-1.8-2.1-2.2
	C462.7,748.6,458.3,746.4,456.1,748.2z"/>
<path d="M501,741.8c-7.9,0-15.1,4.3-19,11.1c-0.3,0.5-0.5,1.1-0.8,1.7c-4.9-4.8-11-7.9-17.7-9.2c-7.6-1.3-15.3-0.1-22.2,3.4
	c-3-5.1-8.4-8.2-14.3-8.1c-1.6,0-2.9,1.3-2.9,2.9c0,1.6,1.3,2.9,2.9,2.9c2-0.1,3.9,0.5,5.6,1.5s3.1,2.5,4,4.3
	c1.6,3.7,0.9,7.9-1.7,10.9c-1.1,1.2-1.1,3,0,4.2c1.2,1.1,3,1.1,4.1,0c3.2-3.5,4.7-8.3,4.1-13c5.8-3.3,12.6-4.5,19.2-3.3
	c6.8,1.3,12.9,4.9,17.3,10.3c-0.4,5,1,10,3.9,14.1c0.8,1.4,2.6,1.8,4,1s1.8-2.6,1-4c-5.3-6.7-4.1-16.4,2.6-21.7
	c2.8-2.2,6.3-3.4,9.8-3.3C504.8,747.7,504.8,741.8,501,741.8z"/>
</svg>
