<?xml version="1.0" encoding="utf-8"?>
<!-- Generator: Adobe Illustrator 25.4.1, SVG Export Plug-In . SVG Version: 6.00 Build 0)  -->
<svg version="1.1" id="레이어_1" xmlns="http://www.w3.org/2000/svg" xmlns:xlink="http://www.w3.org/1999/xlink" x="0px"
	 y="0px" viewBox="0 0 751.6 801.2" style="enable-background:new 0 0 751.6 801.2;" xml:space="preserve">
<style type="text/css">
	.cls-1-peach-bear-level-two{fill:#FD0300;}
	.cls-2-peach-bear-level-two{fill:#FDD301;}
	.cls-3-peach-bear-level-two{fill:#070707;}
	.cls-4-peach-bear-level-two{fill:#FC4401;}
</style>
<path class="cls-1-peach-bear-level-two" d="M751.6,137.6C751.6,61.6,690,0,614,0c-57.1,0-108.3,35.3-128.6,88.6c-37.2-0.6-74.3,5.2-109.6,17.1
	C340.5,93.8,303.5,88,266.2,88.6C239.2,17.6,159.7-18.1,88.6,9S-18.1,115.5,9,186.5c5.6,14.8,13.7,28.5,24,40.5
	C-13.8,321,1.9,429.7,5.2,452.8c0,0,31.5,218.4,308.4,334.7c27.6,11.6,47.9,14.3,62.2,13.6c14.3,0.7,34.6-2,62.2-13.6
	c276.9-116.3,308.4-334.7,308.4-334.7c3.3-23.1,19-131.9-27.8-225.8C740,202.1,751.7,170.4,751.6,137.6z"/>
<ellipse class="cls-2-peach-bear-level-two" cx="380.8" cy="624.5" rx="32.9" ry="17.5"/>
<circle class="cls-3-peach-bear-level-two" cx="306.7" cy="596.4" r="24.6"/>
<circle class="cls-3-peach-bear-level-two" cx="445" cy="596.4" r="24.6"/>
<path class="cls-3-peach-bear-level-two" d="M359.8,667.3l16.4-0.1l16.4-0.1l9.2-0.1c1.6,0,2.9-1.4,2.8-3c0,0,0,0,0,0c0-0.8-0.4-1.5-0.9-2
	c-0.6-0.5-1.3-0.8-2.1-0.8l-16.4,0.1l-16.4,0.1l-9.2,0.1c-1.6,0-2.9,1.4-2.8,3c0,0,0,0,0,0c0,0.8,0.4,1.5,0.9,2
	C358.3,667,359,667.3,359.8,667.3z"/>
<circle class="cls-4-peach-bear-level-two" cx="229.4" cy="648.6" r="43"/>
<ellipse transform="matrix(0.7071 -0.7071 0.7071 0.7071 -304.9425 561.0036)" class="cls-4-peach-bear-level-two" cx="524.7" cy="648.6" rx="43" ry="43"/>
</svg>
