<svg
  version="1.1"
  id="blueberry-octo-profile-level-one"
  xmlns="http://www.w3.org/2000/svg"
  xmlns:xlink="http://www.w3.org/1999/xlink"
  x="0px"
  y="0px"
  viewBox="0 0 669 669"
  style="enable-background: new 0 0 669 669"
  xml:space="preserve"
>
  <style type="text/css">
    .cls-1-blueberry-octo-level-one-profile {
      fill: #1600cb;
    }
    .cls-2-blueberry-octo-level-one-profile {
      fill: #2500ff;
    }
    .cls-3-blueberry-octo-level-one-profile {
      fill: #ffffff;
    }
    .cls-4-blueberry-octo-level-one-profile {
      fill: #070707;
    }
  </style>
  <path
    class="cls-1-blueberry-octo-level-one-profile"
    d="M556.4,84.2c36.5,54.8,56,119.2,55.9,185.1c0,184.7-149.8,334.5-334.5,334.5C196,603.9,117,574,55.9,519.6
	c59.9,90,162.4,149.4,278.6,149.4C519.2,669,669,519.2,669,334.5C669.1,238.8,628.1,147.6,556.4,84.2z"
  />
  <path
    class="cls-2-blueberry-octo-level-one-profile"
    d="M612.3,269.3c0.1-65.9-19.3-130.3-55.9-185.1C495.3,29.9,416.3-0.1,334.5,0C149.8,0,0,149.8,0,334.5
	c-0.1,65.9,19.3,130.3,55.9,185.1C117,574,196,603.9,277.8,603.8C462.5,603.8,612.3,454.1,612.3,269.3z"
  />
  <circle
    class="cls-3-blueberry-octo-level-one-profile"
    cx="146.3"
    cy="231.3"
    r="22.9"
  />
  <circle
    class="cls-3-blueberry-octo-level-one-profile"
    cx="397.7"
    cy="231.3"
    r="22.9"
  />
  <path
    class="cls-4-blueberry-octo-level-one-profile"
    d="M250.9,231.2l2.8,30.1c0.5,5.5,0.9,11.3,3.9,16c1.7,2.7,4,5,6.8,6.6c1.4,0.8,2.9,1.4,4.4,1.7
	c2.3,0.5,4.7,0.5,7,0c2.1-0.3,4.4-2.4,5.4-4.1c2.5-4.3,1.1-9.8-3.2-12.3l-2.1-0.9c-1.6-0.4-3.2-0.4-4.8,0l-0.4,0.1l2.4-0.3
	c-0.5,0-1,0-1.5,0l2.4,0.3c-0.6-0.1-1.2-0.2-1.8-0.5l2.1,0.9c-0.7-0.3-1.3-0.7-1.9-1.1l1.8,1.4c-0.7-0.5-1.3-1.2-1.9-1.9l1.4,1.8
	c-0.6-0.7-1-1.5-1.4-2.4l0.9,2.1c-0.7-1.8-1.2-3.7-1.4-5.7l0.3,2.4c-0.7-5.6-1.1-11.3-1.6-16.9l-1.6-17.4c-0.1-2.4-1-4.6-2.6-6.4
	c-3.5-3.5-9.2-3.5-12.7,0c0,0,0,0,0,0C252,226.6,250.7,228.9,250.9,231.2L250.9,231.2z"
  />
  <circle
    class="cls-4-blueberry-octo-level-one-profile"
    cx="152.6"
    cy="242.5"
    r="6.3"
  />
  <circle
    class="cls-4-blueberry-octo-level-one-profile"
    cx="397.7"
    cy="242.5"
    r="6.3"
  />
  <path
    class="cls-1-blueberry-octo-level-one-profile"
    d="M538.6,314.5c0.8,0,1.5-0.7,1.5-1.5s-0.7-1.5-1.5-1.5s-1.5,0.7-1.5,1.5S537.8,314.5,538.6,314.5z"
  />
</svg>
