<svg version="1.1" id="레이어_1" xmlns="http://www.w3.org/2000/svg" x="0" y="0" viewBox="0 0 993.6 707" style="enable-background:new 0 0 993.6 707" xml:space="preserve"><style>.st3{fill:#fff}.st4{fill:#fd0300}</style><path d="M871 297c8-20 12-40 12-61C883 105 716 0 511 0S138 106 138 236c0 16 2 33 8 48C57 328 0 395 0 471c0 131 167 236 373 236 42 0 83-4 124-13 41 9 82 13 124 13 206 0 373-105 373-236 0-69-48-131-123-174z" style="fill:#fdd301"/><radialGradient id="SVGID_1_" cx="298" cy="247.3" r="107.2" gradientTransform="matrix(1 0 0 -1 0 708)" gradientUnits="userSpaceOnUse"><stop offset="0" style="stop-color:#fd3400;stop-opacity:.6"/><stop offset="1" style="stop-color:#fd3700;stop-opacity:0"/></radialGradient><circle cx="298" cy="460.7" r="107.2" style="fill:url(#SVGID_1_)"/><radialGradient id="SVGID_00000132794318728005629590000012436803173477113742_" cx="676" cy="247.3" r="107.2" gradientTransform="matrix(1 0 0 -1 0 708)" gradientUnits="userSpaceOnUse"><stop offset="0" style="stop-color:#fd3400;stop-opacity:.6"/><stop offset="1" style="stop-color:#fd3700;stop-opacity:0"/></radialGradient><circle style="fill:url(#SVGID_00000132794318728005629590000012436803173477113742_)" cx="676" cy="460.7" r="107.2"/><circle class="st3" cx="441.1" cy="426" r="21.7"/><circle class="st3" cx="507.5" cy="426" r="21.7"/><path d="M395 418a6 6 0 0 1-4-8 107 107 0 0 1 83-45 107 107 0 0 1 82 42c2 3 1 6-1 8-3 1-6 1-8-1-3-4-28-38-73-38a98 98 0 0 0-75 40l-4 2z"/><path class="st4" d="M460 461h33c8 0 15 6 15 14s-7 15-15 15h-33c-8 0-14-7-14-15s6-14 14-14zM460 493h33c8 0 15 7 15 15s-7 14-15 14h-33c-8 0-14-6-14-14s6-15 14-15z"/><circle cx="441.1" cy="428.1" r="11.5"/><circle transform="rotate(-81 508 428)" cx="507.5" cy="428.1" r="11.5"/></svg>