<svg
  version="1.1"
  id="blueberry-octo-profile-level-five"
  xmlns="http://www.w3.org/2000/svg"
  xmlns:xlink="http://www.w3.org/1999/xlink"
  x="0px"
  y="0px"
  viewBox="0 0 1052.4 1352"
  style="enable-background: new 0 0 1052.4 1352"
  xml:space="preserve"
>
  <style type="text/css">
    .cls-1-blueberry-octo-level-five-profile {
      fill: url(#SVGID_1_blueberry-octo-level-five-profile);
    }
    .cls-2-blueberry-octo-level-five-profile {
      fill: url(#SVGID_00000069383277351375340150000017542844253017582215_blueberry-octo-level-five-profile);
    }
    .cls-3-blueberry-octo-level-five-profile {
      fill: #dfa9ff;
    }
    .cls-4-blueberry-octo-level-five-profile {
      fill: url(#SVGID_00000103263442672338185870000018411827487739643817_blueberry-octo-level-five-profile);
    }
    .cls-5-blueberry-octo-level-five-profile {
      fill: #76d180;
    }
    .cls-6-blueberry-octo-level-five-profile {
      fill: url(#SVGID_00000011022774572826152610000013725656669809851781_blueberry-octo-level-five-profile);
    }
    .cls-7-blueberry-octo-level-five-profile {
      fill: url(#SVGID_00000179608956387495292860000006838164639034966175_blueberry-octo-level-five-profile);
    }
    .cls-8-blueberry-octo-level-five-profile {
      fill: #5ea7ec;
    }
    .cls-9-blueberry-octo-level-five-profile {
      opacity: 0.3;
    }
    .cls-10-blueberry-octo-level-five-profile {
      fill: #070707;
    }
    .cls-11-blueberry-octo-level-five-profile {
      fill: url(#SVGID_00000168083703730812886700000009766805335650770841_blueberry-octo-level-five-profile);
    }
    .cls-12-blueberry-octo-level-five-profile {
      fill: #ffffff;
    }
    .cls-13-blueberry-octo-level-five-profile {
      opacity: 0.6;
      fill: #ffffff;
      enable-background: new;
    }
    .cls-14-blueberry-octo-level-five-profile {
      fill: url(#SVGID_00000083055428168082227820000015312688059916152210_blueberry-octo-level-five-profile);
    }
    .cls-15-blueberry-octo-level-five-profile {
      fill: url(#SVGID_00000075878596794900839430000014839512688457454756_blueberry-octo-level-five-profile);
    }
    .cls-16-blueberry-octo-level-five-profile {
      fill: url(#SVGID_00000110467676488002573880000004430654264495015343_blueberry-octo-level-five-profile);
    }
    .cls-17-blueberry-octo-level-five-profile {
      fill: #cbcbcb;
    }
    .cls-18-blueberry-octo-level-five-profile {
      fill: #130093;
    }
    .cls-19-blueberry-octo-level-five-profile {
      fill: #1600cb;
    }
    .cls-20-blueberry-octo-level-five-profile {
      fill: #13008e;
    }
    .cls-21-blueberry-octo-level-five-profile {
      fill: url(#SVGID_00000054268272766015490740000010016720953922973862_blueberry-octo-level-five-profile);
    }
    .cls-22-blueberry-octo-level-five-profile {
      opacity: 0.3;
      fill: #ffffff;
      enable-background: new;
    }
    .cls-23-blueberry-octo-level-five-profile {
      opacity: 0.5;
    }
  </style>
  <linearGradient
    id="SVGID_1_blueberry-octo-level-five-profile"
    gradientUnits="userSpaceOnUse"
    x1="920.6108"
    y1="2071.4099"
    x2="920.6108"
    y2="1035.98"
    gradientTransform="matrix(1 0 0 -1 0 1968)"
  >
    <stop offset="0.1" style="stop-color: #1600cb" />
    <stop offset="0.81" style="stop-color: #2501fd" />
  </linearGradient>
  <path
    class="cls-1-blueberry-octo-level-five-profile"
    d="M1009.3,452.4c7.7-12.2,13.8-25.4,18.1-39.1c5.7-18.4,5.5-28.2,6.2-56.2c-44.2-33.4-82.1-74.5-112-121.2
	c-7.2-11.1-13.4-22.9-18.6-35.1c-6.3-1.2-12.6-2-18.9-2.5c-10.1-0.7-41.8-2.6-76.4,10.8c2.7,20.7,11.5,41.4,21.6,60
	C870.6,345.4,934,409.4,1009.3,452.4z"
  />
  <linearGradient
    id="SVGID_00000026143082477001631630000012645211814087816579_blueberry-octo-level-five-profile"
    gradientUnits="userSpaceOnUse"
    x1="529.2173"
    y1="2071.4099"
    x2="529.2173"
    y2="1035.98"
    gradientTransform="matrix(1 0 0 -1 0 1968)"
  >
    <stop offset="0.1" style="stop-color: #1600cb" />
    <stop offset="0.81" style="stop-color: #2501fd" />
  </linearGradient>
  <path
    style="
      fill: url(#SVGID_00000026143082477001631630000012645211814087816579_blueberry-octo-level-five-profile);
    "
    d="M682.6,247c0.7-6.1,1.2-13.3,1.3-21.6
	c0.2-15.8-6.8-38-20.7-64.3c-84.1,9-171.5-13.3-241-61.5c-20,22.6-35.9,44-47.6,63.2C456.3,236.9,574.5,269.7,682.6,247z"
  />
  <path
    class="cls-3-blueberry-octo-level-five-profile"
    d="M663.2,161.1c-12.1-23-29.4-49.1-51.7-76.9c-47.7-3.4-94.2-16.1-137-37.5c-18.3,16.7-35.8,34.4-52.2,52.9
	C491.6,147.8,579.1,170,663.2,161.1z"
  />
  <linearGradient
    id="SVGID_00000090259837279589405640000010576670598633102498_blueberry-octo-level-five-profile"
    gradientUnits="userSpaceOnUse"
    x1="542.9407"
    y1="2071.4099"
    x2="542.9407"
    y2="1035.98"
    gradientTransform="matrix(1 0 0 -1 0 1968)"
  >
    <stop offset="0.1" style="stop-color: #1600cb" />
    <stop offset="0.81" style="stop-color: #2501fd" />
  </linearGradient>
  <path
    style="
      fill: url(#SVGID_00000090259837279589405640000010576670598633102498_blueberry-octo-level-five-profile);
    "
    d="M531.2-1.1c-20.6,15.9-39.5,31.9-56.7,47.7
	c42.8,21.4,89.3,34.1,137,37.5C586.8,53.8,560,25.3,531.2-1.1z"
  />
  <path
    class="cls-5-blueberry-octo-level-five-profile"
    d="M1033.6,357.1c0.1-3.4,0.2-6.9,0.3-10.8c1.1-33,5.1-79.7,18.4-136.9c-12.9,5-26.4,8.3-40.1,10
	c-46,5.5-71.5-11.6-109.2-18.6c5.1,12.2,11.4,24,18.6,35.1C951.5,282.6,989.4,323.7,1033.6,357.1z"
  />
  <linearGradient
    id="SVGID_00000012445217566554839710000012975182094976424861_blueberry-octo-level-five-profile"
    gradientUnits="userSpaceOnUse"
    x1="91.2441"
    y1="2071.4099"
    x2="91.2441"
    y2="1035.98"
    gradientTransform="matrix(1 0 0 -1 0 1968)"
  >
    <stop offset="0.1" style="stop-color: #1600cb" />
    <stop offset="0.81" style="stop-color: #2501fd" />
  </linearGradient>
  <path
    style="
      fill: url(#SVGID_00000012445217566554839710000012975182094976424861_blueberry-octo-level-five-profile);
    "
    d="M145.7,351.9
	c26.7-49.6,38.1-106.9,33.7-163c-4.6-0.4-9.3-0.5-14-0.5c-16.1,0.1-12.1,4.6-46.4,6.9c-5.4,0.4-10.6,0.5-15.7,0.6
	c-3.8,27.8-11.5,54.9-23.1,80.4C62,315.8,35.4,350.8,2.1,378.8c1.1,8.6,3,17.1,5.7,25.3c6.7,21.6,17.8,41.6,32.5,58.7
	C84.3,435.8,121.3,397.4,145.7,351.9z"
  />
  <linearGradient
    id="SVGID_00000094576763225892679590000017983469014204283564_blueberry-octo-level-five-profile"
    gradientUnits="userSpaceOnUse"
    x1="517.59"
    y1="2071.4099"
    x2="517.59"
    y2="1035.98"
    gradientTransform="matrix(1 0 0 -1 0 1968)"
  >
    <stop offset="0.1" style="stop-color: #1600cb" />
    <stop offset="0.81" style="stop-color: #2501fd" />
  </linearGradient>
  <path
    style="
      fill: url(#SVGID_00000094576763225892679590000017983469014204283564_blueberry-octo-level-five-profile);
    "
    d="M752.2,335.5
	c-10.4-19.2-19.6-40.7-21.8-62.1c-18.2,27.9-28.4,60.3-28,90.4v0.2c-16.3-6.3-33-11.8-49.9-16.4c-4.4-1.2-7.6-5-8.1-9.5
	c-103.1,16.3-213.5-15.6-291.1-85.6c2.2,15.1,5.5,22,5.5,22c6.3,20.2,16.4,39,29.7,55.5c3.9,4.7,3.2,11.6-1.4,15.5
	c-1.2,1-2.6,1.7-4.1,2.1c-14,3.8-27.7,8.2-41.2,13.1c-3.4,1.2-7.1-0.5-8.4-3.9c-0.3-0.7-0.4-1.5-0.4-2.3
	c0-58.5-30.7-112.7-80.9-142.7c9.3,57.1,2,116.9-22,169.5c-27,59.5-74.8,109-132.6,139.2c3.7,12.7,1.7,26.4-5.7,37.4
	C22.1,662.7-10,794.4,14.7,933.9c33.4,189.2,216.5,374.1,405.5,409c325.1,60,608.6-188,608.6-502.1c0.2-98.2-28.1-194.4-81.4-276.9
	c-7.5-11.6-9.2-26.1-4.6-39.2C862.8,481.7,795.4,415.4,752.2,335.5z"
  />
  <path
    class="cls-5-blueberry-octo-level-five-profile"
    d="M959.9,502.8c19.9-13.1,36.7-30.3,49.4-50.4c-75.3-43.1-138.7-107.1-180-183.4c-10.1-18.6-18.9-39.2-21.6-59.9
	c-6.9,2.7-13.7,5.9-20.1,9.5c-23.3,13.2-42.8,32.6-57.2,54.8c2.3,21.4,11.4,42.9,21.8,62.1c43.3,79.8,110.6,146.2,190.5,189.2
	C945.9,515.7,951.9,508,959.9,502.8z"
  />
  <path
    class="cls-8-blueberry-octo-level-five-profile"
    d="M80.2,276.2c11.5-25.5,19.3-52.6,23.1-80.4c-38.9,0.2-71.2-8.6-93.2-16.5C0.1,256.5-0.7,315,0.4,353.7
	c0.2,8.4,0.7,16.8,1.8,25.1C35.4,350.8,62,315.8,80.2,276.2z"
  />
  <path
    class="cls-3-blueberry-octo-level-five-profile"
    d="M644.4,338.1c-0.3-3,0.6-6,2.5-8.3c13.3-16.4,23.3-35.2,29.5-55.3c0,0,4-8.5,6.2-27.5
	c-108,22.7-226.3-10.1-308-84.2c-15.4,25.4-23.4,47.1-23.2,62.5c0,9.1,0.7,18.2,1.9,27.2C430.9,322.5,541.3,354.4,644.4,338.1z"
  />
  <path
    class="cls-8-blueberry-octo-level-five-profile"
    d="M230,381.5c23.9-52.7,31.3-112.5,22-169.5c-22.1-13.2-46.9-21.1-72.5-23.1c4.4,56.1-7.1,113.5-33.7,163
	c-24.5,45.5-61.4,83.9-105.3,110.9c11,12.8,23.8,23.8,38,32.7c9.2,5.8,16,14.7,19,25.1C155.2,490.5,203,440.9,230,381.5z"
  />
  <g class="cls-9-blueberry-octo-level-five-profile">
    <path
      d="M566.3,279.8c-2.9,12.6-6.1,26.7,0.3,37.9c5.8,10.1,17.9,14.7,29.4,17c16.2,3.1,32.8,3,48.9-0.3c0.4-1.7,1.1-3.2,2.2-4.5
		c13.3-16.4,23.3-35.2,29.6-55.3c0,0,7-14.9,7.4-49.2C684.7,182.2,631.8,91.7,532.7,0C575.3,85.8,587.6,186.4,566.3,279.8z"
    />
    <path
      d="M100.8,266.3c19.3,8.2,39.9,13.1,59.5,20.7c22.1,8.6,37.6,18.8,50.8,35.7c24.9,32,12.4,62.4,31.2,71
		c7,3.2,14.1,1.4,60.1-20c11.8-5.5,22.6-10.7,32.1-15.2c-0.8-1.1-1.2-2.4-1.2-3.8c0-91.8-74.4-166.3-166.2-166.3c-0.4,0-0.8,0-1.2,0
		c-16.1,0.1-12.1,4.6-46.4,6.9c-46,3.1-84.1-7-109-15.9c-0.2,1.3-0.3,2.7-0.5,4C30,220,62.3,250,100.8,266.3z"
    />
    <path
      d="M960.3,502.8c32.1-21.2,56-52.8,67.5-89.5c6.4-20.6,5.4-30.4,6.6-67c1.1-32.7,5-78.7,18-135.1
		c-37.9,98.4-87,160.9-126.4,200.4c-56.5,56.7-109.3,82.8-121.3,145.6c-8.3,43.3,9.7,68.8,30,126c42.6,121,52.7,251.1,29.2,377.2
		c-9.7,52-23.2,111.7-70.1,170.1c-51.6,64.3-120,95.8-174.6,111.4c233.8-47,409.9-253.5,409.9-501.1c0.2-98.2-28.1-194.4-81.4-276.9
		C934.5,543.5,940,516.2,960.3,502.8z"
    />
  </g>
  <circle
    class="cls-10-blueberry-octo-level-five-profile"
    cx="348.7"
    cy="841.4"
    r="65.1"
  />
  <radialGradient
    id="SVGID_00000125587692179085361370000016419806783470148259_blueberry-octo-level-five-profile"
    cx="332.5908"
    cy="1113.8301"
    r="41.2"
    gradientTransform="matrix(1 0 0 -1 0 1968)"
    gradientUnits="userSpaceOnUse"
  >
    <stop offset="0" style="stop-color: #00ffbf; stop-opacity: 0.3" />
    <stop offset="0.81" style="stop-color: #53beef; stop-opacity: 0" />
  </radialGradient>
  <circle
    style="
      fill: url(#SVGID_00000125587692179085361370000016419806783470148259_blueberry-octo-level-five-profile);
    "
    cx="332.6"
    cy="854.2"
    r="41.2"
  />
  <circle
    class="cls-12-blueberry-octo-level-five-profile"
    cx="357.1"
    cy="811.8"
    r="20"
  />
  <circle
    class="cls-13-blueberry-octo-level-five-profile"
    cx="386"
    cy="831.9"
    r="8.9"
  />
  <circle
    class="cls-10-blueberry-octo-level-five-profile"
    cx="695.1"
    cy="841.4"
    r="65.1"
  />
  <radialGradient
    id="SVGID_00000155828949392690810060000007116256678206856863_blueberry-octo-level-five-profile"
    cx="678.9207"
    cy="1113.8301"
    r="41.2"
    gradientTransform="matrix(1 0 0 -1 0 1968)"
    gradientUnits="userSpaceOnUse"
  >
    <stop offset="0" style="stop-color: #00ffbf; stop-opacity: 0.3" />
    <stop offset="0.81" style="stop-color: #53beef; stop-opacity: 0" />
  </radialGradient>
  <circle
    style="
      fill: url(#SVGID_00000155828949392690810060000007116256678206856863_blueberry-octo-level-five-profile);
    "
    cx="678.9"
    cy="854.2"
    r="41.2"
  />
  <circle
    class="cls-12-blueberry-octo-level-five-profile"
    cx="703.4"
    cy="811.8"
    r="20"
  />
  <circle
    class="cls-13-blueberry-octo-level-five-profile"
    cx="732.4"
    cy="831.9"
    r="8.9"
  />
  <radialGradient
    id="SVGID_00000168823465423217058570000006596985200714029502_blueberry-octo-level-five-profile"
    cx="216.7679"
    cy="957.4775"
    r="119.66"
    gradientTransform="matrix(1 0 0 -1 0 1968)"
    gradientUnits="userSpaceOnUse"
  >
    <stop offset="0" style="stop-color: #d20c2b" />
    <stop offset="1" style="stop-color: #d20c2b; stop-opacity: 0" />
  </radialGradient>
  <path
    style="
      fill: url(#SVGID_00000168823465423217058570000006596985200714029502_blueberry-octo-level-five-profile);
    "
    d="M188.6,892.9
	c-55.1,12.9-96.2,69.5-91.8,125.9c4.5,56.4,53.8,105.8,110.2,110.4c72.7,6,140.8-67.8,128.6-139.7S234.4,870.3,168.1,901"
  />
  <radialGradient
    id="SVGID_00000080891156118381149010000006542259274191996317_blueberry-octo-level-five-profile"
    cx="807.0056"
    cy="950.803"
    r="111.2619"
    gradientTransform="matrix(1 0 0 -1 0 1968)"
    gradientUnits="userSpaceOnUse"
  >
    <stop offset="0" style="stop-color: #d20c2b" />
    <stop offset="1" style="stop-color: #d20c2b; stop-opacity: 0" />
  </radialGradient>
  <path
    style="
      fill: url(#SVGID_00000080891156118381149010000006542259274191996317_blueberry-octo-level-five-profile);
    "
    d="M780.8,907.9
	c-51.2,12-89.5,64.6-85.3,117.1s50,98.3,102.4,102.7c67.6,5.6,130.9-63,119.6-129.9s-94.2-110.8-155.7-82.3"
  />
  <circle
    class="cls-17-blueberry-octo-level-five-profile"
    cx="96.5"
    cy="325.2"
    r="60.1"
  />
  <circle
    class="cls-12-blueberry-octo-level-five-profile"
    cx="90.9"
    cy="320.8"
    r="53.5"
  />
  <circle cx="84.3" cy="309.6" r="27.8" />
  <circle
    class="cls-17-blueberry-octo-level-five-profile"
    cx="518.6"
    cy="151.5"
    r="60.1"
  />
  <circle
    class="cls-12-blueberry-octo-level-five-profile"
    cx="513"
    cy="147"
    r="53.5"
  />
  <circle cx="529.7" cy="159.3" r="27.8" />
  <circle
    class="cls-17-blueberry-octo-level-five-profile"
    cx="926.1"
    cy="287.4"
    r="60.1"
  />
  <circle
    class="cls-12-blueberry-octo-level-five-profile"
    cx="920.6"
    cy="282.9"
    r="53.4"
  />
  <circle cx="909.4" cy="279.6" r="27.8" />
  <path
    class="cls-18-blueberry-octo-level-five-profile"
    d="M716.3,705.8c37.8,3.3,43.7,6.1,47.4,11.4c4.3,6.2,5.8,16.2,0.7,22.7c-1.2,1.6-5.4,9.3-22.9,8.2l-58.6-3.8
	c-6.7-0.4-13.6-0.9-19.4-3.5c-1.8-0.8-10.2-5.8-10.2-14.1c0.1-9.6,11.7-17,13.3-18.1C674,703.9,681.8,702.8,716.3,705.8z"
  />
  <path
    class="cls-19-blueberry-octo-level-five-profile"
    d="M717.3,700.7c34.5,3.1,40,5.6,43.4,10.4c4,5.7,5.3,14.8,0.6,20.8c-1.1,1.4-4.9,8.5-20.9,7.5l-53.6-3.4
	c-6.1-0.4-12.4-0.8-17.8-3.2c-1.7-0.7-9.4-5.3-9.3-12.9c0.1-8.8,10.7-15.6,12.2-16.5C678.6,699,685.7,697.9,717.3,700.7z"
  />
  <path
    class="cls-18-blueberry-octo-level-five-profile"
    d="M360.5,705.2c37.9-1.6,44.2,0.4,48.5,5.2c5.1,5.6,7.8,15.3,3.6,22.5c-1,1.7-4.2,9.9-21.6,11l-58.5,3.9
	c-6.7,0.4-13.6,0.9-19.7-1c-1.9-0.6-10.9-4.5-11.9-12.7c-1.2-9.6,9.4-18.4,10.8-19.6C318.3,708.8,325.9,706.6,360.5,705.2z"
  />
  <path
    class="cls-19-blueberry-octo-level-five-profile"
    d="M360.8,700c34.7-1.4,40.4,0.4,44.3,4.8c4.7,5.1,7.2,14,3.3,20.5c-0.9,1.6-3.8,9.1-19.8,10.1l-53.5,3.5
	c-6.1,0.4-12.4,0.8-18-0.9c-1.8-0.5-10-4.1-10.9-11.6c-1.1-8.8,8.6-16.8,9.9-18C322.3,703.3,329.2,701.3,360.8,700z"
  />
  <path
    class="cls-12-blueberry-octo-level-five-profile"
    d="M564,1075.7c-7.9-5.5-10.7-14.3-16-31.5c-3.4-11.3-3.4-14.9-1.5-17.6c2.5-3.5,7-4.8,11.3-5.1
	c11.9-0.7,27.5,7.3,32.1,21.9c4.8,15.3-3,34.4-13.3,36.5C571.7,1081,567.2,1077.9,564,1075.7z"
  />
  <path
    class="cls-12-blueberry-octo-level-five-profile"
    d="M434.5,1051.3c2.3-9.4,9.5-15.1,23.6-26.2c9.3-7.3,12.7-8.5,15.9-7.7c4.1,1.1,7,4.8,8.8,8.7
	c5,10.9,3,28.3-9,37.8c-12.6,10-33.2,9.6-38.9,0.7C432.3,1060.4,433.6,1055.1,434.5,1051.3z"
  />
  <path
    class="cls-20-blueberry-octo-level-five-profile"
    d="M501.9,895.4c-75.7,0-137,61.3-137,137s61.3,137,137,137s137-61.3,137-137l0,0
	C638.9,956.7,577.5,895.4,501.9,895.4z M501.9,1100.8c-37.8,0-68.5-30.7-68.5-68.5c0-37.8,30.7-68.5,68.5-68.5
	c37.8,0,68.5,30.7,68.5,68.5c0,0,0,0,0,0C570.3,1070.2,539.7,1100.8,501.9,1100.8C501.9,1100.8,501.9,1100.8,501.9,1100.8z"
  />
  <linearGradient
    id="SVGID_00000102524408098836063650000002800903174620150204_blueberry-octo-level-five-profile"
    gradientUnits="userSpaceOnUse"
    x1="515.2208"
    y1="1136"
    x2="515.2208"
    y2="818.02"
    gradientTransform="matrix(1 0 0 -1 0 1968)"
  >
    <stop offset="0.1" style="stop-color: #1600cb" />
    <stop offset="0.81" style="stop-color: #53beef" />
  </linearGradient>
  <path
    style="
      fill: url(#SVGID_00000102524408098836063650000002800903174620150204_blueberry-octo-level-five-profile);
    "
    d="M515.2,1083c-36.6,0-66.3-29.6-66.3-66.2
	c0-36.6,29.6-66.3,66.2-66.3c36.6,0,66.3,29.6,66.3,66.2c0,0,0,0,0,0C581.4,1053.3,551.8,1083,515.2,1083z M515.2,884.2
	c-73.2,0-132.5,59.3-132.5,132.5c0,73.2,59.3,132.5,132.5,132.5s132.5-59.3,132.5-132.5l0,0C647.7,943.6,588.4,884.2,515.2,884.2
	L515.2,884.2z"
  />
  <path
    class="cls-22-blueberry-octo-level-five-profile"
    d="M65.7,435c17.2,15.6,38.9,26,54.5,43.2c28.4,31.4,30.5,79.2,20.2,120.3s-31.2,78.8-44,119.2s-16.6,87,5.9,123
	c1.9,3.1,4.5,6.4,8.2,6.9c3.1,0.4,6.1-1.5,8.5-3.5c15.7-12.9,23.2-33.5,26.4-53.6s2.7-40.7,5.9-60.8
	c12.2-76.5,75.5-136.3,93.3-211.7c6.3-26.7,3.9-60-19.4-74.3c-19.6-12-44.6-5.2-67.5-4.7c-39.8,1-68.7-18.5-95.9-45
	c-5.9-5.7-20.6-22.2-26.8-6.2C30.4,399.5,58.3,428.2,65.7,435z"
  />
  <g class="cls-9-blueberry-octo-level-five-profile">
    <path
      class="cls-12-blueberry-octo-level-five-profile"
      d="M296.6,428.7c-12.1,13.9-13.3,39,2.4,51s40.6,5.3,50.3-12.2c10.2-18.4,0.6-43.3-17.3-49.6
		C319.1,413.3,304.6,419.4,296.6,428.7z"
    />
  </g>
  <g class="cls-9-blueberry-octo-level-five-profile">
    <path
      class="cls-12-blueberry-octo-level-five-profile"
      d="M403.3,162.1c-10.6,8.3-31.3,43-24.5,89.1c0,0,4.4,29.7,22.3,47.9c6.2,6.3,11,7.9,15,8
		c8.6,0.3,14.3-6.2,14.7-6.7c4.4-5.1,4.8-11.5,4.8-16.2c-0.5-28.8-22.4-42.6-19-64.3c2.4-15.6,15-16.8,18.1-39.3
		c0.8-5.8,2.1-16.1-4.1-21.3c-5.2-4.4-13.4-3.1-15.2-2.8C411.1,157.4,406.9,159.3,403.3,162.1z"
    />
  </g>
  <g class="cls-9-blueberry-octo-level-five-profile">
    <path
      class="cls-12-blueberry-octo-level-five-profile"
      d="M437.8,142c-3.1,3.1-8.2,1.7-9.7,1.3s-7.5-2-8.6-7.3c-1-4.4,2.1-9.5,6.8-10.9c5.2-1.6,9.8,2.1,11.8,5.5
		C439.9,133.8,440.8,139,437.8,142z"
    />
  </g>
  <g class="cls-9-blueberry-octo-level-five-profile">
    <path
      class="cls-12-blueberry-octo-level-five-profile"
      d="M795.3,251.2c-37.9,1.1-63.8,55.2-67.8,88.2c-0.8,6.5-2.2,18.7,3.9,22.3c5.2,3.1,12.3,0.6,16.4-3.9
		c4.1-4.6,6.8-10.3,7.9-16.4c5.1-33,64.7-70.4,57-85.2C809.9,250.8,799.7,251,795.3,251.2z"
    />
  </g>
  <g class="cls-9-blueberry-octo-level-five-profile">
    <path
      class="cls-12-blueberry-octo-level-five-profile"
      d="M824.2,246.7c-3.2,0.4-5.7-2.1-6.1-2.4c-2.5-2.5-3.3-6.5-1.9-9.3c2.6-5.1,12.4-5.1,14.9-1.1
		S829.7,246.1,824.2,246.7z"
    />
  </g>
  <g class="cls-23-blueberry-octo-level-five-profile">
    <path
      class="cls-12-blueberry-octo-level-five-profile"
      d="M451.7,919c-0.5,1-1.7,3.3-0.8,4.7c0.8,1.1,2.2,1.5,3.5,1.1c1.3-0.4,2.4-1,3.5-1.9
		c10.6-7.5,22.8-12.6,35.6-15c2.5-0.5,5.7-1.5,5.8-4.1c0-1.6-1.9-2.8-2.5-3.3c-1.7-1.1-6.4-3.4-21,1.8
		C475.7,902.5,457,909.1,451.7,919z"
    />
  </g>
  <g class="cls-23-blueberry-octo-level-five-profile">
    <path
      class="cls-12-blueberry-octo-level-five-profile"
      d="M518,908.2c1.6,0.3,3.2-0.1,4.5-1.1c2.3-1.9,3.1-6.1,0.7-8.7c-2.4-2.3-6.3-2.3-8.6,0.1
		c-0.1,0.1-0.2,0.3-0.4,0.4C512,902,514.5,907.3,518,908.2z"
    />
  </g>
  <g class="cls-23-blueberry-octo-level-five-profile">
    <path
      class="cls-12-blueberry-octo-level-five-profile"
      d="M836.3,997.8c-6.5,2.7-14.8-1.2-18.4-7.5c-3.3-5.6-3.5-14.2,2.2-19.5c5.1-4.7,12.8-5.3,18.6-1.5
		c8.2,5.6,5.7,16.7,5.4,17.8C843.8,988.6,842.1,995.3,836.3,997.8z"
    />
  </g>
  <g class="cls-23-blueberry-octo-level-five-profile">
    <path
      class="cls-12-blueberry-octo-level-five-profile"
      d="M848.7,1000.6c-3.3,3.2-4,8.8-1.1,12.2c3.4,4.1,10.5,3.8,14-0.4c2.8-3.4,3.2-9.1-0.5-12.5
		S852,997.5,848.7,1000.6z"
    />
  </g>
</svg>
