<svg
  version="1.1"
  id="lemon-mouse-level-two-profile"
  xmlns="http://www.w3.org/2000/svg"
  x="0"
  y="0"
  viewBox="0 0 604.8 836.5"
  style="enable-background: new 0 0 604.8 836.5"
  xml:space="preserve"
>
  <style>
    .cls-2-lemon-mouse-level-two-profile {
      fill: #fc1b00;
    }
    .cls-3-lemon-mouse-level-two-profile {
      fill: #fff;
    }
  </style>
  <path
    d="M600.3 402.7c-5-48.5-20.8-203.4-145.8-302.2C428.1 79.6 376 38.4 303 31.9c-1.8-.2-3.4-1.1-4.4-2.7C287.7 11.9 265.9 0 240.8 0c-36.1 0-65.3 24.5-65.3 54.7 0 2.2-1.2 4.3-3.1 5.3-40.4 21.9-67.3 50.1-78.7 61.8C14.3 203.7 7.3 304.3 3 365.3c-5.4 76.3-15.7 223.4 93.7 325.9 4.4 4.1 74 67.2 173.3 82.5 3 .5 5.9 1.4 8.5 2.9 17.4 9.5 34 20.3 49.9 32.2 27.2 20.5 29.3 26.8 40 27.6 31.6 2.2 69.5-49 79.4-86.6 1.7-6.3 5.7-11.8 11.2-15.2 79.8-50 115-127.5 121.9-143.5 31.3-72.7 24.7-136.6 19.4-188.4z"
    style="fill: #fc4401"
  />
  <circle
    class="cls-2-lemon-mouse-level-two-profile"
    cx="110.6"
    cy="436.8"
    r="61.6"
  />
  <circle
    class="cls-2-lemon-mouse-level-two-profile"
    cx="467"
    cy="349.8"
    r="61.6"
  />
  <circle
    class="cls-3-lemon-mouse-level-two-profile"
    cx="213.8"
    cy="297"
    r="19.4"
  />
  <circle
    class="cls-3-lemon-mouse-level-two-profile"
    cx="302.4"
    cy="268.6"
    r="19.4"
  />
  <path
    d="M242.6 339.8c-4.4 9.5-8.2 19.2-11.6 29.1-1.5 4.6-2.8 9.4-3.7 14.1-1.1 5.4-1.7 10.8-1.8 16.3-.1 4.8.4 9.6 1.3 14.3.8 4 2.1 7.9 3.7 11.7 1.5 3.7 3.4 7.3 5.7 10.6 2.4 3.5 5.2 6.8 8.4 9.7 3.1 2.8 6.5 5.2 10.3 7.1 3.7 1.9 7.7 3.2 11.9 3.9 1.5.2 3.1.4 4.6.5 1 0 2.1-.2 3-.7 1-.3 1.8-.9 2.5-1.6.7-.7 1.3-1.5 1.6-2.5.5-.9.7-2 .7-3 0-2.1-.8-4-2.3-5.5l-1.6-1.2c-1.2-.7-2.5-1.1-3.9-1.1-.8 0-1.5-.1-2.3-.2l2.1.3c-2.9-.4-5.7-1.2-8.4-2.3l1.9.8c-2.9-1.3-5.7-2.9-8.2-4.8l1.6 1.2c-3-2.3-5.7-5-8-8l1.2 1.6c-2.8-3.6-5.1-7.6-6.9-11.8l.8 1.9c-1.9-4.5-3.2-9.2-3.8-14l.3 2.1c-.7-6.1-.7-12.2.2-18.3l-.3 2.1c1.3-9.8 4.3-19.4 7.9-28.6 1-2.7 2.1-5.3 3.2-7.9l-.8 1.9c1.4-3.3 2.9-6.6 4.3-9.9.6-.9.9-1.9.9-2.9.4-3.1-1.1-6.1-3.7-7.7-1.8-1.1-4-1.3-6-.8l-1.9.8c-1.3.7-2.2 1.6-2.9 2.8zM314.5 473.4l16.9-2.7c1-.2 1.9-.7 2.6-1.4.8-.5 1.5-1.3 2-2.2.6-.9.9-1.9.9-2.9.2-1 .2-2.1-.1-3.1-.5-1.9-1.8-3.6-3.6-4.6l-1.9-.8c-1.4-.4-2.8-.4-4.1 0l-16.9 2.7c-1.9.6-3.5 1.9-4.6 3.6-.6.9-.9 1.9-.9 2.9-.2 1-.2 2.1.2 3.1.5 1.9 1.8 3.6 3.6 4.6l1.9.8c1.3.4 2.7.4 4 0z"
  />
  <circle cx="216.2" cy="301.1" r="7.3" />
  <circle cx="302.4" cy="274.8" r="7.3" />
</svg>
