<svg
  width="24"
  height="24"
  viewBox="0 0 24 24"
  fill="none"
  xmlns="http://www.w3.org/2000/svg"
>
  <path
    d="M13.7134 12C13.7134 12.9463 12.9463 13.7134 12 13.7134C11.0537 13.7134 10.2866 12.9463 10.2866 12C10.2866 11.0537 11.0537 10.2866 12 10.2866C12.9463 10.2866 13.7134 11.0537 13.7134 12Z"
    stroke="#C5BEF4"
    stroke-width="1.5"
  />
  <path
    d="M10.663 5.06869C10.9849 3.64377 13.0151 3.64377 13.337 5.06869L13.4507 5.57191C13.6593 6.4954 14.719 6.93437 15.5196 6.42886L15.9558 6.15341C17.1909 5.37343 18.6266 6.80907 17.8466 8.04424L17.5711 8.48044C17.0656 9.28095 17.5046 10.3407 18.4281 10.5493L18.9313 10.663C20.3562 10.9849 20.3562 13.0151 18.9313 13.337L18.4281 13.4507C17.5046 13.6593 17.0656 14.719 17.5711 15.5196L17.8466 15.9558C18.6266 17.1909 17.1909 18.6266 15.9558 17.8466L15.5196 17.5711C14.719 17.0656 13.6593 17.5046 13.4507 18.4281L13.337 18.9313C13.0151 20.3562 10.9849 20.3562 10.663 18.9313L10.5493 18.4281C10.3407 17.5046 9.28095 17.0656 8.48044 17.5711L8.04424 17.8466C6.80907 18.6266 5.37344 17.1909 6.15341 15.9558L6.42886 15.5196C6.93437 14.719 6.4954 13.6593 5.57191 13.4507L5.06869 13.337C3.64377 13.0151 3.64377 10.9849 5.06869 10.663L5.57191 10.5493C6.4954 10.3407 6.93437 9.28095 6.42886 8.48044L6.15341 8.04424C5.37343 6.80907 6.80907 5.37344 8.04424 6.15341L8.48044 6.42886C9.28095 6.93437 10.3407 6.4954 10.5493 5.57191L10.663 5.06869Z"
    stroke="#B0B9EB"
    stroke-width="1.5"
  />
</svg>
