<svg
  width="20"
  height="20"
  viewBox="0 0 20 20"
  fill="none"
  xmlns="http://www.w3.org/2000/svg"
>
  <g clip-path="url(#clip0_1008:14298)">
    <path
      d="M12.0333 6.07238L15.5688 9.60791L16.3938 8.78295L12.8582 5.24742L12.0333 6.07238ZM17.5392 7.87261L9.43885 15.9729C9.40823 16.0036 9.37018 16.0257 9.32844 16.0372L4.4494 17.3807C4.26238 17.4322 4.0905 17.2603 4.142 17.0733L5.48551 12.1943C5.497 12.1525 5.51914 12.1145 5.54976 12.0839L13.6501 3.98352C13.6518 3.98178 13.6532 3.98045 13.6542 3.97947C13.7722 3.90213 14.1865 3.66012 14.7549 3.62676C15.3058 3.59443 16.0698 3.75271 16.9199 4.60281C17.77 5.45292 17.9283 6.21693 17.8959 6.7678C17.8626 7.33623 17.6206 7.75047 17.5432 7.86845C17.5423 7.86949 17.5409 7.87087 17.5392 7.87261Z"
      stroke="#F8F8F8"
      stroke-width="1.16667"
    />
  </g>
  <defs>
    <clipPath id="clip0_1008:14298">
      <rect width="20" height="20" fill="white" />
    </clipPath>
  </defs>
</svg>
