<svg width="16" height="16" viewBox="0 0 16 16" fill="none" xmlns="http://www.w3.org/2000/svg">
<path d="M5.07271 8.72671L4.59065 8.59397L5.07271 8.72671C5.0957 8.64322 5.13998 8.56713 5.20121 8.5059L10.2283 3.47883C10.2371 3.47001 10.2427 3.46496 10.246 3.4622C10.2468 3.46156 10.2474 3.46109 10.2478 3.46078C10.3364 3.40559 10.5823 3.27471 10.9074 3.26566C11.2136 3.25713 11.6469 3.35402 12.1415 3.84865C12.6362 4.34327 12.7331 4.7766 12.7245 5.08279C12.7155 5.40792 12.5846 5.65383 12.5294 5.74241C12.5291 5.7428 12.5286 5.74338 12.528 5.74415C12.5252 5.74745 12.5202 5.75309 12.5114 5.76191L7.48429 10.789C7.42306 10.8502 7.34697 10.8945 7.26348 10.9175L5.08864 11.5164C4.71458 11.6194 4.37084 11.2756 4.47384 10.9016L5.07271 8.72671Z" stroke="#EAEAEA"/>
</svg>
