<svg width="28" height="28" viewBox="0 0 28 28" fill="none" xmlns="http://www.w3.org/2000/svg">
<path fill-rule="evenodd" clip-rule="evenodd" d="M13.8912 5C12.4206 5 11.1149 5.94106 10.6499 7.33623L10.3738 8.16441H7.75C7.33579 8.16441 7 8.5002 7 8.91441C7 9.32862 7.33579 9.66441 7.75 9.66441H20.4075C20.8217 9.66441 21.1575 9.32862 21.1575 8.91441C21.1575 8.5002 20.8217 8.16441 20.4075 8.16441H17.7837L17.5077 7.33623C17.0426 5.94106 15.737 5 14.2663 5H13.8912ZM12.0729 7.81058C12.3338 7.02791 13.0662 6.5 13.8912 6.5H14.2663C15.0913 6.5 15.8238 7.02791 16.0847 7.81057L16.2026 8.16438H11.955L12.0729 7.81058ZM9.38173 11.733V22.1815H19.0392V11.733H9.38173ZM9.21507 10.233C8.47868 10.233 7.88173 10.83 7.88173 11.5664V22.3482C7.88173 23.0846 8.47868 23.6815 9.21507 23.6815H19.2058C19.9422 23.6815 20.5392 23.0846 20.5392 22.3482V11.5664C20.5392 10.83 19.9422 10.233 19.2058 10.233H9.21507Z" fill="#EAEAEA"/>
</svg>
