<svg
  width="20"
  height="20"
  viewBox="0 0 20 20"
  fill="none"
  xmlns="http://www.w3.org/2000/svg"
>
  <g opacity="0.9">
    <path
      fill-rule="evenodd"
      clip-rule="evenodd"
      d="M18.64 10.2045C18.64 9.56636 18.5827 8.95272 18.4764 8.36363H10V11.845H14.8436C14.635 12.97 14.0009 13.9232 13.0477 14.5614V16.8195H15.9564C17.6582 15.2527 18.64 12.9454 18.64 10.2045Z"
      fill="#4285F4"
    />
    <path
      fill-rule="evenodd"
      clip-rule="evenodd"
      d="M9.99976 19C12.4298 19 14.467 18.1941 15.9561 16.8196L13.0475 14.5614C12.2416 15.1014 11.2107 15.4205 9.99976 15.4205C7.65567 15.4205 5.67158 13.8373 4.96385 11.71H1.95703V14.0418C3.43794 16.9832 6.48158 19 9.99976 19Z"
      fill="#34A853"
    />
    <path
      fill-rule="evenodd"
      clip-rule="evenodd"
      d="M4.96409 11.71C4.78409 11.17 4.68182 10.5932 4.68182 9.99999C4.68182 9.40681 4.78409 8.82999 4.96409 8.28999V5.95818H1.95727C1.34773 7.17318 1 8.54772 1 9.99999C1 11.4523 1.34773 12.8268 1.95727 14.0418L4.96409 11.71Z"
      fill="#FBBC05"
    />
    <path
      fill-rule="evenodd"
      clip-rule="evenodd"
      d="M9.99976 4.57955C11.3211 4.57955 12.5075 5.03364 13.4402 5.92545L16.0216 3.34409C14.4629 1.89182 12.4257 1 9.99976 1C6.48158 1 3.43794 3.01682 1.95703 5.95818L4.96385 8.29C5.67158 6.16273 7.65567 4.57955 9.99976 4.57955Z"
      fill="#EA4335"
    />
  </g>
</svg>
